<svg width="800" height="450" viewBox="0 0 800 450" fill="none" xmlns="http://www.w3.org/2000/svg">
<rect width="800" height="450" fill="#A8EDE9"/>
<path d="M196.345 188.077C189.776 181.547 181.129 178.24 172.482 178.24C163.835 178.24 155.188 181.547 148.536 188.077C135.316 201.22 135.316 222.464 148.536 235.607C155.105 242.137 163.752 245.444 172.482 245.444C181.212 245.444 189.776 242.137 196.428 235.607C209.565 222.464 209.565 201.22 196.345 188.077ZM156.186 195.682C160.509 191.383 166.329 188.986 172.482 188.986C176.806 188.986 180.88 190.143 184.455 192.375L152.86 223.787C147.455 214.942 148.536 203.287 156.186 195.682ZM188.779 228.002C184.455 232.301 178.635 234.698 172.482 234.698C168.158 234.698 164.084 233.541 160.509 231.309L192.187 199.815C197.509 208.742 196.428 220.397 188.779 228.002Z" fill="#28A199"/>
<path d="M206.987 240.401L204.077 237.508C203.412 236.847 202.248 236.847 201.583 237.508L199.92 239.161C192.603 246.435 182.875 250.486 172.482 250.486C157.1 250.486 143.298 241.558 136.563 227.093C136.563 227.01 136.48 227.01 136.48 226.927C130.66 211.718 133.903 195.516 144.961 184.522L146.624 182.869C147.289 182.208 147.289 181.05 146.624 180.389L143.714 177.496C143.049 176.835 141.885 176.835 141.219 177.496L139.557 179.149C126.336 192.375 122.429 211.8 129.413 229.903L129.496 230.151C136.813 245.692 150.947 255.942 167.161 257.76V265.861H158.264C157.35 265.861 156.684 266.605 156.684 267.597V272.226C156.684 273.218 157.433 273.962 158.264 273.962H186.7C187.615 273.962 188.28 273.218 188.28 272.226V267.597C188.28 266.605 187.531 265.861 186.7 265.861H177.803V257.76C188.197 256.603 197.841 251.974 205.408 244.534L207.071 242.881C207.653 242.22 207.653 241.062 206.987 240.401Z" fill="#28A199"/>
<path d="M250.804 245.787C248.476 244.547 246.647 242.894 245.317 240.662C244.069 238.513 243.404 235.95 243.404 233.14V219.418C243.404 216.525 244.069 214.045 245.317 211.896C246.564 209.747 248.393 208.011 250.804 206.854C253.132 205.696 255.876 205.035 259.036 205.035C262.112 205.035 264.773 205.614 267.184 206.771C269.512 207.928 271.341 209.499 272.671 211.565C274.002 213.632 274.584 216.029 274.584 218.757C274.584 219.088 274.334 219.336 273.835 219.418L266.851 219.832H266.768C266.352 219.832 266.186 219.584 266.186 219.17C266.186 217.104 265.521 215.368 264.274 214.128C262.943 212.888 261.281 212.227 259.119 212.227C256.957 212.227 255.211 212.888 253.964 214.128C252.633 215.368 252.051 217.104 252.051 219.17V233.553C252.051 235.62 252.717 237.273 253.964 238.513C255.294 239.753 256.957 240.414 259.119 240.414C261.197 240.414 262.943 239.753 264.274 238.513C265.604 237.273 266.186 235.537 266.186 233.553C266.186 233.14 266.436 232.892 266.934 232.892L273.919 233.223C274.085 233.223 274.251 233.305 274.418 233.388C274.584 233.471 274.667 233.636 274.667 233.801C274.667 236.529 274.002 238.926 272.755 241.075C271.424 243.142 269.678 244.795 267.267 245.952C264.939 247.11 262.195 247.688 259.119 247.688C255.876 247.606 253.132 247.027 250.804 245.787Z" fill="#2D4D63"/>
<path d="M307.591 233.719C307.591 234.214 307.259 234.462 306.843 234.462H288.385C288.135 234.462 288.052 234.545 288.135 234.793C288.219 235.62 288.468 236.364 288.801 237.19C289.798 239.422 291.96 240.497 295.12 240.497C297.697 240.497 299.693 239.422 301.189 237.438C301.355 237.19 301.522 237.108 301.688 237.108C301.771 237.108 301.938 237.19 302.104 237.356L306.427 241.571C306.594 241.737 306.76 241.985 306.76 242.067C306.76 242.15 306.677 242.315 306.511 242.563C305.18 244.217 303.517 245.456 301.439 246.366C299.36 247.275 297.115 247.688 294.621 247.688C291.212 247.688 288.302 246.944 285.89 245.374C283.479 243.803 281.816 241.654 280.735 238.926C279.904 236.942 279.488 234.38 279.488 231.156C279.488 229.007 279.821 227.023 280.403 225.37C281.317 222.559 282.897 220.327 285.225 218.674C287.553 217.021 290.214 216.194 293.374 216.194C297.365 216.194 300.607 217.352 303.018 219.666C305.43 221.981 306.926 225.039 307.425 228.924C307.591 230.164 307.675 231.9 307.591 233.719ZM288.385 226.775C288.219 227.271 288.052 227.932 287.969 228.676C287.969 228.842 288.052 229.007 288.302 229.007H298.695C298.944 229.007 299.027 228.924 298.944 228.676C298.778 227.519 298.612 226.94 298.612 227.023C298.279 225.866 297.614 224.874 296.699 224.295C295.785 223.717 294.704 223.303 293.374 223.303C290.879 223.303 289.216 224.46 288.385 226.775Z" fill="#2D4D63"/>
<path d="M336.527 219.005C338.522 220.989 339.437 223.551 339.437 226.941V246.449C339.437 246.614 339.354 246.779 339.187 246.945C339.021 247.11 338.855 247.193 338.689 247.193H331.704C331.538 247.193 331.372 247.11 331.205 246.945C331.039 246.779 330.956 246.614 330.956 246.449V228.594C330.956 227.023 330.54 225.701 329.626 224.709C328.711 223.717 327.547 223.221 326.05 223.221C324.554 223.221 323.39 223.717 322.475 224.709C321.561 225.701 321.145 227.023 321.145 228.594V246.366C321.145 246.531 321.062 246.697 320.895 246.862C320.729 247.027 320.563 247.11 320.397 247.11H313.412C313.246 247.11 313.08 247.027 312.914 246.862C312.747 246.697 312.664 246.531 312.664 246.366V217.269C312.664 217.104 312.747 216.939 312.914 216.773C313.08 216.608 313.246 216.525 313.412 216.525H320.397C320.563 216.525 320.729 216.608 320.895 216.773C321.062 216.939 321.145 217.104 321.145 217.269V219.336C321.145 219.418 321.145 219.501 321.228 219.584C321.311 219.584 321.394 219.584 321.394 219.501C323.057 217.187 325.468 216.029 328.711 216.029C332.037 216.112 334.614 217.021 336.527 219.005Z" fill="#2D4D63"/>
<path d="M350.745 246.448C348.749 245.704 347.17 244.63 346.089 243.307C345.008 241.985 344.426 240.414 344.426 238.761V238.182C344.426 238.017 344.509 237.852 344.675 237.686C344.841 237.521 345.008 237.438 345.174 237.438H351.826C351.992 237.438 352.158 237.521 352.325 237.686C352.491 237.852 352.574 238.017 352.574 238.182V238.265C352.574 239.174 353.073 239.918 354.071 240.497C355.068 241.075 356.316 241.406 357.729 241.406C359.059 241.406 360.223 241.158 361.055 240.579C361.886 240.083 362.302 239.339 362.302 238.596C362.302 237.852 361.969 237.356 361.221 237.025C360.473 236.694 359.309 236.281 357.729 235.868C355.817 235.372 354.403 234.958 353.322 234.462C350.745 233.553 348.749 232.479 347.253 231.239C345.756 229.999 345.008 228.18 345.008 225.783C345.008 222.807 346.172 220.493 348.417 218.757C350.745 217.021 353.738 216.194 357.563 216.194C360.14 216.194 362.385 216.608 364.298 217.434C366.21 218.261 367.706 219.418 368.787 220.823C369.868 222.311 370.367 223.964 370.367 225.783C370.367 225.948 370.284 226.114 370.118 226.279C369.951 226.444 369.785 226.527 369.619 226.527H363.217C363.05 226.527 362.884 226.444 362.718 226.279C362.551 226.114 362.468 225.948 362.468 225.783C362.468 224.874 362.053 224.212 361.138 223.551C360.223 222.973 359.059 222.642 357.563 222.642C356.232 222.642 355.152 222.89 354.32 223.386C353.489 223.882 353.073 224.543 353.073 225.37C353.073 226.196 353.489 226.775 354.32 227.188C355.152 227.602 356.482 228.015 358.394 228.428C358.81 228.511 359.309 228.676 359.891 228.842C360.473 229.007 361.055 229.172 361.72 229.337C364.547 230.164 366.792 231.239 368.455 232.561C370.118 233.884 370.949 235.785 370.949 238.265C370.949 241.241 369.785 243.473 367.457 245.126C365.129 246.779 361.969 247.606 358.062 247.606C355.152 247.523 352.74 247.192 350.745 246.448Z" fill="#2D4D63"/>
<path d="M380.51 244.961C378.099 243.225 376.519 240.828 375.605 237.852C375.023 235.951 374.773 233.967 374.773 231.818C374.773 229.503 375.023 227.354 375.605 225.536C376.519 222.56 378.182 220.328 380.594 218.592C383.005 216.939 385.832 216.112 389.241 216.112C392.483 216.112 395.31 216.939 397.638 218.592C399.966 220.245 401.629 222.56 402.544 225.453C403.209 227.437 403.542 229.503 403.542 231.735C403.542 233.884 403.292 235.868 402.71 237.77C401.796 240.828 400.216 243.308 397.805 245.044C395.393 246.78 392.567 247.689 389.241 247.689C385.915 247.689 382.922 246.78 380.51 244.961ZM392.483 239.257C393.398 238.431 394.063 237.356 394.479 235.951C394.811 234.711 394.978 233.306 394.978 231.818C394.978 230.165 394.811 228.759 394.479 227.602C394.063 226.28 393.398 225.205 392.483 224.461C391.569 223.717 390.488 223.304 389.158 223.304C387.827 223.304 386.663 223.717 385.749 224.461C384.834 225.205 384.169 226.28 383.836 227.602C383.504 228.594 383.337 229.999 383.337 231.818C383.337 233.636 383.504 234.959 383.753 235.951C384.169 237.356 384.834 238.431 385.749 239.257C386.663 240.084 387.827 240.415 389.158 240.415C390.488 240.415 391.569 240.001 392.483 239.257Z" fill="#2D4D63"/>
<path d="M427.654 216.939C427.987 217.104 428.07 217.435 427.987 217.848L426.74 224.626C426.74 225.122 426.407 225.205 425.908 225.04C425.326 224.874 424.578 224.709 423.829 224.709C423.497 224.709 423.081 224.709 422.499 224.792C421.086 224.874 419.838 225.453 418.841 226.362C417.843 227.272 417.344 228.511 417.344 230.082V246.366C417.344 246.532 417.261 246.697 417.095 246.862C416.928 247.028 416.762 247.11 416.596 247.11H409.612C409.445 247.11 409.279 247.028 409.113 246.862C408.946 246.697 408.863 246.532 408.863 246.366V217.27C408.863 217.104 408.946 216.939 409.113 216.774C409.279 216.608 409.445 216.526 409.612 216.526H416.596C416.762 216.526 416.928 216.608 417.095 216.774C417.261 216.939 417.344 217.104 417.344 217.27V219.501C417.344 219.584 417.344 219.667 417.427 219.749C417.51 219.749 417.594 219.749 417.594 219.667C419.256 217.27 421.418 216.112 424.162 216.112C425.659 216.112 426.823 216.443 427.654 216.939Z" fill="#2D4D63"/>
<path d="M458.586 233.719C458.586 234.214 458.253 234.462 457.837 234.462H439.379C439.13 234.462 439.046 234.545 439.13 234.793C439.213 235.62 439.462 236.364 439.795 237.19C440.792 239.422 442.954 240.497 446.114 240.497C448.691 240.497 450.687 239.422 452.183 237.438C452.35 237.19 452.516 237.108 452.682 237.108C452.765 237.108 452.932 237.19 453.098 237.356L457.422 241.571C457.588 241.737 457.754 241.985 457.754 242.067C457.754 242.15 457.671 242.315 457.505 242.563C456.174 244.217 454.511 245.456 452.433 246.366C450.354 247.275 448.109 247.688 445.615 247.688C442.206 247.688 439.296 246.944 436.885 245.374C434.473 243.803 432.81 241.654 431.73 238.926C430.898 236.942 430.482 234.38 430.482 231.156C430.482 229.007 430.815 227.023 431.397 225.37C432.312 222.559 433.891 220.327 436.219 218.674C438.548 217.021 441.208 216.194 444.368 216.194C448.359 216.194 451.601 217.352 454.013 219.666C456.424 221.981 457.92 225.039 458.419 228.924C458.586 230.164 458.586 231.9 458.586 233.719ZM439.379 226.775C439.213 227.271 439.046 227.932 438.963 228.676C438.963 228.842 439.046 229.007 439.296 229.007H449.689C449.938 229.007 450.022 228.924 449.938 228.676C449.772 227.519 449.606 226.94 449.606 227.023C449.273 225.866 448.608 224.874 447.693 224.295C446.779 223.717 445.698 223.303 444.368 223.303C441.873 223.303 440.21 224.46 439.379 226.775Z" fill="#2D4D63"/>
<path d="M483.03 205.696C483.197 205.531 483.363 205.448 483.529 205.448H490.513C490.68 205.448 490.846 205.531 491.012 205.696C491.178 205.862 491.262 206.027 491.262 206.192V246.448C491.262 246.614 491.178 246.779 491.012 246.944C490.846 247.11 490.68 247.192 490.513 247.192H483.529C483.363 247.192 483.197 247.11 483.03 246.944C482.864 246.779 482.781 246.614 482.781 246.448V244.464C482.781 244.382 482.781 244.299 482.698 244.216C482.615 244.216 482.531 244.216 482.448 244.299C480.785 246.448 478.457 247.605 475.547 247.605C472.72 247.605 470.309 246.862 468.314 245.291C466.318 243.72 464.821 241.654 463.99 238.926C463.325 236.86 462.992 234.462 462.992 231.735C462.992 228.924 463.325 226.444 464.073 224.378C464.988 221.815 466.401 219.831 468.397 218.343C470.392 216.855 472.803 216.112 475.713 216.112C478.624 216.112 480.785 217.103 482.448 219.087C482.531 219.17 482.615 219.253 482.698 219.17C482.781 219.17 482.781 219.087 482.781 218.922V206.192C482.864 206.027 482.947 205.862 483.03 205.696ZM482.781 231.817C482.781 229.172 482.365 227.105 481.45 225.535C480.536 223.964 479.206 223.22 477.459 223.22C475.547 223.22 474.134 223.964 473.219 225.535C472.221 227.105 471.722 229.172 471.722 231.817C471.722 234.214 472.138 236.198 472.97 237.769C473.967 239.505 475.464 240.331 477.376 240.331C479.206 240.331 480.536 239.505 481.534 237.769C482.365 236.364 482.781 234.38 482.781 231.817Z" fill="#2D4D63"/>
<path d="M534.414 207.019C536.409 208.094 537.989 209.582 539.07 211.566C540.151 213.55 540.733 215.782 540.733 218.344C540.733 220.824 540.151 223.056 538.987 224.957C537.823 226.858 536.243 228.346 534.164 229.421C532.086 230.495 529.758 230.991 527.097 230.991H518.616C518.45 230.991 518.284 231.074 518.284 231.322V246.532C518.284 246.697 518.2 246.862 518.034 247.027C517.868 247.193 517.702 247.275 517.535 247.275H510.551C510.385 247.275 510.218 247.193 510.052 247.027C509.886 246.862 509.803 246.697 509.803 246.532V206.11C509.803 205.945 509.886 205.78 510.052 205.614C510.218 205.449 510.385 205.366 510.551 205.366H527.43C530.09 205.449 532.418 205.945 534.414 207.019ZM530.589 222.642C531.67 221.568 532.252 220.245 532.252 218.509C532.252 216.773 531.67 215.368 530.589 214.294C529.508 213.219 528.012 212.723 526.182 212.723H518.616C518.45 212.723 518.284 212.806 518.284 213.054V223.965C518.284 224.13 518.367 224.296 518.616 224.296H526.182C528.012 224.213 529.508 223.717 530.589 222.642Z" fill="#2D4D63"/>
<path d="M545.554 246.944C545.388 246.779 545.305 246.614 545.305 246.448V206.192C545.305 206.027 545.388 205.862 545.554 205.696C545.72 205.531 545.887 205.448 546.053 205.448H553.037C553.203 205.448 553.37 205.531 553.536 205.696C553.702 205.862 553.786 206.027 553.786 206.192V246.448C553.786 246.614 553.702 246.779 553.536 246.944C553.37 247.11 553.203 247.192 553.037 247.192H546.053C545.887 247.11 545.72 247.11 545.554 246.944Z" fill="#2D4D63"/>
<path d="M579.145 217.434C581.14 218.343 582.803 219.583 583.884 221.071C584.965 222.559 585.63 224.378 585.63 226.279V246.448C585.63 246.614 585.547 246.779 585.381 246.944C585.214 247.11 585.048 247.192 584.882 247.192H577.898C577.731 247.192 577.565 247.11 577.399 246.944C577.233 246.779 577.149 246.614 577.149 246.448V244.464C577.149 244.382 577.149 244.299 577.066 244.216C576.983 244.216 576.9 244.216 576.817 244.299C575.154 246.448 572.41 247.606 568.752 247.606C565.675 247.606 563.098 246.862 561.185 245.374C559.273 243.886 558.275 241.654 558.275 238.678C558.275 235.62 559.356 233.222 561.518 231.569C563.68 229.916 566.756 229.007 570.747 229.007H576.817C576.983 229.007 577.149 228.924 577.149 228.676V227.354C577.149 226.031 576.734 225.039 575.985 224.295C575.154 223.551 573.99 223.22 572.41 223.22C571.163 223.22 570.165 223.468 569.334 223.882C568.502 224.295 568.003 224.956 567.754 225.7C567.671 226.114 567.338 226.362 567.006 226.279L559.772 225.287C559.273 225.204 559.107 225.039 559.107 224.791C559.273 223.138 559.938 221.65 561.102 220.245C562.266 218.922 563.846 217.847 565.758 217.104C567.671 216.36 569.833 215.946 572.244 215.946C574.821 216.112 577.149 216.525 579.145 217.434ZM575.403 240.001C576.567 239.091 577.233 237.934 577.233 236.529V234.38C577.233 234.214 577.149 234.049 576.9 234.049H572.576C570.747 234.049 569.334 234.38 568.336 235.041C567.338 235.702 566.839 236.694 566.839 237.934C566.839 239.009 567.255 239.835 568.003 240.497C568.752 241.075 569.749 241.406 571.08 241.406C572.743 241.406 574.156 240.91 575.403 240.001Z" fill="#2D4D63"/>
<path d="M615.312 219.005C617.307 220.989 618.222 223.551 618.222 226.941V246.449C618.222 246.614 618.139 246.779 617.973 246.945C617.806 247.11 617.64 247.193 617.474 247.193H610.49C610.323 247.193 610.157 247.11 609.991 246.945C609.824 246.779 609.741 246.614 609.741 246.449V228.594C609.741 227.023 609.326 225.701 608.411 224.709C607.496 223.717 606.332 223.221 604.836 223.221C603.339 223.221 602.175 223.717 601.26 224.709C600.346 225.701 599.93 227.023 599.93 228.594V246.366C599.93 246.531 599.847 246.697 599.681 246.862C599.514 247.027 599.348 247.11 599.182 247.11H592.198C592.031 247.11 591.865 247.027 591.699 246.862C591.532 246.697 591.449 246.531 591.449 246.366V217.269C591.449 217.104 591.532 216.939 591.699 216.773C591.865 216.608 592.031 216.525 592.198 216.525H599.182C599.348 216.525 599.514 216.608 599.681 216.773C599.847 216.939 599.93 217.104 599.93 217.269V219.336C599.93 219.418 599.93 219.501 600.013 219.584C600.096 219.584 600.179 219.584 600.179 219.501C601.842 217.187 604.254 216.029 607.496 216.029C610.822 216.112 613.4 217.021 615.312 219.005Z" fill="#2D4D63"/>
<path d="M651.564 233.719C651.564 234.214 651.232 234.462 650.816 234.462H632.358C632.108 234.462 632.025 234.545 632.108 234.793C632.191 235.62 632.441 236.364 632.773 237.19C633.771 239.422 635.933 240.497 639.092 240.497C641.67 240.497 643.665 239.422 645.162 237.438C645.328 237.19 645.494 237.108 645.661 237.108C645.744 237.108 645.91 237.19 646.076 237.356L650.4 241.571C650.566 241.737 650.733 241.985 650.733 242.067C650.733 242.15 650.649 242.315 650.483 242.563C649.153 244.217 647.49 245.456 645.411 246.366C643.333 247.275 641.088 247.688 638.593 247.688C635.184 247.688 632.274 246.944 629.863 245.374C627.452 243.803 625.789 241.654 624.708 238.926C623.877 236.942 623.461 234.38 623.461 231.156C623.461 229.007 623.794 227.023 624.376 225.37C625.29 222.559 626.87 220.327 629.198 218.674C631.526 217.021 634.187 216.194 637.346 216.194C641.337 216.194 644.58 217.352 646.991 219.666C649.402 221.981 650.899 225.039 651.398 228.924C651.564 230.164 651.647 231.9 651.564 233.719ZM632.441 226.775C632.274 227.271 632.108 227.932 632.025 228.676C632.025 228.842 632.108 229.007 632.358 229.007H642.751C643 229.007 643.083 228.924 643 228.676C642.834 227.519 642.668 226.94 642.668 227.023C642.335 225.866 641.67 224.874 640.755 224.295C639.841 223.717 638.76 223.303 637.429 223.303C634.935 223.303 633.272 224.46 632.441 226.775Z" fill="#2D4D63"/>
<path d="M673.516 223.055C673.35 223.22 673.183 223.303 673.017 223.303H667.28C667.114 223.303 666.948 223.386 666.948 223.634V236.281C666.948 237.604 667.197 238.595 667.779 239.174C668.278 239.835 669.192 240.166 670.357 240.166H672.352C672.518 240.166 672.685 240.249 672.851 240.414C673.017 240.579 673.1 240.745 673.1 240.91V246.531C673.1 246.944 672.851 247.192 672.352 247.275C670.689 247.358 669.442 247.358 668.777 247.358C665.451 247.358 662.957 246.779 661.377 245.704C659.714 244.63 658.882 242.563 658.882 239.505V223.551C658.882 223.386 658.799 223.22 658.55 223.22H655.141C654.975 223.22 654.808 223.138 654.642 222.972C654.476 222.807 654.393 222.642 654.393 222.477V217.186C654.393 217.021 654.476 216.856 654.642 216.69C654.808 216.525 654.975 216.442 655.141 216.442H658.55C658.716 216.442 658.882 216.36 658.882 216.112V209.003C658.882 208.837 658.966 208.672 659.132 208.507C659.298 208.341 659.464 208.259 659.631 208.259H666.366C666.532 208.259 666.698 208.341 666.864 208.507C667.031 208.672 667.114 208.837 667.114 209.003V216.112C667.114 216.277 667.197 216.442 667.446 216.442H673.183C673.35 216.442 673.516 216.525 673.682 216.69C673.849 216.856 673.932 217.021 673.932 217.186V222.477C673.765 222.725 673.682 222.89 673.516 223.055Z" fill="#2D4D63"/>
</svg>
