<svg width="750" height="763" viewBox="0 0 750 763" fill="none" xmlns="http://www.w3.org/2000/svg">
<g filter="url(#filter0_d_2933_2187)">
<rect x="0.150391" y="387.189" width="745.284" height="371.347" fill="white"/>
<rect x="0.530643" y="387.569" width="744.524" height="370.586" stroke="#024A51" stroke-width="0.760505"/>
</g>
<path d="M103.77 448.247V459.959H105.109V449.686H105.276L108.84 459.959H110.781L114.344 449.686H114.512V459.959H115.85V448.247H113.474L109.894 458.57H109.727L106.146 448.247H103.77ZM118.061 454.053L119.265 454.421C119.516 453.384 120.269 452.647 121.608 452.647C122.963 452.647 123.649 453.384 123.649 454.555V455.157H120.855C119.115 455.157 117.81 455.977 117.81 457.633C117.81 459.273 119.115 460.193 120.821 460.193C122.427 460.193 123.13 459.44 123.498 458.788H123.682V459.959H124.92V454.622C124.92 452.698 123.682 451.56 121.608 451.56C119.55 451.56 118.445 452.681 118.061 454.053ZM119.081 457.617C119.081 456.696 119.851 456.211 120.905 456.211H123.649V456.412C123.649 458.102 122.578 459.122 121.005 459.122C119.851 459.122 119.081 458.537 119.081 457.617ZM126.83 449.234C126.83 449.853 127.282 450.305 127.901 450.305C128.52 450.305 128.989 449.853 128.989 449.234C128.989 448.632 128.52 448.18 127.901 448.18C127.282 448.18 126.83 448.632 126.83 449.234ZM128.554 451.794H127.265V459.959H128.554V451.794ZM130.974 451.794V459.959H132.263V455.826C132.263 453.785 133.384 452.731 134.956 452.731C136.362 452.731 137.249 453.451 137.249 455.09V459.959H138.52V455.007C138.52 452.815 137.081 451.627 135.291 451.627C133.601 451.627 132.781 452.397 132.396 453.166H132.229V451.794H130.974ZM145.504 455.877C145.504 458.403 147.361 460.193 149.737 460.193C151.962 460.193 153.284 458.821 153.652 457.081L152.397 456.797C152.18 458.102 151.326 459.056 149.754 459.056C148.08 459.056 146.809 457.75 146.809 455.877C146.809 454.003 148.064 452.698 149.737 452.698C151.226 452.698 152.18 453.618 152.347 454.94L153.602 454.672C153.317 452.949 151.912 451.56 149.72 451.56C147.361 451.56 145.504 453.333 145.504 455.877ZM154.997 455.877C154.997 458.436 156.687 460.193 159.163 460.193C161.639 460.193 163.346 458.436 163.346 455.877C163.346 453.3 161.639 451.56 159.163 451.56C156.687 451.56 154.997 453.3 154.997 455.877ZM156.268 455.877C156.268 454.019 157.423 452.698 159.163 452.698C160.903 452.698 162.057 453.969 162.057 455.877C162.057 457.767 160.903 459.056 159.163 459.056C157.423 459.056 156.268 457.817 156.268 455.877ZM166.542 448.247H165.254V459.959H166.542V448.247ZM168.444 455.877C168.444 458.436 170.134 460.193 172.61 460.193C175.086 460.193 176.793 458.436 176.793 455.877C176.793 453.3 175.086 451.56 172.61 451.56C170.134 451.56 168.444 453.3 168.444 455.877ZM169.715 455.877C169.715 454.019 170.87 452.698 172.61 452.698C174.35 452.698 175.504 453.969 175.504 455.877C175.504 457.767 174.35 459.056 172.61 459.056C170.87 459.056 169.715 457.817 169.715 455.877ZM179.955 451.794H178.701V459.959H179.989V454.94C179.989 453.534 180.758 452.882 181.963 452.882H183.285V451.761H182.164C181.076 451.761 180.441 452.079 180.123 452.865H179.955V451.794ZM184.464 453.902C184.464 455.358 185.669 456.01 187.208 456.261L188.044 456.379C189.232 456.579 189.935 456.914 189.935 457.734C189.935 458.587 189.149 459.156 187.894 459.156C186.639 459.156 185.568 458.637 185.3 456.964L184.079 457.249C184.38 459.273 185.869 460.193 187.894 460.193C189.885 460.193 191.19 459.256 191.19 457.667C191.19 456.061 189.918 455.559 188.245 455.274L187.409 455.157C186.438 454.99 185.735 454.655 185.735 453.869C185.735 453.049 186.438 452.597 187.559 452.597C188.663 452.597 189.483 453.066 189.717 454.27L190.905 453.953C190.571 452.447 189.4 451.56 187.559 451.56C185.669 451.56 184.464 452.447 184.464 453.902Z" fill="#024A51"/>
<path d="M106.564 583.714L102.766 595.425H104.189L105.142 592.447H110.061L111.015 595.425H112.437L108.639 583.714H106.564ZM105.51 591.226L107.518 584.968H107.685L109.693 591.226H105.51ZM113.3 591.343C113.3 593.869 115.157 595.66 117.533 595.66C119.758 595.66 121.08 594.288 121.448 592.548L120.193 592.263C119.975 593.568 119.122 594.522 117.549 594.522C115.876 594.522 114.605 593.217 114.605 591.343C114.605 589.469 115.86 588.164 117.533 588.164C119.022 588.164 119.975 589.084 120.143 590.406L121.398 590.138C121.113 588.415 119.708 587.026 117.516 587.026C115.157 587.026 113.3 588.8 113.3 591.343ZM122.793 591.343C122.793 593.869 124.65 595.66 127.026 595.66C129.251 595.66 130.573 594.288 130.941 592.548L129.686 592.263C129.468 593.568 128.615 594.522 127.042 594.522C125.369 594.522 124.098 593.217 124.098 591.343C124.098 589.469 125.353 588.164 127.026 588.164C128.515 588.164 129.468 589.084 129.636 590.406L130.891 590.138C130.606 588.415 129.201 587.026 127.009 587.026C124.65 587.026 122.793 588.8 122.793 591.343ZM132.269 591.276C132.269 593.786 133.942 595.66 136.485 595.66C138.71 595.66 139.647 594.405 140.166 593.434L139.062 592.865C138.627 593.769 137.907 594.522 136.485 594.522C134.846 594.522 133.708 593.418 133.591 591.744H140.3V591.058C140.3 588.566 138.677 587.026 136.368 587.026C133.992 587.026 132.269 588.817 132.269 591.276ZM133.607 590.674C133.791 589.134 134.829 588.164 136.368 588.164C137.874 588.164 138.894 589.051 138.978 590.674H133.607ZM142.134 587.261V595.425H143.422V591.293C143.422 589.252 144.543 588.197 146.116 588.197C147.521 588.197 148.408 588.917 148.408 590.557V595.425H149.68V590.473C149.68 588.281 148.241 587.093 146.45 587.093C144.761 587.093 143.941 587.863 143.556 588.632H143.389V587.261H142.134ZM150.818 588.331H153.345V594.053C153.345 594.907 153.863 595.425 154.683 595.425H156.942V594.355H155.085C154.784 594.355 154.616 594.187 154.616 593.853V588.331H157.31V587.261H154.616V584.333H153.345V587.261H150.818V588.331ZM163.771 591.343C163.771 593.869 165.628 595.66 168.004 595.66C170.229 595.66 171.551 594.288 171.919 592.548L170.664 592.263C170.447 593.568 169.593 594.522 168.021 594.522C166.347 594.522 165.076 593.217 165.076 591.343C165.076 589.469 166.331 588.164 168.004 588.164C169.493 588.164 170.447 589.084 170.614 590.406L171.869 590.138C171.584 588.415 170.179 587.026 167.987 587.026C165.628 587.026 163.771 588.8 163.771 591.343ZM173.264 591.343C173.264 593.903 174.954 595.66 177.43 595.66C179.906 595.66 181.613 593.903 181.613 591.343C181.613 588.766 179.906 587.026 177.43 587.026C174.954 587.026 173.264 588.766 173.264 591.343ZM174.535 591.343C174.535 589.486 175.69 588.164 177.43 588.164C179.17 588.164 180.324 589.436 180.324 591.343C180.324 593.234 179.17 594.522 177.43 594.522C175.69 594.522 174.535 593.284 174.535 591.343ZM184.809 583.714H183.521V595.425H184.809V583.714ZM186.711 591.343C186.711 593.903 188.401 595.66 190.877 595.66C193.353 595.66 195.06 593.903 195.06 591.343C195.06 588.766 193.353 587.026 190.877 587.026C188.401 587.026 186.711 588.766 186.711 591.343ZM187.982 591.343C187.982 589.486 189.137 588.164 190.877 588.164C192.617 588.164 193.771 589.436 193.771 591.343C193.771 593.234 192.617 594.522 190.877 594.522C189.137 594.522 187.982 593.284 187.982 591.343ZM198.222 587.261H196.967V595.425H198.256V590.406C198.256 589.001 199.025 588.348 200.23 588.348H201.552V587.227H200.431C199.343 587.227 198.708 587.545 198.39 588.331H198.222V587.261ZM202.731 589.369C202.731 590.824 203.935 591.477 205.475 591.728L206.311 591.845C207.499 592.046 208.202 592.38 208.202 593.2C208.202 594.053 207.416 594.622 206.161 594.622C204.906 594.622 203.835 594.104 203.567 592.43L202.346 592.715C202.647 594.739 204.136 595.66 206.161 595.66C208.152 595.66 209.457 594.723 209.457 593.133C209.457 591.527 208.185 591.025 206.512 590.741L205.676 590.623C204.705 590.456 204.002 590.122 204.002 589.335C204.002 588.515 204.705 588.064 205.826 588.064C206.93 588.064 207.75 588.532 207.984 589.737L209.172 589.419C208.838 587.913 207.667 587.026 205.826 587.026C203.935 587.026 202.731 587.913 202.731 589.369Z" fill="#024A51"/>
<g filter="url(#filter1_d_2933_2187)">
<rect x="102.591" y="606.294" width="149.056" height="69.0652" fill="#EA6ED8"/>
</g>
<path d="M102.97 693.554V695.087H104.449V696.566H102.97V698.099H104.449V700.618H106.037V698.099H107.515V700.618H109.103V698.099H110.581V696.566H109.103V695.087H110.581V693.554H109.103V691.035H107.515V693.554H106.037V691.035H104.449V693.554H102.97ZM106.037 695.087H107.515V696.566H106.037V695.087ZM111.815 691.035V700.618H118.194V698.975H113.622V696.607H117.729V694.964H113.622V692.678H118.112V691.035H111.815ZM121.285 691.035L118.602 700.618H120.45L121.024 698.482H124.365L124.94 700.618H126.788L124.105 691.035H121.285ZM121.463 696.839L122.626 692.514H122.763L123.927 696.839H121.463ZM134.283 697.469C134.283 695.649 132.983 694.348 131.244 694.348C129.957 694.348 129.424 694.923 129.191 695.252H129.027V694.156C129.027 693.061 129.67 692.459 130.806 692.459C131.847 692.459 132.367 693.061 132.367 693.883H134.201C134.201 691.966 132.791 690.844 130.806 690.844C128.767 690.844 127.22 692.007 127.22 694.266V697.62C127.22 699.495 128.712 700.823 130.724 700.796C132.805 700.768 134.283 699.454 134.283 697.469ZM130.751 695.758C131.778 695.758 132.476 696.429 132.476 697.469C132.476 698.51 131.751 699.18 130.751 699.18C129.752 699.18 129.027 698.537 129.027 697.469C129.027 696.429 129.725 695.758 130.751 695.758ZM135.357 691.035V700.618H141.736V698.975H137.164V696.607H141.27V694.964H137.164V692.678H141.654V691.035H135.357ZM142.91 691.035V700.618H146.195C148.769 700.618 150.137 699.304 150.137 696.73V694.923C150.137 692.349 148.769 691.035 146.195 691.035H142.91ZM144.717 692.678H146.222C147.673 692.678 148.33 693.472 148.33 694.868V696.785C148.33 698.181 147.673 698.975 146.222 698.975H144.717V692.678ZM150.989 693.458C150.989 694.622 151.715 695.252 152.522 695.594V695.758C151.728 695.991 150.852 696.744 150.852 698.03C150.852 699.701 152.358 700.809 154.439 700.809C156.519 700.809 158.025 699.701 158.025 698.03C158.025 696.744 157.149 695.991 156.355 695.758V695.594C157.163 695.252 157.888 694.622 157.888 693.458C157.888 691.952 156.492 690.844 154.439 690.844C152.385 690.844 150.989 691.952 150.989 693.458ZM152.796 693.677C152.796 692.911 153.467 692.459 154.439 692.459C155.411 692.459 156.081 692.911 156.081 693.677C156.081 694.444 155.411 694.896 154.439 694.896C153.467 694.896 152.796 694.444 152.796 693.677ZM152.659 697.852C152.659 697.059 153.289 696.511 154.439 696.511C155.589 696.511 156.218 697.059 156.218 697.852C156.218 698.646 155.589 699.194 154.439 699.194C153.289 699.194 152.659 698.646 152.659 697.852Z" fill="#EA6ED8"/>
<path d="M295.753 693.554V695.087H297.231V696.566H295.753V698.099H297.231V700.618H298.819V698.099H300.297V700.618H301.885V698.099H303.364V696.566H301.885V695.087H303.364V693.554H301.885V691.035H300.297V693.554H298.819V691.035H297.231V693.554H295.753ZM298.819 695.087H300.297V696.566H298.819V695.087ZM304.597 691.035V700.618H306.404V696.634H310.429V694.991H306.404V692.678H310.703V691.035H304.597ZM311.776 691.035V700.618H313.583V696.634H317.608V694.991H313.583V692.678H317.881V691.035H311.776ZM318.955 691.035V700.618H322.24C324.814 700.618 326.183 699.304 326.183 696.73V694.923C326.183 692.349 324.814 691.035 322.24 691.035H318.955ZM320.762 692.678H322.268C323.719 692.678 324.376 693.472 324.376 694.868V696.785C324.376 698.181 323.719 698.975 322.268 698.975H320.762V692.678ZM326.979 694.239V694.567H328.786V694.266C328.786 693.02 329.621 692.459 330.607 692.459C331.593 692.459 332.236 693.02 332.236 693.965C332.236 695.087 331.415 695.539 330.046 695.909C328.28 696.388 327.034 697.236 327.034 698.975V700.618H333.988V698.975H328.841V698.811C328.841 697.921 329.553 697.633 330.895 697.291C332.907 696.785 334.043 695.909 334.043 694.02C334.043 692.048 332.441 690.844 330.58 690.844C328.636 690.844 326.979 691.994 326.979 694.239ZM335.17 691.035V700.618H336.977V696.634H341.002V694.991H336.977V692.678H341.276V691.035H335.17ZM341.856 694.17C341.856 695.991 343.157 697.291 344.895 697.291C346.182 697.291 346.716 696.716 346.949 696.388H347.113V697.483C347.113 698.578 346.47 699.18 345.333 699.18C344.293 699.18 343.773 698.551 343.773 697.757H341.939C341.939 699.673 343.349 700.796 345.333 700.796C347.373 700.796 348.92 699.632 348.92 697.373V694.02C348.92 692.144 347.428 690.816 345.416 690.844C343.335 690.871 341.856 692.185 341.856 694.17ZM345.388 695.881C344.362 695.881 343.663 695.21 343.663 694.17C343.663 693.13 344.389 692.459 345.388 692.459C346.388 692.459 347.113 693.102 347.113 694.17C347.113 695.21 346.415 695.881 345.388 695.881Z" fill="#EA6ED8"/>
<path d="M496.227 693.554V695.087H497.706V696.566H496.227V698.099H497.706V700.618H499.293V698.099H500.772V700.618H502.36V698.099H503.838V696.566H502.36V695.087H503.838V693.554H502.36V691.035H500.772V693.554H499.293V691.035H497.706V693.554H496.227ZM499.293 695.087H500.772V696.566H499.293V695.087ZM505.072 691.035V700.618H506.879V696.634H510.903V694.991H506.879V692.678H511.177V691.035H505.072ZM512.251 691.035V700.618H514.058V696.634H518.082V694.991H514.058V692.678H518.356V691.035H512.251ZM519.429 691.035V700.618H522.715C525.288 700.618 526.657 699.304 526.657 696.73V694.923C526.657 692.349 525.288 691.035 522.715 691.035H519.429ZM521.236 692.678H522.742C524.193 692.678 524.85 693.472 524.85 694.868V696.785C524.85 698.181 524.193 698.975 522.742 698.975H521.236V692.678ZM527.454 694.239V694.567H529.261V694.266C529.261 693.02 530.096 692.459 531.082 692.459C532.067 692.459 532.711 693.02 532.711 693.965C532.711 695.087 531.889 695.539 530.52 695.909C528.755 696.388 527.509 697.236 527.509 698.975V700.618H534.463V698.975H529.316V698.811C529.316 697.921 530.028 697.633 531.369 697.291C533.381 696.785 534.518 695.909 534.518 694.02C534.518 692.048 532.916 690.844 531.054 690.844C529.11 690.844 527.454 691.994 527.454 694.239ZM535.645 691.035V700.618H537.452V696.634H541.477V694.991H537.452V692.678H541.75V691.035H535.645ZM542.331 694.17C542.331 695.991 543.632 697.291 545.37 697.291C546.657 697.291 547.191 696.716 547.423 696.388H547.588V697.483C547.588 698.578 546.944 699.18 545.808 699.18C544.768 699.18 544.248 698.551 544.248 697.757H542.413C542.413 699.673 543.823 700.796 545.808 700.796C547.848 700.796 549.395 699.632 549.395 697.373V694.02C549.395 692.144 547.903 690.816 545.89 690.844C543.809 690.871 542.331 692.185 542.331 694.17ZM545.863 695.881C544.836 695.881 544.138 695.21 544.138 694.17C544.138 693.13 544.864 692.459 545.863 692.459C546.862 692.459 547.588 693.102 547.588 694.17C547.588 695.21 546.89 695.881 545.863 695.881Z" fill="#EA6ED8"/>
<g filter="url(#filter2_d_2933_2187)">
<rect x="296.617" y="606.294" width="149.056" height="69.0652" fill="#FFD2F9"/>
</g>
<path d="M102.972 557.805V559.338H104.451V560.816H102.972V562.349H104.451V564.868H106.039V562.349H107.517V564.868H109.105V562.349H110.583V560.816H109.105V559.338H110.583V557.805H109.105V555.286H107.517V557.805H106.039V555.286H104.451V557.805H102.972ZM106.039 559.338H107.517V560.816H106.039V559.338ZM111.406 558.489V558.818H113.213V558.516C113.213 557.271 114.048 556.709 115.034 556.709C116.02 556.709 116.663 557.271 116.663 558.215C116.663 559.338 115.842 559.79 114.473 560.159C112.707 560.638 111.461 561.487 111.461 563.225V564.868H118.415V563.225H113.268V563.061C113.268 562.171 113.98 561.884 115.321 561.542C117.334 561.035 118.47 560.159 118.47 558.27C118.47 556.299 116.868 555.094 115.007 555.094C113.063 555.094 111.406 556.244 111.406 558.489ZM119.299 555.286V560.597H121.668C121.818 560.296 122.174 559.94 122.872 559.94C123.735 559.94 124.364 560.529 124.364 561.542C124.364 562.705 123.68 563.444 122.557 563.444C121.407 563.444 120.778 562.705 120.778 561.61V561.473H118.971V561.72C118.971 563.746 120.449 565.06 122.612 565.06C124.734 565.06 126.171 563.622 126.171 561.46C126.171 559.543 124.83 558.407 123.338 558.407C122.051 558.407 121.531 559.05 121.271 559.42H121.106V556.928H125.815V555.286H119.299ZM129.16 555.286L126.477 564.868H128.325L128.9 562.733H132.24L132.815 564.868H134.663L131.98 555.286H129.16ZM129.338 561.09L130.502 556.764H130.639L131.802 561.09H129.338ZM135.068 558.489V558.818H136.875V558.516C136.875 557.271 137.71 556.709 138.696 556.709C139.681 556.709 140.325 557.271 140.325 558.215C140.325 559.338 139.503 559.79 138.135 560.159C136.369 560.638 135.123 561.487 135.123 563.225V564.868H142.077V563.225H136.93V563.061C136.93 562.171 137.642 561.884 138.983 561.542C140.996 561.035 142.132 560.159 142.132 558.27C142.132 556.299 140.53 555.094 138.668 555.094C136.725 555.094 135.068 556.244 135.068 558.489ZM142.766 558.421C142.766 560.241 144.067 561.542 145.805 561.542C147.092 561.542 147.626 560.967 147.859 560.638H148.023V561.733C148.023 562.828 147.38 563.431 146.243 563.431C145.203 563.431 144.683 562.801 144.683 562.007H142.848C142.848 563.924 144.258 565.046 146.243 565.046C148.283 565.046 149.83 563.883 149.83 561.624V558.27C149.83 556.395 148.338 555.067 146.326 555.094C144.245 555.122 142.766 556.436 142.766 558.421ZM146.298 560.132C145.271 560.132 144.573 559.461 144.573 558.421C144.573 557.38 145.299 556.709 146.298 556.709C147.297 556.709 148.023 557.353 148.023 558.421C148.023 559.461 147.325 560.132 146.298 560.132ZM151.039 555.286V564.868H157.419V563.225H152.846V560.857H156.953V559.215H152.846V556.928H157.336V555.286H151.039Z" fill="#25A29E"/>
<path d="M295.75 557.805V559.338H297.228V560.816H295.75V562.349H297.228V564.868H298.816V562.349H300.294V564.868H301.882V562.349H303.361V560.816H301.882V559.338H303.361V557.805H301.882V555.286H300.294V557.805H298.816V555.286H297.228V557.805H295.75ZM298.816 559.338H300.294V560.816H298.816V559.338ZM304.594 555.286V564.868H310.973V563.225H306.401V560.857H310.508V559.215H306.401V556.928H310.891V555.286H304.594ZM315.186 555.286L311.436 561.391V562.979H316.199V564.868H318.006V562.979H319.567V561.336H318.006V555.286H315.186ZM316.035 556.846H316.199V561.336H313.325L316.035 556.846ZM320.449 555.286V564.868H322.256V560.885H326.281V559.242H322.256V556.928H326.554V555.286H320.449ZM326.889 555.286V556.928H331.954L328.285 564.868H330.284L334.007 556.874V555.286H326.889ZM334.86 555.286V564.868H336.667V560.885H340.692V559.242H336.667V556.928H340.965V555.286H334.86ZM348.719 561.72C348.719 559.899 347.419 558.599 345.68 558.599C344.393 558.599 343.859 559.173 343.627 559.502H343.463V558.407C343.463 557.312 344.106 556.709 345.242 556.709C346.282 556.709 346.803 557.312 346.803 558.133H348.637C348.637 556.217 347.227 555.094 345.242 555.094C343.202 555.094 341.656 556.258 341.656 558.516V561.87C341.656 563.746 343.148 565.074 345.16 565.046C347.241 565.019 348.719 563.705 348.719 561.72ZM345.187 560.009C346.214 560.009 346.912 560.679 346.912 561.72C346.912 562.76 346.187 563.431 345.187 563.431C344.188 563.431 343.463 562.787 343.463 561.72C343.463 560.679 344.161 560.009 345.187 560.009Z" fill="#25A29E"/>
<path d="M496.223 557.805V559.338H497.702V560.816H496.223V562.349H497.702V564.868H499.29V562.349H500.768V564.868H502.356V562.349H503.834V560.816H502.356V559.338H503.834V557.805H502.356V555.286H500.768V557.805H499.29V555.286H497.702V557.805H496.223ZM499.29 559.338H500.768V560.816H499.29V559.338ZM504.685 558.954V561.199C504.685 563.718 506.163 565.06 508.353 565.06C510.544 565.06 512.022 563.718 512.022 561.199V558.954C512.022 556.518 510.544 555.094 508.353 555.094C506.163 555.094 504.685 556.518 504.685 558.954ZM506.492 558.872C506.492 557.599 507.176 556.709 508.353 556.709C509.49 556.709 510.215 557.544 510.215 558.872V561.282C510.215 562.582 509.64 563.444 508.353 563.444C507.108 563.444 506.492 562.637 506.492 561.282V558.872ZM512.812 558.489V558.818H514.619V558.516C514.619 557.271 515.454 556.709 516.44 556.709C517.425 556.709 518.069 557.271 518.069 558.215C518.069 559.338 517.247 559.79 515.878 560.159C514.112 560.638 512.867 561.487 512.867 563.225V564.868H519.821V563.225H514.674V563.061C514.674 562.171 515.385 561.884 516.727 561.542C518.739 561.035 519.876 560.159 519.876 558.27C519.876 556.299 518.274 555.094 516.412 555.094C514.468 555.094 512.812 556.244 512.812 558.489ZM523.494 555.286L519.743 561.391V562.979H524.507V564.868H526.314V562.979H527.874V561.336H526.314V555.286H523.494ZM524.343 556.846H524.507V561.336H521.632L524.343 556.846ZM530.673 555.286L527.99 564.868H529.838L530.413 562.733H533.753L534.328 564.868H536.176L533.493 555.286H530.673ZM530.851 561.09L532.015 556.764H532.151L533.315 561.09H530.851ZM536.827 555.286V560.597H539.195C539.346 560.296 539.702 559.94 540.4 559.94C541.262 559.94 541.892 560.529 541.892 561.542C541.892 562.705 541.208 563.444 540.085 563.444C538.935 563.444 538.306 562.705 538.306 561.61V561.473H536.499V561.72C536.499 563.746 537.977 565.06 540.14 565.06C542.262 565.06 543.699 563.622 543.699 561.46C543.699 559.543 542.358 558.407 540.865 558.407C539.579 558.407 539.058 559.05 538.798 559.42H538.634V556.928H543.343V555.286H536.827ZM546.174 555.286L543.71 559.612H545.599L546.941 557.202H547.105V564.868H548.912V555.286H546.174Z" fill="#25A29E"/>
<g filter="url(#filter3_d_2933_2187)">
<rect x="102.586" y="470.545" width="149.056" height="69.0652" fill="#25A29E"/>
</g>
<g filter="url(#filter4_d_2933_2187)">
<rect x="296.613" y="470.545" width="149.056" height="69.0652" fill="#E4F7F6"/>
</g>
<g filter="url(#filter5_d_2933_2187)">
<rect x="495.785" y="470.545" width="149.056" height="69.0652" fill="#024A51"/>
</g>
<g filter="url(#filter6_d_2933_2187)">
<rect x="495.789" y="606.294" width="149.056" height="69.0652" fill="#7C196E"/>
</g>
<g filter="url(#filter7_d_2933_2187)">
<rect x="0.150391" y="0.357422" width="745.284" height="371.347" fill="#E4F7F6"/>
<rect x="0.530643" y="0.737675" width="744.524" height="370.586" stroke="#024A51" stroke-width="0.760505"/>
</g>
<g filter="url(#filter8_d_2933_2187)">
<path d="M158.304 54.9209L119.708 189.404H146.292L154.563 159.433H202.611L210.881 189.404H237.465L198.869 54.9209H158.304ZM160.864 136.379L177.602 75.6697H179.571L196.309 136.379H160.864Z" fill="#25A29E"/>
<path d="M247.619 118.32L270.461 125.813C272.234 117.167 278.141 110.635 290.547 110.635C303.15 110.635 308.663 117.552 308.663 126.389V131.768H281.883C259.828 131.768 244.074 141.951 244.074 161.547C244.074 181.143 259.828 192.094 279.913 192.094C298.03 192.094 304.528 182.488 306.3 178.261H309.057V189.404H332.688V128.118C332.688 104.295 316.54 91.4234 290.941 91.4234C265.538 91.4234 252.345 103.911 247.619 118.32ZM268.886 160.97C268.886 154.438 274.4 149.827 283.655 149.827H308.663V151.364C308.663 164.044 298.818 172.497 285.033 172.497C274.4 172.497 268.886 167.694 268.886 160.97Z" fill="#25A29E"/>
</g>
<g filter="url(#filter9_d_2933_2187)">
<path d="M210.658 313.233L216.743 294.979H246.324L252.408 313.233H270.981L242.721 233.178H220.385L192.085 313.233H210.658ZM221.146 281.766L231.233 251.472H231.873L241.961 281.766H221.146Z" fill="#25A29E"/>
<path d="M298.061 314.367C307.147 314.367 313.031 310.497 316.034 304.907H316.514V313.233H332.685V272.737C332.685 258.43 320.277 252.41 306.587 252.41C291.856 252.41 282.169 259.29 279.808 270.235L295.579 271.486C296.74 267.498 300.382 264.567 306.507 264.567C312.311 264.567 315.633 267.42 315.633 272.346V272.58C315.633 276.45 311.43 276.958 300.743 277.975C288.574 279.069 277.646 283.056 277.646 296.464C277.646 308.347 286.332 314.367 298.061 314.367ZM302.944 302.875C297.7 302.875 293.938 300.49 293.938 295.917C293.938 291.226 297.901 288.92 303.905 288.099C307.628 287.591 313.712 286.731 315.753 285.402V291.773C315.753 298.067 310.43 302.875 302.944 302.875Z" fill="#25A29E"/>
</g>
<path d="M392.763 117.293C387.938 117.293 384.618 119.792 384.618 123.796C384.618 127.834 387.39 129.477 391.599 130.469L393.413 130.914C396.63 131.667 398.752 132.625 398.752 135.26C398.752 137.896 396.596 139.744 392.831 139.744C389.101 139.744 386.535 137.861 386.535 133.686V133.447H383.762V133.686C383.762 139.401 387.63 142.208 392.831 142.208C398.068 142.208 401.49 139.401 401.49 135.226C401.49 131.017 398.376 129.443 394.235 128.484L392.387 128.039C389.204 127.287 387.39 126.397 387.39 123.762C387.39 121.195 389.512 119.758 392.763 119.758C396.083 119.758 398.512 121.195 398.512 124.686V125.815H401.285V124.686C401.285 119.792 397.588 117.293 392.763 117.293ZM405.546 148.573H408.181V138.922H408.523C409.481 140.565 411.295 142.208 414.752 142.208C419.132 142.208 422.657 138.751 422.657 133.378C422.657 127.971 419.132 124.549 414.752 124.549C411.295 124.549 409.481 126.191 408.455 127.903H408.112V125.028H405.546V148.573ZM414.101 139.88C410.645 139.88 408.147 137.382 408.147 133.378C408.147 129.374 410.645 126.842 414.101 126.842C417.592 126.842 419.988 129.34 419.988 133.378C419.988 137.416 417.592 139.88 414.101 139.88ZM425.954 129.648L428.418 130.401C428.931 128.279 430.471 126.773 433.209 126.773C435.981 126.773 437.384 128.279 437.384 130.675V131.907H431.669C428.11 131.907 425.44 133.584 425.44 136.972C425.44 140.325 428.11 142.208 431.601 142.208C434.886 142.208 436.323 140.668 437.076 139.333H437.453V141.729H439.985V130.811C439.985 126.876 437.453 124.549 433.209 124.549C429 124.549 426.741 126.842 425.954 129.648ZM428.041 136.937C428.041 135.055 429.616 134.063 431.772 134.063H437.384V134.473C437.384 137.93 435.194 140.017 431.977 140.017C429.616 140.017 428.041 138.82 428.041 136.937ZM443.721 133.378C443.721 138.546 447.519 142.208 452.379 142.208C456.931 142.208 459.634 139.401 460.387 135.842L457.82 135.26C457.376 137.93 455.63 139.88 452.413 139.88C448.991 139.88 446.39 137.211 446.39 133.378C446.39 129.545 448.957 126.876 452.379 126.876C455.425 126.876 457.376 128.758 457.718 131.462L460.285 130.914C459.703 127.389 456.828 124.549 452.345 124.549C447.519 124.549 443.721 128.176 443.721 133.378ZM463.104 133.241C463.104 138.375 466.526 142.208 471.728 142.208C476.28 142.208 478.196 139.641 479.257 137.656L476.998 136.492C476.109 138.34 474.637 139.88 471.728 139.88C468.374 139.88 466.047 137.622 465.807 134.2H479.531V132.796C479.531 127.697 476.211 124.549 471.488 124.549C466.629 124.549 463.104 128.211 463.104 133.241ZM465.842 132.009C466.218 128.861 468.34 126.876 471.488 126.876C474.569 126.876 476.656 128.69 476.827 132.009H465.842ZM493.124 132.283C493.124 138.58 496.684 142.208 502.57 142.208C508.08 142.208 511.399 138.956 511.399 133.515V130.401H501.441V132.796H508.627V133.72C508.627 137.485 506.711 139.709 502.57 139.709C498.395 139.709 495.897 136.972 495.897 132.317V127.184C495.897 122.53 498.395 119.758 502.604 119.758C506.54 119.758 508.456 122.119 508.456 125.712V126.02H511.263V125.746C511.263 120.613 508.319 117.293 502.57 117.293C496.786 117.293 493.124 120.921 493.124 127.252V132.283ZM518.234 125.028H515.667V141.729H518.302V131.462C518.302 128.587 519.876 127.252 522.34 127.252H525.044V124.959H522.751C520.526 124.959 519.226 125.61 518.576 127.218H518.234V125.028ZM526.236 133.378C526.236 138.614 529.693 142.208 534.758 142.208C539.823 142.208 543.313 138.614 543.313 133.378C543.313 128.108 539.823 124.549 534.758 124.549C529.693 124.549 526.236 128.108 526.236 133.378ZM528.837 133.378C528.837 129.579 531.199 126.876 534.758 126.876C538.317 126.876 540.678 129.477 540.678 133.378C540.678 137.245 538.317 139.88 534.758 139.88C531.199 139.88 528.837 137.348 528.837 133.378ZM544.927 127.218H550.095V138.922C550.095 140.668 551.156 141.729 552.832 141.729H557.453V139.538H553.654C553.038 139.538 552.696 139.196 552.696 138.512V127.218H558.205V125.028H552.696V119.039H550.095V125.028H544.927V127.218ZM560.391 133.241C560.391 138.375 563.814 142.208 569.016 142.208C573.567 142.208 575.484 139.641 576.545 137.656L574.286 136.492C573.396 138.34 571.924 139.88 569.016 139.88C565.662 139.88 563.335 137.622 563.095 134.2H576.818V132.796C576.818 127.697 573.499 124.549 568.776 124.549C563.916 124.549 560.391 128.211 560.391 133.241ZM563.129 132.009C563.506 128.861 565.627 126.876 568.776 126.876C571.856 126.876 573.944 128.69 574.115 132.009H563.129ZM580.026 129.34C580.026 132.317 582.49 133.652 585.639 134.165L587.35 134.405C589.78 134.816 591.217 135.5 591.217 137.177C591.217 138.922 589.609 140.086 587.042 140.086C584.475 140.086 582.285 139.025 581.737 135.603L579.239 136.184C579.855 140.325 582.901 142.208 587.042 142.208C591.114 142.208 593.784 140.291 593.784 137.04C593.784 133.755 591.183 132.728 587.761 132.146L586.049 131.907C584.064 131.564 582.627 130.88 582.627 129.271C582.627 127.595 584.064 126.671 586.357 126.671C588.616 126.671 590.293 127.629 590.772 130.093L593.202 129.443C592.517 126.363 590.122 124.549 586.357 124.549C582.49 124.549 580.026 126.363 580.026 129.34ZM613.459 125.028H609.524L600.249 133.241V117.773H597.614V141.729H600.249V136.458L603.774 133.412L610.106 141.729H613.323L605.657 131.77L613.459 125.028Z" fill="#25A29E"/>
<path d="M383.632 154.942V166.653H384.987V161.918H388.082C390.157 161.918 391.763 160.597 391.763 158.422C391.763 156.247 390.174 154.942 388.082 154.942H383.632ZM384.987 156.163H387.932C389.471 156.163 390.391 157.016 390.391 158.422C390.391 159.844 389.471 160.68 387.932 160.68H384.987V156.163ZM394.673 158.489H393.418V166.653H394.707V161.634C394.707 160.229 395.476 159.576 396.681 159.576H398.003V158.455H396.882C395.794 158.455 395.158 158.773 394.84 159.559H394.673V158.489ZM399.094 155.929C399.094 156.548 399.546 156.999 400.165 156.999C400.784 156.999 401.252 156.548 401.252 155.929C401.252 155.326 400.784 154.875 400.165 154.875C399.546 154.875 399.094 155.326 399.094 155.929ZM400.817 158.489H399.529V166.653H400.817V158.489ZM403.238 158.489V166.653H404.526V161.718C404.526 160.229 405.396 159.425 406.584 159.425C407.755 159.425 408.425 160.128 408.425 161.216V166.653H409.713V161.718C409.713 160.229 410.583 159.425 411.788 159.425C412.942 159.425 413.628 160.128 413.628 161.216V166.653H414.9V161.115C414.9 159.392 413.745 158.321 412.139 158.321C410.817 158.321 410.048 158.907 409.579 159.81H409.412C409.06 158.974 408.274 158.321 407.003 158.321C405.781 158.321 405.045 158.84 404.66 159.559H404.493V158.489H403.238ZM416.99 160.747L418.194 161.115C418.445 160.078 419.198 159.342 420.537 159.342C421.892 159.342 422.578 160.078 422.578 161.249V161.851H419.784C418.044 161.851 416.739 162.671 416.739 164.328C416.739 165.967 418.044 166.888 419.75 166.888C421.356 166.888 422.059 166.135 422.427 165.482H422.611V166.653H423.849V161.316C423.849 159.392 422.611 158.254 420.537 158.254C418.479 158.254 417.374 159.375 416.99 160.747ZM418.01 164.311C418.01 163.391 418.78 162.906 419.834 162.906H422.578V163.106C422.578 164.796 421.507 165.817 419.934 165.817C418.78 165.817 418.01 165.231 418.01 164.311ZM427.449 158.489H426.194V166.653H427.483V161.634C427.483 160.229 428.252 159.576 429.457 159.576H430.779V158.455H429.658C428.57 158.455 427.934 158.773 427.616 159.559H427.449V158.489ZM438.985 158.489L436.258 165.148H436.091L433.364 158.489H431.958L435.489 166.871L434.1 170H435.505L440.408 158.489H438.985ZM446.104 159.559H448.63V165.281C448.63 166.135 449.149 166.653 449.968 166.653H452.227V165.583H450.37C450.069 165.583 449.902 165.415 449.902 165.081V159.559H452.595V158.489H449.902V155.561H448.63V158.489H446.104V159.559ZM460.586 158.489L457.858 165.148H457.691L454.964 158.489H453.558L457.089 166.871L455.7 170H457.105L462.008 158.489H460.586ZM463.578 170H464.866V165.281H465.034C465.502 166.084 466.389 166.888 468.079 166.888C470.22 166.888 471.943 165.198 471.943 162.571C471.943 159.927 470.22 158.254 468.079 158.254C466.389 158.254 465.502 159.057 465 159.894H464.833V158.489H463.578V170ZM467.761 165.75C466.071 165.75 464.849 164.528 464.849 162.571C464.849 160.613 466.071 159.375 467.761 159.375C469.467 159.375 470.638 160.597 470.638 162.571C470.638 164.545 469.467 165.75 467.761 165.75ZM473.32 162.504C473.32 165.014 474.993 166.888 477.536 166.888C479.761 166.888 480.698 165.633 481.217 164.662L480.113 164.093C479.678 164.997 478.958 165.75 477.536 165.75C475.896 165.75 474.759 164.646 474.641 162.972H481.351V162.286C481.351 159.794 479.728 158.254 477.419 158.254C475.043 158.254 473.32 160.045 473.32 162.504ZM474.658 161.902C474.842 160.362 475.88 159.392 477.419 159.392C478.925 159.392 479.945 160.279 480.029 161.902H474.658ZM482.233 158.489V159.559H484.776V166.653H486.064V159.559H488.658V158.489H486.064V156.514C486.064 156.18 486.232 156.012 486.533 156.012H488.273V154.942H486.115C485.295 154.942 484.776 155.46 484.776 156.313V158.489H482.233ZM490.074 160.747L491.279 161.115C491.529 160.078 492.282 159.342 493.621 159.342C494.976 159.342 495.662 160.078 495.662 161.249V161.851H492.868C491.128 161.851 489.823 162.671 489.823 164.328C489.823 165.967 491.128 166.888 492.834 166.888C494.441 166.888 495.143 166.135 495.511 165.482H495.696V166.653H496.934V161.316C496.934 159.392 495.696 158.254 493.621 158.254C491.563 158.254 490.459 159.375 490.074 160.747ZM491.094 164.311C491.094 163.391 491.864 162.906 492.918 162.906H495.662V163.106C495.662 164.796 494.591 165.817 493.019 165.817C491.864 165.817 491.094 165.231 491.094 164.311ZM498.76 162.571C498.76 165.097 500.617 166.888 502.993 166.888C505.218 166.888 506.54 165.516 506.908 163.776L505.653 163.491C505.436 164.796 504.582 165.75 503.01 165.75C501.337 165.75 500.065 164.445 500.065 162.571C500.065 160.697 501.32 159.392 502.993 159.392C504.482 159.392 505.436 160.312 505.603 161.634L506.858 161.366C506.573 159.643 505.168 158.254 502.976 158.254C500.617 158.254 498.76 160.028 498.76 162.571ZM508.236 162.504C508.236 165.014 509.909 166.888 512.452 166.888C514.678 166.888 515.615 165.633 516.133 164.662L515.029 164.093C514.594 164.997 513.875 165.75 512.452 165.75C510.813 165.75 509.675 164.646 509.558 162.972H516.267V162.286C516.267 159.794 514.644 158.254 512.335 158.254C509.959 158.254 508.236 160.045 508.236 162.504ZM509.575 161.902C509.759 160.362 510.796 159.392 512.335 159.392C513.841 159.392 514.862 160.279 514.945 161.902H509.575Z" fill="#024A51"/>
<path d="M388.421 243.402V268.292H385.407V243.402H388.421ZM396.944 257.062V268.292H394.076V249.625H396.846V252.541H397.09C397.527 251.593 398.191 250.832 399.083 250.257C399.974 249.673 401.124 249.381 402.534 249.381C403.798 249.381 404.904 249.641 405.852 250.159C406.8 250.67 407.537 251.447 408.064 252.493C408.59 253.53 408.854 254.842 408.854 256.43V268.292H405.985V256.625C405.985 255.158 405.605 254.016 404.843 253.198C404.082 252.371 403.036 251.958 401.708 251.958C400.792 251.958 399.974 252.156 399.253 252.553C398.54 252.95 397.977 253.53 397.563 254.291C397.15 255.053 396.944 255.976 396.944 257.062ZM422.213 249.625V252.055H412.539V249.625H422.213ZM415.358 245.152H418.227V262.944C418.227 263.754 418.344 264.362 418.579 264.767C418.822 265.164 419.13 265.432 419.503 265.569C419.883 265.699 420.284 265.764 420.706 265.764C421.022 265.764 421.281 265.747 421.484 265.715C421.686 265.675 421.848 265.642 421.97 265.618L422.553 268.194C422.359 268.267 422.087 268.34 421.739 268.413C421.39 268.494 420.949 268.535 420.414 268.535C419.604 268.535 418.81 268.36 418.032 268.012C417.262 267.664 416.622 267.133 416.112 266.42C415.61 265.707 415.358 264.808 415.358 263.722V245.152ZM434.153 268.68C432.354 268.68 430.803 268.283 429.498 267.489C428.202 266.687 427.202 265.569 426.497 264.135C425.8 262.693 425.452 261.016 425.452 259.104C425.452 257.192 425.8 255.507 426.497 254.048C427.202 252.582 428.182 251.439 429.438 250.621C430.702 249.795 432.176 249.381 433.861 249.381C434.834 249.381 435.794 249.544 436.742 249.868C437.69 250.192 438.552 250.718 439.33 251.447C440.108 252.169 440.728 253.125 441.19 254.316C441.651 255.507 441.882 256.973 441.882 258.715V259.93H427.493V257.451H438.966C438.966 256.398 438.755 255.458 438.334 254.632C437.92 253.805 437.329 253.153 436.559 252.675C435.798 252.197 434.898 251.958 433.861 251.958C432.719 251.958 431.731 252.241 430.896 252.809C430.07 253.368 429.434 254.097 428.988 254.996C428.542 255.895 428.32 256.86 428.32 257.889V259.541C428.32 260.951 428.563 262.146 429.049 263.126C429.543 264.099 430.228 264.84 431.103 265.35C431.978 265.853 432.994 266.104 434.153 266.104C434.907 266.104 435.587 265.999 436.195 265.788C436.81 265.569 437.341 265.245 437.787 264.816C438.232 264.378 438.577 263.835 438.82 263.187L441.591 263.965C441.299 264.905 440.809 265.731 440.12 266.444C439.431 267.149 438.581 267.7 437.568 268.097C436.555 268.486 435.417 268.68 434.153 268.68ZM446.245 268.292V249.625H449.016V252.444H449.211C449.551 251.52 450.167 250.771 451.058 250.196C451.949 249.62 452.954 249.333 454.072 249.333C454.282 249.333 454.546 249.337 454.862 249.345C455.178 249.353 455.417 249.365 455.579 249.381V252.298C455.481 252.274 455.259 252.237 454.91 252.189C454.57 252.132 454.209 252.104 453.829 252.104C452.921 252.104 452.111 252.294 451.398 252.675C450.693 253.048 450.134 253.566 449.721 254.231C449.316 254.887 449.113 255.636 449.113 256.479V268.292H446.245Z" fill="#25A29E"/>
<path d="M390.521 282.332C390.45 281.73 390.161 281.262 389.654 280.93C389.147 280.597 388.525 280.431 387.788 280.431C387.25 280.431 386.778 280.518 386.374 280.692C385.974 280.866 385.661 281.106 385.436 281.411C385.214 281.716 385.103 282.063 385.103 282.451C385.103 282.776 385.18 283.055 385.335 283.289C385.493 283.518 385.695 283.71 385.941 283.865C386.186 284.015 386.444 284.14 386.713 284.239C386.982 284.334 387.23 284.411 387.456 284.471L388.691 284.804C389.008 284.887 389.361 285.002 389.749 285.148C390.141 285.295 390.516 285.495 390.872 285.748C391.232 285.998 391.53 286.319 391.763 286.711C391.997 287.103 392.114 287.584 392.114 288.155C392.114 288.812 391.941 289.406 391.597 289.937C391.256 290.468 390.757 290.89 390.1 291.203C389.446 291.515 388.652 291.672 387.717 291.672C386.846 291.672 386.091 291.531 385.453 291.25C384.82 290.969 384.321 290.577 383.956 290.074C383.596 289.571 383.392 288.986 383.344 288.321H384.865C384.905 288.78 385.059 289.161 385.329 289.462C385.602 289.759 385.947 289.981 386.362 290.127C386.782 290.27 387.234 290.341 387.717 290.341C388.28 290.341 388.785 290.25 389.232 290.068C389.68 289.882 390.034 289.624 390.296 289.295C390.557 288.963 390.688 288.574 390.688 288.131C390.688 287.727 390.575 287.398 390.349 287.145C390.123 286.891 389.826 286.685 389.458 286.527C389.09 286.368 388.691 286.23 388.264 286.111L386.766 285.683C385.816 285.41 385.063 285.019 384.509 284.512C383.954 284.005 383.677 283.342 383.677 282.522C383.677 281.841 383.861 281.247 384.229 280.74C384.602 280.229 385.101 279.833 385.727 279.551C386.357 279.266 387.06 279.124 387.836 279.124C388.62 279.124 389.317 279.264 389.927 279.545C390.537 279.823 391.021 280.203 391.377 280.686C391.737 281.169 391.928 281.718 391.947 282.332H390.521ZM398.173 291.648C397.293 291.648 396.535 291.454 395.897 291.066C395.263 290.674 394.774 290.127 394.429 289.426C394.089 288.721 393.918 287.901 393.918 286.966C393.918 286.031 394.089 285.208 394.429 284.495C394.774 283.778 395.253 283.219 395.867 282.819C396.485 282.415 397.206 282.213 398.03 282.213C398.505 282.213 398.975 282.292 399.438 282.451C399.902 282.609 400.323 282.867 400.704 283.223C401.084 283.576 401.387 284.043 401.613 284.625C401.838 285.208 401.951 285.925 401.951 286.776V287.37H394.917V286.158H400.525C400.525 285.643 400.422 285.184 400.216 284.78C400.014 284.376 399.725 284.057 399.349 283.823C398.977 283.59 398.537 283.473 398.03 283.473C397.471 283.473 396.988 283.611 396.58 283.889C396.176 284.162 395.865 284.518 395.647 284.958C395.43 285.398 395.321 285.869 395.321 286.372V287.18C395.321 287.869 395.439 288.454 395.677 288.933C395.919 289.408 396.253 289.771 396.681 290.02C397.109 290.266 397.606 290.389 398.173 290.389C398.541 290.389 398.874 290.337 399.171 290.234C399.472 290.127 399.731 289.969 399.949 289.759C400.167 289.545 400.335 289.279 400.454 288.963L401.809 289.343C401.666 289.802 401.426 290.206 401.09 290.555C400.753 290.9 400.337 291.169 399.842 291.363C399.347 291.553 398.79 291.648 398.173 291.648ZM407.792 291.648C406.936 291.648 406.199 291.446 405.582 291.042C404.964 290.638 404.488 290.082 404.156 289.373C403.823 288.664 403.657 287.854 403.657 286.943C403.657 286.016 403.827 285.198 404.167 284.489C404.512 283.776 404.991 283.219 405.605 282.819C406.223 282.415 406.944 282.213 407.768 282.213C408.41 282.213 408.988 282.332 409.503 282.57C410.018 282.807 410.44 283.14 410.768 283.568C411.097 283.996 411.301 284.495 411.38 285.065H409.978C409.871 284.649 409.634 284.281 409.265 283.96C408.901 283.635 408.41 283.473 407.792 283.473C407.245 283.473 406.766 283.615 406.354 283.9C405.946 284.182 405.627 284.58 405.397 285.095C405.172 285.606 405.059 286.206 405.059 286.895C405.059 287.6 405.17 288.214 405.391 288.737C405.617 289.26 405.934 289.666 406.342 289.955C406.754 290.244 407.237 290.389 407.792 290.389C408.156 290.389 408.487 290.325 408.784 290.198C409.081 290.072 409.333 289.889 409.539 289.652C409.745 289.414 409.891 289.129 409.978 288.796H411.38C411.301 289.335 411.105 289.82 410.792 290.252C410.483 290.68 410.073 291.02 409.562 291.274C409.055 291.523 408.465 291.648 407.792 291.648ZM417.138 291.648C416.314 291.648 415.591 291.452 414.969 291.06C414.351 290.668 413.868 290.119 413.519 289.414C413.175 288.709 413.002 287.885 413.002 286.943C413.002 285.992 413.175 285.162 413.519 284.453C413.868 283.744 414.351 283.193 414.969 282.801C415.591 282.409 416.314 282.213 417.138 282.213C417.962 282.213 418.682 282.409 419.3 282.801C419.922 283.193 420.405 283.744 420.75 284.453C421.099 285.162 421.273 285.992 421.273 286.943C421.273 287.885 421.099 288.709 420.75 289.414C420.405 290.119 419.922 290.668 419.3 291.06C418.682 291.452 417.962 291.648 417.138 291.648ZM417.138 290.389C417.763 290.389 418.278 290.228 418.682 289.907C419.086 289.586 419.386 289.165 419.58 288.642C419.774 288.119 419.871 287.552 419.871 286.943C419.871 286.333 419.774 285.764 419.58 285.237C419.386 284.711 419.086 284.285 418.682 283.96C418.278 283.635 417.763 283.473 417.138 283.473C416.512 283.473 415.997 283.635 415.593 283.96C415.189 284.285 414.89 284.711 414.696 285.237C414.502 285.764 414.405 286.333 414.405 286.943C414.405 287.552 414.502 288.119 414.696 288.642C414.89 289.165 415.189 289.586 415.593 289.907C415.997 290.228 416.512 290.389 417.138 290.389ZM424.815 285.968V291.458H423.413V282.332H424.768V283.758H424.887C425.101 283.294 425.425 282.922 425.861 282.641C426.297 282.356 426.859 282.213 427.549 282.213C428.166 282.213 428.707 282.34 429.171 282.593C429.634 282.843 429.994 283.223 430.252 283.734C430.509 284.241 430.638 284.883 430.638 285.659V291.458H429.236V285.754C429.236 285.037 429.05 284.479 428.677 284.079C428.305 283.675 427.794 283.473 427.145 283.473C426.697 283.473 426.297 283.57 425.944 283.764C425.596 283.958 425.321 284.241 425.119 284.613C424.917 284.986 424.815 285.437 424.815 285.968ZM436.646 291.648C435.886 291.648 435.215 291.456 434.632 291.072C434.05 290.684 433.594 290.137 433.266 289.432C432.937 288.723 432.773 287.885 432.773 286.919C432.773 285.96 432.937 285.128 433.266 284.423C433.594 283.718 434.052 283.174 434.638 282.789C435.224 282.405 435.902 282.213 436.67 282.213C437.264 282.213 437.734 282.312 438.078 282.51C438.427 282.704 438.692 282.926 438.874 283.176C439.061 283.421 439.205 283.623 439.308 283.782H439.427V279.29H440.829V291.458H439.475V290.056H439.308C439.205 290.222 439.059 290.432 438.869 290.686C438.678 290.935 438.407 291.159 438.055 291.357C437.702 291.551 437.233 291.648 436.646 291.648ZM436.837 290.389C437.399 290.389 437.874 290.242 438.262 289.949C438.651 289.652 438.946 289.242 439.148 288.719C439.35 288.192 439.451 287.584 439.451 286.895C439.451 286.214 439.352 285.618 439.154 285.107C438.956 284.592 438.663 284.192 438.274 283.906C437.886 283.617 437.407 283.473 436.837 283.473C436.242 283.473 435.747 283.625 435.351 283.93C434.959 284.231 434.664 284.641 434.466 285.16C434.272 285.675 434.175 286.253 434.175 286.895C434.175 287.545 434.274 288.135 434.472 288.666C434.674 289.192 434.971 289.612 435.363 289.925C435.759 290.234 436.25 290.389 436.837 290.389ZM446.277 291.672C445.699 291.672 445.174 291.563 444.703 291.345C444.232 291.123 443.857 290.804 443.58 290.389C443.303 289.969 443.164 289.462 443.164 288.868C443.164 288.345 443.267 287.921 443.473 287.596C443.679 287.267 443.954 287.01 444.299 286.824C444.644 286.638 445.024 286.499 445.44 286.408C445.86 286.313 446.281 286.237 446.705 286.182C447.26 286.111 447.709 286.057 448.054 286.022C448.403 285.982 448.656 285.917 448.814 285.826C448.977 285.734 449.058 285.576 449.058 285.35V285.303C449.058 284.716 448.898 284.261 448.577 283.936C448.26 283.611 447.779 283.449 447.133 283.449C446.464 283.449 445.939 283.595 445.559 283.889C445.178 284.182 444.911 284.495 444.756 284.827L443.426 284.352C443.663 283.797 443.98 283.366 444.376 283.057C444.776 282.744 445.212 282.526 445.683 282.403C446.159 282.276 446.626 282.213 447.086 282.213C447.379 282.213 447.715 282.249 448.096 282.32C448.48 282.387 448.85 282.528 449.207 282.742C449.567 282.956 449.866 283.279 450.104 283.71C450.341 284.142 450.46 284.72 450.46 285.445V291.458H449.058V290.222H448.987C448.892 290.42 448.733 290.632 448.511 290.858C448.29 291.084 447.995 291.276 447.626 291.434C447.258 291.593 446.808 291.672 446.277 291.672ZM446.491 290.412C447.046 290.412 447.513 290.303 447.894 290.086C448.278 289.868 448.567 289.586 448.761 289.242C448.959 288.897 449.058 288.535 449.058 288.155V286.871C448.999 286.943 448.868 287.008 448.666 287.067C448.468 287.123 448.238 287.172 447.977 287.216C447.719 287.255 447.468 287.291 447.222 287.323C446.981 287.35 446.785 287.374 446.634 287.394C446.27 287.442 445.929 287.519 445.612 287.626C445.299 287.729 445.046 287.885 444.852 288.095C444.661 288.301 444.566 288.582 444.566 288.939C444.566 289.426 444.747 289.794 445.107 290.044C445.471 290.29 445.933 290.412 446.491 290.412ZM453.02 291.458V282.332H454.374V283.71H454.469C454.636 283.259 454.937 282.892 455.372 282.611C455.808 282.33 456.299 282.189 456.846 282.189C456.949 282.189 457.078 282.191 457.232 282.195C457.387 282.199 457.503 282.205 457.583 282.213V283.639C457.535 283.627 457.426 283.609 457.256 283.586C457.089 283.558 456.913 283.544 456.727 283.544C456.283 283.544 455.887 283.637 455.539 283.823C455.194 284.005 454.921 284.259 454.719 284.584C454.521 284.905 454.422 285.271 454.422 285.683V291.458H453.02ZM460.426 294.88C460.188 294.88 459.976 294.86 459.79 294.821C459.604 294.785 459.475 294.75 459.404 294.714L459.76 293.478C460.101 293.565 460.402 293.597 460.663 293.573C460.925 293.549 461.156 293.433 461.358 293.223C461.564 293.017 461.752 292.682 461.923 292.219L462.184 291.506L458.809 282.332H460.331L462.85 289.604H462.945L465.464 282.332H466.985L463.111 292.789C462.937 293.26 462.721 293.65 462.463 293.959C462.206 294.272 461.907 294.504 461.566 294.655C461.23 294.805 460.849 294.88 460.426 294.88ZM477.51 282.332V283.52H472.781V282.332H477.51ZM474.159 280.145H475.561V288.844C475.561 289.24 475.619 289.537 475.734 289.735C475.853 289.929 476.003 290.06 476.185 290.127C476.371 290.19 476.567 290.222 476.773 290.222C476.928 290.222 477.055 290.214 477.154 290.198C477.253 290.179 477.332 290.163 477.391 290.151L477.677 291.41C477.582 291.446 477.449 291.482 477.278 291.517C477.108 291.557 476.892 291.577 476.631 291.577C476.235 291.577 475.847 291.492 475.466 291.321C475.09 291.151 474.777 290.892 474.528 290.543C474.282 290.194 474.159 289.755 474.159 289.224V280.145ZM480.523 294.88C480.285 294.88 480.073 294.86 479.887 294.821C479.701 294.785 479.572 294.75 479.501 294.714L479.857 293.478C480.198 293.565 480.499 293.597 480.76 293.573C481.022 293.549 481.253 293.433 481.455 293.223C481.661 293.017 481.849 292.682 482.02 292.219L482.281 291.506L478.906 282.332H480.427L482.947 289.604H483.042L485.561 282.332H487.082L483.208 292.789C483.034 293.26 482.818 293.65 482.56 293.959C482.303 294.272 482.004 294.504 481.663 294.655C481.327 294.805 480.946 294.88 480.523 294.88ZM488.933 294.88V282.332H490.287V283.782H490.454C490.557 283.623 490.699 283.421 490.881 283.176C491.068 282.926 491.333 282.704 491.678 282.51C492.026 282.312 492.498 282.213 493.092 282.213C493.86 282.213 494.537 282.405 495.124 282.789C495.71 283.174 496.167 283.718 496.496 284.423C496.825 285.128 496.989 285.96 496.989 286.919C496.989 287.885 496.825 288.723 496.496 289.432C496.167 290.137 495.712 290.684 495.13 291.072C494.547 291.456 493.876 291.648 493.115 291.648C492.529 291.648 492.06 291.551 491.707 291.357C491.355 291.159 491.083 290.935 490.893 290.686C490.703 290.432 490.557 290.222 490.454 290.056H490.335V294.88H488.933ZM490.311 286.895C490.311 287.584 490.412 288.192 490.614 288.719C490.816 289.242 491.111 289.652 491.499 289.949C491.888 290.242 492.363 290.389 492.925 290.389C493.512 290.389 494.001 290.234 494.393 289.925C494.789 289.612 495.086 289.192 495.284 288.666C495.486 288.135 495.587 287.545 495.587 286.895C495.587 286.253 495.488 285.675 495.29 285.16C495.096 284.641 494.801 284.231 494.405 283.93C494.013 283.625 493.519 283.473 492.925 283.473C492.355 283.473 491.876 283.617 491.487 283.906C491.099 284.192 490.806 284.592 490.608 285.107C490.41 285.618 490.311 286.214 490.311 286.895ZM502.954 291.648C502.075 291.648 501.317 291.454 500.679 291.066C500.045 290.674 499.556 290.127 499.211 289.426C498.871 288.721 498.7 287.901 498.7 286.966C498.7 286.031 498.871 285.208 499.211 284.495C499.556 283.778 500.035 283.219 500.649 282.819C501.267 282.415 501.988 282.213 502.812 282.213C503.287 282.213 503.757 282.292 504.22 282.451C504.683 282.609 505.105 282.867 505.486 283.223C505.866 283.576 506.169 284.043 506.395 284.625C506.62 285.208 506.733 285.925 506.733 286.776V287.37H499.699V286.158H505.307C505.307 285.643 505.204 285.184 504.998 284.78C504.796 284.376 504.507 284.057 504.131 283.823C503.759 283.59 503.319 283.473 502.812 283.473C502.253 283.473 501.77 283.611 501.362 283.889C500.958 284.162 500.647 284.518 500.429 284.958C500.211 285.398 500.103 285.869 500.103 286.372V287.18C500.103 287.869 500.221 288.454 500.459 288.933C500.701 289.408 501.035 289.771 501.463 290.02C501.891 290.266 502.388 290.389 502.954 290.389C503.323 290.389 503.656 290.337 503.953 290.234C504.254 290.127 504.513 289.969 504.731 289.759C504.949 289.545 505.117 289.279 505.236 288.963L506.591 289.343C506.448 289.802 506.208 290.206 505.872 290.555C505.535 290.9 505.119 291.169 504.624 291.363C504.129 291.553 503.572 291.648 502.954 291.648ZM512.93 282.332V283.52H508.011V282.332H512.93ZM509.484 291.458V281.072C509.484 280.55 509.607 280.114 509.852 279.765C510.098 279.417 510.417 279.155 510.809 278.981C511.201 278.807 511.615 278.72 512.051 278.72C512.395 278.72 512.677 278.747 512.895 278.803C513.112 278.858 513.275 278.91 513.382 278.957L512.978 280.169C512.906 280.145 512.807 280.116 512.681 280.08C512.558 280.044 512.395 280.027 512.193 280.027C511.73 280.027 511.395 280.144 511.189 280.377C510.987 280.611 510.886 280.954 510.886 281.405V291.458H509.484ZM517.319 291.672C516.741 291.672 516.216 291.563 515.745 291.345C515.274 291.123 514.899 290.804 514.622 290.389C514.345 289.969 514.206 289.462 514.206 288.868C514.206 288.345 514.309 287.921 514.515 287.596C514.721 287.267 514.996 287.01 515.341 286.824C515.685 286.638 516.066 286.499 516.482 286.408C516.902 286.313 517.323 286.237 517.747 286.182C518.302 286.111 518.751 286.057 519.096 286.022C519.444 285.982 519.698 285.917 519.856 285.826C520.019 285.734 520.1 285.576 520.1 285.35V285.303C520.1 284.716 519.94 284.261 519.619 283.936C519.302 283.611 518.821 283.449 518.175 283.449C517.506 283.449 516.981 283.595 516.6 283.889C516.22 284.182 515.953 284.495 515.798 284.827L514.468 284.352C514.705 283.797 515.022 283.366 515.418 283.057C515.818 282.744 516.254 282.526 516.725 282.403C517.201 282.276 517.668 282.213 518.127 282.213C518.421 282.213 518.757 282.249 519.137 282.32C519.522 282.387 519.892 282.528 520.249 282.742C520.609 282.956 520.908 283.279 521.146 283.71C521.383 284.142 521.502 284.72 521.502 285.445V291.458H520.1V290.222H520.029C519.934 290.42 519.775 290.632 519.553 290.858C519.332 291.084 519.036 291.276 518.668 291.434C518.3 291.593 517.85 291.672 517.319 291.672ZM517.533 290.412C518.088 290.412 518.555 290.303 518.935 290.086C519.32 289.868 519.609 289.586 519.803 289.242C520.001 288.897 520.1 288.535 520.1 288.155V286.871C520.041 286.943 519.91 287.008 519.708 287.067C519.51 287.123 519.28 287.172 519.019 287.216C518.761 287.255 518.51 287.291 518.264 287.323C518.022 287.35 517.826 287.374 517.676 287.394C517.311 287.442 516.971 287.519 516.654 287.626C516.341 287.729 516.088 287.885 515.893 288.095C515.703 288.301 515.608 288.582 515.608 288.939C515.608 289.426 515.788 289.794 516.149 290.044C516.513 290.29 516.975 290.412 517.533 290.412ZM527.769 291.648C526.913 291.648 526.177 291.446 525.559 291.042C524.941 290.638 524.465 290.082 524.133 289.373C523.8 288.664 523.634 287.854 523.634 286.943C523.634 286.016 523.804 285.198 524.145 284.489C524.489 283.776 524.969 283.219 525.582 282.819C526.2 282.415 526.921 282.213 527.745 282.213C528.387 282.213 528.965 282.332 529.48 282.57C529.995 282.807 530.417 283.14 530.746 283.568C531.074 283.996 531.278 284.495 531.358 285.065H529.955C529.848 284.649 529.611 284.281 529.242 283.96C528.878 283.635 528.387 283.473 527.769 283.473C527.222 283.473 526.743 283.615 526.331 283.9C525.923 284.182 525.604 284.58 525.375 285.095C525.149 285.606 525.036 286.206 525.036 286.895C525.036 287.6 525.147 288.214 525.369 288.737C525.594 289.26 525.911 289.666 526.319 289.955C526.731 290.244 527.214 290.389 527.769 290.389C528.133 290.389 528.464 290.325 528.761 290.198C529.058 290.072 529.31 289.889 529.516 289.652C529.722 289.414 529.868 289.129 529.955 288.796H531.358C531.278 289.335 531.082 289.82 530.769 290.252C530.46 290.68 530.05 291.02 529.539 291.274C529.032 291.523 528.442 291.648 527.769 291.648ZM537.234 291.648C536.354 291.648 535.596 291.454 534.958 291.066C534.324 290.674 533.835 290.127 533.491 289.426C533.15 288.721 532.98 287.901 532.98 286.966C532.98 286.031 533.15 285.208 533.491 284.495C533.835 283.778 534.314 283.219 534.928 282.819C535.546 282.415 536.267 282.213 537.091 282.213C537.566 282.213 538.036 282.292 538.499 282.451C538.963 282.609 539.384 282.867 539.765 283.223C540.145 283.576 540.448 284.043 540.674 284.625C540.9 285.208 541.012 285.925 541.012 286.776V287.37H533.978V286.158H539.586C539.586 285.643 539.483 285.184 539.278 284.78C539.076 284.376 538.786 284.057 538.41 283.823C538.038 283.59 537.598 283.473 537.091 283.473C536.533 283.473 536.049 283.611 535.641 283.889C535.237 284.162 534.926 284.518 534.709 284.958C534.491 285.398 534.382 285.869 534.382 286.372V287.18C534.382 287.869 534.501 288.454 534.738 288.933C534.98 289.408 535.315 289.771 535.742 290.02C536.17 290.266 536.667 290.389 537.234 290.389C537.602 290.389 537.935 290.337 538.232 290.234C538.533 290.127 538.792 289.969 539.01 289.759C539.228 289.545 539.396 289.279 539.515 288.963L540.87 289.343C540.727 289.802 540.488 290.206 540.151 290.555C539.814 290.9 539.398 291.169 538.903 291.363C538.408 291.553 537.852 291.648 537.234 291.648Z" fill="#024A51"/>
<defs>
<filter id="filter0_d_2933_2187" x="0.150391" y="387.189" width="748.21" height="374.273" filterUnits="userSpaceOnUse" color-interpolation-filters="sRGB">
<feFlood flood-opacity="0" result="BackgroundImageFix"/>
<feColorMatrix in="SourceAlpha" type="matrix" values="0 0 0 0 0 0 0 0 0 0 0 0 0 0 0 0 0 0 127 0" result="hardAlpha"/>
<feOffset dx="2.92625" dy="2.92625"/>
<feColorMatrix type="matrix" values="0 0 0 0 0.00784314 0 0 0 0 0.290196 0 0 0 0 0.317647 0 0 0 1 0"/>
<feBlend mode="normal" in2="BackgroundImageFix" result="effect1_dropShadow_2933_2187"/>
<feBlend mode="normal" in="SourceGraphic" in2="effect1_dropShadow_2933_2187" result="shape"/>
</filter>
<filter id="filter1_d_2933_2187" x="102.591" y="606.294" width="152.099" height="72.107" filterUnits="userSpaceOnUse" color-interpolation-filters="sRGB">
<feFlood flood-opacity="0" result="BackgroundImageFix"/>
<feColorMatrix in="SourceAlpha" type="matrix" values="0 0 0 0 0 0 0 0 0 0 0 0 0 0 0 0 0 0 127 0" result="hardAlpha"/>
<feOffset dx="3.04202" dy="3.04202"/>
<feColorMatrix type="matrix" values="0 0 0 0 0.00784314 0 0 0 0 0.290196 0 0 0 0 0.317647 0 0 0 1 0"/>
<feBlend mode="normal" in2="BackgroundImageFix" result="effect1_dropShadow_2933_2187"/>
<feBlend mode="normal" in="SourceGraphic" in2="effect1_dropShadow_2933_2187" result="shape"/>
</filter>
<filter id="filter2_d_2933_2187" x="296.617" y="606.294" width="152.099" height="72.107" filterUnits="userSpaceOnUse" color-interpolation-filters="sRGB">
<feFlood flood-opacity="0" result="BackgroundImageFix"/>
<feColorMatrix in="SourceAlpha" type="matrix" values="0 0 0 0 0 0 0 0 0 0 0 0 0 0 0 0 0 0 127 0" result="hardAlpha"/>
<feOffset dx="3.04202" dy="3.04202"/>
<feColorMatrix type="matrix" values="0 0 0 0 0.00784314 0 0 0 0 0.290196 0 0 0 0 0.317647 0 0 0 1 0"/>
<feBlend mode="normal" in2="BackgroundImageFix" result="effect1_dropShadow_2933_2187"/>
<feBlend mode="normal" in="SourceGraphic" in2="effect1_dropShadow_2933_2187" result="shape"/>
</filter>
<filter id="filter3_d_2933_2187" x="102.586" y="470.545" width="152.099" height="72.107" filterUnits="userSpaceOnUse" color-interpolation-filters="sRGB">
<feFlood flood-opacity="0" result="BackgroundImageFix"/>
<feColorMatrix in="SourceAlpha" type="matrix" values="0 0 0 0 0 0 0 0 0 0 0 0 0 0 0 0 0 0 127 0" result="hardAlpha"/>
<feOffset dx="3.04202" dy="3.04202"/>
<feColorMatrix type="matrix" values="0 0 0 0 0.00784314 0 0 0 0 0.290196 0 0 0 0 0.317647 0 0 0 1 0"/>
<feBlend mode="normal" in2="BackgroundImageFix" result="effect1_dropShadow_2933_2187"/>
<feBlend mode="normal" in="SourceGraphic" in2="effect1_dropShadow_2933_2187" result="shape"/>
</filter>
<filter id="filter4_d_2933_2187" x="296.613" y="470.545" width="152.099" height="72.107" filterUnits="userSpaceOnUse" color-interpolation-filters="sRGB">
<feFlood flood-opacity="0" result="BackgroundImageFix"/>
<feColorMatrix in="SourceAlpha" type="matrix" values="0 0 0 0 0 0 0 0 0 0 0 0 0 0 0 0 0 0 127 0" result="hardAlpha"/>
<feOffset dx="3.04202" dy="3.04202"/>
<feColorMatrix type="matrix" values="0 0 0 0 0.00784314 0 0 0 0 0.290196 0 0 0 0 0.317647 0 0 0 1 0"/>
<feBlend mode="normal" in2="BackgroundImageFix" result="effect1_dropShadow_2933_2187"/>
<feBlend mode="normal" in="SourceGraphic" in2="effect1_dropShadow_2933_2187" result="shape"/>
</filter>
<filter id="filter5_d_2933_2187" x="495.785" y="470.545" width="152.099" height="72.107" filterUnits="userSpaceOnUse" color-interpolation-filters="sRGB">
<feFlood flood-opacity="0" result="BackgroundImageFix"/>
<feColorMatrix in="SourceAlpha" type="matrix" values="0 0 0 0 0 0 0 0 0 0 0 0 0 0 0 0 0 0 127 0" result="hardAlpha"/>
<feOffset dx="3.04202" dy="3.04202"/>
<feColorMatrix type="matrix" values="0 0 0 0 0.00784314 0 0 0 0 0.290196 0 0 0 0 0.317647 0 0 0 1 0"/>
<feBlend mode="normal" in2="BackgroundImageFix" result="effect1_dropShadow_2933_2187"/>
<feBlend mode="normal" in="SourceGraphic" in2="effect1_dropShadow_2933_2187" result="shape"/>
</filter>
<filter id="filter6_d_2933_2187" x="495.789" y="606.294" width="152.099" height="72.107" filterUnits="userSpaceOnUse" color-interpolation-filters="sRGB">
<feFlood flood-opacity="0" result="BackgroundImageFix"/>
<feColorMatrix in="SourceAlpha" type="matrix" values="0 0 0 0 0 0 0 0 0 0 0 0 0 0 0 0 0 0 127 0" result="hardAlpha"/>
<feOffset dx="3.04202" dy="3.04202"/>
<feColorMatrix type="matrix" values="0 0 0 0 0.00784314 0 0 0 0 0.290196 0 0 0 0 0.317647 0 0 0 1 0"/>
<feBlend mode="normal" in2="BackgroundImageFix" result="effect1_dropShadow_2933_2187"/>
<feBlend mode="normal" in="SourceGraphic" in2="effect1_dropShadow_2933_2187" result="shape"/>
</filter>
<filter id="filter7_d_2933_2187" x="0.150391" y="0.357422" width="748.21" height="374.273" filterUnits="userSpaceOnUse" color-interpolation-filters="sRGB">
<feFlood flood-opacity="0" result="BackgroundImageFix"/>
<feColorMatrix in="SourceAlpha" type="matrix" values="0 0 0 0 0 0 0 0 0 0 0 0 0 0 0 0 0 0 127 0" result="hardAlpha"/>
<feOffset dx="2.92625" dy="2.92625"/>
<feColorMatrix type="matrix" values="0 0 0 0 0.00784314 0 0 0 0 0.290196 0 0 0 0 0.317647 0 0 0 1 0"/>
<feBlend mode="normal" in2="BackgroundImageFix" result="effect1_dropShadow_2933_2187"/>
<feBlend mode="normal" in="SourceGraphic" in2="effect1_dropShadow_2933_2187" result="shape"/>
</filter>
<filter id="filter8_d_2933_2187" x="119.708" y="54.9209" width="216.022" height="140.215" filterUnits="userSpaceOnUse" color-interpolation-filters="sRGB">
<feFlood flood-opacity="0" result="BackgroundImageFix"/>
<feColorMatrix in="SourceAlpha" type="matrix" values="0 0 0 0 0 0 0 0 0 0 0 0 0 0 0 0 0 0 127 0" result="hardAlpha"/>
<feOffset dx="3.04202" dy="3.04202"/>
<feColorMatrix type="matrix" values="0 0 0 0 0.00784314 0 0 0 0 0.290196 0 0 0 0 0.317647 0 0 0 1 0"/>
<feBlend mode="normal" in2="BackgroundImageFix" result="effect1_dropShadow_2933_2187"/>
<feBlend mode="normal" in="SourceGraphic" in2="effect1_dropShadow_2933_2187" result="shape"/>
</filter>
<filter id="filter9_d_2933_2187" x="192.085" y="233.178" width="143.643" height="84.2315" filterUnits="userSpaceOnUse" color-interpolation-filters="sRGB">
<feFlood flood-opacity="0" result="BackgroundImageFix"/>
<feColorMatrix in="SourceAlpha" type="matrix" values="0 0 0 0 0 0 0 0 0 0 0 0 0 0 0 0 0 0 127 0" result="hardAlpha"/>
<feOffset dx="3.04202" dy="3.04202"/>
<feColorMatrix type="matrix" values="0 0 0 0 0.00784314 0 0 0 0 0.290196 0 0 0 0 0.317647 0 0 0 1 0"/>
<feBlend mode="normal" in2="BackgroundImageFix" result="effect1_dropShadow_2933_2187"/>
<feBlend mode="normal" in="SourceGraphic" in2="effect1_dropShadow_2933_2187" result="shape"/>
</filter>
</defs>
</svg>
