<svg width="800" height="450" viewBox="0 0 800 450" fill="none" xmlns="http://www.w3.org/2000/svg">
<rect width="800" height="450" fill="#005DA6"/>
<path fill-rule="evenodd" clip-rule="evenodd" d="M163.457 312.179V261.275H181.364C187.269 261.275 191.841 263.041 194.933 266.211C198.01 269.366 199.361 273.646 199.361 278.182C199.361 282.716 198.011 287.013 194.954 290.188C191.879 293.381 187.328 295.179 181.455 295.179H173.452V312.179H163.457ZM171.273 310H165.637V263.454H181.364C192.296 263.454 197.182 269.954 197.182 278.182C197.182 286.409 192.296 293 181.455 293H171.273V310ZM173.452 270.634V285.82H181.273C184.602 285.82 186.544 284.889 187.673 283.692C188.826 282.47 189.457 280.628 189.457 278.182C189.457 275.736 188.827 273.928 187.677 272.733C186.543 271.554 184.577 270.634 181.182 270.634H173.452ZM203.355 312.179V272.911H212.896V274.636C214.938 273.185 217.494 272.366 220.171 272.366C221.005 272.366 222.47 272.412 223.15 272.463L225.168 272.612V282.882L222.46 282.205C222.238 282.15 220.94 281.907 219.716 281.907C215.672 281.907 213.077 284.537 213.077 287.909V312.179H203.355ZM212.896 277.498C212.099 278.322 211.475 279.29 211.08 280.363H210.716V275.091H205.534V310H210.898V287.909C210.898 283.182 214.625 279.727 219.716 279.727C220.084 279.727 220.455 279.745 220.809 279.773C221.834 279.855 222.719 280.023 222.989 280.091V274.636C222.375 274.591 220.966 274.545 220.171 274.545C217.288 274.545 214.664 275.669 212.896 277.498ZM255.556 307.225C252.344 310.871 247.78 312.907 242.466 312.907C237.152 312.907 232.588 310.871 229.376 307.225C226.186 303.603 224.468 298.556 224.468 292.727C224.468 286.857 226.183 281.788 229.373 278.153C232.586 274.493 237.151 272.457 242.466 272.457C247.781 272.457 252.346 274.493 255.559 278.153C258.749 281.788 260.464 286.857 260.464 292.727C260.464 298.556 258.746 303.603 255.556 307.225ZM236.324 300.683C237.64 302.54 239.598 303.729 242.466 303.729C245.334 303.729 247.292 302.54 248.608 300.683C249.987 298.738 250.741 295.928 250.741 292.727C250.741 289.526 249.987 286.689 248.603 284.718C247.28 282.835 245.321 281.634 242.466 281.634C239.611 281.634 237.652 282.835 236.329 284.718C234.945 286.689 234.191 289.526 234.191 292.727C234.191 295.928 234.945 298.738 236.324 300.683ZM283.833 272.911V281.816H276.379V300C276.379 301.95 276.865 302.526 277.06 302.695C277.312 302.914 277.797 303.093 278.835 303.093C279.658 303.093 280.161 302.989 280.598 302.898C280.657 302.886 280.715 302.874 280.772 302.863L282.855 302.446L284.835 311.191L283.055 311.859C282.106 312.215 280.575 312.634 278.29 312.634C275.583 312.634 272.707 311.773 270.467 309.916C268.173 308.015 266.656 305.15 266.656 301.454V281.816H261.383V272.911H266.656V264.548H276.379V272.911H283.833ZM282.29 309.818C281.563 310.091 280.29 310.454 278.29 310.454C273.744 310.454 268.835 307.545 268.835 301.454V279.636H263.563V275.091H268.835V266.727H274.199V275.091H281.654V279.636H274.199V300C274.199 304.545 276.472 305.273 278.835 305.273C279.887 305.273 280.579 305.129 281.039 305.033C281.096 305.021 281.149 305.01 281.199 305L282.29 309.818ZM316.619 307.225C313.407 310.871 308.843 312.907 303.529 312.907C298.214 312.907 293.65 310.871 290.439 307.225C287.248 303.603 285.531 298.556 285.531 292.727C285.531 286.857 287.246 281.788 290.436 278.153C293.648 274.493 298.214 272.457 303.529 272.457C308.843 272.457 313.409 274.493 316.621 278.153C319.811 281.788 321.526 286.857 321.526 292.727C321.526 298.556 319.809 303.603 316.619 307.225ZM297.386 300.683C298.703 302.54 300.66 303.729 303.529 303.729C306.397 303.729 308.354 302.54 309.671 300.683C311.05 298.738 311.804 295.928 311.804 292.727C311.804 289.526 311.049 286.689 309.665 284.718C308.343 282.835 306.384 281.634 303.529 281.634C300.673 281.634 298.714 282.835 297.392 284.718C296.008 286.689 295.254 289.526 295.254 292.727C295.254 295.928 296.007 298.738 297.386 300.683ZM344.896 272.911V281.816H337.441V300C337.441 301.95 337.927 302.526 338.122 302.695C338.374 302.914 338.86 303.093 339.898 303.093C340.72 303.093 341.223 302.989 341.661 302.898C341.719 302.886 341.777 302.874 341.834 302.863L343.918 302.446L345.898 311.191L344.118 311.859C343.168 312.215 341.637 312.634 339.352 312.634C336.646 312.634 333.769 311.773 331.53 309.916C329.236 308.015 327.718 305.15 327.718 301.454V281.816H322.446V272.911H327.718V264.548H337.441V272.911H344.896ZM343.352 309.818C342.625 310.091 341.352 310.454 339.352 310.454C334.807 310.454 329.898 307.545 329.898 301.454V279.636H324.625V275.091H329.898V266.727H335.262V275.091H342.716V279.636H335.262V300C335.262 304.545 337.534 305.273 339.898 305.273C340.95 305.273 341.642 305.129 342.102 305.033C342.158 305.021 342.212 305.01 342.262 305L343.352 309.818ZM382.495 273.05L366.554 315.851C365.446 318.828 363.885 321.214 361.764 322.853C359.618 324.51 357.068 325.27 354.239 325.27C353.19 325.27 352.217 325.166 351.414 325.019C350.663 324.881 349.903 324.678 349.355 324.404L347.733 323.593L350.185 315.092L352.233 315.616C354.095 316.092 355.001 316.03 355.591 315.736C356.172 315.447 357.006 314.645 357.92 312.157L358.644 310.183L344.933 272.911H355.427L363.693 296.775L371.968 272.887L382.495 273.05ZM363.875 302.909H363.512L353.875 275.091H348.057L360.966 310.182L359.966 312.909C358.012 318.227 355.602 318.727 351.693 317.727L350.33 322.454C350.595 322.587 351.097 322.741 351.752 322.865C351.968 322.905 352.201 322.943 352.448 322.975C352.99 323.045 353.597 323.091 354.239 323.091C359.08 323.091 362.489 320.523 364.512 315.091L379.375 275.182L373.512 275.091L363.875 302.909ZM384.292 325.27V272.911H393.833V275.275C395.757 273.67 398.479 272.457 402.381 272.457C407.411 272.457 411.757 274.474 414.811 278.109C417.838 281.712 419.469 286.747 419.469 292.636C419.469 298.567 417.84 303.622 414.828 307.236C411.788 310.884 407.463 312.907 402.472 312.907C398.671 312.907 395.957 311.728 394.015 310.161V325.27H384.292ZM391.835 304.636H392.29C392.339 304.715 392.389 304.797 392.442 304.883C392.825 305.509 393.319 306.316 394.015 307.128C395.542 308.913 398.04 310.727 402.472 310.727C411.199 310.727 417.29 303.727 417.29 292.636C417.29 281.636 411.199 274.636 402.381 274.636C397.749 274.636 395.299 276.566 393.833 278.374C393.297 279.035 392.893 279.679 392.562 280.207C392.466 280.361 392.375 280.505 392.29 280.636H391.654V275.091H386.472V323.091H391.835V304.636ZM396.048 284.356C394.731 286.154 393.924 288.918 393.924 292.545C393.924 296.211 394.751 299.055 396.093 300.92C397.376 302.702 399.218 303.729 401.744 303.729C404.374 303.729 406.267 302.618 407.579 300.764C408.947 298.83 409.747 295.973 409.747 292.545C409.747 289.157 408.968 286.379 407.623 284.512C406.341 282.73 404.454 281.634 401.744 281.634C399.136 281.634 397.302 282.645 396.048 284.356ZM456.763 300.416L456.099 302.555C454.118 308.939 447.928 312.907 440.108 312.907C434.515 312.907 429.83 310.898 426.564 307.249C423.322 303.627 421.656 298.59 421.656 292.818C421.656 287.04 423.347 281.959 426.5 278.285C429.677 274.583 434.22 272.457 439.563 272.457C443.624 272.457 447.965 273.702 451.303 276.919C454.666 280.162 456.742 285.147 456.742 292.091V296.543H431.633C432.027 298.702 432.87 300.303 433.958 301.418C435.384 302.88 437.443 303.729 440.108 303.729C443.614 303.729 445.818 302.294 446.795 299.689L447.497 297.815L456.763 300.416ZM429.423 296.543C430.377 302.628 434.454 305.909 440.108 305.909C444.313 305.909 447.472 304.091 448.835 300.454L454.017 301.909C453.798 302.617 453.514 303.294 453.17 303.935C450.955 308.07 446.247 310.727 440.108 310.727C430.017 310.727 423.835 303.545 423.835 292.818C423.835 282.091 430.108 274.636 439.563 274.636C446.835 274.636 454.563 279.091 454.563 292.091V294.363H429.222C429.247 295.126 429.315 295.852 429.423 296.543ZM429.222 289.727H449.108C449.108 288.974 449.048 288.245 448.93 287.548C448.123 282.776 444.639 279.454 439.563 279.454C434.264 279.454 430.676 283.064 429.562 287.548C429.386 288.256 429.271 288.986 429.222 289.727ZM431.818 287.548H446.713C446.399 286.038 445.759 284.784 444.903 283.839C443.681 282.492 441.894 281.634 439.563 281.634C435.664 281.634 432.859 284.127 431.818 287.548ZM171.273 288H181.273C188.75 288 191.637 283.773 191.637 278.182C191.637 272.591 188.75 268.454 181.182 268.454H171.273V288ZM258.284 292.727C258.284 303.545 251.921 310.727 242.466 310.727C233.012 310.727 226.648 303.545 226.648 292.727C226.648 281.818 233.012 274.636 242.466 274.636C251.921 274.636 258.284 281.818 258.284 292.727ZM232.012 292.727C232.012 299.727 235.284 305.909 242.466 305.909C249.648 305.909 252.921 299.727 252.921 292.727C252.921 285.727 249.648 279.454 242.466 279.454C235.284 279.454 232.012 285.727 232.012 292.727ZM319.347 292.727C319.347 303.545 312.983 310.727 303.529 310.727C294.074 310.727 287.71 303.545 287.71 292.727C287.71 281.818 294.074 274.636 303.529 274.636C312.983 274.636 319.347 281.818 319.347 292.727ZM293.074 292.727C293.074 299.727 296.347 305.909 303.529 305.909C310.71 305.909 313.983 299.727 313.983 292.727C313.983 285.727 310.71 279.454 303.529 279.454C296.347 279.454 293.074 285.727 293.074 292.727ZM401.744 279.454C395.199 279.454 391.744 284.727 391.744 292.545C391.744 300.454 395.29 305.909 401.744 305.909C408.472 305.909 411.926 300 411.926 292.545C411.926 285.182 408.563 279.454 401.744 279.454Z" fill="white"/>
<path fill-rule="evenodd" clip-rule="evenodd" d="M469.457 315.179V264.275H501.725V273.634H479.452V285.002H499.634V294.361H479.452V315.179H469.457ZM477.273 313H471.637V266.454H499.546V271.454H477.273V287.182H497.455V292.182H477.273V313ZM513.827 275.911V299.909C513.827 301.998 514.474 303.529 515.392 304.516C516.3 305.492 517.614 306.093 519.284 306.093C522.312 306.093 526.105 303.85 526.105 298.727V275.911H535.827V315.179H526.105V312.842C523.922 314.553 521.059 315.634 517.557 315.634C513.797 315.634 510.349 314.393 507.859 311.677C505.388 308.981 504.105 305.098 504.105 300.273V275.911H513.827ZM526.105 309.867C526.854 309.031 527.46 308.09 527.921 307.091H528.284V313H533.648V278.091H528.284V298.727C528.284 305.273 523.284 308.273 519.284 308.273C514.83 308.273 511.648 305 511.648 299.909V278.091H506.284V300.273C506.284 309.182 511.012 313.454 517.557 313.454C521.344 313.454 524.194 312 526.105 309.867ZM563.565 315.179V291.182C563.565 288.832 562.92 287.232 562.007 286.24C561.115 285.271 559.741 284.634 557.744 284.634C555.674 284.634 554.04 285.321 552.924 286.465C551.808 287.609 551.015 289.411 551.015 292V315.179H541.292V275.911H550.833V277.989C551.108 277.783 551.395 277.588 551.694 277.405C553.776 276.124 556.323 275.457 559.29 275.457C563.265 275.457 566.851 276.669 569.43 279.386C571.997 282.09 573.288 285.99 573.288 290.818V315.179H563.565ZM550.833 280.917C550.13 281.688 549.557 282.572 549.108 283.545H548.654V278.091H543.472V313H548.835V292C548.835 285.909 552.608 282.454 557.744 282.454C562.722 282.454 565.744 285.704 565.744 291.182V313H571.108V290.818C571.108 281.909 566.358 277.636 559.29 277.636C555.465 277.636 552.692 278.88 550.833 280.917ZM604.273 283.636H604.727V266.454H610.091V313H604.909V307.636H604.273C604.224 307.715 604.174 307.797 604.121 307.883C603.772 308.453 603.331 309.173 602.73 309.911C601.221 311.762 598.703 313.727 594.091 313.727C585.364 313.727 579.273 306.727 579.273 295.636C579.273 284.636 585.364 277.636 594.182 277.636C598.628 277.636 601.063 279.414 602.548 281.155C603.176 281.891 603.633 282.621 604.001 283.207C604.097 283.361 604.187 283.505 604.273 283.636ZM602.548 278.126V264.275H612.271V315.179H602.73V313.011C602.703 313.034 602.676 313.056 602.648 313.079C600.699 314.687 597.958 315.907 594.091 315.907C589.099 315.907 584.775 313.884 581.735 310.236C578.723 306.622 577.093 301.567 577.093 295.636C577.093 289.747 578.725 284.712 581.752 281.109C584.806 277.474 589.152 275.457 594.182 275.457C597.962 275.457 600.636 276.596 602.548 278.126ZM588.984 303.764C590.296 305.618 592.189 306.729 594.818 306.729C597.345 306.729 599.187 305.702 600.47 303.92C601.812 302.055 602.639 299.211 602.639 295.545C602.639 291.918 601.832 289.154 600.515 287.356C599.261 285.645 597.427 284.634 594.818 284.634C592.109 284.634 590.222 285.73 588.939 287.512C587.595 289.379 586.816 292.157 586.816 295.545C586.816 298.973 587.615 301.83 588.984 303.764ZM584.637 295.545C584.637 303 588.091 308.909 594.818 308.909C601.273 308.909 604.818 303.454 604.818 295.545C604.818 287.727 601.364 282.454 594.818 282.454C588 282.454 584.637 288.182 584.637 295.545Z" fill="white"/>
<path d="M428.687 110.655L415.197 109H357.698L356.863 116.351L368.821 120.381V173H370.821V118.944L359.033 114.972L359.483 111H415.075L427.41 112.513L442.001 139.939L427.41 162.983C427.41 162.983 410.759 167.239 404.382 168.752H389.856V173H391.856V170.752H404.616L404.843 170.698C408.048 169.937 413.82 168.491 418.777 167.239C421.259 166.612 423.541 166.033 425.202 165.61C426.033 165.398 426.709 165.226 427.177 165.107L428.675 164.724L444.313 140.026L428.687 110.655Z" fill="white"/>
<path d="M391.856 197H389.856V205.887L401.612 209.953L401.322 213.925L380.419 213.642L359.451 213.925L359 209.953L370.821 205.887V197H368.821V204.46L356.832 208.584L357.668 215.95L380.419 215.642L403.179 215.951L403.718 208.566L391.856 204.462V197Z" fill="white"/>
<path fill-rule="evenodd" clip-rule="evenodd" d="M402.03 163.109L389.888 160.839V118.976L402.03 117.399L420.776 129.505L426.573 139.939L420.776 150.31L402.03 163.109ZM419.259 148.924L401.585 160.991L391.888 159.178V120.733L401.561 119.477L419.27 130.913L424.283 139.936L419.259 148.924Z" fill="white"/>
<path d="M321.355 193V191.85L325.676 187.12C326.184 186.566 326.601 186.084 326.929 185.675C327.257 185.262 327.5 184.874 327.658 184.512C327.82 184.145 327.901 183.762 327.901 183.361C327.901 182.901 327.79 182.502 327.569 182.166C327.351 181.829 327.053 181.569 326.674 181.386C326.294 181.203 325.868 181.111 325.395 181.111C324.892 181.111 324.453 181.216 324.078 181.424C323.708 181.629 323.42 181.917 323.216 182.287C323.015 182.658 322.915 183.093 322.915 183.591H321.407C321.407 182.824 321.583 182.151 321.937 181.571C322.291 180.992 322.772 180.54 323.382 180.216C323.995 179.892 324.684 179.73 325.446 179.73C326.213 179.73 326.893 179.892 327.485 180.216C328.078 180.54 328.542 180.977 328.879 181.527C329.216 182.076 329.384 182.688 329.384 183.361C329.384 183.843 329.297 184.314 329.122 184.774C328.951 185.23 328.653 185.739 328.227 186.301C327.805 186.86 327.219 187.542 326.469 188.347L323.529 191.492V191.594H329.614V193H321.355Z" fill="white"/>
<path d="M336.524 193.179C335.561 193.179 334.74 192.917 334.063 192.393C333.385 191.865 332.868 191.1 332.51 190.098C332.152 189.093 331.973 187.878 331.973 186.455C331.973 185.04 332.152 183.832 332.51 182.831C332.872 181.825 333.392 181.058 334.069 180.529C334.751 179.997 335.569 179.73 336.524 179.73C337.478 179.73 338.294 179.997 338.972 180.529C339.654 181.058 340.174 181.825 340.532 182.831C340.894 183.832 341.075 185.04 341.075 186.455C341.075 187.878 340.896 189.093 340.538 190.098C340.18 191.1 339.662 191.865 338.985 192.393C338.307 192.917 337.487 193.179 336.524 193.179ZM336.524 191.773C337.478 191.773 338.22 191.313 338.748 190.392C339.277 189.472 339.541 188.159 339.541 186.455C339.541 185.321 339.419 184.356 339.176 183.559C338.938 182.762 338.593 182.155 338.141 181.738C337.694 181.32 337.154 181.111 336.524 181.111C335.578 181.111 334.838 181.578 334.306 182.511C333.773 183.44 333.507 184.755 333.507 186.455C333.507 187.588 333.626 188.551 333.865 189.344C334.103 190.137 334.446 190.74 334.894 191.153C335.346 191.566 335.889 191.773 336.524 191.773Z" fill="white"/>
<path d="M343.504 193V191.85L347.825 187.12C348.332 186.566 348.75 186.084 349.078 185.675C349.406 185.262 349.649 184.874 349.806 184.512C349.968 184.145 350.049 183.762 350.049 183.361C350.049 182.901 349.939 182.502 349.717 182.166C349.5 181.829 349.201 181.569 348.822 181.386C348.443 181.203 348.017 181.111 347.544 181.111C347.041 181.111 346.602 181.216 346.227 181.424C345.856 181.629 345.569 181.917 345.364 182.287C345.164 182.658 345.064 183.093 345.064 183.591H343.555C343.555 182.824 343.732 182.151 344.086 181.571C344.439 180.992 344.921 180.54 345.53 180.216C346.144 179.892 346.832 179.73 347.595 179.73C348.362 179.73 349.042 179.892 349.634 180.216C350.226 180.54 350.691 180.977 351.027 181.527C351.364 182.076 351.532 182.688 351.532 183.361C351.532 183.843 351.445 184.314 351.27 184.774C351.1 185.23 350.801 185.739 350.375 186.301C349.953 186.86 349.368 187.542 348.618 188.347L345.677 191.492V191.594H351.762V193H343.504Z" fill="white"/>
<path d="M358.672 193.179C357.709 193.179 356.889 192.917 356.211 192.393C355.534 191.865 355.016 191.1 354.658 190.098C354.3 189.093 354.121 187.878 354.121 186.455C354.121 185.04 354.3 183.832 354.658 182.831C355.02 181.825 355.54 181.058 356.218 180.529C356.9 179.997 357.718 179.73 358.672 179.73C359.627 179.73 360.443 179.997 361.12 180.529C361.802 181.058 362.322 181.825 362.68 182.831C363.042 183.832 363.223 185.04 363.223 186.455C363.223 187.878 363.044 189.093 362.686 190.098C362.328 191.1 361.811 191.865 361.133 192.393C360.456 192.917 359.635 193.179 358.672 193.179ZM358.672 191.773C359.627 191.773 360.368 191.313 360.897 190.392C361.425 189.472 361.689 188.159 361.689 186.455C361.689 185.321 361.568 184.356 361.325 183.559C361.086 182.762 360.741 182.155 360.289 181.738C359.842 181.32 359.303 181.111 358.672 181.111C357.726 181.111 356.987 181.578 356.454 182.511C355.922 183.44 355.655 184.755 355.655 186.455C355.655 187.588 355.775 188.551 356.013 189.344C356.252 190.137 356.595 190.74 357.042 191.153C357.494 191.566 358.037 191.773 358.672 191.773Z" fill="white"/>
<path d="M374.985 193H370.945V179.909H375.164C376.434 179.909 377.52 180.172 378.424 180.696C379.327 181.216 380.02 181.963 380.501 182.939C380.983 183.911 381.223 185.074 381.223 186.429C381.223 187.793 380.98 188.967 380.495 189.951C380.009 190.931 379.301 191.686 378.373 192.214C377.444 192.738 376.314 193 374.985 193ZM372.53 191.594H374.882C375.965 191.594 376.862 191.385 377.574 190.968C378.285 190.55 378.816 189.956 379.165 189.184C379.515 188.413 379.689 187.495 379.689 186.429C379.689 185.373 379.517 184.463 379.172 183.7C378.826 182.933 378.311 182.345 377.625 181.936C376.939 181.522 376.084 181.316 375.061 181.316H372.53V191.594Z" fill="white"/>
<path d="M387.794 193.205C386.848 193.205 386.032 192.996 385.346 192.578C384.664 192.157 384.138 191.569 383.767 190.814C383.401 190.056 383.218 189.174 383.218 188.168C383.218 187.162 383.401 186.276 383.767 185.509C384.138 184.738 384.654 184.137 385.314 183.706C385.979 183.272 386.755 183.054 387.641 183.054C388.152 183.054 388.657 183.14 389.156 183.31C389.654 183.48 390.108 183.757 390.517 184.141C390.926 184.52 391.252 185.023 391.495 185.65C391.738 186.276 391.86 187.047 391.86 187.963V188.603H384.292V187.299H390.326C390.326 186.745 390.215 186.25 389.993 185.816C389.776 185.381 389.465 185.038 389.06 184.787C388.659 184.535 388.186 184.409 387.641 184.409C387.04 184.409 386.52 184.559 386.081 184.857C385.647 185.151 385.312 185.534 385.078 186.007C384.843 186.48 384.726 186.988 384.726 187.529V188.398C384.726 189.14 384.854 189.768 385.11 190.284C385.37 190.795 385.73 191.185 386.19 191.453C386.65 191.718 387.185 191.85 387.794 191.85C388.191 191.85 388.549 191.794 388.868 191.684C389.192 191.569 389.471 191.398 389.706 191.172C389.94 190.942 390.121 190.657 390.249 190.316L391.706 190.725C391.553 191.219 391.295 191.654 390.933 192.029C390.571 192.4 390.123 192.689 389.591 192.898C389.058 193.103 388.459 193.205 387.794 193.205Z" fill="white"/>
<path d="M394.154 193V183.182H395.612V184.716H395.74C395.944 184.192 396.275 183.785 396.73 183.495C397.186 183.201 397.734 183.054 398.373 183.054C399.021 183.054 399.56 183.201 399.99 183.495C400.425 183.785 400.764 184.192 401.007 184.716H401.109C401.36 184.209 401.738 183.806 402.24 183.508C402.743 183.206 403.346 183.054 404.049 183.054C404.927 183.054 405.645 183.329 406.203 183.879C406.762 184.424 407.041 185.275 407.041 186.429V193H405.532V186.429C405.532 185.705 405.334 185.187 404.938 184.876C404.542 184.565 404.075 184.409 403.538 184.409C402.848 184.409 402.313 184.618 401.934 185.036C401.554 185.449 401.365 185.973 401.365 186.608V193H399.831V186.276C399.831 185.718 399.65 185.268 399.287 184.927C398.925 184.582 398.458 184.409 397.887 184.409C397.495 184.409 397.129 184.514 396.788 184.723C396.451 184.931 396.179 185.221 395.97 185.592C395.765 185.958 395.663 186.382 395.663 186.864V193H394.154Z" fill="white"/>
<path d="M413.788 193.205C412.901 193.205 412.124 192.994 411.455 192.572C410.79 192.15 410.27 191.56 409.895 190.801C409.524 190.043 409.339 189.157 409.339 188.142C409.339 187.12 409.524 186.227 409.895 185.464C410.27 184.701 410.79 184.109 411.455 183.687C412.124 183.265 412.901 183.054 413.788 183.054C414.674 183.054 415.45 183.265 416.114 183.687C416.783 184.109 417.303 184.701 417.674 185.464C418.049 186.227 418.237 187.12 418.237 188.142C418.237 189.157 418.049 190.043 417.674 190.801C417.303 191.56 416.783 192.15 416.114 192.572C415.45 192.994 414.674 193.205 413.788 193.205ZM413.788 191.85C414.461 191.85 415.015 191.677 415.45 191.332C415.884 190.987 416.206 190.533 416.415 189.971C416.624 189.408 416.728 188.799 416.728 188.142C416.728 187.486 416.624 186.875 416.415 186.308C416.206 185.741 415.884 185.283 415.45 184.934C415.015 184.584 414.461 184.409 413.788 184.409C413.114 184.409 412.56 184.584 412.126 184.934C411.691 185.283 411.369 185.741 411.161 186.308C410.952 186.875 410.847 187.486 410.847 188.142C410.847 188.799 410.952 189.408 411.161 189.971C411.369 190.533 411.691 190.987 412.126 191.332C412.56 191.677 413.114 191.85 413.788 191.85Z" fill="white"/>
<path d="M428.184 193L424.605 179.909H426.215L428.951 190.571H429.079L431.866 179.909H433.656L436.443 190.571H436.57L439.306 179.909H440.917L437.338 193H435.701L432.812 182.569H432.71L429.82 193H428.184Z" fill="white"/>
<path d="M445.89 193.205C444.944 193.205 444.128 192.996 443.442 192.578C442.76 192.157 442.234 191.569 441.863 190.814C441.497 190.056 441.313 189.174 441.313 188.168C441.313 187.162 441.497 186.276 441.863 185.509C442.234 184.738 442.749 184.137 443.41 183.706C444.075 183.272 444.85 183.054 445.737 183.054C446.248 183.054 446.753 183.14 447.252 183.31C447.75 183.48 448.204 183.757 448.613 184.141C449.022 184.52 449.348 185.023 449.591 185.65C449.834 186.276 449.955 187.047 449.955 187.963V188.603H442.387V187.299H448.421C448.421 186.745 448.311 186.25 448.089 185.816C447.872 185.381 447.561 185.038 447.156 184.787C446.755 184.535 446.282 184.409 445.737 184.409C445.136 184.409 444.616 184.559 444.177 184.857C443.742 185.151 443.408 185.534 443.173 186.007C442.939 186.48 442.822 186.988 442.822 187.529V188.398C442.822 189.14 442.95 189.768 443.205 190.284C443.465 190.795 443.825 191.185 444.286 191.453C444.746 191.718 445.281 191.85 445.89 191.85C446.286 191.85 446.644 191.794 446.964 191.684C447.288 191.569 447.567 191.398 447.801 191.172C448.036 190.942 448.217 190.657 448.345 190.316L449.802 190.725C449.649 191.219 449.391 191.654 449.029 192.029C448.666 192.4 448.219 192.689 447.686 192.898C447.154 193.103 446.555 193.205 445.89 193.205Z" fill="white"/>
<path d="M456.367 193.205C455.421 193.205 454.605 192.996 453.919 192.578C453.237 192.157 452.71 191.569 452.34 190.814C451.973 190.056 451.79 189.174 451.79 188.168C451.79 187.162 451.973 186.276 452.34 185.509C452.71 184.738 453.226 184.137 453.887 183.706C454.551 183.272 455.327 183.054 456.213 183.054C456.725 183.054 457.23 183.14 457.728 183.31C458.227 183.48 458.681 183.757 459.09 184.141C459.499 184.52 459.825 185.023 460.068 185.65C460.311 186.276 460.432 187.047 460.432 187.963V188.603H452.864V187.299H458.898C458.898 186.745 458.787 186.25 458.566 185.816C458.348 185.381 458.037 185.038 457.632 184.787C457.232 184.535 456.759 184.409 456.213 184.409C455.612 184.409 455.092 184.559 454.654 184.857C454.219 185.151 453.884 185.534 453.65 186.007C453.416 186.48 453.298 186.988 453.298 187.529V188.398C453.298 189.14 453.426 189.768 453.682 190.284C453.942 190.795 454.302 191.185 454.762 191.453C455.222 191.718 455.757 191.85 456.367 191.85C456.763 191.85 457.121 191.794 457.441 191.684C457.764 191.569 458.044 191.398 458.278 191.172C458.512 190.942 458.693 190.657 458.821 190.316L460.279 190.725C460.125 191.219 459.867 191.654 459.505 192.029C459.143 192.4 458.695 192.689 458.163 192.898C457.63 193.103 457.031 193.205 456.367 193.205Z" fill="white"/>
<path d="M464.133 189.421L464.107 187.554H464.414L468.71 183.182H470.576L465.999 187.81H465.872L464.133 189.421ZM462.727 193V179.909H464.235V193H462.727ZM468.965 193L465.13 188.142L466.204 187.094L470.883 193H468.965Z" fill="white"/>
</svg>
