<?xml version="1.0" encoding="UTF-8" standalone="no"?>
<svg
   width="170"
   height="107"
   viewBox="0 0 170 107"
   fill="none"
   version="1.1"
   id="svg2"
   sodipodi:docname="tud.svg"
   inkscape:version="1.4 (e7c3feb1, 2024-10-09)"
   xmlns:inkscape="http://www.inkscape.org/namespaces/inkscape"
   xmlns:sodipodi="http://sodipodi.sourceforge.net/DTD/sodipodi-0.dtd"
   xmlns="http://www.w3.org/2000/svg"
   xmlns:svg="http://www.w3.org/2000/svg">
  <defs
     id="defs2" />
  <sodipodi:namedview
     id="namedview2"
     pagecolor="#ffffff"
     bordercolor="#000000"
     borderopacity="0.25"
     inkscape:showpageshadow="2"
     inkscape:pageopacity="0.0"
     inkscape:pagecheckerboard="0"
     inkscape:deskcolor="#d1d1d1"
     inkscape:zoom="2.3219723"
     inkscape:cx="116.49579"
     inkscape:cy="72.352285"
     inkscape:window-width="1800"
     inkscape:window-height="1035"
     inkscape:window-x="0"
     inkscape:window-y="44"
     inkscape:window-maximized="1"
     inkscape:current-layer="svg2" />
  <path
     d="m 56.660924,73.286215 c -0.502922,-0.224014 -1.341125,-0.448028 -2.235209,-0.672042 0.05588,0.50399 0.111761,0.9521 0.167641,1.344084 0.726443,-0.224014 1.397005,-0.448028 2.067568,-0.672042 z m -2.235209,-1.12007 c 1.117605,0.279976 2.291089,0.615997 2.738131,0.896056 0.391162,-0.168052 0.782323,-0.336021 1.173485,-0.504073 -0.670563,-0.391983 -2.34697,-0.896056 -3.855736,-1.344084 -0.05588,0.336021 -0.05588,0.672042 -0.05588,0.952101 z m 2.849892,1.344084 c -0.05588,0 -0.05588,0 0,0 -1.285246,0.504072 -2.514611,0.840093 -3.743975,1.120152 h -0.05588 c -1.117604,0.224014 -2.235209,0.391983 -3.352813,0.448027 h -0.05588 c -3.688095,0.224014 -7.152669,-0.504072 -9.77904,-1.680186 l -0.11176,-0.05596 c 0,0 -0.05588,0 -0.05588,-0.05604 -4.414538,-2.072171 -6.426226,-5.712603 -2.067569,-8.624866 -0.447041,-0.728087 -1.005844,-1.456173 -1.620526,-2.18426 -0.167641,-0.224014 -0.391162,-0.504072 -0.558802,-0.728086 -0.335282,0.896138 -0.391162,1.512217 0.16764,2.296266 0.05588,0.112007 0.05588,0.168052 0,0.280059 l -3.073412,3.696312 c -0.05588,0.112007 -0.223521,0.112007 -0.279401,0 -15.422975,-16.969756 2.179329,-42.676384 23.413814,-35.283677 0.11176,0.05604 0.167641,0.168051 0.111678,0.280058 l -3.352731,5.544551 c -0.05588,0.05604 -0.111761,0.112007 -0.223521,0.112007 -1.061724,-0.167969 -1.676407,-0.112007 -2.123449,0.280059 0.949964,0.168051 1.955808,0.392065 2.961652,0.784049 0.894084,-1.008063 1.899928,-1.960164 2.905772,-2.800257 0,0 0.05588,0 0.05588,-0.05604 0.05588,-0.05596 0.111761,-0.05596 0.167641,0 0.05588,0 0.11176,0.05604 0.11176,0.112089 v 0.05596 l 1.899928,5.712602 c 0,0.05604 0,0.112007 0,0.168052 0,0.05596 -0.05588,0.112007 -0.111761,0.112007 -0.05588,0.05596 -0.11176,0.05596 -0.16764,0.112007 0.391161,1.176114 3.129292,9.464959 3.967496,11.705181 0.279401,0.672124 0.838203,1.960245 0.838203,2.688332 0,0.728004 -0.502922,1.12007 -1.564646,1.176114 -0.558802,0.503991 -0.614683,0.728087 -0.335282,1.064108 0.558721,0.784048 0.279402,1.120069 -0.391161,1.624142 0.614682,0.504072 0.502922,1.400128 0.167641,1.400128 -0.447042,0 -0.614683,0.168052 -0.894084,0.504073 1.955726,1.904201 0.335281,3.584387 -2.291089,4.144422 -0.838204,0.168052 -1.788167,0.280059 -2.794011,0.224014 0,0 0,0 0,0.05604 -0.335282,1.12007 -0.558803,2.184177 -0.614683,3.136277 1.732287,0.504073 3.799855,1.120152 4.358658,1.56818 l 0.05588,0.05604 c 0.05588,0.05596 0.05588,0.112007 0.05588,0.167969 0,0.05604 -0.05588,0.112007 -0.11176,0.112007 0,0 -0.05588,0 -0.05588,0.05605 -0.447041,0.224014 -0.949963,0.448028 -1.452885,0.672042 z M 39.002773,65.893425 v 0.05605 c 0.111761,0.504072 0.167641,1.008063 0.167641,1.56818 1.229365,-0.840094 0.894084,-2.240222 0.558802,-2.912346 -0.335281,0.224014 -0.614682,0.392066 -0.949964,0.61608 0.05588,0.224013 0.111761,0.448027 0.223521,0.672041 z m -0.335281,0.392066 c -0.894084,0.560035 -1.285245,1.176114 -1.341125,1.848156 0.558802,-0.05596 1.061724,-0.224014 1.397005,-0.391983 0.05588,-0.504073 0,-1.008145 -0.05588,-1.456173 z m -1.397006,2.240222 c 0,0.280058 0.111761,0.504072 0.223521,0.784131 2.794011,-0.05604 4.86158,-2.800339 3.352814,-5.544633 -0.279401,0.224014 -0.558803,0.448028 -0.838204,0.616079 0.558803,1.064107 1.061725,3.752357 -2.738131,4.144423 z m 0.502922,1.176114 c 0.223521,0.336021 0.502922,0.616079 0.838204,0.896138 4.079256,-1.176114 4.917459,-4.592533 3.296933,-7.672848 -0.223521,0.224014 -0.447042,0.392066 -0.726443,0.61608 1.732287,2.968308 -0.502922,5.936616 -3.408694,6.16063 z m 1.229365,1.176114 c 0.391162,0.224096 0.838204,0.44811 1.285245,0.61608 5.029221,-2.52028 3.799856,-7.72881 2.682251,-9.521004 -0.223521,0.224014 -0.502922,0.44811 -0.726443,0.672124 1.676407,3.248284 0.894084,6.888717 -3.241053,8.2328 z M 54.649236,50.49185 c 1.732287,-0.672042 3.911616,-1.008145 5.588022,-0.504073 -0.726442,-2.240222 -1.508766,-4.536488 -1.955807,-5.880572 0,2.240222 -1.061725,4.368437 -3.241053,5.264493 -0.111761,0.392065 -0.223521,0.784131 -0.391162,1.120152 z m -0.614682,0.33602 c 0,0 0,-0.05596 0.05588,-0.05596 0.279401,-0.44811 0.502922,-0.9521 0.614682,-1.512217 v -0.05596 c 0.111761,-0.448028 0.111761,-0.9521 0.111761,-1.456173 v -0.05604 c 0,-0.336021 -0.05588,-0.728005 -0.167641,-1.12007 -0.279401,0.280058 -0.502922,0.560035 -0.726443,0.896056 0.111761,1.288203 -0.167641,2.688332 -1.564646,3.920408 0.05588,0.392066 0.05588,0.784131 0,1.176197 0.726443,-0.560117 1.285245,-1.120152 1.676407,-1.736232 z M 43.752592,62.701103 c 0.111761,-0.448028 0.335282,-0.784049 0.670563,-1.12007 -0.167641,-0.280058 -0.223521,-0.616079 -0.279401,-0.896138 -0.279401,0.336021 -0.558802,0.61608 -0.894084,0.952101 0.167641,0.336021 0.335282,0.672124 0.502922,1.064107 z m 0.949964,-1.344084 c 0.223521,-0.168051 0.502922,-0.280058 0.782323,-0.392065 -0.16764,-0.392066 -0.279401,-0.896138 -0.335281,-1.456173 -0.223521,0.280059 -0.502922,0.560035 -0.726443,0.840093 0.05588,0.336021 0.167641,0.672042 0.279401,1.008145 z m -9.499638,1.512136 c 0,-0.448028 0.167641,-0.952101 0.391162,-1.512136 -1.005844,-1.456172 -1.899928,-3.360373 -2.179329,-6.160712 v -0.05596 c 0,-0.280059 -0.05588,-0.560035 -0.05588,-0.840094 v -0.05604 c 0,-0.112007 0,-0.16797 0,-0.279977 -0.05588,-0.896138 0,-1.848238 0.16764,-2.744294 v -0.05604 c 0.05588,-0.279976 0.111761,-0.560035 0.167641,-0.840093 v -0.05596 c 0.614682,-2.576243 1.899928,-5.040561 3.743975,-7.056769 l 0.05588,-0.05596 c 0.558802,-0.560117 1.173485,-1.120152 1.788167,-1.624225 1.005844,-0.784049 2.123449,-1.400128 3.352814,-1.848156 0,0 0,0 0.05588,0 1.508766,-0.560035 3.185173,-0.896138 4.97334,-0.896138 0.11176,0 0.223521,0 0.335281,0 0.670563,0 1.341126,0.05604 2.067569,0.168052 0.335281,-0.392066 0.670562,-0.61608 1.173484,-0.672042 -0.05588,0 -0.05588,0 -0.11176,-0.05604 -0.894084,-0.224014 -1.732287,-0.392065 -2.626371,-0.448028 -4.582178,-0.280058 -9.052596,1.73615 -12.070128,5.096523 -0.614682,0.672042 -1.173485,1.400129 -1.676407,2.18426 0,0 0,0 0,0.05596 -0.447042,0.728086 -0.838203,1.512135 -1.173484,2.296266 -0.335282,0.784049 -0.614683,1.624143 -0.782324,2.464236 -0.782323,3.304329 -0.502922,6.944761 1.285246,10.641156 0.16764,0.784049 0.614682,1.568098 1.117604,2.352229 z m 0.726443,-1.680187 0.05588,0.05596 c 0.167641,0.224096 0.279401,0.392066 0.447042,0.61608 0.782323,-0.61608 1.508766,-1.232077 2.235209,-1.904201 -0.335281,-0.167969 -0.670563,-0.336021 -0.949964,-0.50399 -0.558802,0.560035 -0.894083,0.784049 -1.844047,0.784049 -0.167641,0 -0.223521,-0.112007 -0.167641,-0.280059 0.167641,-0.50399 0,-1.792194 0,-2.464236 -0.05588,-0.112007 -0.167641,-0.280058 -0.223521,-0.392065 -0.223521,0.05604 -0.558802,0.05604 -0.949964,0.05604 -0.223521,0 -0.279401,-0.168051 -0.11176,-0.336021 0.614682,-0.560117 0.502922,-1.344166 0.670563,-2.408273 -0.335282,0.168052 -1.005844,0.61608 -1.229365,0.784049 0.223521,2.744294 1.117604,4.592533 2.067568,5.992661 z m 1.955808,2.576243 C 46.043682,58.276622 49.284735,48.363635 56.605044,42.090997 L 55.54332,41.866983 c -0.223521,-0.05604 -0.223521,-0.05604 -0.167723,-0.280058 L 55.54332,40.07479 c -6.817388,6.888716 -10.561363,18.201832 -18.161073,23.018379 0.16764,0.224014 0.335281,0.448028 0.502922,0.672042 z M 56.828565,38.786586 c -0.335282,0.280059 -0.614765,0.560117 -0.894166,0.840094 l -0.223439,1.9042 1.229365,0.280059 c 0.223521,-0.168052 0.447042,-0.392066 0.726443,-0.560035 l -0.167641,-0.560117 c -0.335281,0.112007 -0.726442,-0.05596 -0.894083,-0.448028 -0.111761,-0.336021 0.05588,-0.728086 0.446959,-0.896056 z m -17.714031,21.28223 c -0.782323,0.728086 -1.564647,1.456173 -2.45873,2.128215 l 0.05588,0.05604 c 0.111761,0.168052 0.279401,0.336021 0.391162,0.504073 4.023376,-2.52028 6.929147,-6.888717 9.834919,-11.48125 2.51461,-4.032415 5.196861,-8.512859 8.605555,-11.873232 l 0.05588,-0.05596 c 0.335281,-0.336021 0.726443,-0.672124 1.061724,-1.008145 l -0.279401,-0.840093 c -1.341125,1.120152 -2.51461,2.352228 -3.688095,3.696394 0,0 0,0.05604 -0.05588,0.05604 -2.179329,2.632287 -4.023376,5.600595 -5.755663,8.344808 -0.949964,1.456172 -1.844048,2.912345 -2.849892,4.368518 0,0 0,0.05596 -0.05588,0.05596 -0.391161,0.560117 -0.838203,1.120152 -1.229365,1.736231 0,0 0,0.05596 -0.05588,0.05596 -0.279401,0.392066 -0.614682,0.784131 -0.949964,1.176115 0,0 0,0.05604 -0.05588,0.05604 -0.447042,0.560035 -0.949964,1.12007 -1.452886,1.680187 0,0 0,0.05596 -0.05588,0.05596 -0.223521,0.392065 -0.670563,0.840093 -1.061724,1.288121 z m -0.167641,-0.391983 c 0.279401,-0.280059 0.614683,-0.61608 0.894084,-0.896138 -1.844048,-0.279977 -2.905772,-1.176115 -3.296934,-2.296185 -0.279401,0.224014 -0.447041,0.391984 -0.670562,0.503991 0.05588,0.112007 0.11176,0.224014 0.16764,0.336021 0,0 0.05588,0.05604 0.05588,0.112089 0.726443,1.176114 1.564646,1.568098 2.849892,2.240222 z m 1.173485,-1.288122 c 0.279401,-0.336103 0.614682,-0.672124 0.894083,-1.008145 -3.408693,0.952101 -5.588022,-4.424481 0.279401,-6.608658 -0.447041,-0.168052 -0.838203,-0.280058 -1.229364,-0.504072 -3.799856,1.680186 -5.085101,7.448751 0.05588,8.120875 z m 1.452886,-1.680187 c 0.279401,-0.392065 0.614682,-0.728086 0.894083,-1.120152 0.111761,-1.008062 -0.11176,-2.128214 -1.397005,-2.688249 -0.335282,0.167969 -0.670563,0.391983 -0.949964,0.672042 1.844047,0.280058 1.788167,2.632287 0.11176,2.632287 -1.397005,0 -1.341125,-1.736149 -0.726443,-2.576243 0,0 0,-0.05604 0.05588,-0.05604 0.279401,-0.392066 0.726442,-0.728087 1.341125,-1.064108 0,0 0.05588,0 0.05588,-0.05604 0.447042,-0.224014 1.005844,-0.391984 1.620527,-0.560035 h 0.05588 c 0.391161,-0.112007 0.782323,-0.16797 1.285245,-0.224014 -0.335281,-0.168052 -0.782323,-0.280059 -1.173485,-0.448028 -0.279401,-0.112007 -0.558802,-0.168052 -0.894083,-0.280059 -6.202705,2.016208 -3.688095,7.560841 -0.279401,5.768647 z m 1.285245,-1.736231 c 0.279401,-0.391983 0.558802,-0.784049 0.838203,-1.176114 -0.05588,-0.392066 -0.502922,-1.12007 -1.005844,-1.512136 -0.391161,0.112007 -0.782323,0.224014 -1.173485,0.392066 1.005844,0.560035 1.341126,1.456091 1.341126,2.296184 z m 1.117604,-1.56818 c 0.279401,-0.448028 0.558802,-0.840093 0.838204,-1.288121 -0.05588,-0.05596 -0.167641,-0.112007 -0.223521,-0.16797 -0.391162,0.05596 -0.894084,0.112007 -1.452886,0.224014 0.391161,0.391984 0.670563,0.840094 0.838203,1.232077 z m 1.061724,-1.568098 c 0.279402,-0.44811 0.558803,-0.896138 0.894084,-1.344165 -1.117604,-0.280059 -3.073412,-0.112007 -4.358657,-0.112007 0.447041,0.167969 0.894083,0.280058 1.341125,0.448027 0.670563,0.224014 1.285245,0.448028 1.844047,0.784049 0,0 0.05588,8.2e-5 0.05588,0.05604 0.05588,0.05604 0.16764,0.112007 0.22352,0.168051 z m 1.117605,-1.736231 c 0.223521,-0.336021 0.391162,-0.672042 0.614682,-0.9521 -1.229364,-0.391984 -3.185172,-0.279977 -4.414537,-0.279977 -1.452886,0 -3.017532,0.05596 -4.191017,-0.280058 0.614682,0.560035 1.397006,1.008063 2.235209,1.344166 0.614682,0.112007 2.123448,0 2.62637,0 1.117605,0 2.34697,0 3.129293,0.167969 z m 0.838203,-1.288121 c 0.167641,-0.280059 0.335282,-0.560035 0.502922,-0.840094 -1.564646,-0.616079 -4.079256,-0.392065 -5.699783,-0.392065 -1.844047,0 -3.743975,-0.112007 -4.973339,-1.12007 0.16764,0.616079 0.447041,1.12007 0.782323,1.56818 1.788167,0.784049 5.252741,0.391983 7.320309,0.448028 0.782323,0.05596 1.508766,0.112007 2.067568,0.336021 z m 0.726443,-1.176115 c 0.167641,-0.280058 0.335282,-0.560035 0.558802,-0.840093 -0.614682,-0.224014 -1.229364,-0.336021 -1.844047,-0.448028 h -0.05588 c -1.564646,-0.224014 -3.129293,-0.168052 -4.805699,-0.168052 -1.061725,0 -2.011688,-0.05596 -2.905772,-0.279976 h -0.05588 c -0.726443,-0.224096 -1.341126,-0.616079 -1.844048,-1.344166 -0.05588,0.05596 -0.11176,0.112007 -0.16764,0.224014 0,0.336021 0.05588,0.61608 0.11176,0.9521 1.005844,1.344166 2.961652,1.512136 5.140981,1.512136 1.676406,-0.05596 4.246897,-0.279977 5.867423,0.392065 z m 4.86158,-6.832754 c 0.16764,-0.224014 0.391161,-0.448028 0.558802,-0.672042 -1.061724,-0.336021 -2.067568,-0.616079 -3.073412,-0.728086 h -0.05588 c -0.447041,-0.05596 -0.894083,-0.112007 -1.341125,-0.16797 0.167641,0.224014 0.279401,0.615997 0.279401,1.064108 0.223521,0.224014 0.391162,0.50399 0.391162,0.784048 0.279401,-0.167969 0.670562,-0.224014 1.117604,-0.112007 0.335282,-0.784048 1.452886,-0.9521 2.123449,-0.168051 z m -22.128569,23.80251 3.632215,-2.744294 c -0.167641,-0.336021 -0.335282,-0.61608 -0.502922,-0.952101 l -3.073413,1.848239 c -0.223521,0.112007 -0.447042,-0.224014 -0.223521,-0.336021 l 3.073413,-1.904201 C 33.24711,60.236868 33.13535,60.012854 33.023589,59.732795 l -4.191016,1.960245 c 0.502922,1.008063 1.061724,1.960164 1.620526,2.912264 z m 3.855735,-2.408273 -3.632214,2.744294 c 0.614682,0.896138 1.285245,1.792194 2.067568,2.688332 L 35.59408,64.213239 C 35.426439,63.933262 35.202918,63.709248 35.035277,63.42919 l -2.738131,2.688249 c -0.16764,0.168052 -0.447041,-0.112007 -0.279401,-0.279976 l 2.794011,-2.744294 c -0.16764,-0.280059 -0.335281,-0.61608 -0.502922,-0.896138 z m -5.532142,-0.840012 4.191017,-1.960245 c -0.11176,-0.280058 -0.223521,-0.560035 -0.279401,-0.840093 l -3.408694,1.008145 c -0.279401,0.05596 -0.391161,-0.336103 -0.11176,-0.392066 l 3.408694,-1.008145 c -0.111761,-0.391983 -0.223521,-0.728004 -0.279402,-1.12007 l -4.526298,0.952101 c 0.167641,1.176114 0.558802,2.240222 1.005844,3.360373 z m -1.173484,-3.696394 4.526298,-0.952101 c -0.05588,-0.336103 -0.111761,-0.672124 -0.167641,-0.9521 l -3.632215,0.336021 c -0.279401,0 -0.279401,-0.392066 -0.05588,-0.392066 l 3.632215,-0.33602 c -0.05588,-0.336021 -0.05588,-0.728087 -0.111761,-1.064108 l -4.638058,-0.112007 c 0.05588,1.12007 0.223521,2.296266 0.447042,3.472381 z m -0.447042,-3.920409 4.638058,0.112007 c 0,-0.336103 0,-0.616079 0,-0.9521 L 28.21789,52.508057 c -0.279401,-0.05604 -0.223521,-0.448028 0.05588,-0.392065 l 3.576335,0.392065 c 0,-0.392065 0.05588,-0.784049 0.11176,-1.176114 l -4.526298,-0.9521 c -0.167641,1.120069 -0.279401,2.240221 -0.279401,3.360373 z m 0.335281,-3.752439 4.526298,0.9521 c 0.05588,-0.336021 0.111761,-0.616079 0.167641,-0.896055 L 28.720812,48.92367 c -0.279401,-0.05596 -0.11176,-0.448028 0.111761,-0.392066 l 3.408693,1.064108 c 0.05588,-0.279977 0.167641,-0.615998 0.223521,-0.896056 L 28.27377,46.627403 c -0.279401,1.06419 -0.614682,2.18426 -0.782323,3.360374 z m 1.005844,-3.752357 4.135137,2.07217 c 0.11176,-0.279976 0.223521,-0.616079 0.335281,-0.896056 l -3.185173,-1.960245 c -0.223521,-0.112007 0,-0.50399 0.223521,-0.336021 l 3.129293,1.904201 c 0.11176,-0.336021 0.279401,-0.61608 0.447042,-0.952101 l -3.743975,-2.856301 c -0.502922,1.008145 -0.949964,2.016208 -1.341126,3.024353 z m 1.508766,-3.304329 3.743975,2.856301 c 0.111761,-0.224096 0.279401,-0.504072 0.447042,-0.728086 l -2.738131,-2.632288 c -0.167641,-0.168051 0.11176,-0.448028 0.279401,-0.280058 l 2.682251,2.576325 c 0.223521,-0.336103 0.391161,-0.61608 0.614682,-0.896138 l -3.129292,-3.64035 c -0.670563,0.840093 -1.341126,1.736149 -1.899928,2.744294 z m 2.123449,-3.080315 3.129292,3.64035 c 0.223521,-0.224014 0.391162,-0.504073 0.614683,-0.728087 l -2.34697,-3.192322 c -0.16764,-0.224014 0.167641,-0.448028 0.335282,-0.224014 l 2.291089,3.136278 c 0.223521,-0.224014 0.447042,-0.503991 0.726443,-0.728087 l -2.45873,-4.256429 c -0.838203,0.672124 -1.564646,1.456173 -2.291089,2.352311 z m 2.57049,-2.688332 2.45873,4.256429 c 0.223521,-0.167969 0.447042,-0.391983 0.670563,-0.560035 l -1.620527,-3.752357 c -0.11176,-0.224096 0.279401,-0.392065 0.391162,-0.168051 l 1.564646,3.64035 c 0.279401,-0.224014 0.558802,-0.448028 0.894084,-0.615997 l -1.620527,-4.872509 c -0.949964,0.672042 -1.899928,1.344083 -2.738131,2.07217 z m 3.073412,-2.240222 1.620527,4.872509 c 0.279401,-0.168051 0.502922,-0.336021 0.782323,-0.448028 l -0.949964,-4.08846 c -0.05588,-0.279976 0.335282,-0.336021 0.391162,-0.112007 l 0.949964,3.920409 c 0.279401,-0.16797 0.558802,-0.280059 0.838203,-0.448028 L 40.67918,33.354042 c -1.005844,0.504073 -1.955808,1.008145 -2.905772,1.56818 z m 3.296934,-1.680187 0.726442,5.264575 c 0.279402,-0.112007 0.614683,-0.224014 0.949964,-0.336021 l -0.16764,-4.368519 c 0,-0.279976 0.391161,-0.279976 0.391161,0 l 0.111761,4.256512 c 0.279401,-0.112007 0.614682,-0.168052 0.949963,-0.280059 l 0.391162,-5.488588 c -1.173485,0.224014 -2.291089,0.560035 -3.352813,0.9521 z m 3.743975,-1.008063 -0.391162,5.488507 c 0.335281,-0.05596 0.726443,-0.16797 1.061724,-0.16797 l 0.670563,-4.312474 c 0.05588,-0.280058 0.447042,-0.224014 0.391162,0.05604 l -0.614683,4.200385 c 0.279401,-0.05596 0.558802,-0.05596 0.838203,-0.05596 l 1.397006,-5.488588 c -1.117604,-0.05605 -2.235209,0.05596 -3.352813,0.280058 z m 3.799855,-0.336103 -1.397006,5.488589 c 0.335282,0 0.726443,0 1.061724,0 l 1.341126,-4.312392 c 0.05588,-0.280059 0.447042,-0.112089 0.391161,0.112007 l -1.341125,4.200385 c 0.335281,0.05604 0.670563,0.05604 1.005844,0.112007 l 2.291089,-5.3765 c -1.117604,-0.168051 -2.235209,-0.224096 -3.352813,-0.224096 z m 3.743975,0.336103 -2.291089,5.3765 c 0.279401,0.05604 0.614682,0.112007 0.894083,0.224014 l 2.235209,-4.368437 c 0.111761,-0.224014 0.502922,-0.05596 0.335282,0.168052 l -2.235209,4.256429 c 0.391161,0.112007 0.782323,0.224014 1.173484,0.392066 L 55.5992,33.074066 C 54.537476,32.682 53.475751,32.401942 52.358147,32.233972 Z m -7.208549,12.041203 c 0,0.05604 0,0.05604 -0.05588,0.112007 0,0.05604 -0.05588,0.05604 -0.111761,0.05604 0,0 0,0 -0.05588,0 -0.335281,0.05596 -0.670563,0.05596 -1.005844,0 -0.05588,0.05596 -0.05588,0.05596 -0.11176,0.112007 0.05588,0.392066 0.22352,0.840094 0.670562,1.288121 0.279401,0 0.614683,0 0.894084,0.05605 l 0.894083,-3.640432 c -1.005844,-0.279977 -1.229365,-2.016208 0.05588,-2.240222 0,-0.280058 0.11176,-0.560035 0.279401,-0.728086 -0.670563,0.05604 -1.341126,0.112007 -2.011688,0.280058 l 0.16764,2.07217 v 0.05604 0.224014 c 0,0.280058 -0.391161,0.280058 -0.391161,0.05604 V 41.810931 L 43.52907,41.250896 c -0.22352,0.167969 -0.335281,0.448028 -0.335281,0.728086 0,0.560035 0.447042,1.008063 1.005844,1.008063 0.111761,0 0.167641,0 0.279401,-0.05596 v -0.05605 c 0,-0.280058 0.391162,-0.280058 0.391162,-0.05596 v 0.224014 0.05596 l 0.279401,1.176115 c 0,-0.05596 0,0 0,0 z m -1.452886,-3.696395 0.111761,0.05604 c 0,0 0,0 0.05588,0 l 0.670562,0.448027 -0.16764,-1.624142 c -0.502922,0.112007 -1.005844,0.279977 -1.508766,0.448028 -1.061725,1.120152 -0.894084,2.352229 -0.279401,3.13636 l 0.05588,0.05596 c 0.502922,0.61608 1.341125,0.952101 2.123448,0.840094 l -0.11176,-0.728087 c -0.111761,0 -0.223521,0.05604 -0.335281,0.05604 -0.782324,0 -1.397006,-0.61608 -1.397006,-1.400129 0,-0.392065 0.167641,-0.728086 0.447042,-1.008145 -0.05588,-0.168051 0.11176,-0.392065 0.335281,-0.280058 z m -0.223521,3.696395 c -0.447042,-0.16797 -0.838203,-0.448028 -1.117604,-0.728087 -1.397006,0.336103 -2.626371,-0.672042 -3.073413,-1.568098 -0.502922,0.391984 -0.949963,0.784049 -1.341125,1.176115 l 0.838203,0.224014 c 0,0 0,0 0.05588,0 l 0.223521,0.05596 c 0.05588,0 0.05588,0 0.11176,0.05605 0.05588,0 0.05588,0.05596 0.05588,0.05596 0.949964,1.176114 3.352814,1.176114 4.246897,0.728087 z m -1.397005,-1.12007 c -0.558803,-0.784131 -0.670563,-1.792194 0,-2.856301 -0.894084,0.391983 -1.732287,0.896055 -2.45873,1.45609 0.335281,0.728087 1.341125,1.56818 2.45873,1.400211 z m -3.185173,0.672042 c -0.167641,0.392065 -0.167641,1.232159 -0.05588,1.680187 0.782323,0.224013 1.676406,0.280058 2.68225,0.280058 0.838204,0 1.676407,0 2.45873,0 -0.279401,-0.336103 -0.447042,-0.728086 -0.502922,-1.064107 -1.173484,0.448028 -3.520454,0.279976 -4.582178,-0.896138 z m 0.670563,6.216675 c -0.279402,-0.112007 -0.502922,-0.280059 -0.726443,-0.44811 -0.279402,0.224096 -0.558803,0.44811 -0.838204,0.616079 0,0 0,0 -0.05588,0 -0.502922,0.44811 -0.949964,0.840093 -1.285245,1.232159 0,0 0,0 -0.05588,0.05596 -0.167641,0.168052 -0.279401,0.336103 -0.391162,0.560117 0,0 0,0.05596 -0.05588,0.05596 -0.447042,0.728086 -0.670563,1.344166 -0.782323,1.960245 -0.167641,0.840094 -0.05588,1.960163 -0.558803,2.68825 0.782324,-0.05596 1.005845,-0.279977 1.452886,-0.728087 -0.335281,-2.128214 1.173485,-4.872509 3.296934,-5.992578 z m 0.279401,3.864364 c -0.05588,0.05604 -0.111761,0.168051 -0.167641,0.224014 -0.447042,0.896138 0.05588,1.624224 0.558802,1.624224 1.285245,0 1.173485,-1.736231 -0.391161,-1.848238 z m -2.29109,-3.808402 c -0.670562,-0.560035 -1.452885,-1.12007 -1.844047,-1.960163 -0.05588,0.448028 -0.05588,0.896056 0.05588,1.288121 0.167641,0.672042 0.502922,1.232159 0.782323,1.624142 0.279402,-0.279976 0.614683,-0.616079 1.005844,-0.9521 z m -1.452885,8.064831 c 0.05588,0.560117 0.11176,1.120152 0,1.680187 0.614682,-0.05596 0.894083,-0.224014 1.229365,-0.560035 -0.447042,-0.336021 -0.838204,-0.672042 -1.229365,-1.120152 z m -0.223521,-7.448752 -0.726443,0.392066 0.391161,0.840093 c 0.167641,-0.05604 0.279402,-0.112007 0.447042,-0.168051 0.111761,-0.112007 0.223521,-0.280059 0.335282,-0.448028 -0.167641,-0.168052 -0.279402,-0.392066 -0.447042,-0.61608 z m -2.179329,3.584388 c 0,0.16797 0,0.336021 0.05588,0.504073 0.391162,-0.280059 1.005844,-0.672124 1.341126,-0.784131 0.11176,-0.504073 0.279401,-1.008063 0.558802,-1.56818 -0.05588,0 -0.05588,0.05604 -0.111761,0.05604 -0.894083,0.448028 -1.676406,1.456173 -1.844047,1.792194 z m 0.05588,-2.576243 c -0.05588,0.615998 -0.11176,1.232077 -0.11176,1.848157 0.16764,-0.280059 0.447042,-0.560035 0.726443,-0.840094 z m 0.223521,-1.288203 c -0.05588,0.224096 -0.11176,0.504072 -0.11176,0.728086 l 0.838203,1.400211 c 0.167641,-0.112089 0.279401,-0.224096 0.447042,-0.336103 -0.670563,-1.456091 -0.838204,-1.12007 0.558802,-1.792194 -0.11176,-0.224014 -0.167641,-0.448028 -0.279401,-0.672042 -0.335281,0.05605 -0.949964,0.280059 -1.452886,0.672042 z m 2.235209,-5.152485 c -0.949964,1.400128 -1.676407,2.968308 -2.067568,4.59245 0.447042,-0.280058 0.894083,-0.448028 1.229365,-0.560035 -0.111761,-0.616079 -0.111761,-1.232159 0.16764,-1.960245 0.111761,-0.224014 0.335282,-0.224014 0.391162,0.05604 0.167641,1.008063 1.173485,1.792194 1.955808,2.408274 0.16764,-0.168052 0.391161,-0.336103 0.614682,-0.44811 -1.173484,-0.840094 -2.067568,-2.072171 -2.291089,-4.088378 z m 1.397006,-1.792194 c -0.223521,0.224014 -0.447042,0.448028 -0.614683,0.728086 0.391162,0.560035 0.894084,0.896056 1.452886,1.176115 -0.05588,-0.504073 -0.05588,-1.176115 0.05588,-1.624143 z m 11.231925,-1.288122 c -0.167641,0.112007 -0.391162,0.16797 -0.670563,0.16797 -0.05588,0.560117 -0.167641,1.176114 -0.05588,1.736231 l 1.061724,-1.120152 c -0.223521,-0.280058 -0.335281,-0.560035 -0.335281,-0.784049 z m -1.229365,1.176115 c -0.279401,-0.05605 -0.614683,-0.168052 -0.726443,-0.504073 -0.05588,-0.112007 0.391161,-0.05596 0.447042,-0.05596 0.11176,0 0.223521,0 0.335281,-0.05604 0,-0.224014 0.05588,-0.448028 0.11176,-0.672042 0,-0.05604 0,-0.168051 0.05588,-0.224014 0.05588,-0.280058 0.447041,-0.224096 0.391161,0.05596 1.173485,-0.112007 0.949964,-1.792194 -0.279401,-1.512135 -0.279401,0.05596 -0.335281,-0.336021 -0.05588,-0.392066 0.279401,-0.05596 0.502922,-0.05596 0.726443,0 -0.111761,-1.680187 -2.738131,-0.672042 -1.229365,0.61608 0.223521,0.167969 -0.05588,0.504072 -0.279401,0.280058 -0.279401,-0.224096 -0.447042,-0.44811 -0.502922,-0.672124 -0.894084,0.168052 -0.670563,1.288121 -0.05588,1.456173 v -0.05604 c 0.05588,-0.279976 0.447041,-0.167969 0.391161,0.112007 l -0.05588,0.224096 -1.005844,3.920409 c 0.167641,0 0.335281,0.05596 0.502922,0.05596 l 1.397005,-1.512135 c -0.11176,-0.336021 -0.16764,-0.672042 -0.16764,-1.064107 z m 2.011688,1.400128 c -0.223521,-0.280058 -0.279401,-0.728086 -0.223521,-1.120152 0.05588,-0.167969 0.223521,0.112007 0.279401,0.168052 0.111761,0.112007 0.279401,0.168051 0.447042,0.280058 0.335281,-0.504072 0.670563,-0.9521 1.005844,-1.456173 0.391161,-0.504072 0.782323,-1.064107 1.229365,-1.56818 -0.670563,-0.840093 -1.844048,-0.336021 -1.508766,0.952101 0.05588,0.280058 -0.335282,0.336021 -0.391162,0.112007 -0.05588,-0.279977 -0.11176,-0.560035 -0.05588,-0.784049 -0.894084,-0.280059 -1.508766,0.504072 -0.949964,1.288121 0.167641,-0.168051 0.447042,0.112007 0.279401,0.280059 l -1.564646,1.680105 -0.05588,0.05604 -1.229365,1.344166 c 0.558802,0.112007 1.117604,0.224014 1.676407,0.448028 0.279401,-0.560035 0.670562,-1.120152 1.061724,-1.680187 z m -1.788167,11.201191 c 2.235209,-0.896138 2.905771,-2.688332 2.794011,-4.08846 -0.502922,0.728086 -1.005844,1.456173 -1.452886,2.184259 -0.447042,0.61608 -0.894084,1.232077 -1.341125,1.904201 z m 4.414537,-5.096523 c 0.949964,-0.9521 1.229365,-2.016208 1.229365,-2.968308 -0.502922,0.672042 -1.005844,1.344084 -1.508766,2.016208 0.111761,0.336021 0.223521,0.615997 0.279401,0.9521 z m 2.905772,-3.584388 c 1.005844,-0.840093 1.397006,-1.680187 1.397006,-2.744294 -0.558803,0.504073 -1.061725,1.008063 -1.564647,1.56818 0.05588,0.448028 0.111761,0.840093 0.167641,1.176114 z m -0.05588,1.624143 c 2.067568,-0.952101 2.905771,-3.192323 2.738131,-5.488589 -0.335282,0.224014 -0.670563,0.504073 -0.949964,0.784131 0.11176,1.400128 -0.391162,2.52028 -1.732287,3.528343 0,0.448028 -8.2e-5,0.840094 -0.05588,1.176115 z m -8.046752,8.624948 c 2.346969,-0.224096 4.414537,-2.072253 4.861579,-4.592533 v -0.05596 c 0.05588,-0.504073 0.11176,-1.008145 0.05588,-1.56818 v -0.05605 c -0.05588,-0.336021 -0.11176,-0.615997 -0.223521,-0.9521 -0.223521,0.336103 -0.502922,0.672124 -0.726443,1.064107 0.335282,1.792194 -0.447041,4.256512 -3.520454,5.152568 -0.223521,0.336021 -0.502922,0.672042 -0.782323,1.008145 0.111761,0 0.223521,0 0.335282,0 z m -8.605555,7.112731 c 0.05588,0.112007 0.11176,0.167969 0.11176,0.224014 0.782324,-0.448028 1.508767,-0.952101 2.235209,-1.56818 0,0 0,0 0.05588,0 0.335281,-0.280059 0.670562,-0.560035 1.005844,-0.840094 l 0.05588,-0.05596 c 0.335281,-0.280059 0.614682,-0.61608 0.949964,-0.896138 0,0 0,-0.05596 0.05588,-0.05596 0.391162,-0.392065 0.838203,-0.840093 1.229365,-1.288203 l 0.05588,-0.05596 c 0.335281,-0.392066 0.726443,-0.840094 1.061724,-1.232159 0,-0.05596 0.05588,-0.05596 0.05588,-0.05596 0.279401,-0.392065 0.614682,-0.784131 0.894083,-1.176114 0,-0.05605 0,0 0.05588,-0.05605 0.335282,-0.448028 0.670563,-0.896056 0.949964,-1.344166 0,0 0,-0.05596 0.05588,-0.05596 1.173485,-1.624142 2.29109,-3.304329 3.408694,-4.984516 0,0 0,-0.05604 0.05588,-0.05604 0.335282,-0.448028 0.614683,-0.9521 0.949964,-1.400128 0,0 0,-0.05596 0.05588,-0.05596 0.558803,-0.784131 1.117605,-1.512218 1.676407,-2.240304 0.05588,-0.05596 0.111761,-0.112007 0.167641,-0.224014 0,0 0,-0.05596 0.05588,-0.05596 0.335281,-0.392065 0.670563,-0.840093 1.005844,-1.232159 0,0 0,-0.05596 0.05588,-0.05596 0.614683,-0.672124 1.285245,-1.344166 1.899928,-1.960245 l 0.05588,-0.05596 c 0.447042,-0.392065 0.838203,-0.728086 1.285245,-1.008145 l 0.05588,-0.05596 0.05588,-0.05604 c 0,0 0,0 0.05588,0 0.05588,-0.05604 0.11176,-0.112007 0.167641,-0.112007 L 57.890289,41.53088 c -0.223521,0.168052 -0.447042,0.336103 -0.614682,0.504073 0,0 0,0 -0.05588,0.05604 -7.59971,6.3286 -10.784883,16.465684 -19.111036,22.010235 0.11176,0.168051 0.223521,0.336103 0.335281,0.560117 z m 7.152669,0.728086 c 0,0 0.05588,0 0,0 0.223521,0.05596 0.391161,0.05596 0.558802,0.05596 0.502922,0 0.949964,-0.167969 1.341125,-0.448027 0.447042,-0.392066 0.726443,-0.952101 0.726443,-1.56818 0,-0.336021 -0.05588,-0.61608 -0.16764,-0.840094 v -0.05596 c -0.335282,-0.672124 -1.061725,-1.176115 -1.844048,-1.176115 -0.11176,0 -0.223521,0 -0.279401,0 h -0.05588 c -0.391162,0.05596 -0.726443,0.224014 -1.005844,0.448028 h -0.05588 c -0.447042,0.391984 -0.726443,0.952101 -0.726443,1.56818 0,0.952101 0.614682,1.792112 1.508766,2.016208 z m -5.364502,7.560759 c 0.614683,-0.224014 1.173485,-0.504073 1.620527,-0.784049 l 0.05588,-0.05604 c 0.447042,-0.280058 0.838203,-0.616079 1.229365,-0.9521 0,0 0,-0.05596 0.05588,-0.05596 1.788167,-1.792193 2.291089,-4.08846 2.235209,-5.376581 -0.391162,-0.112007 -0.782323,-0.392066 -1.061724,-0.672124 0.223521,2.296266 -0.502922,5.096605 -3.911616,6.77671 -0.05588,0.05604 -0.05588,0.05604 -0.11176,0.05604 0,0 -0.05588,0 -0.111761,0 -0.558802,-0.168051 -1.173484,-0.504072 -1.676407,-0.840093 -0.05588,-0.05604 -0.05588,-0.05604 -0.11176,-0.112007 -0.447042,-0.336021 -0.838203,-0.784049 -1.117604,-1.232159 -0.05588,-0.05596 -0.05588,-0.05596 -0.05588,-0.112007 -0.670562,-1.176114 -0.558802,-2.52028 1.341126,-3.64035 -0.111761,-0.280059 -0.223521,-0.560035 -0.335282,-0.840093 -3.911615,2.576242 -2.402849,5.824609 1.955808,7.840817 z m 1.788167,-0.448028 c -0.391161,0.224014 -0.838203,0.448028 -1.285245,0.672042 2.291089,0.9521 5.252741,1.56818 8.382034,1.512135 -1.844048,-0.728086 -5.308621,-1.792194 -7.096789,-2.184177 z m 1.341126,-1.008145 c -0.279401,0.224014 -0.558802,0.504072 -0.838204,0.672124 2.235209,0.50399 6.202705,1.792112 7.599711,2.408191 0.838203,-0.05596 1.732287,-0.167969 2.57049,-0.279976 -2.402849,-0.728087 -7.208549,-2.240304 -9.331997,-2.800339 z m 2.402849,-5.656558 c 0,1.344084 -0.447041,3.584388 -2.123448,5.376581 2.45873,0.615998 7.823231,2.296185 9.779039,3.024271 0.279401,-0.05596 0.558802,-0.112007 0.782323,-0.167969 -0.335281,-1.56818 -0.335281,-3.864447 0.447042,-6.384727 -2.235209,-0.167969 -4.749819,-0.840093 -7.096788,-2.296184 -0.391162,0.279976 -0.894084,0.50399 -1.452886,0.50399 -0.05588,-0.05596 -0.223521,-0.05596 -0.335282,-0.05596 z m 0,-5.432544 c 0.05588,0.167969 0.111761,0.336021 0.167641,0.50399 0.05588,0 0.167641,0 0.223521,0 0.391162,0 0.782323,0.112007 1.117604,0.280059 0.223521,-1.120152 -0.838203,-1.56818 -1.508766,-0.784049 z m 1.452886,-2.016208 c 1.788167,0.448028 2.40285,2.68825 1.285245,4.032416 0.111761,0.279976 0.167641,0.615997 0.167641,0.9521 0,0.672042 -0.279401,1.288122 -0.670563,1.73615 3.464574,2.128214 7.37619,2.52028 9.94668,1.960163 2.682251,-0.560035 3.632215,-2.016208 1.955808,-3.584306 -0.279401,-0.280058 0.502922,-1.008145 1.117605,-1.064107 0.05588,-0.392066 -0.111761,-0.672124 -0.391162,-0.840094 -0.838203,-0.05604 -2.179329,0.336021 -3.073412,0.560035 -0.05588,0.168052 -0.335282,0.224014 -0.391162,0 -0.11176,-0.280058 0.167641,-0.728086 0.223521,-0.840093 0.11176,-0.280059 0.447042,-0.112007 0.335281,0.168051 -0.05588,0.05596 -0.11176,0.16797 -0.11176,0.279977 0.894083,-0.224014 2.123366,-0.61608 3.017532,-0.560035 0.223521,-0.168052 0.782323,-0.560035 0.670563,-0.896138 -0.05588,-0.05596 -0.111761,-0.167969 -0.223521,-0.336021 -0.447042,-0.560035 -0.223521,-0.9521 0.16764,-1.400128 -0.670562,-0.112007 -1.564646,0 -2.011688,0.504072 -0.279401,0.279977 -0.726443,-0.504072 -0.782323,-0.616079 -0.16764,-0.448028 -0.16764,-1.008063 0.502922,-1.624143 0.167641,-0.168051 0.447042,0.112007 0.279401,0.279977 -0.502922,0.504072 -0.670562,1.008145 -0.16764,1.512217 0.726443,-0.560117 1.732287,-0.672124 2.57049,-0.44811 1.508766,-0.112007 1.397006,-0.728086 1.005762,-1.792194 -0.167559,-0.448028 -0.39108,-0.9521 -0.558802,-1.512135 -0.3352,-0.840093 -0.949882,-2.576243 -1.564564,-4.480443 -1.732287,-0.672042 -4.191017,-0.280059 -6.035065,0.560034 -0.447041,0.728087 -1.117604,1.400129 -2.067568,2.072253 -0.447042,2.576242 -2.57049,4.536488 -5.02922,4.816464 z m -0.447042,-0.05604 0.05588,-0.392066 c -0.167641,0 -0.279401,0 -0.447042,0 -0.279401,0.392066 -0.558802,0.728087 -0.838203,1.064108 0,0.336021 0.05588,0.616079 0.11176,0.896138 0.838203,-0.728087 2.45873,-0.224014 1.955808,1.456172 0.279401,0.16797 0.502922,0.448028 0.670562,0.672042 0.894084,-1.232159 0.111761,-3.248366 -1.620526,-3.304329 -0.279401,0 -0.279401,-0.392065 0,-0.392065 0.05588,0 0.11176,0 0.11176,0 z m 6.929148,-14.337469 c 0,0.224014 -0.16764,0.391984 -0.391161,0.391984 -0.223521,0 -0.391162,-0.16797 -0.391162,-0.391984 0,-0.224096 0.167641,-0.392065 0.391162,-0.392065 0.223521,0.05596 0.391161,0.224014 0.391161,0.392065 z m 1.061724,-1.232159 c 0,0.224014 -0.16764,0.392066 -0.391161,0.392066 -0.223521,0 -0.391162,-0.168052 -0.391162,-0.392066 0,-0.224014 0.167641,-0.392065 0.391162,-0.392065 0.223521,0 0.391161,0.168051 0.391161,0.392065 z m -2.067568,2.576243 c 0,0.168052 -0.16764,0.336021 -0.335281,0.336021 -0.167641,0 -0.335282,-0.167969 -0.335282,-0.336021 0,-0.167969 0.167641,-0.336021 0.335282,-0.336021 0.167641,0 0.335281,0.168052 0.335281,0.336021 z M 41.293862,41.754894 c 0,0.224096 -0.16764,0.392066 -0.391161,0.392066 -0.223521,0 -0.391162,-0.16797 -0.391162,-0.392066 0,-0.224014 0.167641,-0.391983 0.391162,-0.391983 0.223521,0 0.391161,0.167969 0.391161,0.391983 z m 4.86158,22.346338 c 0.391162,0 0.726443,-0.336021 0.726443,-0.728005 0,-0.392065 -0.335281,-0.728086 -0.726443,-0.728086 -0.391162,0 -0.726443,0.336021 -0.726443,0.728086 0,0.391984 0.335281,0.728005 0.726443,0.728005 z m 0,0.392065 c -0.614682,0 -1.117605,-0.504072 -1.117605,-1.12007 0,-0.616079 0.502923,-1.120152 1.117605,-1.120152 0.614682,0 1.117604,0.504073 1.117604,1.120152 0,0.615998 -0.502922,1.12007 -1.117604,1.12007 z m 9.499556,-10.697118 c -0.111678,-0.336021 -0.167559,-0.728087 -0.111678,-1.176115 -0.614683,0.168052 -1.173485,0.448028 -1.676407,0.840094 0.167641,0.05596 0.447042,0.112007 0.782323,0.224014 0.279401,0.05604 0.614682,0.112007 1.005762,0.112007 z m 0.279401,-1.288122 c -0.0558,0.560035 8.2e-5,0.952101 0.111843,1.288122 0.279401,0 0.502922,0 0.782323,-0.05596 -0.111761,-0.168051 -0.223521,-0.44811 -0.223521,-0.672124 0,-0.279976 0,-0.50399 0.11176,-0.728086 -0.223521,0.05604 -0.503004,0.112007 -0.782405,0.168051 z m 1.676489,-0.616079 c 0.279401,0 0.558802,-0.05596 0.726443,0 0.11176,0 0.16764,0.112007 0.16764,0.224014 0,0.224014 -0.335281,0.392065 -0.558802,0.44811 0.05588,0.112007 0.05588,0.224014 0.05588,0.391983 0.05588,0.560035 -0.16764,1.064108 -0.558802,1.176115 0,0 0,0 -0.05588,0 -0.447042,0.05604 -0.949964,0.112007 -1.508766,0.112007 -0.05588,0 -0.05588,0 -0.11176,0 -0.838204,0 -1.676489,-0.16797 -2.34697,-0.448028 -0.167723,0.224014 -0.502922,-0.05596 -0.279401,-0.280059 0,0 0.05588,-0.05596 0.11176,-0.112007 0,0 0,0 0.05588,-0.05596 0.502922,-0.392066 1.843965,-1.400129 4.302777,-1.456173 z"
     fill="#94a3b8"
     id="path1"
     style="stroke-width:0.821768" />
  <path
     d="m 71.860345,36.770378 v 0.728087 h 2.235209 v 6.944761 h 0.838203 v -6.944761 h 2.235209 v -0.728087 z m 7.040908,0 v 7.672848 H 83.03639 V 43.71514 h -3.296933 v -2.856302 h 3.017532 v -0.728086 h -3.017532 v -2.632287 h 3.296933 v -0.728087 z m 9.83492,0.504073 c 0.726443,0 1.397005,0.168051 1.955808,0.560035 l 0.335281,-0.615998 c -0.726443,-0.392065 -1.452886,-0.560117 -2.291089,-0.560117 -2.235209,0 -4.023376,1.624225 -4.023376,3.976454 0,2.52028 1.788167,3.976371 4.023376,3.976371 0.782323,0 1.620526,-0.279977 2.291089,-0.672042 l -0.279401,-0.560035 c -0.614683,0.336021 -1.285245,0.560035 -1.955808,0.560035 -1.844047,0 -3.185173,-1.456173 -3.185173,-3.304329 -0.05588,-1.904201 1.229365,-3.360374 3.129293,-3.360374 z m 4.246897,-0.504073 v 7.672848 h 0.838203 v -3.696395 h 4.191181 v 3.696395 h 0.838204 v -7.672848 h -0.838204 v 3.304412 h -4.191181 v -3.304412 z m 9.4998,-0.167969 -0.89408,0.224014 v 7.616803 h 0.8382 v -6.60874 l 4.47042,6.77671 0.89408,-0.224014 v -7.616804 h -0.78232 v 6.552696 z m 8.38204,0.167969 v 7.672848 h 0.8382 v -7.672848 z m 5.25274,7.22482 c -0.61469,0 -1.22937,-0.280058 -1.62053,-0.560117 l -0.33528,0.560117 c 0.61468,0.391984 1.22936,0.560035 2.01169,0.560035 1.6764,0 2.45873,-1.064107 2.45873,-2.184259 0,-1.176115 -0.83821,-1.680187 -1.67641,-2.07217 l -0.67056,-0.336021 c -0.5588,-0.280059 -1.17349,-0.672124 -1.17349,-1.344166 0,-1.008145 0.83821,-1.456173 1.50877,-1.456173 0.72644,0 1.17348,0.224014 1.62053,0.560035 l 0.2794,-0.560035 c -0.61469,-0.336021 -1.22937,-0.560035 -1.95581,-0.560035 -1.34113,0 -2.29109,0.840093 -2.29109,1.960163 0,1.624225 1.17348,1.904201 2.29109,2.464318 0.61468,0.279976 1.1176,0.672042 1.1176,1.456091 0.0559,0.896138 -0.67056,1.512217 -1.56464,1.512217 z m 8.38203,-6.720747 c 0.72644,0 1.39701,0.168051 1.95581,0.560035 l 0.33528,-0.615998 c -0.72644,-0.392065 -1.45289,-0.560117 -2.29109,-0.560117 -2.23521,0 -4.02338,1.624225 -4.02338,3.976454 0,2.52028 1.78817,3.976371 4.02338,3.976371 0.78232,0 1.62053,-0.279977 2.29109,-0.672042 l -0.2794,-0.560035 c -0.61468,0.336021 -1.28525,0.560035 -1.95581,0.560035 -1.84405,0 -3.18517,-1.456173 -3.18517,-3.304329 -0.0559,-1.904201 1.28524,-3.360374 3.12929,-3.360374 z m 4.47042,-0.504073 v 7.672848 h 0.8382 v -3.696395 h 4.19102 v 3.696395 h 0.8382 v -7.672848 h -0.8382 v 3.304412 h -4.19102 v -3.304412 z m 8.60555,0 v 7.672848 h 4.19102 V 43.71514 h -3.29693 v -2.856302 h 3.01753 v -0.728086 h -3.01753 v -2.632287 h 3.29693 V 36.770378 Z M 78.677732,54.468303 v -5.040561 h -0.838203 v 4.928472 c 0,1.736231 -0.838203,2.240303 -2.123449,2.240303 -1.452885,0 -2.067568,-0.784131 -2.067568,-2.240303 v -4.928472 h -0.894083 v 5.096523 c 0,1.736149 1.005844,2.68825 2.905771,2.68825 1.452886,0.05604 3.017532,-0.391984 3.017532,-2.744212 z m 3.296934,-5.152568 -0.894084,0.224014 v 7.616803 h 0.838203 v -6.608658 l 4.470418,6.776628 0.894084,-0.224014 V 49.483705 H 86.500964 V 56.0364 Z m 8.046752,0.16797 v 7.672847 h 0.838203 v -7.672847 z m 3.296933,-0.112007 -0.838203,0.280058 2.905771,7.504796 h 0.838204 l 2.961816,-7.504796 -0.838203,-0.280058 -2.514775,6.888716 z m 7.543999,0.112007 v 7.672847 h 4.13513 v -0.728086 h -3.29693 V 53.51612 h 2.96165 v -0.728004 h -2.96165 v -2.632287 h 3.29693 v -0.728087 h -4.13513 z m 8.04675,3.696394 h -1.00585 v -3.080315 h 1.22937 c 1.34112,0 1.73229,0.672124 1.73229,1.512135 0,1.288204 -0.94997,1.56818 -1.95581,1.56818 z m 0.44704,-3.696394 h -2.29109 v 7.672847 h 0.8382 v -3.304329 h 0.72645 c 0.5588,0 0.8382,0.224014 1.17348,0.61608 l 0.33528,0.448028 1.78817,2.464235 0.72644,-0.448028 -1.50876,-2.072252 c -0.2794,-0.392065 -0.72645,-1.064107 -1.17349,-1.232077 v -0.168051 c 1.06173,-0.168052 1.67641,-0.728087 1.67641,-2.016208 0,-1.176114 -0.8382,-1.960245 -2.29109,-1.960245 z m 6.37035,7.224819 c -0.61469,0 -1.22937,-0.280058 -1.62053,-0.560117 l -0.33528,0.560117 c 0.61468,0.391984 1.22936,0.560035 2.01169,0.560035 1.6764,0 2.45873,-1.064107 2.45873,-2.184259 0,-1.176114 -0.83821,-1.680187 -1.67641,-2.07217 l -0.67056,-0.336021 c -0.55881,-0.280059 -1.17349,-0.672124 -1.17349,-1.344166 0,-1.008145 0.8382,-1.456173 1.50877,-1.456173 0.72644,0 1.17348,0.280059 1.62052,0.560035 l 0.2794,-0.560035 c -0.61468,-0.336021 -1.22936,-0.560035 -1.9558,-0.560035 -1.34113,0 -2.29109,0.840094 -2.29109,1.960163 0,1.624225 1.17348,1.904201 2.29109,2.464318 0.61468,0.279977 1.1176,0.672042 1.1176,1.456091 0.0559,0.9521 -0.61468,1.512217 -1.56464,1.512217 z m 4.80569,-7.224819 v 7.672847 h 0.83821 v -7.672847 z m 2.51461,0 v 0.728086 h 2.23521 v 6.944761 h 0.83821 v -7.000723 h 2.23521 v -0.728087 h -5.30863 z m 9.22024,0.728086 1.39701,3.808402 h -2.84989 z m 3.46458,6.832754 -3.01754,-7.56084 h -0.89408 l -3.12929,7.56084 0.8382,0.279977 1.00584,-2.68825 h 3.35282 l 1.00584,2.68825 z m -1.28525,-8.064831 h -0.78232 v 1.008063 h 0.78232 z m -3.57633,1.008063 v -1.008063 h -0.78233 v 1.008063 z m 5.6439,-0.504072 v 0.728086 h 2.23521 v 6.944761 h 0.8382 v -6.944761 h 2.23521 V 49.483705 Z M 74.710236,69.141792 H 73.592632 V 62.81311 h 1.285245 c 2.123449,0 3.520454,1.064108 3.520454,3.13636 0.05588,2.016208 -1.397005,3.192322 -3.688095,3.192322 z m 0.391162,-7.000724 h -2.346969 v 7.672766 h 2.067568 c 2.62637,0 4.414538,-1.344084 4.414538,-3.920409 0,-1.9042 -1.061725,-3.752357 -4.135137,-3.752357 z m 8.884956,0.784049 1.397005,3.808402 h -2.849891 z m 3.464574,6.77671 -3.017533,-7.560759 h -0.894083 l -3.129293,7.560759 0.838204,0.280059 1.005844,-2.68825 h 3.352813 l 1.005844,2.68825 z m 3.911615,-3.808402 H 90.356699 V 62.81311 h 1.229365 c 1.341125,0 1.732287,0.672124 1.732287,1.512218 0,1.232076 -0.949964,1.568097 -1.955808,1.568097 z m 0.447042,-3.752357 h -2.291089 v 7.672766 h 0.838203 v -3.304329 h 0.726443 c 0.558802,0 0.838203,0.224014 1.173485,0.616079 l 0.335281,0.448028 1.788167,2.464236 0.726443,-0.448028 -1.508766,-2.016208 c -0.279401,-0.392065 -0.726443,-1.064107 -1.173485,-1.176114 v -0.16797 c 1.061725,-0.168051 1.676407,-0.728086 1.676407,-2.016289 0,-1.232077 -0.838203,-2.072171 -2.291089,-2.072171 z m 8.046917,0 h -0.949964 l -2.123613,7.560759 0.838368,0.224014 1.788167,-6.664621 1.95581,6.496652 h 0.94996 l 1.95581,-6.552696 1.78817,6.664703 0.8382,-0.224014 -2.17933,-7.504797 h -0.94996 l -1.95581,6.664703 z m 10.673118,7.224738 c -0.61468,0 -1.22936,-0.280058 -1.62052,-0.560035 l -0.33528,0.560035 c 0.61468,0.392066 1.22936,0.560035 2.01168,0.560035 1.67641,0 2.45873,-1.064107 2.45873,-2.184177 0,-1.176115 -0.8382,-1.680187 -1.6764,-2.072253 l -0.67056,-0.336021 c -0.55881,-0.280058 -1.17349,-0.672041 -1.17349,-1.344165 0,-1.008063 0.8382,-1.456091 1.50877,-1.456091 0.72644,0 1.17348,0.224014 1.62052,0.560035 l 0.2794,-0.560035 c -0.61468,-0.336103 -1.22936,-0.560117 -1.9558,-0.560117 -1.34113,0 -2.29109,0.840093 -2.29109,1.960245 0,1.624142 1.17348,1.904201 2.29109,2.464236 0.61468,0.280058 1.1176,0.672042 1.1176,1.456173 0.0559,0.9521 -0.61468,1.512135 -1.56465,1.512135 z m 3.91162,-7.224738 v 0.728087 h 2.23521 v 6.944679 h 0.8382 v -6.944679 h 2.23521 v -0.728087 z m 9.332,0.784049 1.397,3.808402 h -2.84989 z m 3.46457,6.832755 -3.01753,-7.616804 h -0.89408 l -3.1293,7.560759 0.83821,0.280059 1.00584,-2.68825 h 3.35281 l 1.00585,2.68825 z m 3.74398,-0.61608 h -1.11761 V 62.81311 h 1.28525 c 2.12345,0 3.52045,1.064108 3.52045,3.13636 0,2.016208 -1.45288,3.192322 -3.68809,3.192322 z m 0.33528,-7.000724 h -2.34697 v 7.672766 h 2.06757 c 2.62637,0 4.41453,-1.344084 4.41453,-3.920409 0,-1.9042 -1.06172,-3.752357 -4.13513,-3.752357 z m 5.19686,0 v 0.728087 h 2.23521 v 6.944679 h 0.8382 v -6.944679 h 2.23521 v -0.728087 z"
     fill="#94a3b8"
     id="path2"
     style="stroke-width:0.821768" />
</svg>
