<svg width="1017" height="288" viewBox="0 0 1017 288" fill="none" xmlns="http://www.w3.org/2000/svg">
<path d="M12.977 4.76576L59.482 85.8169H140.22C140.75 82.3327 141.025 78.7646 141.025 75.1322C141.025 36.2528 109.507 4.73486 70.6278 4.73486H13.9034C13.5921 4.73486 13.2832 4.74527 12.977 4.76576Z" fill="#1F8197"/>
<path d="M0.230469 30.7047L31.8524 85.8169H0.230469V30.7047Z" fill="#1F8197"/>
<path d="M0.230469 109.782V131.857C0.230469 139.408 6.35206 145.53 13.9034 145.53H66.114L45.6029 109.782H0.230469Z" fill="#1F8197"/>
<path d="M91.8719 142.267C108.964 136.864 123.236 125.113 131.922 109.782H73.2325L91.8719 142.267Z" fill="#1F8197"/>
<path d="M176.418 89.9834L210.35 5.69406H223.658L257.47 89.9834H240.085L213.946 20.8014H219.941L193.444 89.9834H176.418ZM194.403 74.2766V60.608H239.725V74.2766H194.403Z" fill="white"/>
<path d="M283.589 91.3023C280.312 91.3023 277.075 90.8627 273.877 89.9834C270.76 89.1041 267.883 87.9051 265.245 86.3864C262.607 84.7878 260.329 82.8694 258.41 80.6312L267.763 71.1592C269.761 73.3973 272.079 75.0759 274.717 76.195C277.355 77.314 280.272 77.8735 283.469 77.8735C286.027 77.8735 287.946 77.5138 289.225 76.7944C290.583 76.0751 291.263 74.996 291.263 73.5572C291.263 71.9585 290.544 70.7195 289.105 69.8403C287.746 68.961 285.947 68.2416 283.709 67.6821C281.471 67.0426 279.113 66.3632 276.635 65.6438C274.237 64.8445 271.919 63.8453 269.681 62.6463C267.443 61.3674 265.604 59.6488 264.166 57.4906C262.807 55.2525 262.127 52.3749 262.127 48.8579C262.127 45.181 263.007 41.9836 264.765 39.2659C266.604 36.5482 269.201 34.43 272.559 32.9112C275.916 31.3925 279.872 30.6331 284.429 30.6331C289.225 30.6331 293.541 31.4724 297.378 33.151C301.295 34.8296 304.532 37.3475 307.09 40.7047L297.618 50.1768C295.859 48.0186 293.861 46.4599 291.623 45.5007C289.464 44.5415 287.106 44.0619 284.549 44.0619C282.23 44.0619 280.432 44.4216 279.153 45.141C277.954 45.8604 277.355 46.8595 277.355 48.1385C277.355 49.5773 278.034 50.6963 279.393 51.4957C280.832 52.295 282.67 53.0144 284.908 53.6539C287.146 54.2134 289.464 54.8928 291.862 55.6921C294.34 56.4115 296.658 57.4507 298.817 58.8095C301.055 60.1684 302.853 61.9669 304.212 64.205C305.651 66.4431 306.37 69.3207 306.37 72.8378C306.37 78.513 304.332 83.0292 300.255 86.3864C296.179 89.6637 290.623 91.3023 283.589 91.3023Z" fill="white"/>
<path d="M341.301 91.1824C335.386 91.1824 330.071 89.8635 325.355 87.2257C320.639 84.5879 316.922 80.9909 314.204 76.4347C311.486 71.8786 310.127 66.7629 310.127 61.0876C310.127 55.3324 311.486 50.1768 314.204 45.6206C316.922 41.0644 320.639 37.4674 325.355 34.8296C330.151 32.1119 335.466 30.7531 341.301 30.7531C345.857 30.7531 350.054 31.5923 353.891 33.2709C357.727 34.9495 361.045 37.3475 363.842 40.4649L353.771 50.6564C352.252 48.9778 350.414 47.6988 348.255 46.8196C346.177 45.9403 343.859 45.5007 341.301 45.5007C338.424 45.5007 335.826 46.1801 333.508 47.539C331.27 48.8179 329.471 50.6164 328.112 52.9345C326.833 55.1726 326.194 57.8503 326.194 60.9677C326.194 64.0052 326.833 66.7229 328.112 69.1209C329.471 71.4389 331.27 73.2774 333.508 74.6363C335.826 75.9152 338.424 76.5546 341.301 76.5546C343.939 76.5546 346.297 76.115 348.375 75.2357C350.534 74.2766 352.372 72.9177 353.891 71.1592L364.082 81.3506C361.125 84.548 357.727 86.9859 353.891 88.6645C350.054 90.3431 345.857 91.1824 341.301 91.1824Z" fill="white"/>
<path d="M369.98 89.9834V32.0719H385.806V89.9834H369.98ZM377.893 22.7198C375.335 22.7198 373.217 21.8805 371.538 20.2019C369.86 18.4434 369.021 16.2852 369.021 13.7273C369.021 11.2494 369.86 9.13118 371.538 7.37265C373.217 5.61413 375.335 4.73486 377.893 4.73486C380.531 4.73486 382.649 5.61413 384.248 7.37265C385.926 9.13118 386.766 11.2494 386.766 13.7273C386.766 16.2852 385.926 18.4434 384.248 20.2019C382.649 21.8805 380.531 22.7198 377.893 22.7198Z" fill="white"/>
<path d="M396.723 89.9834V32.0719H412.55V89.9834H396.723ZM404.636 22.7198C402.078 22.7198 399.96 21.8805 398.282 20.2019C396.603 18.4434 395.764 16.2852 395.764 13.7273C395.764 11.2494 396.603 9.13118 398.282 7.37265C399.96 5.61413 402.078 4.73486 404.636 4.73486C407.274 4.73486 409.392 5.61413 410.991 7.37265C412.67 9.13118 413.509 11.2494 413.509 13.7273C413.509 16.2852 412.67 18.4434 410.991 20.2019C409.392 21.8805 407.274 22.7198 404.636 22.7198Z" fill="white"/>
<path d="M435.387 89.9834V75.4756H456.849C462.285 75.4756 467.041 74.3565 471.117 72.1184C475.194 69.8003 478.351 66.563 480.589 62.4065C482.907 58.25 484.066 53.3341 484.066 47.6589C484.066 42.1435 482.907 37.3475 480.589 33.2709C478.271 29.1144 475.074 25.9171 470.997 23.679C466.921 21.3609 462.205 20.2019 456.849 20.2019H435.027V5.69406H457.089C463.324 5.69406 469.079 6.73319 474.354 8.81144C479.71 10.8897 484.346 13.8472 488.263 17.684C492.259 21.4409 495.337 25.8771 497.495 30.9928C499.733 36.1086 500.852 41.7039 500.852 47.7788C500.852 53.8537 499.733 59.489 497.495 64.6846C495.337 69.8003 492.299 74.2766 488.383 78.1133C484.466 81.8702 479.83 84.7877 474.474 86.866C469.199 88.9443 463.484 89.9834 457.329 89.9834H435.387ZM424.237 89.9834V5.69406H440.543V89.9834H424.237Z" fill="white"/>
<path d="M535.443 91.1824C529.608 91.1824 524.332 89.8635 519.616 87.2257C514.98 84.508 511.263 80.871 508.465 76.3148C505.748 71.6787 504.389 66.5231 504.389 60.8478C504.389 55.1726 505.748 50.0968 508.465 45.6206C511.183 41.0644 514.9 37.4674 519.616 34.8296C524.332 32.1119 529.568 30.7531 535.323 30.7531C541.238 30.7531 546.513 32.1119 551.15 34.8296C555.866 37.4674 559.583 41.0644 562.3 45.6206C565.018 50.0968 566.377 55.1726 566.377 60.8478C566.377 66.5231 565.018 71.6787 562.3 76.3148C559.583 80.871 555.866 84.508 551.15 87.2257C546.513 89.8635 541.278 91.1824 535.443 91.1824ZM535.323 76.5546C538.28 76.5546 540.878 75.9152 543.116 74.6363C545.434 73.2774 547.193 71.4389 548.392 69.1209C549.671 66.7229 550.31 64.0052 550.31 60.9677C550.31 57.9303 549.671 55.2525 548.392 52.9345C547.113 50.6164 545.354 48.8179 543.116 47.539C540.878 46.1801 538.28 45.5007 535.323 45.5007C532.445 45.5007 529.887 46.1801 527.649 47.539C525.411 48.8179 523.653 50.6164 522.374 52.9345C521.095 55.2525 520.455 57.9303 520.455 60.9677C520.455 64.0052 521.095 66.7229 522.374 69.1209C523.653 71.4389 525.411 73.2774 527.649 74.6363C529.887 75.9152 532.445 76.5546 535.323 76.5546Z" fill="white"/>
<path d="M601.736 91.1824C595.821 91.1824 590.506 89.8635 585.79 87.2257C581.074 84.5879 577.357 80.9909 574.639 76.4347C571.921 71.8786 570.563 66.7629 570.563 61.0876C570.563 55.3324 571.921 50.1768 574.639 45.6206C577.357 41.0644 581.074 37.4674 585.79 34.8296C590.586 32.1119 595.901 30.7531 601.736 30.7531C606.293 30.7531 610.489 31.5923 614.326 33.2709C618.163 34.9495 621.48 37.3475 624.278 40.4649L614.206 50.6564C612.687 48.9778 610.849 47.6988 608.691 46.8196C606.612 45.9403 604.294 45.5007 601.736 45.5007C598.859 45.5007 596.261 46.1801 593.943 47.539C591.705 48.8179 589.906 50.6164 588.547 52.9345C587.269 55.1726 586.629 57.8503 586.629 60.9677C586.629 64.0052 587.269 66.7229 588.547 69.1209C589.906 71.4389 591.705 73.2774 593.943 74.6363C596.261 75.9152 598.859 76.5546 601.736 76.5546C604.374 76.5546 606.732 76.115 608.811 75.2357C610.969 74.2766 612.807 72.9177 614.326 71.1592L624.517 81.3506C621.56 84.548 618.163 86.9859 614.326 88.6645C610.489 90.3431 606.293 91.1824 601.736 91.1824Z" fill="white"/>
<path d="M184.321 139.727L178.144 115.569H181.853L186.374 133.291L190.878 115.569H194.139L198.66 133.291L203.164 115.569H206.874L200.731 139.727H196.607L192.5 123.731L188.445 139.727H184.321ZM234.473 140.176C232.84 140.176 231.304 139.854 229.866 139.209C228.428 138.554 227.163 137.651 226.07 136.5C224.977 135.35 224.12 134.021 223.499 132.514C222.877 130.996 222.567 129.374 222.567 127.648C222.567 125.923 222.877 124.306 223.499 122.799C224.12 121.281 224.977 119.947 226.07 118.796C227.163 117.646 228.428 116.749 229.866 116.104C231.304 115.449 232.84 115.121 234.473 115.121C236.118 115.121 237.66 115.449 239.098 116.104C240.536 116.749 241.801 117.646 242.894 118.796C243.987 119.947 244.838 121.281 245.448 122.799C246.069 124.306 246.379 125.923 246.379 127.648C246.379 129.374 246.069 130.996 245.448 132.514C244.838 134.021 243.987 135.35 242.894 136.5C241.801 137.651 240.536 138.554 239.098 139.209C237.66 139.854 236.118 140.176 234.473 140.176ZM234.473 136.587C235.624 136.587 236.699 136.351 237.7 135.879C238.701 135.407 239.581 134.763 240.34 133.946C241.111 133.118 241.709 132.169 242.135 131.099C242.572 130.018 242.79 128.868 242.79 127.648C242.79 126.429 242.572 125.278 242.135 124.197C241.709 123.116 241.111 122.167 240.34 121.35C239.581 120.522 238.701 119.878 237.7 119.417C236.699 118.946 235.624 118.71 234.473 118.71C233.323 118.71 232.247 118.946 231.246 119.417C230.246 119.889 229.36 120.539 228.589 121.367C227.83 122.184 227.232 123.133 226.794 124.214C226.369 125.284 226.156 126.429 226.156 127.648C226.156 128.879 226.369 130.035 226.794 131.117C227.232 132.186 227.83 133.135 228.589 133.964C229.36 134.78 230.246 135.425 231.246 135.896C232.247 136.356 233.323 136.587 234.473 136.587ZM263.953 139.727V115.569H272.839C274.139 115.569 275.312 115.892 276.359 116.536C277.418 117.18 278.252 118.048 278.861 119.141C279.482 120.223 279.793 121.431 279.793 122.765C279.793 123.892 279.58 124.922 279.155 125.854C278.729 126.785 278.142 127.579 277.395 128.235C276.647 128.891 275.784 129.362 274.806 129.65L280.639 139.727H276.497L270.837 129.978H267.524V139.727H263.953ZM267.524 126.389H272.459C273.138 126.389 273.759 126.216 274.323 125.871C274.898 125.526 275.353 125.066 275.686 124.49C276.031 123.915 276.204 123.265 276.204 122.541C276.204 121.816 276.031 121.166 275.686 120.591C275.353 120.004 274.898 119.544 274.323 119.21C273.759 118.865 273.138 118.693 272.459 118.693H267.524V126.389ZM314.64 139.727H309.981L302.785 129.771L301.318 131.548V139.727H297.729V115.569H301.318V125.974L310.015 115.569H314.709L305.149 126.975L314.64 139.727ZM331.456 139.727V115.569H335.045V139.727H331.456ZM353.704 139.727V115.569H357.586L368.664 133.239V115.569H372.253V139.727H368.388L357.276 122.057V139.727H353.704ZM400.929 140.176C399.25 140.176 397.685 139.854 396.236 139.209C394.798 138.554 393.538 137.651 392.457 136.5C391.387 135.338 390.547 133.998 389.938 132.48C389.339 130.961 389.04 129.345 389.04 127.631C389.04 125.825 389.362 124.163 390.007 122.644C390.651 121.126 391.531 119.808 392.647 118.693C393.763 117.565 395.034 116.691 396.46 116.07C397.898 115.449 399.405 115.138 400.981 115.138C402.764 115.138 404.478 115.552 406.123 116.38C407.768 117.209 409.2 118.451 410.42 120.108L407.21 121.85C406.382 120.815 405.416 120.033 404.311 119.504C403.219 118.974 402.097 118.71 400.947 118.71C399.831 118.71 398.772 118.94 397.772 119.4C396.771 119.849 395.885 120.481 395.114 121.298C394.344 122.103 393.734 123.053 393.285 124.145C392.848 125.227 392.629 126.406 392.629 127.683C392.629 128.914 392.842 130.07 393.268 131.151C393.705 132.232 394.303 133.181 395.062 133.998C395.833 134.803 396.719 135.436 397.72 135.896C398.732 136.356 399.813 136.587 400.964 136.587C401.815 136.587 402.632 136.449 403.414 136.172C404.196 135.896 404.921 135.505 405.588 134.999C406.267 134.481 406.859 133.866 407.366 133.153C407.872 132.439 408.274 131.646 408.574 130.771H403.449V127.596H412.784C412.807 129.322 412.508 130.944 411.887 132.462C411.277 133.981 410.426 135.321 409.333 136.483C408.251 137.633 406.992 138.536 405.554 139.192C404.116 139.848 402.574 140.176 400.929 140.176ZM461.954 140.176C460.275 140.176 458.71 139.854 457.261 139.209C455.823 138.554 454.563 137.651 453.482 136.5C452.412 135.338 451.572 133.998 450.963 132.48C450.364 130.961 450.065 129.345 450.065 127.631C450.065 125.825 450.387 124.163 451.032 122.644C451.676 121.126 452.556 119.808 453.672 118.693C454.788 117.565 456.059 116.691 457.485 116.07C458.923 115.449 460.43 115.138 462.006 115.138C463.789 115.138 465.503 115.552 467.148 116.38C468.793 117.209 470.225 118.451 471.445 120.108L468.235 121.85C467.407 120.815 466.441 120.033 465.336 119.504C464.244 118.974 463.122 118.71 461.972 118.71C460.856 118.71 459.797 118.94 458.797 119.4C457.796 119.849 456.91 120.481 456.139 121.298C455.369 122.103 454.759 123.053 454.31 124.145C453.873 125.227 453.654 126.406 453.654 127.683C453.654 128.914 453.867 130.07 454.293 131.151C454.73 132.232 455.328 133.181 456.088 133.998C456.858 134.803 457.744 135.436 458.745 135.896C459.757 136.356 460.839 136.587 461.989 136.587C462.84 136.587 463.657 136.449 464.439 136.172C465.221 135.896 465.946 135.505 466.613 134.999C467.292 134.481 467.885 133.866 468.391 133.153C468.897 132.439 469.299 131.646 469.599 130.771H464.474V127.596H473.809C473.832 129.322 473.533 130.944 472.912 132.462C472.302 133.981 471.451 135.321 470.358 136.483C469.276 137.633 468.017 138.536 466.579 139.192C465.141 139.848 463.599 140.176 461.954 140.176ZM491.055 139.727V115.569H499.941C501.241 115.569 502.414 115.892 503.461 116.536C504.52 117.18 505.354 118.048 505.963 119.141C506.585 120.223 506.895 121.431 506.895 122.765C506.895 123.892 506.682 124.922 506.257 125.854C505.831 126.785 505.244 127.579 504.497 128.235C503.749 128.891 502.886 129.362 501.908 129.65L507.741 139.727H503.599L497.94 129.978H494.627V139.727H491.055ZM494.627 126.389H499.562C500.24 126.389 500.861 126.216 501.425 125.871C502 125.526 502.455 125.066 502.788 124.49C503.133 123.915 503.306 123.265 503.306 122.541C503.306 121.816 503.133 121.166 502.788 120.591C502.455 120.004 502 119.544 501.425 119.21C500.861 118.865 500.24 118.693 499.562 118.693H494.627V126.389ZM535.205 140.176C533.571 140.176 532.036 139.854 530.598 139.209C529.16 138.554 527.894 137.651 526.802 136.5C525.709 135.35 524.852 134.021 524.23 132.514C523.609 130.996 523.299 129.374 523.299 127.648C523.299 125.923 523.609 124.306 524.23 122.799C524.852 121.281 525.709 119.947 526.802 118.796C527.894 117.646 529.16 116.749 530.598 116.104C532.036 115.449 533.571 115.121 535.205 115.121C536.85 115.121 538.391 115.449 539.829 116.104C541.267 116.749 542.533 117.646 543.626 118.796C544.718 119.947 545.57 121.281 546.179 122.799C546.801 124.306 547.111 125.923 547.111 127.648C547.111 129.374 546.801 130.996 546.179 132.514C545.57 134.021 544.718 135.35 543.626 136.5C542.533 137.651 541.267 138.554 539.829 139.209C538.391 139.854 536.85 140.176 535.205 140.176ZM535.205 136.587C536.355 136.587 537.431 136.351 538.432 135.879C539.433 135.407 540.313 134.763 541.072 133.946C541.843 133.118 542.441 132.169 542.866 131.099C543.303 130.018 543.522 128.868 543.522 127.648C543.522 126.429 543.303 125.278 542.866 124.197C542.441 123.116 541.843 122.167 541.072 121.35C540.313 120.522 539.433 119.878 538.432 119.417C537.431 118.946 536.355 118.71 535.205 118.71C534.055 118.71 532.979 118.946 531.978 119.417C530.977 119.889 530.092 120.539 529.321 121.367C528.562 122.184 527.963 123.133 527.526 124.214C527.101 125.284 526.888 126.429 526.888 127.648C526.888 128.879 527.101 130.035 527.526 131.117C527.963 132.186 528.562 133.135 529.321 133.964C530.092 134.78 530.977 135.425 531.978 135.896C532.979 136.356 534.055 136.587 535.205 136.587ZM573.565 140.176C571.632 140.176 569.947 139.704 568.509 138.761C567.083 137.817 565.972 136.552 565.179 134.965C564.396 133.366 564.005 131.594 564.005 129.65V115.569H567.594V129.65C567.594 130.915 567.825 132.077 568.285 133.135C568.756 134.182 569.435 135.022 570.321 135.655C571.218 136.276 572.299 136.587 573.565 136.587C574.865 136.587 575.958 136.276 576.843 135.655C577.729 135.022 578.396 134.182 578.845 133.135C579.305 132.077 579.535 130.915 579.535 129.65V115.569H583.124V129.65C583.124 131.111 582.9 132.48 582.451 133.757C582.003 135.022 581.359 136.138 580.519 137.104C579.679 138.071 578.672 138.824 577.499 139.365C576.326 139.905 575.014 140.176 573.565 140.176ZM600.719 139.727V115.569H609.036C610.336 115.569 611.509 115.892 612.556 116.536C613.615 117.18 614.454 118.048 615.076 119.141C615.708 120.234 616.025 121.442 616.025 122.765C616.025 124.111 615.703 125.33 615.058 126.423C614.426 127.504 613.58 128.367 612.522 129.011C611.463 129.656 610.302 129.978 609.036 129.978H604.308V139.727H600.719ZM604.308 126.389H608.674C609.364 126.389 609.991 126.216 610.555 125.871C611.13 125.526 611.584 125.066 611.918 124.49C612.263 123.915 612.436 123.265 612.436 122.541C612.436 121.816 612.263 121.166 611.918 120.591C611.584 120.004 611.13 119.544 610.555 119.21C609.991 118.865 609.364 118.693 608.674 118.693H604.308V126.389Z" fill="white"/>
<path d="M632.738 13.6516C632.738 11.2868 633.68 9.01895 635.355 7.34684C637.031 5.67473 639.304 4.73535 641.674 4.73535C644.044 4.73535 646.316 5.67473 647.992 7.34684C649.668 9.01895 650.609 11.2868 650.609 13.6516C650.609 16.0163 649.668 18.2842 647.992 19.9563C646.316 21.6284 644.044 22.5678 641.674 22.5678C639.304 22.5678 637.031 21.6284 635.355 19.9563C633.68 18.2842 632.738 16.0163 632.738 13.6516ZM649.575 13.6516C649.575 11.5605 648.743 9.55505 647.261 8.07643C645.779 6.59782 643.769 5.76714 641.674 5.76714C639.578 5.76714 637.568 6.59782 636.087 8.07643C634.605 9.55505 633.772 11.5605 633.772 13.6516C633.751 14.6955 633.941 15.7329 634.33 16.7022C634.719 17.6715 635.299 18.5529 636.036 19.2939C636.773 20.0349 637.652 20.6204 638.621 21.0156C639.589 21.4108 640.627 21.6076 641.674 21.5944C642.726 21.5996 643.77 21.3959 644.743 20.9952C645.716 20.5944 646.599 20.0046 647.342 19.2601C648.084 18.5156 648.671 17.6311 649.068 16.6583C649.465 15.6854 649.664 14.6435 649.653 13.5932L649.575 13.6516ZM637.986 8.84304H642.493C644.659 8.84304 646.239 9.81641 646.239 11.9189C646.269 12.5696 646.074 13.2109 645.687 13.7354C645.3 14.2599 644.744 14.6358 644.112 14.8002L646.395 18.0513H643.683L641.732 15.1311H640.289V18.0513H638.045L637.986 8.84304ZM642.181 13.3401C643.215 13.3401 643.781 12.8339 643.781 12.0747C643.781 11.3154 643.157 10.7898 642.181 10.7898H640.23V13.3401H642.181Z" fill="#404040"/>
<path d="M905.441 9.29654C905.441 4.16219 909.604 0 914.738 0H979.814L1017 37.1862V139.448C1017 144.583 1012.84 148.745 1007.7 148.745H914.738C909.604 148.745 905.441 144.583 905.441 139.448V9.29654Z" fill="#1F8197"/>
<path d="M933.332 102.553V77.0793L947.948 102.553H933.332Z" fill="white"/>
<path d="M933.332 113.629V123.832C933.332 127.323 936.161 130.152 939.652 130.152H963.784L954.303 113.629H933.332Z" fill="white"/>
<path d="M967.074 113.629L975.689 128.644C983.589 126.147 990.186 120.716 994.2 113.629H967.074Z" fill="white"/>
<path d="M998.036 102.553C998.281 100.942 998.408 99.293 998.408 97.6141C998.408 79.6439 983.84 65.0762 965.87 65.0762H939.652C939.508 65.0762 939.365 65.081 939.224 65.0904L960.718 102.553H998.036Z" fill="white"/>
<path d="M1011 234C1011 242.284 1004.28 249 996 249C987.716 249 981 242.284 981 234C981 225.716 987.716 219 996 219C1004.28 219 1011 225.716 1011 234Z" fill="#F1FCFE"/>
<g filter="url(#filter0_d_4345_8309)">
<rect x="902" y="249" width="30" height="30" rx="15" transform="rotate(-180 902 249)" fill="#D2F4FD"/>
</g>
<rect x="793" y="249" width="30" height="30" rx="15" transform="rotate(-180 793 249)" fill="#ABEBFC"/>
<rect x="684" y="249" width="30" height="30" rx="15" transform="rotate(-180 684 249)" fill="#7AD7EC"/>
<rect x="575" y="249" width="30" height="30" rx="15" transform="rotate(-180 575 249)" fill="#55BCD4"/>
<rect x="466" y="249" width="30" height="30" rx="15" transform="rotate(-180 466 249)" fill="#379FB6"/>
<rect x="357" y="249" width="30" height="30" rx="15" transform="rotate(-180 357 249)" fill="#1F8197"/>
<rect x="248" y="249" width="30" height="30" rx="15" transform="rotate(-180 248 249)" fill="#196D80"/>
<rect x="139" y="249" width="30" height="30" rx="15" transform="rotate(-180 139 249)" fill="#195866"/>
<path d="M30 234C30 242.284 23.2843 249 15 249C6.71573 249 1.51218e-06 242.284 3.37756e-06 234C5.24293e-06 225.716 6.71574 219 15 219C23.2843 219 30 225.716 30 234Z" fill="#194954"/>
<defs>
<filter id="filter0_d_4345_8309" x="870" y="218" width="34" height="34" filterUnits="userSpaceOnUse" color-interpolation-filters="sRGB">
<feFlood flood-opacity="0" result="BackgroundImageFix"/>
<feColorMatrix in="SourceAlpha" type="matrix" values="0 0 0 0 0 0 0 0 0 0 0 0 0 0 0 0 0 0 127 0" result="hardAlpha"/>
<feOffset dy="1"/>
<feGaussianBlur stdDeviation="1"/>
<feColorMatrix type="matrix" values="0 0 0 0 0 0 0 0 0 0 0 0 0 0 0 0 0 0 0.05 0"/>
<feBlend mode="normal" in2="BackgroundImageFix" result="effect1_dropShadow_4345_8309"/>
<feBlend mode="normal" in="SourceGraphic" in2="effect1_dropShadow_4345_8309" result="shape"/>
</filter>
</defs>
</svg>
