<svg width="800" height="450" viewBox="0 0 800 450" fill="none" xmlns="http://www.w3.org/2000/svg">
<rect width="800" height="450" fill="#D2F4FD"/>
<path d="M158.821 171.024L194.651 233.208H256.856C257.265 230.534 257.477 227.797 257.477 225.01C257.477 195.181 233.194 171 203.239 171H159.535C159.295 171 159.057 171.008 158.821 171.024Z" fill="#1F8197"/>
<path d="M149 190.925L173.364 233.208H149V190.925Z" fill="#1F8197"/>
<path d="M149 251.594V268.53C149 274.324 153.716 279.02 159.535 279.02H199.761L183.958 251.594H149Z" fill="#1F8197"/>
<path d="M219.606 276.518C232.775 272.372 243.771 263.357 250.463 251.594H205.245L219.606 276.518Z" fill="#1F8197"/>
<path d="M284.746 255.852L310.889 191.184H321.143L347.194 255.852H333.799L313.66 202.775H318.279L297.864 255.852H284.746ZM298.603 243.802V233.315H333.522V243.802H298.603Z" fill="#404040"/>
<path d="M367.318 256.864C364.793 256.864 362.298 256.527 359.835 255.852C357.433 255.178 355.216 254.258 353.184 253.093C351.151 251.866 349.396 250.394 347.918 248.677L355.124 241.41C356.663 243.127 358.449 244.415 360.482 245.274C362.514 246.132 364.762 246.562 367.225 246.562C369.196 246.562 370.674 246.286 371.659 245.734C372.706 245.182 373.23 244.354 373.23 243.25C373.23 242.023 372.676 241.073 371.567 240.398C370.52 239.724 369.134 239.172 367.41 238.743C365.686 238.252 363.869 237.731 361.96 237.179C360.112 236.565 358.326 235.799 356.602 234.879C354.877 233.898 353.461 232.579 352.352 230.923C351.305 229.206 350.782 226.999 350.782 224.3C350.782 221.479 351.459 219.026 352.814 216.941C354.231 214.856 356.232 213.231 358.819 212.066C361.405 210.9 364.454 210.318 367.964 210.318C371.659 210.318 374.985 210.962 377.941 212.25C380.959 213.538 383.453 215.469 385.424 218.045L378.126 225.312C376.771 223.656 375.231 222.46 373.507 221.725C371.844 220.989 370.027 220.621 368.057 220.621C366.271 220.621 364.885 220.897 363.9 221.449C362.976 222 362.514 222.767 362.514 223.748C362.514 224.852 363.037 225.711 364.084 226.324C365.193 226.937 366.609 227.489 368.334 227.98C370.058 228.409 371.844 228.93 373.692 229.544C375.601 230.096 377.387 230.893 379.05 231.935C380.774 232.978 382.16 234.358 383.207 236.075C384.315 237.792 384.869 240 384.869 242.698C384.869 247.052 383.299 250.517 380.158 253.093C377.017 255.607 372.737 256.864 367.318 256.864Z" fill="#404040"/>
<path d="M411.783 256.772C407.225 256.772 403.13 255.76 399.496 253.737C395.863 251.713 392.999 248.953 390.905 245.458C388.811 241.962 387.764 238.037 387.764 233.683C387.764 229.268 388.811 225.312 390.905 221.817C392.999 218.321 395.863 215.561 399.496 213.538C403.191 211.452 407.287 210.41 411.783 210.41C415.293 210.41 418.526 211.054 421.482 212.342C424.438 213.629 426.994 215.469 429.15 217.861L421.39 225.68C420.22 224.392 418.803 223.411 417.14 222.736C415.539 222.062 413.753 221.725 411.783 221.725C409.565 221.725 407.564 222.246 405.778 223.288C404.054 224.27 402.668 225.649 401.621 227.428C400.636 229.145 400.143 231.199 400.143 233.591C400.143 235.922 400.636 238.007 401.621 239.846C402.668 241.625 404.054 243.035 405.778 244.078C407.564 245.059 409.565 245.55 411.783 245.55C413.815 245.55 415.632 245.212 417.233 244.538C418.896 243.802 420.312 242.759 421.482 241.41L429.334 249.229C427.056 251.682 424.438 253.553 421.482 254.841C418.526 256.128 415.293 256.772 411.783 256.772Z" fill="#404040"/>
<path d="M433.878 255.852V211.422H446.072V255.852H433.878ZM439.975 204.247C438.004 204.247 436.372 203.603 435.079 202.315C433.786 200.966 433.139 199.31 433.139 197.347C433.139 195.446 433.786 193.821 435.079 192.472C436.372 191.123 438.004 190.448 439.975 190.448C442.007 190.448 443.64 191.123 444.871 192.472C446.165 193.821 446.811 195.446 446.811 197.347C446.811 199.31 446.165 200.966 444.871 202.315C443.64 203.603 442.007 204.247 439.975 204.247Z" fill="#404040"/>
<path d="M454.483 255.852V211.422H466.677V255.852H454.483ZM460.58 204.247C458.609 204.247 456.977 203.603 455.684 202.315C454.39 200.966 453.744 199.31 453.744 197.347C453.744 195.446 454.39 193.821 455.684 192.472C456.977 191.123 458.609 190.448 460.58 190.448C462.612 190.448 464.244 191.123 465.476 192.472C466.769 193.821 467.416 195.446 467.416 197.347C467.416 199.31 466.769 200.966 465.476 202.315C464.244 203.603 462.612 204.247 460.58 204.247Z" fill="#404040"/>
<path d="M484.272 255.852V244.722H500.808C504.996 244.722 508.66 243.863 511.801 242.146C514.942 240.368 517.374 237.884 519.099 234.695C520.885 231.506 521.778 227.734 521.778 223.38C521.778 219.149 520.885 215.469 519.099 212.342C517.313 209.153 514.849 206.7 511.709 204.983C508.568 203.204 504.934 202.315 500.808 202.315H483.995V191.184H500.993C505.796 191.184 510.23 191.981 514.295 193.576C518.421 195.17 521.993 197.439 525.011 200.383C528.09 203.265 530.461 206.669 532.124 210.594C533.848 214.519 534.711 218.812 534.711 223.472C534.711 228.133 533.848 232.457 532.124 236.443C530.461 240.368 528.121 243.802 525.103 246.746C522.086 249.628 518.514 251.866 514.387 253.461C510.323 255.055 505.92 255.852 501.177 255.852H484.272ZM475.681 255.852V191.184H488.245V255.852H475.681Z" fill="#404040"/>
<path d="M561.361 256.772C556.866 256.772 552.801 255.76 549.167 253.737C545.596 251.652 542.732 248.861 540.576 245.366C538.482 241.809 537.435 237.853 537.435 233.499C537.435 229.145 538.482 225.251 540.576 221.817C542.67 218.321 545.534 215.561 549.167 213.538C552.801 211.452 556.835 210.41 561.269 210.41C565.826 210.41 569.891 211.452 573.463 213.538C577.096 215.561 579.96 218.321 582.054 221.817C584.148 225.251 585.195 229.145 585.195 233.499C585.195 237.853 584.148 241.809 582.054 245.366C579.96 248.861 577.096 251.652 573.463 253.737C569.891 255.76 565.857 256.772 561.361 256.772ZM561.269 245.55C563.548 245.55 565.549 245.059 567.274 244.078C569.06 243.035 570.414 241.625 571.338 239.846C572.324 238.007 572.816 235.922 572.816 233.591C572.816 231.261 572.324 229.206 571.338 227.428C570.353 225.649 568.998 224.27 567.274 223.288C565.549 222.246 563.548 221.725 561.269 221.725C559.052 221.725 557.081 222.246 555.357 223.288C553.632 224.27 552.278 225.649 551.292 227.428C550.307 229.206 549.814 231.261 549.814 233.591C549.814 235.922 550.307 238.007 551.292 239.846C552.278 241.625 553.632 243.035 555.357 244.078C557.081 245.059 559.052 245.55 561.269 245.55Z" fill="#404040"/>
<path d="M612.438 256.772C607.881 256.772 603.785 255.76 600.152 253.737C596.518 251.713 593.655 248.953 591.561 245.458C589.467 241.962 588.42 238.037 588.42 233.683C588.42 229.268 589.467 225.312 591.561 221.817C593.655 218.321 596.518 215.561 600.152 213.538C603.847 211.452 607.942 210.41 612.438 210.41C615.949 210.41 619.182 211.054 622.138 212.342C625.094 213.629 627.65 215.469 629.805 217.861L622.045 225.68C620.875 224.392 619.459 223.411 617.796 222.736C616.195 222.062 614.409 221.725 612.438 221.725C610.221 221.725 608.22 222.246 606.434 223.288C604.709 224.27 603.324 225.649 602.277 227.428C601.291 229.145 600.799 231.199 600.799 233.591C600.799 235.922 601.291 238.007 602.277 239.846C603.324 241.625 604.709 243.035 606.434 244.078C608.22 245.059 610.221 245.55 612.438 245.55C614.47 245.55 616.287 245.212 617.888 244.538C619.551 243.802 620.968 242.759 622.138 241.41L629.99 249.229C627.711 251.682 625.094 253.553 622.138 254.841C619.182 256.128 615.949 256.772 612.438 256.772Z" fill="#404040"/>
<path d="M636.496 197.289C636.496 195.475 637.221 193.735 638.513 192.452C639.804 191.169 641.555 190.448 643.381 190.448C645.206 190.448 646.958 191.169 648.249 192.452C649.54 193.735 650.265 195.475 650.265 197.289V197.289C650.265 199.103 649.54 200.843 648.249 202.126C646.958 203.409 645.206 204.13 643.381 204.13C641.555 204.13 639.804 203.409 638.513 202.126C637.221 200.843 636.496 199.103 636.496 197.289ZM649.468 197.289C649.468 195.685 648.827 194.146 647.685 193.012C646.544 191.877 644.995 191.24 643.381 191.24C641.766 191.24 640.218 191.877 639.076 193.012C637.934 194.146 637.293 195.685 637.293 197.289V197.289C637.277 198.09 637.423 198.886 637.722 199.629C638.022 200.373 638.469 201.049 639.037 201.618C639.605 202.186 640.282 202.636 641.028 202.939C641.775 203.242 642.574 203.393 643.381 203.383C644.192 203.387 644.995 203.231 645.745 202.923C646.495 202.616 647.175 202.163 647.747 201.592C648.32 201.021 648.772 200.342 649.077 199.596C649.383 198.849 649.537 198.05 649.529 197.244L649.468 197.289ZM640.54 193.6H644.012C645.68 193.6 646.898 194.347 646.898 195.96C646.921 196.459 646.771 196.951 646.473 197.353C646.175 197.756 645.746 198.044 645.26 198.17L647.018 200.664H644.929L643.426 198.424H642.313V200.664H640.585L640.54 193.6ZM643.771 197.05C644.568 197.05 645.004 196.662 645.004 196.079C645.004 195.497 644.523 195.093 643.771 195.093H642.268V197.05H643.771Z" fill="#404040"/>
</svg>
