<svg width="800" height="450" viewBox="0 0 800 450" fill="none" xmlns="http://www.w3.org/2000/svg">
<rect width="800" height="450" fill="#161730"/>
<path opacity="0.8" fill-rule="evenodd" clip-rule="evenodd" d="M112 344.644V277.273H137.957C144.104 277.273 149.611 278.775 153.62 282.212C157.698 285.707 159.845 290.876 159.845 297.372C159.845 303.079 158.064 308.137 154.182 311.747C150.326 315.333 144.766 317.146 137.875 317.146H125.595V344.644H112ZM122.825 341.873H114.77V280.044H137.957C149.428 280.044 157.075 285.657 157.075 297.372C157.075 307.623 150.729 314.376 137.875 314.376H122.825V341.873ZM125.595 290.136V304.283H136.248C139.855 304.283 142.381 303.559 143.937 302.431C145.351 301.406 146.25 299.848 146.25 297.291C146.25 294.963 145.512 293.336 144.185 292.229C142.78 291.056 140.316 290.136 136.248 290.136H125.595ZM163.417 344.644V296.392H176.443V299.347C177.586 298.394 178.833 297.584 180.159 296.972L180.173 296.966L180.187 296.96C183.039 295.681 185.832 295.334 189.13 295.334H191.9V306.245C192.713 304.846 193.658 303.548 194.729 302.366C198.912 297.75 204.858 295.09 211.823 295.09C218.79 295.09 224.702 297.753 228.845 302.378C232.964 306.975 235.176 313.324 235.176 320.477C235.176 334.437 226.121 345.946 211.823 345.946C197.551 345.946 188.307 334.468 188.307 320.477C188.307 316.352 189.056 312.497 190.485 309.092H187.421C184.427 309.092 181.824 310.201 179.965 312.122C178.11 314.04 176.85 316.922 176.85 320.721V344.644H163.417ZM176.443 303.188C175.356 304.396 174.414 305.768 173.673 307.216V299.162H166.188V341.873H174.079V320.721C174.079 311.854 180.018 306.321 187.421 306.321H189.13V298.105C188.139 298.105 187.224 298.138 186.359 298.218C184.526 298.388 182.923 298.769 181.32 299.488C179.525 300.316 177.86 301.613 176.443 303.188ZM204.458 330.274C206.062 332.33 208.424 333.571 211.741 333.571C215.058 333.571 217.421 332.33 219.025 330.274C220.696 328.132 221.744 324.835 221.744 320.477C221.744 316.165 220.699 312.889 219.028 310.755C217.423 308.706 215.059 307.465 211.741 307.465C208.424 307.465 206.059 308.706 204.455 310.755C202.784 312.889 201.739 316.165 201.739 320.477C201.739 324.835 202.786 328.132 204.458 330.274ZM262.939 344.983L260.409 345.203C258.496 345.369 256.944 345.457 255.45 345.457C250.26 345.457 246.097 344.367 243.286 341.57C240.466 338.764 239.582 334.814 239.582 330.484V308.685H233.887V297.205H236.657C238.878 297.205 239.288 296.71 239.393 296.573C239.672 296.204 239.989 295.269 239.989 292.735V285.409H253.014V296.392H262.533V308.685H253.014V328.857C253.014 331.474 253.495 332.219 253.754 332.467C254.046 332.746 254.848 333.164 257.403 333.164C258.119 333.164 258.858 333.164 259.985 333.089L262.939 332.892V344.983ZM250.244 288.179V299.162H259.762V305.915H250.244V328.857C250.244 334.387 252.114 335.934 257.398 335.935C257.4 335.935 257.401 335.935 257.403 335.935C258.135 335.935 258.949 335.935 260.169 335.853V342.443C258.298 342.606 256.833 342.687 255.45 342.687C245.688 342.687 242.352 338.538 242.352 330.484V305.915H236.657V299.976C241.701 299.976 242.759 297.779 242.759 292.735V288.179H250.244ZM308.586 320.477C308.586 334.437 299.531 345.946 285.233 345.946C270.961 345.946 261.717 334.468 261.717 320.477C261.717 313.31 263.978 306.959 268.139 302.366C272.322 297.75 278.268 295.09 285.233 295.09C292.2 295.09 298.111 297.753 302.255 302.378C306.374 306.975 308.586 313.324 308.586 320.477ZM277.868 330.274C279.472 332.33 281.834 333.571 285.151 333.571C288.468 333.571 290.83 332.33 292.435 330.274C294.106 328.132 295.153 324.835 295.153 320.477C295.153 316.165 294.109 312.889 292.438 310.755C290.833 308.706 288.469 307.465 285.151 307.465C281.834 307.465 279.469 308.706 277.865 310.755C276.194 312.889 275.149 316.165 275.149 320.477C275.149 324.835 276.196 328.132 277.868 330.274ZM336.349 344.983L333.819 345.203C331.905 345.369 330.354 345.457 328.86 345.457C323.669 345.457 319.507 344.367 316.696 341.57C313.876 338.764 312.992 334.814 312.992 330.484V308.685H307.297V297.205H310.067C312.288 297.205 312.698 296.71 312.802 296.573C313.082 296.204 313.398 295.269 313.398 292.735V285.409H326.424V296.392H347.842L357.236 324.34L366.552 296.392H393.737V298.674C397.162 296.407 401.235 295.09 405.203 295.09C411.787 295.09 417.427 297.67 421.385 302.253C425.311 306.801 427.418 313.122 427.418 320.396C427.418 327.729 425.365 334.101 421.512 338.692C417.622 343.326 412.056 345.946 405.529 345.946C401.514 345.946 397.375 344.749 393.981 342.657V364.169H380.548V298.315L364.889 338.995L356.293 364.169H342.775L350.469 341.919L335.943 303.786V308.685H326.424V328.857C326.424 331.474 326.905 332.219 327.164 332.467C327.456 332.746 328.258 333.164 330.813 333.164C331.529 333.164 332.268 333.164 333.395 333.089L336.349 332.892V344.983ZM353.417 341.873L346.664 361.399H354.312L362.284 338.05L377.254 299.162H368.549L358.786 328.45L357.322 332.436H357.159L355.695 328.45L345.851 299.162H337.146L353.417 341.873ZM391.21 336.504C391.963 337.528 392.903 338.467 393.981 339.296C397.097 341.693 401.358 343.175 405.529 343.175C417 343.175 424.647 334.063 424.647 320.396C424.647 306.891 416.837 297.861 405.203 297.861C401.189 297.861 396.987 299.455 393.737 302.109C392.705 302.951 391.77 303.9 390.966 304.938V299.162H383.319V361.399H391.21V336.504ZM323.654 288.179V299.162H333.172V305.915H323.654V328.857C323.654 334.387 325.524 335.934 330.808 335.935C330.81 335.935 330.811 335.935 330.813 335.935C331.545 335.935 332.358 335.935 333.579 335.853V342.443C331.708 342.606 330.243 342.687 328.86 342.687C319.098 342.687 315.762 338.538 315.762 330.484V305.915H310.067V299.976C315.111 299.976 316.169 297.779 316.169 292.735V288.179H323.654ZM396.745 330.727C398.434 332.409 400.951 333.489 404.227 333.489C407.125 333.489 409.464 332.308 411.138 330.224C412.852 328.089 413.985 324.843 413.985 320.64C413.985 316.299 412.844 312.972 411.11 310.792C409.421 308.669 407.048 307.465 404.064 307.465C400.893 307.465 398.444 308.581 396.773 310.389C395.083 312.216 393.981 314.979 393.981 318.606V323.325C393.981 326.552 395.056 329.046 396.745 330.727ZM473.889 326.737L473.445 329.894C472.433 337.077 464.964 345.946 451.746 345.946C444.369 345.946 438.481 343.176 434.483 338.419C430.536 333.723 428.637 327.341 428.637 320.396C428.637 313.308 430.629 306.981 434.584 302.38C438.581 297.731 444.377 295.09 451.42 295.09C457.648 295.09 463.185 297.151 467.185 300.973C471.198 304.807 473.472 310.232 473.472 316.572V326.007L442.728 326.087C443.254 328.147 444.095 329.762 445.155 330.932C446.629 332.56 448.741 333.571 451.746 333.571C456.644 333.571 459.55 330.509 460.3 328.527L460.977 326.737H473.889ZM439.883 326.094C441.258 332.394 445.249 336.341 451.746 336.341C457.847 336.341 461.752 332.518 462.891 329.508H470.701C470.577 330.393 470.324 331.329 469.942 332.278C467.835 337.518 461.802 343.175 451.746 343.175C438.485 343.175 431.407 333.331 431.407 320.396C431.407 307.216 438.81 297.861 451.42 297.861C462.647 297.861 470.701 305.264 470.701 316.572V323.243L439.461 323.325C439.551 324.291 439.692 325.215 439.883 326.094ZM444.952 309.689C443.881 310.689 442.992 312.142 442.573 314.208H459.874C459.471 312.115 458.609 310.656 457.575 309.661C456.109 308.252 453.969 307.465 451.339 307.465C448.705 307.465 446.487 308.255 444.952 309.689ZM462.686 314.208C461.662 307.679 456.945 304.694 451.339 304.694C445.733 304.694 440.825 307.679 439.757 314.208C439.617 315.07 439.543 315.993 439.543 316.979H462.891C462.891 315.993 462.821 315.07 462.686 314.208ZM122.825 307.054H136.248C144.058 307.054 149.021 303.962 149.021 297.291C149.021 291.352 145.116 287.366 136.248 287.366H122.825V307.054ZM232.405 320.477C232.405 333.25 224.27 343.175 211.823 343.175C199.375 343.175 191.077 333.25 191.077 320.477C191.077 307.298 199.375 297.861 211.823 297.861C224.27 297.861 232.405 307.298 232.405 320.477ZM198.969 320.477C198.969 329.996 203.525 336.341 211.741 336.341C219.958 336.341 224.514 329.996 224.514 320.477C224.514 311.04 219.958 304.694 211.741 304.694C203.525 304.694 198.969 311.04 198.969 320.477ZM305.815 320.477C305.815 333.25 297.68 343.175 285.233 343.175C272.785 343.175 264.487 333.25 264.487 320.477C264.487 307.298 272.785 297.861 285.233 297.861C297.68 297.861 305.815 307.298 305.815 320.477ZM272.379 320.477C272.379 329.996 276.934 336.341 285.151 336.341C293.368 336.341 297.924 329.996 297.924 320.477C297.924 311.04 293.368 304.694 285.151 304.694C276.934 304.694 272.379 311.04 272.379 320.477ZM391.21 323.325C391.21 331.053 396.417 336.26 404.227 336.26C411.712 336.26 416.756 329.996 416.756 320.64C416.756 311.04 411.712 304.694 404.064 304.694C396.336 304.694 391.21 310.226 391.21 318.606V323.325Z" fill="#FF0080"/>
<path fill-rule="evenodd" clip-rule="evenodd" d="M547.195 294.438H514.653V306.47H543.209V319.902H514.653V348.457H500.977V281.087H547.195V294.438ZM511.883 345.687H503.747V283.857H544.425V291.667H511.883V309.24H540.438V317.131H511.883V345.687ZM549.974 329.009C549.974 341.212 555.587 346.989 565.106 346.989C569.561 346.989 573.733 345.765 576.979 342.352C578.001 341.277 578.931 339.985 579.75 338.446V345.687H587.641V302.976H579.75V326.243C579.75 335.029 574.38 340.155 567.058 340.155C562.421 340.155 557.865 338.04 557.865 328.44V302.976H549.974V329.009ZM576.979 346.07V348.457H590.412V300.205H576.979V326.243C576.979 330.068 575.82 332.816 574.14 334.587C572.467 336.351 570.053 337.384 567.058 337.384C565.117 337.384 563.678 336.94 562.688 335.944C561.686 334.937 560.636 332.854 560.636 328.44V300.205H547.203V329.009C547.203 335.487 548.688 340.739 551.884 344.397C555.134 348.12 559.771 349.759 565.106 349.759C568.361 349.759 571.643 349.172 574.645 347.573C575.457 347.141 576.236 346.641 576.979 346.07ZM594.978 348.457V300.205H608.411V302.396C612.085 299.817 616.343 298.904 619.959 298.904C625.496 298.904 630.142 300.994 633.371 304.679C636.565 308.324 638.186 313.311 638.186 318.84V348.457H624.754V321.036C624.754 317.483 623.97 315.024 622.827 313.519C621.766 312.122 620.2 311.278 617.843 311.278C615.286 311.278 612.977 312.263 611.293 314.062C609.612 315.859 608.411 318.628 608.411 322.419V348.457H594.978ZM608.411 305.957C607.386 306.91 606.448 308.05 605.64 309.403V302.976H597.749V345.687H605.64V322.419C605.64 313.633 611.254 308.508 617.843 308.508C624.108 308.508 627.525 313.226 627.525 321.036V345.687H635.416V318.84C635.416 308.833 629.558 301.674 619.959 301.674C616.204 301.674 611.825 302.781 608.411 305.957ZM675.096 281.087H688.528V348.457H675.34V346.425C671.849 348.552 667.573 349.759 663.548 349.759C657.021 349.759 651.454 347.139 647.565 342.505C643.712 337.915 641.659 331.542 641.659 324.209C641.659 316.936 643.766 310.613 647.705 306.064C651.675 301.479 657.336 298.904 663.955 298.904C667.908 298.904 671.803 300.206 675.096 302.423V281.087ZM677.867 308.752C677.05 307.697 676.117 306.734 675.096 305.882C671.943 303.252 667.949 301.674 663.955 301.674C652.24 301.674 644.43 310.704 644.43 324.209C644.43 337.877 652.077 346.989 663.548 346.989C667.737 346.989 672.152 345.494 675.34 343.079C676.425 342.257 677.367 341.329 678.111 340.318V345.687H685.758V283.857H677.867V308.752ZM672.342 334.393C674.007 332.568 675.096 329.801 675.096 326.162V321.443C675.096 318.205 674.034 315.733 672.379 314.077C670.723 312.421 668.251 311.36 665.012 311.36C662.002 311.36 659.624 312.546 657.945 314.602C656.224 316.71 655.092 319.925 655.092 324.128C655.092 328.458 656.248 331.781 658.006 333.961C659.722 336.088 662.139 337.303 665.175 337.303C668.296 337.303 670.699 336.194 672.342 334.393ZM665.175 340.073C672.823 340.073 677.867 334.541 677.867 326.162V321.443C677.867 313.715 672.741 308.589 665.012 308.589C657.365 308.589 652.321 314.772 652.321 324.128C652.321 333.728 657.447 340.073 665.175 340.073Z" fill="#009ACE"/>
<path d="M448.506 88.4726L431.357 86.3691H358.266L357.205 95.7141L372.406 100.836V167.724H374.948V99.0096L359.963 93.9606L360.536 88.9115H431.202L446.883 90.8349L465.429 125.698L446.883 154.99C446.883 154.99 425.716 160.4 417.609 162.324H399.145V167.724H401.687V164.866H417.907L418.196 164.797C422.271 163.83 429.607 161.993 435.909 160.401C439.063 159.604 441.964 158.867 444.076 158.329C445.132 158.061 445.991 157.842 446.586 157.69L448.491 157.203L468.368 125.809L448.506 88.4726Z" fill="white"/>
<path d="M401.687 198.232H399.145V209.528L414.088 214.698L413.72 219.747L387.149 219.386L360.495 219.747L359.922 214.698L374.948 209.528V198.232H372.406V207.715L357.166 212.957L358.229 222.32L387.149 221.929L416.081 222.321L416.766 212.934L401.687 207.718V198.232Z" fill="white"/>
<path fill-rule="evenodd" clip-rule="evenodd" d="M414.621 155.151L399.186 152.265V99.0497L414.621 97.0461L438.449 112.434L445.818 125.698L438.449 138.881L414.621 155.151ZM436.521 137.119L414.055 152.459L401.728 150.154V101.283L414.024 99.6872L436.535 114.224L442.908 125.694L436.521 137.119Z" fill="white"/>
<path d="M338.773 190.412C343.852 190.435 346.232 187.049 346.232 181.786C346.232 175.769 343.12 173 338.361 173H332.023L332 190.39L338.773 190.412ZM334.288 188.216V175.174H338.315C342.068 175.174 343.829 177.691 343.829 181.672C343.829 186.179 341.633 188.216 338.315 188.216H334.288Z" fill="white"/>
<path d="M353.819 190.756C357.159 190.756 358.921 188.536 359.15 186.912H356.954C356.633 187.758 355.535 188.834 353.819 188.834C351.737 188.834 350.57 187.392 350.364 185.173L359.15 185.15V183.274C359.15 180.093 356.885 178.011 353.727 178.011C350.181 178.011 348.099 180.642 348.099 184.349C348.099 187.987 350.089 190.756 353.819 190.756ZM350.387 183.388C350.387 181.008 351.92 179.933 353.704 179.933C355.489 179.933 356.954 181.008 356.954 183.388H350.387Z" fill="white"/>
<path d="M376.167 178.011C374.565 178.011 372.895 178.56 371.614 180.413C370.973 178.789 369.646 178.011 367.792 178.011C366.145 178.011 364.635 178.606 363.674 180.185V178.377H361.454V190.39H363.674V183.846C363.674 181.374 365.184 179.933 367.243 179.933C368.548 179.933 369.829 180.528 369.829 183.228V190.39H372.048V183.846C372.048 181.374 373.558 179.933 375.618 179.933C376.922 179.933 378.203 180.528 378.203 183.228V190.39H380.423V183.068C380.423 179.635 378.844 178.011 376.167 178.011Z" fill="white"/>
<path d="M388.523 190.756C392.024 190.756 394.312 187.964 394.312 184.372C394.312 180.665 392.024 178.011 388.523 178.011C385.022 178.011 382.688 180.665 382.688 184.372C382.688 187.964 385.022 190.756 388.523 190.756ZM388.5 188.834C386.189 188.834 384.908 187.049 384.908 184.372C384.908 181.718 386.189 179.933 388.5 179.933C390.811 179.933 392.092 181.718 392.092 184.372C392.092 187.049 390.811 188.834 388.5 188.834Z" fill="white"/>
<path d="M406.322 190.39H408.816L413.553 175.38L418.289 190.39H420.783L425.611 173H423.048L419.525 187.667L415.017 173H412.088L407.581 187.667L404.057 173H401.494L406.322 190.39Z" fill="white"/>
<path d="M431.087 190.756C434.427 190.756 436.189 188.536 436.418 186.912H434.222C433.901 187.758 432.803 188.834 431.087 188.834C429.005 188.834 427.838 187.392 427.632 185.173L436.418 185.15V183.274C436.418 180.093 434.153 178.011 430.995 178.011C427.449 178.011 425.367 180.642 425.367 184.349C425.367 187.987 427.357 190.756 431.087 190.756ZM427.655 183.388C427.655 181.008 429.188 179.933 430.972 179.933C432.757 179.933 434.222 181.008 434.222 183.388H427.655Z" fill="white"/>
<path d="M443.756 190.756C447.097 190.756 448.859 188.536 449.088 186.912H446.891C446.571 187.758 445.472 188.834 443.756 188.834C441.674 188.834 440.507 187.392 440.301 185.173L449.088 185.15V183.274C449.088 180.093 446.822 178.011 443.665 178.011C440.118 178.011 438.036 180.642 438.036 184.349C438.036 187.987 440.027 190.756 443.756 190.756ZM440.324 183.388C440.324 181.008 441.857 179.933 443.642 179.933C445.427 179.933 446.891 181.008 446.891 183.388H440.324Z" fill="white"/>
<path d="M460.773 190.39L455.602 184.372L460.315 178.377H457.753L453.611 183.64V173H451.392V190.39H453.611V185.035L458.21 190.39H460.773Z" fill="white"/>
</svg>
