<svg width="800" height="450" viewBox="0 0 800 450" fill="none" xmlns="http://www.w3.org/2000/svg">
<rect width="800" height="450" fill="#363A68"/>
<path d="M349.667 177.429C336.886 164.75 319.894 157.769 301.822 157.769C283.751 157.769 266.759 164.75 253.978 177.429C241.197 190.108 234.159 206.963 234.159 224.891C234.159 239.799 239.037 253.948 248.019 265.585L236.848 276.666C233.256 280.23 233.256 286.005 236.848 289.569C240.441 293.133 246.262 293.133 249.855 289.569L261.055 278.458C272.737 287.251 286.912 292.013 301.832 292.013C319.904 292.013 336.896 285.031 349.677 272.352C362.458 259.674 369.496 242.818 369.496 224.891C369.486 206.963 362.448 190.108 349.667 177.429ZM315.477 260.628C315.467 260.638 315.467 260.638 315.457 260.648C308.233 267.805 296.492 267.805 289.267 260.648C282.043 253.481 282.043 241.834 289.267 234.667C292.88 231.084 297.621 229.292 302.362 229.292C307.104 229.292 311.845 231.084 315.457 234.667C322.672 241.825 322.682 253.461 315.477 260.628ZM277.468 222.953C265.806 234.521 264.059 252.254 272.207 265.682C269.9 264.27 267.75 262.585 265.787 260.638C252.093 247.054 252.093 224.949 265.787 211.365C272.639 204.568 281.63 201.179 290.622 201.179C299.614 201.179 308.615 204.578 315.457 211.365C317.421 213.312 319.109 215.455 320.532 217.733C307.005 209.651 289.13 211.384 277.468 222.953ZM337.868 260.648C336.641 261.865 335.365 263.004 334.049 264.075C339.507 255.798 342.452 246.129 342.452 236.001C342.452 222.271 337.063 209.359 327.276 199.65C309.646 182.181 282.396 179.951 262.312 192.951C263.401 191.636 264.55 190.361 265.787 189.143C275.417 179.591 288.217 174.332 301.822 174.332C315.428 174.332 328.238 179.591 337.868 189.143C347.498 198.696 352.799 211.384 352.799 224.891C352.799 238.397 347.488 251.095 337.868 260.648Z" fill="#7E9DF4"/>
<path d="M481.541 250.764H458.807V250.248L467.2 243.305C487.618 226.439 492.82 217.675 492.82 207.392C492.82 190.828 479.136 179.98 457.668 179.98C440.431 179.98 428.19 187.829 424.479 201.111C423.213 205.659 426.619 210.167 431.38 210.167H440.352C443.444 210.167 446.124 208.181 447.155 205.299C448.725 200.917 452.583 198.541 457.668 198.541C464.363 198.541 469.124 202.66 469.124 209.466C469.124 215.757 465.06 219.827 458.453 225.251L433 246.139C427.964 250.267 425.049 256.412 425.049 262.897C425.049 266.831 428.258 270.015 432.224 270.015H486.607C490.572 270.015 493.782 266.831 493.782 262.897C493.782 256.198 488.295 250.764 481.541 250.764Z" fill="#C6D9FE"/>
<path d="M411.059 181.197C403.658 181.197 397.091 187.147 397.091 194.499V263.374C397.091 267.045 400.085 270.015 403.786 270.015H410.726C414.436 270.015 417.44 267.035 417.44 263.354V244.755V219.486V205.892V187.517C417.43 184.031 414.574 181.197 411.059 181.197Z" fill="#C6D9FE"/>
<path d="M532.772 181.197H520.698H520.688H513.758C506.356 181.197 500.349 187.147 500.349 194.499V263.374C500.349 267.045 503.343 270.015 507.043 270.015H513.983C517.694 270.015 520.698 267.035 520.698 263.354V248.553V244.755C520.698 244.142 521.198 243.645 521.817 243.645H531.898C552.316 243.645 566 231.717 566 212.592C566 193.691 552.669 181.197 532.772 181.197ZM530.494 224.92H528.453H526.951H522.259C521.414 224.92 520.727 224.257 520.698 223.42V205.892C520.698 202.893 523.495 200.458 526.951 200.458H530.485C540.222 200.458 546.073 204.967 546.073 212.601C546.073 220.187 540.232 224.92 530.494 224.92Z" fill="#C6D9FE"/>
</svg>
