<svg width="310" height="271" viewBox="0 0 310 271" fill="none" xmlns="http://www.w3.org/2000/svg">
<g clip-path="url(#clip0_5260_4430)">
<path d="M1.10416 13.8572V7.2491H5.20194V8.10738H2.10118V10.1208H4.90832V10.9758H2.10118V13.8572H1.10416ZM8.81609 11.8018V8.90112H9.78407V13.8572H8.83545V12.9989H8.78382C8.66982 13.2635 8.48698 13.484 8.2353 13.6604C7.98578 13.8346 7.67495 13.9217 7.30281 13.9217C6.98446 13.9217 6.70267 13.8518 6.45744 13.712C6.21437 13.57 6.02293 13.3603 5.88311 13.0828C5.74544 12.8053 5.67661 12.4622 5.67661 12.0535V8.90112H6.64136V11.9374C6.64136 12.2751 6.73493 12.544 6.92207 12.744C7.10922 12.944 7.35229 13.0441 7.65129 13.0441C7.83198 13.0441 8.01159 12.9989 8.19013 12.9086C8.37082 12.8182 8.52032 12.6816 8.63863 12.4988C8.75909 12.3159 8.81824 12.0836 8.81609 11.8018ZM11.6817 7.2491V13.8572H10.7169V7.2491H11.6817ZM13.5809 7.2491V13.8572H12.6161V7.2491H13.5809ZM17.5213 7.2491V13.8572H16.5565V7.2491H17.5213ZM20.5433 13.9572C20.0787 13.9572 19.6732 13.8507 19.3269 13.6378C18.9806 13.4248 18.7117 13.1269 18.5203 12.744C18.3288 12.3611 18.2331 11.9137 18.2331 11.4017C18.2331 10.8876 18.3288 10.4381 18.5203 10.053C18.7117 9.66797 18.9806 9.36898 19.3269 9.15602C19.6732 8.94307 20.0787 8.83659 20.5433 8.83659C21.008 8.83659 21.4134 8.94307 21.7598 9.15602C22.1061 9.36898 22.375 9.66797 22.5664 10.053C22.7579 10.4381 22.8536 10.8876 22.8536 11.4017C22.8536 11.9137 22.7579 12.3611 22.5664 12.744C22.375 13.1269 22.1061 13.4248 21.7598 13.6378C21.4134 13.8507 21.008 13.9572 20.5433 13.9572ZM20.5466 13.1473C20.8477 13.1473 21.0972 13.0677 21.2951 12.9086C21.493 12.7494 21.6393 12.5375 21.7339 12.2729C21.8307 12.0083 21.8791 11.7169 21.8791 11.3985C21.8791 11.0823 21.8307 10.7919 21.7339 10.5273C21.6393 10.2606 21.493 10.0466 21.2951 9.88523C21.0972 9.7239 20.8477 9.64324 20.5466 9.64324C20.2433 9.64324 19.9916 9.7239 19.7915 9.88523C19.5936 10.0466 19.4463 10.2606 19.3495 10.5273C19.2548 10.7919 19.2075 11.0823 19.2075 11.3985C19.2075 11.7169 19.2548 12.0083 19.3495 12.2729C19.4463 12.5375 19.5936 12.7494 19.7915 12.9086C19.9916 13.0677 20.2433 13.1473 20.5466 13.1473ZM25.6449 15.819C25.2513 15.819 24.9125 15.7673 24.6286 15.6641C24.3468 15.5608 24.1166 15.4242 23.9381 15.2543C23.7595 15.0844 23.6262 14.8983 23.538 14.6961L24.3672 14.3541C24.4253 14.4487 24.5027 14.5487 24.5995 14.6541C24.6985 14.7617 24.8318 14.8531 24.9996 14.9284C25.1696 15.0037 25.3879 15.0413 25.6546 15.0413C26.0203 15.0413 26.3225 14.9521 26.5613 14.7735C26.8001 14.5971 26.9194 14.3154 26.9194 13.9282V12.9537H26.8581C26.8001 13.0591 26.7162 13.1764 26.6065 13.3054C26.4989 13.4345 26.3505 13.5463 26.1612 13.641C25.9719 13.7356 25.7256 13.783 25.4223 13.783C25.0308 13.783 24.678 13.6915 24.364 13.5087C24.0521 13.3237 23.8047 13.0516 23.6219 12.6924C23.4412 12.331 23.3508 11.8868 23.3508 11.3598C23.3508 10.8328 23.4401 10.3811 23.6186 10.0046C23.7993 9.62818 24.0467 9.33994 24.3608 9.13989C24.6748 8.93769 25.0308 8.83659 25.4288 8.83659C25.7364 8.83659 25.9848 8.88821 26.1741 8.99146C26.3634 9.09256 26.5107 9.21087 26.6161 9.34639C26.7237 9.48191 26.8065 9.60129 26.8646 9.70454H26.9356V8.90112H27.881V13.9669C27.881 14.3928 27.782 14.7423 27.5841 15.0155C27.3862 15.2887 27.1184 15.4909 26.7807 15.6221C26.4451 15.7533 26.0665 15.819 25.6449 15.819ZM25.6353 12.9828C25.9127 12.9828 26.1472 12.9182 26.3387 12.7892C26.5323 12.658 26.6785 12.4708 26.7775 12.2277C26.8786 11.9825 26.9291 11.6889 26.9291 11.3469C26.9291 11.0135 26.8797 10.7198 26.7807 10.466C26.6818 10.2122 26.5366 10.0143 26.3451 9.87233C26.1537 9.7282 25.9171 9.65614 25.6353 9.65614C25.3449 9.65614 25.1029 9.73143 24.9093 9.88201C24.7157 10.0304 24.5694 10.2326 24.4705 10.4886C24.3737 10.7446 24.3253 11.0307 24.3253 11.3469C24.3253 11.6717 24.3747 11.9567 24.4737 12.2019C24.5726 12.4472 24.7189 12.6386 24.9125 12.7763C25.1082 12.9139 25.3492 12.9828 25.6353 12.9828ZM30.899 13.9572C30.4344 13.9572 30.0289 13.8507 29.6826 13.6378C29.3363 13.4248 29.0674 13.1269 28.8759 12.744C28.6845 12.3611 28.5888 11.9137 28.5888 11.4017C28.5888 10.8876 28.6845 10.4381 28.8759 10.053C29.0674 9.66797 29.3363 9.36898 29.6826 9.15602C30.0289 8.94307 30.4344 8.83659 30.899 8.83659C31.3636 8.83659 31.7691 8.94307 32.1154 9.15602C32.4618 9.36898 32.7306 9.66797 32.9221 10.053C33.1135 10.4381 33.2093 10.8876 33.2093 11.4017C33.2093 11.9137 33.1135 12.3611 32.9221 12.744C32.7306 13.1269 32.4618 13.4248 32.1154 13.6378C31.7691 13.8507 31.3636 13.9572 30.899 13.9572ZM30.9022 13.1473C31.2034 13.1473 31.4529 13.0677 31.6508 12.9086C31.8487 12.7494 31.995 12.5375 32.0896 12.2729C32.1864 12.0083 32.2348 11.7169 32.2348 11.3985C32.2348 11.0823 32.1864 10.7919 32.0896 10.5273C31.995 10.2606 31.8487 10.0466 31.6508 9.88523C31.4529 9.7239 31.2034 9.64324 30.9022 9.64324C30.5989 9.64324 30.3473 9.7239 30.1472 9.88523C29.9493 10.0466 29.802 10.2606 29.7052 10.5273C29.6105 10.7919 29.5632 11.0823 29.5632 11.3985C29.5632 11.7169 29.6105 12.0083 29.7052 12.2729C29.802 12.5375 29.9493 12.7494 30.1472 12.9086C30.3473 13.0677 30.5989 13.1473 30.9022 13.1473Z" fill="#1F2937"/>
<path d="M182.778 81.2561C178.956 81.2561 175.658 80.4901 172.885 78.9582C170.127 77.4101 167.999 75.2089 166.499 72.3547C165.015 69.4843 164.274 66.0818 164.274 62.1471C164.274 58.3092 165.015 54.9551 166.499 52.0847C167.999 49.1982 170.103 46.9487 172.812 45.3361C175.537 43.7235 178.73 42.9172 182.391 42.9172C184.907 42.9172 187.229 43.3123 189.357 44.1025C191.502 44.8926 193.364 46.0779 194.945 47.6582C196.541 49.2385 197.783 51.2139 198.67 53.5844C199.557 55.9387 200 58.6801 200 61.8085V64.6627H168.386V58.156H189.962C189.946 56.737 189.623 55.4792 188.994 54.3826C188.365 53.2699 187.503 52.3991 186.406 51.7702C185.31 51.1413 184.036 50.8269 182.584 50.8269C181.101 50.8269 179.77 51.1736 178.593 51.867C177.432 52.5443 176.521 53.4634 175.86 54.6245C175.215 55.7694 174.876 57.0433 174.844 58.4463V64.7837C174.844 66.5414 175.175 68.0653 175.836 69.3553C176.513 70.6292 177.456 71.6129 178.666 72.3063C179.875 72.9997 181.31 73.3464 182.971 73.3464C184.1 73.3464 185.124 73.1932 186.043 72.8868C186.963 72.5643 187.753 72.0967 188.414 71.4839C189.091 70.855 189.599 70.089 189.938 69.186L199.807 69.7181C199.339 72.0564 198.355 74.0882 196.856 75.8137C195.356 77.5391 193.413 78.8775 191.026 79.829C188.656 80.7804 185.906 81.2561 182.778 81.2561Z" fill="#4F46E5"/>
<path d="M110.756 31.0974H115.795C118.93 31.0974 121.471 33.6388 121.471 36.7737V69.8181C121.488 70.9308 121.705 71.7451 122.124 72.2611C123.033 73.3442 125.098 73.1711 126.094 72.9848L129.275 79.9815C127.611 80.7467 124.982 81.1993 122.681 81.2835C118.617 81.4447 115.618 80.7029 113.683 79.0581C111.748 77.4133 110.772 74.7848 110.756 71.1726L110.756 31.0974Z" fill="#4F46E5"/>
<path d="M51.1655 81.2561C47.376 81.2561 44.1025 80.4579 41.345 78.8614C38.6036 77.265 36.4831 75.0316 34.9834 72.1612C33.4998 69.2747 32.7581 65.9205 32.7581 62.0988C32.7581 58.277 33.4998 54.9309 34.9834 52.0605C36.4831 49.174 38.6036 46.9325 41.345 45.3361C44.1025 43.7235 47.376 42.9172 51.1655 42.9172C54.9712 42.9172 58.2447 43.7235 60.9861 45.3361C63.7436 46.9325 65.8641 49.174 67.3477 52.0605C68.8474 54.9309 69.5972 58.277 69.5972 62.0988C69.5972 65.9205 68.8474 69.2747 67.3477 72.1612C65.8641 75.0316 63.7436 77.265 60.9861 78.8614C58.2447 80.4579 54.9712 81.2561 51.1655 81.2561ZM51.2381 73.032C52.8507 73.032 54.2133 72.5643 55.326 71.629C56.4386 70.6776 57.2772 69.3795 57.8416 67.7347C58.406 66.0737 58.6882 64.179 58.6882 62.0504C58.6882 59.9057 58.406 58.0109 57.8416 56.3661C57.2772 54.7051 56.4386 53.3989 55.326 52.4475C54.2133 51.4961 52.8507 51.0204 51.2381 51.0204C49.5772 51.0204 48.1823 51.4961 47.0535 52.4475C45.9247 53.3989 45.07 54.7051 44.4895 56.3661C43.9251 58.0109 43.6429 59.9057 43.6429 62.0504C43.6429 64.179 43.9251 66.0737 44.4895 67.7347C45.07 69.3795 45.9247 70.6776 47.0535 71.629C48.1823 72.5643 49.5772 73.032 51.2381 73.032Z" fill="#4F46E5"/>
<path d="M10.6259 69.257V80.628H0V31.0833H4.94969C8.08459 31.0833 10.6259 33.6246 10.6259 36.7595V52.7445L20.0258 64.6353C22.8467 67.4847 24.6343 71.8238 30.9961 71.0942L35.0734 80.0644C22.2909 84.4883 16.2409 76.7384 10.6259 69.257ZM17.4374 65.4869L9.46798 60.2617C11.1027 58.8086 12.5786 57.3781 13.8954 55.9704C15.2577 54.5627 16.4384 53.1777 17.4374 51.8154C18.4819 50.4531 19.3446 49.0454 20.0258 47.5923C20.7523 46.1392 21.454 44.5951 21.8627 42.9604H33.1698C32.6703 44.913 31.7643 47.4561 30.7198 49.3633C29.6754 51.2705 28.4493 53.1323 27.0416 54.9487C25.6793 56.7651 24.2489 58.4907 22.7504 60.1254C21.2519 61.7148 18.7997 64.1246 17.4374 65.4869Z" fill="#4F46E5"/>
<path d="M89.6668 81.2561C85.8772 81.2561 82.6037 80.4579 79.8462 78.8614C77.1048 77.265 74.9843 75.0316 73.4846 72.1612C72.0011 69.2747 71.2593 65.9205 71.2593 62.0988C71.2593 58.277 72.0011 54.9309 73.4846 52.0605C74.9843 49.174 77.1048 46.9325 79.8462 45.3361C82.6037 43.7235 85.8772 42.9172 89.6668 42.9172C93.4724 42.9172 96.7459 43.7235 99.4873 45.3361C102.245 46.9325 104.365 49.174 105.849 52.0605C107.349 54.9309 108.098 58.277 108.098 62.0988C108.098 65.9205 107.349 69.2747 105.849 72.1612C104.365 75.0316 102.245 77.265 99.4873 78.8614C96.7459 80.4579 93.4724 81.2561 89.6668 81.2561ZM89.7393 73.032C91.3519 73.032 92.7145 72.5643 93.8272 71.629C94.9399 70.6776 95.7784 69.3795 96.3428 67.7347C96.9072 66.0737 97.1894 64.179 97.1894 62.0504C97.1894 59.9057 96.9072 58.0109 96.3428 56.3661C95.7784 54.7051 94.9399 53.3989 93.8272 52.4475C92.7145 51.4961 91.3519 51.0204 89.7393 51.0204C88.0784 51.0204 86.6835 51.4961 85.5547 52.4475C84.4259 53.3989 83.5713 54.7051 82.9907 56.3661C82.4263 58.0109 82.1441 59.9057 82.1441 62.0504C82.1441 64.179 82.4263 66.0737 82.9907 67.7347C83.5713 69.3795 84.4259 70.6776 85.5547 71.629C86.6835 72.5643 88.0784 73.032 89.7393 73.032Z" fill="#4F46E5"/>
<path d="M145.613 81.2561C141.791 81.2561 138.493 80.4901 135.72 78.9582C132.962 77.4101 130.833 75.2089 129.334 72.3547C127.85 69.4843 127.108 66.0818 127.108 62.1471C127.108 58.3092 127.85 54.9551 129.334 52.0847C130.833 49.1982 132.938 46.9487 135.647 45.3361C138.372 43.7235 141.565 42.9172 145.226 42.9172C147.741 42.9172 150.063 43.3123 152.192 44.1025C154.337 44.8926 156.199 46.0779 157.779 47.6582C159.376 49.2385 160.618 51.2139 161.505 53.5844C162.391 55.9387 162.835 58.6801 162.835 61.8085V64.6627H131.22V58.156H152.797C152.781 56.737 152.458 55.4792 151.829 54.3826C151.2 53.2699 150.337 52.3991 149.241 51.7702C148.144 51.1413 146.87 50.8269 145.419 50.8269C143.936 50.8269 142.605 51.1736 141.428 51.867C140.267 52.5443 139.356 53.4634 138.695 54.6245C138.05 55.7694 137.711 57.0433 137.679 58.4463V64.7837C137.679 66.5414 138.009 68.0653 138.671 69.3553C139.348 70.6292 140.291 71.6129 141.501 72.3063C142.71 72.9997 144.145 73.3464 145.806 73.3464C146.935 73.3464 147.959 73.1932 148.878 72.8868C149.797 72.5643 150.587 72.0967 151.249 71.4839C151.926 70.855 152.434 70.089 152.772 69.186L162.641 69.7181C162.174 72.0564 161.19 74.0882 159.69 75.8137C158.191 77.5391 156.248 78.8775 153.861 79.829C151.49 80.7804 148.741 81.2561 145.613 81.2561Z" fill="#4F46E5"/>
<path d="M1.01627 106.358V99.7496H5.11405V100.608H2.01329V102.621H4.82043V103.476H2.01329V106.358H1.01627ZM8.7282 104.302V101.402H9.69618V106.358H8.74756V105.499H8.69593C8.58193 105.764 8.39909 105.984 8.14741 106.161C7.89789 106.335 7.58706 106.422 7.21492 106.422C6.89656 106.422 6.61478 106.352 6.36955 106.212C6.12648 106.07 5.93504 105.861 5.79522 105.583C5.65755 105.306 5.58872 104.963 5.58872 104.554V101.402H6.55347V104.438C6.55347 104.776 6.64704 105.044 6.83418 105.244C7.02133 105.445 7.2644 105.545 7.5634 105.545C7.74409 105.545 7.9237 105.499 8.10224 105.409C8.28293 105.319 8.43243 105.182 8.55074 104.999C8.6712 104.816 8.73035 104.584 8.7282 104.302ZM11.5938 99.7496V106.358H10.629V99.7496H11.5938ZM13.493 99.7496V106.358H12.5282V99.7496H13.493ZM17.4334 99.7496V106.358H16.4686V99.7496H17.4334ZM20.4554 106.458C19.9908 106.458 19.5853 106.351 19.239 106.138C18.8927 105.925 18.6238 105.627 18.4324 105.244C18.2409 104.862 18.1452 104.414 18.1452 103.902C18.1452 103.388 18.2409 102.939 18.4324 102.554C18.6238 102.168 18.8927 101.869 19.239 101.657C19.5853 101.444 19.9908 101.337 20.4554 101.337C20.9201 101.337 21.3255 101.444 21.6719 101.657C22.0182 101.869 22.2871 102.168 22.4785 102.554C22.67 102.939 22.7657 103.388 22.7657 103.902C22.7657 104.414 22.67 104.862 22.4785 105.244C22.2871 105.627 22.0182 105.925 21.6719 106.138C21.3255 106.351 20.9201 106.458 20.4554 106.458ZM20.4587 105.648C20.7598 105.648 21.0093 105.568 21.2072 105.409C21.4051 105.25 21.5514 105.038 21.6461 104.773C21.7429 104.509 21.7913 104.217 21.7913 103.899C21.7913 103.583 21.7429 103.292 21.6461 103.028C21.5514 102.761 21.4051 102.547 21.2072 102.386C21.0093 102.224 20.7598 102.144 20.4587 102.144C20.1554 102.144 19.9037 102.224 19.7036 102.386C19.5057 102.547 19.3584 102.761 19.2616 103.028C19.167 103.292 19.1196 103.583 19.1196 103.899C19.1196 104.217 19.167 104.509 19.2616 104.773C19.3584 105.038 19.5057 105.25 19.7036 105.409C19.9037 105.568 20.1554 105.648 20.4587 105.648ZM25.557 108.319C25.1634 108.319 24.8246 108.268 24.5407 108.165C24.2589 108.061 24.0287 107.925 23.8502 107.755C23.6716 107.585 23.5383 107.399 23.4501 107.197L24.2793 106.855C24.3374 106.949 24.4148 107.049 24.5116 107.155C24.6106 107.262 24.7439 107.354 24.9117 107.429C25.0817 107.504 25.3 107.542 25.5667 107.542C25.9324 107.542 26.2346 107.453 26.4734 107.274C26.7122 107.098 26.8316 106.816 26.8316 106.429V105.454H26.7703C26.7122 105.56 26.6283 105.677 26.5186 105.806C26.411 105.935 26.2626 106.047 26.0733 106.141C25.884 106.236 25.6377 106.283 25.3344 106.283C24.9429 106.283 24.5901 106.192 24.2761 106.009C23.9642 105.824 23.7168 105.552 23.534 105.193C23.3533 104.831 23.2629 104.387 23.2629 103.86C23.2629 103.333 23.3522 102.882 23.5307 102.505C23.7114 102.129 23.9588 101.84 24.2729 101.64C24.5869 101.438 24.9429 101.337 25.3409 101.337C25.6485 101.337 25.8969 101.389 26.0862 101.492C26.2755 101.593 26.4229 101.711 26.5283 101.847C26.6358 101.982 26.7186 102.102 26.7767 102.205H26.8477V101.402H27.7931V106.467C27.7931 106.893 27.6941 107.243 27.4962 107.516C27.2983 107.789 27.0305 107.991 26.6928 108.123C26.3572 108.254 25.9787 108.319 25.557 108.319ZM25.5474 105.483C25.8249 105.483 26.0593 105.419 26.2508 105.29C26.4444 105.158 26.5906 104.971 26.6896 104.728C26.7907 104.483 26.8412 104.189 26.8412 103.847C26.8412 103.514 26.7918 103.22 26.6928 102.967C26.5939 102.713 26.4487 102.515 26.2572 102.373C26.0658 102.229 25.8292 102.157 25.5474 102.157C25.257 102.157 25.015 102.232 24.8214 102.382C24.6278 102.531 24.4815 102.733 24.3826 102.989C24.2858 103.245 24.2374 103.531 24.2374 103.847C24.2374 104.172 24.2868 104.457 24.3858 104.702C24.4847 104.948 24.631 105.139 24.8246 105.277C25.0204 105.414 25.2613 105.483 25.5474 105.483ZM30.8111 106.458C30.3465 106.458 29.941 106.351 29.5947 106.138C29.2484 105.925 28.9795 105.627 28.788 105.244C28.5966 104.862 28.5009 104.414 28.5009 103.902C28.5009 103.388 28.5966 102.939 28.788 102.554C28.9795 102.168 29.2484 101.869 29.5947 101.657C29.941 101.444 30.3465 101.337 30.8111 101.337C31.2757 101.337 31.6812 101.444 32.0275 101.657C32.3739 101.869 32.6428 102.168 32.8342 102.554C33.0256 102.939 33.1214 103.388 33.1214 103.902C33.1214 104.414 33.0256 104.862 32.8342 105.244C32.6428 105.627 32.3739 105.925 32.0275 106.138C31.6812 106.351 31.2757 106.458 30.8111 106.458ZM30.8143 105.648C31.1155 105.648 31.365 105.568 31.5629 105.409C31.7608 105.25 31.9071 105.038 32.0017 104.773C32.0985 104.509 32.1469 104.217 32.1469 103.899C32.1469 103.583 32.0985 103.292 32.0017 103.028C31.9071 102.761 31.7608 102.547 31.5629 102.386C31.365 102.224 31.1155 102.144 30.8143 102.144C30.511 102.144 30.2594 102.224 30.0593 102.386C29.8614 102.547 29.7141 102.761 29.6173 103.028C29.5226 103.292 29.4753 103.583 29.4753 103.899C29.4753 104.217 29.5226 104.509 29.6173 104.773C29.7141 105.038 29.8614 105.25 30.0593 105.409C30.2594 105.568 30.511 105.648 30.8143 105.648ZM35.9534 106.358V99.7496H36.9182V102.205H36.9762C37.0322 102.102 37.1128 101.982 37.2182 101.847C37.3236 101.711 37.4699 101.593 37.6571 101.492C37.8442 101.389 38.0916 101.337 38.3992 101.337C38.7993 101.337 39.1564 101.438 39.4704 101.64C39.7845 101.843 40.0308 102.134 40.2093 102.515C40.39 102.896 40.4803 103.354 40.4803 103.889C40.4803 104.425 40.3911 104.884 40.2125 105.267C40.034 105.648 39.7888 105.941 39.4769 106.148C39.165 106.352 38.809 106.454 38.4089 106.454C38.1077 106.454 37.8614 106.404 37.67 106.303C37.4807 106.202 37.3323 106.083 37.2247 105.948C37.1171 105.812 37.0343 105.692 36.9762 105.587H36.8956V106.358H35.9534ZM36.8988 103.88C36.8988 104.228 36.9494 104.534 37.0505 104.796C37.1516 105.058 37.2978 105.264 37.4893 105.412C37.6807 105.559 37.9152 105.632 38.1927 105.632C38.4809 105.632 38.7218 105.555 38.9154 105.403C39.109 105.248 39.2553 105.038 39.3543 104.773C39.4554 104.509 39.5059 104.211 39.5059 103.88C39.5059 103.553 39.4564 103.259 39.3575 102.999C39.2607 102.738 39.1144 102.533 38.9187 102.382C38.7251 102.232 38.4831 102.157 38.1927 102.157C37.913 102.157 37.6764 102.229 37.4828 102.373C37.2914 102.517 37.1462 102.718 37.0472 102.976C36.9483 103.234 36.8988 103.535 36.8988 103.88ZM43.1233 106.451C42.6802 106.451 42.2983 106.371 41.9778 106.209C41.6595 106.048 41.4143 105.829 41.2422 105.551C41.0701 105.271 40.984 104.955 40.984 104.602C40.984 104.334 41.04 104.095 41.1518 103.886C41.2637 103.675 41.4196 103.481 41.6197 103.302C41.8197 103.124 42.051 102.944 42.3134 102.763L43.3782 102.011C43.5589 101.893 43.6998 101.768 43.8009 101.637C43.902 101.504 43.9525 101.339 43.9525 101.143C43.9525 100.989 43.8858 100.84 43.7525 100.698C43.6191 100.556 43.4406 100.485 43.2168 100.485C43.062 100.485 42.9254 100.523 42.8071 100.598C42.6909 100.673 42.5995 100.77 42.5328 100.889C42.4683 101.005 42.436 101.127 42.436 101.256C42.436 101.407 42.4769 101.559 42.5586 101.711C42.6425 101.864 42.7501 102.022 42.8813 102.186C43.0125 102.347 43.1502 102.515 43.2943 102.689L46.3628 106.358H45.2722L42.7329 103.373C42.5199 103.121 42.322 102.885 42.1392 102.663C41.9563 102.439 41.8079 102.214 41.6939 101.986C41.582 101.755 41.5261 101.507 41.5261 101.24C41.5261 100.937 41.5949 100.668 41.7326 100.434C41.8724 100.197 42.0671 100.012 42.3166 99.8787C42.5662 99.7453 42.8587 99.6786 43.1943 99.6786C43.5341 99.6786 43.8256 99.7453 44.0687 99.8787C44.3139 100.01 44.5021 100.185 44.6333 100.405C44.7667 100.622 44.8334 100.86 44.8334 101.118C44.8334 101.432 44.7549 101.709 44.5978 101.95C44.443 102.189 44.2289 102.408 43.9557 102.608L42.6296 103.586C42.3715 103.775 42.1919 103.962 42.0908 104.147C41.9918 104.33 41.9423 104.473 41.9423 104.577C41.9423 104.766 41.9907 104.941 42.0875 105.103C42.1865 105.264 42.3242 105.393 42.5005 105.49C42.6791 105.587 42.8877 105.635 43.1265 105.635C43.3717 105.635 43.6105 105.582 43.8428 105.477C44.0773 105.369 44.2892 105.215 44.4785 105.015C44.6699 104.815 44.8215 104.576 44.9334 104.296C45.0453 104.016 45.1012 103.703 45.1012 103.357H45.9724C45.9724 103.783 45.924 104.143 45.8272 104.438C45.7304 104.73 45.6131 104.969 45.4755 105.154C45.34 105.337 45.212 105.48 45.0915 105.583C45.0528 105.618 45.0162 105.652 44.9818 105.687C44.9474 105.721 44.9108 105.755 44.8721 105.79C44.6484 106.016 44.3774 106.182 44.059 106.29C43.7428 106.397 43.4309 106.451 43.1233 106.451ZM47.5191 106.358L46.0606 101.402H47.0577L48.0289 105.041H48.0773L49.0517 101.402H50.0487L51.0167 105.025H51.0651L52.0299 101.402H53.0269L51.5717 106.358H50.5876L49.5809 102.779H49.5067L48.5 106.358H47.5191Z" fill="#1F2937"/>
<path d="M182.778 174.569C178.957 174.569 175.659 173.803 172.885 172.271C170.128 170.723 167.999 168.522 166.5 165.668C165.016 162.797 164.274 159.395 164.274 155.46C164.274 151.622 165.016 148.268 166.5 145.398C167.999 142.511 170.104 140.262 172.813 138.649C175.538 137.037 178.731 136.23 182.391 136.23C184.907 136.23 187.229 136.625 189.358 137.415C191.502 138.206 193.365 139.391 194.945 140.971C196.542 142.551 197.783 144.527 198.67 146.897C199.557 149.252 200.001 151.993 200.001 155.121V157.976H168.386V151.469H189.962C189.946 150.05 189.624 148.792 188.995 147.696C188.366 146.583 187.503 145.712 186.407 145.083C185.31 144.454 184.036 144.14 182.585 144.14C181.101 144.14 179.771 144.487 178.594 145.18C177.433 145.857 176.522 146.776 175.86 147.937C175.215 149.082 174.877 150.356 174.845 151.759V158.097C174.845 159.854 175.175 161.378 175.836 162.668C176.514 163.942 177.457 164.926 178.666 165.619C179.876 166.313 181.311 166.659 182.972 166.659C184.101 166.659 185.125 166.506 186.044 166.2C186.963 165.877 187.753 165.41 188.414 164.797C189.092 164.168 189.6 163.402 189.938 162.499L199.807 163.031C199.34 165.369 198.356 167.401 196.856 169.127C195.356 170.852 193.413 172.191 191.027 173.142C188.656 174.093 185.907 174.569 182.778 174.569Z" fill="#1F2937"/>
<path d="M110.757 124.41H115.796C118.931 124.41 121.472 126.952 121.472 130.087V163.131C121.488 164.244 121.706 165.058 122.125 165.574C123.034 166.657 125.099 166.484 126.095 166.298L129.276 173.294C127.612 174.06 124.983 174.512 122.682 174.596C118.618 174.758 115.618 174.016 113.683 172.371C111.748 170.726 110.773 168.098 110.757 164.486L110.757 124.41Z" fill="#1F2937"/>
<path d="M51.1655 174.569C47.376 174.569 44.1025 173.771 41.345 172.174C38.6036 170.578 36.4831 168.345 34.9834 165.474C33.4998 162.588 32.7581 159.234 32.7581 155.412C32.7581 151.59 33.4998 148.244 34.9834 145.373C36.4831 142.487 38.6036 140.246 41.345 138.649C44.1025 137.037 47.376 136.23 51.1655 136.23C54.9712 136.23 58.2447 137.037 60.9861 138.649C63.7436 140.246 65.8641 142.487 67.3477 145.373C68.8474 148.244 69.5972 151.59 69.5972 155.412C69.5972 159.234 68.8474 162.588 67.3477 165.474C65.8641 168.345 63.7436 170.578 60.9861 172.174C58.2447 173.771 54.9712 174.569 51.1655 174.569ZM51.2381 166.345C52.8507 166.345 54.2133 165.877 55.326 164.942C56.4386 163.991 57.2772 162.692 57.8416 161.048C58.406 159.387 58.6882 157.492 58.6882 155.363C58.6882 153.219 58.406 151.324 57.8416 149.679C57.2772 148.018 56.4386 146.712 55.326 145.761C54.2133 144.809 52.8507 144.333 51.2381 144.333C49.5772 144.333 48.1823 144.809 47.0535 145.761C45.9247 146.712 45.07 148.018 44.4895 149.679C43.9251 151.324 43.6429 153.219 43.6429 155.363C43.6429 157.492 43.9251 159.387 44.4895 161.048C45.07 162.692 45.9247 163.991 47.0535 164.942C48.1823 165.877 49.5772 166.345 51.2381 166.345Z" fill="#1F2937"/>
<path d="M10.6259 162.57V173.941H0V124.396H4.94969C8.08459 124.396 10.6259 126.938 10.6259 130.072V146.058L20.0258 157.948C22.8467 160.798 25.2793 164.407 30.9961 164.407L35.0734 173.377C22.2909 177.801 16.2409 170.051 10.6259 162.57ZM17.4374 158.8L9.46798 153.575C11.1027 152.122 12.5786 150.691 13.8954 149.283C15.2577 147.876 16.4384 146.491 17.4374 145.128C18.4819 143.766 19.3446 142.358 20.0258 140.905C20.7523 139.452 21.454 137.908 21.8627 136.273H33.1698C32.6703 138.226 31.7643 140.769 30.7198 142.676C29.6754 144.583 28.4493 146.445 27.0416 148.262C25.6793 150.078 24.2489 151.804 22.7504 153.438C21.2519 155.028 18.7997 157.438 17.4374 158.8Z" fill="#1F2937"/>
<path d="M89.6668 174.569C85.8772 174.569 82.6037 173.771 79.8462 172.174C77.1048 170.578 74.9843 168.345 73.4846 165.474C72.0011 162.588 71.2593 159.234 71.2593 155.412C71.2593 151.59 72.0011 148.244 73.4846 145.373C74.9843 142.487 77.1048 140.246 79.8462 138.649C82.6037 137.037 85.8772 136.23 89.6668 136.23C93.4724 136.23 96.7459 137.037 99.4873 138.649C102.245 140.246 104.365 142.487 105.849 145.373C107.349 148.244 108.098 151.59 108.098 155.412C108.098 159.234 107.349 162.588 105.849 165.474C104.365 168.345 102.245 170.578 99.4873 172.174C96.7459 173.771 93.4724 174.569 89.6668 174.569ZM89.7393 166.345C91.3519 166.345 92.7145 165.877 93.8272 164.942C94.9399 163.991 95.7784 162.692 96.3428 161.048C96.9072 159.387 97.1894 157.492 97.1894 155.363C97.1894 153.219 96.9072 151.324 96.3428 149.679C95.7784 148.018 94.9399 146.712 93.8272 145.761C92.7145 144.809 91.3519 144.333 89.7393 144.333C88.0784 144.333 86.6835 144.809 85.5547 145.761C84.4259 146.712 83.5713 148.018 82.9907 149.679C82.4263 151.324 82.1441 153.219 82.1441 155.363C82.1441 157.492 82.4263 159.387 82.9907 161.048C83.5713 162.692 84.4259 163.991 85.5547 164.942C86.6835 165.877 88.0784 166.345 89.7393 166.345Z" fill="#1F2937"/>
<path d="M145.613 174.569C141.791 174.569 138.494 173.803 135.72 172.271C132.963 170.723 130.834 168.522 129.334 165.668C127.851 162.797 127.109 159.395 127.109 155.46C127.109 151.622 127.851 148.268 129.334 145.398C130.834 142.511 132.938 140.262 135.647 138.649C138.373 137.037 141.566 136.23 145.226 136.23C147.742 136.23 150.064 136.625 152.192 137.415C154.337 138.206 156.2 139.391 157.78 140.971C159.376 142.551 160.618 144.527 161.505 146.897C162.392 149.252 162.835 151.993 162.835 155.121V157.976H131.221V151.469H152.797C152.781 150.05 152.458 148.792 151.83 147.696C151.201 146.583 150.338 145.712 149.241 145.083C148.145 144.454 146.871 144.14 145.42 144.14C143.936 144.14 142.606 144.487 141.429 145.18C140.267 145.857 139.356 146.776 138.695 147.937C138.05 149.082 137.712 150.356 137.679 151.759V158.097C137.679 159.854 138.01 161.378 138.671 162.668C139.348 163.942 140.292 164.926 141.501 165.619C142.71 166.313 144.146 166.659 145.807 166.659C146.935 166.659 147.959 166.506 148.879 166.2C149.798 165.877 150.588 165.41 151.249 164.797C151.926 164.168 152.434 163.402 152.773 162.499L162.642 163.031C162.174 165.369 161.191 167.401 159.691 169.127C158.191 170.852 156.248 172.191 153.861 173.142C151.491 174.093 148.742 174.569 145.613 174.569Z" fill="#1F2937"/>
<path d="M1.723 193.063V199.671H0.725985V193.063H1.723ZM4.8217 199.771C4.34201 199.771 3.92901 199.662 3.58269 199.445C3.23852 199.225 2.97394 198.923 2.78894 198.538C2.60395 198.153 2.51146 197.712 2.51146 197.215C2.51146 196.712 2.6061 196.268 2.7954 195.883C2.98469 195.495 3.25142 195.193 3.59559 194.976C3.93977 194.759 4.34524 194.65 4.81202 194.65C5.18846 194.65 5.52403 194.72 5.81872 194.86C6.11342 194.997 6.35111 195.191 6.5318 195.441C6.71464 195.69 6.82327 195.982 6.85769 196.315H5.91875C5.86712 196.083 5.74881 195.883 5.56382 195.715C5.38098 195.547 5.13576 195.463 4.82816 195.463C4.55927 195.463 4.32373 195.534 4.12153 195.676C3.92148 195.816 3.76553 196.016 3.65367 196.276C3.54182 196.534 3.48589 196.84 3.48589 197.193C3.48589 197.554 3.54074 197.866 3.65045 198.128C3.76015 198.391 3.91503 198.594 4.11508 198.738C4.31728 198.882 4.55497 198.954 4.82816 198.954C5.011 198.954 5.17663 198.921 5.32505 198.854C5.47563 198.785 5.60146 198.688 5.70256 198.561C5.80582 198.434 5.87788 198.281 5.91875 198.103H6.85769C6.82327 198.423 6.71894 198.709 6.54471 198.961C6.37047 199.212 6.13708 199.41 5.84454 199.554C5.55414 199.699 5.2132 199.771 4.8217 199.771ZM9.61356 199.771C9.14893 199.771 8.74345 199.664 8.39713 199.451C8.05081 199.238 7.78193 198.94 7.59048 198.557C7.39904 198.175 7.30331 197.727 7.30331 197.215C7.30331 196.701 7.39904 196.252 7.59048 195.866C7.78193 195.481 8.05081 195.182 8.39713 194.969C8.74345 194.757 9.14893 194.65 9.61356 194.65C10.0782 194.65 10.4837 194.757 10.83 194.969C11.1763 195.182 11.4452 195.481 11.6366 195.866C11.8281 196.252 11.9238 196.701 11.9238 197.215C11.9238 197.727 11.8281 198.175 11.6366 198.557C11.4452 198.94 11.1763 199.238 10.83 199.451C10.4837 199.664 10.0782 199.771 9.61356 199.771ZM9.61679 198.961C9.91794 198.961 10.1675 198.881 10.3654 198.722C10.5633 198.563 10.7095 198.351 10.8042 198.086C10.901 197.822 10.9494 197.53 10.9494 197.212C10.9494 196.896 10.901 196.605 10.8042 196.341C10.7095 196.074 10.5633 195.86 10.3654 195.699C10.1675 195.537 9.91794 195.457 9.61679 195.457C9.31349 195.457 9.06181 195.537 8.86176 195.699C8.66386 195.86 8.51652 196.074 8.41972 196.341C8.32507 196.605 8.27775 196.896 8.27775 197.212C8.27775 197.53 8.32507 197.822 8.41972 198.086C8.51652 198.351 8.66386 198.563 8.86176 198.722C9.06181 198.881 9.31349 198.961 9.61679 198.961ZM13.602 196.728V199.671H12.6372V194.715H13.5633V195.521H13.6246C13.7386 195.259 13.9171 195.048 14.1602 194.889C14.4054 194.73 14.7141 194.65 15.0862 194.65C15.4239 194.65 15.7197 194.721 15.9735 194.863C16.2274 195.003 16.4242 195.211 16.564 195.489C16.7038 195.766 16.7737 196.11 16.7737 196.518V199.671H15.809V196.634C15.809 196.275 15.7154 195.994 15.5283 195.792C15.3411 195.588 15.0841 195.486 14.7571 195.486C14.5334 195.486 14.3344 195.534 14.1602 195.631C13.9881 195.728 13.8515 195.87 13.7504 196.057C13.6515 196.242 13.602 196.466 13.602 196.728ZM20.4003 193.063L22.2395 198.445H22.3137L24.1529 193.063H25.2306L22.8526 199.671H21.7007L19.3227 193.063H20.4003ZM26.6982 199.78C26.3842 199.78 26.1002 199.722 25.8464 199.606C25.5926 199.488 25.3914 199.317 25.243 199.093C25.0967 198.869 25.0236 198.595 25.0236 198.27C25.0236 197.991 25.0774 197.761 25.1849 197.58C25.2925 197.399 25.4377 197.256 25.6205 197.151C25.8034 197.045 26.0077 196.966 26.2336 196.912C26.4594 196.858 26.6896 196.817 26.9241 196.789C27.2209 196.755 27.4618 196.727 27.6468 196.705C27.8318 196.682 27.9663 196.644 28.0502 196.592C28.1341 196.541 28.176 196.457 28.176 196.341V196.318C28.176 196.036 28.0964 195.818 27.9372 195.663C27.7802 195.508 27.5457 195.431 27.2338 195.431C26.909 195.431 26.653 195.503 26.4659 195.647C26.2809 195.789 26.1529 195.947 26.0819 196.121L25.1753 195.915C25.2828 195.614 25.4398 195.371 25.6463 195.186C25.855 194.999 26.0948 194.863 26.3659 194.779C26.6369 194.693 26.9219 194.65 27.2209 194.65C27.4188 194.65 27.6286 194.674 27.8501 194.721C28.0738 194.766 28.2825 194.85 28.4761 194.973C28.6718 195.095 28.8321 195.271 28.9568 195.499C29.0816 195.725 29.144 196.018 29.144 196.38V199.671H28.2018V198.993H28.1631C28.1007 199.118 28.0071 199.24 27.8824 199.361C27.7576 199.481 27.5974 199.581 27.4016 199.661C27.2059 199.741 26.9714 199.78 26.6982 199.78ZM26.9079 199.006C27.1747 199.006 27.4027 198.953 27.592 198.848C27.7834 198.742 27.9286 198.605 28.0276 198.435C28.1287 198.263 28.1792 198.079 28.1792 197.883V197.244C28.1448 197.279 28.0781 197.311 27.9792 197.341C27.8824 197.369 27.7716 197.394 27.6468 197.415C27.5221 197.435 27.4005 197.453 27.2822 197.47C27.1639 197.485 27.065 197.498 26.9854 197.509C26.7982 197.532 26.6272 197.572 26.4724 197.628C26.3196 197.684 26.197 197.765 26.1045 197.87C26.0142 197.973 25.969 198.111 25.969 198.283C25.969 198.522 26.0572 198.703 26.2336 198.825C26.41 198.946 26.6348 199.006 26.9079 199.006ZM30.0655 199.671V194.715H30.998V195.502H31.0496C31.14 195.235 31.2992 195.025 31.5272 194.873C31.7573 194.718 32.0176 194.64 32.308 194.64C32.3682 194.64 32.4392 194.643 32.521 194.647C32.6049 194.651 32.6705 194.657 32.7178 194.663V195.586C32.6791 195.575 32.6102 195.563 32.5113 195.55C32.4123 195.535 32.3134 195.528 32.2144 195.528C31.9864 195.528 31.7832 195.576 31.6046 195.673C31.4282 195.768 31.2884 195.9 31.1852 196.07C31.0819 196.238 31.0303 196.429 31.0303 196.644V199.671H30.0655ZM33.1892 199.671V194.715H34.154V199.671H33.1892ZM33.6765 193.95C33.5087 193.95 33.3645 193.894 33.2441 193.782C33.1258 193.668 33.0666 193.533 33.0666 193.376C33.0666 193.216 33.1258 193.081 33.2441 192.969C33.3645 192.855 33.5087 192.798 33.6765 192.798C33.8442 192.798 33.9873 192.855 34.1056 192.969C34.226 193.081 34.2863 193.216 34.2863 193.376C34.2863 193.533 34.226 193.668 34.1056 193.782C33.9873 193.894 33.8442 193.95 33.6765 193.95ZM36.5307 199.78C36.2167 199.78 35.9327 199.722 35.6789 199.606C35.4251 199.488 35.224 199.317 35.0755 199.093C34.9293 198.869 34.8561 198.595 34.8561 198.27C34.8561 197.991 34.9099 197.761 35.0175 197.58C35.125 197.399 35.2702 197.256 35.453 197.151C35.6359 197.045 35.8402 196.966 36.0661 196.912C36.292 196.858 36.5221 196.817 36.7566 196.789C37.0534 196.755 37.2944 196.727 37.4794 196.705C37.6643 196.682 37.7988 196.644 37.8827 196.592C37.9666 196.541 38.0085 196.457 38.0085 196.341V196.318C38.0085 196.036 37.9289 195.818 37.7697 195.663C37.6127 195.508 37.3783 195.431 37.0663 195.431C36.7415 195.431 36.4856 195.503 36.2984 195.647C36.1134 195.789 35.9854 195.947 35.9145 196.121L35.0078 195.915C35.1153 195.614 35.2724 195.371 35.4789 195.186C35.6875 194.999 35.9274 194.863 36.1984 194.779C36.4694 194.693 36.7544 194.65 37.0534 194.65C37.2513 194.65 37.4611 194.674 37.6826 194.721C37.9063 194.766 38.115 194.85 38.3086 194.973C38.5043 195.095 38.6646 195.271 38.7894 195.499C38.9141 195.725 38.9765 196.018 38.9765 196.38V199.671H38.0343V198.993H37.9956C37.9332 199.118 37.8397 199.24 37.7149 199.361C37.5901 199.481 37.4299 199.581 37.2341 199.661C37.0384 199.741 36.8039 199.78 36.5307 199.78ZM36.7405 199.006C37.0072 199.006 37.2352 198.953 37.4245 198.848C37.6159 198.742 37.7611 198.605 37.8601 198.435C37.9612 198.263 38.0117 198.079 38.0117 197.883V197.244C37.9773 197.279 37.9106 197.311 37.8117 197.341C37.7149 197.369 37.6041 197.394 37.4794 197.415C37.3546 197.435 37.2331 197.453 37.1147 197.47C36.9964 197.485 36.8975 197.498 36.8179 197.509C36.6308 197.532 36.4597 197.572 36.3049 197.628C36.1521 197.684 36.0295 197.765 35.937 197.87C35.8467 197.973 35.8015 198.111 35.8015 198.283C35.8015 198.522 35.8897 198.703 36.0661 198.825C36.2425 198.946 36.4673 199.006 36.7405 199.006ZM42.2115 194.715V195.489H39.5044V194.715H42.2115ZM40.2304 193.527H41.1951V198.215C41.1951 198.403 41.2231 198.543 41.279 198.638C41.335 198.731 41.407 198.794 41.4952 198.829C41.5856 198.861 41.6834 198.877 41.7888 198.877C41.8663 198.877 41.934 198.872 41.9921 198.861C42.0502 198.85 42.0954 198.841 42.1276 198.835L42.3019 199.632C42.2459 199.653 42.1663 199.675 42.0631 199.696C41.9598 199.72 41.8308 199.733 41.6759 199.735C41.4221 199.739 41.1855 199.694 40.9661 199.6C40.7466 199.505 40.5692 199.359 40.4337 199.161C40.2981 198.963 40.2304 198.715 40.2304 198.416V193.527ZM42.9153 199.671V194.715H43.88V199.671H42.9153ZM43.4025 193.95C43.2347 193.95 43.0906 193.894 42.9701 193.782C42.8518 193.668 42.7927 193.533 42.7927 193.376C42.7927 193.216 42.8518 193.081 42.9701 192.969C43.0906 192.855 43.2347 192.798 43.4025 192.798C43.5703 192.798 43.7133 192.855 43.8316 192.969C43.9521 193.081 44.0123 193.216 44.0123 193.376C44.0123 193.533 43.9521 193.668 43.8316 193.782C43.7133 193.894 43.5703 193.95 43.4025 193.95ZM46.9021 199.771C46.4375 199.771 46.032 199.664 45.6857 199.451C45.3393 199.238 45.0705 198.94 44.879 198.557C44.6876 198.175 44.5918 197.727 44.5918 197.215C44.5918 196.701 44.6876 196.252 44.879 195.866C45.0705 195.481 45.3393 195.182 45.6857 194.969C46.032 194.757 46.4375 194.65 46.9021 194.65C47.3667 194.65 47.7722 194.757 48.1185 194.969C48.4648 195.182 48.7337 195.481 48.9252 195.866C49.1166 196.252 49.2123 196.701 49.2123 197.215C49.2123 197.727 49.1166 198.175 48.9252 198.557C48.7337 198.94 48.4648 199.238 48.1185 199.451C47.7722 199.664 47.3667 199.771 46.9021 199.771ZM46.9053 198.961C47.2065 198.961 47.456 198.881 47.6539 198.722C47.8518 198.563 47.9981 198.351 48.0927 198.086C48.1895 197.822 48.2379 197.53 48.2379 197.212C48.2379 196.896 48.1895 196.605 48.0927 196.341C47.9981 196.074 47.8518 195.86 47.6539 195.699C47.456 195.537 47.2065 195.457 46.9053 195.457C46.602 195.457 46.3503 195.537 46.1503 195.699C45.9524 195.86 45.805 196.074 45.7083 196.341C45.6136 196.605 45.5663 196.896 45.5663 197.212C45.5663 197.53 45.6136 197.822 45.7083 198.086C45.805 198.351 45.9524 198.563 46.1503 198.722C46.3503 198.881 46.602 198.961 46.9053 198.961ZM50.8905 196.728V199.671H49.9258V194.715H50.8518V195.521H50.9131C51.0271 195.259 51.2057 195.048 51.4487 194.889C51.6939 194.73 52.0026 194.65 52.3748 194.65C52.7125 194.65 53.0083 194.721 53.2621 194.863C53.5159 195.003 53.7127 195.211 53.8525 195.489C53.9924 195.766 54.0623 196.11 54.0623 196.518V199.671H53.0975V196.634C53.0975 196.275 53.0039 195.994 52.8168 195.792C52.6297 195.588 52.3726 195.486 52.0456 195.486C51.8219 195.486 51.623 195.534 51.4487 195.631C51.2766 195.728 51.14 195.87 51.0389 196.057C50.94 196.242 50.8905 196.466 50.8905 196.728ZM58.7065 195.925L57.8321 196.079C57.7955 195.968 57.7375 195.861 57.6579 195.76C57.5804 195.659 57.475 195.576 57.3417 195.512C57.2083 195.447 57.0416 195.415 56.8415 195.415C56.5684 195.415 56.3403 195.476 56.1575 195.599C55.9747 195.719 55.8832 195.875 55.8832 196.067C55.8832 196.232 55.9445 196.366 56.0672 196.467C56.1898 196.568 56.3877 196.651 56.6608 196.715L57.4481 196.896C57.9042 197.001 58.244 197.164 58.4677 197.383C58.6915 197.602 58.8033 197.887 58.8033 198.238C58.8033 198.535 58.7173 198.799 58.5452 199.032C58.3753 199.262 58.1376 199.443 57.8321 199.574C57.5288 199.705 57.1771 199.771 56.777 199.771C56.222 199.771 55.7692 199.652 55.4186 199.416C55.068 199.177 54.8529 198.838 54.7733 198.399L55.7058 198.257C55.7639 198.5 55.8832 198.684 56.0639 198.809C56.2446 198.932 56.4802 198.993 56.7706 198.993C57.0868 198.993 57.3395 198.927 57.5288 198.796C57.7181 198.663 57.8127 198.5 57.8127 198.309C57.8127 198.154 57.7547 198.024 57.6385 197.919C57.5245 197.813 57.3492 197.734 57.1126 197.68L56.2737 197.496C55.8112 197.391 55.4692 197.223 55.2476 196.993C55.0282 196.762 54.9185 196.471 54.9185 196.118C54.9185 195.826 55.0002 195.57 55.1637 195.35C55.3272 195.131 55.5531 194.96 55.8413 194.837C56.1295 194.712 56.4597 194.65 56.8319 194.65C57.3675 194.65 57.7891 194.766 58.0967 194.999C58.4043 195.229 58.6076 195.537 58.7065 195.925Z" fill="#1F2937"/>
<rect x="141.27" y="217.083" width="49.7061" height="49.7061" rx="6.33357" fill="#111827"/>
<path d="M163.073 249.506V256.448H156.585V226.2H159.607C161.521 226.2 163.073 227.752 163.073 229.666V239.425L168.811 246.684C170.533 248.424 172.019 250.628 175.509 250.628L177.998 256.104C170.194 258.805 166.501 254.073 163.073 249.506ZM167.231 247.204L162.366 244.014C163.364 243.127 164.265 242.254 165.069 241.394C165.9 240.535 166.621 239.689 167.231 238.858C167.869 238.026 168.395 237.166 168.811 236.279C169.255 235.392 169.683 234.449 169.933 233.451H176.836C176.531 234.643 175.978 236.196 175.34 237.36C174.703 238.525 173.954 239.661 173.095 240.77C172.263 241.879 171.39 242.933 170.475 243.931C169.56 244.901 168.063 246.372 167.231 247.204Z" fill="white"/>
<g filter="url(#filter0_d_5260_4430)">
<rect x="210.959" y="216.694" width="50.4848" height="50.4848" rx="25.2424" fill="white" stroke="#1F2937" stroke-width="0.77865"/>
<path d="M233.15 249.506V256.448H226.663V226.2H229.685C231.599 226.2 233.15 227.752 233.15 229.666V239.425L238.889 246.684C240.611 248.424 242.096 250.628 245.586 250.628L248.076 256.104C240.272 258.805 236.578 254.073 233.15 249.506ZM237.309 247.204L232.443 244.014C233.441 243.127 234.342 242.254 235.146 241.394C235.978 240.535 236.699 239.689 237.309 238.858C237.946 238.026 238.473 237.166 238.889 236.279C239.332 235.392 239.761 234.449 240.01 233.451H246.914C246.609 234.643 246.055 236.196 245.418 237.36C244.78 238.525 244.032 239.661 243.172 240.77C242.34 241.879 241.467 242.933 240.552 243.931C239.637 244.901 238.14 246.372 237.309 247.204Z" fill="#4F46E5"/>
</g>
<path d="M49.8162 253.238C49.8162 260.722 43.7492 266.789 36.2653 266.789L13.6609 266.789C6.17694 266.789 0.110001 260.722 0.110002 253.238L0.862829 241.936L49.0633 241.936L49.8162 253.238Z" fill="#4F46E5"/>
<path d="M0.109861 230.634C0.109862 223.15 6.1768 217.083 13.6608 217.083L36.2651 217.083C43.7491 217.083 49.816 223.15 49.816 230.634L49.0632 241.936L0.862686 241.936L0.109861 230.634Z" fill="#4338CA"/>
<path d="M21.9121 249.506V256.448H15.4248V226.2H18.4467C20.3606 226.2 21.9121 227.752 21.9121 229.666V239.425L27.6509 246.684C29.3731 248.424 30.8582 250.628 34.3484 250.628L36.8377 256.104C29.0338 258.805 25.3401 254.073 21.9121 249.506ZM26.0706 247.204L21.2052 244.014C22.2032 243.127 23.1042 242.254 23.9082 241.394C24.7399 240.535 25.4607 239.689 26.0706 238.858C26.7083 238.026 27.235 237.166 27.6509 236.279C28.0944 235.392 28.5228 234.449 28.7724 233.451H35.6755C35.3706 234.643 34.8174 236.196 34.1798 237.36C33.5421 238.525 32.7936 239.661 31.9342 240.77C31.1024 241.879 30.2292 242.933 29.3143 243.931C28.3994 244.901 26.9023 246.372 26.0706 247.204Z" fill="white"/>
<rect x="71.1917" y="217.083" width="49.7061" height="49.7061" rx="6.33357" fill="#374151"/>
<path d="M92.9934 249.506V256.448H86.5061V226.2H89.528C91.4419 226.2 92.9934 227.752 92.9934 229.666V239.425L98.7322 246.684C100.454 248.424 101.94 250.628 105.43 250.628L107.919 256.104C100.115 258.805 96.4214 254.073 92.9934 249.506ZM97.1519 247.204L92.2865 244.014C93.2845 243.127 94.1855 242.254 94.9895 241.394C95.8212 240.535 96.542 239.689 97.1519 238.858C97.7896 238.026 98.3163 237.166 98.7322 236.279C99.1757 235.392 99.6041 234.449 99.8537 233.451H106.757C106.452 234.643 105.899 236.196 105.261 237.36C104.623 238.525 103.875 239.661 103.015 240.77C102.184 241.879 101.31 242.933 100.396 243.931C99.4807 244.901 97.9836 246.372 97.1519 247.204Z" fill="white"/>
</g>
<defs>
<filter id="filter0_d_5260_4430" x="209.013" y="216.305" width="54.378" height="54.378" filterUnits="userSpaceOnUse" color-interpolation-filters="sRGB">
<feFlood flood-opacity="0" result="BackgroundImageFix"/>
<feColorMatrix in="SourceAlpha" type="matrix" values="0 0 0 0 0 0 0 0 0 0 0 0 0 0 0 0 0 0 127 0" result="hardAlpha"/>
<feOffset dy="1.5573"/>
<feGaussianBlur stdDeviation="0.77865"/>
<feComposite in2="hardAlpha" operator="out"/>
<feColorMatrix type="matrix" values="0 0 0 0 0 0 0 0 0 0 0 0 0 0 0 0 0 0 0.25 0"/>
<feBlend mode="normal" in2="BackgroundImageFix" result="effect1_dropShadow_5260_4430"/>
<feBlend mode="normal" in="SourceGraphic" in2="effect1_dropShadow_5260_4430" result="shape"/>
</filter>
<clipPath id="clip0_5260_4430">
<rect width="310" height="270.239" fill="white" transform="translate(0 0.703613)"/>
</clipPath>
</defs>
</svg>
