<svg width="747" height="196" viewBox="0 0 747 196" fill="none" xmlns="http://www.w3.org/2000/svg">
<path d="M66.7196 154.279V128.108C79.6428 145.327 93.5673 163.164 122.987 152.982L113.603 132.337C101.968 133.671 96.9802 127.639 92.1646 121.814C90.9202 120.309 89.6872 118.818 88.354 117.471L86.5977 115.249C89.3552 112.503 92.4332 109.416 94.6249 107.091C98.0739 103.329 101.366 99.3571 104.501 95.1765C107.741 90.996 110.563 86.7109 112.967 82.3213C115.371 77.9317 117.456 72.0787 118.606 67.5846H92.5819C91.6413 71.3471 90.0263 74.9008 88.354 78.2452C86.7863 81.5897 84.8006 84.8296 82.3967 87.9651C80.0974 91.1005 77.3801 94.2882 74.2446 97.5281C73.9476 97.8456 73.6471 98.1636 73.3431 98.4821L66.7196 90.1034V53.3128C66.7196 46.0976 60.8706 40.2485 53.6554 40.2485H42.2633V154.279H66.7196Z" fill="#4F46E5"/>
<path d="M308.776 40.2822H297.177V132.518C297.214 140.832 299.46 146.881 303.914 150.667C308.367 154.453 315.271 156.16 324.623 155.789C329.919 155.595 335.971 154.554 339.8 152.792L332.48 136.689C330.188 137.118 325.434 137.516 323.343 135.023C322.378 133.836 321.877 131.961 321.84 129.401V53.3465C321.84 46.1313 315.991 40.2822 308.776 40.2822Z" fill="#4F46E5"/>
<path fill-rule="evenodd" clip-rule="evenodd" d="M440.169 150.437C446.553 153.963 454.143 155.726 462.939 155.726C470.139 155.726 476.467 154.631 481.923 152.442C487.416 150.252 491.888 147.171 495.339 143.2C498.791 139.229 501.055 134.552 502.131 129.171L479.417 127.946C478.638 130.024 477.469 131.787 475.91 133.235C474.388 134.645 472.57 135.721 470.454 136.464C468.339 137.169 465.982 137.522 463.384 137.522C459.561 137.522 456.258 136.724 453.474 135.128C450.691 133.532 448.52 131.268 446.961 128.336C445.439 125.367 444.678 121.859 444.678 117.814V117.535H502.577V110.966C502.577 103.766 501.556 97.4565 499.515 92.0378C497.474 86.582 494.616 82.0355 490.941 78.3983C487.304 74.7611 483.018 72.0332 478.081 70.2146C473.182 68.396 467.838 67.4866 462.048 67.4866C453.623 67.4866 446.274 69.3424 440.002 73.0538C433.767 76.7652 428.923 81.9427 425.472 88.5862C422.057 95.1925 420.35 102.912 420.35 111.746C420.35 120.801 422.057 128.633 425.472 135.239C428.923 141.808 433.822 146.874 440.169 150.437ZM444.704 102.56C444.864 99.5933 445.635 96.8839 447.017 94.4317C448.538 91.7595 450.635 89.6439 453.307 88.0851C456.017 86.4892 459.079 85.6913 462.493 85.6913C465.834 85.6913 468.766 86.415 471.289 87.8625C473.813 89.3099 475.799 91.3141 477.246 93.875C478.694 96.3988 479.436 99.2937 479.473 102.56H444.704Z" fill="#4F46E5"/>
<path fill-rule="evenodd" clip-rule="evenodd" d="M160.025 155.725C151.303 155.725 143.768 153.888 137.422 150.214C131.112 146.539 126.232 141.399 122.78 134.793C119.366 128.149 117.658 120.429 117.658 111.633C117.658 102.837 119.366 95.1358 122.78 88.5294C126.232 81.886 131.112 76.7271 137.422 73.0527C143.768 69.3413 151.303 67.4856 160.025 67.4856C168.784 67.4856 176.318 69.3413 182.627 73.0527C188.974 76.7271 193.854 81.886 197.269 88.5294C200.72 95.1358 202.446 102.837 202.446 111.633C202.446 120.429 200.72 128.149 197.269 134.793C193.854 141.399 188.974 146.539 182.627 150.214C176.318 153.888 168.784 155.725 160.025 155.725ZM160.192 136.797C163.903 136.797 167.039 135.72 169.6 133.568C172.161 131.378 174.091 128.39 175.39 124.605C176.689 120.782 177.338 116.421 177.338 111.522C177.338 106.586 176.689 102.225 175.39 98.439C174.091 94.6162 172.161 91.6099 169.6 89.4202C167.039 87.2304 163.903 86.1356 160.192 86.1356C156.369 86.1356 153.158 87.2304 150.56 89.4202C147.962 91.6099 145.995 94.6162 144.659 98.439C143.36 102.225 142.711 106.586 142.711 111.522C142.711 116.421 143.36 120.782 144.659 124.605C145.995 128.39 147.962 131.378 150.56 133.568C153.158 135.72 156.369 136.797 160.192 136.797Z" fill="#4F46E5"/>
<path fill-rule="evenodd" clip-rule="evenodd" d="M248.637 155.725C239.915 155.725 232.381 153.888 226.034 150.214C219.725 146.539 214.844 141.399 211.393 134.793C207.978 128.149 206.271 120.429 206.271 111.633C206.271 102.837 207.978 95.1358 211.393 88.5294C214.844 81.886 219.725 76.7271 226.034 73.0527C232.381 69.3413 239.915 67.4856 248.637 67.4856C257.396 67.4856 264.93 69.3413 271.24 73.0527C277.586 76.7271 282.467 81.886 285.881 88.5294C289.333 95.1358 291.059 102.837 291.059 111.633C291.059 120.429 289.333 128.149 285.881 134.793C282.467 141.399 277.586 146.539 271.24 150.214C264.93 153.888 257.396 155.725 248.637 155.725ZM248.804 136.797C252.515 136.797 255.652 135.72 258.213 133.568C260.773 131.378 262.703 128.39 264.002 124.605C265.301 120.782 265.951 116.421 265.951 111.522C265.951 106.586 265.301 102.225 264.002 98.439C262.703 94.6162 260.773 91.6099 258.213 89.4202C255.652 87.2304 252.515 86.1356 248.804 86.1356C244.981 86.1356 241.771 87.2304 239.173 89.4202C236.575 91.6099 234.608 94.6162 233.272 98.439C231.973 102.225 231.323 106.586 231.323 111.522C231.323 116.421 231.973 120.782 233.272 124.605C234.608 128.39 236.575 131.378 239.173 133.568C241.771 135.72 244.981 136.797 248.804 136.797Z" fill="#4F46E5"/>
<path fill-rule="evenodd" clip-rule="evenodd" d="M354.631 150.437C361.015 153.963 368.605 155.726 377.401 155.726C384.601 155.726 390.929 154.631 396.385 152.442C401.878 150.252 406.35 147.171 409.802 143.2C413.254 139.229 415.518 134.552 416.594 129.171L393.88 127.946C393.1 130.024 391.931 131.787 390.373 133.235C388.851 134.645 387.032 135.721 384.917 136.464C382.801 137.169 380.444 137.522 377.846 137.522C374.024 137.522 370.72 136.724 367.937 135.128C365.153 133.532 362.982 131.268 361.423 128.336C359.902 125.367 359.141 121.859 359.141 117.814V117.535H417.039V110.966C417.039 103.766 416.019 97.4565 413.977 92.0378C411.936 86.582 409.078 82.0355 405.404 78.3983C401.767 74.7611 397.48 72.0332 392.544 70.2146C387.645 68.396 382.3 67.4866 376.51 67.4866C368.085 67.4866 360.737 69.3424 354.464 73.0538C348.229 76.7652 343.386 81.9427 339.934 88.5862C336.52 95.1926 334.812 102.912 334.812 111.746C334.812 120.801 336.52 128.633 339.934 135.239C343.386 141.808 348.285 146.874 354.631 150.437ZM359.166 102.56C359.327 99.5933 360.097 96.8839 361.479 94.4317C363.001 91.7595 365.098 89.6439 367.77 88.0851C370.479 86.4892 373.541 85.6913 376.956 85.6913C380.296 85.6913 383.228 86.415 385.752 87.8625C388.276 89.3099 390.261 91.3141 391.709 93.875C393.156 96.3988 393.898 99.2937 393.936 102.56H359.166Z" fill="#4F46E5"/>
<rect x="526.577" y="10.5234" width="175.16" height="175.16" rx="8" fill="#4F46E5"/>
<path d="M675.463 125.983C675.463 144.444 660.497 159.409 642.036 159.409L586.277 159.409C567.817 159.409 552.851 144.444 552.851 125.983L554.708 98.1036L673.606 98.1036L675.463 125.983Z" fill="white"/>
<path d="M552.851 70.2237C552.851 51.7629 567.816 36.7974 586.277 36.7974L642.036 36.7974C660.497 36.7974 675.462 51.7629 675.462 70.2238L673.605 98.1032L554.708 98.1032L552.851 70.2237Z" fill="#EEF2FF"/>
<path d="M606.632 116.776V133.9H590.629V59.2871H598.083C602.804 59.2871 606.632 63.1143 606.632 67.8354V91.9085L620.788 109.816C625.036 114.107 628.699 119.543 637.309 119.543L643.449 133.052C624.199 139.714 615.088 128.043 606.632 116.776ZM616.89 111.098L604.888 103.229C607.35 101.041 609.572 98.8866 611.555 96.7667C613.607 94.6467 615.385 92.5609 616.89 90.5093C618.462 88.4577 619.762 86.3377 620.788 84.1494C621.882 81.961 622.938 79.6357 623.554 77.1738H640.582C639.83 80.1144 638.465 83.9442 636.893 86.8164C635.32 89.6887 633.473 92.4925 631.353 95.228C629.302 97.9634 627.147 100.562 624.891 103.024C622.634 105.418 618.941 109.047 616.89 111.098Z" fill="#4F46E5"/>
</svg>
