<svg width="312" height="223" viewBox="0 0 312 223" fill="none" xmlns="http://www.w3.org/2000/svg">
<g clip-path="url(#clip0_5641_22566)">
<rect x="0.5" y="0.496094" width="311" height="222" rx="37.9782" fill="#005F9C"/>
<path d="M283.364 -35.0072H28.3066L31.5945 -30.7606C52.2547 -4.07573 54.8032 32.4429 37.9771 61.6971L131.551 78.4494C147.613 81.3249 164.058 81.3249 180.12 78.4494L273.694 61.6971C256.868 32.4429 259.416 -4.07573 280.076 -30.7606L283.364 -35.0072Z" fill="#0588CB"/>
<path fill-rule="evenodd" clip-rule="evenodd" d="M267.351 -7.39341C234.117 30.5119 185.335 54.4443 130.962 54.4443C101.006 54.4443 72.7471 47.1799 47.85 34.3167C51.72 11.7298 46.1548 -11.9569 31.5964 -30.7606L28.3086 -35.0072H283.366L280.078 -30.7606C274.514 -23.5735 270.263 -15.6731 267.351 -7.39341Z" fill="#0F77B8"/>
<path d="M337.157 -163.14C337.157 -62.9998 255.977 18.1802 155.836 18.1802C55.6956 18.1802 -25.4844 -62.9998 -25.4844 -163.14C-25.4844 -263.281 55.6956 -344.461 155.836 -344.461C255.977 -344.461 337.157 -263.281 337.157 -163.14Z" fill="#0588CB"/>
<path d="M611.495 -191.481C614.256 -182.892 607.549 -174.426 598.528 -174.426V-174.426C593.037 -174.426 588.137 -177.68 585.339 -182.403C562.543 -220.877 513.406 -234.99 481.218 -190.156C420.84 -106.058 588.914 45.8062 460.647 153.502C367.255 231.916 179.406 183.138 179.406 61.5365L273.692 61.5366C309.389 114.175 400.326 106.736 427.975 66.3773C460.647 18.6879 413.783 -73.7697 406.194 -134.493C390.986 -256.192 564.771 -336.822 611.495 -191.481Z" fill="#37A6ED"/>
<path d="M139.906 418.679C135.894 410.321 142.331 401.051 151.602 401.051V401.051C156.291 401.051 160.574 403.564 163.374 407.326C199.575 455.962 284.999 453.646 293.126 391.381C303.72 310.212 132.265 251.319 132.265 61.5366H226.552C226.552 148.725 295.111 218.327 342.081 299.067C431.31 452.448 212.724 570.378 139.906 418.679Z" fill="#0588CB"/>
<path d="M-236.578 393.81C-237.745 401.84 -244.207 408.463 -252.321 408.463V408.463C-259.529 408.463 -265.75 403.201 -266.406 396.022C-275.21 299.737 -198.613 251.191 -165.705 241.044C-93.1769 218.68 -23.6708 262.197 18.6374 238.625C60.0498 215.552 77.2643 158.844 85.1219 61.5354H179.409C188.474 186.042 144.987 273.835 95.395 305.109C28.3079 347.416 -28.506 317.802 -93.177 305.109C-162.979 291.41 -227.641 332.294 -236.578 393.81Z" fill="#37A6ED"/>
<path d="M-300.354 -191.481C-303.115 -182.892 -296.408 -174.426 -287.386 -174.426V-174.426C-281.896 -174.426 -276.996 -177.68 -274.198 -182.403C-251.402 -220.877 -202.265 -234.99 -170.077 -190.156C-109.699 -106.058 -277.773 45.8062 -149.506 153.502C-56.1137 231.916 132.264 183.138 132.264 61.5365H37.977C2.2801 114.175 -89.1846 106.736 -116.834 66.3773C-149.506 18.6879 -102.641 -73.7697 -95.053 -134.493C-79.8446 -256.192 -253.63 -336.822 -300.354 -191.481Z" fill="#0588CB"/>
<path d="M274.297 61.6838L274.297 166.561" stroke="#FCC419" stroke-width="1.2088" stroke-dasharray="2.42 2.42"/>
<path d="M180.01 61.6838L180.01 166.561" stroke="#FCC419" stroke-width="1.2088" stroke-dasharray="2.42 2.42"/>
<path d="M131.658 61.6838L131.658 166.561" stroke="#FCC419" stroke-width="1.2088" stroke-dasharray="2.42 2.42"/>
<path d="M227.152 61.6838L227.152 166.561" stroke="#FCC419" stroke-width="1.2088" stroke-dasharray="2.42 2.42"/>
<path d="M84.5156 61.6838L84.5156 166.561" stroke="#FCC419" stroke-width="1.2088" stroke-dasharray="2.42 2.42"/>
<path d="M37.3711 61.6838L37.3711 166.561" stroke="#FCC419" stroke-width="1.2088" stroke-dasharray="2.42 2.42"/>
<path d="M56.5093 78.2911V79.4528H52.8458V78.2911H56.5093ZM53.7503 76.7643H55.2522V82.7471C55.2522 82.949 55.2826 83.1039 55.3435 83.2118C55.4071 83.3169 55.4901 83.3888 55.5924 83.4275C55.6948 83.4663 55.8082 83.4856 55.9326 83.4856C56.0267 83.4856 56.1124 83.4787 56.1899 83.4649C56.2701 83.4511 56.3309 83.4386 56.3724 83.4275L56.6255 84.6017C56.5453 84.6294 56.4305 84.6598 56.2811 84.693C56.1345 84.7262 55.9548 84.7455 55.7418 84.7511C55.3656 84.7621 55.0268 84.7054 54.7253 84.581C54.4238 84.4537 54.1845 84.2573 54.0075 83.9918C53.8333 83.7263 53.7475 83.3944 53.7503 82.9961V76.7643ZM60.5183 84.7884C59.8793 84.7884 59.3275 84.6556 58.8628 84.3901C58.4009 84.1218 58.0455 83.7429 57.7965 83.2533C57.5476 82.7609 57.4231 82.1815 57.4231 81.5149C57.4231 80.8593 57.5476 80.284 57.7965 79.7889C58.0483 79.291 58.3995 78.9038 58.8504 78.6272C59.3012 78.3478 59.8309 78.2082 60.4394 78.2082C60.8322 78.2082 61.2028 78.2718 61.5514 78.399C61.9026 78.5235 62.2124 78.7171 62.4807 78.9799C62.7518 79.2426 62.9648 79.5773 63.1197 79.9839C63.2746 80.3877 63.352 80.869 63.352 81.4277V81.8883H58.1285V80.8759H61.9123C61.9096 80.5883 61.8473 80.3324 61.7256 80.1084C61.6039 79.8816 61.4338 79.7032 61.2153 79.5732C60.9995 79.4432 60.7478 79.3782 60.4602 79.3782C60.1532 79.3782 59.8835 79.4528 59.6511 79.6022C59.4188 79.7488 59.2376 79.9424 59.1076 80.1831C58.9804 80.4209 58.9154 80.6823 58.9126 80.9672V81.8509C58.9126 82.2216 58.9804 82.5397 59.1159 82.8052C59.2515 83.068 59.4409 83.2699 59.6843 83.411C59.9277 83.5493 60.2126 83.6184 60.539 83.6184C60.7575 83.6184 60.9553 83.588 61.1323 83.5271C61.3093 83.4635 61.4629 83.3708 61.5929 83.2491C61.7229 83.1274 61.821 82.9767 61.8874 82.7969L63.2898 82.9546C63.2013 83.3252 63.0325 83.6488 62.7836 83.9254C62.5374 84.1993 62.2221 84.4122 61.8376 84.5644C61.4532 84.7137 61.0134 84.7884 60.5183 84.7884ZM66.1246 80.9299V84.6639H64.6226V78.2911H66.0582V79.374H66.1329C66.2795 79.0172 66.5132 78.7337 66.834 78.5235C67.1576 78.3133 67.5573 78.2082 68.0331 78.2082C68.4729 78.2082 68.856 78.3022 69.1823 78.4903C69.5115 78.6784 69.766 78.9508 69.9458 79.3076C70.1283 79.6644 70.2182 80.0973 70.2154 80.6063V84.6639H68.7135V80.8386C68.7135 80.4126 68.6029 80.0793 68.3816 79.8387C68.1631 79.5981 67.8602 79.4777 67.473 79.4777C67.2102 79.4777 66.9765 79.5358 66.7718 79.652C66.5699 79.7654 66.4108 79.93 66.2947 80.1457C66.1813 80.3615 66.1246 80.6228 66.1246 80.9299ZM74.9245 78.2911V79.4528H71.261V78.2911H74.9245ZM72.1654 76.7643H73.6674V82.7471C73.6674 82.949 73.6978 83.1039 73.7587 83.2118C73.8223 83.3169 73.9052 83.3888 74.0076 83.4275C74.1099 83.4663 74.2233 83.4856 74.3478 83.4856C74.4418 83.4856 74.5276 83.4787 74.605 83.4649C74.6853 83.4511 74.7461 83.4386 74.7876 83.4275L75.0407 84.6017C74.9605 84.6294 74.8457 84.6598 74.6963 84.693C74.5497 84.7262 74.3699 84.7455 74.157 84.7511C73.7808 84.7621 73.4419 84.7054 73.1405 84.581C72.839 84.4537 72.5997 84.2573 72.4227 83.9918C72.2484 83.7263 72.1627 83.3944 72.1654 82.9961V76.7643ZM78.0145 84.7926C77.6106 84.7926 77.2469 84.7206 76.9233 84.5768C76.6024 84.4302 76.348 84.2145 76.1599 83.9296C75.9745 83.6447 75.8819 83.2934 75.8819 82.8757C75.8819 82.5162 75.9483 82.2188 76.081 81.9837C76.2138 81.7486 76.395 81.5605 76.6245 81.4195C76.8541 81.2784 77.1127 81.1719 77.4004 81.1C77.6908 81.0253 77.9909 80.9714 78.3007 80.9382C78.6741 80.8994 78.977 80.8649 79.2094 80.8344C79.4417 80.8013 79.6104 80.7515 79.7155 80.6851C79.8234 80.6159 79.8773 80.5094 79.8773 80.3656V80.3407C79.8773 80.0282 79.7847 79.7861 79.5994 79.6147C79.414 79.4432 79.1471 79.3574 78.7986 79.3574C78.4307 79.3574 78.1389 79.4376 77.9232 79.5981C77.7102 79.7585 77.5664 79.948 77.4917 80.1665L76.0893 79.9673C76.2 79.5801 76.3825 79.2565 76.637 78.9965C76.8915 78.7337 77.2026 78.5373 77.5705 78.4073C77.9384 78.2745 78.345 78.2082 78.7903 78.2082C79.0973 78.2082 79.403 78.2441 79.7072 78.316C80.0115 78.3879 80.2895 78.5069 80.5412 78.6728C80.7929 78.836 80.9948 79.0587 81.1469 79.3408C81.3018 79.6229 81.3793 79.9756 81.3793 80.3988V84.6639H79.9354V83.7885H79.8856C79.7944 83.9655 79.6657 84.1315 79.4998 84.2864C79.3366 84.4385 79.1305 84.5616 78.8816 84.6556C78.6354 84.7469 78.3464 84.7926 78.0145 84.7926ZM78.4045 83.6889C78.7059 83.6889 78.9673 83.6295 79.1886 83.5105C79.4099 83.3888 79.58 83.2284 79.6989 83.0292C79.8206 82.8301 79.8815 82.613 79.8815 82.3779V81.6269C79.8345 81.6656 79.7542 81.7016 79.6408 81.7348C79.5302 81.768 79.4057 81.797 79.2674 81.8219C79.1291 81.8468 78.9922 81.8689 78.8567 81.8883C78.7212 81.9076 78.6036 81.9242 78.504 81.9381C78.28 81.9685 78.0795 82.0183 77.9024 82.0874C77.7254 82.1566 77.5857 82.2534 77.4834 82.3779C77.381 82.4996 77.3299 82.6572 77.3299 82.8508C77.3299 83.1274 77.4308 83.3363 77.6327 83.4773C77.8347 83.6184 78.0919 83.6889 78.4045 83.6889ZM85.6693 84.7884C85.0331 84.7884 84.4868 84.6487 84.0304 84.3694C83.5768 84.09 83.2269 83.7041 82.9808 83.2118C82.7374 82.7167 82.6157 82.1469 82.6157 81.5024C82.6157 80.8552 82.7401 80.284 82.9891 79.7889C83.238 79.291 83.5893 78.9038 84.0429 78.6272C84.4993 78.3478 85.0386 78.2082 85.661 78.2082C86.1782 78.2082 86.636 78.3036 87.0343 78.4944C87.4354 78.6825 87.7548 78.9494 87.9927 79.2952C88.2306 79.6382 88.3661 80.0392 88.3993 80.4984H86.9638C86.9057 80.1914 86.7674 79.9355 86.5489 79.7308C86.3331 79.5234 86.0441 79.4196 85.6817 79.4196C85.3747 79.4196 85.105 79.5026 84.8727 79.6686C84.6403 79.8318 84.4592 80.0669 84.3292 80.3739C84.2019 80.6809 84.1383 81.0488 84.1383 81.4775C84.1383 81.9118 84.2019 82.2852 84.3292 82.5978C84.4564 82.9075 84.6348 83.1468 84.8644 83.3155C85.0967 83.4815 85.3692 83.5645 85.6817 83.5645C85.903 83.5645 86.1008 83.523 86.275 83.44C86.4521 83.3543 86.6 83.2312 86.719 83.0707C86.8379 82.9103 86.9195 82.7153 86.9638 82.4857H88.3993C88.3633 82.9366 88.2306 83.3363 88.001 83.6848C87.7714 84.0305 87.4589 84.3016 87.0633 84.498C86.6678 84.6916 86.2031 84.7884 85.6693 84.7884ZM91.1345 76.1669V84.6639H89.6326V76.1669H91.1345ZM95.5003 84.7884C94.8613 84.7884 94.3095 84.6556 93.8448 84.3901C93.3829 84.1218 93.0275 83.7429 92.7785 83.2533C92.5296 82.7609 92.4051 82.1815 92.4051 81.5149C92.4051 80.8593 92.5296 80.284 92.7785 79.7889C93.0302 79.291 93.3815 78.9038 93.8324 78.6272C94.2832 78.3478 94.8129 78.2082 95.4214 78.2082C95.8142 78.2082 96.1848 78.2718 96.5334 78.399C96.8846 78.5235 97.1944 78.7171 97.4627 78.9799C97.7338 79.2426 97.9468 79.5773 98.1017 79.9839C98.2566 80.3877 98.334 80.869 98.334 81.4277V81.8883H93.1105V80.8759H96.8943C96.8915 80.5883 96.8293 80.3324 96.7076 80.1084C96.5859 79.8816 96.4158 79.7032 96.1973 79.5732C95.9815 79.4432 95.7298 79.3782 95.4422 79.3782C95.1352 79.3782 94.8655 79.4528 94.6331 79.6022C94.4008 79.7488 94.2196 79.9424 94.0896 80.1831C93.9624 80.4209 93.8974 80.6823 93.8946 80.9672V81.8509C93.8946 82.2216 93.9624 82.5397 94.0979 82.8052C94.2334 83.068 94.4229 83.2699 94.6663 83.411C94.9097 83.5493 95.1946 83.6184 95.521 83.6184C95.7395 83.6184 95.9373 83.588 96.1143 83.5271C96.2913 83.4635 96.4448 83.3708 96.5748 83.2491C96.7048 83.1274 96.803 82.9767 96.8694 82.7969L98.2718 82.9546C98.1833 83.3252 98.0145 83.6488 97.7656 83.9254C97.5194 84.1993 97.2041 84.4122 96.8196 84.5644C96.4352 84.7137 95.9954 84.7884 95.5003 84.7884ZM103.467 80.5067V81.7431H99.642V80.5067H103.467ZM108.171 84.8258C107.488 84.8258 106.902 84.6529 106.412 84.3071C105.925 83.9586 105.55 83.4566 105.288 82.8011C105.028 82.1428 104.898 81.3503 104.898 80.4237C104.9 79.4971 105.032 78.7088 105.292 78.0588C105.555 77.406 105.929 76.9081 106.416 76.5652C106.906 76.2222 107.491 76.0507 108.171 76.0507C108.852 76.0507 109.437 76.2222 109.926 76.5652C110.416 76.9081 110.791 77.406 111.051 78.0588C111.313 78.7116 111.445 79.4999 111.445 80.4237C111.445 81.3531 111.313 82.1469 111.051 82.8052C110.791 83.4607 110.416 83.9614 109.926 84.3071C109.439 84.6529 108.854 84.8258 108.171 84.8258ZM108.171 83.5271C108.702 83.5271 109.121 83.2657 109.428 82.743C109.738 82.2174 109.893 81.4443 109.893 80.4237C109.893 79.7488 109.822 79.1818 109.681 78.7226C109.54 78.2635 109.341 77.9177 109.084 77.6854C108.827 77.4503 108.522 77.3327 108.171 77.3327C107.643 77.3327 107.225 77.5955 106.918 78.121C106.611 78.6438 106.456 79.4114 106.454 80.4237C106.451 81.1014 106.519 81.6712 106.657 82.1331C106.798 82.595 106.997 82.9435 107.254 83.1786C107.512 83.411 107.817 83.5271 108.171 83.5271ZM116.279 76.1669V84.6639H114.74V77.6646H114.69L112.703 78.9342V77.5236L114.815 76.1669H116.279Z" fill="white"/>
<path d="M37.3711 67.7412L43.2128 71.1139V64.3685L37.3711 67.7412ZM132.128 67.7412L126.287 64.3685V71.1139L132.128 67.7412ZM42.6287 68.3254H126.871V67.157H42.6287V68.3254Z" fill="white"/>
<path d="M103.424 108.904V110.066H99.7606V108.904H103.424ZM100.665 107.377H102.167V113.36C102.167 113.562 102.197 113.717 102.258 113.824C102.322 113.93 102.405 114.001 102.507 114.04C102.61 114.079 102.723 114.098 102.847 114.098C102.942 114.098 103.027 114.091 103.105 114.078C103.185 114.064 103.246 114.051 103.287 114.04L103.54 115.214C103.46 115.242 103.345 115.272 103.196 115.306C103.049 115.339 102.87 115.358 102.657 115.364C102.28 115.375 101.942 115.318 101.64 115.194C101.339 115.066 101.099 114.87 100.922 114.604C100.748 114.339 100.662 114.007 100.665 113.609V107.377ZM107.433 115.401C106.794 115.401 106.242 115.268 105.778 115.003C105.316 114.734 104.96 114.356 104.711 113.866C104.462 113.374 104.338 112.794 104.338 112.128C104.338 111.472 104.462 110.897 104.711 110.402C104.963 109.904 105.314 109.516 105.765 109.24C106.216 108.961 106.746 108.821 107.354 108.821C107.747 108.821 108.118 108.884 108.466 109.012C108.817 109.136 109.127 109.33 109.396 109.593C109.667 109.855 109.88 110.19 110.035 110.597C110.189 111 110.267 111.482 110.267 112.04V112.501H105.043V111.489H108.827C108.824 111.201 108.762 110.945 108.64 110.721C108.519 110.494 108.349 110.316 108.13 110.186C107.914 110.056 107.663 109.991 107.375 109.991C107.068 109.991 106.798 110.066 106.566 110.215C106.334 110.361 106.152 110.555 106.022 110.796C105.895 111.034 105.83 111.295 105.827 111.58V112.464C105.827 112.834 105.895 113.152 106.031 113.418C106.166 113.681 106.356 113.883 106.599 114.024C106.843 114.162 107.127 114.231 107.454 114.231C107.672 114.231 107.87 114.201 108.047 114.14C108.224 114.076 108.378 113.984 108.508 113.862C108.638 113.74 108.736 113.589 108.802 113.41L110.205 113.567C110.116 113.938 109.947 114.261 109.698 114.538C109.452 114.812 109.137 115.025 108.752 115.177C108.368 115.326 107.928 115.401 107.433 115.401ZM113.039 111.543V115.277H111.537V108.904H112.973V109.987H113.048C113.194 109.63 113.428 109.346 113.749 109.136C114.072 108.926 114.472 108.821 114.948 108.821C115.388 108.821 115.771 108.915 116.097 109.103C116.426 109.291 116.681 109.563 116.861 109.92C117.043 110.277 117.133 110.71 117.13 111.219V115.277H115.628V111.451C115.628 111.025 115.518 110.692 115.296 110.451C115.078 110.211 114.775 110.09 114.388 110.09C114.125 110.09 113.891 110.148 113.687 110.265C113.485 110.378 113.326 110.543 113.209 110.758C113.096 110.974 113.039 111.236 113.039 111.543ZM121.839 108.904V110.066H118.176V108.904H121.839ZM119.08 107.377H120.582V113.36C120.582 113.562 120.613 113.717 120.673 113.824C120.737 113.93 120.82 114.001 120.922 114.04C121.025 114.079 121.138 114.098 121.263 114.098C121.357 114.098 121.442 114.091 121.52 114.078C121.6 114.064 121.661 114.051 121.702 114.04L121.956 115.214C121.875 115.242 121.761 115.272 121.611 115.306C121.465 115.339 121.285 115.358 121.072 115.364C120.696 115.375 120.357 115.318 120.055 115.194C119.754 115.066 119.515 114.87 119.338 114.604C119.163 114.339 119.078 114.007 119.08 113.609V107.377ZM124.929 115.405C124.525 115.405 124.162 115.333 123.838 115.189C123.517 115.043 123.263 114.827 123.075 114.542C122.889 114.257 122.797 113.906 122.797 113.488C122.797 113.129 122.863 112.831 122.996 112.596C123.129 112.361 123.31 112.173 123.539 112.032C123.769 111.891 124.028 111.785 124.315 111.713C124.606 111.638 124.906 111.584 125.216 111.551C125.589 111.512 125.892 111.478 126.124 111.447C126.357 111.414 126.525 111.364 126.63 111.298C126.738 111.229 126.792 111.122 126.792 110.978V110.953C126.792 110.641 126.7 110.399 126.514 110.227C126.329 110.056 126.062 109.97 125.713 109.97C125.346 109.97 125.054 110.05 124.838 110.211C124.625 110.371 124.481 110.561 124.407 110.779L123.004 110.58C123.115 110.193 123.297 109.869 123.552 109.609C123.806 109.346 124.117 109.15 124.485 109.02C124.853 108.887 125.26 108.821 125.705 108.821C126.012 108.821 126.318 108.857 126.622 108.929C126.926 109.001 127.204 109.12 127.456 109.286C127.708 109.449 127.91 109.671 128.062 109.953C128.217 110.236 128.294 110.588 128.294 111.011V115.277H126.85V114.401H126.8C126.709 114.578 126.581 114.744 126.415 114.899C126.251 115.051 126.045 115.174 125.796 115.268C125.55 115.36 125.261 115.405 124.929 115.405ZM125.319 114.302C125.621 114.302 125.882 114.242 126.103 114.123C126.325 114.001 126.495 113.841 126.614 113.642C126.735 113.443 126.796 113.226 126.796 112.991V112.24C126.749 112.278 126.669 112.314 126.556 112.347C126.445 112.381 126.321 112.41 126.182 112.435C126.044 112.459 125.907 112.482 125.772 112.501C125.636 112.52 125.518 112.537 125.419 112.551C125.195 112.581 124.994 112.631 124.817 112.7C124.64 112.769 124.501 112.866 124.398 112.991C124.296 113.112 124.245 113.27 124.245 113.464C124.245 113.74 124.346 113.949 124.548 114.09C124.749 114.231 125.007 114.302 125.319 114.302ZM132.584 115.401C131.948 115.401 131.402 115.261 130.945 114.982C130.492 114.703 130.142 114.317 129.896 113.824C129.652 113.329 129.53 112.76 129.53 112.115C129.53 111.468 129.655 110.897 129.904 110.402C130.153 109.904 130.504 109.516 130.958 109.24C131.414 108.961 131.953 108.821 132.576 108.821C133.093 108.821 133.551 108.916 133.949 109.107C134.35 109.295 134.67 109.562 134.908 109.908C135.145 110.251 135.281 110.652 135.314 111.111H133.879C133.821 110.804 133.682 110.548 133.464 110.343C133.248 110.136 132.959 110.032 132.597 110.032C132.29 110.032 132.02 110.115 131.788 110.281C131.555 110.444 131.374 110.68 131.244 110.987C131.117 111.294 131.053 111.661 131.053 112.09C131.053 112.524 131.117 112.898 131.244 113.21C131.371 113.52 131.55 113.759 131.779 113.928C132.012 114.094 132.284 114.177 132.597 114.177C132.818 114.177 133.016 114.136 133.19 114.053C133.367 113.967 133.515 113.844 133.634 113.683C133.753 113.523 133.834 113.328 133.879 113.098H135.314C135.278 113.549 135.145 113.949 134.916 114.297C134.686 114.643 134.374 114.914 133.978 115.111C133.583 115.304 133.118 115.401 132.584 115.401ZM138.049 106.78V115.277H136.547V106.78H138.049ZM142.415 115.401C141.776 115.401 141.224 115.268 140.76 115.003C140.298 114.734 139.942 114.356 139.693 113.866C139.444 113.374 139.32 112.794 139.32 112.128C139.32 111.472 139.444 110.897 139.693 110.402C139.945 109.904 140.296 109.516 140.747 109.24C141.198 108.961 141.728 108.821 142.336 108.821C142.729 108.821 143.1 108.884 143.448 109.012C143.799 109.136 144.109 109.33 144.378 109.593C144.649 109.855 144.862 110.19 145.016 110.597C145.171 111 145.249 111.482 145.249 112.04V112.501H140.025V111.489H143.809C143.806 111.201 143.744 110.945 143.622 110.721C143.501 110.494 143.331 110.316 143.112 110.186C142.896 110.056 142.645 109.991 142.357 109.991C142.05 109.991 141.78 110.066 141.548 110.215C141.316 110.361 141.134 110.555 141.004 110.796C140.877 111.034 140.812 111.295 140.809 111.58V112.464C140.809 112.834 140.877 113.152 141.013 113.418C141.148 113.681 141.338 113.883 141.581 114.024C141.825 114.162 142.109 114.231 142.436 114.231C142.654 114.231 142.852 114.201 143.029 114.14C143.206 114.076 143.36 113.984 143.49 113.862C143.62 113.74 143.718 113.589 143.784 113.41L145.187 113.567C145.098 113.938 144.929 114.261 144.68 114.538C144.434 114.812 144.119 115.025 143.734 115.177C143.35 115.326 142.91 115.401 142.415 115.401ZM150.382 111.119V112.356H146.557V111.119H150.382ZM155.086 115.438C154.403 115.438 153.816 115.266 153.327 114.92C152.84 114.571 152.465 114.069 152.203 113.414C151.943 112.755 151.812 111.963 151.812 111.036C151.815 110.11 151.947 109.321 152.207 108.671C152.469 108.019 152.844 107.521 153.331 107.178C153.821 106.835 154.406 106.663 155.086 106.663C155.766 106.663 156.351 106.835 156.841 107.178C157.331 107.521 157.705 108.019 157.965 108.671C158.228 109.324 158.36 110.113 158.36 111.036C158.36 111.966 158.228 112.76 157.965 113.418C157.705 114.073 157.331 114.574 156.841 114.92C156.354 115.266 155.769 115.438 155.086 115.438ZM155.086 114.14C155.617 114.14 156.036 113.878 156.343 113.356C156.653 112.83 156.808 112.057 156.808 111.036C156.808 110.361 156.737 109.794 156.596 109.335C156.455 108.876 156.256 108.53 155.999 108.298C155.742 108.063 155.437 107.945 155.086 107.945C154.558 107.945 154.14 108.208 153.833 108.734C153.526 109.256 153.371 110.024 153.368 111.036C153.366 111.714 153.433 112.284 153.572 112.746C153.713 113.208 153.912 113.556 154.169 113.791C154.426 114.024 154.732 114.14 155.086 114.14ZM159.738 115.277V114.165L162.688 111.273C162.97 110.988 163.205 110.735 163.393 110.514C163.581 110.292 163.722 110.078 163.816 109.871C163.911 109.663 163.958 109.442 163.958 109.207C163.958 108.938 163.897 108.709 163.775 108.518C163.653 108.324 163.486 108.175 163.273 108.07C163.06 107.965 162.818 107.912 162.547 107.912C162.268 107.912 162.023 107.97 161.813 108.086C161.602 108.2 161.439 108.362 161.323 108.572C161.21 108.782 161.153 109.032 161.153 109.323H159.688C159.688 108.783 159.811 108.315 160.058 107.916C160.304 107.518 160.643 107.21 161.074 106.991C161.508 106.773 162.006 106.663 162.568 106.663C163.137 106.663 163.638 106.77 164.07 106.983C164.501 107.196 164.836 107.488 165.074 107.858C165.314 108.229 165.435 108.652 165.435 109.128C165.435 109.446 165.374 109.758 165.252 110.066C165.13 110.373 164.916 110.713 164.609 111.086C164.305 111.46 163.877 111.912 163.327 112.443L161.862 113.932V113.99H165.563V115.277H159.738Z" fill="white"/>
<path d="M85.1074 98.3539L90.9492 101.727V94.9812L85.1074 98.3539ZM179.865 98.3539L174.023 94.9812V101.727L179.865 98.3539ZM90.365 98.9381H174.607V97.7697H90.365V98.9381Z" fill="white"/>
<path d="M151.154 141.618V142.779H147.49V141.618H151.154ZM148.395 140.091H149.896V146.074C149.896 146.275 149.927 146.43 149.988 146.538C150.051 146.643 150.134 146.715 150.237 146.754C150.339 146.793 150.452 146.812 150.577 146.812C150.671 146.812 150.757 146.805 150.834 146.791C150.914 146.777 150.975 146.765 151.017 146.754L151.27 147.928C151.19 147.956 151.075 147.986 150.925 148.019C150.779 148.053 150.599 148.072 150.386 148.077C150.01 148.089 149.671 148.032 149.37 147.907C149.068 147.78 148.829 147.584 148.652 147.318C148.477 147.053 148.392 146.721 148.395 146.322V140.091ZM155.163 148.115C154.524 148.115 153.972 147.982 153.507 147.717C153.045 147.448 152.69 147.069 152.441 146.58C152.192 146.087 152.067 145.508 152.067 144.841C152.067 144.186 152.192 143.61 152.441 143.115C152.692 142.617 153.044 142.23 153.495 141.954C153.945 141.674 154.475 141.535 155.084 141.535C155.476 141.535 155.847 141.598 156.196 141.725C156.547 141.85 156.857 142.044 157.125 142.306C157.396 142.569 157.609 142.904 157.764 143.31C157.919 143.714 157.996 144.195 157.996 144.754V145.215H152.773V144.202H156.557C156.554 143.915 156.492 143.659 156.37 143.435C156.248 143.208 156.078 143.03 155.86 142.9C155.644 142.77 155.392 142.705 155.104 142.705C154.797 142.705 154.528 142.779 154.295 142.929C154.063 143.075 153.882 143.269 153.752 143.509C153.625 143.747 153.56 144.009 153.557 144.294V145.177C153.557 145.548 153.625 145.866 153.76 146.132C153.896 146.394 154.085 146.596 154.329 146.737C154.572 146.876 154.857 146.945 155.183 146.945C155.402 146.945 155.6 146.914 155.777 146.854C155.954 146.79 156.107 146.697 156.237 146.576C156.367 146.454 156.465 146.303 156.532 146.123L157.934 146.281C157.846 146.652 157.677 146.975 157.428 147.252C157.182 147.526 156.866 147.739 156.482 147.891C156.097 148.04 155.658 148.115 155.163 148.115ZM160.769 144.256V147.99H159.267V141.618H160.702V142.7H160.777C160.924 142.344 161.157 142.06 161.478 141.85C161.802 141.64 162.202 141.535 162.677 141.535C163.117 141.535 163.5 141.629 163.827 141.817C164.156 142.005 164.41 142.277 164.59 142.634C164.773 142.991 164.862 143.424 164.86 143.933V147.99H163.358V144.165C163.358 143.739 163.247 143.406 163.026 143.165C162.807 142.924 162.504 142.804 162.117 142.804C161.854 142.804 161.621 142.862 161.416 142.978C161.214 143.092 161.055 143.256 160.939 143.472C160.825 143.688 160.769 143.949 160.769 144.256ZM169.569 141.618V142.779H165.905V141.618H169.569ZM166.81 140.091H168.312V146.074C168.312 146.275 168.342 146.43 168.403 146.538C168.467 146.643 168.549 146.715 168.652 146.754C168.754 146.793 168.868 146.812 168.992 146.812C169.086 146.812 169.172 146.805 169.249 146.791C169.329 146.777 169.39 146.765 169.432 146.754L169.685 147.928C169.605 147.956 169.49 147.986 169.341 148.019C169.194 148.053 169.014 148.072 168.801 148.077C168.425 148.089 168.086 148.032 167.785 147.907C167.483 147.78 167.244 147.584 167.067 147.318C166.893 147.053 166.807 146.721 166.81 146.322V140.091ZM172.659 148.119C172.255 148.119 171.891 148.047 171.568 147.903C171.247 147.757 170.992 147.541 170.804 147.256C170.619 146.971 170.526 146.62 170.526 146.202C170.526 145.843 170.593 145.545 170.725 145.31C170.858 145.075 171.039 144.887 171.269 144.746C171.498 144.605 171.757 144.498 172.045 144.426C172.335 144.352 172.635 144.298 172.945 144.265C173.318 144.226 173.621 144.191 173.854 144.161C174.086 144.128 174.255 144.078 174.36 144.011C174.468 143.942 174.522 143.836 174.522 143.692V143.667C174.522 143.355 174.429 143.113 174.244 142.941C174.058 142.77 173.791 142.684 173.443 142.684C173.075 142.684 172.783 142.764 172.567 142.924C172.354 143.085 172.211 143.274 172.136 143.493L170.734 143.294C170.844 142.906 171.027 142.583 171.281 142.323C171.536 142.06 171.847 141.864 172.215 141.734C172.583 141.601 172.989 141.535 173.435 141.535C173.742 141.535 174.047 141.571 174.351 141.642C174.656 141.714 174.934 141.833 175.185 141.999C175.437 142.162 175.639 142.385 175.791 142.667C175.946 142.949 176.023 143.302 176.023 143.725V147.99H174.58V147.115H174.53C174.439 147.292 174.31 147.458 174.144 147.613C173.981 147.765 173.775 147.888 173.526 147.982C173.28 148.073 172.991 148.119 172.659 148.119ZM173.049 147.015C173.35 147.015 173.612 146.956 173.833 146.837C174.054 146.715 174.224 146.555 174.343 146.356C174.465 146.157 174.526 145.939 174.526 145.704V144.953C174.479 144.992 174.398 145.028 174.285 145.061C174.174 145.094 174.05 145.123 173.912 145.148C173.773 145.173 173.636 145.195 173.501 145.215C173.365 145.234 173.248 145.251 173.148 145.264C172.924 145.295 172.724 145.345 172.547 145.414C172.37 145.483 172.23 145.58 172.128 145.704C172.025 145.826 171.974 145.984 171.974 146.177C171.974 146.454 172.075 146.663 172.277 146.804C172.479 146.945 172.736 147.015 173.049 147.015ZM180.314 148.115C179.677 148.115 179.131 147.975 178.675 147.696C178.221 147.416 177.871 147.031 177.625 146.538C177.382 146.043 177.26 145.473 177.26 144.829C177.26 144.182 177.384 143.61 177.633 143.115C177.882 142.617 178.234 142.23 178.687 141.954C179.144 141.674 179.683 141.535 180.305 141.535C180.822 141.535 181.28 141.63 181.679 141.821C182.08 142.009 182.399 142.276 182.637 142.622C182.875 142.965 183.01 143.366 183.044 143.825H181.608C181.55 143.518 181.412 143.262 181.193 143.057C180.977 142.85 180.688 142.746 180.326 142.746C180.019 142.746 179.749 142.829 179.517 142.995C179.285 143.158 179.103 143.393 178.973 143.7C178.846 144.007 178.783 144.375 178.783 144.804C178.783 145.238 178.846 145.612 178.973 145.924C179.101 146.234 179.279 146.473 179.509 146.642C179.741 146.808 180.013 146.891 180.326 146.891C180.547 146.891 180.745 146.849 180.919 146.766C181.096 146.681 181.244 146.558 181.363 146.397C181.482 146.237 181.564 146.042 181.608 145.812H183.044C183.008 146.263 182.875 146.663 182.645 147.011C182.416 147.357 182.103 147.628 181.708 147.824C181.312 148.018 180.847 148.115 180.314 148.115ZM185.779 139.493V147.99H184.277V139.493H185.779ZM190.144 148.115C189.506 148.115 188.954 147.982 188.489 147.717C188.027 147.448 187.672 147.069 187.423 146.58C187.174 146.087 187.049 145.508 187.049 144.841C187.049 144.186 187.174 143.61 187.423 143.115C187.674 142.617 188.026 142.23 188.477 141.954C188.927 141.674 189.457 141.535 190.066 141.535C190.458 141.535 190.829 141.598 191.178 141.725C191.529 141.85 191.839 142.044 192.107 142.306C192.378 142.569 192.591 142.904 192.746 143.31C192.901 143.714 192.978 144.195 192.978 144.754V145.215H187.755V144.202H191.539C191.536 143.915 191.474 143.659 191.352 143.435C191.23 143.208 191.06 143.03 190.842 142.9C190.626 142.77 190.374 142.705 190.086 142.705C189.779 142.705 189.51 142.779 189.277 142.929C189.045 143.075 188.864 143.269 188.734 143.509C188.607 143.747 188.542 144.009 188.539 144.294V145.177C188.539 145.548 188.607 145.866 188.742 146.132C188.878 146.394 189.067 146.596 189.311 146.737C189.554 146.876 189.839 146.945 190.165 146.945C190.384 146.945 190.582 146.914 190.759 146.854C190.936 146.79 191.089 146.697 191.219 146.576C191.349 146.454 191.447 146.303 191.514 146.123L192.916 146.281C192.827 146.652 192.659 146.975 192.41 147.252C192.164 147.526 191.848 147.739 191.464 147.891C191.079 148.04 190.64 148.115 190.144 148.115ZM198.112 143.833V145.069H194.286V143.833H198.112ZM202.815 148.152C202.132 148.152 201.546 147.979 201.056 147.634C200.569 147.285 200.195 146.783 199.932 146.127C199.672 145.469 199.542 144.677 199.542 143.75C199.545 142.824 199.676 142.035 199.936 141.385C200.199 140.732 200.574 140.235 201.06 139.892C201.55 139.549 202.135 139.377 202.815 139.377C203.496 139.377 204.081 139.549 204.57 139.892C205.06 140.235 205.435 140.732 205.695 141.385C205.958 142.038 206.089 142.826 206.089 143.75C206.089 144.679 205.958 145.473 205.695 146.132C205.435 146.787 205.06 147.288 204.57 147.634C204.084 147.979 203.499 148.152 202.815 148.152ZM202.815 146.854C203.347 146.854 203.766 146.592 204.073 146.069C204.382 145.544 204.537 144.771 204.537 143.75C204.537 143.075 204.467 142.508 204.326 142.049C204.185 141.59 203.985 141.244 203.728 141.012C203.471 140.777 203.167 140.659 202.815 140.659C202.287 140.659 201.869 140.922 201.562 141.447C201.255 141.97 201.101 142.738 201.098 143.75C201.095 144.428 201.163 144.998 201.301 145.459C201.442 145.921 201.641 146.27 201.899 146.505C202.156 146.737 202.461 146.854 202.815 146.854ZM210.517 148.107C209.919 148.107 209.388 148.004 208.924 147.8C208.462 147.595 208.097 147.31 207.828 146.945C207.56 146.58 207.418 146.158 207.401 145.679H208.961C208.975 145.909 209.051 146.109 209.189 146.281C209.328 146.45 209.512 146.581 209.741 146.675C209.971 146.769 210.228 146.816 210.513 146.816C210.817 146.816 211.087 146.764 211.322 146.659C211.557 146.551 211.741 146.401 211.874 146.21C212.006 146.02 212.071 145.8 212.069 145.551C212.071 145.294 212.005 145.067 211.87 144.87C211.734 144.674 211.538 144.52 211.28 144.41C211.026 144.299 210.719 144.244 210.359 144.244H209.608V143.057H210.359C210.655 143.057 210.914 143.006 211.135 142.904C211.359 142.801 211.535 142.658 211.662 142.472C211.789 142.284 211.852 142.067 211.849 141.821C211.852 141.58 211.798 141.371 211.687 141.194C211.579 141.015 211.426 140.875 211.226 140.775C211.03 140.676 210.799 140.626 210.534 140.626C210.274 140.626 210.033 140.673 209.812 140.767C209.59 140.861 209.412 140.995 209.276 141.169C209.141 141.341 209.069 141.546 209.061 141.784H207.579C207.591 141.308 207.727 140.89 207.99 140.531C208.256 140.168 208.61 139.886 209.052 139.684C209.495 139.479 209.991 139.377 210.542 139.377C211.109 139.377 211.601 139.484 212.019 139.697C212.439 139.907 212.764 140.19 212.994 140.547C213.223 140.904 213.338 141.298 213.338 141.73C213.341 142.208 213.2 142.609 212.915 142.933C212.633 143.256 212.262 143.468 211.803 143.568V143.634C212.401 143.717 212.858 143.938 213.176 144.298C213.497 144.655 213.656 145.099 213.654 145.63C213.654 146.105 213.518 146.531 213.247 146.907C212.979 147.281 212.608 147.574 212.135 147.787C211.665 148 211.125 148.107 210.517 148.107Z" fill="white"/>
<path d="M133.012 131.068L138.853 134.44V127.695L133.012 131.068ZM227.769 131.068L221.927 127.695V134.44L227.769 131.068ZM138.269 131.652H222.511V130.483H138.269V131.652Z" fill="white"/>
<path d="M198.966 170.826V171.988H195.303V170.826H198.966ZM196.207 169.3H197.709V175.282C197.709 175.484 197.74 175.639 197.801 175.747C197.864 175.852 197.947 175.924 198.05 175.963C198.152 176.002 198.265 176.021 198.39 176.021C198.484 176.021 198.57 176.014 198.647 176C198.727 175.986 198.788 175.974 198.83 175.963L199.083 177.137C199.002 177.165 198.888 177.195 198.738 177.228C198.592 177.261 198.412 177.281 198.199 177.286C197.823 177.297 197.484 177.241 197.182 177.116C196.881 176.989 196.642 176.793 196.465 176.527C196.29 176.262 196.205 175.93 196.207 175.531V169.3ZM202.975 177.324C202.336 177.324 201.785 177.191 201.32 176.925C200.858 176.657 200.503 176.278 200.254 175.789C200.005 175.296 199.88 174.717 199.88 174.05C199.88 173.395 200.005 172.819 200.254 172.324C200.505 171.826 200.857 171.439 201.307 171.162C201.758 170.883 202.288 170.743 202.897 170.743C203.289 170.743 203.66 170.807 204.008 170.934C204.36 171.059 204.67 171.252 204.938 171.515C205.209 171.778 205.422 172.113 205.577 172.519C205.732 172.923 205.809 173.404 205.809 173.963V174.424H200.586V173.411H204.369C204.367 173.124 204.304 172.868 204.183 172.644C204.061 172.417 203.891 172.238 203.672 172.108C203.457 171.978 203.205 171.913 202.917 171.913C202.61 171.913 202.341 171.988 202.108 172.137C201.876 172.284 201.695 172.478 201.565 172.718C201.437 172.956 201.372 173.218 201.37 173.502V174.386C201.37 174.757 201.437 175.075 201.573 175.34C201.709 175.603 201.898 175.805 202.141 175.946C202.385 176.085 202.67 176.154 202.996 176.154C203.215 176.154 203.412 176.123 203.589 176.062C203.766 175.999 203.92 175.906 204.05 175.784C204.18 175.663 204.278 175.512 204.345 175.332L205.747 175.49C205.658 175.86 205.49 176.184 205.241 176.461C204.995 176.735 204.679 176.948 204.295 177.1C203.91 177.249 203.47 177.324 202.975 177.324ZM208.582 173.465V177.199H207.08V170.826H208.515V171.909H208.59C208.737 171.552 208.97 171.269 209.291 171.059C209.615 170.849 210.014 170.743 210.49 170.743C210.93 170.743 211.313 170.837 211.639 171.026C211.969 171.214 212.223 171.486 212.403 171.843C212.585 172.2 212.675 172.633 212.673 173.142V177.199H211.171V173.374C211.171 172.948 211.06 172.615 210.839 172.374C210.62 172.133 210.317 172.013 209.93 172.013C209.667 172.013 209.434 172.071 209.229 172.187C209.027 172.301 208.868 172.465 208.752 172.681C208.638 172.897 208.582 173.158 208.582 173.465ZM217.382 170.826V171.988H213.718V170.826H217.382ZM214.623 169.3H216.124V175.282C216.124 175.484 216.155 175.639 216.216 175.747C216.279 175.852 216.362 175.924 216.465 175.963C216.567 176.002 216.68 176.021 216.805 176.021C216.899 176.021 216.985 176.014 217.062 176C217.142 175.986 217.203 175.974 217.245 175.963L217.498 177.137C217.418 177.165 217.303 177.195 217.153 177.228C217.007 177.261 216.827 177.281 216.614 177.286C216.238 177.297 215.899 177.241 215.598 177.116C215.296 176.989 215.057 176.793 214.88 176.527C214.706 176.262 214.62 175.93 214.623 175.531V169.3ZM220.472 177.328C220.068 177.328 219.704 177.256 219.38 177.112C219.06 176.965 218.805 176.75 218.617 176.465C218.432 176.18 218.339 175.829 218.339 175.411C218.339 175.051 218.405 174.754 218.538 174.519C218.671 174.284 218.852 174.096 219.082 173.955C219.311 173.814 219.57 173.707 219.858 173.635C220.148 173.561 220.448 173.507 220.758 173.473C221.131 173.435 221.434 173.4 221.666 173.37C221.899 173.337 222.068 173.287 222.173 173.22C222.28 173.151 222.334 173.045 222.334 172.901V172.876C222.334 172.563 222.242 172.321 222.056 172.15C221.871 171.978 221.604 171.893 221.256 171.893C220.888 171.893 220.596 171.973 220.38 172.133C220.167 172.294 220.023 172.483 219.949 172.702L218.546 172.503C218.657 172.115 218.84 171.792 219.094 171.532C219.349 171.269 219.66 171.073 220.028 170.943C220.395 170.81 220.802 170.743 221.247 170.743C221.554 170.743 221.86 170.779 222.164 170.851C222.469 170.923 222.747 171.042 222.998 171.208C223.25 171.371 223.452 171.594 223.604 171.876C223.759 172.158 223.836 172.511 223.836 172.934V177.199H222.393V176.324H222.343C222.251 176.501 222.123 176.667 221.957 176.822C221.794 176.974 221.588 177.097 221.339 177.191C221.093 177.282 220.803 177.328 220.472 177.328ZM220.862 176.224C221.163 176.224 221.424 176.165 221.646 176.046C221.867 175.924 222.037 175.764 222.156 175.565C222.278 175.365 222.339 175.148 222.339 174.913V174.162C222.292 174.201 222.211 174.237 222.098 174.27C221.987 174.303 221.863 174.332 221.725 174.357C221.586 174.382 221.449 174.404 221.314 174.424C221.178 174.443 221.061 174.46 220.961 174.473C220.737 174.504 220.537 174.554 220.36 174.623C220.183 174.692 220.043 174.789 219.94 174.913C219.838 175.035 219.787 175.193 219.787 175.386C219.787 175.663 219.888 175.872 220.09 176.013C220.292 176.154 220.549 176.224 220.862 176.224ZM228.126 177.324C227.49 177.324 226.944 177.184 226.488 176.905C226.034 176.625 225.684 176.239 225.438 175.747C225.194 175.252 225.073 174.682 225.073 174.038C225.073 173.39 225.197 172.819 225.446 172.324C225.695 171.826 226.046 171.439 226.5 171.162C226.956 170.883 227.496 170.743 228.118 170.743C228.635 170.743 229.093 170.839 229.491 171.03C229.892 171.218 230.212 171.485 230.45 171.83C230.688 172.173 230.823 172.575 230.856 173.034H229.421C229.363 172.727 229.224 172.471 229.006 172.266C228.79 172.059 228.501 171.955 228.139 171.955C227.832 171.955 227.562 172.038 227.33 172.204C227.097 172.367 226.916 172.602 226.786 172.909C226.659 173.216 226.595 173.584 226.595 174.013C226.595 174.447 226.659 174.82 226.786 175.133C226.914 175.443 227.092 175.682 227.321 175.851C227.554 176.017 227.826 176.1 228.139 176.1C228.36 176.1 228.558 176.058 228.732 175.975C228.909 175.89 229.057 175.766 229.176 175.606C229.295 175.446 229.377 175.251 229.421 175.021H230.856C230.82 175.472 230.688 175.872 230.458 176.22C230.229 176.566 229.916 176.837 229.52 177.033C229.125 177.227 228.66 177.324 228.126 177.324ZM233.592 168.702V177.199H232.09V168.702H233.592ZM237.957 177.324C237.318 177.324 236.767 177.191 236.302 176.925C235.84 176.657 235.485 176.278 235.236 175.789C234.987 175.296 234.862 174.717 234.862 174.05C234.862 173.395 234.987 172.819 235.236 172.324C235.487 171.826 235.839 171.439 236.289 171.162C236.74 170.883 237.27 170.743 237.879 170.743C238.271 170.743 238.642 170.807 238.99 170.934C239.342 171.059 239.652 171.252 239.92 171.515C240.191 171.778 240.404 172.113 240.559 172.519C240.714 172.923 240.791 173.404 240.791 173.963V174.424H235.568V173.411H239.351C239.349 173.124 239.286 172.868 239.165 172.644C239.043 172.417 238.873 172.238 238.654 172.108C238.439 171.978 238.187 171.913 237.899 171.913C237.592 171.913 237.323 171.988 237.09 172.137C236.858 172.284 236.677 172.478 236.547 172.718C236.419 172.956 236.354 173.218 236.352 173.502V174.386C236.352 174.757 236.419 175.075 236.555 175.34C236.691 175.603 236.88 175.805 237.123 175.946C237.367 176.085 237.652 176.154 237.978 176.154C238.197 176.154 238.394 176.123 238.571 176.062C238.748 175.999 238.902 175.906 239.032 175.784C239.162 175.663 239.26 175.512 239.327 175.332L240.729 175.49C240.64 175.86 240.472 176.184 240.223 176.461C239.977 176.735 239.661 176.948 239.277 177.1C238.892 177.249 238.452 177.324 237.957 177.324ZM245.924 173.042V174.278H242.099V173.042H245.924ZM250.628 177.361C249.945 177.361 249.359 177.188 248.869 176.842C248.382 176.494 248.008 175.992 247.745 175.336C247.485 174.678 247.355 173.886 247.355 172.959C247.358 172.032 247.489 171.244 247.749 170.594C248.012 169.941 248.386 169.443 248.873 169.1C249.363 168.757 249.948 168.586 250.628 168.586C251.309 168.586 251.894 168.757 252.383 169.1C252.873 169.443 253.248 169.941 253.508 170.594C253.77 171.247 253.902 172.035 253.902 172.959C253.902 173.888 253.77 174.682 253.508 175.34C253.248 175.996 252.873 176.497 252.383 176.842C251.896 177.188 251.311 177.361 250.628 177.361ZM250.628 176.062C251.159 176.062 251.578 175.801 251.885 175.278C252.195 174.753 252.35 173.98 252.35 172.959C252.35 172.284 252.28 171.717 252.139 171.258C251.997 170.799 251.798 170.453 251.541 170.221C251.284 169.986 250.98 169.868 250.628 169.868C250.1 169.868 249.682 170.131 249.375 170.656C249.068 171.179 248.913 171.947 248.911 172.959C248.908 173.637 248.976 174.206 249.114 174.668C249.255 175.13 249.454 175.479 249.711 175.714C249.969 175.946 250.274 176.062 250.628 176.062ZM255.127 175.623V174.399L258.732 168.702H259.753V170.445H259.131L256.703 174.291V174.357H261.736V175.623H255.127ZM259.18 177.199V175.249L259.197 174.702V168.702H260.649V177.199H259.18Z" fill="white"/>
<path d="M180.914 160.276L186.756 163.649V156.904L180.914 160.276ZM275.671 160.276L269.83 156.904V163.649L275.671 160.276ZM186.172 160.861H270.414V159.692H186.172V160.861Z" fill="white"/>
</g>
<defs>
<clipPath id="clip0_5641_22566">
<rect x="0.5" y="0.496094" width="311" height="222" rx="37.9782" fill="white"/>
</clipPath>
</defs>
</svg>
