<svg width="750" height="383" viewBox="0 0 750 383" fill="none" xmlns="http://www.w3.org/2000/svg">
<path d="M171.722 64.2072C171.722 81.4483 183.586 92.091 199.264 92.091C214.943 92.091 226.807 81.4483 226.807 64.2072C226.807 46.966 214.943 36.3233 199.264 36.3233C183.586 36.3233 171.722 46.966 171.722 64.2072ZM185.069 64.2072C185.069 53.9902 191.002 48.0303 199.264 48.0303C207.527 48.0303 213.459 53.9902 213.459 64.2072C213.459 74.4242 207.527 80.3841 199.264 80.3841C191.002 80.3841 185.069 74.4242 185.069 64.2072Z" fill="white"/>
<path d="M235.522 111.886H248.869V83.7897H249.929C252.895 88.0468 257.98 92.091 267.09 92.091C279.59 92.091 290.819 81.4483 290.819 64.2072C290.819 46.966 279.59 36.3233 267.09 36.3233C257.98 36.3233 252.895 40.3676 249.717 44.9439H248.658V37.8133H235.522V111.886ZM263.064 80.5969C254.802 80.5969 248.658 74.637 248.658 64.2072C248.658 53.7773 254.802 47.8174 263.064 47.8174C271.327 47.8174 277.471 53.7773 277.471 64.2072C277.471 74.637 271.327 80.5969 263.064 80.5969Z" fill="white"/>
<path d="M293.428 48.6689H306.564V78.6812C306.564 85.9182 311.225 90.601 318.217 90.601H333.048V79.7455H322.878C320.971 79.7455 319.912 78.6812 319.912 76.5527V48.6689H334.319V37.8133H319.912V21.4236H306.564V37.8133H293.428V48.6689Z" fill="white"/>
<path d="M376.981 128.023V180.81H390.329V149.308C390.329 142.071 393.719 138.027 399.863 138.027C405.16 138.027 408.337 141.007 408.337 146.754V180.81H421.685V149.308C421.685 142.071 425.075 138.027 431.219 138.027C436.516 138.027 439.694 141.007 439.694 146.754V180.81H453.041V146.115C453.041 133.344 445.202 127.171 435.456 127.171C426.876 127.171 422.956 131.003 420.414 135.473H419.355C416.918 130.471 412.575 127.171 404.948 127.171C397.32 127.171 393.189 130.577 391.176 134.621H390.117V128.023H376.981Z" fill="white"/>
<path d="M463.658 141.433L475.946 145.583C476.9 140.794 480.078 137.175 486.751 137.175C493.531 137.175 496.497 141.007 496.497 145.902V148.882H482.09C470.226 148.882 461.751 154.523 461.751 165.379C461.751 176.234 470.226 182.3 481.031 182.3C490.777 182.3 494.273 176.979 495.226 174.638H496.709V180.81H509.421V146.86C509.421 133.663 500.735 126.533 486.963 126.533C473.298 126.533 466.2 133.45 463.658 141.433ZM475.099 165.059C475.099 161.441 478.065 158.887 483.044 158.887H496.497V159.738C496.497 166.762 491.201 171.445 483.785 171.445C478.065 171.445 475.099 168.784 475.099 165.059Z" fill="white"/>
<path d="M171.994 128.104H333.417V180.81H171.994V128.104Z" fill="white"/>
<path d="M351.577 37.8944H578.577V90.601H351.577V37.8944Z" fill="white"/>
<path d="M526.115 128.104H578.577V180.81H526.115V128.104Z" fill="white"/>
<path d="M351.577 128.104H364.692V180.81H351.577V128.104Z" fill="white"/>
<path d="M351.577 107.832H364.692V121.009H351.577V107.832Z" fill="white"/>
<path d="M344.881 329.18V330.649H339.035V329.18H344.881ZM340.739 326.477H342.472V337.229C342.472 337.719 342.543 338.086 342.685 338.331C342.832 338.571 343.018 338.733 343.243 338.816C343.474 338.894 343.716 338.933 343.971 338.933C344.162 338.933 344.318 338.924 344.441 338.904C344.563 338.879 344.661 338.86 344.734 338.845L345.087 340.402C344.969 340.446 344.805 340.49 344.595 340.534C344.384 340.583 344.117 340.608 343.794 340.608C343.305 340.608 342.825 340.503 342.355 340.292C341.89 340.081 341.503 339.761 341.194 339.33C340.891 338.899 340.739 338.356 340.739 337.699V326.477ZM348.43 333.675V340.461H346.697V325.42H348.43V330.943H348.577C348.841 330.36 349.238 329.897 349.767 329.555C350.3 329.207 351.01 329.033 351.897 329.033C352.665 329.033 353.338 329.187 353.916 329.496C354.494 329.8 354.942 330.267 355.26 330.899C355.583 331.525 355.745 332.323 355.745 333.293V340.461H354.012V333.41C354.012 332.514 353.779 331.822 353.314 331.332C352.854 330.837 352.215 330.59 351.397 330.59C350.829 330.59 350.32 330.71 349.869 330.95C349.424 331.19 349.071 331.54 348.812 332C348.557 332.461 348.43 333.019 348.43 333.675ZM357.882 340.461V329.18H359.556V330.884H359.674C359.879 330.326 360.251 329.873 360.79 329.525C361.329 329.178 361.936 329.004 362.611 329.004C362.739 329.004 362.898 329.006 363.089 329.011C363.28 329.016 363.424 329.023 363.522 329.033V330.796C363.463 330.781 363.329 330.759 363.118 330.73C362.913 330.696 362.695 330.678 362.465 330.678C361.916 330.678 361.427 330.793 360.996 331.024C360.57 331.249 360.232 331.562 359.982 331.964C359.737 332.36 359.615 332.813 359.615 333.322V340.461H357.882ZM368.782 340.696C367.764 340.696 366.87 340.454 366.101 339.969C365.338 339.484 364.74 338.806 364.309 337.935C363.883 337.063 363.67 336.045 363.67 334.879C363.67 333.704 363.883 332.678 364.309 331.802C364.74 330.926 365.338 330.245 366.101 329.76C366.87 329.276 367.764 329.033 368.782 329.033C369.8 329.033 370.692 329.276 371.455 329.76C372.224 330.245 372.821 330.926 373.247 331.802C373.678 332.678 373.894 333.704 373.894 334.879C373.894 336.045 373.678 337.063 373.247 337.935C372.821 338.806 372.224 339.484 371.455 339.969C370.692 340.454 369.8 340.696 368.782 340.696ZM368.782 339.139C369.556 339.139 370.192 338.941 370.692 338.544C371.191 338.147 371.561 337.626 371.801 336.98C372.041 336.333 372.16 335.633 372.16 334.879C372.16 334.125 372.041 333.423 371.801 332.771C371.561 332.12 371.191 331.594 370.692 331.192C370.192 330.791 369.556 330.59 368.782 330.59C368.008 330.59 367.372 330.791 366.873 331.192C366.373 331.594 366.004 332.12 365.764 332.771C365.524 333.423 365.404 334.125 365.404 334.879C365.404 335.633 365.524 336.333 365.764 336.98C366.004 337.626 366.373 338.147 366.873 338.544C367.372 338.941 368.008 339.139 368.782 339.139ZM382.615 335.849V329.18H384.348V340.461H382.615V338.551H382.497C382.233 339.124 381.821 339.611 381.263 340.013C380.705 340.41 380 340.608 379.148 340.608C378.443 340.608 377.816 340.454 377.268 340.145C376.72 339.832 376.289 339.362 375.975 338.735C375.662 338.103 375.505 337.308 375.505 336.348V329.18H377.239V336.231C377.239 337.053 377.469 337.709 377.929 338.199C378.394 338.689 378.987 338.933 379.706 338.933C380.137 338.933 380.575 338.823 381.021 338.603C381.471 338.383 381.848 338.045 382.152 337.589C382.46 337.134 382.615 336.554 382.615 335.849ZM391.042 344.926C390.205 344.926 389.485 344.819 388.883 344.603C388.28 344.393 387.779 344.113 387.377 343.766C386.98 343.423 386.665 343.056 386.43 342.664L387.81 341.695C387.967 341.9 388.165 342.135 388.405 342.4C388.645 342.669 388.973 342.902 389.389 343.098C389.81 343.298 390.361 343.399 391.042 343.399C391.953 343.399 392.704 343.178 393.297 342.738C393.889 342.297 394.185 341.607 394.185 340.667V338.375H394.038C393.911 338.581 393.73 338.835 393.495 339.139C393.265 339.438 392.932 339.704 392.496 339.939C392.065 340.17 391.483 340.285 390.748 340.285C389.837 340.285 389.02 340.069 388.295 339.638C387.575 339.208 387.005 338.581 386.584 337.758C386.168 336.936 385.96 335.937 385.96 334.762C385.96 333.606 386.163 332.6 386.569 331.743C386.976 330.882 387.541 330.216 388.266 329.746C388.99 329.271 389.828 329.033 390.777 329.033C391.512 329.033 392.095 329.156 392.525 329.4C392.961 329.64 393.294 329.915 393.524 330.223C393.759 330.527 393.94 330.776 394.068 330.972H394.244V329.18H395.918V340.784C395.918 341.754 395.698 342.542 395.257 343.149C394.822 343.761 394.234 344.209 393.495 344.493C392.76 344.782 391.943 344.926 391.042 344.926ZM390.983 338.728C391.678 338.728 392.266 338.569 392.746 338.25C393.226 337.932 393.59 337.474 393.84 336.877C394.09 336.28 394.215 335.565 394.215 334.732C394.215 333.92 394.092 333.202 393.847 332.581C393.603 331.959 393.24 331.472 392.76 331.119C392.281 330.766 391.688 330.59 390.983 330.59C390.249 330.59 389.637 330.776 389.147 331.148C388.662 331.521 388.298 332.02 388.053 332.647C387.813 333.273 387.693 333.969 387.693 334.732C387.693 335.516 387.815 336.209 388.06 336.811C388.31 337.408 388.677 337.878 389.162 338.221C389.651 338.559 390.258 338.728 390.983 338.728ZM399.79 333.675V340.461H398.057V325.42H399.79V330.943H399.937C400.202 330.36 400.598 329.897 401.127 329.555C401.661 329.207 402.371 329.033 403.257 329.033C404.026 329.033 404.699 329.187 405.277 329.496C405.854 329.8 406.302 330.267 406.621 330.899C406.944 331.525 407.105 332.323 407.105 333.293V340.461H405.372V333.41C405.372 332.514 405.139 331.822 404.674 331.332C404.214 330.837 403.575 330.59 402.757 330.59C402.189 330.59 401.68 330.71 401.23 330.95C400.784 331.19 400.432 331.54 400.172 332C399.918 332.461 399.79 333.019 399.79 333.675Z" fill="white"/>
<path d="M93.8896 340.461V329.18H95.5641V330.884H95.6816C95.8873 330.326 96.2594 329.873 96.798 329.525C97.3366 329.178 97.9437 329.004 98.6194 329.004C98.7467 329.004 98.9058 329.006 99.0967 329.011C99.2877 329.016 99.4321 329.023 99.53 329.033V330.796C99.4713 330.781 99.3366 330.759 99.1261 330.73C98.9205 330.696 98.7026 330.678 98.4725 330.678C97.9241 330.678 97.4345 330.793 97.0036 331.024C96.5777 331.249 96.2398 331.562 95.9901 331.964C95.7453 332.36 95.6229 332.813 95.6229 333.322V340.461H93.8896ZM104.937 340.696C103.85 340.696 102.912 340.456 102.124 339.976C101.341 339.491 100.736 338.816 100.31 337.949C99.8889 337.078 99.6784 336.064 99.6784 334.909C99.6784 333.753 99.8889 332.735 100.31 331.853C100.736 330.967 101.328 330.277 102.087 329.782C102.851 329.283 103.742 329.033 104.761 329.033C105.348 329.033 105.928 329.131 106.501 329.327C107.074 329.523 107.596 329.841 108.066 330.282C108.536 330.718 108.91 331.295 109.189 332.015C109.468 332.735 109.608 333.621 109.608 334.674V335.408H100.912V333.91H107.845C107.845 333.273 107.718 332.705 107.463 332.206C107.214 331.707 106.856 331.312 106.391 331.024C105.931 330.735 105.387 330.59 104.761 330.59C104.07 330.59 103.473 330.762 102.969 331.104C102.469 331.442 102.085 331.883 101.816 332.426C101.546 332.97 101.412 333.552 101.412 334.174V335.173C101.412 336.025 101.559 336.747 101.852 337.34C102.151 337.927 102.565 338.375 103.093 338.684C103.622 338.987 104.237 339.139 104.937 339.139C105.392 339.139 105.804 339.075 106.171 338.948C106.543 338.816 106.864 338.62 107.133 338.36C107.402 338.096 107.61 337.768 107.757 337.376L109.432 337.846C109.255 338.414 108.959 338.914 108.543 339.345C108.127 339.771 107.613 340.104 107.001 340.343C106.389 340.578 105.701 340.696 104.937 340.696ZM114.53 340.725C113.815 340.725 113.166 340.591 112.584 340.321C112.001 340.047 111.538 339.653 111.196 339.139C110.853 338.62 110.682 337.993 110.682 337.259C110.682 336.613 110.809 336.089 111.063 335.687C111.318 335.281 111.658 334.963 112.084 334.732C112.51 334.502 112.98 334.331 113.494 334.218C114.013 334.101 114.535 334.008 115.059 333.939C115.744 333.851 116.3 333.785 116.726 333.741C117.157 333.692 117.47 333.611 117.666 333.499C117.867 333.386 117.967 333.19 117.967 332.911V332.852C117.967 332.128 117.769 331.565 117.372 331.163C116.981 330.762 116.386 330.561 115.588 330.561C114.76 330.561 114.111 330.742 113.641 331.104C113.171 331.467 112.841 331.853 112.65 332.265L111.005 331.677C111.299 330.992 111.69 330.458 112.18 330.076C112.674 329.689 113.213 329.42 113.796 329.268C114.383 329.112 114.961 329.033 115.529 329.033C115.891 329.033 116.307 329.077 116.777 329.165C117.252 329.249 117.71 329.422 118.151 329.687C118.596 329.951 118.966 330.35 119.26 330.884C119.553 331.418 119.7 332.133 119.7 333.029V340.461H117.967V338.933H117.879C117.761 339.178 117.566 339.44 117.291 339.719C117.017 339.998 116.652 340.236 116.197 340.432C115.742 340.627 115.186 340.725 114.53 340.725ZM114.794 339.168C115.48 339.168 116.058 339.034 116.528 338.764C117.003 338.495 117.36 338.147 117.6 337.722C117.845 337.296 117.967 336.848 117.967 336.378V334.791C117.894 334.879 117.732 334.96 117.482 335.034C117.238 335.102 116.954 335.163 116.63 335.217C116.312 335.266 116.001 335.31 115.698 335.349C115.399 335.384 115.157 335.413 114.971 335.437C114.52 335.496 114.099 335.592 113.707 335.724C113.321 335.851 113.007 336.045 112.767 336.304C112.532 336.559 112.415 336.906 112.415 337.347C112.415 337.949 112.638 338.405 113.083 338.713C113.534 339.017 114.104 339.168 114.794 339.168ZM126.09 340.696C125.149 340.696 124.32 340.458 123.6 339.984C122.88 339.504 122.317 338.828 121.911 337.957C121.504 337.08 121.301 336.045 121.301 334.85C121.301 333.665 121.504 332.637 121.911 331.765C122.317 330.894 122.883 330.221 123.607 329.746C124.332 329.271 125.169 329.033 126.119 329.033C126.853 329.033 127.434 329.156 127.859 329.4C128.29 329.64 128.618 329.915 128.844 330.223C129.074 330.527 129.252 330.776 129.38 330.972H129.527V325.42H131.26V340.461H129.585V338.728H129.38C129.252 338.933 129.071 339.193 128.836 339.506C128.601 339.815 128.266 340.091 127.83 340.336C127.394 340.576 126.814 340.696 126.09 340.696ZM126.325 339.139C127.02 339.139 127.607 338.958 128.087 338.595C128.567 338.228 128.932 337.722 129.181 337.075C129.431 336.424 129.556 335.672 129.556 334.821C129.556 333.978 129.434 333.242 129.189 332.61C128.944 331.973 128.582 331.479 128.102 331.126C127.622 330.769 127.03 330.59 126.325 330.59C125.59 330.59 124.978 330.779 124.488 331.156C124.004 331.528 123.639 332.035 123.394 332.676C123.154 333.313 123.034 334.027 123.034 334.821C123.034 335.624 123.157 336.353 123.402 337.009C123.651 337.66 124.018 338.179 124.503 338.566C124.993 338.948 125.6 339.139 126.325 339.139ZM133.641 340.461V329.18H135.374V340.461H133.641ZM134.522 327.3C134.184 327.3 133.893 327.185 133.648 326.955C133.408 326.725 133.288 326.448 133.288 326.125C133.288 325.802 133.408 325.525 133.648 325.295C133.893 325.065 134.184 324.95 134.522 324.95C134.86 324.95 135.149 325.065 135.389 325.295C135.634 325.525 135.756 325.802 135.756 326.125C135.756 326.448 135.634 326.725 135.389 326.955C135.149 327.185 134.86 327.3 134.522 327.3ZM139.248 333.675V340.461H137.515V329.18H139.189V330.943H139.336C139.6 330.37 140.002 329.91 140.54 329.562C141.079 329.21 141.774 329.033 142.626 329.033C143.39 329.033 144.058 329.19 144.631 329.503C145.204 329.812 145.65 330.282 145.968 330.913C146.286 331.54 146.445 332.333 146.445 333.293V340.461H144.712V333.41C144.712 332.524 144.482 331.834 144.022 331.339C143.561 330.84 142.93 330.59 142.127 330.59C141.574 330.59 141.079 330.71 140.643 330.95C140.212 331.19 139.872 331.54 139.622 332C139.373 332.461 139.248 333.019 139.248 333.675ZM153.132 344.926C152.295 344.926 151.575 344.819 150.973 344.603C150.37 344.393 149.869 344.113 149.467 343.766C149.07 343.423 148.755 343.056 148.52 342.664L149.9 341.695C150.057 341.9 150.255 342.135 150.495 342.4C150.735 342.669 151.063 342.902 151.479 343.098C151.9 343.298 152.451 343.399 153.132 343.399C154.043 343.399 154.794 343.178 155.387 342.738C155.979 342.297 156.275 341.607 156.275 340.667V338.375H156.128C156.001 338.581 155.82 338.835 155.585 339.139C155.355 339.438 155.022 339.704 154.586 339.939C154.155 340.17 153.573 340.285 152.838 340.285C151.927 340.285 151.11 340.069 150.385 339.638C149.665 339.208 149.095 338.581 148.674 337.758C148.258 336.936 148.05 335.937 148.05 334.762C148.05 333.606 148.253 332.6 148.659 331.743C149.066 330.882 149.631 330.216 150.356 329.746C151.08 329.271 151.918 329.033 152.867 329.033C153.602 329.033 154.185 329.156 154.615 329.4C155.051 329.64 155.384 329.915 155.614 330.223C155.849 330.527 156.03 330.776 156.158 330.972H156.334V329.18H158.008V340.784C158.008 341.754 157.788 342.542 157.347 343.149C156.912 343.761 156.324 344.209 155.585 344.493C154.85 344.782 154.033 344.926 153.132 344.926ZM153.073 338.728C153.768 338.728 154.356 338.569 154.836 338.25C155.316 337.932 155.68 337.474 155.93 336.877C156.18 336.28 156.305 335.565 156.305 334.732C156.305 333.92 156.182 333.202 155.937 332.581C155.693 331.959 155.33 331.472 154.85 331.119C154.371 330.766 153.778 330.59 153.073 330.59C152.339 330.59 151.727 330.776 151.237 331.148C150.752 331.521 150.388 332.02 150.143 332.647C149.903 333.273 149.783 333.969 149.783 334.732C149.783 335.516 149.905 336.209 150.15 336.811C150.4 337.408 150.767 337.878 151.252 338.221C151.741 338.559 152.348 338.728 153.073 338.728ZM165.464 324.715L160.617 342.723H159.031L163.878 324.715H165.464ZM169.041 340.461L165.604 329.18H167.425L169.863 337.817H169.981L172.39 329.18H174.24L176.62 337.788H176.737L179.176 329.18H180.997L177.56 340.461H175.856L173.388 331.795H173.212L170.745 340.461H169.041ZM182.254 340.461V329.18H183.929V330.884H184.046C184.252 330.326 184.624 329.873 185.163 329.525C185.701 329.178 186.308 329.004 186.984 329.004C187.111 329.004 187.271 329.006 187.462 329.011C187.653 329.016 187.797 329.023 187.895 329.033V330.796C187.836 330.781 187.701 330.759 187.491 330.73C187.285 330.696 187.067 330.678 186.837 330.678C186.289 330.678 185.799 330.793 185.368 331.024C184.942 331.249 184.605 331.562 184.355 331.964C184.11 332.36 183.988 332.813 183.988 333.322V340.461H182.254ZM188.915 340.461V329.18H190.649V340.461H188.915ZM189.797 327.3C189.459 327.3 189.168 327.185 188.923 326.955C188.683 326.725 188.563 326.448 188.563 326.125C188.563 325.802 188.683 325.525 188.923 325.295C189.168 325.065 189.459 324.95 189.797 324.95C190.134 324.95 190.423 325.065 190.663 325.295C190.908 325.525 191.031 325.802 191.031 326.125C191.031 326.448 190.908 326.725 190.663 326.955C190.423 327.185 190.134 327.3 189.797 327.3ZM197.695 329.18V330.649H191.849V329.18H197.695ZM193.553 326.477H195.286V337.229C195.286 337.719 195.357 338.086 195.499 338.331C195.646 338.571 195.832 338.733 196.057 338.816C196.287 338.894 196.53 338.933 196.784 338.933C196.975 338.933 197.132 338.924 197.254 338.904C197.377 338.879 197.475 338.86 197.548 338.845L197.901 340.402C197.783 340.446 197.619 340.49 197.409 340.534C197.198 340.583 196.931 340.608 196.608 340.608C196.118 340.608 195.639 340.503 195.169 340.292C194.703 340.081 194.317 339.761 194.008 339.33C193.705 338.899 193.553 338.356 193.553 337.699V326.477ZM199.268 340.461V329.18H201.001V340.461H199.268ZM200.15 327.3C199.812 327.3 199.52 327.185 199.276 326.955C199.036 326.725 198.916 326.448 198.916 326.125C198.916 325.802 199.036 325.525 199.276 325.295C199.52 325.065 199.812 324.95 200.15 324.95C200.487 324.95 200.776 325.065 201.016 325.295C201.261 325.525 201.383 325.802 201.383 326.125C201.383 326.448 201.261 326.725 201.016 326.955C200.776 327.185 200.487 327.3 200.15 327.3ZM204.875 333.675V340.461H203.142V329.18H204.816V330.943H204.963C205.228 330.37 205.629 329.91 206.168 329.562C206.706 329.21 207.402 329.033 208.254 329.033C209.017 329.033 209.686 329.19 210.259 329.503C210.831 329.812 211.277 330.282 211.595 330.913C211.913 331.54 212.073 332.333 212.073 333.293V340.461H210.339V333.41C210.339 332.524 210.109 331.834 209.649 331.339C209.189 330.84 208.557 330.59 207.754 330.59C207.201 330.59 206.706 330.71 206.271 330.95C205.84 331.19 205.499 331.54 205.25 332C205 332.461 204.875 333.019 204.875 333.675ZM218.759 344.926C217.922 344.926 217.202 344.819 216.6 344.603C215.998 344.393 215.496 344.113 215.094 343.766C214.698 343.423 214.382 343.056 214.147 342.664L215.528 341.695C215.684 341.9 215.883 342.135 216.123 342.4C216.362 342.669 216.691 342.902 217.107 343.098C217.528 343.298 218.079 343.399 218.759 343.399C219.67 343.399 220.421 343.178 221.014 342.738C221.606 342.297 221.903 341.607 221.903 340.667V338.375H221.756C221.628 338.581 221.447 338.835 221.212 339.139C220.982 339.438 220.649 339.704 220.213 339.939C219.782 340.17 219.2 340.285 218.465 340.285C217.555 340.285 216.737 340.069 216.012 339.638C215.293 339.208 214.722 338.581 214.301 337.758C213.885 336.936 213.677 335.937 213.677 334.762C213.677 333.606 213.88 332.6 214.287 331.743C214.693 330.882 215.258 330.216 215.983 329.746C216.708 329.271 217.545 329.033 218.495 329.033C219.229 329.033 219.812 329.156 220.243 329.4C220.678 329.64 221.011 329.915 221.242 330.223C221.477 330.527 221.658 330.776 221.785 330.972H221.961V329.18H223.636V340.784C223.636 341.754 223.415 342.542 222.975 343.149C222.539 343.761 221.951 344.209 221.212 344.493C220.478 344.782 219.66 344.926 218.759 344.926ZM218.7 338.728C219.396 338.728 219.983 338.569 220.463 338.25C220.943 337.932 221.308 337.474 221.557 336.877C221.807 336.28 221.932 335.565 221.932 334.732C221.932 333.92 221.809 333.202 221.565 332.581C221.32 331.959 220.958 331.472 220.478 331.119C219.998 330.766 219.405 330.59 218.7 330.59C217.966 330.59 217.354 330.776 216.864 331.148C216.38 331.521 216.015 332.02 215.77 332.647C215.53 333.273 215.41 333.969 215.41 334.732C215.41 335.516 215.533 336.209 215.777 336.811C216.027 337.408 216.394 337.878 216.879 338.221C217.369 338.559 217.976 338.728 218.7 338.728Z" fill="white"/>
<path d="M536.595 340.696C535.537 340.696 534.627 340.446 533.863 339.947C533.099 339.447 532.511 338.759 532.1 337.883C531.689 337.006 531.483 336.005 531.483 334.879C531.483 333.733 531.694 332.722 532.115 331.846C532.541 330.965 533.133 330.277 533.892 329.782C534.656 329.283 535.547 329.033 536.565 329.033C537.359 329.033 538.073 329.18 538.71 329.474C539.346 329.767 539.868 330.179 540.274 330.707C540.681 331.236 540.933 331.853 541.031 332.558H539.298C539.165 332.044 538.872 331.589 538.416 331.192C537.966 330.791 537.359 330.59 536.595 330.59C535.919 330.59 535.327 330.766 534.818 331.119C534.313 331.466 533.919 331.958 533.635 332.595C533.356 333.227 533.216 333.968 533.216 334.82C533.216 335.692 533.354 336.451 533.628 337.097C533.907 337.743 534.299 338.245 534.803 338.603C535.312 338.96 535.909 339.139 536.595 339.139C537.045 339.139 537.454 339.06 537.821 338.904C538.189 338.747 538.499 338.522 538.754 338.228C539.009 337.934 539.19 337.582 539.298 337.17H541.031C540.933 337.836 540.69 338.436 540.304 338.97C539.922 339.499 539.415 339.92 538.783 340.233C538.157 340.541 537.427 340.696 536.595 340.696ZM547.26 340.696C546.173 340.696 545.236 340.456 544.447 339.976C543.664 339.491 543.059 338.816 542.633 337.949C542.212 337.077 542.002 336.064 542.002 334.908C542.002 333.753 542.212 332.735 542.633 331.853C543.059 330.967 543.652 330.277 544.411 329.782C545.174 329.283 546.066 329.033 547.084 329.033C547.671 329.033 548.252 329.131 548.825 329.327C549.397 329.523 549.919 329.841 550.389 330.282C550.859 330.717 551.233 331.295 551.513 332.015C551.792 332.735 551.931 333.621 551.931 334.673V335.408H543.236V333.91H550.169C550.169 333.273 550.041 332.705 549.787 332.206C549.537 331.706 549.179 331.312 548.714 331.023C548.254 330.734 547.711 330.59 547.084 330.59C546.394 330.59 545.796 330.761 545.292 331.104C544.793 331.442 544.408 331.883 544.139 332.426C543.87 332.97 543.735 333.552 543.735 334.174V335.173C543.735 336.025 543.882 336.747 544.176 337.339C544.474 337.927 544.888 338.375 545.417 338.683C545.946 338.987 546.56 339.139 547.26 339.139C547.716 339.139 548.127 339.075 548.494 338.948C548.866 338.816 549.187 338.62 549.456 338.36C549.725 338.096 549.934 337.768 550.08 337.376L551.755 337.846C551.579 338.414 551.282 338.913 550.866 339.344C550.45 339.77 549.936 340.103 549.324 340.343C548.712 340.578 548.024 340.696 547.26 340.696ZM555.267 333.675V340.461H553.534V329.18H555.208V330.943H555.355C555.619 330.37 556.021 329.909 556.56 329.562C557.098 329.209 557.793 329.033 558.645 329.033C559.409 329.033 560.077 329.19 560.65 329.503C561.223 329.811 561.669 330.282 561.987 330.913C562.305 331.54 562.464 332.333 562.464 333.293V340.461H560.731V333.41C560.731 332.524 560.501 331.834 560.041 331.339C559.58 330.84 558.949 330.59 558.146 330.59C557.593 330.59 557.098 330.71 556.662 330.95C556.231 331.19 555.891 331.54 555.641 332C555.392 332.46 555.267 333.018 555.267 333.675ZM572.588 331.706L571.031 332.147C570.933 331.887 570.789 331.635 570.598 331.391C570.412 331.141 570.157 330.935 569.834 330.774C569.511 330.612 569.097 330.531 568.593 330.531C567.902 330.531 567.327 330.69 566.867 331.009C566.411 331.322 566.184 331.721 566.184 332.206C566.184 332.637 566.34 332.977 566.654 333.227C566.967 333.476 567.457 333.684 568.123 333.851L569.797 334.262C570.806 334.507 571.557 334.881 572.052 335.386C572.546 335.885 572.794 336.529 572.794 337.317C572.794 337.964 572.608 338.541 572.235 339.051C571.868 339.56 571.354 339.961 570.693 340.255C570.032 340.549 569.264 340.696 568.387 340.696C567.236 340.696 566.284 340.446 565.53 339.947C564.776 339.447 564.299 338.718 564.098 337.758L565.743 337.347C565.9 337.954 566.196 338.409 566.632 338.713C567.072 339.016 567.648 339.168 568.358 339.168C569.166 339.168 569.807 338.997 570.282 338.654C570.762 338.306 571.002 337.89 571.002 337.405C571.002 337.014 570.865 336.686 570.59 336.421C570.316 336.152 569.895 335.951 569.327 335.819L567.447 335.378C566.414 335.134 565.655 334.754 565.17 334.24C564.69 333.721 564.451 333.072 564.451 332.294C564.451 331.657 564.629 331.094 564.987 330.605C565.349 330.115 565.841 329.731 566.463 329.452C567.09 329.173 567.8 329.033 568.593 329.033C569.709 329.033 570.585 329.278 571.222 329.767C571.863 330.257 572.319 330.903 572.588 331.706ZM578.951 340.696C577.933 340.696 577.039 340.453 576.271 339.969C575.507 339.484 574.91 338.806 574.479 337.934C574.053 337.063 573.84 336.044 573.84 334.879C573.84 333.704 574.053 332.678 574.479 331.802C574.91 330.925 575.507 330.245 576.271 329.76C577.039 329.275 577.933 329.033 578.951 329.033C579.97 329.033 580.861 329.275 581.625 329.76C582.393 330.245 582.991 330.925 583.417 331.802C583.848 332.678 584.063 333.704 584.063 334.879C584.063 336.044 583.848 337.063 583.417 337.934C582.991 338.806 582.393 339.484 581.625 339.969C580.861 340.453 579.97 340.696 578.951 340.696ZM578.951 339.139C579.725 339.139 580.362 338.94 580.861 338.544C581.36 338.147 581.73 337.626 581.97 336.98C582.21 336.333 582.33 335.633 582.33 334.879C582.33 334.125 582.21 333.422 581.97 332.771C581.73 332.12 581.36 331.594 580.861 331.192C580.362 330.791 579.725 330.59 578.951 330.59C578.178 330.59 577.541 330.791 577.042 331.192C576.543 331.594 576.173 332.12 575.933 332.771C575.693 333.422 575.573 334.125 575.573 334.879C575.573 335.633 575.693 336.333 575.933 336.98C576.173 337.626 576.543 338.147 577.042 338.544C577.541 338.94 578.178 339.139 578.951 339.139ZM585.675 340.461V329.18H587.349V330.884H587.467C587.672 330.326 588.045 329.873 588.583 329.525C589.122 329.177 589.729 329.004 590.404 329.004C590.532 329.004 590.691 329.006 590.882 329.011C591.073 329.016 591.217 329.023 591.315 329.033V330.796C591.256 330.781 591.122 330.759 590.911 330.73C590.706 330.695 590.488 330.678 590.258 330.678C589.709 330.678 589.22 330.793 588.789 331.023C588.363 331.249 588.025 331.562 587.775 331.963C587.53 332.36 587.408 332.813 587.408 333.322V340.461H585.675ZM600.326 331.706L598.769 332.147C598.671 331.887 598.527 331.635 598.336 331.391C598.15 331.141 597.895 330.935 597.572 330.774C597.249 330.612 596.835 330.531 596.331 330.531C595.641 330.531 595.065 330.69 594.605 331.009C594.15 331.322 593.922 331.721 593.922 332.206C593.922 332.637 594.079 332.977 594.392 333.227C594.705 333.476 595.195 333.684 595.861 333.851L597.535 334.262C598.544 334.507 599.296 334.881 599.79 335.386C600.285 335.885 600.532 336.529 600.532 337.317C600.532 337.964 600.346 338.541 599.974 339.051C599.606 339.56 599.092 339.961 598.431 340.255C597.77 340.549 597.002 340.696 596.125 340.696C594.975 340.696 594.022 340.446 593.268 339.947C592.514 339.447 592.037 338.718 591.836 337.758L593.481 337.347C593.638 337.954 593.934 338.409 594.37 338.713C594.811 339.016 595.386 339.168 596.096 339.168C596.904 339.168 597.545 338.997 598.02 338.654C598.5 338.306 598.74 337.89 598.74 337.405C598.74 337.014 598.603 336.686 598.329 336.421C598.054 336.152 597.633 335.951 597.065 335.819L595.185 335.378C594.152 335.134 593.393 334.754 592.909 334.24C592.429 333.721 592.189 333.072 592.189 332.294C592.189 331.657 592.367 331.094 592.725 330.605C593.087 330.115 593.579 329.731 594.201 329.452C594.828 329.173 595.538 329.033 596.331 329.033C597.447 329.033 598.324 329.278 598.96 329.767C599.602 330.257 600.057 330.903 600.326 331.706ZM603.84 333.675V340.461H602.107V325.42H603.84V330.943H603.987C604.251 330.36 604.648 329.897 605.177 329.554C605.71 329.207 606.42 329.033 607.307 329.033C608.075 329.033 608.749 329.187 609.326 329.496C609.904 329.799 610.352 330.267 610.67 330.898C610.993 331.525 611.155 332.323 611.155 333.293V340.461H609.422V333.41C609.422 332.514 609.189 331.821 608.724 331.332C608.264 330.837 607.625 330.59 606.807 330.59C606.239 330.59 605.73 330.71 605.28 330.95C604.834 331.19 604.481 331.54 604.222 332C603.967 332.46 603.84 333.018 603.84 333.675ZM613.292 340.461V329.18H615.025V340.461H613.292ZM614.173 327.3C613.835 327.3 613.544 327.185 613.299 326.955C613.059 326.724 612.939 326.448 612.939 326.125C612.939 325.802 613.059 325.525 613.299 325.295C613.544 325.065 613.835 324.95 614.173 324.95C614.511 324.95 614.8 325.065 615.04 325.295C615.285 325.525 615.407 325.802 615.407 326.125C615.407 326.448 615.285 326.724 615.04 326.955C614.8 327.185 614.511 327.3 614.173 327.3ZM617.166 344.691V329.18H618.84V330.972H619.046C619.173 330.776 619.349 330.526 619.574 330.223C619.805 329.914 620.133 329.64 620.559 329.4C620.989 329.155 621.572 329.033 622.307 329.033C623.256 329.033 624.094 329.27 624.818 329.745C625.543 330.22 626.108 330.894 626.515 331.765C626.921 332.637 627.124 333.665 627.124 334.85C627.124 336.044 626.921 337.08 626.515 337.956C626.108 338.828 625.545 339.503 624.826 339.983C624.106 340.458 623.276 340.696 622.336 340.696C621.611 340.696 621.031 340.576 620.595 340.336C620.16 340.091 619.824 339.814 619.589 339.506C619.354 339.193 619.173 338.933 619.046 338.727H618.899V344.691H617.166ZM618.869 334.82C618.869 335.672 618.994 336.424 619.244 337.075C619.494 337.721 619.858 338.228 620.338 338.595C620.818 338.958 621.406 339.139 622.101 339.139C622.826 339.139 623.43 338.948 623.915 338.566C624.405 338.179 624.772 337.66 625.017 337.009C625.266 336.353 625.391 335.623 625.391 334.82C625.391 334.027 625.269 333.312 625.024 332.676C624.784 332.034 624.419 331.528 623.93 331.155C623.445 330.778 622.835 330.59 622.101 330.59C621.396 330.59 620.803 330.769 620.324 331.126C619.844 331.479 619.481 331.973 619.237 332.61C618.992 333.241 618.869 333.978 618.869 334.82Z" fill="white"/>
<path d="M511.767 239.288H646.847V276.346H511.767V239.288Z" fill="white"/>
<path d="M104.22 252.332H114.077V274.749C114.077 280.154 117.575 283.652 122.821 283.652H133.95V275.544H126.319C124.888 275.544 124.093 274.749 124.093 273.159V252.332H134.904V244.224H124.093V231.982H114.077V244.224H104.22V252.332Z" fill="white"/>
<path d="M138.399 244.224L152.231 263.779L138.24 283.652H150.085L159.306 269.9H160.101L169.322 283.652H181.166L167.176 263.779L181.007 244.224H169.401L160.101 257.817H159.306L150.005 244.224H138.399Z" fill="white"/>
<path d="M182.626 252.332H192.483V274.749C192.483 280.154 195.981 283.652 201.227 283.652H212.356V275.544H204.725C203.294 275.544 202.499 274.749 202.499 273.159V252.332H213.31V244.224H202.499V231.982H192.483V244.224H182.626V252.332Z" fill="white"/>
</svg>
