<svg width="751" height="201" viewBox="0 0 751 201" fill="none" xmlns="http://www.w3.org/2000/svg">
<path d="M40.1121 53.0516L37.7535 74.7279L45.1854 75.5366C51.007 76.17 54.4271 73.5342 55.0605 67.7126L55.5053 63.6251C56.1388 57.8034 53.3656 54.4937 47.544 53.8602L40.1121 53.0516ZM43.7953 57.2123L47.2016 57.5829C50.484 57.9401 51.7749 59.8979 51.4313 63.0564L50.9595 67.3917C50.6158 70.5502 48.934 72.1845 45.6516 71.8274L42.2453 71.4567L43.7953 57.2123ZM60.7421 55.2963L58.3835 76.9727L72.8137 78.5429L73.2181 74.8269L62.8754 73.7015L63.4583 68.3444L72.7481 69.3552L73.1525 65.6393L63.8626 64.6284L64.4253 59.4571L74.5822 60.5622L74.9866 56.8463L60.7421 55.2963ZM79.3763 57.324L77.0176 79.0003L81.1052 79.4451L82.0857 70.4339L91.1898 71.4245L91.5941 67.7086L82.49 66.718L83.0595 61.4847L92.7829 62.5427L93.1872 58.8267L79.3763 57.324ZM97.1637 59.2594L94.8051 80.9358L109.235 82.5059L109.64 78.79L99.2969 77.6646L99.8799 72.3074L109.17 73.3183L109.574 69.6023L100.284 68.5915L100.847 63.4201L111.004 64.5253L111.408 60.8094L97.1637 59.2594ZM115.798 61.287L113.439 82.9634L117.527 83.4081L119.434 65.8813L119.744 65.915L123.07 84.0113L130.099 84.7761L132.458 63.0998L128.37 62.655L126.463 80.1819L126.153 80.1482L122.827 62.0519L115.798 61.287ZM137.607 63.6601L135.249 85.3365L142.681 86.1452C148.502 86.7786 151.922 84.1428 152.556 78.3212L153 74.2336C153.634 68.412 150.861 65.1023 145.039 64.4688L137.607 63.6601ZM141.29 67.8208L144.697 68.1915C147.979 68.5487 149.27 70.5064 148.926 73.665L148.455 78.0003C148.111 81.1588 146.429 82.7931 143.147 82.4359L139.741 82.0653L141.29 67.8208ZM158.237 65.9049L155.879 87.5813L159.966 88.026L162.325 66.3497L158.237 65.9049ZM167.467 66.9092L165.108 88.5855L169.196 89.0303L171.103 71.5034L171.412 71.5371L174.739 89.6334L181.768 90.3983L184.126 68.7219L180.039 68.2772L178.132 85.804L177.822 85.7704L174.496 67.674L167.467 66.9092ZM186.947 82.6273C186.34 88.2012 189.533 91.6819 194.983 92.275C200.433 92.868 203.867 90.1083 204.426 84.9679L204.77 81.8094L195.48 80.7985L195.103 84.2667L200.367 84.8395L200.347 85.0253C200.077 87.5026 198.354 88.9444 195.381 88.6209C192.408 88.2975 190.697 86.1687 191.027 83.134L191.607 77.8078C191.937 74.7731 194.066 73.0621 197.039 73.3856C200.012 73.709 201.185 75.5914 200.943 77.821L200.896 78.2545L204.983 78.6993L205.024 78.3277C205.522 73.7447 202.886 70.3246 197.436 69.7316C191.986 69.1385 188.119 71.851 187.513 77.4249L186.947 82.6273ZM218.555 72.4681L218.151 76.1841L224.715 76.8984L222.761 94.8588L226.849 95.3036L228.803 77.3432L235.368 78.0575L235.772 74.3416L218.555 72.4681ZM239.372 74.7333L237.014 96.4097L241.101 96.8544L242.082 87.8433L250.257 88.7328L249.276 97.744L253.364 98.1887L255.723 76.5124L251.635 76.0676L250.661 85.0169L242.486 84.1273L243.46 75.1781L239.372 74.7333ZM260.849 77.0702L258.491 98.7466L272.921 100.317L273.325 96.6008L262.982 95.4754L263.565 90.1182L272.855 91.1291L273.259 87.4131L263.97 86.4023L264.532 81.2309L274.689 82.3361L275.094 78.6202L260.849 77.0702ZM289.378 80.1745L287.019 101.851L291.107 102.296L293.465 80.6193L289.378 80.1745ZM298.607 81.1787L296.249 102.855L300.336 103.3L302.243 85.773L302.553 85.8067L305.879 103.903L312.909 104.668L315.267 82.9915L311.18 82.5467L309.272 100.074L308.963 100.04L305.637 81.9436L298.607 81.1787ZM318.868 83.3834L318.464 87.0993L325.029 87.8136L323.075 105.774L327.162 106.219L329.116 88.2584L335.681 88.9727L336.086 85.2568L318.868 83.3834ZM339.686 85.6486L337.327 107.325L351.758 108.895L352.162 105.179L341.819 104.054L342.402 98.6966L351.692 99.7074L352.096 95.9915L342.806 94.9806L343.369 89.8093L353.526 90.9145L353.93 87.1985L339.686 85.6486ZM374.053 96.2813C374.501 92.1628 371.945 89.1587 367.858 88.714L358.32 87.6762L355.961 109.353L360.049 109.797L360.925 101.746L364.486 102.134L367.574 110.616L372.188 111.118L368.638 102.272C371.544 101.774 373.692 99.5947 374.053 96.2813ZM362.003 91.8369L367.051 92.3861C369.002 92.5984 370.171 93.9476 369.965 95.8365C369.76 97.7254 368.324 98.8226 366.374 98.6103L361.326 98.0611L362.003 91.8369ZM378.95 89.9209L376.591 111.597L380.679 112.042L382.586 94.5152L382.896 94.5489L386.222 112.645L393.251 113.41L395.61 91.7337L391.522 91.2889L389.615 108.816L389.306 108.782L385.979 90.6858L378.95 89.9209ZM400.759 92.294L398.401 113.97L412.831 115.541L413.235 111.825L402.893 110.699L403.476 105.342L412.766 106.353L413.17 102.637L403.88 101.626L404.443 96.4548L414.6 97.5599L415.004 93.844L400.759 92.294ZM417.845 94.1532L417.441 97.8691L424.006 98.5834L422.052 116.544L426.139 116.989L428.093 99.0282L434.658 99.7425L435.063 96.0266L417.845 94.1532Z" fill="#E4F7F6"/>
<rect x="23.4648" y="31.9312" width="434.958" height="62.7344" transform="rotate(6.20999 23.4648 31.9312)" stroke="#024A51" stroke-width="1.57068"/>
<rect x="17.9072" y="25.0154" width="12.5469" height="12.5469" transform="rotate(6.20999 17.9072 25.0154)" fill="white" stroke="#024A51" stroke-width="1.57068"/>
<rect x="450.316" y="72.0667" width="12.5469" height="12.5469" transform="rotate(6.20999 450.316 72.0667)" fill="white" stroke="#024A51" stroke-width="1.57068"/>
<rect x="443.53" y="134.433" width="12.5469" height="12.5469" transform="rotate(6.20999 443.53 134.433)" fill="white" stroke="#024A51" stroke-width="1.57068"/>
<rect x="11.1211" y="87.3818" width="12.5469" height="12.5469" transform="rotate(6.20999 11.1211 87.3818)" fill="white" stroke="#024A51" stroke-width="1.57068"/>
<path d="M538.388 118.064L549.179 137.33L555.407 135.043L552.423 117.158L552.716 117.051L562.015 132.617L568.243 130.33L564.003 108.659L560.143 110.077L563.799 127.714L563.506 127.822L554.207 112.256L548.184 114.468L551.167 132.353L550.874 132.46L542.248 116.647L538.388 118.064ZM567.467 107.387L574.983 127.855L578.842 126.438L571.327 105.97L567.467 107.387ZM574.72 104.724L576.008 108.233L582.207 105.957L588.434 122.916L592.294 121.499L586.067 104.54L592.266 102.264L590.978 98.7547L574.72 104.724ZM594.377 97.5064L601.893 117.975L605.752 116.557L602.628 108.048L610.348 105.214L613.472 113.723L617.332 112.306L609.816 91.8377L605.956 93.2548L609.059 101.705L601.34 104.54L598.237 96.0892L594.377 97.5064ZM624 86.6296L631.516 107.098L638.533 104.521C644.03 102.503 645.924 98.6219 643.905 93.1248L642.488 89.265C640.47 83.7679 636.515 82.0345 631.018 84.0529L624 86.6296ZM629.148 88.7212L632.365 87.5402C635.464 86.4022 637.49 87.5828 638.585 90.5653L640.089 94.6589C641.184 97.6414 640.403 99.8527 637.303 100.991L634.087 102.172L629.148 88.7212ZM647.146 78.1311L648.93 100.704L652.877 99.2542L652.431 94.2418L659.565 91.6221L662.468 95.7327L666.416 94.2833L653.169 75.9194L647.146 78.1311ZM652.078 90.3894L651.171 80.2369L651.463 80.1295L657.341 88.4569L652.078 90.3894ZM658.9 73.8152L660.188 77.324L666.387 75.0479L672.614 92.0073L676.474 90.5901L670.247 73.6307L676.446 71.3546L675.157 67.8458L658.9 73.8152ZM680.909 65.734L682.693 88.3065L686.641 86.8571L686.194 81.8447L693.329 79.225L696.231 83.3356L700.179 81.8862L686.932 63.5223L680.909 65.734ZM685.841 77.9923L684.934 67.8398L685.226 67.7324L691.104 76.0598L685.841 77.9923Z" fill="#E4F7F6"/>
<rect x="506.71" y="109.247" width="217.479" height="62.7344" transform="rotate(-20.1621 506.71 109.247)" stroke="#024A51" stroke-width="1.57068"/>
<rect x="498.658" y="105.521" width="12.5469" height="12.5469" transform="rotate(-20.1621 498.658 105.521)" fill="white" stroke="#024A51" stroke-width="1.57068"/>
<rect x="702.812" y="30.5601" width="12.5469" height="12.5469" transform="rotate(-20.1621 702.812 30.5601)" fill="white" stroke="#024A51" stroke-width="1.57068"/>
<rect x="724.433" y="89.4502" width="12.5469" height="12.5469" transform="rotate(-20.1621 724.433 89.4502)" fill="white" stroke="#024A51" stroke-width="1.57068"/>
<rect x="520.282" y="164.41" width="12.5469" height="12.5469" transform="rotate(-20.1621 520.282 164.41)" fill="white" stroke="#024A51" stroke-width="1.57068"/>
</svg>
