<svg width="741" height="714" viewBox="0 0 741 714" fill="none" xmlns="http://www.w3.org/2000/svg">
<g clip-path="url(#clip0_4825_283)">
<rect x="0.499023" y="713.523" width="712.782" height="473.754" transform="rotate(-90 0.499023 713.523)" fill="url(#paint0_linear_4825_283)"/>
<rect x="9.28906" y="614.477" width="604.946" height="607.666" transform="rotate(-90 9.28906 614.477)" fill="url(#paint1_linear_4825_283)"/>
<rect x="374.345" y="348.874" width="17.4093" height="17.3177" transform="rotate(-180 374.345 348.874)" fill="#EAE85D"/>
<rect x="698.93" y="395.106" width="17.4093" height="17.3177" transform="rotate(-180 698.93 395.106)" fill="#EAE85D"/>
<rect x="709.73" y="340.257" width="9.58911" height="9.53864" transform="rotate(-180 709.73 340.257)" fill="#25AAE1"/>
<rect x="378.903" y="480.608" width="9.11916" height="9.07117" transform="rotate(-180 378.903 480.608)" fill="#D9F5FF"/>
<rect x="208.955" y="443.927" width="39.7927" height="39.5833" fill="#D9F5FF"/>
<rect x="240.601" y="359.365" width="27.2265" height="27.0832" fill="#A3E7FF"/>
<rect x="619.348" y="345.827" width="27.2265" height="27.0832" fill="#A3E7FF"/>
<rect x="94.5508" y="481.832" width="17.4093" height="17.3177" fill="#0D7DB0"/>
<rect x="588.641" y="363.835" width="9.11916" height="9.07117" fill="#D9F5FF"/>
<g clip-path="url(#clip1_4825_283)">
<mask id="mask0_4825_283" style="mask-type:luminance" maskUnits="userSpaceOnUse" x="59" y="60" width="271" height="84">
<path d="M329.689 60.8926H59.4746V143.645H329.689V60.8926Z" fill="white"/>
</mask>
<g mask="url(#mask0_4825_283)">
<path d="M207.755 113.692H212.268C213.072 113.64 213.878 113.751 214.637 114.019C215.396 114.286 216.091 114.704 216.679 115.247C217.267 115.79 217.736 116.445 218.056 117.174C218.377 117.903 218.542 118.688 218.542 119.482C218.542 120.277 218.377 121.062 218.056 121.791C217.736 122.519 217.267 123.175 216.679 123.718C216.091 124.261 215.396 124.679 214.637 124.946C213.878 125.214 213.072 125.325 212.268 125.272H207.755V113.692ZM212.268 122.992C212.732 123.016 213.196 122.943 213.629 122.778C214.06 122.622 214.451 122.374 214.773 122.052C215.109 121.727 215.37 121.335 215.541 120.903C215.712 120.471 215.788 120.008 215.765 119.545C215.789 119.08 215.715 118.615 215.549 118.179C215.383 117.744 215.128 117.347 214.798 117.013C214.467 116.69 214.074 116.434 213.641 116.262C213.204 116.097 212.736 116.024 212.268 116.048H210.31V123.042L212.268 122.966V122.992ZM192.815 113.692H195.243L200.876 120.811V113.692H203.482V125.272H201.232L195.421 117.903V125.272H192.878L192.815 113.692ZM176.807 120.209V113.692H179.502V120.134C179.502 121.989 180.494 122.954 182.134 122.954C182.5 122.986 182.869 122.936 183.212 122.808C183.556 122.679 183.866 122.476 184.119 122.214C184.372 121.951 184.562 121.636 184.674 121.291C184.786 120.946 184.817 120.58 184.766 120.222V113.692H187.474V120.122C187.474 123.568 185.402 125.272 182.121 125.272C178.841 125.272 176.832 123.581 176.832 120.259L176.807 120.209ZM162.922 113.692H171.466V116.036H165.389V118.542H170.742V120.848H165.389V125.335H162.922V113.692ZM306.269 100.709L301.691 93.703H304.756L307.591 98.3525L310.477 93.703H313.44L308.875 100.659V105.271H306.269V100.709ZM286.752 99.4554C286.758 98.6759 286.93 97.9064 287.256 97.1963C287.583 96.4862 288.056 95.8513 288.646 95.3322C289.893 94.2265 291.521 93.6305 293.198 93.6654C294.948 93.5709 296.673 94.1152 298.042 95.1943L296.351 97.0366C295.458 96.2811 294.311 95.8792 293.134 95.9087C292.667 95.9103 292.204 96.0033 291.774 96.1822C291.343 96.3612 290.953 96.6226 290.625 96.9513C290.297 97.2799 290.039 97.6694 289.865 98.0971C289.692 98.5248 289.606 98.9822 289.612 99.4429C289.586 99.9074 289.662 100.372 289.836 100.805C290.009 101.237 290.276 101.628 290.617 101.949C291.348 102.638 292.327 103.012 293.338 102.99C294.234 103.024 295.12 102.793 295.881 102.325V100.759H293.16V98.6157H298.513V103.503C297.014 104.669 295.158 105.296 293.249 105.283C291.552 105.368 289.89 104.792 288.621 103.679C288.021 103.155 287.545 102.507 287.229 101.781C286.912 101.056 286.762 100.27 286.79 99.4805L286.752 99.4554ZM269.676 99.9692C269.675 99.1396 269.839 98.3179 270.159 97.5505C270.477 96.783 270.946 96.0854 271.54 95.4981C272.134 94.9108 272.84 94.4455 273.617 94.1291C274.396 93.8161 275.23 93.6544 276.071 93.6528C276.913 93.6521 277.746 93.8139 278.525 94.1291C279.305 94.4437 280.014 94.908 280.61 95.4951C281.202 96.1023 281.669 96.8175 281.983 97.6006C282.299 98.4499 282.425 99.3566 282.352 100.258C282.278 101.16 282.008 102.035 281.559 102.824C281.11 103.613 280.493 104.297 279.75 104.829C279.007 105.36 278.157 105.727 277.257 105.903C276.356 106.08 275.428 106.063 274.536 105.852C273.643 105.642 272.807 105.243 272.086 104.684C271.364 104.125 270.774 103.419 270.356 102.613C269.938 101.808 269.701 100.923 269.663 100.019M279.695 100.019C279.711 99.5361 279.629 99.0546 279.453 98.6032C279.279 98.137 279.011 97.7106 278.665 97.3499C278.33 96.9971 277.923 96.7193 277.47 96.5353C277.019 96.3464 276.535 96.2484 276.046 96.2471C275.557 96.239 275.071 96.333 274.622 96.5228C274.177 96.71 273.775 96.9827 273.439 97.3249C273.097 97.6863 272.833 98.1127 272.664 98.5781C272.486 99.0244 272.408 99.5031 272.435 99.9818C272.42 100.465 272.502 100.946 272.676 101.398C272.85 101.861 273.114 102.287 273.452 102.651C273.8 102.994 274.21 103.27 274.66 103.466C275.108 103.654 275.59 103.752 276.077 103.753C276.564 103.753 277.047 103.657 277.495 103.47C277.944 103.283 278.35 103.009 278.688 102.663C279.027 102.318 279.291 101.909 279.466 101.461C279.63 101.011 279.708 100.535 279.695 100.057M257.914 93.7907H260.534V103.052H266.459V105.358H257.914V93.7907ZM239.77 100.057C239.776 98.6087 240.29 97.207 241.226 96.0903C242.162 94.9736 243.461 94.2109 244.903 93.9318C246.344 93.6527 247.84 93.8746 249.134 94.5595C250.429 95.2445 251.443 96.3504 252.004 97.689C252.565 99.0277 252.638 100.517 252.211 101.902C251.783 103.288 250.882 104.485 249.661 105.29C248.439 106.095 246.973 106.458 245.51 106.317C244.048 106.177 242.68 105.541 241.639 104.519C240.445 103.332 239.774 101.729 239.77 100.057ZM249.828 100.057C249.838 99.5742 249.756 99.0939 249.586 98.6408C249.412 98.1746 249.144 97.7482 248.798 97.3875C248.459 97.04 248.052 96.763 247.603 96.5729C247.152 96.3849 246.668 96.287 246.179 96.2847C245.689 96.2743 245.204 96.3684 244.755 96.5604C244.308 96.7502 243.902 97.0224 243.559 97.3625C243.22 97.7259 242.956 98.1518 242.784 98.6157C242.607 99.0666 242.529 99.5492 242.555 100.032C242.54 100.515 242.622 100.996 242.796 101.448C242.971 101.9 243.235 102.313 243.572 102.664C243.921 103.006 244.33 103.282 244.78 103.478C245.456 103.759 246.202 103.833 246.921 103.69C247.64 103.547 248.298 103.194 248.811 102.676C249.15 102.313 249.414 101.887 249.586 101.423C249.751 100.973 249.828 100.497 249.815 100.019L249.828 100.057ZM224.83 93.7907H227.31L232.93 100.909V93.703H235.549V105.271H233.299L227.488 97.9264V105.271H224.881L224.83 93.7907ZM207.742 93.7907H210.285V98.3651H214.888V93.703H217.43V105.271H214.888V100.633H210.285V105.271H207.742V93.7907ZM191.708 99.493C191.695 98.7226 191.842 97.9577 192.142 97.2461C192.442 96.5345 192.887 95.8915 193.45 95.3573C194.019 94.8178 194.688 94.3922 195.421 94.104C196.16 93.8275 196.945 93.6914 197.735 93.703C198.577 93.6663 199.417 93.8029 200.202 94.104C200.988 94.3972 201.703 94.8497 202.3 95.4324L200.711 97.2371C199.933 96.4526 198.873 96.0022 197.761 95.9839C197.303 95.9915 196.852 96.0885 196.433 96.2692C196.014 96.4499 195.635 96.7107 195.319 97.0366C195.008 97.3598 194.766 97.7419 194.609 98.1598C194.452 98.5777 194.382 99.0227 194.404 99.4679C194.362 100.148 194.534 100.824 194.896 101.405C195.257 101.986 195.792 102.443 196.426 102.714C196.849 102.891 197.301 102.989 197.761 103.002C198.33 102.993 198.891 102.874 199.414 102.651C199.934 102.421 200.405 102.093 200.8 101.686L202.414 103.265C201.824 103.913 201.094 104.423 200.278 104.757C199.475 105.091 198.607 105.249 197.735 105.22C196.952 105.235 196.174 105.094 195.447 104.807C194.716 104.521 194.05 104.095 193.488 103.554C192.93 103.027 192.485 102.395 192.179 101.695C191.874 100.995 191.713 100.242 191.708 99.4805V99.493ZM177.875 93.703H186.33V95.9839H180.265V98.34H185.567V100.608H180.265V103.04H186.356V105.296H177.875V93.703ZM166.431 96.0465H162.922V93.703H172.535V96.0465H169V105.271H166.457L166.431 96.0465ZM207.742 74.7412H210.183L215.867 81.8973V74.7663H218.409V86.3338H216.159L210.336 78.9772V86.3338H207.793L207.742 74.7412ZM193.87 74.7412H202.325V77.0096H196.324V79.3532H201.601V81.6216H196.324V84.078H202.402V86.3338H193.87V74.7412ZM178.994 74.7663H183.94C186.826 74.7663 188.581 76.408 188.581 78.7767C188.581 81.4712 186.406 82.8623 183.685 82.8623H181.651V86.3338H178.994V74.7663ZM183.762 80.619C184.022 80.6491 184.286 80.6278 184.537 80.5563C184.789 80.4837 185.023 80.3599 185.224 80.1929C185.422 80.03 185.582 79.8271 185.694 79.5979C185.806 79.3688 185.867 79.1187 185.872 78.8644C185.872 77.724 185.046 77.1475 183.711 77.1475H181.613V80.6942L183.724 80.619H183.762ZM160.875 81.0701C160.87 79.8209 161.243 78.5986 161.948 77.5602C162.653 76.5218 163.656 75.7147 164.829 75.2425C165.607 74.9219 166.441 74.7569 167.283 74.7569C168.126 74.7569 168.96 74.9219 169.737 75.2425C170.513 75.5586 171.217 76.0228 171.81 76.6086C173.003 77.7973 173.678 79.3981 173.692 81.0701C173.692 82.7454 173.016 84.352 171.815 85.5365C170.613 86.7211 168.983 87.3866 167.283 87.3866C165.584 87.3866 163.954 86.7211 162.752 85.5365C161.55 84.352 160.875 82.7454 160.875 81.0701ZM170.932 81.0701C170.914 80.5938 170.802 80.1255 170.602 79.6916C170.429 79.2248 170.161 78.7981 169.814 78.4383C169.479 78.0855 169.071 77.8077 168.618 77.6237C168.169 77.4295 167.685 77.3272 167.194 77.3229C166.705 77.3252 166.221 77.4232 165.77 77.6112C165.321 77.797 164.915 78.0697 164.575 78.4132C164.235 78.7767 163.972 79.2026 163.799 79.6665C163.634 80.1203 163.556 80.6007 163.571 81.0827C163.555 81.5658 163.638 82.0472 163.812 82.4989C163.981 82.9673 164.25 83.3946 164.6 83.7521C164.935 84.1049 165.343 84.3827 165.796 84.5667C166.243 84.7655 166.729 84.868 167.22 84.8675C167.709 84.8652 168.193 84.7672 168.644 84.5793C169.09 84.3918 169.493 84.1176 169.83 83.7731C170.166 83.4286 170.429 83.0208 170.602 82.5741C170.78 82.1234 170.858 81.6406 170.831 81.1579L170.932 81.0701Z" fill="white"/>
</g>
<path d="M61.4834 80.7448H71.1466V118.831H61.4834V80.7448ZM71.1466 118.831H80.7972V128.356H71.1466V118.831ZM71.1466 71.2075H80.7972V80.7323H71.1466V71.2075ZM80.7972 128.343H90.4604V137.868H80.7972V128.343ZM80.7972 61.6953H90.4604V71.2201H80.7972V61.6953Z" fill="white"/>
<path d="M138.764 80.744H148.478V118.83H138.815L138.764 80.744ZM129.101 71.2192H138.764V80.744H129.101V71.2192ZM119.438 128.355H129.101V137.88H119.438V128.355ZM129.101 118.83H138.764V128.355H129.101V118.83ZM119.438 61.707H129.101V71.2192H119.438V61.707Z" fill="white"/>
</g>
<rect x="170.277" y="253.563" width="96.689" height="46.552" fill="#546991"/>
<rect x="375.371" y="241.844" width="96.689" height="46.552" transform="rotate(-180 375.371 241.844)" fill="#0D7DB0"/>
<rect x="158.556" y="299.839" width="96.689" height="46.552" transform="rotate(-180 158.556 299.839)" fill="#EAE85D"/>
<rect x="266.963" y="241.845" width="96.689" height="46.552" transform="rotate(-180 266.963 241.845)" fill="#25AAE1"/>
<rect x="375.373" y="300.114" width="96.689" height="46.552" transform="rotate(-180 375.373 300.114)" fill="white"/>
<rect x="61.8682" y="195.293" width="96.689" height="46.277" fill="#A3E7FF"/>
<rect x="630.777" y="51.6523" width="31.5914" height="31.4251" fill="#D9F5FF"/>
<rect x="560.135" y="117.063" width="31.5914" height="31.4251" fill="#D9F5FF"/>
<rect x="662.369" y="93.0684" width="55.7129" height="55.4197" fill="#0D7DB0"/>
<rect x="718.082" y="51.6523" width="13.8213" height="13.7485" fill="#25AAE1"/>
<rect x="494.369" y="86.1943" width="13.8213" height="13.7485" fill="#25AAE1"/>
<rect x="616.955" y="93.0684" width="13.8213" height="13.7485" fill="#EAE85D"/>
<rect x="528.769" y="51.6523" width="20.4219" height="20.3145" fill="#EAE85D"/>
<path d="M427.383 290.174L731.903 290.174" stroke="white" stroke-width="1.10962"/>
<path d="M427.383 205.229L731.903 205.229" stroke="white" stroke-width="1.10962"/>
<path d="M427.383 233.544L731.903 233.544" stroke="white" stroke-width="1.10962"/>
<path d="M427.383 261.858L731.903 261.858" stroke="white" stroke-width="1.10962"/>
<path d="M675.525 691.258L723.544 440.851L486.167 415.401L442.406 678.397L675.525 691.258Z" fill="url(#paint2_linear_4825_283)"/>
<path d="M350.614 608.013L387.465 366.06L486.167 415.401L442.407 678.396L350.614 608.013Z" fill="url(#paint3_linear_4825_283)"/>
<path d="M617.085 391.976L723.543 440.851L486.166 415.401L388.65 366.379L617.085 391.976Z" fill="url(#paint4_linear_4825_283)"/>
<path fill-rule="evenodd" clip-rule="evenodd" d="M523.006 419.348L519.828 419.007L508.905 484.445L530.456 486.666L516.682 561.592C513.886 561.65 511.516 563.796 511.246 566.647C510.955 569.717 513.207 572.442 516.277 572.733C519.347 573.024 522.071 570.772 522.363 567.702C522.569 565.529 521.5 563.529 519.769 562.442L533.639 486.994L553.379 489.031C553.825 491.417 555.804 493.32 558.341 493.561C561.411 493.852 564.136 491.6 564.427 488.53C564.718 485.46 562.466 482.735 559.396 482.444C556.897 482.207 554.627 483.655 553.712 485.858L532.5 483.669L512.611 481.62L523.006 419.348ZM710.963 506.446L711.566 503.303L616.004 492.932C615.538 490.46 613.433 488.533 610.809 488.395C607.73 488.233 605.102 490.598 604.941 493.678C604.779 496.757 607.144 499.385 610.223 499.546C612.651 499.674 614.798 498.231 615.677 496.106L663.537 501.3L660.607 516.754C657.887 517.001 655.691 519.214 655.543 522.021C655.381 525.101 657.747 527.728 660.826 527.89C663.905 528.052 666.533 525.686 666.695 522.607C666.812 520.368 665.593 518.367 663.735 517.38L666.719 501.645L710.963 506.446ZM685.535 639.05L686.142 635.888L615.356 632.09L618.912 612.886L515.889 606.47C515.512 603.753 513.18 601.662 510.359 601.662C507.276 601.662 504.776 604.161 504.776 607.245C504.776 610.329 507.276 612.828 510.359 612.828C512.587 612.828 514.51 611.523 515.406 609.636L563.702 612.644L560.757 629.096L485.879 625.346C485.526 622.602 483.181 620.481 480.341 620.481C477.257 620.481 474.758 622.98 474.758 626.064C474.758 629.148 477.257 631.647 480.341 631.647C482.546 631.647 484.452 630.37 485.359 628.515L563.403 632.423L566.907 612.844L615.12 615.847L611.558 635.081L685.535 639.05ZM480.341 628.457C479.019 628.457 477.948 627.386 477.948 626.064C477.948 624.743 479.019 623.671 480.341 623.671C481.663 623.671 482.734 624.743 482.734 626.064C482.734 627.386 481.663 628.457 480.341 628.457ZM507.966 607.245C507.966 608.567 509.038 609.638 510.359 609.638C511.681 609.638 512.752 608.567 512.752 607.245C512.752 605.923 511.681 604.852 510.359 604.852C509.038 604.852 507.966 605.923 507.966 607.245ZM610.391 496.36C609.071 496.291 608.057 495.165 608.127 493.845C608.196 492.525 609.322 491.512 610.642 491.581C611.962 491.65 612.975 492.776 612.906 494.096C612.837 495.416 611.71 496.43 610.391 496.36ZM658.729 522.189C658.66 523.508 659.674 524.634 660.993 524.704C662.313 524.773 663.439 523.759 663.508 522.44C663.578 521.12 662.564 519.994 661.244 519.925C659.925 519.855 658.799 520.869 658.729 522.189ZM516.578 569.557C517.894 569.682 519.062 568.716 519.186 567.401C519.311 566.085 518.346 564.917 517.03 564.792C515.715 564.668 514.547 565.633 514.422 566.949C514.297 568.264 515.263 569.432 516.578 569.557ZM561.251 488.228C561.126 489.544 559.958 490.509 558.642 490.385C557.327 490.26 556.361 489.092 556.486 487.776C556.611 486.461 557.779 485.495 559.094 485.62C560.41 485.745 561.375 486.913 561.251 488.228Z" fill="#0D7DB0"/>
<circle cx="105.136" cy="390.642" r="51.6483" fill="url(#paint5_radial_4825_283)"/>
<circle cx="311.805" cy="615.74" r="15.2208" fill="url(#paint6_radial_4825_283)"/>
<path d="M97.1626 618.805L199.598 490.496L296.754 567.059L191.678 695.368L97.1626 618.805Z" fill="url(#paint7_linear_4825_283)"/>
<path d="M191.678 695.368L97.1623 618.806L53.4869 623.774L143.1 695.368H191.678Z" fill="url(#paint8_linear_4825_283)"/>
<path d="M97.1639 618.805L199.6 490.496L148.91 504.225L53.4885 623.773L97.1639 618.805Z" fill="url(#paint9_linear_4825_283)"/>
<path d="M258.427 613.857L234.135 594.029M177.19 615.74L209.933 574.454L234.135 594.029M234.135 594.029L248.728 576.234" stroke="#0D7DB0" stroke-width="3.22337"/>
<circle cx="4.26366" cy="4.26366" r="2.65198" transform="matrix(-0.094445 0.99553 0.99553 0.094445 246.054 569.807)" stroke="#0D7DB0" stroke-width="3.22337"/>
<circle cx="4.26366" cy="4.26366" r="2.65198" transform="matrix(-0.094445 0.99553 0.99553 0.094445 172.248 612.648)" stroke="#0D7DB0" stroke-width="3.22337"/>
<circle cx="340.054" cy="463.734" r="73.0924" fill="url(#paint10_radial_4825_283)"/>
</g>
<defs>
<linearGradient id="paint0_linear_4825_283" x1="356.89" y1="713.523" x2="356.89" y2="1187.28" gradientUnits="userSpaceOnUse">
<stop stop-color="#25AAE1"/>
<stop offset="1" stop-color="#18181B"/>
</linearGradient>
<linearGradient id="paint1_linear_4825_283" x1="315.396" y1="539.766" x2="308.959" y2="1137.11" gradientUnits="userSpaceOnUse">
<stop stop-color="#0D7DB0"/>
<stop offset="1" stop-color="#18181B"/>
</linearGradient>
<linearGradient id="paint2_linear_4825_283" x1="618.525" y1="412.711" x2="540.306" y2="704.629" gradientUnits="userSpaceOnUse">
<stop stop-color="#A3E7FF"/>
<stop offset="1" stop-color="#25AAE1"/>
</linearGradient>
<linearGradient id="paint3_linear_4825_283" x1="452.138" y1="383.389" x2="377.734" y2="661.067" gradientUnits="userSpaceOnUse">
<stop stop-color="#0D7DB0"/>
<stop offset="1" stop-color="#246887"/>
</linearGradient>
<linearGradient id="paint4_linear_4825_283" x1="486.32" y1="487.771" x2="616.675" y2="391.866" gradientUnits="userSpaceOnUse">
<stop stop-color="#EAE85D"/>
<stop offset="1" stop-color="#FAF9D3"/>
</linearGradient>
<radialGradient id="paint5_radial_4825_283" cx="0" cy="0" r="1" gradientUnits="userSpaceOnUse" gradientTransform="translate(87.0556 364.256) rotate(70.8359) scale(82.6135)">
<stop stop-color="#D9F5FF"/>
<stop offset="1" stop-color="#25AAE1"/>
</radialGradient>
<radialGradient id="paint6_radial_4825_283" cx="0" cy="0" r="1" gradientUnits="userSpaceOnUse" gradientTransform="translate(306.477 607.964) rotate(70.8359) scale(24.3463)">
<stop stop-color="#D9F5FF"/>
<stop offset="1" stop-color="#25AAE1"/>
</radialGradient>
<linearGradient id="paint7_linear_4825_283" x1="185.802" y1="703.937" x2="196.958" y2="514.322" gradientUnits="userSpaceOnUse">
<stop stop-color="#2AADE3"/>
<stop offset="1" stop-color="#9DE4FE"/>
</linearGradient>
<linearGradient id="paint8_linear_4825_283" x1="122.582" y1="618.806" x2="122.582" y2="695.368" gradientUnits="userSpaceOnUse">
<stop stop-color="#107CAC"/>
<stop offset="1" stop-color="#1D6789"/>
</linearGradient>
<linearGradient id="paint9_linear_4825_283" x1="126.544" y1="490.496" x2="126.544" y2="623.773" gradientUnits="userSpaceOnUse">
<stop stop-color="#FAF9D4"/>
<stop offset="1" stop-color="#ECEB8B"/>
</linearGradient>
<radialGradient id="paint10_radial_4825_283" cx="0" cy="0" r="1" gradientUnits="userSpaceOnUse" gradientTransform="translate(314.468 426.391) rotate(70.8359) scale(116.914)">
<stop stop-color="#FFFFEF"/>
<stop offset="1" stop-color="#EAE85D"/>
</radialGradient>
<clipPath id="clip0_4825_283">
<rect width="740" height="713" fill="white" transform="translate(0.5 0.523438)"/>
</clipPath>
<clipPath id="clip1_4825_283">
<rect width="251.956" height="76.1728" fill="white" transform="translate(61.4834 61.707)"/>
</clipPath>
</defs>
</svg>
