<svg width="800" height="450" viewBox="0 0 800 450" fill="none" xmlns="http://www.w3.org/2000/svg">
<rect width="800" height="450" fill="#D9F5FF"/>
<g clip-path="url(#clip0_4785_769)">
<mask id="mask0_4785_769" style="mask-type:luminance" maskUnits="userSpaceOnUse" x="123" y="141" width="585" height="179">
<path d="M707.084 141.247H123.662V319.413H707.084V141.247Z" fill="white"/>
</mask>
<g mask="url(#mask0_4785_769)">
<path d="M443.813 254.924H453.559C455.295 254.812 457.036 255.051 458.674 255.627C460.311 256.202 461.812 257.102 463.082 258.271C464.351 259.439 465.364 260.852 466.056 262.42C466.748 263.989 467.105 265.681 467.105 267.39C467.105 269.1 466.748 270.791 466.056 272.36C465.364 273.929 464.351 275.341 463.082 276.51C461.812 277.678 460.311 278.578 458.674 279.154C457.036 279.729 455.295 279.968 453.559 279.856H443.813V254.924ZM453.559 274.945C454.56 274.998 455.561 274.841 456.497 274.487C457.427 274.15 458.271 273.616 458.967 272.922C459.692 272.222 460.257 271.379 460.626 270.449C460.995 269.519 461.16 268.522 461.109 267.525C461.16 266.524 461.001 265.523 460.642 264.584C460.285 263.646 459.733 262.792 459.022 262.075C458.307 261.378 457.458 260.827 456.524 260.456C455.579 260.101 454.569 259.945 453.559 259.997H449.331V275.053L453.559 274.891V274.945ZM411.557 254.924H416.8L428.962 270.25V254.924H434.589V279.856H429.73L417.184 263.99V279.856H411.694L411.557 254.924ZM376.994 268.955V254.924H382.814V268.793C382.814 272.787 384.955 274.864 388.497 274.864C389.287 274.933 390.083 274.825 390.825 274.549C391.567 274.273 392.236 273.836 392.782 273.271C393.328 272.706 393.738 272.026 393.98 271.284C394.221 270.541 394.29 269.754 394.179 268.982V254.924H400.027V268.766C400.027 276.187 395.552 279.856 388.469 279.856C381.386 279.856 377.049 276.214 377.049 269.063L376.994 268.955ZM347.016 254.924H365.464V259.97H352.341V265.367H363.899V270.331H352.341V279.991H347.016V254.924ZM656.516 226.97L646.633 211.887H653.249L659.371 221.898L665.603 211.887H671.999L662.144 226.862V236.792H656.516V226.97ZM614.376 224.272C614.391 222.594 614.762 220.937 615.466 219.408C616.171 217.879 617.193 216.512 618.467 215.395C621.16 213.014 624.674 211.731 628.295 211.806C632.074 211.603 635.798 212.775 638.754 215.098L635.103 219.064C633.173 217.438 630.699 216.573 628.157 216.636C627.148 216.64 626.15 216.84 625.22 217.225C624.29 217.61 623.447 218.173 622.739 218.881C622.032 219.588 621.475 220.427 621.1 221.348C620.724 222.268 620.538 223.253 620.553 224.245C620.497 225.245 620.661 226.245 621.036 227.177C621.41 228.109 621.985 228.949 622.722 229.642C624.301 231.124 626.414 231.93 628.597 231.881C630.531 231.956 632.444 231.458 634.087 230.451V227.078H628.212V222.464H639.77V232.987C636.534 235.496 632.526 236.847 628.404 236.819C624.741 237.001 621.152 235.761 618.412 233.365C617.116 232.238 616.09 230.843 615.407 229.28C614.723 227.718 614.4 226.026 614.459 224.326L614.376 224.272ZM577.507 225.378C577.506 223.592 577.86 221.823 578.551 220.171C579.238 218.518 580.251 217.017 581.533 215.752C582.815 214.488 584.339 213.486 586.018 212.805C587.7 212.131 589.499 211.783 591.316 211.779C593.133 211.778 594.933 212.126 596.614 212.805C598.299 213.482 599.829 214.482 601.117 215.746C602.395 217.053 603.402 218.593 604.081 220.279C604.764 222.107 605.035 224.059 604.877 226.001C604.718 227.942 604.134 229.827 603.165 231.526C602.195 233.224 600.863 234.696 599.259 235.84C597.656 236.985 595.819 237.774 593.876 238.155C591.932 238.535 589.928 238.498 588.001 238.044C586.074 237.591 584.269 236.733 582.711 235.53C581.153 234.326 579.879 232.805 578.976 231.071C578.073 229.338 577.563 227.432 577.48 225.486M599.14 225.486C599.175 224.446 598.998 223.409 598.618 222.437C598.243 221.434 597.664 220.516 596.916 219.739C596.194 218.979 595.314 218.381 594.336 217.985C593.363 217.578 592.318 217.367 591.261 217.365C590.205 217.347 589.157 217.55 588.186 217.958C587.227 218.361 586.359 218.948 585.633 219.685C584.894 220.463 584.324 221.381 583.959 222.383C583.576 223.344 583.407 224.375 583.465 225.405C583.432 226.446 583.609 227.482 583.986 228.454C584.362 229.451 584.931 230.368 585.661 231.153C586.413 231.89 587.297 232.484 588.269 232.907C589.236 233.313 590.277 233.523 591.329 233.524C592.381 233.526 593.422 233.319 594.391 232.916C595.36 232.513 596.236 231.922 596.967 231.179C597.698 230.435 598.269 229.555 598.646 228.589C599.001 227.621 599.168 226.596 599.14 225.567M552.114 212.076H557.769V232.016H570.562V236.981H552.114V212.076ZM512.939 225.567C512.951 222.449 514.061 219.431 516.082 217.027C518.102 214.623 520.907 212.981 524.02 212.38C527.133 211.779 530.362 212.257 533.157 213.731C535.952 215.206 538.142 217.587 539.352 220.469C540.563 223.351 540.721 226.557 539.799 229.54C538.876 232.524 536.931 235.101 534.294 236.834C531.656 238.567 528.49 239.349 525.332 239.046C522.175 238.743 519.221 237.374 516.975 235.173C514.396 232.618 512.946 229.166 512.939 225.567ZM534.654 225.567C534.675 224.528 534.498 223.494 534.132 222.518C533.757 221.515 533.178 220.597 532.43 219.82C531.698 219.072 530.821 218.475 529.85 218.066C528.877 217.661 527.832 217.45 526.775 217.446C525.719 217.423 524.67 217.626 523.7 218.039C522.736 218.448 521.86 219.034 521.12 219.766C520.387 220.549 519.818 221.465 519.445 222.464C519.064 223.435 518.896 224.474 518.951 225.513C518.918 226.554 519.095 227.59 519.472 228.562C519.849 229.535 520.419 230.425 521.147 231.18C521.9 231.917 522.784 232.511 523.755 232.934C525.214 233.539 526.825 233.698 528.378 233.39C529.93 233.081 531.352 232.321 532.458 231.207C533.191 230.424 533.76 229.507 534.132 228.508C534.487 227.54 534.655 226.515 534.626 225.486L534.654 225.567ZM480.682 212.076H486.035L498.169 227.402V211.887H503.825V236.792H498.966L486.42 220.98V236.792H480.792L480.682 212.076ZM443.786 212.076H449.276V221.925H459.214V211.887H464.705V236.792H459.214V226.808H449.276V236.792H443.786V212.076ZM409.168 224.353C409.138 222.694 409.457 221.048 410.104 219.516C410.751 217.983 411.713 216.599 412.929 215.449C414.157 214.287 415.602 213.371 417.184 212.751C418.779 212.155 420.475 211.862 422.181 211.887C423.998 211.808 425.812 212.102 427.507 212.751C429.204 213.382 430.747 214.356 432.036 215.611L428.605 219.496C426.926 217.807 424.638 216.837 422.236 216.798C421.248 216.814 420.274 217.023 419.369 217.412C418.464 217.801 417.647 218.363 416.965 219.064C416.292 219.76 415.77 220.583 415.431 221.483C415.091 222.382 414.94 223.341 414.988 224.299C414.899 225.763 415.269 227.219 416.05 228.469C416.831 229.72 417.984 230.703 419.353 231.288C420.266 231.669 421.244 231.879 422.236 231.908C423.464 231.889 424.677 231.632 425.805 231.153C426.929 230.656 427.945 229.951 428.797 229.075L432.283 232.475C431.009 233.87 429.433 234.967 427.671 235.686C425.936 236.405 424.063 236.746 422.181 236.684C420.49 236.716 418.809 236.413 417.239 235.794C415.662 235.179 414.224 234.262 413.012 233.095C411.806 231.961 410.845 230.6 410.185 229.094C409.525 227.588 409.179 225.966 409.168 224.326V224.353ZM379.3 211.887H397.556V216.798H384.461V221.871H395.909V226.754H384.461V231.989H397.611V236.846H379.3V211.887ZM354.593 216.933H347.016V211.887H367.77V216.933H360.138V236.792H354.647L354.593 216.933ZM443.786 171.062H449.057L461.328 186.47V171.116H466.819V196.021H461.96L449.386 180.183V196.021H443.896L443.786 171.062ZM413.835 171.062H432.091V175.946H419.134V180.992H430.526V185.876H419.134V191.165H432.256V196.021H413.835V171.062ZM381.716 171.116H392.395C398.626 171.116 402.415 174.651 402.415 179.751C402.415 185.552 397.721 188.547 391.846 188.547H387.453V196.021H381.716V171.116ZM392.01 183.717C392.572 183.782 393.142 183.736 393.685 183.582C394.229 183.426 394.734 183.16 395.167 182.8C395.595 182.449 395.941 182.012 396.183 181.519C396.425 181.026 396.556 180.487 396.568 179.94C396.568 177.484 394.783 176.243 391.901 176.243H387.371V183.879L391.928 183.717H392.01ZM342.596 184.689C342.584 181.999 343.391 179.368 344.912 177.132C346.434 174.896 348.6 173.158 351.134 172.142C352.812 171.452 354.613 171.096 356.432 171.096C358.251 171.096 360.052 171.452 361.73 172.142C363.405 172.822 364.926 173.822 366.205 175.083C368.781 177.642 370.239 181.089 370.268 184.689C370.268 188.295 368.81 191.754 366.216 194.305C363.621 196.855 360.101 198.288 356.432 198.288C352.762 198.288 349.243 196.855 346.648 194.305C344.054 191.754 342.596 188.295 342.596 184.689ZM364.311 184.689C364.272 183.663 364.029 182.655 363.597 181.721C363.225 180.716 362.645 179.797 361.895 179.022C361.173 178.263 360.292 177.665 359.314 177.268C358.345 176.85 357.299 176.63 356.24 176.621C355.183 176.626 354.138 176.837 353.165 177.242C352.196 177.642 351.318 178.229 350.585 178.968C349.851 179.751 349.282 180.668 348.91 181.667C348.553 182.644 348.385 183.678 348.416 184.716C348.383 185.756 348.56 186.792 348.937 187.765C349.302 188.773 349.883 189.693 350.639 190.463C351.362 191.222 352.242 191.821 353.22 192.217C354.186 192.645 355.235 192.865 356.295 192.864C357.351 192.859 358.396 192.648 359.369 192.244C360.333 191.84 361.204 191.25 361.93 190.508C362.657 189.766 363.224 188.888 363.597 187.927C363.981 186.956 364.149 185.917 364.091 184.878L364.311 184.689Z" fill="#404041"/>
</g>
<path d="M128 183.988H148.864V265.988H128V183.988ZM148.864 265.988H169.7V286.495H148.864V265.988ZM148.864 163.454H169.7V183.961H148.864V163.454ZM169.7 286.468H190.564V306.975H169.7V286.468ZM169.7 142.975H190.564V163.481H169.7V142.975Z" fill="#25AAE1"/>
<path d="M294.857 183.987H315.831V265.987H294.967L294.857 183.987ZM273.993 163.48H294.857V183.987H273.993V163.48ZM253.129 286.493H273.993V307H253.129V286.493ZM273.993 265.987H294.857V286.493H273.993V265.987ZM253.129 143H273.993V163.48H253.129V143Z" fill="#25AAE1"/>
</g>
<defs>
<clipPath id="clip0_4785_769">
<rect width="544" height="164" fill="white" transform="translate(128 143)"/>
</clipPath>
</defs>
</svg>
