<svg width="747" height="548" viewBox="0 0 747 548" fill="none" xmlns="http://www.w3.org/2000/svg">
<g clip-path="url(#clip0_4903_10837)">
<circle cx="252.485" cy="252.013" r="180.774" fill="#DEF3FC"/>
<path d="M391.565 258.037L362.198 260.597C358.864 260.888 355.998 263.135 355.44 266.435C353.531 277.725 354.086 301.474 398.855 283.283C448.381 263.159 455.009 245.932 455.443 239.084C455.563 237.196 453.849 236.04 451.964 236.204C451.035 236.285 450.161 236.674 449.465 237.295C437.677 247.818 424.84 253.78 409.405 256.482L414.583 245.884C416.024 242.934 413.694 239.54 410.423 239.825C408.847 239.963 407.38 240.688 406.315 241.857L391.565 258.037Z" fill="url(#paint0_linear_4903_10837)"/>
<path d="M401.907 289.443C396.408 280.694 384.658 261.395 381.659 254.196C356.661 256.196 293.629 270.967 259.417 254.196C221.17 235.446 111.677 111.705 130.426 247.446C148.322 377.007 341.412 320.941 401.907 289.443Z" fill="url(#paint1_radial_4903_10837)"/>
<rect x="33.9453" y="115.1" width="50.796" height="49.8" fill="#DEF3FC"/>
<rect x="715.129" y="17.7549" width="31.872" height="31.872" fill="#DEF3FC"/>
<rect y="60.1383" width="31.872" height="31.872" fill="#25AAE1"/>
<rect x="33.0859" y="24.7463" width="15.936" height="15.936" fill="#F1E83B"/>
<rect x="685.422" y="62.2451" width="15.936" height="15.936" fill="#F1E83B"/>
<rect x="677.281" y="498.523" width="32.868" height="32.868" fill="#F1E83B"/>
<rect x="328.445" y="13.7708" width="7.968" height="7.968" fill="#F1E83B"/>
<rect x="485.137" y="142.205" width="7.968" height="7.968" fill="#F1E83B"/>
<rect x="17.9023" y="473.796" width="7.968" height="7.968" fill="#F1E83B"/>
<rect x="17.9023" y="496.831" width="28.884" height="28.884" fill="#DEF3FC"/>
<rect x="702.68" y="107.91" width="24.9" height="24.9" fill="#25AAE1"/>
<rect x="357.441" y="20.8828" width="35.856" height="35.856" fill="#00709E"/>
<rect x="421.727" y="0.523193" width="15.936" height="15.936" fill="#25AAE1"/>
<rect x="731.066" y="531.391" width="15.936" height="15.936" fill="#25AAE1"/>
<circle cx="589.133" cy="252.013" r="102.09" fill="#FCFAC1"/>
<path d="M338.201 367.785L367.568 370.345C370.901 370.636 373.767 372.884 374.325 376.183C376.234 387.473 375.679 411.222 330.91 393.031C281.385 372.907 274.756 355.68 274.322 348.832C274.203 346.944 275.917 345.788 277.802 345.952C278.731 346.033 279.605 346.422 280.301 347.043C292.088 357.566 304.926 363.528 320.36 366.23L315.183 355.632C313.742 352.682 316.072 349.288 319.343 349.573C320.919 349.711 322.385 350.436 323.451 351.605L338.201 367.785Z" fill="url(#paint2_linear_4903_10837)"/>
<path d="M327.858 399.191C333.358 390.442 345.107 371.143 348.107 363.944C373.105 365.944 436.137 380.715 470.348 363.944C508.596 345.194 618.088 221.453 599.339 357.194C581.444 486.755 388.354 430.689 327.858 399.191Z" fill="url(#paint3_radial_4903_10837)"/>
<path d="M284.397 353.581L314.695 235.913L422.153 273.282L387.457 395.507L284.397 353.581Z" fill="url(#paint4_linear_4903_10837)"/>
<path d="M441.336 383.871L474.724 272.12L422.151 273.281L387.455 395.506L441.336 383.871Z" fill="url(#paint5_linear_4903_10837)"/>
<path d="M370.518 236.53L314.697 235.912L422.155 273.281L474.153 272.015L370.518 236.53Z" fill="url(#paint6_linear_4903_10837)"/>
<path fill-rule="evenodd" clip-rule="evenodd" d="M405.478 267.481L406.916 267.982L398.298 298.4L388.561 294.968L379.239 330.056C380.431 330.65 381.015 332.057 380.551 333.34C380.051 334.722 378.526 335.437 377.144 334.938C375.762 334.438 375.047 332.913 375.546 331.531C375.9 330.553 376.768 329.908 377.736 329.793L387.122 294.462L378.204 291.32C377.526 292.257 376.286 292.673 375.144 292.261C373.762 291.761 373.047 290.236 373.547 288.854C374.046 287.472 375.571 286.757 376.953 287.256C378.078 287.663 378.762 288.75 378.707 289.885L388.29 293.261L397.277 296.428L405.478 267.481ZM306.759 266.737L307.139 265.26L350.427 280.25C351.131 279.28 352.431 278.877 353.59 279.352C354.949 279.909 355.6 281.463 355.043 282.823C354.485 284.183 352.931 284.833 351.572 284.276C350.5 283.837 349.869 282.779 349.922 281.685L328.241 274.176L326.357 281.43C327.478 282.09 327.974 283.491 327.466 284.731C326.908 286.09 325.355 286.741 323.995 286.184C322.635 285.626 321.985 284.072 322.542 282.713C322.947 281.724 323.88 281.11 324.881 281.063L326.8 273.677L306.759 266.737ZM290.715 329.047L291.097 327.561L322.372 340.339L324.75 331.341L370.442 349.553C371.158 348.459 372.589 348.033 373.804 348.608C375.132 349.235 375.7 350.821 375.072 352.15C374.444 353.478 372.858 354.047 371.53 353.419C370.57 352.965 370.007 352.011 370.005 351.015L348.587 342.478L346.506 350.166L379.531 363.797C380.242 362.687 381.684 362.25 382.908 362.829C384.236 363.456 384.804 365.042 384.176 366.371C383.548 367.699 381.962 368.267 380.634 367.64C379.684 367.191 379.123 366.252 379.11 365.268L344.688 351.061L347.165 341.912L325.781 333.388L323.399 342.401L290.715 329.047ZM381.284 366.265C381.853 366.534 382.533 366.291 382.802 365.721C383.071 365.152 382.827 364.472 382.258 364.203C381.689 363.934 381.009 364.178 380.74 364.747C380.471 365.316 380.714 365.996 381.284 366.265ZM373.698 351.5C373.429 352.07 372.749 352.313 372.179 352.044C371.61 351.775 371.367 351.095 371.636 350.526C371.905 349.957 372.585 349.713 373.154 349.982C373.723 350.251 373.967 350.931 373.698 351.5ZM352.148 282.869C352.731 283.108 353.397 282.829 353.636 282.246C353.875 281.664 353.596 280.998 353.013 280.759C352.43 280.52 351.764 280.799 351.526 281.382C351.287 281.964 351.565 282.63 352.148 282.869ZM326.059 284.154C325.82 284.737 325.154 285.016 324.571 284.777C323.989 284.538 323.71 283.872 323.949 283.289C324.188 282.707 324.854 282.428 325.436 282.667C326.019 282.905 326.298 283.571 326.059 284.154ZM377.661 333.508C377.069 333.294 376.762 332.64 376.976 332.048C377.19 331.456 377.844 331.149 378.436 331.363C379.028 331.577 379.335 332.231 379.121 332.823C378.907 333.416 378.253 333.722 377.661 333.508ZM374.976 289.371C374.762 289.963 375.069 290.617 375.661 290.831C376.253 291.045 376.907 290.738 377.121 290.146C377.335 289.554 377.029 288.9 376.436 288.686C375.844 288.472 375.191 288.779 374.976 289.371Z" fill="#008AC2"/>
<path d="M585.138 300.141C569.839 297.875 527.294 359.637 507.934 390.802C498.786 447.534 549.727 496.76 589.546 496.76C649.233 496.76 624.513 436.881 619.097 375.769C614.139 319.815 604.262 302.974 585.138 300.141Z" fill="url(#paint7_linear_4903_10837)"/>
<path fill-rule="evenodd" clip-rule="evenodd" d="M581.362 268.896L581.362 268.894C568.625 267.505 564.774 262.151 564.441 259.647L579.166 202.346C590.521 197.09 620.014 195.663 625.156 222.674C628.115 238.217 619.532 247.424 613.517 253.875C611.41 256.135 609.618 258.057 608.748 259.795L613.007 291.913L616.524 324.792L569.376 323.55L561.658 312.676L578.995 288.463L581.17 270.48L586.706 269.176L581.362 268.896Z" fill="url(#paint8_linear_4903_10837)"/>
<path fill-rule="evenodd" clip-rule="evenodd" d="M574.386 184.6L565.124 214.422L584.449 220.424L587.796 209.647L610.624 216.372L602.08 247.447L624.486 290.049L642.396 280.629L623.712 245.103L635.403 202.577L574.386 184.6Z" fill="url(#paint9_linear_4903_10837)"/>
<path d="M354.705 370.75L384.072 373.31C387.405 373.601 390.271 375.848 390.829 379.148C392.738 390.437 392.183 414.187 347.414 395.996C297.889 375.872 291.26 358.645 290.826 351.797C290.707 349.909 292.421 348.752 294.306 348.917C295.235 348.998 296.109 349.387 296.804 350.008C308.592 360.531 321.43 366.493 336.864 369.195L331.687 358.597C330.246 355.647 332.576 352.253 335.847 352.538C337.423 352.675 338.889 353.401 339.955 354.57L354.705 370.75Z" fill="url(#paint10_linear_4903_10837)"/>
<path d="M344.362 402.156C349.862 393.407 361.611 374.108 364.611 366.909C389.609 368.908 452.641 383.679 486.852 366.909C525.1 348.159 634.592 224.418 615.843 360.159C597.948 489.72 404.858 433.654 344.362 402.156Z" fill="url(#paint11_radial_4903_10837)"/>
<path d="M221.835 281.052L236.124 369.667C238.164 384.077 214.894 389.704 187.128 393.67C152.422 398.628 127.501 398.187 107.163 392.417C86.7323 386.621 94.3429 320.008 99.3009 264.054C104.259 208.101 125.508 193.225 144.631 190.392C159.93 188.125 202.475 249.888 221.835 281.052Z" fill="url(#paint12_linear_4903_10837)"/>
<path fill-rule="evenodd" clip-rule="evenodd" d="M151.849 162.822L151.849 162.821C164.586 161.432 168.437 156.077 168.77 153.574L154.044 96.2725C142.69 91.0165 113.197 89.5895 108.055 116.601C105.096 132.144 113.679 141.35 119.694 147.802C121.801 150.062 123.593 151.984 124.463 153.721L120.204 185.84L116.687 218.719L163.835 217.477L171.553 206.603L154.216 182.39L152.041 164.407L146.505 163.103L151.849 162.822Z" fill="url(#paint13_linear_4903_10837)"/>
<path fill-rule="evenodd" clip-rule="evenodd" d="M152.076 148.13L148.423 135.826L167.822 130.067L180.039 171.218L118.978 165.203L120.962 145.065L152.076 148.13Z" fill="url(#paint14_linear_4903_10837)"/>
<path d="M290.561 280.752L267.678 161.42L380.8 149.293L401.654 274.623L290.561 280.752Z" fill="url(#paint15_linear_4903_10837)"/>
<path d="M445.4 241.082L427.839 125.779L380.802 149.292L401.656 274.623L445.4 241.082Z" fill="url(#paint16_linear_4903_10837)"/>
<path d="M318.407 138.128L267.674 161.42L380.797 149.292L427.268 125.93L318.407 138.128Z" fill="url(#paint17_linear_4903_10837)"/>
<path fill-rule="evenodd" clip-rule="evenodd" d="M363.243 151.174L364.757 151.012L369.962 182.195L359.692 183.254L366.256 218.959C367.588 218.987 368.718 220.01 368.847 221.368C368.985 222.831 367.912 224.13 366.449 224.268C364.986 224.407 363.688 223.334 363.549 221.871C363.451 220.835 363.96 219.882 364.785 219.365L358.175 183.41L348.765 184.381C348.553 185.518 347.61 186.424 346.401 186.539C344.938 186.678 343.64 185.604 343.501 184.142C343.362 182.679 344.435 181.38 345.898 181.242C347.089 181.129 348.171 181.819 348.607 182.869L358.718 181.826L368.196 180.849L363.243 151.174ZM273.672 192.68L273.385 191.182L318.923 186.24C319.144 185.062 320.148 184.143 321.398 184.078C322.865 184.001 324.117 185.128 324.194 186.595C324.272 188.062 323.144 189.314 321.677 189.392C320.521 189.452 319.498 188.765 319.079 187.753L296.27 190.228L297.666 197.591C298.963 197.708 300.01 198.763 300.08 200.102C300.157 201.569 299.03 202.821 297.563 202.898C296.096 202.975 294.844 201.848 294.766 200.381C294.71 199.314 295.291 198.361 296.175 197.891L294.753 190.393L273.672 192.68ZM285.79 255.873L285.501 254.366L319.233 252.556L317.539 243.404L366.633 240.346C366.812 239.052 367.924 238.055 369.268 238.055C370.737 238.055 371.929 239.246 371.929 240.716C371.929 242.185 370.737 243.376 369.268 243.376C368.206 243.376 367.29 242.755 366.863 241.855L343.849 243.289L345.252 251.129L380.935 249.342C381.103 248.034 382.22 247.024 383.574 247.024C385.043 247.024 386.234 248.215 386.234 249.685C386.234 251.154 385.043 252.345 383.574 252.345C382.523 252.345 381.615 251.736 381.182 250.852L343.992 252.715L342.322 243.384L319.346 244.815L321.043 253.981L285.79 255.873ZM383.574 250.825C384.204 250.825 384.714 250.314 384.714 249.685C384.714 249.055 384.204 248.544 383.574 248.544C382.944 248.544 382.433 249.055 382.433 249.685C382.433 250.314 382.944 250.825 383.574 250.825ZM370.408 240.716C370.408 241.345 369.898 241.856 369.268 241.856C368.638 241.856 368.128 241.345 368.128 240.716C368.128 240.086 368.638 239.575 369.268 239.575C369.898 239.575 370.408 240.086 370.408 240.716ZM321.597 187.873C322.226 187.84 322.709 187.304 322.676 186.675C322.643 186.046 322.107 185.563 321.478 185.596C320.849 185.629 320.366 186.166 320.399 186.794C320.432 187.423 320.968 187.906 321.597 187.873ZM298.562 200.181C298.595 200.81 298.112 201.347 297.483 201.38C296.854 201.413 296.318 200.93 296.285 200.301C296.252 199.672 296.735 199.136 297.364 199.102C297.992 199.069 298.529 199.552 298.562 200.181ZM366.306 222.755C365.679 222.814 365.122 222.354 365.063 221.727C365.003 221.1 365.463 220.544 366.09 220.484C366.717 220.425 367.274 220.885 367.333 221.512C367.393 222.139 366.933 222.695 366.306 222.755ZM345.014 183.998C345.074 184.625 345.63 185.085 346.257 185.025C346.884 184.966 347.344 184.41 347.285 183.783C347.225 183.156 346.669 182.696 346.042 182.755C345.415 182.815 344.955 183.371 345.014 183.998Z" fill="#008AC2"/>
<path d="M375.061 261.004L345.694 263.564C342.36 263.855 339.495 266.102 338.937 269.401C337.027 280.691 337.583 304.44 382.351 286.249C431.877 266.126 438.505 248.898 438.939 242.051C439.059 240.163 437.345 239.006 435.46 239.17C434.531 239.251 433.657 239.641 432.961 240.262C421.174 250.785 408.336 256.746 392.901 259.449L398.079 248.851C399.52 245.901 397.19 242.507 393.919 242.792C392.343 242.929 390.876 243.654 389.811 244.823L375.061 261.004Z" fill="url(#paint18_linear_4903_10837)"/>
<path d="M385.403 292.41C379.904 283.66 368.155 264.362 365.155 257.162C340.157 259.162 277.125 273.933 242.913 257.162C204.666 238.413 95.1734 114.672 113.923 250.413C131.818 379.973 324.908 323.908 385.403 292.41Z" fill="url(#paint19_radial_4903_10837)"/>
<path d="M241.85 447.255L74.6971 512.813L24.5931 387.181L194.245 323.066L241.85 447.255Z" fill="url(#paint20_linear_4903_10837)"/>
<path d="M194.245 323.065L241.85 447.254L285.915 466.42L240.235 349.617L194.245 323.065Z" fill="url(#paint21_linear_4903_10837)"/>
<path d="M241.848 447.255L74.6953 512.813L130.193 527.514L285.913 466.421L241.848 447.255Z" fill="url(#paint22_linear_4903_10837)"/>
<path fill-rule="evenodd" clip-rule="evenodd" d="M167.397 404.018C166.553 403.418 165.383 403.615 164.783 404.46C164.182 405.304 164.38 406.475 165.224 407.075C166.067 407.675 167.238 407.478 167.838 406.633C168.438 405.789 168.241 404.618 167.397 404.018ZM169.012 401.746C166.915 400.253 164.004 400.745 162.512 402.844C161.832 403.801 161.564 404.927 161.672 406.01L111.638 425.817L99.9372 395.365L99.935 395.359L87.7829 363.305L85.1778 364.295L96.837 395.048L76.5128 402.713C76.2785 402.446 76.0096 402.201 75.7075 401.986C73.6097 400.494 70.6993 400.986 69.207 403.085C67.7147 405.184 68.2055 408.095 70.3033 409.588C72.401 411.08 75.3114 410.588 76.8037 408.489C77.4958 407.516 77.7614 406.367 77.6379 405.267L97.8307 397.652L110.046 429.444L162.763 408.575C163.007 408.86 163.289 409.12 163.608 409.347C165.706 410.839 168.616 410.348 170.109 408.249C171.601 406.15 171.11 403.238 169.012 401.746ZM71.4776 404.7C72.0779 403.856 73.2484 403.658 74.0922 404.258C74.936 404.859 75.1334 406.03 74.5331 406.874C73.9329 407.718 72.7623 407.916 71.9185 407.316C71.0748 406.715 70.8774 405.544 71.4776 404.7Z" fill="#008AC2"/>
<path d="M378.361 441.004L368.815 487.438L428.045 499.944L437.754 453.267L378.361 441.004Z" fill="url(#paint23_linear_4903_10837)"/>
<path d="M378.36 441.004L368.814 487.438L355.661 481.063L363.963 441.721L378.36 441.004Z" fill="url(#paint24_linear_4903_10837)"/>
<path fill-rule="evenodd" clip-rule="evenodd" d="M385.644 475.94C385.756 475.734 385.68 475.477 385.474 475.365C385.268 475.254 385.011 475.33 384.899 475.536C384.787 475.742 384.864 475.999 385.069 476.111C385.275 476.223 385.533 476.146 385.644 475.94ZM386.162 476.221C386.169 476.208 386.175 476.196 386.182 476.183L408.656 480.888L410.419 472.087L432.835 476.893L432.958 476.318L421.889 473.944L423.706 464.889L403.496 460.646C403.449 460.345 403.267 460.068 402.979 459.912C402.487 459.645 401.872 459.827 401.605 460.319C401.339 460.81 401.521 461.425 402.012 461.692C402.504 461.959 403.119 461.776 403.386 461.285C403.395 461.267 403.404 461.249 403.413 461.23L423.014 465.346L421.313 473.821L409.96 471.386L408.196 480.19L386.275 475.601C386.233 475.292 386.049 475.008 385.755 474.848C385.263 474.581 384.648 474.763 384.382 475.255C384.115 475.747 384.297 476.362 384.789 476.628C385.28 476.895 385.895 476.713 386.162 476.221ZM402.698 460.429C402.904 460.541 402.98 460.798 402.868 461.004C402.756 461.21 402.499 461.286 402.293 461.174C402.087 461.063 402.011 460.805 402.123 460.599C402.234 460.394 402.492 460.317 402.698 460.429Z" fill="#008AC2"/>
<path d="M526.309 127.025L552.551 66.1117L474.945 32.1877L448.411 93.3872L526.309 127.025Z" fill="url(#paint25_linear_4903_10837)"/>
<path d="M526.31 127.025L552.552 66.112L568.765 78.574L546.238 130.124L526.31 127.025Z" fill="url(#paint26_linear_4903_10837)"/>
<path fill-rule="evenodd" clip-rule="evenodd" d="M526.233 77.0938C526.022 77.3442 526.054 77.7185 526.304 77.9299C526.554 78.1413 526.929 78.1097 527.14 77.8593C527.351 77.6089 527.32 77.2346 527.07 77.0232C526.819 76.8119 526.445 76.8435 526.233 77.0938ZM525.604 76.5625C525.591 76.5778 525.579 76.5934 525.566 76.6091L496.108 63.7915L491.197 75.3502L461.848 62.4112L461.516 63.1649L476.01 69.5547L470.953 81.4458L497.438 92.9872C497.417 93.4135 497.588 93.8444 497.939 94.141C498.537 94.6458 499.431 94.5703 499.936 93.9724C500.441 93.3744 500.365 92.4804 499.767 91.9756C499.17 91.4707 498.276 91.5462 497.771 92.1442C497.752 92.166 497.735 92.1881 497.718 92.2106L472.031 81.0168L476.763 69.887L491.629 76.4407L496.541 64.8783L525.273 77.3798C525.243 77.8144 525.414 78.2567 525.772 78.5593C526.37 79.0641 527.264 78.9886 527.769 78.3906C528.274 77.7927 528.199 76.8987 527.601 76.3938C527.003 75.889 526.109 75.9645 525.604 76.5625ZM498.47 93.5116C498.22 93.3002 498.188 92.9259 498.4 92.6755C498.611 92.4252 498.986 92.3936 499.236 92.6049C499.486 92.8163 499.518 93.1906 499.306 93.441C499.095 93.6914 498.721 93.723 498.47 93.5116Z" fill="#008AC2"/>
<rect x="656.34" y="310.986" width="15.936" height="15.936" fill="#25AAE1"/>
</g>
<defs>
<linearGradient id="paint0_linear_4903_10837" x1="416.804" y1="239.269" x2="420.503" y2="281.695" gradientUnits="userSpaceOnUse">
<stop stop-color="#7AD5FA"/>
<stop offset="1" stop-color="#028BC3"/>
</linearGradient>
<radialGradient id="paint1_radial_4903_10837" cx="0" cy="0" r="1" gradientUnits="userSpaceOnUse" gradientTransform="translate(189.463 325.775) rotate(-52.9864) scale(145.471 1102.44)">
<stop stop-color="#E7D905"/>
<stop offset="1" stop-color="#F8F484"/>
</radialGradient>
<linearGradient id="paint2_linear_4903_10837" x1="312.961" y1="349.017" x2="309.263" y2="391.443" gradientUnits="userSpaceOnUse">
<stop stop-color="#B8E7FB"/>
<stop offset="1" stop-color="#7BD5FA"/>
</linearGradient>
<radialGradient id="paint3_radial_4903_10837" cx="0" cy="0" r="1" gradientUnits="userSpaceOnUse" gradientTransform="translate(540.302 435.523) rotate(-127.014) scale(145.471 1102.44)">
<stop stop-color="#E7D905"/>
<stop offset="1" stop-color="#F8F484"/>
</radialGradient>
<linearGradient id="paint4_linear_4903_10837" x1="280.316" y1="376.046" x2="407.232" y2="392.801" gradientUnits="userSpaceOnUse">
<stop stop-color="#B8E7FB"/>
<stop offset="1" stop-color="#25AAE1"/>
</linearGradient>
<linearGradient id="paint5_linear_4903_10837" x1="387.455" y1="395.506" x2="454.133" y2="405.778" gradientUnits="userSpaceOnUse">
<stop stop-color="#008AC2"/>
<stop offset="1" stop-color="#035C81"/>
</linearGradient>
<linearGradient id="paint6_linear_4903_10837" x1="311.558" y1="253.193" x2="472.655" y2="227.8" gradientUnits="userSpaceOnUse">
<stop stop-color="#F1E83B"/>
<stop offset="1" stop-color="#FEFCE8"/>
</linearGradient>
<linearGradient id="paint7_linear_4903_10837" x1="623.704" y1="526.81" x2="621.653" y2="367.45" gradientUnits="userSpaceOnUse">
<stop stop-color="#ECEA69"/>
<stop offset="1" stop-color="#FAFAD4"/>
</linearGradient>
<linearGradient id="paint8_linear_4903_10837" x1="597.476" y1="199.352" x2="590.9" y2="324.679" gradientUnits="userSpaceOnUse">
<stop stop-color="#B8E7FB"/>
<stop offset="1" stop-color="#7BD5FA"/>
</linearGradient>
<linearGradient id="paint9_linear_4903_10837" x1="641.854" y1="290.96" x2="557.068" y2="282.657" gradientUnits="userSpaceOnUse">
<stop stop-color="#008AC2"/>
<stop offset="1" stop-color="#035C81"/>
</linearGradient>
<linearGradient id="paint10_linear_4903_10837" x1="329.465" y1="351.982" x2="325.767" y2="394.408" gradientUnits="userSpaceOnUse">
<stop stop-color="#B8E7FB"/>
<stop offset="1" stop-color="#7BD5FA"/>
</linearGradient>
<radialGradient id="paint11_radial_4903_10837" cx="0" cy="0" r="1" gradientUnits="userSpaceOnUse" gradientTransform="translate(539.548 441.667) rotate(-104.961) scale(114.806 492.308)">
<stop stop-color="#EAE85D"/>
<stop offset="0.713542" stop-color="#FAF9D3"/>
</radialGradient>
<linearGradient id="paint12_linear_4903_10837" x1="106.066" y1="417.06" x2="108.116" y2="257.7" gradientUnits="userSpaceOnUse">
<stop stop-color="#ECEA69"/>
<stop offset="1" stop-color="#FAFAD4"/>
</linearGradient>
<linearGradient id="paint13_linear_4903_10837" x1="135.735" y1="93.2787" x2="142.311" y2="218.606" gradientUnits="userSpaceOnUse">
<stop stop-color="#7BD5FA"/>
<stop offset="1" stop-color="#008AC2"/>
</linearGradient>
<linearGradient id="paint14_linear_4903_10837" x1="180.039" y1="171.218" x2="116.138" y2="169.231" gradientUnits="userSpaceOnUse">
<stop stop-color="#008AC2"/>
<stop offset="1" stop-color="#035C81"/>
</linearGradient>
<linearGradient id="paint15_linear_4903_10837" x1="296.471" y1="302.807" x2="418.377" y2="263.728" gradientUnits="userSpaceOnUse">
<stop stop-color="#B8E7FB"/>
<stop offset="1" stop-color="#25AAE1"/>
</linearGradient>
<linearGradient id="paint16_linear_4903_10837" x1="401.656" y1="274.623" x2="466.331" y2="255.421" gradientUnits="userSpaceOnUse">
<stop stop-color="#008AC2"/>
<stop offset="1" stop-color="#035C81"/>
</linearGradient>
<linearGradient id="paint17_linear_4903_10837" x1="272.22" y1="178.385" x2="407.022" y2="86.5938" gradientUnits="userSpaceOnUse">
<stop stop-color="#F1E83B"/>
<stop offset="1" stop-color="#FEFCE8"/>
</linearGradient>
<linearGradient id="paint18_linear_4903_10837" x1="400.3" y1="242.235" x2="403.999" y2="284.661" gradientUnits="userSpaceOnUse">
<stop stop-color="#7AD5FA"/>
<stop offset="1" stop-color="#028BC3"/>
</linearGradient>
<radialGradient id="paint19_radial_4903_10837" cx="0" cy="0" r="1" gradientUnits="userSpaceOnUse" gradientTransform="translate(190.218 331.921) rotate(-75.0386) scale(114.806 492.308)">
<stop stop-color="#EAE85D"/>
<stop offset="0.713542" stop-color="#FAF9D3"/>
</radialGradient>
<linearGradient id="paint20_linear_4903_10837" x1="94.7688" y1="265.633" x2="287.531" y2="391.816" gradientUnits="userSpaceOnUse">
<stop stop-color="#B8E7FB"/>
<stop offset="1" stop-color="#25AAE1"/>
</linearGradient>
<linearGradient id="paint21_linear_4903_10837" x1="194.245" y1="323.065" x2="322.92" y2="416.313" gradientUnits="userSpaceOnUse">
<stop stop-color="#008AC2"/>
<stop offset="1" stop-color="#035C81"/>
</linearGradient>
<linearGradient id="paint22_linear_4903_10837" x1="147.588" y1="386.559" x2="287.991" y2="479.878" gradientUnits="userSpaceOnUse">
<stop stop-color="#F1E83B"/>
<stop offset="1" stop-color="#FEFCE8"/>
</linearGradient>
<linearGradient id="paint23_linear_4903_10837" x1="452.677" y1="463.298" x2="385.107" y2="423.888" gradientUnits="userSpaceOnUse">
<stop stop-color="#B8E7FB"/>
<stop offset="1" stop-color="#25AAE1"/>
</linearGradient>
<linearGradient id="paint24_linear_4903_10837" x1="393.283" y1="451.034" x2="366.756" y2="434.595" gradientUnits="userSpaceOnUse">
<stop stop-color="#008AC2"/>
<stop offset="1" stop-color="#035C81"/>
</linearGradient>
<linearGradient id="paint25_linear_4903_10837" x1="430.809" y1="75.4146" x2="512.215" y2="148.563" gradientUnits="userSpaceOnUse">
<stop stop-color="#B8E7FB"/>
<stop offset="1" stop-color="#25AAE1"/>
</linearGradient>
<linearGradient id="paint26_linear_4903_10837" x1="508.708" y1="109.053" x2="540.393" y2="139.095" gradientUnits="userSpaceOnUse">
<stop stop-color="#008AC2"/>
<stop offset="1" stop-color="#035C81"/>
</linearGradient>
<clipPath id="clip0_4903_10837">
<rect width="747" height="546.804" fill="white" transform="translate(0 0.523193)"/>
</clipPath>
</defs>
</svg>
