<svg width="750" height="101" viewBox="0 0 750 101" fill="none" xmlns="http://www.w3.org/2000/svg">
<path d="M144.6 30.7151C149.177 30.7151 153.881 31.605 158.077 33.3849C175.749 40.8859 184.012 61.1005 176.511 78.7723C172.952 87.0362 166.341 93.6472 158.077 97.207C149.432 100.767 139.769 100.767 131.124 97.207C127.056 95.4271 123.242 93.0115 120.063 89.8332C116.885 86.6548 114.342 82.9678 112.689 78.7723C109.13 70.1271 109.13 60.4648 112.689 51.8196C116.249 43.5558 122.86 36.9447 131.124 33.3849C135.32 31.605 139.896 30.7151 144.6 30.7151ZM144.6 86.4005C147.397 86.4005 150.194 85.8919 152.737 84.7477C155.28 83.7306 157.568 82.205 159.475 80.1709C165.451 74.0684 167.231 64.9146 163.925 57.0322C161.764 51.9468 157.823 47.8784 152.737 45.7171C147.525 43.5558 141.676 43.5558 136.464 45.7171C133.921 46.7342 131.633 48.2598 129.726 50.1668C127.818 52.0739 126.293 54.3623 125.149 56.905C122.86 62.1176 122.86 68.093 125.149 73.3055C126.293 75.8482 127.818 78.1367 129.726 80.0437C131.633 81.9507 133.921 83.4764 136.464 84.6206C139.006 85.892 141.803 86.4005 144.6 86.4005Z" fill="white"/>
<path d="M576.423 30.585C581 30.585 585.704 31.4749 589.899 33.2548C607.571 40.7558 615.835 60.9704 608.334 78.6422C604.774 86.906 598.163 93.5171 589.899 97.0769C581.254 100.637 571.592 100.637 562.946 97.0769C558.878 95.297 555.064 92.8814 551.885 89.703C548.707 86.5246 546.164 82.8377 544.512 78.6422C540.952 69.997 540.952 60.3347 544.512 51.6894C548.071 43.4256 554.682 36.8146 562.946 33.2548C567.142 31.4749 571.719 30.585 576.423 30.585ZM576.423 86.2703C579.22 86.2703 582.017 85.7618 584.559 84.6176C587.102 83.6005 589.391 82.0749 591.298 80.0407C597.273 73.9382 599.053 64.7845 595.747 56.9021C593.586 51.8166 589.645 47.7483 584.559 45.5869C579.347 43.4256 573.499 43.4256 568.286 45.5869C565.743 46.604 563.455 48.1297 561.548 50.0367C559.641 51.9437 558.115 54.2322 556.971 56.7749C554.682 61.9874 554.682 67.9628 556.971 73.1754C558.115 75.7181 559.641 78.0065 561.548 79.9136C563.455 81.8206 565.743 83.3463 568.286 84.4905C570.829 85.7619 573.626 86.2703 576.423 86.2703Z" fill="white" fill-opacity="0.05"/>
<path d="M715.319 30.585C719.896 30.585 724.6 31.4749 728.796 33.2548C746.467 40.7558 754.731 60.9704 747.23 78.6422C743.67 86.906 737.059 93.5171 728.796 97.0769C720.15 100.637 710.488 100.637 701.843 97.0769C697.774 95.297 693.96 92.8814 690.782 89.703C687.604 86.5246 685.061 82.8377 683.408 78.6422C679.848 69.997 679.848 60.3347 683.408 51.6894C686.968 43.4256 693.579 36.8146 701.843 33.2548C706.038 31.4749 710.615 30.585 715.319 30.585ZM715.319 86.2703C718.116 86.2703 720.913 85.7618 723.456 84.6176C725.999 83.6005 728.287 82.0749 730.194 80.0407C736.169 73.9382 737.949 64.7845 734.644 56.9021C732.482 51.8166 728.541 47.7483 723.456 45.5869C718.243 43.4256 712.395 43.4256 707.183 45.5869C704.64 46.604 702.351 48.1297 700.444 50.0367C698.537 51.9437 697.012 54.2322 695.867 56.7749C693.579 61.9874 693.579 67.9628 695.867 73.1754C697.012 75.7181 698.537 78.0065 700.444 79.9136C702.351 81.8206 704.64 83.3463 707.183 84.4905C709.725 85.7619 712.522 86.2703 715.319 86.2703Z" fill="white" fill-opacity="0.05"/>
<path d="M62.0887 30.585C66.6656 30.585 71.3696 31.4749 75.5651 33.2548C93.2369 40.7558 101.501 60.9704 93.9998 78.6422C90.44 86.906 83.8289 93.5171 75.5651 97.0769C66.9199 100.637 57.2576 100.637 48.6123 97.0769C44.544 95.297 40.7299 92.8814 37.5515 89.703C34.3731 86.5246 31.8304 82.8377 30.1777 78.6422C26.6179 69.997 26.6179 60.3347 30.1777 51.6894C33.7375 43.4256 40.3485 36.8146 48.6123 33.2548C52.8078 31.4749 57.3847 30.585 62.0887 30.585ZM62.0887 86.2703C64.8857 86.2703 67.6827 85.7618 70.2254 84.6176C72.7681 83.6005 75.0565 82.0749 76.9636 80.0407C82.9389 73.9382 84.7188 64.7845 81.4133 56.9021C79.252 51.8166 75.3108 47.7483 70.2254 45.5869C65.0128 43.4256 59.1646 43.4256 53.952 45.5869C51.4093 46.604 49.1208 48.1297 47.2138 50.0367C45.3068 51.9437 43.7812 54.2322 42.6369 56.7749C40.3485 61.9874 40.3485 67.9628 42.6369 73.1754C43.7812 75.7181 45.3068 78.0065 47.2138 79.9136C49.1208 81.8206 51.4093 83.3463 53.952 84.4905C56.4948 85.7619 59.2917 86.2703 62.0887 86.2703Z" fill="white" fill-opacity="0.05"/>
<path d="M222.661 64.1518C221.899 65.2961 221.899 66.8217 222.661 68.0931L241.859 96.6986C243.003 98.4785 242.24 99.877 240.206 99.877H229.527C228.637 99.877 227.747 99.3685 227.111 98.6056L214.652 80.0438C214.27 79.281 213.38 79.0267 212.618 79.4081C212.363 79.5352 212.109 79.7895 211.982 80.0438L199.523 98.6056C198.887 99.3685 198.124 99.877 197.107 99.877H186.428C184.266 99.877 183.504 98.4785 184.775 96.6986L203.972 68.0931C204.735 66.9489 204.735 65.4232 203.972 64.1518L183.885 34.0207C182.741 32.2408 183.504 30.8423 185.538 30.8423H196.217C197.107 30.8423 197.997 31.3508 198.633 32.1136L211.982 52.074C212.363 52.8368 213.253 53.091 213.889 52.7096C214.143 52.5825 214.398 52.3282 214.525 52.074L228.001 32.1136C228.51 31.3508 229.4 30.8423 230.417 30.8423H241.096C243.257 30.8423 244.02 32.2408 242.749 34.0207L222.661 64.1518Z" fill="white"/>
<path d="M268.937 30.7151C270.59 30.7151 271.861 31.9864 271.861 33.6392V97.0799C271.861 98.7327 270.59 100.004 268.937 100.004H261.182C259.529 100.004 258.258 98.7327 258.258 97.0799V33.6392C258.258 31.9864 259.529 30.7151 261.182 30.7151H268.937Z" fill="white"/>
<path d="M636.125 30.585C637.777 30.585 639.049 31.8563 639.049 33.5091V96.9498C639.049 98.6025 637.777 99.8739 636.125 99.8739H628.369C626.717 99.8739 625.445 98.6025 625.445 96.9498V33.5091C625.445 31.8563 626.717 30.585 628.369 30.585H636.125Z" fill="white" fill-opacity="0.05"/>
<path d="M10.6793 30.585C12.3321 30.585 13.6035 31.8563 13.6035 33.5091V96.9498C13.6035 98.6025 12.3321 99.8739 10.6793 99.8739H2.9241C1.27134 99.8739 0 98.6025 0 96.9498V33.5091C0 31.8563 1.27134 30.585 2.9241 30.585H10.6793Z" fill="white" fill-opacity="0.05"/>
<path d="M663.914 30.585C665.566 30.585 666.838 31.8563 666.838 33.5091V96.9498C666.838 98.6025 665.566 99.8739 663.914 99.8739H656.158C654.506 99.8739 653.234 98.6025 653.234 96.9498V33.5091C653.234 31.8563 654.506 30.585 656.158 30.585H663.914Z" fill="white" fill-opacity="0.05"/>
<path d="M355.138 65.2962C355.138 65.2962 355.011 66.4404 354.884 67.7117C354.503 71.5258 353.74 75.2128 352.469 78.8997C348.909 87.1635 342.298 93.7746 334.034 97.3344C325.389 100.894 315.726 100.894 307.081 97.3344C298.817 93.9017 292.206 87.2907 288.646 78.8997C285.087 70.2545 285.087 60.5922 288.646 51.9469C292.206 43.6831 298.69 37.0721 307.081 33.5123C311.404 31.7324 315.981 30.8424 320.558 30.8424C324.372 30.8424 328.313 31.4781 331.873 32.7494C334.542 33.8936 337.212 35.165 339.628 36.8178C340.645 37.5806 341.535 37.0721 341.535 35.8007V3.25402C341.535 1.60125 342.806 0.329834 344.459 0.329834H352.214C353.867 0.329834 355.138 1.60125 355.138 3.25402V65.2962ZM320.558 86.4007C323.354 86.4007 326.151 85.8921 328.694 84.7479C333.78 82.5866 337.848 78.5182 339.882 73.4328C340.645 71.5258 341.026 69.6188 341.281 67.5846C341.408 66.3133 341.535 65.169 341.535 65.169C341.535 65.169 341.408 64.0248 341.281 62.7535C341.026 60.7193 340.645 58.8123 339.882 57.0324C338.865 54.4897 337.339 52.3284 335.432 50.2942C333.525 48.3872 331.237 46.8615 328.694 45.8445C320.812 42.5389 311.658 44.3188 305.683 50.2942C303.776 52.2012 302.25 54.4897 301.106 57.0324C298.817 62.2449 298.817 68.2203 301.106 73.4328C302.25 75.9755 303.776 78.264 305.683 80.1711C307.59 82.0781 309.878 83.6037 312.421 84.7479C314.964 85.8921 317.761 86.4007 320.558 86.4007Z" fill="white"/>
<path d="M379.926 30.7151C381.578 30.7151 382.85 31.9864 382.85 33.6392V97.0799C382.85 98.7327 381.578 100.004 379.926 100.004H372.17C370.517 100.004 369.246 98.7327 369.246 97.0799V33.6392C369.246 31.9864 370.517 30.7151 372.17 30.7151H379.926Z" fill="white"/>
<path d="M525.498 56.3962C524.227 51.9464 522.065 47.6238 519.141 44.064C515.963 39.9956 512.022 36.563 507.318 34.2745C502.614 31.859 497.274 30.5876 491.934 30.7147C487.357 30.7147 482.653 31.6047 478.458 33.3846C470.194 36.9444 463.583 43.5554 460.15 51.8192C456.591 60.4645 456.591 70.1268 460.15 78.772C463.71 87.0358 470.321 93.6469 478.585 97.2067C482.908 98.9866 487.484 99.8766 492.061 99.8766C497.401 99.8766 502.614 98.7323 507.445 96.3167C510.877 94.2825 514.056 91.867 516.98 89.07C518.378 87.6715 519.65 86.0187 520.921 84.4931V84.366L521.684 83.2217C522.447 82.0775 522.447 81.9504 522.447 81.9504C523.082 80.5519 522.065 79.5349 520.286 79.5349H509.225C507.826 79.5349 506.682 80.5519 505.283 81.6961C503.885 82.8403 502.359 83.8575 500.707 84.6203C498.037 85.8916 495.113 86.5273 492.061 86.5273C489.646 86.5273 487.103 86.1459 484.815 85.256C482.526 84.4931 480.492 83.2218 478.712 81.8233C476.932 80.2977 475.279 78.5177 474.008 76.4836C473.245 75.3394 472.737 74.1951 472.355 73.0509C471.847 71.9067 472.482 70.5082 473.627 69.9997C474.008 69.8726 474.262 69.8725 474.644 69.8725H522.955C524.1 69.8725 525.117 69.364 525.879 68.6012C526.388 67.9655 526.769 67.2026 526.642 66.4398V65.4228C526.642 62.2444 526.261 59.3203 525.498 56.3962ZM508.589 56.269H476.296C474.517 56.269 473.754 54.9977 474.771 53.4721C476.297 51.1836 478.331 49.1494 480.619 47.4967C484.052 45.3354 487.993 44.1911 492.061 44.1911H492.697C496.765 44.1911 500.707 45.3354 504.139 47.4967C506.428 49.1494 508.462 51.1836 509.987 53.4721C511.005 54.9977 510.369 56.269 508.589 56.269Z" fill="white"/>
<path d="M451.762 86.7818H424.173C422.012 86.7818 421.122 85.2562 422.266 83.4763L433.454 65.2959L445.278 45.9713C445.913 44.827 447.058 43.0471 447.693 41.9029L451.635 35.5461C453.287 32.7491 452.016 30.4607 448.837 30.4607H399C397.348 30.4607 396.076 31.732 396.076 33.3848V40.7587C396.076 42.4115 397.348 43.6828 399 43.6828H426.589C428.75 43.6828 429.64 45.2084 428.496 46.9883L417.308 65.1687L405.484 84.4933L403.069 88.5617L399.127 94.9185C397.475 97.7155 398.746 100.004 401.924 100.004H451.762C453.414 100.004 454.686 98.7326 454.686 97.0798V89.7059C454.686 88.0532 453.414 86.7818 451.762 86.7818Z" fill="white"/>
</svg>
