<svg width="800" height="450" viewBox="0 0 800 450" fill="none" xmlns="http://www.w3.org/2000/svg">
<rect width="800" height="450" fill="#8540B8"/>
<path d="M245.237 274C242.637 274 240.361 272.236 239.711 269.83C238.899 266.783 240.686 263.735 243.774 262.933C250.438 261.169 256.614 257.801 261.489 252.989C263.765 250.743 267.34 250.743 269.616 252.989C271.891 255.234 271.891 258.763 269.616 261.008C263.277 267.264 255.476 271.594 246.7 273.84C246.212 273.84 245.725 274 245.237 274ZM221.834 273.84C221.346 273.84 220.859 273.84 220.371 273.679C211.757 271.434 203.956 266.943 197.618 260.688C195.342 258.442 195.342 254.914 197.618 252.668C199.893 250.423 203.469 250.423 205.744 252.668C210.62 257.48 216.795 261.008 223.459 262.773C226.547 263.575 228.335 266.622 227.522 269.67C226.709 272.236 224.434 273.84 221.834 273.84ZM277.254 242.563C276.767 242.563 276.279 242.563 275.791 242.403C272.704 241.601 270.916 238.553 271.728 235.506C272.704 232.138 273.191 228.769 273.191 225.401C273.191 222.033 272.704 218.665 271.891 215.457C271.078 212.409 272.866 209.362 275.954 208.56C279.042 207.758 282.13 209.522 282.942 212.57V212.73C284.08 216.9 284.568 221.231 284.568 225.562C284.568 230.053 283.918 234.383 282.78 238.714C282.13 240.799 279.855 242.563 277.254 242.563ZM189.979 242.242C187.379 242.242 185.103 240.478 184.453 238.072C183.316 233.902 182.828 229.571 182.828 225.241C182.828 220.75 183.478 216.419 184.616 212.089C185.428 209.041 188.516 207.277 191.604 208.079C194.692 208.881 196.48 211.928 195.667 214.976C194.692 218.344 194.205 221.712 194.205 225.241C194.205 228.609 194.692 231.977 195.505 235.185C196.318 238.233 194.53 241.28 191.442 242.082C190.954 242.242 190.467 242.242 189.979 242.242ZM265.715 199.418C264.252 199.418 262.79 198.776 261.652 197.814C256.776 193.002 250.6 189.473 243.937 187.709C240.849 186.907 239.061 183.86 239.874 180.812C240.686 177.765 243.774 176 246.862 176.802C255.476 179.048 263.277 183.539 269.616 189.794C271.891 192.04 271.891 195.568 269.616 197.814C268.64 198.776 267.178 199.418 265.715 199.418ZM201.843 199.257C200.381 199.257 198.918 198.616 197.78 197.653C195.505 195.408 195.505 191.879 197.78 189.634C204.119 183.378 211.92 178.887 220.534 176.642C223.621 176 226.872 177.765 227.685 180.812C228.497 183.86 226.709 186.907 223.621 187.709C216.958 189.473 210.782 192.842 205.906 197.653C204.769 198.776 203.306 199.257 201.843 199.257Z" fill="white"/>
<path d="M221.022 250.262C219.885 250.262 218.909 249.941 217.934 249.46C209.646 244.167 204.607 235.024 204.607 225.24C204.607 219.787 206.233 214.334 209.158 209.682C211.433 206.154 214.359 203.267 217.934 201.021C220.535 199.417 224.11 200.059 225.898 202.785C227.686 205.352 226.873 208.88 224.11 210.645C221.997 211.928 220.21 213.692 218.747 215.938C216.959 218.664 215.984 222.033 215.984 225.401C215.984 231.335 219.072 236.949 224.11 240.157C226.711 241.761 227.523 245.289 225.898 247.856C224.76 249.299 222.973 250.262 221.022 250.262ZM246.376 250.262C244.426 250.262 242.638 249.299 241.5 247.695C239.875 245.129 240.525 241.6 243.288 239.836C245.401 238.553 247.189 236.628 248.651 234.543C250.439 231.816 251.414 228.448 251.414 225.08C251.414 219.145 248.326 213.532 243.288 210.324C240.688 208.72 239.875 205.191 241.5 202.625C243.125 200.059 246.701 199.257 249.464 200.861C257.753 206.154 262.791 215.296 262.791 225.08C262.791 230.533 261.166 235.987 258.24 240.638C255.965 244.167 253.039 247.054 249.464 249.299C248.489 249.941 247.514 250.262 246.376 250.262Z" fill="white"/>
<path d="M233.7 232.298C229.799 232.298 226.549 229.09 226.549 225.241C226.549 221.391 229.799 218.184 233.7 218.184C237.6 218.184 240.851 221.391 240.851 225.241C240.851 229.09 237.6 232.298 233.7 232.298Z" fill="white"/>
<path d="M328.61 198.936C332.186 198.936 335.599 199.578 338.849 201.021C341.937 202.305 344.862 204.229 347.138 206.635C349.576 209.041 351.363 211.768 352.826 214.815C354.126 218.023 354.939 221.391 354.939 224.92C354.939 228.449 354.289 231.817 352.826 235.025C351.526 238.072 349.576 240.959 347.138 243.205C344.7 245.611 341.937 247.375 338.849 248.818C335.599 250.102 332.186 250.904 328.61 250.904C325.035 250.904 321.622 250.262 318.371 248.818C315.283 247.535 312.358 245.611 310.082 243.205C307.645 240.799 305.857 238.072 304.394 235.025C303.094 231.817 302.281 228.449 302.281 224.92C302.281 221.391 302.931 218.023 304.394 214.815C305.694 211.768 307.645 208.881 310.082 206.635C312.52 204.229 315.283 202.465 318.371 201.021C321.622 199.578 325.197 198.776 328.61 198.936ZM328.773 240.478C330.885 240.478 332.998 239.997 334.948 239.195C336.899 238.393 338.524 237.27 339.987 235.827C341.449 234.383 342.587 232.619 343.4 230.854C344.212 228.93 344.7 226.845 344.7 224.759C344.7 222.674 344.212 220.589 343.4 218.665C342.587 216.74 341.449 215.136 339.987 213.692C338.524 212.249 336.736 211.126 334.948 210.324C332.998 209.522 330.885 209.041 328.773 209.041C326.66 209.041 324.547 209.522 322.597 210.324C320.646 211.126 319.021 212.249 317.558 213.692C316.096 215.136 314.958 216.9 314.145 218.665C313.333 220.589 312.845 222.674 312.845 224.759C312.845 226.845 313.333 228.93 314.145 230.854C314.958 232.779 316.096 234.383 317.558 235.827C319.021 237.27 320.809 238.393 322.597 239.195C324.547 240.157 326.66 240.478 328.773 240.478Z" fill="white"/>
<path d="M387.931 223.797C387.444 224.76 387.444 225.882 387.931 226.684L402.558 248.177C403.533 249.46 402.883 250.583 401.258 250.583H393.132C392.482 250.583 391.832 250.262 391.344 249.62L381.918 235.827C381.43 235.025 380.455 235.025 379.967 235.827L370.541 249.781C370.054 250.422 369.403 250.743 368.753 250.743H360.627C359.002 250.743 358.352 249.62 359.327 248.337L373.954 226.845C374.442 225.882 374.442 224.76 373.954 223.958L358.677 201.503C357.702 200.219 358.352 199.097 359.977 199.097H368.103C368.753 199.097 369.566 199.417 369.891 200.059L379.967 214.976C380.455 215.778 381.43 215.778 381.918 214.976L392.157 200.059C392.644 199.417 393.294 199.097 393.944 199.097H402.071C403.696 199.097 404.346 200.219 403.371 201.503L387.931 223.797Z" fill="white"/>
<path d="M422.874 198.936C424.011 198.936 424.987 199.898 424.987 201.021V248.497C424.987 249.62 424.011 250.582 422.874 250.582H417.023C415.885 250.582 414.91 249.62 414.91 248.497V201.021C414.91 199.898 415.885 198.936 417.023 198.936H422.874V198.936Z" fill="white"/>
<path d="M488.21 224.759C488.21 224.759 488.21 225.561 488.047 226.524C488.047 226.524 487.56 231.656 486.26 234.864C484.959 237.912 483.009 240.799 480.571 243.044C478.133 245.45 475.371 247.214 472.283 248.658C469.032 249.941 465.619 250.743 462.044 250.743C458.468 250.743 455.055 250.101 451.805 248.658C448.717 247.375 445.791 245.45 443.516 243.044C441.078 240.638 439.29 237.912 437.828 234.864C436.527 231.656 435.715 228.288 435.715 224.759C435.715 221.231 436.365 217.863 437.828 214.655C439.128 211.607 441.078 208.72 443.516 206.475C445.954 204.069 448.717 202.304 451.805 200.861C455.055 199.578 458.468 198.776 462.044 198.776C464.969 198.776 467.894 199.257 470.657 200.219C472.77 200.861 475.045 202.304 476.021 202.946C476.996 203.588 477.971 202.946 477.971 201.984V178.085C477.971 176.962 478.946 176 480.084 176H485.935C487.072 176 488.047 176.962 488.047 178.085L488.21 224.759ZM462.044 240.478C464.156 240.478 466.269 239.997 468.219 239.195C470.17 238.393 471.795 237.27 473.258 235.827C474.72 234.383 475.858 232.619 476.671 230.854C477.158 229.411 477.646 227.967 477.808 226.524C477.971 225.561 477.971 224.759 477.971 224.759C477.971 224.759 477.971 223.957 477.808 222.995C477.646 221.552 477.321 220.108 476.671 218.664C475.858 216.74 474.72 215.136 473.258 213.692C471.795 212.249 470.007 211.126 468.219 210.324C466.269 209.522 464.156 209.041 462.044 209.041C459.931 209.041 457.818 209.522 455.868 210.324C453.917 211.126 452.292 212.249 450.829 213.692C449.367 215.136 448.229 216.9 447.417 218.664C446.604 220.589 446.116 222.674 446.116 224.759C446.116 226.845 446.604 228.93 447.417 230.854C448.229 232.779 449.367 234.383 450.829 235.827C452.292 237.27 454.08 238.393 455.868 239.195C457.818 240.157 459.931 240.478 462.044 240.478Z" fill="white"/>
<path d="M507.061 198.936C508.199 198.936 509.174 199.898 509.174 201.021V248.497C509.174 249.62 508.199 250.582 507.061 250.582H501.21C500.073 250.582 499.098 249.62 499.098 248.497V201.021C499.098 199.898 500.073 198.936 501.21 198.936H507.061V198.936Z" fill="white"/>
<path d="M617.254 218.024C616.279 214.655 614.654 211.447 612.541 208.721C610.103 205.673 607.178 203.107 603.602 201.503C600.027 199.739 595.964 198.776 592.063 198.776C588.488 198.776 585.075 199.418 581.824 200.861C578.736 202.145 575.811 204.069 573.535 206.475C571.098 208.881 569.31 211.608 567.847 214.655C566.547 217.863 565.734 221.231 565.734 224.76C565.734 228.289 566.384 231.657 567.847 234.865C569.147 237.912 571.098 240.799 573.535 243.045C575.973 245.451 578.736 247.215 581.824 248.659C585.075 249.942 588.488 250.744 592.063 250.744C596.126 250.744 600.027 249.781 603.602 248.017C607.178 246.253 610.753 242.564 610.753 242.564C611.891 241.441 612.866 240.318 613.679 239.195L614.166 238.393C614.654 237.431 614.816 237.431 614.816 237.431C615.304 236.308 614.491 235.667 613.191 235.667H607.99C606.528 235.667 605.228 235.667 604.74 235.667C603.602 235.667 602.79 236.469 601.815 237.271C600.839 238.073 599.539 238.875 598.402 239.516C596.289 240.478 594.176 240.96 591.901 240.96C590.113 240.96 588.163 240.639 586.375 239.997C584.75 239.356 583.124 238.554 581.662 237.431C580.199 236.308 579.061 235.025 578.086 233.421C577.599 232.619 577.111 231.657 576.786 230.855C576.298 229.572 577.111 228.449 578.574 228.449H615.141C615.954 228.449 616.767 228.128 617.254 227.487C617.579 227.005 617.904 226.524 617.904 225.883V225.081C618.229 222.515 617.904 220.269 617.254 218.024ZM604.415 218.024H579.874C578.411 218.024 577.924 217.061 578.736 215.938C578.736 215.938 580.687 213.051 583.124 211.447C585.725 209.843 588.813 208.881 591.738 209.042H591.901H592.063C595.151 209.042 598.239 209.843 600.677 211.447C603.277 213.051 605.065 215.938 605.065 215.938C606.365 217.061 605.878 218.024 604.415 218.024Z" fill="white"/>
<path d="M561.508 240.799H540.542C538.917 240.799 538.267 239.677 539.079 238.233L547.531 224.6L556.469 210.164L558.42 207.117L561.345 202.465C562.645 200.38 561.67 198.776 559.232 198.776H521.527C520.389 198.776 519.414 199.739 519.414 200.861V206.475C519.414 207.598 520.389 208.56 521.527 208.56H542.492C544.118 208.56 544.768 209.683 543.955 211.127L535.504 224.76L526.565 239.195C526.078 239.997 525.265 241.441 524.615 242.243L521.689 246.894C520.389 248.979 521.364 250.583 523.802 250.583H561.508C562.645 250.583 563.62 249.621 563.62 248.498V243.045C563.62 241.762 562.645 240.799 561.508 240.799Z" fill="white"/>
</svg>
