<svg width="315" height="94" viewBox="0 0 315 94" fill="none" xmlns="http://www.w3.org/2000/svg">
<path d="M39.2408 3.10563C37.6044 3.06794 35.9892 3.48256 34.5723 4.30404L4.45969 21.7234C3.10421 22.5072 1.97845 23.6348 1.19561 24.9929C0.412768 26.351 0.000424807 27.8918 0 29.4602V64.3172C0.0020122 65.8841 0.415109 67.423 1.19787 68.7794C1.98064 70.1358 3.10554 71.262 4.45969 72.045L34.5723 89.478C35.9275 90.2623 37.4648 90.6752 39.0297 90.6752C40.5946 90.6752 42.1319 90.2623 43.4871 89.478L73.6044 72.045C74.9577 71.2614 76.0816 70.1349 76.8636 68.7786C77.6455 67.4222 78.0579 65.8837 78.0595 64.3172V29.4602C78.0595 27.8922 77.6479 26.3518 76.8658 24.9937C76.0838 23.6356 74.959 22.5078 73.6044 21.7234L43.4871 4.30404C42.1942 3.55429 40.734 3.1422 39.2408 3.10563ZM39.1441 22.8078C39.9656 22.8267 40.7693 23.0524 41.4811 23.4639L58.0464 33.0462C58.7916 33.4776 59.4104 34.098 59.8406 34.845C60.2708 35.592 60.4972 36.4394 60.4972 37.302V56.4756C60.4956 57.3366 60.2684 58.182 59.8383 58.9273C59.4082 59.6726 58.7902 60.2915 58.0464 60.7222L41.4811 70.3135C40.7361 70.7444 39.891 70.9712 39.0309 70.9712C38.1707 70.9712 37.3257 70.7444 36.5806 70.3135L20.0148 60.7222C19.271 60.2915 18.6532 59.6725 18.2232 58.9272C17.7932 58.1819 17.5661 57.3365 17.5646 56.4756V37.302C17.5645 36.4395 17.7908 35.5921 18.2209 34.8451C18.651 34.0981 19.2697 33.4776 20.0148 33.0462L36.5806 23.4639C37.359 23.0139 38.2457 22.7869 39.1441 22.8078Z" fill="#60A5FA"/>
<path d="M76.8637 25.0073L59.8339 34.8586C60.2647 35.6051 60.4919 36.452 60.4928 37.3143V56.483C60.4922 57.3448 60.2654 58.1912 59.8354 58.9374C59.4053 59.6836 58.787 60.3033 58.0426 60.7344L41.482 70.3215C40.7389 70.7486 39.8971 70.9732 39.0405 70.9727V90.6753C40.601 90.6757 42.1343 90.2656 43.4871 89.4858L50.1865 85.6082L58.7354 90.5832C62.5591 92.8084 68.7152 92.8084 72.5389 90.5832L76.3616 88.3588C80.1853 86.1337 80.1853 82.5504 76.3616 80.3252L67.8599 75.3776L73.6045 72.0526C74.9578 71.269 76.0818 70.1426 76.8638 68.7862C77.6458 67.4299 78.0582 65.8913 78.0598 64.3248V29.4725C78.0589 27.9047 77.6464 26.3648 76.8637 25.0073Z" fill="#3B82F6"/>
<path d="M1.2041 24.9925L18.2306 34.8487C18.6601 34.1015 19.2782 33.4806 20.0228 33.0486L36.5858 23.4641C37.3307 23.0339 38.1754 22.8077 39.0351 22.8079C39.8948 22.8082 40.7394 23.0351 41.484 23.4658L58.0481 33.0477C58.7887 33.479 59.4037 34.0973 59.8318 34.8409L76.8549 24.99C76.0751 23.6354 74.9543 22.5097 73.6044 21.7254L43.4826 4.29962C42.1289 3.51682 40.5936 3.1045 39.0307 3.104C37.4678 3.10351 35.9323 3.51486 34.5781 4.29681L4.46482 21.7231C3.11045 22.5076 1.9859 23.6355 1.2041 24.9935V24.9925Z" fill="#93C5FD"/>
<path d="M126.281 37.2415V58.4227C126.281 61.9281 125.61 64.8368 124.416 67.2234L127.549 70.9525C129.115 72.817 127.922 75.2782 125.535 75.2782H122.776C122.328 75.2782 121.06 74.7562 120.687 74.3087L119.047 72.2204C117.555 72.8916 115.914 73.1899 114.124 73.1899C105.92 73.1899 101.818 67.82 101.818 58.4227V37.2415C101.818 27.8441 105.92 22.9217 114.124 22.9217C122.254 22.9217 126.281 27.8441 126.281 37.2415ZM109.276 37.2415V58.4227C109.276 63.1214 110.768 65.5826 113.677 65.8063L113.304 65.3588C111.738 63.4197 113.005 60.9585 115.392 60.9585H118.077C118.152 60.9585 118.45 60.9585 118.674 61.0331C118.748 60.2873 118.823 59.3923 118.823 58.4227V37.2415C118.823 32.3936 117.331 30.3053 114.124 30.3053C110.917 30.3053 109.276 32.5428 109.276 37.2415ZM131.236 59.4669V25.5321C131.236 24.0405 132.429 22.8472 133.846 22.8472H135.935C137.426 22.8472 138.62 24.0405 138.62 25.5321V59.4669C138.62 63.4197 139.813 65.7318 143.467 65.7318C147.271 65.7318 148.315 63.0468 148.315 59.4669V25.5321C148.315 24.0405 149.509 22.8472 150.926 22.8472H153.014C154.506 22.8472 155.699 24.0405 155.699 25.5321V59.4669C155.699 67.82 152.119 73.1154 143.467 73.1154C134.518 73.1154 131.236 67.3726 131.236 59.4669ZM172.792 73.1899H165.408C163.916 73.1899 162.723 71.9966 162.723 70.505V25.6067C162.723 24.115 163.916 22.9217 165.408 22.9217H172.792C181.518 22.9217 185.396 27.695 185.396 37.316C185.396 44.2522 182.189 48.0558 182.189 48.0558C184.128 50.4425 185.396 54.2461 185.396 58.7956C185.396 68.4167 181.518 73.1899 172.792 73.1899ZM172.792 30.3053H170.181V44.3267H172.792C176.446 44.3267 177.938 42.313 177.938 37.316C177.938 32.3191 176.446 30.3053 172.792 30.3053ZM172.792 51.7104H170.181V65.8063H172.792C176.446 65.8063 177.938 63.7926 177.938 58.7956C177.938 53.7241 176.446 51.7104 172.792 51.7104ZM193.655 22.9217H209.765C211.257 22.9217 212.45 24.115 212.45 25.6067V27.6204C212.45 29.112 211.257 30.3053 209.765 30.3053H198.354V44.3267H207.751C209.243 44.3267 210.436 45.5201 210.436 47.0117V49.0254C210.436 50.517 209.243 51.7104 207.751 51.7104H198.354V65.8063H209.765C211.257 65.8063 212.45 66.9996 212.45 68.4913V70.505C212.45 71.9966 211.257 73.1899 209.765 73.1899H193.655C192.164 73.1899 190.97 71.9966 190.97 70.505V25.6067C190.97 24.115 192.164 22.9217 193.655 22.9217ZM214.934 58.5719V57.6023C214.934 56.1107 216.128 54.9174 217.619 54.9174H219.708C221.125 54.9174 222.393 56.1107 222.393 57.6023V58.5719C222.393 62.1518 223.064 63.8672 224.108 64.7622C224.928 65.5826 226.196 65.7318 227.24 65.7318C230.373 65.7318 232.088 64.3893 232.088 60.4364C232.088 56.9311 228.657 54.1716 225.003 51.3374V51.412C220.081 47.5338 214.934 43.5063 214.934 36.1227C214.934 27.695 219.335 22.8472 227.24 22.8472C235.295 22.8472 239.546 27.9933 239.546 37.4652V38.5094C239.546 40.001 238.353 41.1943 236.861 41.1943H234.773C233.282 41.1943 232.088 40.001 232.088 38.5094V37.4652C232.088 32.5428 230.522 30.3053 227.24 30.3053C224.108 30.3053 222.393 32.0207 222.393 35.899C222.393 39.7027 226.047 42.6114 229.702 45.4455H229.627C234.549 49.2491 239.546 53.0528 239.546 60.2873C239.546 68.6404 235.146 73.1154 227.24 73.1154C219.036 73.1154 214.934 68.3421 214.934 58.5719ZM260.981 36.1973C260.981 27.6204 264.561 22.9217 271.646 22.9217C278.806 22.9217 282.386 27.5458 282.386 36.1973V59.8398C282.386 65.4334 280.969 68.6404 278.881 70.6542C276.793 72.6679 274.108 73.1899 271.646 73.1899C269.26 73.1899 266.575 72.6679 264.487 70.6542C262.398 68.6404 260.981 65.4334 260.981 59.8398V36.1973ZM263.293 59.8398C263.293 67.3726 266.053 70.8779 271.646 70.8779C277.091 70.8779 280 67.5963 280 59.8398V36.1973C280 28.5154 277.24 25.2338 271.646 25.2338C265.978 25.2338 263.293 28.7391 263.293 36.1973V59.8398ZM298.172 49.7712L296.904 49.1746C295.412 48.5779 293.026 47.5338 291.012 45.4455C288.924 43.4318 287.208 40.5976 287.208 36.1973C287.208 28.6645 291.012 22.8472 297.948 22.8472C305.108 22.8472 308.763 27.4712 308.763 36.1973C308.763 36.794 308.24 37.3906 307.569 37.3906C306.898 37.3906 306.376 36.794 306.376 36.1973C306.376 28.6645 303.616 25.1592 297.948 25.1592C292.653 25.1592 289.52 29.7087 289.52 36.1973C289.52 39.7772 290.863 42.1639 292.653 43.8047C294.368 45.4455 296.382 46.415 297.874 47.0117L299.067 47.5338C300.335 48.1304 302.796 49.1 304.884 51.0391C306.973 52.9782 308.763 55.8124 308.763 60.2127C308.763 63.8672 307.793 66.9996 306.078 69.3117C304.138 71.8475 301.453 73.1154 297.948 73.1154C290.788 73.1154 287.208 68.4913 287.208 59.8398C287.208 59.0194 287.581 58.6465 288.402 58.6465C288.998 58.6465 289.52 59.1685 289.52 59.8398C289.52 64.6876 290.788 67.4471 292.429 68.9388C294.07 70.505 296.158 70.8033 297.948 70.8033C303.318 70.8033 306.376 66.8505 306.376 60.2127C306.376 56.6328 304.959 54.2461 303.243 52.6799C302.348 51.9341 301.453 51.3374 300.484 50.8899L298.172 49.7712Z" fill="#323232"/>
</svg>
