<svg width="420" height="80" viewBox="0 0 420 80" fill="none" xmlns="http://www.w3.org/2000/svg">
<mask id="mask0_5794_1567" style="mask-type:alpha" maskUnits="userSpaceOnUse" x="45" y="16" width="42" height="48">
<path d="M87.0002 49.6787V30.3214C87.0002 28.886 86.2311 27.5606 84.9847 26.8484L67.9846 17.1341C66.7548 16.4314 65.2452 16.4314 64.0155 17.1341L47.0154 26.8484C45.7691 27.5606 45 28.886 45 30.3214V49.6786C45 51.1141 45.7692 52.4395 47.0155 53.1516L64.0157 62.8659C65.2454 63.5686 66.755 63.5686 67.9847 62.8659L84.9848 53.1516C86.2311 52.4395 87.0002 51.1141 87.0002 49.6787Z" fill="#DC2626"/>
</mask>
<g mask="url(#mask0_5794_1567)">
<path d="M87.0002 49.6787V30.3214C87.0002 28.886 86.2311 27.5606 84.9847 26.8484L67.9846 17.1341C66.7548 16.4314 65.2452 16.4314 64.0155 17.1341L47.0154 26.8484C45.7691 27.5606 45 28.886 45 30.3214V49.6786C45 51.1141 45.7692 52.4395 47.0155 53.1516L64.0157 62.8659C65.2454 63.5686 66.755 63.5686 67.9847 62.8659L84.9848 53.1516C86.2311 52.4395 87.0002 51.1141 87.0002 49.6787Z" fill="#EF4444"/>
<path d="M45 49.6787C45 51.1141 45.7692 52.4395 47.0155 53.1516L64.055 62.8885C64.9217 63.3837 66 62.7579 66 61.7597V42.3213C66 40.8859 65.2308 39.5605 63.9845 38.8484L46.945 29.1115C46.0783 28.6163 45 29.2421 45 30.2402V49.6787Z" fill="#991B1B"/>
</g>
<path d="M141 40.8393V31.1607C141 30.4429 140.616 29.7802 139.992 29.4242L131.492 24.567C130.877 24.2157 130.123 24.2157 129.508 24.567L121.008 29.4242C120.385 29.7802 120 30.4429 120 31.1606V40.8393C120 41.557 120.385 42.2197 121.008 42.5758L129.508 47.4329C130.123 47.7842 130.878 47.7842 131.492 47.4329L139.992 42.5758C140.616 42.2197 141 41.557 141 40.8393Z" fill="#EF4444"/>
<path d="M120 40.8393C120 41.557 120.385 42.2197 121.008 42.5758L129.528 47.4442C129.961 47.6918 130.5 47.3789 130.5 46.8798V37.1606C130.5 36.4429 130.115 35.7802 129.492 35.4241L120.972 30.5557C120.539 30.3081 120 30.621 120 31.1201V40.8393Z" fill="#991B1B"/>
<path d="M157 49.8393V40.1607C157 39.4429 156.616 38.7802 155.992 38.4242L147.492 33.567C146.877 33.2157 146.123 33.2157 145.508 33.567L137.008 38.4242C136.385 38.7802 136 39.4429 136 40.1606V49.8393C136 50.557 136.385 51.2197 137.008 51.5758L145.508 56.4329C146.123 56.7842 146.878 56.7842 147.492 56.4329L155.992 51.5758C156.616 51.2197 157 50.557 157 49.8393Z" fill="#FECACA"/>
<path d="M136 49.8393C136 50.557 136.385 51.2197 137.008 51.5758L145.528 56.4442C145.961 56.6918 146.5 56.3789 146.5 55.8798V46.1606C146.5 45.4429 146.115 44.7802 145.492 44.4241L136.972 39.5557C136.539 39.3081 136 39.621 136 40.1201V49.8393Z" fill="#FCA5A5"/>
<mask id="mask1_5794_1567" style="mask-type:alpha" maskUnits="userSpaceOnUse" x="189" y="16" width="42" height="48">
<path d="M231 49.6787V30.3214C231 28.886 230.231 27.5606 228.985 26.8484L211.985 17.1341C210.755 16.4314 209.245 16.4314 208.015 17.1341L191.015 26.8484C189.769 27.5606 189 28.886 189 30.3214V49.6786C189 51.1141 189.769 52.4395 191.015 53.1516L208.016 62.8659C209.245 63.5686 210.755 63.5686 211.985 62.8659L228.985 53.1516C230.231 52.4395 231 51.1141 231 49.6787Z" fill="#DC2626"/>
</mask>
<g mask="url(#mask1_5794_1567)">
<path d="M231 49.6787V30.3214C231 28.886 230.231 27.5606 228.985 26.8484L211.985 17.1341C210.755 16.4314 209.245 16.4314 208.015 17.1341L191.015 26.8484C189.769 27.5606 189 28.886 189 30.3214V49.6786C189 51.1141 189.769 52.4395 191.015 53.1516L208.016 62.8659C209.245 63.5686 210.755 63.5686 211.985 62.8659L228.985 53.1516C230.231 52.4395 231 51.1141 231 49.6787Z" fill="#EF4444"/>
<path d="M189 49.6787C189 51.1141 189.769 52.4395 191.015 53.1516L208.055 62.8885C208.922 63.3837 210 62.7579 210 61.7597V42.3213C210 40.8859 209.231 39.5605 207.985 38.8484L190.945 29.1115C190.078 28.6163 189 29.2421 189 30.2402V49.6787Z" fill="#FECACA"/>
<path d="M201.952 51.4009L197.007 48.5751C196.384 48.219 196 47.5563 196 46.8386L196 41.2053C196 40.6678 196.58 40.3308 197.047 40.5975L201.992 43.4234C202.615 43.7795 203 44.4421 203 45.1598L203 50.7931C203 51.3306 202.419 51.6675 201.952 51.4009Z" fill="#991B1B"/>
</g>
<path d="M302.5 30.3213V49.6785C302.5 50.9345 301.827 52.0942 300.737 52.7174L283.737 62.4316C282.661 63.0465 281.34 63.0465 280.264 62.4316L263.264 52.7174C262.173 52.0942 261.5 50.9345 261.5 49.6785V30.3213C261.5 29.0653 262.173 27.9056 263.264 27.2824L280.264 17.5681C281.34 16.9533 282.66 16.9533 283.736 17.5681L300.737 27.2824C301.827 27.9056 302.5 29.0653 302.5 30.3213Z" stroke="#EF4444"/>
<path d="M296 46.0654V33.9344C296 32.7382 295.359 31.6337 294.32 31.0402L283.654 24.945C282.629 24.3594 281.371 24.3594 280.346 24.945L269.68 31.0402C268.641 31.6337 268 32.7382 268 33.9344V46.0654C268 47.2615 268.641 48.366 269.68 48.9595L280.346 55.0547C281.371 55.6402 282.629 55.6402 283.654 55.0547L294.32 48.9595C295.359 48.366 296 47.2616 296 46.0654Z" fill="#EF4444"/>
<path d="M268 46.0654C268 47.2616 268.641 48.366 269.68 48.9595L280.379 55.0735C281.101 55.4862 282 54.9647 282 54.1329V41.9343C282 40.7381 281.359 39.6336 280.32 39.0401L269.621 32.9261C268.899 32.5135 268 33.0349 268 33.8667V46.0654Z" fill="#991B1B"/>
<path d="M357 40.8393V31.1607C357 30.4429 356.616 29.7802 355.992 29.4242L347.492 24.567C346.877 24.2157 346.123 24.2157 345.508 24.567L337.008 29.4242C336.385 29.7802 336 30.4429 336 31.1606V40.8393C336 41.557 336.385 42.2197 337.008 42.5758L345.508 47.4329C346.123 47.7842 346.878 47.7842 347.492 47.4329L355.992 42.5758C356.616 42.2197 357 41.557 357 40.8393Z" fill="#FECACA"/>
<path d="M336 40.8393C336 41.557 336.385 42.2197 337.008 42.5758L345.528 47.4442C345.961 47.6918 346.5 47.3789 346.5 46.8798V37.1606C346.5 36.4429 346.115 35.7802 345.492 35.4241L336.972 30.5557C336.539 30.3081 336 30.621 336 31.1201V40.8393Z" fill="#FCA5A5"/>
<path d="M373 49.8393V40.1607C373 39.4429 372.616 38.7802 371.992 38.4242L363.492 33.567C362.877 33.2157 362.123 33.2157 361.508 33.567L353.008 38.4242C352.385 38.7802 352 39.4429 352 40.1606V49.8393C352 50.557 352.385 51.2197 353.008 51.5758L361.508 56.4329C362.123 56.7842 362.878 56.7842 363.492 56.4329L371.992 51.5758C372.616 51.2197 373 50.557 373 49.8393Z" fill="#EF4444"/>
<path d="M352 49.8393C352 50.557 352.385 51.2197 353.008 51.5758L361.528 56.4442C361.961 56.6918 362.5 56.3789 362.5 55.8798V46.1606C362.5 45.4429 362.115 44.7802 361.492 44.4241L352.972 39.5557C352.539 39.3081 352 39.621 352 40.1201V49.8393Z" fill="#991B1B"/>
</svg>
