<svg width="800" height="450" viewBox="0 0 800 450" fill="none" xmlns="http://www.w3.org/2000/svg">
<rect width="800" height="450" fill="#C3DAFE"/>
<path d="M313.417 215.705H285.688V166.018C285.688 160.488 281.2 156 275.671 156H223.018C217.488 156 213 160.488 213 166.018V217.709C213 223.239 217.488 227.727 223.018 227.727H273.667V252.731H253.552C248.022 252.731 243.534 257.219 243.534 262.749V284.387C243.534 289.917 248.022 294.404 253.552 294.404H275.671C281.2 294.404 285.688 289.917 285.688 284.387V264.752H313.337C318.867 264.752 323.355 260.264 323.355 254.734V225.723C323.435 220.193 318.867 215.705 313.417 215.705ZM225.021 168.021H273.667V215.705H225.021V168.021ZM273.667 282.383H255.555V264.752H273.667V282.383ZM311.414 252.731H285.769V227.727H311.414V252.731Z" fill="#434190"/>
<path d="M361.663 215.865C365.83 215.865 369.196 216.266 371.76 217.148C374.325 218.029 376.248 219.472 377.45 221.475C378.653 223.479 379.294 226.364 379.294 229.97C379.294 232.134 378.973 234.138 378.412 235.74C377.851 237.423 376.889 238.786 375.527 239.747C374.165 240.789 372.402 241.43 370.077 241.671V241.991C370.879 242.152 371.76 242.472 372.642 242.953C373.523 243.434 374.405 244.235 375.126 245.197C375.928 246.159 376.489 247.521 376.809 249.124L380.897 263.87H369.837L366.231 249.445C365.83 247.922 365.189 246.8 364.387 246.239C363.586 245.678 362.464 245.357 361.021 245.357C357.896 245.357 355.331 245.357 353.168 245.357C351.004 245.357 349.241 245.277 347.798 245.277C346.355 245.197 345.073 245.197 343.951 245.117L344.192 237.503H361.262C363.105 237.503 364.548 237.343 365.589 236.942C366.631 236.542 367.433 235.82 367.833 234.859C368.234 233.817 368.475 232.455 368.475 230.691C368.475 228.848 368.234 227.486 367.833 226.444C367.433 225.482 366.631 224.761 365.589 224.36C364.548 223.96 363.025 223.799 361.262 223.799C356.934 223.799 353.328 223.799 350.363 223.879C347.397 223.96 345.314 223.96 344.272 224.12L343.23 216.667C345.153 216.426 346.997 216.266 348.68 216.186C350.363 216.106 352.206 216.026 354.209 216.026C356.373 215.865 358.777 215.865 361.663 215.865ZM353.729 216.587V263.95H343.39V216.587H353.729Z" fill="#434190"/>
<path d="M396.123 216.347C398.688 216.347 401.252 216.347 403.897 216.347C406.542 216.347 409.026 216.427 411.591 216.507C414.075 216.587 416.479 216.747 418.643 216.988L418.162 224.601H399.97C398.848 224.601 397.966 224.922 397.406 225.483C396.845 226.044 396.524 226.925 396.524 228.127V252.25C396.524 253.372 396.845 254.254 397.406 254.895C397.966 255.456 398.848 255.776 399.97 255.776H418.162L418.643 263.39C416.479 263.55 414.075 263.71 411.591 263.871C409.106 263.951 406.542 264.031 403.897 264.111C401.252 264.111 398.688 264.111 396.123 264.111C393.078 264.111 390.674 263.229 388.83 261.466C386.987 259.703 386.025 257.379 386.025 254.574V225.884C386.025 222.998 386.987 220.674 388.83 218.991C390.674 217.228 393.158 216.347 396.123 216.347ZM387.308 235.581H415.678V242.954H387.308V235.581Z" fill="#434190"/>
<path d="M440.362 215.705C442.686 215.705 445.25 215.865 447.975 216.106C450.7 216.346 453.425 216.907 455.989 217.628L455.268 224.521C453.264 224.441 450.86 224.441 448.215 224.36C445.491 224.28 442.846 224.28 440.281 224.28C438.999 224.28 437.877 224.28 436.996 224.36C436.114 224.441 435.393 224.601 434.832 224.921C434.271 225.242 433.87 225.643 433.63 226.284C433.389 226.845 433.309 227.726 433.309 228.768C433.309 230.371 433.71 231.573 434.431 232.294C435.152 233.016 436.515 233.657 438.278 234.298L447.414 237.263C451.181 238.545 453.825 240.309 455.268 242.472C456.71 244.636 457.432 247.521 457.432 251.128C457.432 253.852 457.111 256.096 456.47 257.86C455.829 259.623 454.787 261.065 453.425 262.027C452.062 263.069 450.219 263.79 447.975 264.191C445.731 264.591 443.006 264.832 439.72 264.832C438.198 264.832 435.954 264.752 433.069 264.511C430.184 264.271 426.898 263.79 423.211 262.989L423.933 255.616C426.657 255.696 428.982 255.696 430.985 255.776C432.989 255.856 434.672 255.856 436.114 255.936C437.557 255.936 438.759 255.936 439.801 255.936C441.644 255.936 443.086 255.856 444.128 255.616C445.17 255.375 445.891 254.894 446.292 254.253C446.693 253.532 446.933 252.57 446.933 251.288C446.933 250.166 446.773 249.284 446.452 248.643C446.132 248.002 445.651 247.441 445.01 247.04C444.369 246.64 443.407 246.319 442.285 245.999L432.668 242.713C429.062 241.35 426.497 239.667 424.974 237.504C423.452 235.34 422.73 232.535 422.73 229.009C422.73 226.284 423.051 224.04 423.692 222.357C424.333 220.674 425.375 219.311 426.818 218.35C428.18 217.388 430.023 216.747 432.267 216.346C434.591 215.865 437.236 215.705 440.362 215.705Z" fill="#434190"/>
<path d="M478.669 229.169C479.871 229.169 481.234 229.249 482.757 229.329C484.199 229.409 485.722 229.65 487.164 229.97C488.687 230.291 490.049 230.692 491.252 231.253L490.13 237.664C488.286 237.584 486.523 237.584 484.84 237.504C483.157 237.424 481.635 237.424 480.352 237.424C478.269 237.424 476.666 237.664 475.464 238.225C474.262 238.786 473.38 239.748 472.899 241.11C472.338 242.472 472.098 244.476 472.098 246.88C472.098 249.365 472.338 251.368 472.899 252.811C473.46 254.253 474.262 255.215 475.464 255.776C476.666 256.337 478.269 256.577 480.352 256.577C481.074 256.577 482.035 256.577 483.157 256.497C484.279 256.417 485.562 256.417 486.844 256.337C488.206 256.257 489.488 256.177 490.771 255.936L491.732 262.348C489.889 263.149 487.805 263.79 485.481 264.111C483.157 264.511 480.833 264.672 478.589 264.672C474.342 264.672 471.056 264.111 468.571 262.909C466.087 261.706 464.244 259.863 463.202 257.218C462.08 254.574 461.519 251.128 461.519 246.8C461.519 242.472 462.08 238.946 463.202 236.382C464.324 233.737 466.167 231.894 468.652 230.772C471.216 229.73 474.502 229.169 478.669 229.169Z" fill="#434190"/>
<path d="M523.468 243.033L523.388 248.723L508.322 248.804C507.12 248.804 506.238 249.124 505.677 249.685C505.116 250.246 504.876 251.048 504.876 252.089V253.772C504.876 254.894 505.196 255.776 505.837 256.417C506.478 257.058 507.52 257.379 508.963 257.379C510.165 257.379 511.447 257.138 512.81 256.657C514.172 256.177 515.615 255.455 516.977 254.494C518.339 253.612 519.541 252.49 520.583 251.288V255.696C520.183 256.417 519.542 257.218 518.74 258.26C517.939 259.302 516.897 260.264 515.695 261.306C514.493 262.267 513.05 263.149 511.367 263.79C509.684 264.511 507.841 264.832 505.757 264.832C503.673 264.832 501.83 264.431 500.227 263.71C498.544 262.989 497.262 261.867 496.3 260.504C495.339 259.062 494.858 257.299 494.858 255.215V251.689C494.858 248.964 495.739 246.88 497.583 245.358C499.426 243.835 501.91 243.114 505.116 243.114H523.468V243.033ZM514.412 229.169C517.217 229.169 519.622 229.57 521.625 230.291C523.629 231.012 525.071 232.294 526.113 234.138C527.155 235.981 527.636 238.465 527.636 241.591V263.95H519.542L518.099 256.577L517.378 255.536V241.431C517.378 239.828 516.977 238.626 516.256 237.904C515.534 237.183 514.092 236.782 511.928 236.782C510.165 236.782 508.001 236.863 505.437 236.943C502.792 237.023 500.147 237.183 497.422 237.424L496.461 230.692C498.144 230.371 499.987 230.131 502.151 229.89C504.315 229.65 506.478 229.49 508.562 229.329C510.726 229.249 512.649 229.169 514.412 229.169Z" fill="#434190"/>
<path d="M544.466 215.865L544.385 253.051C544.385 254.173 544.706 255.054 545.427 255.615C546.148 256.176 547.11 256.497 548.473 256.497H551.197L552.4 263.389C551.839 263.63 551.037 263.87 550.075 264.11C549.034 264.351 548.072 264.511 546.95 264.591C545.908 264.671 545.026 264.752 544.305 264.752C541.26 264.752 538.775 263.95 537.012 262.347C535.249 260.745 534.368 258.501 534.368 255.615V215.865H544.466Z" fill="#434190"/>
<path d="M582.292 243.033L582.212 248.723L567.145 248.804C565.943 248.804 565.062 249.124 564.501 249.685C563.94 250.246 563.699 251.048 563.699 252.089V253.772C563.699 254.894 564.02 255.776 564.661 256.417C565.302 257.058 566.344 257.379 567.787 257.379C568.989 257.379 570.271 257.138 571.633 256.657C572.996 256.177 574.438 255.455 575.801 254.494C577.163 253.612 578.365 252.49 579.407 251.288V255.696C579.006 256.417 578.365 257.218 577.564 258.26C576.762 259.302 575.721 260.264 574.518 261.306C573.316 262.267 571.874 263.149 570.191 263.79C568.508 264.511 566.665 264.832 564.581 264.832C562.497 264.832 560.654 264.431 559.051 263.71C557.368 262.989 556.086 261.867 555.124 260.504C554.162 259.062 553.682 257.299 553.682 255.215V251.689C553.682 248.964 554.563 246.88 556.406 245.358C558.25 243.835 560.734 243.114 563.94 243.114H582.292V243.033ZM573.236 229.169C576.041 229.169 578.445 229.57 580.449 230.291C582.452 231.012 583.895 232.294 584.937 234.138C585.979 235.981 586.46 238.465 586.46 241.591V263.95H578.365L576.923 256.577L576.201 255.536V241.431C576.201 239.828 575.801 238.626 575.079 237.904C574.358 237.183 572.916 236.782 570.752 236.782C568.989 236.782 566.825 236.863 564.26 236.943C561.616 237.023 558.971 237.183 556.246 237.424L555.284 230.692C556.967 230.371 558.811 230.131 560.975 229.89C563.138 229.65 565.302 229.49 567.386 229.329C569.63 229.249 571.553 229.169 573.236 229.169Z" fill="#434190"/>
</svg>
