<svg width="800" height="450" viewBox="0 0 800 450" fill="none" xmlns="http://www.w3.org/2000/svg">
<rect width="800" height="450" fill="#080708"/>
<g clip-path="url(#clip0_5964_20444)">
<path d="M150 261.09V188.722H179.319C184.764 188.722 189.319 189.522 192.984 191.124C196.648 192.692 199.388 194.961 201.203 197.93C203.018 200.867 203.926 204.387 203.926 208.491C203.926 212.428 203.193 215.697 201.727 218.3C200.296 220.902 198.464 223.004 196.23 224.606C193.996 226.174 191.675 227.392 189.267 228.259L204.135 261.09H193.874L180.052 231.843H159.686V261.09H150ZM159.686 222.254H176.178C181.867 222.254 186.265 221.153 189.371 218.95C192.477 216.715 194.031 213.412 194.031 209.041C194.031 204.77 192.635 201.584 189.842 199.482C187.085 197.347 183.298 196.279 178.481 196.279H159.686V222.254Z" fill="#FDFEFF"/>
<path d="M235.85 261.091C230.795 261.091 226.336 260.027 222.474 257.901C218.612 255.775 215.592 252.721 213.415 248.738C211.239 244.756 210.15 239.98 210.15 234.412C210.15 228.91 211.133 224.084 213.1 219.933C215.066 215.782 217.909 212.542 221.631 210.213C225.388 207.885 229.899 206.72 235.166 206.72C240.292 206.72 244.628 207.783 248.174 209.91C251.72 212.036 254.406 215.039 256.231 218.921C258.092 222.768 259.023 227.341 259.023 232.64V236.082H219.999C219.999 239.39 220.56 242.394 221.684 245.094C222.842 247.76 224.58 249.886 226.897 251.472C229.215 253.058 232.146 253.851 235.692 253.851C239.168 253.851 242.153 253.075 244.645 251.522C247.173 249.97 248.788 247.726 249.49 244.79H258.654C258.022 248.333 256.547 251.32 254.23 253.75C251.948 256.18 249.192 258.019 245.962 259.268C242.767 260.483 239.397 261.091 235.85 261.091ZM220.051 229.754H249.649C249.649 226.751 249.122 224.051 248.068 221.654C247.015 219.224 245.4 217.318 243.223 215.934C241.082 214.516 238.378 213.808 235.113 213.808C231.708 213.808 228.881 214.601 226.634 216.187C224.387 217.739 222.72 219.748 221.631 222.211C220.543 224.641 220.016 227.156 220.051 229.754Z" fill="#FDFEFF"/>
<path d="M340.738 261.091C335.682 261.091 331.223 260.027 327.361 257.901C323.499 255.775 320.48 252.721 318.303 248.738C316.126 244.756 315.038 239.98 315.038 234.412C315.038 228.91 316.021 224.084 317.987 219.933C319.953 215.782 322.797 212.542 326.518 210.213C330.275 207.885 334.786 206.72 340.053 206.72C345.179 206.72 349.515 207.783 353.061 209.91C356.607 212.036 359.293 215.039 361.118 218.921C362.979 222.768 363.91 227.341 363.91 232.64V236.082H324.886C324.886 239.39 325.447 242.394 326.571 245.094C327.73 247.76 329.468 249.886 331.785 251.472C334.102 253.058 337.033 253.851 340.58 253.851C344.056 253.851 347.04 253.075 349.532 251.522C352.061 249.97 353.676 247.726 354.377 244.79H363.541C362.909 248.333 361.435 251.32 359.117 253.75C356.835 256.18 354.079 258.019 350.849 259.268C347.654 260.483 344.284 261.091 340.738 261.091ZM324.938 229.754H354.536C354.536 226.751 354.009 224.051 352.956 221.654C351.902 219.224 350.287 217.318 348.111 215.934C345.969 214.516 343.265 213.808 340 213.808C336.595 213.808 333.768 214.601 331.521 216.187C329.274 217.739 327.607 219.748 326.518 222.211C325.43 224.641 324.903 227.156 324.938 229.754Z" fill="#FDFEFF"/>
<path d="M287.88 261.091C284.055 261.091 280.496 260.534 277.203 259.42C273.944 258.272 271.235 256.501 269.075 254.104C266.915 251.674 265.569 248.586 265.038 244.84H273.962C274.423 246.899 275.308 248.62 276.618 250.004C277.929 251.354 279.54 252.383 281.452 253.092C283.4 253.767 285.525 254.104 287.827 254.104C291.545 254.104 294.538 253.447 296.805 252.13C299.071 250.814 300.204 248.789 300.204 246.055C300.204 244.131 299.602 242.596 298.398 241.448C297.229 240.267 295.388 239.407 292.873 238.866L281.505 236.183C277.079 235.171 273.537 233.585 270.881 231.425C268.26 229.265 266.932 226.244 266.897 222.363C266.897 219.292 267.676 216.592 269.234 214.263C270.792 211.935 273.112 210.095 276.193 208.745C279.31 207.395 283.188 206.72 287.827 206.72C293.812 206.72 298.628 208.003 302.276 210.568C305.924 213.099 307.836 216.828 308.013 221.756H299.301C298.947 219.258 297.779 217.284 295.795 215.833C293.812 214.348 291.12 213.605 287.721 213.605C284.25 213.605 281.399 214.28 279.168 215.63C276.972 216.946 275.874 219.005 275.874 221.806C275.874 223.662 276.654 225.131 278.212 226.211C279.806 227.257 282.108 228.134 285.118 228.843L296.167 231.475C298.682 232.117 300.771 232.96 302.435 234.007C304.1 235.053 305.41 236.217 306.367 237.5C307.323 238.782 307.995 240.132 308.385 241.55C308.81 242.933 309.023 244.266 309.023 245.549C309.023 248.755 308.19 251.522 306.526 253.851C304.861 256.146 302.453 257.935 299.301 259.218C296.149 260.466 292.342 261.091 287.88 261.091Z" fill="#FDFEFF"/>
<path d="M389.548 261.278C386.427 261.278 384.007 260.81 382.287 259.874C380.566 258.938 379.356 257.551 378.656 255.711C377.985 253.871 377.65 251.612 377.65 248.933V215.157H370.301V208.168H377.868V196.596H385.786V208.119H395.978V215.157H385.786V248.643C385.786 250.418 385.946 251.725 386.267 252.564C386.617 253.371 387.186 253.888 387.973 254.114C388.761 254.34 389.869 254.452 391.298 254.452H396.241V260.455C395.686 260.681 394.841 260.875 393.703 261.036C392.596 261.197 391.21 261.278 389.548 261.278Z" fill="#FDFEFF"/>
<path d="M426.316 242.481C431.303 242.481 435.339 238.436 435.339 233.464C435.339 228.492 431.291 224.436 426.316 224.436C421.341 224.436 417.293 228.481 417.293 233.464C417.293 238.448 421.341 242.481 426.316 242.481Z" fill="#FDFEFF"/>
<path d="M463.972 261.278V197.252H439.098V188.722H497.368V197.252H473.879V261.278H463.972Z" fill="#FDFEFF"/>
<path d="M572.35 261.278C567.229 261.278 562.696 260.246 558.748 258.182C554.835 256.118 551.763 253.072 549.53 249.046C547.338 245.019 546.241 240.079 546.241 234.225C546.241 228.744 547.244 223.956 549.256 219.861C551.305 215.733 554.267 212.519 558.143 210.218C562.057 207.917 566.793 206.767 572.35 206.767C576.41 206.767 580.049 207.494 583.263 208.949C586.519 210.37 589.188 212.4 591.275 215.04C593.357 217.679 594.639 220.792 595.113 224.379H586.117C585.79 222.552 585.019 220.877 583.812 219.354C582.643 217.831 581.09 216.613 579.151 215.7C577.248 214.786 575 214.329 572.406 214.329C567.541 214.329 563.575 215.953 560.5 219.202C557.466 222.45 555.947 227.424 555.947 234.124C555.947 240.181 557.338 245.036 560.117 248.691C562.932 252.311 567.064 254.121 572.515 254.121C575.109 254.121 577.376 253.665 579.316 252.751C581.256 251.803 582.808 250.568 583.978 249.046C585.147 247.489 585.899 245.831 586.226 244.072H595.057C594.583 247.591 593.286 250.636 591.162 253.208C589.079 255.779 586.41 257.776 583.154 259.197C579.936 260.584 576.335 261.278 572.35 261.278Z" fill="#FDFEFF"/>
<path d="M601.128 261.278V188.722H611.308V218.213C612.29 216.813 613.609 215.511 615.271 214.307C616.929 213.07 618.947 212.077 621.323 211.328C623.696 210.547 626.451 210.157 629.579 210.157C633.387 210.157 636.838 210.775 639.932 212.012C643.023 213.216 645.474 214.942 647.286 217.188C649.094 219.434 650 222.103 650 225.195V261.278H639.534V227.002C639.534 223.975 638.327 221.647 635.914 220.02C633.541 218.359 630.429 217.529 626.583 217.529C623.981 217.529 621.53 217.904 619.229 218.652C616.929 219.369 615.06 220.475 613.628 221.973C612.233 223.437 611.538 225.309 611.538 227.588V261.278H601.128Z" fill="#FDFEFF"/>
<path d="M517.054 261.278C511.998 261.278 507.539 260.212 503.677 258.08C499.815 255.949 496.796 252.886 494.619 248.894C492.442 244.901 491.354 240.113 491.354 234.53C491.354 229.014 492.337 224.176 494.303 220.014C496.269 215.852 499.113 212.603 502.834 210.269C506.591 207.934 511.102 206.767 516.369 206.767C521.495 206.767 525.831 207.832 529.376 209.964C532.921 212.096 535.609 215.107 537.436 218.999C539.297 222.856 540.226 227.441 540.226 232.753V236.205H501.202C501.202 239.521 501.763 242.532 502.887 245.239C504.046 247.912 505.784 250.044 508.101 251.634C510.418 253.225 513.349 254.02 516.896 254.02C520.372 254.02 523.356 253.242 525.848 251.685C528.376 250.129 529.993 247.879 530.692 244.935H539.857C539.226 248.488 537.752 251.482 535.432 253.918C533.151 256.355 530.395 258.199 527.166 259.451C523.97 260.669 520.6 261.278 517.054 261.278ZM501.254 229.86H530.85C530.85 226.849 530.323 224.142 529.271 221.739C528.218 219.303 526.602 217.391 524.426 216.004C522.285 214.583 519.581 213.872 516.316 213.872C512.911 213.872 510.084 214.668 507.837 216.258C505.59 217.814 503.923 219.828 502.834 222.298C501.746 224.734 501.219 227.255 501.254 229.86Z" fill="#FDFEFF"/>
</g>
<defs>
<clipPath id="clip0_5964_20444">
<rect width="500" height="72.5564" fill="white" transform="translate(150 188.722)"/>
</clipPath>
</defs>
</svg>
