<svg width="747" height="297" viewBox="0 0 747 297" fill="none" xmlns="http://www.w3.org/2000/svg">
<rect y="0.230347" width="747" height="296" rx="20" fill="white"/>
<path d="M142.215 184.854L142.215 201.123C142.215 207.703 147.638 213.038 154.328 213.038H180.188C200.734 213.038 217.39 196.654 217.39 176.443L217.389 172.939C217.389 179.519 211.966 184.854 205.276 184.854H189.696C190.072 185.915 190.276 187.056 190.276 188.243C190.276 193.933 185.587 198.546 179.802 198.546C174.018 198.546 169.328 193.933 169.328 188.243C169.328 187.056 169.532 185.915 169.908 184.854H142.215Z" fill="#FBBF24"/>
<path d="M180.215 213.038H208.837C229.383 213.038 246.039 196.654 246.039 176.442V122.82C246.039 116.239 240.616 110.905 233.926 110.905H217.388V138.146C216.309 137.777 215.15 137.576 213.943 137.576C208.159 137.576 203.47 142.189 203.47 147.879C203.47 153.569 208.159 158.182 213.943 158.182C215.15 158.182 216.309 157.982 217.388 157.612V172.939L217.388 176.442C217.388 196.644 200.748 213.023 180.215 213.038Z" fill="#EA580C"/>
<path d="M217.391 110.905L217.391 94.6362C217.391 88.0554 211.967 82.7206 205.278 82.7206L179.418 82.7206C158.872 82.7206 142.216 99.105 142.216 119.316L142.216 122.82C142.216 116.239 147.639 110.905 154.329 110.905L169.909 110.905C169.534 109.843 169.33 108.703 169.33 107.516C169.33 101.826 174.019 97.2131 179.803 97.2131C185.588 97.2131 190.277 101.826 190.277 107.516C190.277 108.703 190.073 109.843 189.698 110.905L217.391 110.905Z" fill="#172554"/>
<path d="M179.372 82.7205C158.849 82.7479 142.221 99.1218 142.221 119.316L142.222 122.722C142.221 122.755 142.221 122.787 142.221 122.82V138.146C141.142 137.777 139.983 137.576 138.777 137.576C132.992 137.576 128.303 142.189 128.303 147.879C128.303 153.569 132.992 158.182 138.777 158.182C139.983 158.182 141.142 157.981 142.221 157.612V184.854L125.683 184.854C118.993 184.854 113.57 179.519 113.57 172.938V119.316C113.57 99.105 130.226 82.7205 150.772 82.7205H179.372Z" fill="#2563EB"/>
<path fill-rule="evenodd" clip-rule="evenodd" d="M184.481 151.937C187.907 150.249 190.259 146.764 190.259 142.738C190.259 137.059 185.578 132.455 179.805 132.455C174.032 132.455 169.352 137.059 169.352 142.738C169.352 146.764 171.703 150.249 175.129 151.937L169.352 163.304H190.259L184.481 151.937Z" fill="#172554"/>
<path d="M297.668 142.091C301.172 142.091 304.306 142.706 307.072 143.937C309.838 145.122 312.005 146.854 313.572 149.134C315.185 151.413 315.992 154.125 315.992 157.27H311.29C311.198 154.9 310.53 152.871 309.285 151.185C308.086 149.498 306.473 148.222 304.445 147.356C302.462 146.49 300.227 146.057 297.737 146.057C294.096 146.057 291.122 146.854 288.817 148.45C286.559 150.045 285.429 152.484 285.429 155.766C285.429 158 286.098 159.664 287.434 160.758C288.817 161.852 290.454 162.627 292.344 163.082L304.375 166.023C309.077 167.162 312.466 168.78 314.54 170.877C316.661 172.974 317.721 175.686 317.721 179.014C317.721 181.065 317.214 183.14 316.2 185.236C315.232 187.333 313.342 189.157 310.53 190.707C307.718 192.211 303.822 192.963 298.844 192.963C294.787 192.963 291.284 192.37 288.333 191.185C285.383 189.954 283.101 188.154 281.488 185.783C279.92 183.413 279.137 180.518 279.137 177.1V175.869H283.839V176.279C283.839 180.61 285.222 183.823 287.988 185.92C290.8 187.971 294.741 188.997 299.812 188.997C301.84 188.997 303.868 188.632 305.897 187.903C307.925 187.174 309.608 186.08 310.944 184.621C312.327 183.117 313.019 181.271 313.019 179.082C313.019 176.894 312.189 175.094 310.53 173.681C308.87 172.268 306.404 171.151 303.131 170.33L291.86 167.595C288.08 166.684 285.268 165.293 283.424 163.424C281.626 161.555 280.727 159.025 280.727 155.834C280.727 153.738 281.257 151.641 282.317 149.544C283.424 147.447 285.245 145.692 287.78 144.279C290.316 142.82 293.612 142.091 297.668 142.091Z" fill="#172554"/>
<path d="M338.111 155.629C346.824 155.629 351.18 159.413 351.18 166.98V185.715C351.18 187.447 352.033 188.313 353.738 188.313C354.199 188.313 354.66 188.222 355.121 188.04V191.664C354.199 191.846 353.277 191.937 352.356 191.937C350.465 191.937 349.129 191.481 348.345 190.57C347.561 189.658 347.169 188.131 347.169 185.989V185.783H347.031C345.833 187.607 344.611 189.043 343.366 190.091C342.122 191.14 340.739 191.869 339.218 192.279C337.742 192.735 336.014 192.963 334.032 192.963C331.634 192.963 329.537 192.575 327.739 191.801C325.941 190.98 324.535 189.795 323.521 188.245C322.553 186.695 322.069 184.826 322.069 182.638C322.069 179.265 323.245 176.735 325.596 175.048C326.84 174.182 328.431 173.476 330.367 172.929C332.349 172.382 335.368 171.903 339.425 171.493C341.499 171.265 342.998 171.037 343.92 170.809C344.842 170.581 345.556 170.148 346.063 169.51C346.57 168.872 346.824 167.869 346.824 166.501C346.824 163.948 346.04 162.102 344.473 160.963C342.905 159.823 340.577 159.253 337.489 159.253C334.539 159.253 332.234 159.96 330.574 161.373C328.915 162.74 328.039 164.769 327.947 167.458H323.59C323.821 163.584 325.181 160.644 327.67 158.638C330.159 156.632 333.64 155.629 338.111 155.629ZM346.685 172.655C346.409 173.111 345.902 173.476 345.164 173.749C344.473 173.977 343.482 174.182 342.191 174.365L340.047 174.706C337.051 175.071 334.861 175.436 333.478 175.8C331.312 176.347 329.583 177.1 328.292 178.057C327.048 179.014 326.425 180.45 326.425 182.365C326.425 183.732 326.794 184.963 327.532 186.057C328.269 187.105 329.237 187.926 330.436 188.518C331.634 189.065 332.948 189.339 334.377 189.339C336.728 189.339 338.849 188.883 340.739 187.971C342.629 187.014 344.104 185.715 345.164 184.074C346.271 182.387 346.824 180.473 346.824 178.33V172.655H346.685Z" fill="#172554"/>
<path d="M361.867 160.279H355.782V156.655H361.867V153.236C361.867 149.772 362.512 147.219 363.803 145.578C365.14 143.937 367.399 143.116 370.58 143.116C371.778 143.116 372.977 143.208 374.175 143.39V147.082C372.931 146.854 371.87 146.74 370.994 146.74C369.704 146.74 368.713 146.968 368.021 147.424C367.33 147.834 366.846 148.45 366.569 149.27C366.339 150.091 366.223 151.208 366.223 152.621V156.655H373.276V160.279H366.223V191.937H361.867V160.279Z" fill="#172554"/>
<path d="M391.378 155.629C394.651 155.629 397.463 156.427 399.814 158.023C402.165 159.618 403.963 161.852 405.208 164.723C406.452 167.55 407.075 170.786 407.075 174.433V175.459H379.623C379.669 177.875 380.13 180.154 381.006 182.296C381.882 184.393 383.196 186.102 384.948 187.424C386.699 188.701 388.843 189.339 391.378 189.339C394.283 189.339 396.68 188.587 398.57 187.083C400.506 185.533 401.843 183.276 402.58 180.313H406.936C405.922 184.598 404.124 187.789 401.543 189.886C399.008 191.937 395.619 192.963 391.378 192.963C387.875 192.963 384.925 192.188 382.527 190.638C380.13 189.043 378.31 186.832 377.065 184.006C375.866 181.179 375.267 177.943 375.267 174.296C375.267 170.968 375.843 167.892 376.996 165.065C378.194 162.193 379.992 159.914 382.389 158.228C384.832 156.495 387.829 155.629 391.378 155.629ZM402.718 171.835C402.626 169.601 402.119 167.527 401.197 165.612C400.275 163.698 398.961 162.171 397.256 161.031C395.55 159.846 393.568 159.253 391.309 159.253C389.235 159.253 387.368 159.778 385.708 160.826C384.095 161.829 382.758 163.288 381.698 165.202C380.637 167.071 379.946 169.282 379.623 171.835H402.718Z" fill="#172554"/>
<path d="M429.517 160.484C427.028 160.484 424.815 161.054 422.879 162.193C420.989 163.288 419.514 164.815 418.453 166.775C417.439 168.689 416.932 170.832 416.932 173.202V191.937H412.576V156.655H416.586V164.929H416.725C417.785 162.148 419.421 160.005 421.634 158.501C423.847 156.951 426.405 156.176 429.309 156.176H430.208V160.484H429.517Z" fill="#172554"/>
<path d="M459.487 178.467C459.487 181.84 459.003 184.598 458.035 186.741C457.113 188.838 455.592 190.41 453.471 191.459C451.397 192.462 448.631 192.963 445.174 192.963C440.518 192.963 437.037 191.595 434.733 188.86C432.474 186.125 431.344 181.977 431.344 176.416V176.279H436.046C436.046 179.06 436.3 181.362 436.807 183.185C437.36 185.008 438.328 186.444 439.711 187.493C441.14 188.496 443.099 188.997 445.589 188.997C447.894 188.997 449.691 188.61 450.982 187.835C452.319 187.06 453.287 185.783 453.886 184.006C454.486 182.228 454.785 179.789 454.785 176.689V143.116H459.487V178.467Z" fill="#172554"/>
<path d="M483.343 155.629C486.847 155.629 489.866 156.473 492.401 158.159C494.937 159.8 496.873 162.057 498.21 164.929C499.547 167.755 500.215 170.877 500.215 174.296C500.215 177.761 499.547 180.929 498.21 183.8C496.873 186.627 494.914 188.86 492.332 190.501C489.797 192.142 486.8 192.963 483.343 192.963C479.886 192.963 476.866 192.142 474.285 190.501C471.749 188.815 469.813 186.558 468.476 183.732C467.14 180.906 466.471 177.761 466.471 174.296C466.471 170.832 467.14 167.686 468.476 164.86C469.813 162.034 471.749 159.8 474.285 158.159C476.866 156.473 479.886 155.629 483.343 155.629ZM470.827 174.296C470.827 176.94 471.311 179.424 472.279 181.749C473.294 184.028 474.746 185.875 476.636 187.288C478.526 188.655 480.762 189.339 483.343 189.339C485.971 189.339 488.229 188.632 490.119 187.219C492.01 185.806 493.439 183.96 494.407 181.681C495.375 179.356 495.859 176.894 495.859 174.296C495.859 171.743 495.375 169.327 494.407 167.048C493.485 164.723 492.056 162.854 490.119 161.441C488.229 159.983 485.948 159.253 483.274 159.253C480.692 159.253 478.457 159.96 476.567 161.373C474.723 162.74 473.294 164.587 472.279 166.911C471.311 169.191 470.827 171.652 470.827 174.296Z" fill="#172554"/>
<path d="M510.633 178.741C510.633 180.974 510.887 182.866 511.394 184.416C511.947 185.966 512.915 187.174 514.298 188.04C515.681 188.906 517.617 189.339 520.106 189.339C522.503 189.339 524.509 188.701 526.122 187.424C527.735 186.102 528.934 184.37 529.718 182.228C530.501 180.04 530.893 177.669 530.893 175.117V156.655H535.249V191.937H531.239V185.578H531.101C529.948 187.903 528.289 189.726 526.122 191.048C523.955 192.325 521.512 192.963 518.792 192.963C514.459 192.963 511.278 191.823 509.25 189.544C507.268 187.219 506.277 183.892 506.277 179.561V156.655H510.633V178.741Z" fill="#172554"/>
<path d="M560.081 160.484C557.592 160.484 555.379 161.054 553.443 162.193C551.553 163.288 550.078 164.815 549.017 166.775C548.003 168.689 547.496 170.832 547.496 173.202V191.937H543.14V156.655H547.15V164.929H547.289C548.349 162.148 549.985 160.005 552.198 158.501C554.411 156.951 556.969 156.176 559.873 156.176H560.772V160.484H560.081Z" fill="#172554"/>
<path d="M580.509 155.629C585.027 155.629 588.323 156.723 590.397 158.911C592.471 161.099 593.509 164.473 593.509 169.031V191.937H589.152V169.852C589.152 166.342 588.415 163.698 586.94 161.92C585.465 160.142 583.183 159.253 580.094 159.253C577.651 159.253 575.576 159.846 573.871 161.031C572.211 162.171 570.967 163.698 570.137 165.612C569.307 167.481 568.892 169.51 568.892 171.698V191.937H564.536V156.655H568.892V162.74H569.031C569.584 161.327 570.436 160.097 571.589 159.048C572.741 157.954 574.078 157.111 575.599 156.518C577.167 155.926 578.803 155.629 580.509 155.629Z" fill="#172554"/>
<path d="M616.473 155.629C619.977 155.629 622.996 156.473 625.531 158.159C628.067 159.8 630.003 162.057 631.34 164.929C632.677 167.755 633.345 170.877 633.345 174.296C633.345 177.761 632.677 180.929 631.34 183.8C630.003 186.627 628.044 188.86 625.462 190.501C622.927 192.142 619.93 192.963 616.473 192.963C613.016 192.963 609.996 192.142 607.415 190.501C604.879 188.815 602.943 186.558 601.606 183.732C600.27 180.906 599.601 177.761 599.601 174.296C599.601 170.832 600.27 167.686 601.606 164.86C602.943 162.034 604.879 159.8 607.415 158.159C609.996 156.473 613.016 155.629 616.473 155.629ZM603.957 174.296C603.957 176.94 604.441 179.424 605.409 181.749C606.424 184.028 607.876 185.875 609.766 187.288C611.656 188.655 613.892 189.339 616.473 189.339C619.101 189.339 621.359 188.632 623.249 187.219C625.139 185.806 626.569 183.96 627.537 181.681C628.505 179.356 628.989 176.894 628.989 174.296C628.989 171.743 628.505 169.327 627.537 167.048C626.615 164.723 625.186 162.854 623.249 161.441C621.359 159.983 619.078 159.253 616.404 159.253C613.822 159.253 611.587 159.96 609.697 161.373C607.853 162.74 606.424 164.587 605.409 166.911C604.441 169.191 603.957 171.652 603.957 174.296Z" fill="#172554"/>
<path d="M284.712 128.582H279.109V103.387H284.712V128.582Z" fill="#172554"/>
<path d="M299.518 109.845C301.849 109.845 303.55 110.433 304.62 111.609C305.691 112.785 306.226 114.655 306.226 117.219V128.582H301.159V118.243C301.159 116.714 300.909 115.596 300.41 114.891C299.91 114.161 299.078 113.797 297.912 113.797C296.889 113.797 296.092 114.008 295.521 114.432C294.95 114.855 294.546 115.455 294.308 116.231C294.094 116.984 293.987 117.937 293.987 119.09V128.582H288.92V110.339H293.737V112.879H293.844C294.439 111.915 295.236 111.174 296.235 110.656C297.234 110.115 298.328 109.845 299.518 109.845Z" fill="#172554"/>
<path d="M316.317 110.339H320.028V113.691H316.317V122.724C316.317 123.312 316.376 123.759 316.495 124.065C316.614 124.347 316.816 124.547 317.102 124.665C317.411 124.782 317.863 124.841 318.458 124.841C319.124 124.841 319.647 124.794 320.028 124.7V128.617C319.314 128.734 318.315 128.793 317.03 128.793C315.032 128.793 313.569 128.464 312.641 127.805C311.713 127.123 311.249 125.982 311.249 124.383V113.691H308.181V110.339H311.249V104.869H316.317V110.339Z" fill="#172554"/>
<path d="M330.614 109.845C332.494 109.845 334.111 110.292 335.467 111.186C336.823 112.056 337.846 113.244 338.536 114.749C339.25 116.255 339.606 117.925 339.606 119.76L339.571 120.678H326.261C326.332 122.254 326.737 123.418 327.474 124.171C328.212 124.924 329.306 125.3 330.757 125.3C331.375 125.3 331.97 125.194 332.541 124.982C333.112 124.771 333.6 124.488 334.004 124.136C334.409 123.759 334.67 123.359 334.789 122.936H339.25C338.584 125.006 337.525 126.547 336.074 127.558C334.646 128.57 332.827 129.076 330.614 129.076C328.687 129.076 327.01 128.676 325.583 127.876C324.179 127.053 323.097 125.912 322.336 124.453C321.574 122.995 321.194 121.336 321.194 119.478C321.194 117.666 321.586 116.032 322.371 114.573C323.18 113.091 324.298 111.938 325.726 111.115C327.153 110.268 328.782 109.845 330.614 109.845ZM334.504 117.502C334.266 116.137 333.826 115.149 333.183 114.538C332.541 113.926 331.625 113.62 330.436 113.62C329.223 113.62 328.247 113.961 327.51 114.644C326.796 115.326 326.38 116.279 326.261 117.502H334.504Z" fill="#172554"/>
<path d="M353.174 109.845C353.483 109.845 353.852 109.904 354.28 110.021V114.679C353.733 114.561 353.126 114.502 352.46 114.502C350.724 114.502 349.451 115.032 348.642 116.09C347.857 117.125 347.465 118.549 347.465 120.36V128.582H342.398V110.339H347.215V113.726H347.286C347.596 112.973 348.048 112.303 348.642 111.715C349.261 111.127 349.963 110.668 350.748 110.339C351.533 110.009 352.341 109.845 353.174 109.845Z" fill="#172554"/>
<path d="M366.686 109.845C369.018 109.845 370.719 110.433 371.789 111.609C372.86 112.785 373.395 114.655 373.395 117.219V128.582H368.328V118.243C368.328 116.714 368.078 115.596 367.579 114.891C367.079 114.161 366.246 113.797 365.081 113.797C364.058 113.797 363.261 114.008 362.69 114.432C362.119 114.855 361.715 115.455 361.477 116.231C361.263 116.984 361.155 117.937 361.155 119.09V128.582H356.088V110.339H360.906V112.879H361.013C361.607 111.915 362.404 111.174 363.404 110.656C364.403 110.115 365.497 109.845 366.686 109.845Z" fill="#172554"/>
<path d="M385.591 109.845C387.47 109.845 389.088 110.292 390.444 111.186C391.8 112.056 392.823 113.244 393.512 114.749C394.226 116.255 394.583 117.925 394.583 119.76L394.547 120.678H381.237C381.309 122.254 381.713 123.418 382.45 124.171C383.188 124.924 384.282 125.3 385.733 125.3C386.352 125.3 386.947 125.194 387.518 124.982C388.089 124.771 388.576 124.488 388.981 124.136C389.385 123.759 389.647 123.359 389.766 122.936H394.226C393.56 125.006 392.501 126.547 391.05 127.558C389.623 128.57 387.803 129.076 385.591 129.076C383.664 129.076 381.987 128.676 380.559 127.876C379.156 127.053 378.073 125.912 377.312 124.453C376.551 122.995 376.17 121.336 376.17 119.478C376.17 117.666 376.563 116.032 377.348 114.573C378.157 113.091 379.275 111.938 380.702 111.115C382.129 110.268 383.759 109.845 385.591 109.845ZM389.48 117.502C389.242 116.137 388.802 115.149 388.16 114.538C387.518 113.926 386.602 113.62 385.412 113.62C384.199 113.62 383.224 113.961 382.486 114.644C381.773 115.326 381.356 116.279 381.237 117.502H389.48Z" fill="#172554"/>
<path d="M404.404 122.724H404.475L407.544 110.339H412.468L415.608 122.689H415.68L419.07 110.339H424.279L418.463 128.582H413.253L409.97 116.337H409.899L406.759 128.582H401.513L395.661 110.339H401.014L404.404 122.724Z" fill="#172554"/>
<path d="M433.823 109.845C436.321 109.845 438.26 110.351 439.64 111.362C441.019 112.35 441.793 113.785 441.959 115.667H437.142C437.07 114.797 436.737 114.173 436.143 113.797C435.572 113.397 434.751 113.197 433.68 113.197C431.801 113.197 430.861 113.761 430.861 114.891C430.861 115.291 430.992 115.632 431.254 115.914C431.516 116.173 431.932 116.408 432.503 116.62C433.074 116.831 433.847 117.031 434.822 117.219C436.63 117.572 437.974 117.913 438.855 118.243C439.735 118.572 440.46 118.972 441.031 119.443C441.983 120.289 442.459 121.383 442.459 122.724C442.459 124.206 442.066 125.429 441.281 126.394C440.52 127.335 439.509 128.017 438.248 128.44C436.987 128.864 435.584 129.076 434.037 129.076C432.324 129.076 430.826 128.84 429.541 128.37C428.28 127.876 427.281 127.158 426.544 126.217C425.806 125.253 425.414 124.065 425.366 122.654H430.183C430.183 123.642 430.552 124.406 431.29 124.947C432.027 125.465 432.955 125.723 434.073 125.723C435.001 125.723 435.786 125.523 436.428 125.124C437.07 124.724 437.392 124.147 437.392 123.395C437.392 122.948 437.201 122.571 436.821 122.265C436.464 121.96 435.893 121.677 435.108 121.419C434.323 121.16 433.228 120.889 431.825 120.607C430.374 120.301 429.208 119.937 428.328 119.513C427.471 119.09 426.829 118.572 426.401 117.961C425.997 117.325 425.794 116.573 425.794 115.702C425.794 113.773 426.472 112.315 427.828 111.327C429.208 110.339 431.206 109.845 433.823 109.845Z" fill="#172554"/>
</svg>
