<svg width="310" height="157" viewBox="0 0 310 157" fill="none" xmlns="http://www.w3.org/2000/svg">
<g clip-path="url(#clip0_4860_4349)">
<rect x="228.203" y="130.145" width="26.9443" height="64.6191" rx="13.4721" transform="rotate(90 228.203 130.145)" fill="#EA580C"/>
<path d="M13.4721 157.089C6.03169 157.089 -1.72477e-06 151.058 -3.85239e-06 143.617C-5.98e-06 136.177 6.03168 130.145 13.4721 130.145L50.3777 130.145C57.8182 130.145 63.8499 136.177 63.8499 143.617C63.8499 151.058 57.8182 157.089 50.3777 157.089L13.4721 157.089Z" fill="#2563EB"/>
<rect x="246.145" y="157.089" width="26.9443" height="63.8499" rx="13.4721" transform="rotate(-90 246.145 157.089)" fill="#FBBF24"/>
<rect x="145.641" y="130.145" width="26.9443" height="63.8499" rx="13.4721" transform="rotate(90 145.641 130.145)" fill="#172554"/>
<path d="M0 16.0755C0 7.57829 6.88833 0.689941 15.3855 0.689941H294.615C303.112 0.689941 310 7.57827 310 16.0755V94.5226C310 103.02 303.112 109.908 294.614 109.908H15.3855C6.88832 109.908 0 103.02 0 94.5226V16.0755Z" fill="#172554"/>
<path d="M72.4172 27.2994C72.43 27.2993 72.4428 27.2992 72.4557 27.2992H60.2883C51.5471 27.2992 44.4609 34.3484 44.4609 43.0441V66.1145C44.4609 68.9458 46.7682 71.241 49.6143 71.241L56.6503 71.241V59.5204C56.1913 59.6794 55.6982 59.7658 55.1848 59.7658C52.7238 59.7658 50.7288 57.7811 50.7288 55.333C50.7288 52.8848 52.7238 50.9002 55.1848 50.9002C55.6982 50.9002 56.1913 50.9866 56.6503 51.1455C56.6503 48.8955 56.6507 46.6456 56.6504 44.3956C56.7334 41.6365 59.0078 39.4251 61.8015 39.4251H68.43C68.2702 38.9686 68.1834 38.478 68.1834 37.9673C68.1834 35.5191 70.1784 33.5345 72.6393 33.5345C75.1003 33.5345 77.0953 35.5191 77.0953 37.9673C77.0953 38.478 77.0085 38.9686 76.8487 39.4251L88.6306 39.4251L88.6306 32.4258C88.6306 29.5945 86.3233 27.2993 83.4772 27.2993L72.4752 27.2993C72.4559 27.2993 72.4365 27.2993 72.4172 27.2994Z" fill="white"/>
<path d="M72.8589 83.3668C72.8442 83.3668 72.8294 83.3669 72.8146 83.3669H72.8379C72.8334 83.3669 72.8289 83.3669 72.8244 83.3669L84.9918 83.3669C92.6404 83.3669 99.0218 77.9698 100.498 70.7951C100.708 69.7702 100.819 68.709 100.819 67.622V44.5516C100.819 44.1977 100.783 43.8522 100.714 43.5185C100.234 41.1824 98.1562 39.4251 95.6658 39.4251H88.6297V51.1456C88.1708 50.9866 87.6776 50.9003 87.1642 50.9003C84.7032 50.9003 82.7082 52.8849 82.7082 55.333C82.7082 57.7812 84.7032 59.7658 87.1642 59.7658C87.6776 59.7658 88.1708 59.6794 88.6297 59.5205L88.6296 66.2706C88.5467 69.0296 86.2722 71.241 83.4786 71.241H76.8501C77.0099 71.6976 77.0967 72.1881 77.0967 72.6989C77.0967 75.147 75.1017 77.1316 72.6407 77.1316C70.1797 77.1316 68.1847 75.147 68.1847 72.6988C68.1847 72.1881 68.2716 71.6976 68.4313 71.241H56.6495L56.6495 78.2403C56.6495 81.0716 58.9568 83.3668 61.8029 83.3669H72.8048C72.8242 83.3669 72.8435 83.3668 72.8629 83.3667L72.8589 83.3668Z" fill="white"/>
<path d="M74.6286 57.0789C76.0861 56.3526 77.0867 54.853 77.0867 53.1209C77.0867 50.6775 75.0955 48.6967 72.6393 48.6967C70.1831 48.6967 68.1919 50.6775 68.1919 53.1209C68.1919 54.853 69.1924 56.3526 70.6499 57.0789L68.1919 61.9694H77.0867L74.6286 57.0789Z" fill="white"/>
<path d="M72.418 27.3423C72.4307 27.3422 72.4434 27.3422 72.4562 27.3422H60.37C51.6872 27.3422 44.6484 34.3806 44.6484 43.0629V66.098C44.6484 68.9249 46.9403 71.2166 49.7674 71.2166L56.7564 71.2166V59.514C56.3005 59.6727 55.8106 59.759 55.3006 59.759C52.8561 59.759 50.8744 57.7774 50.8744 55.333C50.8744 52.8886 52.8561 50.907 55.3006 50.907C55.8106 50.907 56.3005 50.9933 56.7564 51.152C56.7564 48.9054 56.7568 46.6589 56.7565 44.4123C56.8389 41.6575 59.0982 39.4495 61.8731 39.4495H68.4574C68.2987 38.9936 68.2124 38.5038 68.2124 37.9939C68.2124 35.5495 70.1941 33.5679 72.6386 33.5679C75.0832 33.5679 77.0649 35.5495 77.0649 37.9939C77.0649 38.5038 76.9786 38.9936 76.8199 39.4495L88.5231 39.4495L88.5231 32.4609C88.5231 29.6339 86.2312 27.3422 83.4041 27.3422L72.4756 27.3422C72.4564 27.3422 72.4372 27.3422 72.418 27.3423Z" fill="white"/>
<path d="M72.8568 83.3238C72.8421 83.3239 72.8274 83.3239 72.8128 83.3239H72.8359C72.8314 83.324 72.8269 83.324 72.8224 83.324L84.9086 83.3239C92.5061 83.3239 98.8449 77.9352 100.311 70.7715C100.52 69.7481 100.63 68.6885 100.63 67.6032V44.5682C100.63 44.2148 100.594 43.8698 100.526 43.5366C100.049 41.2041 97.985 39.4495 95.5113 39.4495H88.5222V51.152C88.0663 50.9933 87.5765 50.9071 87.0665 50.9071C84.6219 50.9071 82.6402 52.8886 82.6402 55.333C82.6402 57.7775 84.6219 59.759 87.0665 59.759C87.5765 59.759 88.0663 59.6728 88.5222 59.5141L88.5221 66.2538C88.4397 69.0087 86.1805 71.2166 83.4055 71.2166H76.8213C76.98 71.6725 77.0662 72.1623 77.0662 72.6723C77.0662 75.1167 75.0845 77.0982 72.64 77.0982C70.1955 77.0982 68.2138 75.1167 68.2138 72.6723C68.2138 72.1623 68.3 71.6725 68.4587 71.2166H56.7556L56.7556 78.2052C56.7556 81.0322 59.0474 83.3239 61.8746 83.3239H72.803C72.8222 83.3239 72.8415 83.3239 72.8607 83.3238L72.8568 83.3238Z" fill="white"/>
<path d="M74.6146 57.0763C76.0624 56.351 77.0562 54.8537 77.0562 53.1243C77.0562 50.6846 75.0784 48.7069 72.6386 48.7069C70.1988 48.7069 68.2209 50.6846 68.2209 53.1243C68.2209 54.8537 69.2148 56.351 70.6625 57.0763L68.2209 61.9592H77.0562L74.6146 57.0763Z" fill="white"/>
<path d="M122.79 52.739C124.281 52.739 125.614 53.0037 126.791 53.5333C127.968 54.0432 128.89 54.7885 129.557 55.7691C130.243 56.7497 130.586 57.9166 130.586 59.2698H128.586C128.547 58.25 128.262 57.3773 127.733 56.6516C127.223 55.926 126.536 55.3768 125.673 55.0042C124.83 54.6316 123.879 54.4452 122.82 54.4452C121.27 54.4452 120.005 54.7885 119.025 55.4749C118.064 56.1613 117.583 57.2106 117.583 58.6226C117.583 59.5836 117.868 60.2995 118.436 60.7702C119.025 61.2409 119.721 61.5743 120.525 61.7704L125.644 63.0354C127.644 63.5257 129.086 64.2219 129.968 65.1241C130.871 66.0262 131.322 67.1931 131.322 68.6248C131.322 69.5074 131.106 70.3997 130.674 71.3019C130.263 72.2041 129.458 72.9885 128.262 73.6553C127.066 74.3025 125.409 74.6262 123.29 74.6262C121.565 74.6262 120.074 74.3712 118.819 73.8613C117.564 73.3317 116.593 72.5571 115.906 71.5372C115.24 70.5174 114.906 69.272 114.906 67.8011V67.2716H116.907V67.4481C116.907 69.3113 117.495 70.6939 118.672 71.5961C119.868 72.4786 121.545 72.9199 123.702 72.9199C124.565 72.9199 125.428 72.763 126.291 72.4492C127.154 72.1354 127.87 71.6647 128.439 71.0371C129.027 70.3899 129.321 69.5956 129.321 68.6542C129.321 67.7129 128.968 66.9382 128.262 66.3302C127.556 65.7222 126.507 65.2417 125.114 64.8887L120.319 63.712C118.711 63.3197 117.515 62.7216 116.73 61.9175C115.965 61.1134 115.583 60.0249 115.583 58.652C115.583 57.7499 115.808 56.8477 116.259 55.9456C116.73 55.0434 117.505 54.2883 118.584 53.6804C119.662 53.0528 121.064 52.739 122.79 52.739Z" fill="white"/>
<path d="M139.997 58.5638C143.703 58.5638 145.557 60.1916 145.557 63.4472V71.5078C145.557 72.2531 145.919 72.6257 146.645 72.6257C146.841 72.6257 147.037 72.5865 147.233 72.508V74.0672C146.841 74.1457 146.449 74.1849 146.057 74.1849C145.253 74.1849 144.684 73.9888 144.35 73.5965C144.017 73.2043 143.85 72.5473 143.85 71.6255V71.5372H143.792C143.282 72.3217 142.762 72.9395 142.232 73.3906C141.703 73.8417 141.114 74.1555 140.467 74.332C139.84 74.5281 139.104 74.6262 138.261 74.6262C137.241 74.6262 136.349 74.4594 135.584 74.126C134.819 73.773 134.221 73.2631 133.789 72.5963C133.377 71.9295 133.172 71.1254 133.172 70.184C133.172 68.7327 133.672 67.6442 134.672 66.9186C135.201 66.5459 135.878 66.242 136.702 66.0066C137.545 65.7713 138.83 65.5653 140.556 65.3888C141.438 65.2908 142.075 65.1927 142.468 65.0946C142.86 64.9966 143.164 64.8103 143.38 64.5357C143.595 64.2611 143.703 63.8297 143.703 63.2413C143.703 62.143 143.37 61.3487 142.703 60.8584C142.036 60.3681 141.046 60.123 139.732 60.123C138.477 60.123 137.496 60.4269 136.79 61.0349C136.084 61.6233 135.711 62.496 135.672 63.6531H133.819C133.917 61.9861 134.495 60.7211 135.554 59.8582C136.613 58.9953 138.094 58.5638 139.997 58.5638ZM143.644 65.8889C143.527 66.0851 143.311 66.242 142.997 66.3596C142.703 66.4577 142.281 66.5459 141.732 66.6244L140.82 66.7715C139.545 66.9284 138.614 67.0853 138.026 67.2422C137.104 67.4775 136.368 67.8011 135.819 68.213C135.29 68.6248 135.025 69.2426 135.025 70.0663C135.025 70.6547 135.182 71.1842 135.496 71.6549C135.809 72.106 136.221 72.459 136.731 72.714C137.241 72.9493 137.8 73.067 138.408 73.067C139.408 73.067 140.31 72.8709 141.114 72.4786C141.919 72.0668 142.546 71.5078 142.997 70.8018C143.468 70.0761 143.703 69.2524 143.703 68.3306V65.8889H143.644Z" fill="white"/>
<path d="M150.103 60.5642H147.515V59.0051H150.103V57.5342C150.103 56.0436 150.378 54.9454 150.927 54.2393C151.496 53.5333 152.457 53.1803 153.81 53.1803C154.32 53.1803 154.83 53.2195 155.34 53.2979V54.8865C154.81 54.7885 154.359 54.7394 153.987 54.7394C153.437 54.7394 153.016 54.8375 152.722 55.0336C152.427 55.2101 152.221 55.4749 152.104 55.8279C152.006 56.1809 151.957 56.6614 151.957 57.2694V59.0051H154.957V60.5642H151.957V74.1849H150.103V60.5642Z" fill="white"/>
<path d="M162.659 58.5638C164.051 58.5638 165.248 58.907 166.248 59.5934C167.248 60.2799 168.013 61.2409 168.542 62.4764C169.072 63.6924 169.337 65.0848 169.337 66.6538V67.0951H157.658C157.677 68.1345 157.873 69.1151 158.246 70.0369C158.619 70.9391 159.178 71.6745 159.923 72.2433C160.668 72.7924 161.58 73.067 162.659 73.067C163.894 73.067 164.914 72.7434 165.718 72.0962C166.542 71.4294 167.111 70.4586 167.424 69.1838H169.278C168.846 71.0273 168.081 72.4002 166.983 73.3023C165.905 74.1849 164.463 74.6262 162.659 74.6262C161.168 74.6262 159.913 74.2927 158.893 73.6259C157.873 72.9395 157.099 71.9883 156.569 70.7724C156.059 69.5564 155.804 68.1639 155.804 66.595C155.804 65.1633 156.049 63.8395 156.54 62.6235C157.05 61.3879 157.815 60.4073 158.834 59.6817C159.874 58.9364 161.149 58.5638 162.659 58.5638ZM167.483 65.5359C167.444 64.5749 167.228 63.6826 166.836 62.8589C166.444 62.0351 165.885 61.3781 165.159 60.8878C164.434 60.3779 163.59 60.123 162.629 60.123C161.747 60.123 160.952 60.3485 160.246 60.7996C159.56 61.231 158.991 61.8586 158.54 62.6823C158.089 63.4864 157.795 64.4376 157.658 65.5359H167.483Z" fill="white"/>
<path d="M178.884 60.6525C177.825 60.6525 176.884 60.8976 176.06 61.3879C175.256 61.8586 174.629 62.5156 174.178 63.359C173.746 64.1827 173.53 65.1044 173.53 66.1243V74.1849H171.677V59.0051H173.383V62.5647H173.442C173.893 61.3683 174.589 60.4466 175.531 59.7994C176.472 59.1325 177.561 58.7991 178.796 58.7991H179.179V60.6525H178.884Z" fill="white"/>
<path d="M191.635 68.3895C191.635 69.8408 191.429 71.0273 191.017 71.9491C190.625 72.8513 189.978 73.5279 189.076 73.9789C188.193 74.4104 187.017 74.6262 185.546 74.6262C183.565 74.6262 182.084 74.0378 181.103 72.8611C180.142 71.6843 179.662 69.8996 179.662 67.5069V67.4481H181.662C181.662 68.6444 181.77 69.6349 181.986 70.4193C182.221 71.2038 182.633 71.8216 183.222 72.2727C183.83 72.7042 184.663 72.9199 185.722 72.9199C186.703 72.9199 187.468 72.7532 188.017 72.4198C188.586 72.0864 188.997 71.5372 189.252 70.7724C189.507 70.0075 189.635 68.9582 189.635 67.6246V53.1803H191.635V68.3895Z" fill="white"/>
<path d="M201.785 58.5638C203.275 58.5638 204.56 58.9266 205.638 59.6523C206.717 60.3583 207.541 61.3291 208.109 62.5647C208.678 63.7806 208.963 65.1241 208.963 66.595C208.963 68.0855 208.678 69.4485 208.109 70.6841C207.541 71.9001 206.707 72.8611 205.609 73.5671C204.53 74.2731 203.255 74.6262 201.785 74.6262C200.314 74.6262 199.029 74.2731 197.931 73.5671C196.852 72.8414 196.028 71.8706 195.46 70.6547C194.891 69.4387 194.606 68.0855 194.606 66.595C194.606 65.1044 194.891 63.7512 195.46 62.5353C196.028 61.3193 196.852 60.3583 197.931 59.6523C199.029 58.9266 200.314 58.5638 201.785 58.5638ZM196.46 66.595C196.46 67.7325 196.666 68.8013 197.078 69.8016C197.509 70.7822 198.127 71.5765 198.931 72.1844C199.735 72.7728 200.686 73.067 201.785 73.067C202.902 73.067 203.863 72.763 204.667 72.155C205.472 71.547 206.08 70.7528 206.491 69.7721C206.903 68.7719 207.109 67.7129 207.109 66.595C207.109 65.4967 206.903 64.4572 206.491 63.4766C206.099 62.4764 205.491 61.6723 204.667 61.0643C203.863 60.4368 202.893 60.123 201.755 60.123C200.657 60.123 199.706 60.4269 198.902 61.0349C198.117 61.6233 197.509 62.4176 197.078 63.4178C196.666 64.3984 196.46 65.4575 196.46 66.595Z" fill="white"/>
<path d="M213.395 68.5072C213.395 69.4682 213.503 70.2821 213.718 70.9489C213.954 71.6157 214.366 72.1354 214.954 72.508C215.542 72.8807 216.366 73.067 217.425 73.067C218.445 73.067 219.298 72.7924 219.985 72.2433C220.671 71.6745 221.181 70.9293 221.514 70.0075C221.848 69.0661 222.014 68.0463 222.014 66.948V59.0051H223.868V74.1849H222.161V71.449H222.103C221.612 72.4492 220.906 73.2337 219.985 73.8024C219.063 74.3516 218.023 74.6262 216.866 74.6262C215.023 74.6262 213.669 74.1358 212.806 73.1552C211.963 72.155 211.541 70.7233 211.541 68.8602V59.0051H213.395V68.5072Z" fill="white"/>
<path d="M234.432 60.6525C233.373 60.6525 232.432 60.8976 231.608 61.3879C230.804 61.8586 230.176 62.5156 229.725 63.359C229.294 64.1827 229.078 65.1044 229.078 66.1243V74.1849H227.225V59.0051H228.931V62.5647H228.99C229.441 61.3683 230.137 60.4466 231.078 59.7994C232.02 59.1325 233.108 58.7991 234.344 58.7991H234.726V60.6525H234.432Z" fill="white"/>
<path d="M243.123 58.5638C245.045 58.5638 246.447 59.0345 247.33 59.9759C248.212 60.9173 248.654 62.3686 248.654 64.3298V74.1849H246.8V64.6828C246.8 63.1727 246.487 62.0351 245.859 61.2703C245.231 60.5054 244.261 60.123 242.947 60.123C241.907 60.123 241.025 60.3779 240.299 60.8878C239.593 61.3781 239.063 62.0351 238.71 62.8589C238.357 63.663 238.181 64.5357 238.181 65.4771V74.1849H236.327V59.0051H238.181V61.6233H238.24C238.475 61.0153 238.838 60.4858 239.328 60.0347C239.818 59.564 240.387 59.2012 241.034 58.9462C241.701 58.6913 242.397 58.5638 243.123 58.5638Z" fill="white"/>
<path d="M258.424 58.5638C259.914 58.5638 261.199 58.9266 262.278 59.6523C263.356 60.3583 264.18 61.3291 264.749 62.5647C265.317 63.7806 265.602 65.1241 265.602 66.595C265.602 68.0855 265.317 69.4485 264.749 70.6841C264.18 71.9001 263.346 72.8611 262.248 73.5671C261.169 74.2731 259.895 74.6262 258.424 74.6262C256.953 74.6262 255.668 74.2731 254.57 73.5671C253.491 72.8414 252.668 71.8706 252.099 70.6547C251.53 69.4387 251.246 68.0855 251.246 66.595C251.246 65.1044 251.53 63.7512 252.099 62.5353C252.668 61.3193 253.491 60.3583 254.57 59.6523C255.668 58.9266 256.953 58.5638 258.424 58.5638ZM253.099 66.595C253.099 67.7325 253.305 68.8013 253.717 69.8016C254.148 70.7822 254.766 71.5765 255.57 72.1844C256.374 72.7728 257.326 73.067 258.424 73.067C259.542 73.067 260.503 72.763 261.307 72.155C262.111 71.547 262.719 70.7528 263.131 69.7721C263.543 68.7719 263.748 67.7129 263.748 66.595C263.748 65.4967 263.543 64.4572 263.131 63.4766C262.738 62.4764 262.13 61.6723 261.307 61.0643C260.503 60.4368 259.532 60.123 258.394 60.123C257.296 60.123 256.345 60.4269 255.541 61.0349C254.756 61.6233 254.148 62.4176 253.717 63.4178C253.305 64.3984 253.099 65.4575 253.099 66.595Z" fill="white"/>
<path d="M117.278 46.9268H114.895V36.0873H117.278V46.9268Z" fill="white"/>
<path d="M123.577 38.8655C124.569 38.8655 125.293 39.1186 125.748 39.6246C126.203 40.1306 126.431 40.9353 126.431 42.0384V46.9268H124.275V42.4787C124.275 41.8208 124.169 41.3401 123.957 41.0365C123.744 40.7227 123.39 40.5658 122.894 40.5658C122.459 40.5658 122.12 40.6569 121.877 40.8391C121.634 41.0213 121.462 41.2794 121.361 41.6134C121.27 41.9372 121.224 42.3471 121.224 42.843V46.9268H119.068V39.0781H121.118V40.1711H121.163C121.416 39.7562 121.755 39.4374 122.18 39.2147C122.605 38.9819 123.071 38.8655 123.577 38.8655Z" fill="white"/>
<path d="M130.724 39.0781H132.303V40.5203H130.724V44.4067C130.724 44.6597 130.749 44.852 130.8 44.9836C130.851 45.1051 130.937 45.1911 131.058 45.2417C131.19 45.2923 131.382 45.3176 131.635 45.3176C131.918 45.3176 132.141 45.2974 132.303 45.2569V46.942C131.999 46.9926 131.574 47.0179 131.028 47.0179C130.178 47.0179 129.555 46.8762 129.16 46.5928C128.766 46.2993 128.568 45.8085 128.568 45.1202V40.5203H127.263V39.0781H128.568V36.725H130.724V39.0781Z" fill="white"/>
<path d="M136.807 38.8655C137.606 38.8655 138.295 39.0578 138.872 39.4424C139.448 39.8169 139.884 40.328 140.177 40.9757C140.481 41.6235 140.633 42.3421 140.633 43.1315L140.617 43.5262H134.955C134.985 44.2043 135.157 44.7053 135.471 45.0292C135.785 45.353 136.25 45.515 136.868 45.515C137.131 45.515 137.384 45.4694 137.627 45.3783C137.87 45.2872 138.077 45.1658 138.249 45.014C138.421 44.852 138.533 44.68 138.583 44.4978H140.481C140.197 45.3885 139.747 46.0514 139.13 46.4866C138.522 46.9218 137.748 47.1394 136.807 47.1394C135.987 47.1394 135.274 46.9673 134.666 46.6232C134.069 46.269 133.609 45.7781 133.285 45.1506C132.961 44.5231 132.799 43.8096 132.799 43.01C132.799 42.2307 132.966 41.5273 133.3 40.8998C133.644 40.2622 134.12 39.7663 134.727 39.4121C135.334 39.0477 136.028 38.8655 136.807 38.8655ZM138.462 42.1599C138.36 41.5729 138.173 41.1478 137.9 40.8847C137.627 40.6215 137.237 40.4899 136.731 40.4899C136.215 40.4899 135.8 40.6367 135.486 40.9302C135.183 41.2237 135.005 41.6336 134.955 42.1599H138.462Z" fill="white"/>
<path d="M146.405 38.8655C146.536 38.8655 146.693 38.8908 146.875 38.9414V40.9454C146.643 40.8948 146.385 40.8695 146.101 40.8695C145.362 40.8695 144.821 41.0972 144.477 41.5526C144.143 41.998 143.976 42.6103 143.976 43.3896V46.9268H141.82V39.0781H143.87V40.5355H143.9C144.032 40.2116 144.224 39.9232 144.477 39.6701C144.74 39.4171 145.039 39.2198 145.373 39.0781C145.707 38.9364 146.051 38.8655 146.405 38.8655Z" fill="white"/>
<path d="M152.154 38.8655C153.145 38.8655 153.869 39.1186 154.325 39.6246C154.78 40.1306 155.008 40.9353 155.008 42.0384V46.9268H152.852V42.4787C152.852 41.8208 152.746 41.3401 152.533 41.0365C152.321 40.7227 151.966 40.5658 151.47 40.5658C151.035 40.5658 150.696 40.6569 150.453 40.8391C150.21 41.0213 150.038 41.2794 149.937 41.6134C149.846 41.9372 149.801 42.3471 149.801 42.843V46.9268H147.645V39.0781H149.694V40.1711H149.74C149.993 39.7562 150.332 39.4374 150.757 39.2147C151.182 38.9819 151.648 38.8655 152.154 38.8655Z" fill="white"/>
<path d="M160.196 38.8655C160.996 38.8655 161.684 39.0578 162.261 39.4424C162.838 39.8169 163.273 40.328 163.567 40.9757C163.87 41.6235 164.022 42.3421 164.022 43.1315L164.007 43.5262H158.344C158.375 44.2043 158.547 44.7053 158.86 45.0292C159.174 45.353 159.64 45.515 160.257 45.515C160.52 45.515 160.773 45.4694 161.016 45.3783C161.259 45.2872 161.466 45.1658 161.639 45.014C161.811 44.852 161.922 44.68 161.973 44.4978H163.87C163.587 45.3885 163.136 46.0514 162.519 46.4866C161.912 46.9218 161.138 47.1394 160.196 47.1394C159.377 47.1394 158.663 46.9673 158.056 46.6232C157.459 46.269 156.998 45.7781 156.674 45.1506C156.35 44.5231 156.188 43.8096 156.188 43.01C156.188 42.2307 156.355 41.5273 156.689 40.8998C157.034 40.2622 157.509 39.7663 158.116 39.4121C158.724 39.0477 159.417 38.8655 160.196 38.8655ZM161.851 42.1599C161.75 41.5729 161.563 41.1478 161.289 40.8847C161.016 40.6215 160.626 40.4899 160.12 40.4899C159.604 40.4899 159.189 40.6367 158.876 40.9302C158.572 41.2237 158.395 41.6336 158.344 42.1599H161.851Z" fill="white"/>
<path d="M168.2 44.4067H168.231L169.536 39.0781H171.631L172.967 44.3915H172.998L174.44 39.0781H176.656L174.182 46.9268H171.965L170.568 41.6589H170.538L169.202 46.9268H166.971L164.481 39.0781H166.758L168.2 44.4067Z" fill="white"/>
<path d="M180.717 38.8655C181.779 38.8655 182.604 39.0831 183.191 39.5183C183.778 39.9434 184.107 40.5608 184.178 41.3705H182.128C182.098 40.996 181.956 40.7278 181.703 40.5658C181.46 40.3938 181.111 40.3078 180.656 40.3078C179.856 40.3078 179.456 40.5507 179.456 41.0365C179.456 41.2085 179.512 41.3553 179.623 41.4767C179.735 41.5881 179.912 41.6893 180.155 41.7804C180.398 41.8714 180.727 41.9575 181.142 42.0384C181.911 42.1902 182.483 42.337 182.857 42.4787C183.232 42.6204 183.54 42.7924 183.783 42.9949C184.188 43.3592 184.39 43.8298 184.39 44.4067C184.39 45.0443 184.223 45.5706 183.889 45.9856C183.566 46.3904 183.135 46.6839 182.599 46.8661C182.063 47.0483 181.465 47.1394 180.808 47.1394C180.079 47.1394 179.441 47.0382 178.895 46.8357C178.358 46.6232 177.933 46.3145 177.62 45.9097C177.306 45.4947 177.139 44.9836 177.119 44.3764H179.168C179.168 44.8014 179.325 45.1304 179.639 45.3632C179.952 45.5858 180.347 45.6971 180.823 45.6971C181.217 45.6971 181.551 45.6111 181.825 45.4391C182.098 45.267 182.235 45.019 182.235 44.6952C182.235 44.5029 182.154 44.3409 181.992 44.2094C181.84 44.0778 181.597 43.9563 181.263 43.845C180.929 43.7337 180.463 43.6173 179.866 43.4958C179.249 43.3643 178.753 43.2074 178.379 43.0252C178.014 42.843 177.741 42.6204 177.559 42.3572C177.387 42.084 177.301 41.7601 177.301 41.3856C177.301 40.5557 177.589 39.9282 178.166 39.5031C178.753 39.0781 179.603 38.8655 180.717 38.8655Z" fill="white"/>
</g>
<defs>
<clipPath id="clip0_4860_4349">
<rect width="310" height="156" fill="white" transform="translate(0 0.689941)"/>
</clipPath>
</defs>
</svg>
