<svg width="800" height="450" viewBox="0 0 800 450" fill="none" xmlns="http://www.w3.org/2000/svg">
<rect width="800" height="450" fill="#172554"/>
<path d="M205.135 158.931C205.165 158.931 205.195 158.93 205.226 158.93H176.515C155.889 158.93 139.168 175.564 139.168 196.083V250.521C139.168 257.201 144.612 262.617 151.328 262.617L167.93 262.617V234.961C166.847 235.336 165.684 235.54 164.472 235.54C158.665 235.54 153.958 230.857 153.958 225.08C153.958 219.303 158.665 214.62 164.472 214.62C165.684 214.62 166.847 214.824 167.93 215.199C167.93 209.89 167.931 204.581 167.931 199.272C168.127 192.761 173.493 187.543 180.085 187.543H195.726C195.349 186.466 195.144 185.308 195.144 184.103C195.144 178.326 199.852 173.643 205.659 173.643C211.466 173.643 216.174 178.326 216.174 184.103C216.174 185.308 215.969 186.466 215.592 187.543L243.393 187.543L243.393 171.027C243.393 164.346 237.948 158.931 231.232 158.931L205.272 158.931C205.226 158.931 205.18 158.931 205.135 158.931Z" fill="white"/>
<path d="M206.177 291.23C206.142 291.23 206.108 291.23 206.073 291.23H206.128C206.117 291.23 206.106 291.23 206.096 291.23L234.807 291.23C252.854 291.23 267.912 278.495 271.395 261.565C271.892 259.147 272.153 256.643 272.153 254.078V199.64C272.153 198.805 272.068 197.99 271.906 197.202C270.772 191.69 265.87 187.543 259.993 187.543H243.391V215.199C242.308 214.824 241.144 214.621 239.932 214.621C234.125 214.621 229.418 219.304 229.418 225.08C229.418 230.857 234.125 235.54 239.932 235.54C241.144 235.54 242.308 235.336 243.391 234.961L243.39 250.889C243.195 257.399 237.828 262.617 231.236 262.617H215.595C215.972 263.695 216.177 264.852 216.177 266.057C216.177 271.834 211.469 276.517 205.662 276.517C199.855 276.517 195.148 271.834 195.148 266.057C195.148 264.852 195.353 263.695 195.73 262.617H167.929L167.929 279.133C167.929 285.814 173.373 291.23 180.089 291.23H206.05C206.095 291.23 206.141 291.23 206.186 291.23L206.177 291.23Z" fill="white"/>
<path d="M210.353 229.2C213.792 227.486 216.153 223.948 216.153 219.86C216.153 214.095 211.455 209.421 205.659 209.421C199.863 209.421 195.165 214.095 195.165 219.86C195.165 223.948 197.526 227.486 200.965 229.2L195.165 240.74H216.153L210.353 229.2Z" fill="white"/>
<path d="M205.136 159.032C205.166 159.032 205.196 159.032 205.226 159.032H176.707C156.218 159.032 139.609 175.64 139.609 196.127V250.482C139.609 257.152 145.017 262.56 151.688 262.56L168.18 262.56V234.946C167.104 235.32 165.948 235.524 164.745 235.524C158.977 235.524 154.3 230.848 154.3 225.08C154.3 219.312 158.977 214.636 164.745 214.636C165.948 214.636 167.104 214.84 168.18 215.214C168.18 209.913 168.181 204.612 168.18 199.311C168.375 192.811 173.706 187.601 180.254 187.601H195.79C195.416 186.525 195.212 185.369 195.212 184.166C195.212 178.398 199.888 173.722 205.656 173.722C211.425 173.722 216.101 178.398 216.101 184.166C216.101 185.369 215.897 186.525 215.523 187.601L243.138 187.601L243.138 171.11C243.138 164.439 237.73 159.032 231.059 159.032L205.272 159.032C205.226 159.032 205.181 159.032 205.136 159.032Z" fill="white"/>
<path d="M206.171 291.129C206.136 291.129 206.102 291.129 206.067 291.129H206.122C206.111 291.129 206.101 291.129 206.09 291.129L234.609 291.129C252.536 291.129 267.494 278.413 270.953 261.51C271.447 259.095 271.707 256.594 271.707 254.033V199.679C271.707 198.845 271.622 198.031 271.461 197.245C270.335 191.741 265.465 187.601 259.628 187.601H243.136V215.215C242.06 214.84 240.904 214.637 239.701 214.637C233.933 214.637 229.257 219.312 229.257 225.08C229.257 230.848 233.933 235.524 239.701 235.524C240.904 235.524 242.06 235.321 243.136 234.946L243.136 250.849C242.941 257.35 237.61 262.56 231.062 262.56H215.526C215.9 263.636 216.104 264.791 216.104 265.995C216.104 271.763 211.428 276.438 205.66 276.438C199.891 276.438 195.215 271.763 195.215 265.995C195.215 264.791 195.419 263.636 195.793 262.56H168.178L168.178 279.051C168.178 285.721 173.586 291.129 180.257 291.129H206.044C206.09 291.129 206.135 291.129 206.18 291.129L206.171 291.129Z" fill="white"/>
<path d="M210.319 229.194C213.735 227.482 216.08 223.949 216.08 219.868C216.08 214.112 211.413 209.445 205.656 209.445C199.899 209.445 195.232 214.112 195.232 219.868C195.232 223.949 197.577 227.482 200.993 229.194L195.232 240.716H216.08L210.319 229.194Z" fill="white"/>
<path d="M323.994 218.959C327.511 218.959 330.658 219.584 333.435 220.833C336.212 222.037 338.387 223.795 339.96 226.109C341.58 228.423 342.39 231.177 342.39 234.37H337.669C337.577 231.963 336.906 229.904 335.656 228.192C334.453 226.479 332.833 225.184 330.797 224.304C328.807 223.425 326.563 222.985 324.064 222.985C320.408 222.985 317.423 223.795 315.109 225.415C312.841 227.035 311.708 229.511 311.708 232.843C311.708 235.11 312.379 236.799 313.721 237.91C315.109 239.021 316.752 239.807 318.649 240.27L330.728 243.255C335.448 244.412 338.849 246.055 340.932 248.184C343.061 250.312 344.125 253.066 344.125 256.444C344.125 258.527 343.616 260.632 342.598 262.761C341.626 264.89 339.729 266.741 336.906 268.314C334.083 269.842 330.172 270.605 325.174 270.605C321.102 270.605 317.585 270.004 314.623 268.8C311.661 267.551 309.371 265.723 307.751 263.316C306.177 260.91 305.391 257.971 305.391 254.501V253.251H310.111V253.668C310.111 258.064 311.499 261.327 314.276 263.455C317.099 265.538 321.056 266.579 326.146 266.579C328.182 266.579 330.219 266.209 332.255 265.468C334.291 264.728 335.98 263.617 337.322 262.136C338.711 260.609 339.405 258.735 339.405 256.514C339.405 254.292 338.572 252.464 336.906 251.03C335.24 249.595 332.764 248.461 329.478 247.628L318.163 244.852C314.369 243.926 311.546 242.515 309.694 240.617C307.89 238.72 306.987 236.151 306.987 232.912C306.987 230.783 307.519 228.654 308.584 226.526C309.694 224.397 311.522 222.615 314.068 221.181C316.613 219.7 319.922 218.959 323.994 218.959Z" fill="white"/>
<path d="M364.595 232.704C373.341 232.704 377.715 236.545 377.715 244.227V263.247C377.715 265.006 378.571 265.885 380.283 265.885C380.746 265.885 381.209 265.792 381.671 265.607V269.286C380.746 269.471 379.82 269.564 378.895 269.564C376.997 269.564 375.655 269.101 374.869 268.176C374.082 267.25 373.688 265.7 373.688 263.525V263.316H373.55C372.346 265.168 371.12 266.625 369.871 267.69C368.621 268.754 367.233 269.495 365.706 269.911C364.225 270.374 362.489 270.605 360.499 270.605C358.093 270.605 355.987 270.212 354.182 269.425C352.378 268.592 350.966 267.389 349.948 265.815C348.976 264.242 348.49 262.345 348.49 260.123C348.49 256.699 349.67 254.13 352.03 252.418C353.28 251.539 354.877 250.821 356.82 250.266C358.81 249.711 361.841 249.225 365.914 248.808C367.996 248.577 369.5 248.346 370.426 248.114C371.351 247.883 372.069 247.443 372.578 246.795C373.087 246.147 373.341 245.129 373.341 243.741C373.341 241.149 372.555 239.275 370.981 238.118C369.408 236.961 367.071 236.383 363.97 236.383C361.008 236.383 358.694 237.1 357.028 238.535C355.362 239.923 354.483 241.982 354.391 244.713H350.017C350.249 240.779 351.614 237.794 354.113 235.758C356.612 233.722 360.106 232.704 364.595 232.704ZM373.203 249.988C372.925 250.451 372.416 250.821 371.675 251.099C370.981 251.331 369.986 251.539 368.69 251.724L366.539 252.071C363.53 252.441 361.332 252.811 359.944 253.182C357.769 253.737 356.033 254.501 354.738 255.472C353.488 256.444 352.863 257.902 352.863 259.846C352.863 261.234 353.234 262.483 353.974 263.594C354.715 264.659 355.686 265.492 356.89 266.093C358.093 266.648 359.412 266.926 360.846 266.926C363.207 266.926 365.335 266.463 367.233 265.538C369.13 264.566 370.611 263.247 371.675 261.581C372.786 259.869 373.341 257.925 373.341 255.75V249.988H373.203Z" fill="white"/>
<path d="M388.443 237.424H382.335V233.745H388.443V230.274C388.443 226.757 389.091 224.165 390.387 222.499C391.729 220.833 393.997 220 397.19 220C398.393 220 399.596 220.093 400.799 220.278V224.027C399.55 223.795 398.486 223.68 397.606 223.68C396.31 223.68 395.316 223.911 394.621 224.374C393.927 224.79 393.441 225.415 393.164 226.248C392.932 227.081 392.817 228.215 392.817 229.649V233.745H399.897V237.424H392.817V269.564H388.443V237.424Z" fill="white"/>
<path d="M418.07 232.704C421.355 232.704 424.178 233.514 426.538 235.133C428.899 236.753 430.703 239.021 431.953 241.936C433.202 244.805 433.827 248.091 433.827 251.793V252.835H406.269C406.315 255.287 406.778 257.601 407.657 259.776C408.536 261.905 409.855 263.64 411.614 264.982C413.372 266.278 415.524 266.926 418.07 266.926C420.985 266.926 423.391 266.163 425.289 264.635C427.233 263.062 428.575 260.771 429.315 257.763H433.688C432.67 262.113 430.865 265.353 428.274 267.481C425.728 269.564 422.327 270.605 418.07 270.605C414.552 270.605 411.591 269.818 409.184 268.245C406.778 266.625 404.95 264.381 403.7 261.512C402.497 258.642 401.895 255.357 401.895 251.654C401.895 248.276 402.474 245.152 403.631 242.283C404.834 239.368 406.639 237.054 409.045 235.342C411.498 233.583 414.506 232.704 418.07 232.704ZM429.454 249.155C429.361 246.888 428.852 244.782 427.927 242.839C427.001 240.895 425.682 239.345 423.97 238.188C422.258 236.984 420.268 236.383 418 236.383C415.918 236.383 414.043 236.915 412.377 237.979C410.758 238.997 409.416 240.478 408.351 242.422C407.287 244.319 406.593 246.564 406.269 249.155H429.454Z" fill="white"/>
<path d="M456.357 237.632C453.858 237.632 451.636 238.211 449.693 239.368C447.795 240.478 446.314 242.029 445.25 244.019C444.232 245.962 443.723 248.137 443.723 250.544V269.564H439.35V233.745H443.376V242.144H443.515C444.579 239.321 446.222 237.146 448.443 235.619C450.664 234.046 453.233 233.259 456.148 233.259H457.051V237.632H456.357Z" fill="white"/>
<path d="M486.444 255.889C486.444 259.313 485.958 262.113 484.986 264.288C484.061 266.417 482.533 268.014 480.405 269.078C478.322 270.096 475.545 270.605 472.075 270.605C467.401 270.605 463.907 269.217 461.593 266.44C459.325 263.664 458.191 259.452 458.191 253.806V253.668H462.912C462.912 256.49 463.166 258.828 463.675 260.679C464.23 262.53 465.202 263.987 466.591 265.052C468.025 266.07 469.992 266.579 472.491 266.579C474.805 266.579 476.61 266.186 477.906 265.399C479.248 264.612 480.219 263.316 480.821 261.512C481.423 259.707 481.723 257.231 481.723 254.084V220H486.444V255.889Z" fill="white"/>
<path d="M510.393 232.704C513.91 232.704 516.941 233.56 519.486 235.272C522.031 236.938 523.975 239.229 525.317 242.144C526.659 245.014 527.33 248.184 527.33 251.654C527.33 255.172 526.659 258.388 525.317 261.303C523.975 264.173 522.008 266.44 519.417 268.106C516.871 269.772 513.863 270.605 510.393 270.605C506.922 270.605 503.891 269.772 501.299 268.106C498.754 266.394 496.81 264.103 495.468 261.234C494.126 258.365 493.455 255.172 493.455 251.654C493.455 248.137 494.126 244.944 495.468 242.075C496.81 239.206 498.754 236.938 501.299 235.272C503.891 233.56 506.922 232.704 510.393 232.704ZM497.828 251.654C497.828 254.339 498.314 256.861 499.286 259.221C500.304 261.535 501.762 263.409 503.659 264.844C505.557 266.232 507.801 266.926 510.393 266.926C513.03 266.926 515.298 266.209 517.195 264.774C519.093 263.34 520.527 261.465 521.499 259.151C522.471 256.791 522.957 254.292 522.957 251.654C522.957 249.063 522.471 246.61 521.499 244.296C520.574 241.936 519.139 240.039 517.195 238.604C515.298 237.123 513.007 236.383 510.323 236.383C507.732 236.383 505.487 237.1 503.59 238.535C501.739 239.923 500.304 241.797 499.286 244.157C498.314 246.471 497.828 248.97 497.828 251.654Z" fill="white"/>
<path d="M537.789 256.167C537.789 258.434 538.043 260.355 538.552 261.928C539.108 263.502 540.08 264.728 541.468 265.607C542.856 266.486 544.8 266.926 547.299 266.926C549.705 266.926 551.718 266.278 553.338 264.982C554.958 263.64 556.161 261.882 556.948 259.707C557.734 257.485 558.128 255.079 558.128 252.487V233.745H562.501V269.564H558.475V263.108H558.336C557.179 265.468 555.513 267.319 553.338 268.662C551.163 269.957 548.71 270.605 545.98 270.605C541.63 270.605 538.437 269.448 536.4 267.134C534.411 264.774 533.416 261.396 533.416 257V233.745H537.789V256.167Z" fill="white"/>
<path d="M587.429 237.632C584.93 237.632 582.709 238.211 580.765 239.368C578.868 240.478 577.387 242.029 576.323 244.019C575.304 245.962 574.795 248.137 574.795 250.544V269.564H570.422V233.745H574.448V242.144H574.587C575.652 239.321 577.294 237.146 579.516 235.619C581.737 234.046 584.306 233.259 587.221 233.259H588.123V237.632H587.429Z" fill="white"/>
<path d="M607.937 232.704C612.472 232.704 615.781 233.814 617.864 236.036C619.946 238.257 620.987 241.682 620.987 246.309V269.564H616.614V247.142C616.614 243.579 615.874 240.895 614.393 239.09C612.912 237.285 610.621 236.383 607.52 236.383C605.068 236.383 602.985 236.984 601.273 238.188C599.607 239.345 598.357 240.895 597.524 242.839C596.691 244.736 596.275 246.795 596.275 249.017V269.564H591.902V233.745H596.275V239.923H596.414C596.969 238.488 597.825 237.239 598.982 236.175C600.139 235.064 601.481 234.208 603.008 233.606C604.582 233.005 606.225 232.704 607.937 232.704Z" fill="white"/>
<path d="M644.041 232.704C647.558 232.704 650.59 233.56 653.135 235.272C655.68 236.938 657.624 239.229 658.966 242.144C660.308 245.014 660.979 248.184 660.979 251.654C660.979 255.172 660.308 258.388 658.966 261.303C657.624 264.173 655.657 266.44 653.065 268.106C650.52 269.772 647.512 270.605 644.041 270.605C640.57 270.605 637.539 269.772 634.948 268.106C632.402 266.394 630.459 264.103 629.117 261.234C627.775 258.365 627.104 255.172 627.104 251.654C627.104 248.137 627.775 244.944 629.117 242.075C630.459 239.206 632.402 236.938 634.948 235.272C637.539 233.56 640.57 232.704 644.041 232.704ZM631.477 251.654C631.477 254.339 631.963 256.861 632.935 259.221C633.953 261.535 635.41 263.409 637.308 264.844C639.205 266.232 641.45 266.926 644.041 266.926C646.679 266.926 648.947 266.209 650.844 264.774C652.741 263.34 654.176 261.465 655.148 259.151C656.12 256.791 656.606 254.292 656.606 251.654C656.606 249.063 656.12 246.61 655.148 244.296C654.222 241.936 652.788 240.039 650.844 238.604C648.947 237.123 646.656 236.383 643.972 236.383C641.38 236.383 639.136 237.1 637.238 238.535C635.387 239.923 633.953 241.797 632.935 244.157C631.963 246.471 631.477 248.97 631.477 251.654Z" fill="white"/>
<path d="M310.987 205.245H305.363V179.667H310.987V205.245Z" fill="white"/>
<path d="M325.851 186.223C328.191 186.223 329.899 186.82 330.974 188.014C332.048 189.208 332.586 191.107 332.586 193.71V205.245H327.499V194.749C327.499 193.196 327.248 192.062 326.747 191.345C326.245 190.605 325.409 190.235 324.239 190.235C323.212 190.235 322.412 190.45 321.839 190.88C321.266 191.31 320.86 191.919 320.621 192.707C320.406 193.471 320.299 194.438 320.299 195.608V205.245H315.212V186.724H320.048V189.304H320.155C320.752 188.324 321.552 187.572 322.555 187.047C323.558 186.497 324.657 186.223 325.851 186.223Z" fill="white"/>
<path d="M342.715 186.724H346.441V190.127H342.715V199.298C342.715 199.895 342.775 200.349 342.894 200.659C343.014 200.946 343.217 201.149 343.503 201.268C343.814 201.388 344.268 201.447 344.865 201.447C345.533 201.447 346.059 201.4 346.441 201.304V205.28C345.724 205.4 344.721 205.46 343.432 205.46C341.426 205.46 339.957 205.125 339.026 204.456C338.094 203.764 337.629 202.606 337.629 200.982V190.127H334.548V186.724H337.629V181.172H342.715V186.724Z" fill="white"/>
<path d="M357.069 186.223C358.955 186.223 360.579 186.677 361.941 187.584C363.302 188.468 364.329 189.674 365.021 191.202C365.738 192.731 366.096 194.426 366.096 196.289L366.06 197.22H352.698C352.77 198.82 353.176 200.003 353.916 200.767C354.657 201.531 355.755 201.913 357.212 201.913C357.833 201.913 358.43 201.806 359.003 201.591C359.576 201.376 360.066 201.089 360.472 200.731C360.878 200.349 361.141 199.943 361.26 199.513H365.738C365.069 201.615 364.006 203.179 362.55 204.206C361.117 205.233 359.29 205.746 357.069 205.746C355.134 205.746 353.451 205.34 352.018 204.528C350.609 203.692 349.522 202.534 348.758 201.053C347.994 199.573 347.612 197.889 347.612 196.002C347.612 194.163 348.006 192.504 348.794 191.023C349.606 189.518 350.728 188.348 352.161 187.512C353.594 186.653 355.23 186.223 357.069 186.223ZM360.973 193.996C360.735 192.611 360.293 191.608 359.648 190.987C359.003 190.366 358.084 190.056 356.89 190.056C355.672 190.056 354.693 190.402 353.952 191.095C353.236 191.787 352.818 192.754 352.698 193.996H360.973Z" fill="white"/>
<path d="M379.716 186.223C380.027 186.223 380.397 186.282 380.827 186.402V191.13C380.278 191.011 379.669 190.951 379 190.951C377.257 190.951 375.979 191.489 375.167 192.563C374.379 193.614 373.985 195.059 373.985 196.898V205.245H368.898V186.724H373.734V190.163H373.806C374.116 189.399 374.57 188.718 375.167 188.121C375.788 187.524 376.492 187.059 377.281 186.724C378.069 186.39 378.881 186.223 379.716 186.223Z" fill="white"/>
<path d="M393.282 186.223C395.622 186.223 397.329 186.82 398.404 188.014C399.479 189.208 400.016 191.107 400.016 193.71V205.245H394.929V194.749C394.929 193.196 394.679 192.062 394.177 191.345C393.676 190.605 392.84 190.235 391.67 190.235C390.643 190.235 389.843 190.45 389.269 190.88C388.696 191.31 388.29 191.919 388.051 192.707C387.836 193.471 387.729 194.438 387.729 195.608V205.245H382.642V186.724H387.478V189.304H387.586C388.183 188.324 388.983 187.572 389.986 187.047C390.989 186.497 392.087 186.223 393.282 186.223Z" fill="white"/>
<path d="M412.259 186.223C414.146 186.223 415.77 186.677 417.131 187.584C418.493 188.468 419.519 189.674 420.212 191.202C420.928 192.731 421.287 194.426 421.287 196.289L421.251 197.22H407.889C407.961 198.82 408.367 200.003 409.107 200.767C409.847 201.531 410.946 201.913 412.403 201.913C413.024 201.913 413.621 201.806 414.194 201.591C414.767 201.376 415.257 201.089 415.663 200.731C416.069 200.349 416.331 199.943 416.451 199.513H420.928C420.26 201.615 419.197 203.179 417.74 204.206C416.307 205.233 414.48 205.746 412.259 205.746C410.325 205.746 408.641 205.34 407.208 204.528C405.799 203.692 404.713 202.534 403.949 201.053C403.184 199.573 402.802 197.889 402.802 196.002C402.802 194.163 403.196 192.504 403.984 191.023C404.796 189.518 405.919 188.348 407.352 187.512C408.785 186.653 410.421 186.223 412.259 186.223ZM416.164 193.996C415.925 192.611 415.483 191.608 414.839 190.987C414.194 190.366 413.274 190.056 412.08 190.056C410.862 190.056 409.883 190.402 409.143 191.095C408.426 191.787 408.008 192.754 407.889 193.996H416.164Z" fill="white"/>
<path d="M431.146 199.298H431.217L434.298 186.724H439.242L442.394 199.262H442.466L445.869 186.724H451.099L445.26 205.245H440.03L436.734 192.814H436.662L433.51 205.245H428.244L422.369 186.724H427.743L431.146 199.298Z" fill="white"/>
<path d="M460.68 186.223C463.187 186.223 465.134 186.736 466.519 187.763C467.904 188.766 468.68 190.223 468.847 192.134H464.011C463.94 191.25 463.605 190.617 463.008 190.235C462.435 189.829 461.611 189.626 460.537 189.626C458.65 189.626 457.707 190.199 457.707 191.345C457.707 191.751 457.838 192.098 458.101 192.384C458.363 192.647 458.781 192.886 459.354 193.101C459.928 193.316 460.704 193.519 461.683 193.71C463.498 194.068 464.847 194.414 465.731 194.749C466.614 195.083 467.343 195.489 467.916 195.967C468.871 196.826 469.349 197.937 469.349 199.298C469.349 200.803 468.955 202.044 468.167 203.024C467.403 203.979 466.388 204.671 465.122 205.101C463.856 205.531 462.447 205.746 460.895 205.746C459.175 205.746 457.671 205.507 456.381 205.03C455.115 204.528 454.112 203.8 453.372 202.844C452.632 201.865 452.238 200.659 452.19 199.226H457.026C457.026 200.229 457.396 201.006 458.136 201.555C458.877 202.08 459.808 202.343 460.931 202.343C461.862 202.343 462.65 202.14 463.295 201.734C463.94 201.328 464.262 200.743 464.262 199.979C464.262 199.525 464.071 199.143 463.689 198.832C463.331 198.522 462.758 198.235 461.969 197.973C461.181 197.71 460.083 197.435 458.674 197.149C457.217 196.838 456.047 196.468 455.163 196.038C454.303 195.608 453.659 195.083 453.229 194.462C452.823 193.817 452.62 193.053 452.62 192.169C452.62 190.211 453.3 188.73 454.662 187.727C456.047 186.724 458.053 186.223 460.68 186.223Z" fill="white"/>
</svg>
