<svg width="800" height="450" viewBox="0 0 800 450" fill="none" xmlns="http://www.w3.org/2000/svg">
<rect width="800" height="450" fill="#D6FDFF"/>
<path d="M264.236 214.359C264.236 223.241 271.617 226.737 281.08 228.437L284.297 229.004C290.448 230.138 293.57 231.65 293.57 235.24C293.57 238.831 290.259 241.476 284.297 241.476C278.241 241.476 273.32 239.02 271.996 231.366L262.344 233.728C263.952 244.122 272.28 249.507 284.297 249.507C296.031 249.507 304.064 244.027 304.064 234.484C304.064 224.941 295.936 222.201 285.716 220.312L282.499 219.745C277.389 218.8 274.267 217.288 274.267 213.698C274.267 210.296 277.295 208.218 282.405 208.218C287.514 208.218 291.205 210.391 292.34 216.06L301.803 213.225C299.721 205.383 292.908 200.281 282.405 200.281C271.428 200.281 264.236 205.383 264.236 214.359Z" fill="#565656"/>
<path d="M308.908 210.013V238.547C308.908 244.405 312.694 248.184 318.371 248.184H331.524V239.681H321.967C320.264 239.681 319.317 238.736 319.317 236.846V210.013H332.944V201.604H319.317V185.93H308.908V201.604V210.013Z" fill="#565656"/>
<path d="M382.304 248.184V201.604H372.084V208.407H371.138C368.299 204.155 363.568 200.281 354.957 200.281C343.507 200.281 333.571 209.729 333.571 224.847C333.571 240.059 343.507 249.507 354.957 249.507C363.568 249.507 368.299 245.633 371.138 241.287H372.084V248.184H382.304ZM357.985 240.531C349.847 240.531 343.98 234.768 343.98 224.847C343.98 215.021 349.847 209.163 357.985 209.163C366.122 209.163 372.084 215.021 372.084 224.847C372.084 234.673 366.122 240.531 357.985 240.531Z" fill="#565656"/>
<path d="M386.842 224.847C386.842 239.303 397.535 249.507 411.161 249.507C424.031 249.507 431.695 241.854 434.156 231.65L424.031 229.288C422.99 235.807 419.015 240.437 411.256 240.437C403.307 240.437 397.251 234.484 397.251 224.847C397.251 215.304 403.307 209.352 411.256 209.352C418.826 209.352 422.99 214.076 423.747 220.312L433.777 218.233C431.885 207.934 423.936 200.281 411.067 200.281C397.535 200.281 386.842 210.391 386.842 224.847Z" fill="#565656"/>
<path d="M486.111 201.604H470.686L449.112 220.501V185.93H438.797V248.184H449.112V233.162L456.682 226.642L472.957 248.184H485.732L464.157 220.312L486.111 201.604Z" fill="#565656"/>
<path d="M487.322 214.361C487.322 223.243 494.703 226.739 504.166 228.439L507.383 229.006C513.534 230.14 516.656 231.652 516.656 235.242C516.656 238.833 513.344 241.478 507.383 241.478C501.327 241.478 496.406 239.022 495.082 231.368L485.43 233.731C487.038 244.124 495.365 249.509 507.383 249.509C519.117 249.509 526.687 244.029 526.687 234.486C526.687 224.944 519.022 222.204 508.802 220.314L505.585 219.747C500.475 218.802 497.353 217.29 497.353 213.7C497.353 210.299 500.381 208.22 505.49 208.22C510.6 208.22 514.291 210.393 515.426 216.062L524.889 213.228C522.807 205.385 515.994 200.283 505.49 200.283C494.514 200.283 487.322 205.385 487.322 214.361Z" fill="#157983"/>
<path d="M531.373 263.848H541.687V241.573H542.633C545.283 245.636 550.014 249.509 558.625 249.509C570.075 249.509 580.011 240.061 580.011 224.849C580.011 209.732 570.075 200.283 558.625 200.283C550.014 200.283 545.283 204.157 542.444 208.409H541.498V201.606H531.373V263.848ZM555.597 240.533C547.554 240.533 541.592 234.675 541.592 224.849C541.592 215.023 547.554 209.165 555.597 209.165C563.735 209.165 569.602 215.023 569.602 224.849C569.602 234.77 563.735 240.533 555.597 240.533Z" fill="#157983"/>
<path d="M594.958 201.606H584.644V248.187H594.958V201.606Z" fill="#157983"/>
<path d="M602.523 201.606V248.187H612.837V224.282C612.837 214.645 617.853 209.259 625.612 209.259C632.52 209.259 636.589 212.944 636.589 220.786V248.187H646.998V220.219C646.998 208.314 639.427 200.756 628.735 200.756C619.84 200.756 615.676 204.724 613.594 208.787H612.648V201.606H602.523Z" fill="#157983"/>
<rect x="584.648" y="185.937" width="10.3301" height="10.3139" fill="#157983"/>
<path d="M153 266.951C153 279.593 166.311 287.827 177.648 282.196L225.794 258.283C229.53 256.427 231.892 252.62 231.892 248.454V221.934L158.23 258.521C155.026 260.112 153 263.378 153 266.951V266.951Z" fill="#135D66"/>
<path d="M153 227.832C153 243.157 169.136 253.137 182.878 246.312L231.892 221.968V221.968C231.892 206.642 215.756 196.662 202.014 203.487L153 227.832V227.832Z" fill="#55C6CC"/>
<path d="M165.246 221.75C157.744 225.476 152.176 233.931 157.343 240.517C163.073 247.821 173.53 250.955 182.878 246.312L231.893 221.968C231.893 206.643 215.757 196.662 202.014 203.487L165.246 221.75Z" fill="#135D66"/>
<path d="M165.246 221.75C157.744 225.476 152.176 233.931 157.343 240.517C163.073 247.821 173.53 250.955 182.878 246.312L219.648 228.05C227.15 224.324 232.718 215.869 227.551 209.283C221.82 201.979 211.363 198.844 202.014 203.487L165.246 221.75Z" fill="#157983"/>
<path d="M153 227.842L227.191 190.992C230.071 189.562 231.892 186.627 231.892 183.416V183.416C231.892 170.501 218.294 162.091 206.714 167.843L160.182 190.955C155.782 193.14 153 197.624 153 202.531V227.842Z" fill="#55C6CC"/>
</svg>
