<svg width="800" height="450" viewBox="0 0 800 450" fill="none" xmlns="http://www.w3.org/2000/svg">
<rect width="800" height="450" fill="#B0D8FF"/>
<path d="M314.565 202.156H276.947V209.017H291.589V254.437H299.497V209.017H313.717L314.565 202.156Z" fill="#363959"/>
<path d="M338.236 213.362C333.804 213.362 330.025 215.234 326.988 218.932V197.703L319.305 198.538V254.438H326.988V226.136C328.332 224.044 329.785 222.405 331.308 221.263C332.822 220.127 334.575 219.551 336.519 219.551C338.433 219.551 339.904 220.085 340.892 221.141C341.885 222.204 342.389 224.097 342.389 226.766V254.438H350.071V225.795C350.071 221.971 349.016 218.911 346.935 216.702C344.847 214.485 341.92 213.362 338.236 213.362V213.362Z" fill="#363959"/>
<path d="M383.252 242.64C380.616 246.957 377.435 249.146 373.796 249.146C371.789 249.146 370.335 248.629 369.475 247.61C368.596 246.569 368.151 244.734 368.151 242.155V214.26H360.469V242.903C360.469 246.826 361.485 249.91 363.49 252.068C365.502 254.235 368.317 255.335 371.855 255.335C374.703 255.335 377.158 254.751 379.155 253.6C380.871 252.61 382.431 251.106 383.803 249.118L384.257 254.439H390.936V214.26H383.253V242.64H383.252Z" fill="#363959"/>
<path d="M421.009 213.362C418.458 213.362 416.09 213.984 413.971 215.21C412.16 216.257 410.584 217.658 409.275 219.381L408.749 214.26H402.078V254.439H409.76V226.21C411.103 224.07 412.557 222.406 414.08 221.263C415.594 220.127 417.372 219.551 419.366 219.551C421.28 219.551 422.737 220.085 423.699 221.138C424.669 222.202 425.161 224.095 425.161 226.766V254.438H432.844V225.795C432.844 221.971 431.789 218.912 429.709 216.703C427.62 214.486 424.693 213.362 421.009 213.362V213.362Z" fill="#363959"/>
<path d="M467.217 217.637C464.267 214.8 460.839 213.362 457.015 213.362C453.802 213.362 450.955 214.282 448.553 216.097C446.162 217.903 444.308 220.437 443.043 223.628C441.784 226.799 441.146 230.469 441.146 234.535C441.146 240.817 442.491 245.898 445.142 249.636C447.825 253.417 451.618 255.334 456.418 255.334C458.87 255.334 461.124 254.75 463.12 253.6C464.812 252.623 466.282 251.307 467.499 249.679L468.086 254.438H474.9V198.468L467.217 197.549V217.637ZM467.217 224.514V243.518C465.881 245.359 464.486 246.759 463.069 247.68C461.649 248.602 459.913 249.07 457.911 249.07C455.146 249.07 453.085 247.912 451.607 245.526C450.111 243.114 449.352 239.367 449.352 234.385C449.352 229.457 450.172 225.712 451.788 223.253C453.391 220.811 455.589 219.626 458.509 219.626C460.267 219.626 461.869 220.046 463.269 220.876C464.655 221.698 465.982 222.922 467.217 224.514V224.514Z" fill="#363959"/>
<path d="M499.97 213.362C496.563 213.362 493.554 214.293 491.029 216.129C488.512 217.96 486.556 220.519 485.217 223.734C483.881 226.931 483.205 230.641 483.205 234.76C483.205 241.105 484.783 246.169 487.897 249.814C491.025 253.477 495.439 255.334 501.017 255.334C506.068 255.334 510.777 253.646 515.012 250.318L515.319 250.076L511.871 245.333L511.547 245.556C509.841 246.725 508.189 247.588 506.638 248.122C505.096 248.652 503.381 248.921 501.54 248.921C498.682 248.921 496.319 247.933 494.516 245.988C492.761 244.095 491.703 241.108 491.369 237.106H516.406L516.437 236.734C516.536 235.53 516.588 234.338 516.588 233.19C516.588 227.047 515.149 222.161 512.315 218.667C509.454 215.147 505.302 213.362 499.97 213.362V213.362ZM491.363 231.217C491.925 223.419 494.793 219.625 500.119 219.625C503.058 219.625 505.287 220.602 506.744 222.527C508.226 224.489 508.977 227.398 508.977 231.174V231.217H491.363Z" fill="#363959"/>
<path d="M542.024 213.362C539.549 213.362 537.35 214.148 535.489 215.698C533.994 216.944 532.74 218.695 531.75 220.914L531.191 214.259H524.512V254.438H532.194V231.592C533.021 227.909 534.172 225.167 535.611 223.44C537.037 221.728 538.866 220.895 541.201 220.895C542.258 220.895 543.381 221.042 544.539 221.331L544.955 221.436L546.376 213.914L546.004 213.822C544.787 213.517 543.446 213.362 542.024 213.362V213.362Z" fill="#363959"/>
<path d="M569.518 213.362C565.205 213.362 561.602 215.062 558.791 218.42V197.549L551.109 198.468V254.438H557.912L558.502 250.633C561.305 253.754 564.731 255.334 568.696 255.334C571.906 255.334 574.751 254.441 577.153 252.679C579.544 250.924 581.4 248.427 582.668 245.257C583.927 242.11 584.565 238.428 584.565 234.311C584.565 227.781 583.207 222.611 580.527 218.945C577.818 215.24 574.114 213.362 569.518 213.362V213.362ZM567.575 219.626C570.395 219.626 572.508 220.728 574.037 222.995C575.578 225.283 576.359 229.09 576.359 234.311C576.359 239.382 575.516 243.162 573.854 245.546C572.201 247.918 569.977 249.07 567.053 249.07C565.442 249.07 563.893 248.614 562.448 247.712C561.02 246.824 559.79 245.593 558.792 244.053V225.467C561.326 221.591 564.279 219.626 567.575 219.626Z" fill="#363959"/>
<path d="M600.922 214.26H593.24V254.438H600.922V214.26Z" fill="#363959"/>
<path d="M597.006 195.358C595.507 195.358 594.255 195.851 593.284 196.821C592.313 197.793 591.82 199.02 591.82 200.469C591.82 201.922 592.314 203.138 593.288 204.084C594.258 205.027 595.51 205.506 597.007 205.506C598.555 205.506 599.831 205.027 600.801 204.084C601.775 203.138 602.269 201.922 602.269 200.469C602.269 199.021 601.776 197.793 600.805 196.821C599.833 195.851 598.556 195.358 597.006 195.358Z" fill="#363959"/>
<path d="M629.577 213.362C627.101 213.362 624.903 214.148 623.042 215.698C621.547 216.944 620.293 218.695 619.303 220.914L618.743 214.259H612.064V254.438H619.747V231.592C620.574 227.909 621.724 225.167 623.163 223.44C624.59 221.728 626.419 220.895 628.753 220.895C629.811 220.895 630.934 221.042 632.092 221.331L632.508 221.436L633.928 213.914L633.557 213.822C632.338 213.517 630.999 213.362 629.577 213.362V213.362Z" fill="#363959"/>
<path d="M660.022 197.549V217.637C657.071 214.8 653.644 213.362 649.819 213.362C646.607 213.362 643.76 214.282 641.358 216.097C638.967 217.903 637.113 220.437 635.847 223.628C634.589 226.799 633.951 230.469 633.951 234.535C633.951 240.817 635.296 245.898 637.947 249.636C640.63 253.417 644.423 255.334 649.223 255.334C651.674 255.334 653.929 254.75 655.924 253.6C657.617 252.623 659.087 251.307 660.304 249.679L660.891 254.438H667.705V198.468L660.022 197.549ZM660.022 224.514V243.518C658.686 245.359 657.29 246.759 655.874 247.68C654.453 248.602 652.718 249.07 650.716 249.07C647.951 249.07 645.889 247.912 644.411 245.526C642.916 243.114 642.157 239.367 642.157 234.385C642.157 229.457 642.976 225.712 644.592 223.253C646.196 220.811 648.394 219.626 651.313 219.626C653.071 219.626 654.674 220.046 656.074 220.876C657.459 221.698 658.787 222.922 660.022 224.514V224.514Z" fill="#363959"/>
<path d="M223.072 180.066C215.313 174.998 205.39 173.357 199.913 172.784C194.052 172.171 188.961 172.279 184.484 172.936C184.104 172.931 183.727 172.917 183.346 172.917C183.055 172.917 182.768 172.93 182.475 172.933C182.595 172.786 182.678 172.695 182.678 172.695C182.678 172.695 182.443 172.732 181.981 172.941C180.527 172.965 179.08 173.015 177.655 173.113C179.64 170.937 181.267 169.796 181.267 169.796C181.267 169.796 179.336 170.078 175.813 173.271C174.138 173.425 172.484 173.63 170.86 173.884C174.562 168.875 178.434 166.765 178.434 166.765C178.434 166.765 173.741 165.81 166.391 173.195C165.776 173.813 165.206 174.455 164.654 175.106C143.232 180.289 127.901 194.122 127.901 210.378C127.901 213.566 126.923 217.072 127.978 220.574C127.556 226.167 128.454 241.43 128.454 241.43C128.454 241.43 134.253 272.813 156.552 278.269C156.906 278.354 151.893 270.446 149.675 260.909C153.993 265.301 159.138 268.775 164.914 269.376C165.623 269.45 161.615 264.753 158.105 259.085L208.777 276.157C235.28 264.774 232.194 265.8 237.884 259.636C250.421 246.066 252.176 238.366 249.017 215.632C246.882 200.287 235.555 185.087 223.072 180.066V180.066Z" fill="url(#paint0_linear_2652_1803)"/>
<path d="M230.056 212.225L134.139 194.397L126.572 237.421L130.768 250.422L214.522 278.268L230.056 212.225Z" fill="#FBFBFB"/>
<path d="M134.375 195.86C134.795 196.764 134.671 196.978 134.41 196.978C134.292 196.978 134.146 196.935 134.01 196.891C133.874 196.848 133.746 196.805 133.663 196.805C133.432 196.805 133.562 197.147 134.874 198.795C136.73 201.152 163.983 242.294 165.472 242.294C165.48 242.294 165.487 242.294 165.493 242.291C178.18 237.77 232.136 219.251 232.136 219.251L226.615 211.209L134.375 195.86Z" fill="#999999"/>
<path d="M135.166 194.851C135.166 194.851 135.573 196.955 137.457 199.283C139.329 201.633 164.485 239.721 165.747 239.385C182.225 235.011 242.011 211.735 242.011 211.735L135.166 194.851Z" fill="#F8F8F8"/>
<path d="M211.532 277.276L131.936 250.812L132.217 252.671L212.418 279.337L211.532 277.276Z" fill="#999999"/>
<path d="M152.877 193.07C152.877 193.07 123.916 201.552 137.205 231.079C137.205 231.079 131.112 225.5 127.484 218.367C127.32 218.048 133.531 195.985 133.531 195.985L152.877 193.07Z" fill="url(#paint1_linear_2652_1803)"/>
<path d="M137.205 231.08C134.687 231.036 130.64 228.958 129.328 226.443C127.687 253.785 138.843 269.753 156.553 278.268C150.766 277.605 122 262.425 122 225.896C122 194.835 146.647 167.071 185.217 165.8C185.454 167.541 166.095 171.907 165.476 173.961C164.515 177.156 162.306 180.635 160.443 183.424C157.918 187.202 163.952 190.432 159.518 191.451C152.847 192.982 143.948 192.134 137.386 200.665C127.522 213.487 134.104 228.156 137.205 231.08V231.08Z" fill="url(#paint2_radial_2652_1803)"/>
<path d="M195.33 166.801C170.351 164.883 157.495 174.879 149.242 186.501C146.237 190.731 146.565 194.616 147.6 199.309C148.045 201.312 148.494 202.272 147.953 204.315C147.654 205.442 147.704 206.494 147.333 207.158C146.82 208.077 146.166 209.081 145.948 210.731C145.401 214.851 146.859 216.163 147.77 217.549C149.069 216.259 151.605 213.225 156.176 211.413C160.749 209.602 163.757 206.877 169.488 203.954C177.317 199.96 186.495 206.019 203.895 200.317C209.249 198.562 221.554 180.334 224.475 179.634C216.34 170.639 202.501 167.35 195.33 166.801Z" fill="url(#paint3_linear_2652_1803)"/>
<path d="M178.83 161.091C178.83 161.091 174.369 163.245 172.428 167.138C176.912 164.877 179.515 163.642 180.746 163.494C180.746 163.494 179.567 164.065 178.105 167.17C180.689 166.343 181.579 165.821 182.288 165.813C182.288 165.813 182.082 166.14 181.894 169.238C177.925 167.952 170.287 169.45 166.222 171.995C164.845 164.647 178.83 161.091 178.83 161.091Z" fill="#3F6499"/>
<path d="M196.583 165.691C188.926 164.699 182.526 164.894 177.084 165.943C178.795 164.303 180.775 163.495 180.775 163.495C178.209 163.721 175.007 165.397 172.259 167.17C170.873 167.612 169.554 168.111 168.304 168.667C169.069 167.659 169.959 166.581 170.83 165.754C174.06 162.681 178.859 161.09 178.859 161.09C174.764 160.79 161.058 164.299 152.81 181.003C151.459 182.65 150.197 184.339 148.995 186.032C145.893 190.401 146.233 194.411 147.303 199.257C147.759 201.326 147.843 204.63 147.393 206.764C147.303 207.191 146.129 208.296 145.827 211.273C145.505 214.432 146.633 215.984 147.745 217.268C151.694 211.493 155.59 210.348 155.59 210.348C161.118 208.083 163.418 205.665 169.336 202.646C177.42 198.521 205.69 211.983 223.655 206.096C229.183 204.285 221.526 180.754 224.544 180.032C216.143 170.744 203.945 166.646 196.583 165.691Z" fill="url(#paint4_linear_2652_1803)"/>
<path d="M252.656 216.343C248.227 193.208 226.92 172.16 209.786 170.993C202.181 170.476 204.516 174.374 199.758 175.859C179.253 182.258 178.939 185.994 178.939 185.994C222.417 188.037 223.076 230.976 211.433 241.84C214.709 241.075 218.261 237.069 221.524 230.781C221.133 233.419 220.796 236.656 220.307 240.267C218.816 251.287 220.747 274.307 189.082 289.713C189.082 289.713 206.404 288.297 214.993 278.627C211.5 286.66 201.915 291 201.915 291C208.969 289.968 227.498 284.5 239.301 269.739C252.66 253.031 256.678 237.356 252.656 216.343Z" fill="url(#paint5_linear_2652_1803)"/>
<path d="M210.285 258.58C210.285 258.58 224.409 254.631 228.96 247.003C228.408 255.897 220.342 265.016 220.342 265.016C220.342 265.016 232.134 262.629 237.163 254.331C236.508 261.82 227.429 271.94 227.429 271.94C236.711 270.274 260.032 255.542 252.655 216.342C248.298 193.193 226.919 172.159 209.784 170.992C202.179 170.475 204.515 174.373 199.756 175.858C179.253 182.258 178.939 185.994 178.939 185.994C222.417 188.037 233.97 210.792 211.433 241.232C214.709 240.468 216.023 238.667 218.484 235.72C218.483 235.72 219.599 247.375 210.285 258.58V258.58Z" fill="url(#paint6_linear_2652_1803)"/>
<path d="M154.432 206.861C154.432 206.861 151.907 208.627 150.079 208.177C147.914 207.646 147.548 205.549 147.548 205.549C147.5 205.978 147.445 206.393 147.365 206.765C147.275 207.192 146.101 208.297 145.8 211.274C145.478 214.434 146.664 216.264 147.776 217.547C151.726 211.772 155.562 210.349 155.562 210.349C154.058 209.824 154.432 206.861 154.432 206.861V206.861Z" fill="url(#paint7_linear_2652_1803)"/>
<mask id="mask0_2652_1803" style="mask-type:alpha" maskUnits="userSpaceOnUse" x="198" y="155" width="86" height="79">
<path d="M283.004 155H198.832V233.554H283.004V155Z" fill="url(#paint8_radial_2652_1803)"/>
</mask>
<g mask="url(#mask0_2652_1803)">
<g opacity="0.6">
<g opacity="0.2">
<path d="M209.495 170.938C210.086 170.784 212.503 171.047 214.088 171.758C215.674 172.469 218.408 173.727 216.221 174.274C214.033 174.821 212.775 173.945 211.682 173.016C210.589 172.087 208.019 171.321 209.495 170.938Z" fill="url(#paint9_linear_2652_1803)"/>
</g>
</g>
</g>
<path d="M154.667 206.516C154.667 206.516 168.519 183.687 181.043 177.527C182.206 176.942 163.704 182.445 156.257 190.663C151.831 195.548 154.174 205.112 154.667 206.516Z" fill="url(#paint10_linear_2652_1803)"/>
<path opacity="0.1" d="M154.666 206.516C154.679 206.508 154.693 206.5 154.706 206.492C158.288 204.278 164.427 203.004 166.405 198.992C174.024 183.545 181.042 177.527 181.042 177.527C168.519 183.687 154.666 206.516 154.666 206.516Z" fill="#F2F2F2"/>
<path d="M155.984 202.34C155.984 202.34 153.488 198.51 157.083 195.017C158.98 193.176 161.855 194.199 162.188 194.53C163.603 195.932 162.713 198.894 161.44 200.57C160.72 201.513 158.625 202.982 155.984 202.34Z" fill="#2F4282"/>
<path d="M157.417 202.102C157.417 202.102 155.692 199.453 158.178 197.041C159.486 195.769 161.474 196.476 161.705 196.703C162.682 197.673 162.067 199.719 161.187 200.877C160.691 201.531 159.242 202.546 157.417 202.102V202.102Z" fill="url(#paint11_linear_2652_1803)"/>
<path d="M160.86 199.276C160.821 200.334 159.926 201.161 158.859 201.124C157.791 201.087 156.955 200.201 156.993 199.142C157.031 198.085 157.927 197.258 158.996 197.295C160.061 197.331 160.896 198.218 160.86 199.276Z" fill="black"/>
<path d="M157.703 199.292C158.039 199.292 158.311 199.02 158.311 198.685C158.311 198.349 158.039 198.077 157.703 198.077C157.368 198.077 157.096 198.349 157.096 198.685C157.096 199.02 157.368 199.292 157.703 199.292Z" fill="white"/>
<path d="M244.272 195.861C234.79 181.426 227.277 177.759 227.277 177.759C227.277 177.759 227.622 188.274 232.887 193.345C233.489 193.924 226.587 188.833 226.587 188.833C226.587 188.833 225.111 193.69 228.493 199.273C227.511 197.968 226.86 197.474 226.86 197.474C226.86 197.474 220.489 200.412 218.608 204.489C217.636 202.656 216.908 201.575 216.908 201.575C216.908 201.575 212.5 210.371 213.055 220.568C213.956 237.149 209.949 243.258 209.949 243.258C209.949 243.258 220.682 239.14 225.828 225.885C227.954 231.521 225.764 237.453 225.764 237.453C225.764 237.453 234.435 230.974 236.3 219.164C238.367 222.497 237.76 229.151 237.76 229.151C237.76 229.151 243.295 221.444 243.43 213.052C245.995 214.84 246.231 221.827 246.231 221.827C246.231 221.827 254.438 211.335 244.272 195.861V195.861Z" fill="url(#paint12_linear_2652_1803)"/>
<path d="M235.055 185.774C232.577 181.156 228.205 178.213 224.361 175.831C214.778 169.889 208.615 169.055 208.615 169.055C208.615 169.055 199.771 170.699 201.29 173.16C201.368 173.286 201.55 173.446 201.808 173.63C194.05 170.056 189.65 178.273 189.65 178.273C185.217 178.003 179.819 180.186 178.245 186.031C178.082 186.638 180.23 186.296 181.336 186.537C187.8 187.943 193.884 190.989 196.68 192.495C203.184 195.998 207.042 201.832 209.271 206.209C211.965 211.503 213.066 220.819 213.066 220.819C213.066 220.819 220.157 211.077 218.463 206.076C221.272 207.82 221.826 214.044 221.826 214.044C221.826 214.044 226.553 206.639 225.156 200.189C228.803 202.412 228.925 206.932 228.925 206.932C228.925 206.932 232.638 201.779 230.96 193.326C234.629 196.244 235.398 200.024 235.398 200.024C235.398 200.024 238.396 192 235.055 185.774V185.774Z" fill="url(#paint13_linear_2652_1803)"/>
<path d="M673.369 223C675.23 223 676.738 221.492 676.738 219.631C676.738 217.77 675.23 216.262 673.369 216.262C671.508 216.262 670 217.77 670 219.631C670 221.492 671.508 223 673.369 223Z" stroke="#363959" stroke-width="0.6" stroke-linecap="square"/>
<path d="M674.414 221.745L673.669 220.669H672.846V221.745H671.951V217.88H673.624C673.967 217.88 674.263 217.937 674.513 218.051C674.767 218.165 674.963 218.327 675.099 218.537C675.235 218.747 675.303 218.995 675.303 219.282C675.303 219.57 675.233 219.818 675.093 220.028C674.957 220.234 674.762 220.392 674.508 220.503L675.375 221.745H674.414ZM674.397 219.282C674.397 219.065 674.328 218.9 674.188 218.786C674.048 218.668 673.843 218.609 673.575 218.609H672.846V219.956H673.575C673.843 219.956 674.048 219.897 674.188 219.779C674.328 219.662 674.397 219.496 674.397 219.282Z" fill="#363959"/>
<defs>
<linearGradient id="paint0_linear_2652_1803" x1="228.768" y1="269.114" x2="143.231" y2="183.577" gradientUnits="userSpaceOnUse">
<stop stop-color="#130036"/>
<stop offset="0.2297" stop-color="#18023B"/>
<stop offset="0.5122" stop-color="#26094A"/>
<stop offset="0.8211" stop-color="#3D1563"/>
<stop offset="1" stop-color="#4E1D75"/>
</linearGradient>
<linearGradient id="paint1_linear_2652_1803" x1="127.481" y1="212.075" x2="152.877" y2="212.075" gradientUnits="userSpaceOnUse">
<stop stop-color="#3156A8"/>
<stop offset="0.2474" stop-color="#3351A4"/>
<stop offset="0.5365" stop-color="#3B4397"/>
<stop offset="0.8453" stop-color="#472C82"/>
<stop offset="1" stop-color="#4E1D75"/>
</linearGradient>
<radialGradient id="paint2_radial_2652_1803" cx="0" cy="0" r="1" gradientUnits="userSpaceOnUse" gradientTransform="translate(153.61 222.034) scale(45.615 66.1418)">
<stop offset="0.1654" stop-color="#14CDDA"/>
<stop offset="0.5478" stop-color="#2061BD"/>
<stop offset="0.6546" stop-color="#2658AC"/>
<stop offset="0.864" stop-color="#373F81"/>
<stop offset="1" stop-color="#432D62"/>
</radialGradient>
<linearGradient id="paint3_linear_2652_1803" x1="145.829" y1="192.056" x2="224.475" y2="192.056" gradientUnits="userSpaceOnUse">
<stop stop-color="#2061BD"/>
<stop offset="0.1846" stop-color="#2B51AC"/>
<stop offset="0.6826" stop-color="#442C84"/>
<stop offset="0.9409" stop-color="#4E1D75"/>
</linearGradient>
<linearGradient id="paint4_linear_2652_1803" x1="157.411" y1="173.491" x2="211.504" y2="220.513" gradientUnits="userSpaceOnUse">
<stop offset="0.0202" stop-color="#48A8E0"/>
<stop offset="0.3883" stop-color="#2061BD"/>
<stop offset="0.4968" stop-color="#2B51AC"/>
<stop offset="0.7892" stop-color="#442C84"/>
<stop offset="0.9409" stop-color="#4E1D75"/>
</linearGradient>
<linearGradient id="paint5_linear_2652_1803" x1="132.527" y1="341.623" x2="238.561" y2="184.421" gradientUnits="userSpaceOnUse">
<stop offset="0.3787" stop-color="#3156A8"/>
<stop offset="1" stop-color="#4E1D75"/>
</linearGradient>
<linearGradient id="paint6_linear_2652_1803" x1="173.766" y1="310.176" x2="232.397" y2="178.487" gradientUnits="userSpaceOnUse">
<stop stop-color="#29ABE2"/>
<stop offset="0.7733" stop-color="#385AA6"/>
<stop offset="0.8575" stop-color="#414293"/>
<stop offset="1" stop-color="#4E1D75"/>
</linearGradient>
<linearGradient id="paint7_linear_2652_1803" x1="147.829" y1="210.322" x2="151.025" y2="212.159" gradientUnits="userSpaceOnUse">
<stop stop-color="#B0DCD6"/>
<stop offset="1" stop-color="#53ACE0"/>
</linearGradient>
<radialGradient id="paint8_radial_2652_1803" cx="0" cy="0" r="1" gradientUnits="userSpaceOnUse" gradientTransform="translate(251.927 218.302) scale(43.7356 43.7356)">
<stop offset="0.868" stop-color="white"/>
<stop offset="1"/>
</radialGradient>
<linearGradient id="paint9_linear_2652_1803" x1="216.291" y1="173.427" x2="209.884" y2="172.073" gradientUnits="userSpaceOnUse">
<stop stop-color="#3092B9"/>
<stop offset="0.2199" stop-color="#258DB6"/>
<stop offset="0.6564" stop-color="#1685B1"/>
<stop offset="1" stop-color="#1082AF"/>
</linearGradient>
<linearGradient id="paint10_linear_2652_1803" x1="165.226" y1="181.422" x2="170.498" y2="202.568" gradientUnits="userSpaceOnUse">
<stop offset="0.0074" stop-color="#1398D1" stop-opacity="0"/>
<stop offset="0.2482" stop-color="#1187C2" stop-opacity="0.6197"/>
<stop offset="0.6422" stop-color="#3F6499" stop-opacity="0.71"/>
<stop offset="1" stop-color="#2F4282" stop-opacity="0.5"/>
</linearGradient>
<linearGradient id="paint11_linear_2652_1803" x1="160.955" y1="200.235" x2="158.05" y2="198.49" gradientUnits="userSpaceOnUse">
<stop stop-color="#F9C21B"/>
<stop offset="0.1479" stop-color="#F3BA1B"/>
<stop offset="0.3787" stop-color="#E3A41B"/>
<stop offset="0.6634" stop-color="#C9801C"/>
<stop offset="0.9884" stop-color="#A44E1C"/>
<stop offset="1" stop-color="#A34C1C"/>
</linearGradient>
<linearGradient id="paint12_linear_2652_1803" x1="232.343" y1="230.712" x2="212.661" y2="186.506" gradientUnits="userSpaceOnUse">
<stop stop-color="#409EC3"/>
<stop offset="0.62" stop-color="#2061BD"/>
</linearGradient>
<linearGradient id="paint13_linear_2652_1803" x1="216.583" y1="216.222" x2="202.482" y2="172.822" gradientUnits="userSpaceOnUse">
<stop stop-color="#14B2DA"/>
<stop offset="0.4028" stop-color="#297CCC"/>
<stop offset="0.5077" stop-color="#256FC5"/>
<stop offset="0.6492" stop-color="#2164BF"/>
<stop offset="0.8162" stop-color="#2061BD"/>
<stop offset="0.9835" stop-color="#2061BD"/>
</linearGradient>
</defs>
</svg>
