<svg width="800" height="450" viewBox="0 0 800 450" fill="none" xmlns="http://www.w3.org/2000/svg">
<rect width="800" height="450" fill="#D1FAE5"/>
<path d="M235.786 269.21L226.777 269.226C216.399 269.836 204.665 273.02 195.061 277.629L193.842 268.584C192.202 251.811 190.744 211.655 210.38 188.808C219.767 177.894 232.65 172.374 248.669 172.374C311.042 172.374 320.625 172.374 320.625 198.328C320.625 201.348 321.095 205.118 321.6 209.117L321.602 209.131C323.115 221.347 324.999 236.558 314.879 244.844C308.591 249.989 299.023 251.454 285.422 249.238L291.963 254.239L288.142 262.117C276.012 259.146 263.202 257.91 258.323 259.031C257.185 259.293 256.339 260.171 255.893 261.249C254.486 264.655 254.384 269.413 254.074 272.479C248.11 270.674 241.946 269.564 235.786 269.21Z" fill="black"/>
<path d="M309.128 237.951C304.752 241.542 293.834 244.009 266.771 235.307L262.628 243.097L271.746 250.064C260.808 248.937 250.411 249.867 248.178 256.727C247.638 258.44 247.206 260.047 246.9 261.548C242.702 260.781 238.467 260.316 234.234 260.191L234.234 183.344C234.918 183.131 235.603 182.935 236.289 182.754L236.323 182.754C237.027 182.575 237.729 182.416 238.449 182.273C241.638 181.612 245.024 181.292 248.666 181.292C278.429 181.292 297.112 181.486 305.507 184.237C310.821 185.989 311.616 187.826 311.616 198.313C311.616 201.888 312.119 205.923 312.644 210.191C313.975 220.768 315.47 232.771 309.128 237.951Z" fill="#10B981"/>
<path d="M234.272 198.061L234.235 260.191C233.317 260.154 232.38 260.136 231.461 260.136L231.282 260.136C221.569 260.136 211.895 261.814 202.598 265.03C201.283 248.169 200.905 213.568 217.245 194.561C217.821 193.883 218.435 193.24 219.047 192.613L219.804 191.865C220.2 191.472 220.597 191.095 221.01 190.757C221.318 190.487 221.607 190.238 221.913 189.989C222.904 189.149 223.95 188.38 225.029 187.666C225.373 187.45 225.697 187.237 226.055 187.023C226.506 186.737 226.993 186.47 227.461 186.202C227.731 186.06 228.002 185.915 228.272 185.774C229.029 185.379 229.786 185.022 230.578 184.684C230.974 184.522 231.371 184.362 231.768 184.199C232.181 184.039 232.578 183.897 232.993 183.756C233.406 183.612 233.822 183.468 234.235 183.343C234.921 183.129 235.605 182.932 236.29 182.755L236.326 182.755C237.028 182.575 237.731 182.415 238.451 182.271C238.451 182.271 234.853 184.684 234.272 198.061Z" fill="#059669"/>
<path d="M277.87 201.897C277.474 208.167 274.843 212.989 271.654 212.989C268.196 212.989 265.387 207.293 265.387 200.254C265.387 193.218 268.196 187.5 271.654 187.5C274.592 187.5 277.06 191.609 277.727 197.165L272.718 202.933L277.87 201.897Z" fill="black"/>
<path d="M297.213 217.59C298.294 220.405 298.192 223.643 298.18 226.591C298.161 232.339 307.168 232.347 307.189 226.591C307.2 222.94 307.238 218.697 305.899 215.216C305.032 212.964 302.864 211.413 300.358 212.096C298.183 212.691 296.341 215.324 297.213 217.59Z" fill="black"/>
<path d="M370.856 250.573C372.39 250.712 373.471 251.131 374.099 251.828C374.796 252.456 375.144 253.362 375.144 254.547C375.144 255.942 374.587 257.023 373.471 257.79C372.425 258.487 370.856 258.766 368.764 258.626L365.941 258.417C360.293 257.999 356.074 256.291 353.285 253.292C350.496 250.224 349.102 245.727 349.102 239.8C349.102 221.468 349.102 211.559 349.102 196.291C349.102 194.687 349.555 193.432 350.461 192.526C351.437 191.619 352.727 191.166 354.331 191.166C355.935 191.166 357.225 191.619 358.201 192.526C359.177 193.432 359.665 194.687 359.665 196.291V207.064H370.02C371.484 207.064 372.599 207.447 373.366 208.214C374.203 208.911 374.621 209.888 374.621 211.143C374.621 212.467 374.203 213.478 373.366 214.176C372.599 214.873 371.484 215.222 370.02 215.222H359.665V240.532C359.665 243.81 360.328 246.215 361.652 247.749C363.047 249.283 365.139 250.155 367.928 250.364L370.856 250.573Z" fill="black"/>
<path d="M406.329 258.836C401.309 258.836 396.881 257.755 393.046 255.593C389.281 253.432 386.352 250.364 384.26 246.389C382.238 242.345 381.227 237.674 381.227 232.374C381.227 227.005 382.238 222.334 384.26 218.359C386.352 214.315 389.281 211.212 393.046 209.051C396.881 206.889 401.309 205.809 406.329 205.809C411.349 205.809 415.742 206.889 419.507 209.051C423.342 211.212 426.271 214.315 428.293 218.359C430.384 222.334 431.43 227.005 431.43 232.374C431.43 237.674 430.384 242.345 428.293 246.389C426.271 250.364 423.342 253.432 419.507 255.593C415.742 257.755 411.349 258.836 406.329 258.836ZM406.329 250.468C411.001 250.468 414.557 248.934 416.997 245.866C419.507 242.798 420.762 238.301 420.762 232.374C420.762 226.517 419.507 222.055 416.997 218.987C414.487 215.849 410.931 214.28 406.329 214.28C401.727 214.28 398.171 215.849 395.661 218.987C393.151 222.055 391.895 226.517 391.895 232.374C391.895 238.301 393.116 242.798 395.556 245.866C398.066 248.934 401.657 250.468 406.329 250.468Z" fill="black"/>
<path d="M464.18 250.573C465.714 250.712 466.794 251.131 467.422 251.828C468.119 252.456 468.468 253.362 468.468 254.547C468.468 255.942 467.91 257.023 466.794 257.79C465.748 258.487 464.18 258.766 462.088 258.626L459.264 258.417C453.616 257.999 449.398 256.291 446.608 253.292C443.819 250.224 442.425 245.727 442.425 239.8C442.425 221.468 442.425 211.559 442.425 196.291C442.425 194.687 442.878 193.432 443.785 192.526C444.761 191.619 446.051 191.166 447.654 191.166C449.258 191.166 450.548 191.619 451.524 192.526C452.5 193.432 452.988 194.687 452.988 196.291V207.064H463.343C464.807 207.064 465.923 207.447 466.69 208.214C467.526 208.911 467.945 209.888 467.945 211.143C467.945 212.467 467.526 213.478 466.69 214.176C465.923 214.873 464.807 215.222 463.343 215.222H452.988V240.532C452.988 243.81 453.651 246.215 454.976 247.749C456.37 249.283 458.462 250.155 461.251 250.364L464.18 250.573Z" fill="black"/>
<path d="M516.24 245.239C517.216 245.239 518.018 245.622 518.646 246.389C519.273 247.156 519.587 248.133 519.587 249.318C519.587 251.34 518.332 253.048 515.822 254.443C513.381 255.837 510.697 256.918 507.768 257.685C504.91 258.452 502.155 258.836 499.506 258.836C491.418 258.836 485.038 256.5 480.366 251.828C475.694 247.087 473.358 240.637 473.358 232.479C473.358 227.249 474.369 222.613 476.391 218.569C478.483 214.524 481.377 211.387 485.072 209.155C488.838 206.924 493.091 205.809 497.832 205.809C504.666 205.809 510.069 208.005 514.044 212.398C518.018 216.79 520.005 222.717 520.005 230.178C520.005 232.967 518.75 234.362 516.24 234.362H483.922C484.619 245.169 489.814 250.573 499.506 250.573C502.086 250.573 504.317 250.224 506.2 249.527C508.082 248.83 510.069 247.923 512.161 246.808C512.37 246.668 512.928 246.389 513.835 245.971C514.811 245.483 515.613 245.239 516.24 245.239ZM498.042 213.548C493.997 213.548 490.755 214.838 488.315 217.418C485.874 219.998 484.41 223.624 483.922 228.295H510.906C510.697 223.554 509.477 219.928 507.245 217.418C505.084 214.838 502.016 213.548 498.042 213.548Z" fill="black"/>
<path d="M589.889 205.809C601.324 205.809 607.042 212.677 607.042 226.413V253.606C607.042 255.21 606.554 256.465 605.578 257.371C604.602 258.208 603.312 258.626 601.708 258.626C600.174 258.626 598.919 258.208 597.943 257.371C596.966 256.465 596.478 255.21 596.478 253.606V226.517C596.478 222.264 595.711 219.196 594.177 217.313C592.643 215.361 590.238 214.385 586.961 214.385C583.126 214.385 580.093 215.71 577.861 218.359C575.63 220.939 574.515 224.495 574.515 229.027V253.606C574.515 255.21 574.026 256.465 573.05 257.371C572.074 258.208 570.784 258.626 569.18 258.626C567.646 258.626 566.391 258.208 565.415 257.371C564.439 256.465 563.951 255.21 563.951 253.606V226.517C563.951 222.264 563.184 219.196 561.65 217.313C560.116 215.361 557.71 214.385 554.433 214.385C550.598 214.385 547.53 215.71 545.229 218.359C542.998 220.939 541.883 224.495 541.883 229.027V253.606C541.883 255.21 541.394 256.465 540.418 257.371C539.442 258.208 538.187 258.626 536.653 258.626C535.119 258.626 533.829 258.208 532.783 257.371C531.807 256.465 531.319 255.21 531.319 253.606V211.038C531.319 209.504 531.842 208.284 532.888 207.377C533.934 206.471 535.189 206.018 536.653 206.018C538.117 206.018 539.303 206.471 540.209 207.377C541.185 208.214 541.673 209.399 541.673 210.933V214.803C543.207 211.875 545.334 209.644 548.053 208.11C550.773 206.576 553.91 205.809 557.466 205.809C561.371 205.809 564.578 206.61 567.089 208.214C569.669 209.818 571.586 212.293 572.841 215.64C574.375 212.642 576.641 210.271 579.639 208.528C582.638 206.715 586.054 205.809 589.889 205.809Z" fill="black"/>
</svg>
