<svg width="1002" height="436" viewBox="0 0 1002 436" fill="none" xmlns="http://www.w3.org/2000/svg">
<path d="M289.548 273.65C294.481 259.317 296.945 244.272 303.517 230.371C313.689 208.881 326.382 188.707 332.143 165.01C336.345 147.694 345.354 131.286 349.932 113.997C355.126 94.2623 374.919 84.1792 398.893 74.7347C434.425 60.737 462.707 65.0255 496.679 73.8288C526.254 81.4929 556.291 87.3691 579.221 102.847C598.603 115.959 611.701 133.663 619.933 155.967C632.151 189.051 649.586 219.673 666.593 250.547C679.504 273.942 689.943 298.863 688.507 326.84C687.585 344.99 680.121 359.898 666.815 371.929C633.226 402.331 592.966 418.987 548.763 424.267C527.759 426.765 506.304 421.478 485.698 414.456C455.99 404.323 426.371 393.377 395.551 387.324C377.933 383.888 360.006 381.249 342.234 378.211C307.657 372.267 294.205 354.222 288.727 320.298C286.283 305.153 288.532 290.029 289.458 274.904" fill="#D1FAE5"/>
<path d="M328.495 272.377C340.2 245.206 359.147 222.265 373.08 196.491C381.081 181.728 388.664 166.523 398.834 153.452C414.008 133.916 436.05 123.834 460.559 124.39C505.608 125.329 549.076 131.067 580.381 170.356C604.077 200.063 629.526 228.358 648.119 261.711C656.101 276.044 662.267 291.109 662.483 307.998C662.781 333.704 649.81 352.873 630.195 366.804C598.794 389.115 562.644 397.025 524.845 391.28C495.661 386.827 467.938 375.618 440.432 365.023C415.488 355.362 391.189 344.023 366.52 333.669C355.698 329.107 345.862 322.853 337.327 315.193C324.877 304.027 326.535 288.735 328.426 273.872" fill="#A7F3D0"/>
<path d="M324.905 252.098C336.61 224.927 355.557 201.986 369.49 176.212C377.491 161.449 385.074 146.244 395.244 133.174C410.418 113.638 432.461 103.555 456.969 104.111C502.019 105.05 545.486 110.789 576.791 150.077C600.488 179.784 625.937 208.079 644.53 241.433C652.511 255.766 658.677 270.831 658.893 287.719C659.192 313.426 646.22 332.595 626.605 346.525C595.204 368.836 559.054 376.746 521.255 371.001C492.071 366.549 464.348 355.339 436.843 344.745C411.898 335.084 387.599 323.744 362.93 313.391C352.109 308.828 342.272 302.575 333.737 294.914C321.287 283.748 322.945 268.456 324.836 253.593" stroke="black" stroke-width="2.20139" stroke-miterlimit="10" stroke-linecap="round" stroke-linejoin="round" stroke-dasharray="5.87 14.68"/>
<path d="M305.674 260.512C305.477 261.087 304.85 261.392 304.275 261.195C303.701 260.997 303.395 260.37 303.593 259.796L305.674 260.512ZM318.603 216.875L317.608 216.404L317.608 216.404L318.603 216.875ZM347.229 151.514L348.299 151.773L348.299 151.774L347.229 151.514ZM365.018 100.501L366.083 100.781L366.082 100.783L365.018 100.501ZM413.979 61.2383L413.575 60.2142L413.979 61.2383ZM511.765 60.3324L511.489 61.3979L511.765 60.3324ZM594.307 89.3505L594.923 88.4382L594.924 88.4388L594.307 89.3505ZM635.019 142.471L633.987 142.852L633.987 142.852L635.019 142.471ZM681.679 237.051L680.715 237.582L680.715 237.582L681.679 237.051ZM703.592 313.344L702.493 313.288L702.493 313.287L703.592 313.344ZM681.901 358.433L681.162 357.617L681.162 357.617L681.901 358.433ZM563.849 410.771L563.98 411.864L563.979 411.864L563.849 410.771ZM500.784 400.959L500.429 402.001L500.429 402.001L500.784 400.959ZM410.637 373.828L410.847 372.748L410.849 372.748L410.637 373.828ZM357.32 364.714L357.135 365.799L357.134 365.799L357.32 364.714ZM303.813 306.801L302.726 306.977L302.726 306.976L303.813 306.801ZM303.445 261.341C303.482 260.734 304.004 260.272 304.611 260.309C305.218 260.347 305.68 260.869 305.643 261.475L303.445 261.341ZM304.609 256.732C304.794 256.153 305.413 255.834 305.992 256.019C306.571 256.204 306.891 256.824 306.705 257.403L304.609 256.732ZM311.205 241.733C311.044 242.319 310.438 242.663 309.852 242.502C309.266 242.34 308.922 241.734 309.083 241.148L311.205 241.733ZM310.857 234.873C311.028 234.289 311.64 233.955 312.223 234.126C312.807 234.297 313.141 234.908 312.97 235.492L310.857 234.873ZM318.28 220.274C318.04 220.833 317.393 221.092 316.834 220.852C316.276 220.613 316.017 219.965 316.256 219.407L318.28 220.274ZM319.087 213.323C319.352 212.777 320.011 212.549 320.558 212.815C321.104 213.08 321.332 213.739 321.066 214.286L319.087 213.323ZM328.729 199.105C328.452 199.646 327.788 199.86 327.248 199.582C326.707 199.305 326.493 198.642 326.771 198.101L328.729 199.105ZM329.863 192.039C330.138 191.496 330.8 191.279 331.342 191.554C331.885 191.828 332.102 192.49 331.828 193.032L329.863 192.039ZM339.219 177.633C338.972 178.188 338.322 178.438 337.766 178.191C337.211 177.944 336.961 177.294 337.208 176.738L339.219 177.633ZM339.857 170.504C340.085 169.941 340.727 169.669 341.29 169.897C341.854 170.124 342.126 170.766 341.898 171.33L339.857 170.504ZM347.439 155.102C347.279 155.689 346.673 156.034 346.087 155.874C345.501 155.714 345.155 155.108 345.315 154.522L347.439 155.102ZM346.805 148.733C346.963 148.146 347.567 147.799 348.154 147.957C348.741 148.115 349.089 148.719 348.931 149.306L346.805 148.733ZM352.855 137.151C352.646 137.722 352.014 138.016 351.443 137.807C350.872 137.598 350.579 136.966 350.788 136.395L352.855 137.151ZM352.612 131.558C352.831 130.991 353.468 130.709 354.035 130.929C354.602 131.148 354.884 131.785 354.665 132.352L352.612 131.558ZM359.39 120.383C359.168 120.949 358.53 121.228 357.964 121.006C357.398 120.784 357.119 120.146 357.34 119.58L359.39 120.383ZM359.183 114.788C359.397 114.219 360.031 113.931 360.6 114.145C361.17 114.358 361.458 114.993 361.244 115.562L359.183 114.788ZM365.388 103.288C365.218 103.871 364.608 104.208 364.024 104.039C363.44 103.87 363.104 103.259 363.273 102.675L365.388 103.288ZM364.897 97.1628C365.1 96.59 365.73 96.2906 366.303 96.4942C366.875 96.6977 367.175 97.3271 366.971 97.8999L364.897 97.1628ZM374.805 85.135C374.393 85.5822 373.697 85.6108 373.25 85.1989C372.803 84.7871 372.774 84.0907 373.186 83.6436L374.805 85.135ZM377.771 79.2637C378.235 78.8707 378.929 78.928 379.322 79.3917C379.715 79.8554 379.658 80.55 379.194 80.943L377.771 79.2637ZM391.884 72.4291C391.351 72.7214 390.682 72.5263 390.39 71.9933C390.097 71.4603 390.292 70.7912 390.825 70.4989L391.884 72.4291ZM396.393 67.627C396.939 67.3609 397.598 67.5881 397.864 68.1346C398.13 68.6812 397.903 69.34 397.357 69.6062L396.393 67.627ZM411.503 63.4088C410.939 63.6359 410.298 63.3629 410.071 62.799C409.843 62.2351 410.117 61.5939 410.68 61.3668L411.503 63.4088ZM416.262 59.1853C416.831 58.9733 417.465 59.2633 417.677 59.8331C417.889 60.4028 417.599 61.0365 417.029 61.2485L416.262 59.1853ZM430.499 57.0113C429.91 57.162 429.31 56.8069 429.159 56.218C429.008 55.6291 429.364 55.0294 429.953 54.8787L430.499 57.0113ZM435.557 53.5804C436.152 53.457 436.735 53.8396 436.858 54.4348C436.981 55.0301 436.599 55.6126 436.004 55.736L435.557 53.5804ZM449.963 53.7069C449.357 53.7579 448.825 53.3081 448.774 52.7023C448.723 52.0966 449.173 51.5642 449.779 51.5133L449.963 53.7069ZM455.518 51.1689C456.126 51.1469 456.636 51.6215 456.658 52.229C456.68 52.8365 456.205 53.3468 455.598 53.3688L455.518 51.1689ZM469.714 53.6527C469.107 53.6082 468.652 53.0806 468.697 52.4743C468.741 51.868 469.269 51.4127 469.875 51.4573L469.714 53.6527ZM475.591 51.9884C476.195 52.0559 476.63 52.6003 476.563 53.2045C476.495 53.8086 475.951 54.2436 475.346 54.1761L475.591 51.9884ZM489.344 56.3138C488.746 56.2006 488.354 55.6247 488.467 55.0275C488.58 54.4302 489.156 54.0377 489.753 54.1508L489.344 56.3138ZM495.363 55.2815C495.958 55.4082 496.337 55.9928 496.21 56.5874C496.084 57.182 495.499 57.5613 494.905 57.4346L495.363 55.2815ZM508.732 60.6906C508.143 60.541 507.786 59.9421 507.936 59.3529C508.085 58.7637 508.684 58.4073 509.273 58.5569L508.732 60.6906ZM515.079 60.0481C515.668 60.1984 516.024 60.7978 515.873 61.3868C515.723 61.9758 515.124 62.3314 514.535 62.1811L515.079 60.0481ZM529.77 66.0092C529.181 65.8608 528.823 65.2627 528.972 64.6731C529.12 64.0836 529.718 63.726 530.308 63.8744L529.77 66.0092ZM536.402 65.4246C536.99 65.5764 537.344 66.1766 537.193 66.7653C537.041 67.3539 536.441 67.7081 535.852 67.5563L536.402 65.4246ZM550.966 71.6852C550.383 71.5138 550.049 70.9021 550.221 70.3188C550.392 69.7356 551.004 69.4017 551.587 69.5731L550.966 71.6852ZM557.618 71.4135C558.198 71.5975 558.518 72.2163 558.334 72.7957C558.15 73.3751 557.531 73.6957 556.952 73.5117L557.618 71.4135ZM571.655 78.7713C571.091 78.5426 570.82 77.9006 571.049 77.3373C571.278 76.7741 571.92 76.5029 572.483 76.7316L571.655 78.7713ZM578.295 79.2313C578.848 79.4834 579.092 80.1362 578.84 80.6893C578.588 81.2425 577.935 81.4865 577.382 81.2344L578.295 79.2313ZM591.09 88.567C590.575 88.2431 590.421 87.5635 590.745 87.0491C591.068 86.5346 591.748 86.3802 592.262 86.7041L591.09 88.567ZM597.61 90.3136C598.103 90.6688 598.215 91.3567 597.86 91.85C597.504 92.3433 596.817 92.4553 596.323 92.1L597.61 90.3136ZM608.57 102.428C608.138 102.001 608.133 101.304 608.561 100.871C608.988 100.439 609.685 100.434 610.117 100.861L608.57 102.428ZM614.63 105.612C615.035 106.066 614.994 106.762 614.54 107.166C614.086 107.571 613.391 107.53 612.986 107.076L614.63 105.612ZM622.66 119.845C622.332 119.333 622.48 118.652 622.992 118.324C623.503 117.995 624.184 118.144 624.513 118.656L622.66 119.845ZM627.883 124.269C628.181 124.799 627.992 125.47 627.462 125.768C626.932 126.065 626.261 125.876 625.963 125.346L627.883 124.269ZM632.837 139.848C632.613 139.282 632.889 138.643 633.454 138.419C634.019 138.194 634.659 138.471 634.883 139.036L632.837 139.848ZM637.106 144.905C637.322 145.473 637.036 146.109 636.468 146.325C635.9 146.54 635.264 146.255 635.048 145.686L637.106 144.905ZM640.72 159.709C640.48 159.151 640.739 158.504 641.298 158.264C641.857 158.025 642.504 158.284 642.743 158.843L640.72 159.709ZM645.153 164.356C645.4 164.911 645.151 165.562 644.596 165.809C644.04 166.057 643.39 165.807 643.142 165.252L645.153 164.356ZM649.522 178.955C649.257 178.408 649.486 177.75 650.033 177.485C650.58 177.22 651.238 177.449 651.503 177.996L649.522 178.955ZM654.157 183.4C654.427 183.945 654.206 184.605 653.661 184.876C653.117 185.147 652.456 184.925 652.186 184.381L654.157 183.4ZM659.065 197.828C658.783 197.29 658.991 196.624 659.529 196.342C660.067 196.06 660.733 196.267 661.015 196.806L659.065 197.828ZM663.831 202.132C664.117 202.669 663.914 203.336 663.377 203.621C662.841 203.907 662.174 203.704 661.888 203.167L663.831 202.132ZM669.068 216.445C668.776 215.911 668.971 215.242 669.505 214.951C670.038 214.659 670.707 214.855 670.999 215.388L669.068 216.445ZM673.9 220.674C674.193 221.206 673.999 221.876 673.467 222.169C672.934 222.462 672.265 222.268 671.972 221.735L673.9 220.674ZM679.259 234.941C678.965 234.408 679.158 233.739 679.691 233.445C680.223 233.152 680.893 233.345 681.186 233.877L679.259 234.941ZM684.025 239.048C684.314 239.583 684.116 240.251 683.581 240.54C683.046 240.829 682.378 240.631 682.089 240.096L684.025 239.048ZM688.579 252.846C688.319 252.297 688.554 251.641 689.103 251.381C689.653 251.121 690.309 251.355 690.569 251.905L688.579 252.846ZM692.969 257.161C693.213 257.718 692.96 258.367 692.404 258.612C691.847 258.856 691.198 258.603 690.953 258.047L692.969 257.161ZM696.15 271.336C695.955 270.76 696.263 270.135 696.838 269.939C697.414 269.744 698.039 270.052 698.234 270.627L696.15 271.336ZM699.988 276.147C700.159 276.731 699.826 277.343 699.243 277.515C698.66 277.686 698.048 277.353 697.876 276.77L699.988 276.147ZM701.113 290.628C701.011 290.028 701.414 289.46 702.013 289.358C702.612 289.256 703.181 289.659 703.283 290.258L701.113 290.628ZM704.109 296.002C704.18 296.606 703.748 297.153 703.144 297.223C702.54 297.294 701.994 296.862 701.923 296.258L704.109 296.002ZM702.598 310.446C702.612 309.838 703.116 309.357 703.724 309.371C704.332 309.385 704.813 309.888 704.799 310.496L702.598 310.446ZM704.524 315.882C704.473 316.488 703.94 316.937 703.334 316.886C702.728 316.834 702.279 316.302 702.33 315.696L704.524 315.882ZM700.236 327.535C700.398 326.949 701.004 326.605 701.59 326.767C702.176 326.929 702.52 327.536 702.358 328.122L700.236 327.535ZM700.838 332.869C700.63 333.44 699.998 333.734 699.427 333.526C698.856 333.318 698.562 332.686 698.77 332.115L700.838 332.869ZM693.537 342.917C693.856 342.399 694.534 342.237 695.051 342.556C695.569 342.874 695.73 343.552 695.412 344.07L693.537 342.917ZM692.638 348.209C692.28 348.7 691.591 348.809 691.1 348.451C690.608 348.093 690.5 347.405 690.857 346.913L692.638 348.209ZM682.929 355.968C683.367 355.547 684.064 355.56 684.485 355.998C684.907 356.436 684.894 357.133 684.456 357.554L682.929 355.968ZM680.292 361.342C679.836 361.743 679.14 361.698 678.739 361.241C678.338 360.784 678.383 360.089 678.84 359.688L680.292 361.342ZM666.784 369.492C667.27 369.127 667.96 369.225 668.325 369.711C668.691 370.197 668.593 370.887 668.107 371.252L666.784 369.492ZM663.027 374.949C662.53 375.299 661.843 375.18 661.493 374.683C661.143 374.186 661.262 373.499 661.759 373.149L663.027 374.949ZM648.718 381.596C649.241 381.286 649.916 381.458 650.226 381.981C650.537 382.504 650.364 383.179 649.842 383.489L648.718 381.596ZM644.388 386.613C643.856 386.907 643.186 386.714 642.893 386.182C642.599 385.65 642.792 384.98 643.324 384.686L644.388 386.613ZM629.442 391.665C629.995 391.413 630.648 391.657 630.9 392.211C631.152 392.764 630.908 393.417 630.354 393.669L629.442 391.665ZM624.596 396.185C624.035 396.42 623.39 396.156 623.156 395.595C622.921 395.035 623.185 394.39 623.745 394.155L624.596 396.185ZM609.197 399.619C609.773 399.426 610.397 399.738 610.589 400.314C610.782 400.891 610.47 401.515 609.894 401.707L609.197 399.619ZM603.906 403.61C603.324 403.785 602.71 403.456 602.534 402.874C602.359 402.292 602.688 401.678 603.27 401.502L603.906 403.61ZM588.237 405.466C588.83 405.332 589.419 405.704 589.554 406.296C589.688 406.889 589.317 407.479 588.724 407.613L588.237 405.466ZM582.582 408.919C581.986 409.038 581.407 408.65 581.288 408.054C581.17 407.458 581.557 406.878 582.153 406.76L582.582 408.919ZM566.807 409.29C567.41 409.21 567.963 409.634 568.043 410.237C568.122 410.839 567.698 411.392 567.096 411.472L566.807 409.29ZM560.891 412.176C560.285 412.227 559.753 411.777 559.703 411.171C559.652 410.565 560.102 410.033 560.708 409.982L560.891 412.176ZM545.569 410.029C546.175 410.073 546.631 410.599 546.588 411.206C546.545 411.812 546.018 412.268 545.412 412.225L545.569 410.029ZM539.255 411.623C538.652 411.548 538.223 410.999 538.298 410.396C538.372 409.792 538.922 409.364 539.525 409.438L539.255 411.623ZM524.561 406.749C525.153 406.886 525.522 407.477 525.386 408.069C525.249 408.662 524.658 409.031 524.066 408.894L524.561 406.749ZM518.082 407.408C517.495 407.252 517.145 406.649 517.301 406.062C517.456 405.474 518.059 405.124 518.647 405.28L518.082 407.408ZM504.036 400.89C504.613 401.081 504.926 401.704 504.735 402.281C504.544 402.858 503.921 403.171 503.344 402.98L504.036 400.89ZM497.88 401.13C497.305 400.933 496.999 400.307 497.196 399.732C497.393 399.157 498.019 398.85 498.594 399.047L497.88 401.13ZM485.869 394.666C486.444 394.864 486.749 395.49 486.551 396.065C486.353 396.64 485.726 396.945 485.151 396.747L485.869 394.666ZM480.062 394.995C479.487 394.798 479.181 394.172 479.378 393.597C479.575 393.022 480.201 392.716 480.776 392.913L480.062 394.995ZM468.02 388.587C468.597 388.779 468.908 389.403 468.716 389.979C468.524 390.556 467.9 390.867 467.323 390.675L468.02 388.587ZM462.217 388.986C461.64 388.797 461.325 388.176 461.514 387.598C461.703 387.02 462.325 386.705 462.903 386.894L462.217 388.986ZM450.054 382.813C450.635 382.991 450.962 383.607 450.784 384.188C450.606 384.769 449.99 385.096 449.409 384.918L450.054 382.813ZM444.264 383.369C443.681 383.196 443.348 382.584 443.521 382.001C443.693 381.418 444.305 381.085 444.888 381.258L444.264 383.369ZM431.896 377.617C432.484 377.772 432.835 378.374 432.68 378.962C432.525 379.55 431.923 379.901 431.335 379.746L431.896 377.617ZM426.134 378.414C425.544 378.268 425.185 377.671 425.331 377.081C425.478 376.491 426.075 376.131 426.665 376.278L426.134 378.414ZM413.498 373.281C414.093 373.403 414.477 373.985 414.354 374.58C414.232 375.176 413.65 375.559 413.054 375.437L413.498 373.281ZM407.901 374.422C407.304 374.308 406.912 373.731 407.026 373.134C407.14 372.537 407.716 372.145 408.314 372.259L407.901 374.422ZM395.623 369.959C396.222 370.063 396.623 370.633 396.52 371.231C396.416 371.83 395.846 372.232 395.247 372.128L395.623 369.959ZM390.174 371.261C389.575 371.16 389.171 370.592 389.272 369.992C389.373 369.393 389.941 368.989 390.54 369.09L390.174 371.261ZM377.828 366.989C378.428 367.087 378.835 367.652 378.737 368.252C378.639 368.852 378.073 369.259 377.473 369.161L377.828 366.989ZM372.389 368.333C371.789 368.235 371.382 367.669 371.48 367.069C371.578 366.469 372.143 366.062 372.743 366.16L372.389 368.333ZM360.043 364.06C360.642 364.162 361.046 364.73 360.945 365.329C360.844 365.928 360.276 366.332 359.676 366.231L360.043 364.06ZM354.086 365.234C353.49 365.114 353.104 364.535 353.223 363.938C353.342 363.342 353.922 362.956 354.518 363.075L354.086 365.234ZM339.996 358.88C340.561 359.106 340.835 359.746 340.61 360.311C340.385 360.875 339.744 361.15 339.18 360.925L339.996 358.88ZM333.5 358.331C332.961 358.051 332.751 357.386 333.032 356.847C333.312 356.307 333.977 356.098 334.516 356.378L333.5 358.331ZM322.433 347.605C322.862 348.035 322.862 348.732 322.431 349.162C322.001 349.591 321.304 349.59 320.875 349.16L322.433 347.605ZM316.742 344.446C316.371 343.965 316.461 343.274 316.943 342.903C317.424 342.532 318.115 342.622 318.486 343.103L316.742 344.446ZM311.101 330.054C311.333 330.616 311.065 331.26 310.503 331.491C309.94 331.723 309.297 331.455 309.066 330.893L311.101 330.054ZM306.928 325.052C306.741 324.473 307.058 323.853 307.636 323.665C308.215 323.478 308.835 323.795 309.023 324.373L306.928 325.052ZM305.413 309.629C305.522 310.228 305.125 310.8 304.526 310.909C303.928 311.017 303.356 310.62 303.247 310.022L305.413 309.629ZM302.269 303.712C302.197 303.109 302.628 302.561 303.231 302.489C303.835 302.417 304.383 302.847 304.455 303.451L302.269 303.712ZM303.883 287.388C303.864 287.995 303.356 288.472 302.748 288.453C302.141 288.434 301.664 287.926 301.683 287.319L303.883 287.388ZM301.999 280.79C302.038 280.183 302.56 279.723 303.167 279.761C303.774 279.799 304.235 280.322 304.196 280.929L301.999 280.79ZM305.425 264.73C305.382 265.337 304.855 265.793 304.249 265.75C303.642 265.706 303.186 265.179 303.229 264.573L305.425 264.73ZM303.593 259.796C303.943 258.779 304.281 257.757 304.609 256.732L306.705 257.403C306.373 258.441 306.03 259.478 305.674 260.512L303.593 259.796ZM309.083 241.148C309.66 239.056 310.245 236.962 310.857 234.873L312.97 235.492C312.362 237.564 311.781 239.645 311.205 241.733L309.083 241.148ZM316.256 219.407C316.687 218.401 317.137 217.4 317.608 216.404L319.598 217.345C319.139 218.316 318.701 219.292 318.28 220.274L316.256 219.407ZM317.608 216.404C318.096 215.374 318.589 214.347 319.087 213.323L321.066 214.286C320.572 215.303 320.082 216.323 319.598 217.346L317.608 216.404ZM326.771 198.101C327.807 196.081 328.84 194.062 329.863 192.039L331.828 193.032C330.802 195.061 329.766 197.085 328.729 199.105L326.771 198.101ZM337.208 176.738C338.124 174.676 339.01 172.599 339.857 170.504L341.898 171.33C341.041 173.45 340.145 175.55 339.219 177.633L337.208 176.738ZM345.315 154.522C345.611 153.439 345.893 152.35 346.159 151.253L348.299 151.774C348.027 152.891 347.74 154 347.439 155.102L345.315 154.522ZM346.159 151.254C346.364 150.411 346.579 149.571 346.805 148.733L348.931 149.306C348.71 150.127 348.499 150.949 348.299 151.773L346.159 151.254ZM350.788 136.395C351.379 134.778 351.99 133.166 352.612 131.558L354.665 132.352C354.047 133.951 353.441 135.55 352.855 137.151L350.788 136.395ZM357.34 119.58C357.966 117.983 358.583 116.387 359.183 114.788L361.244 115.562C360.639 117.173 360.018 118.78 359.39 120.383L357.34 119.58ZM363.273 102.675C363.51 101.858 363.737 101.039 363.954 100.219L366.082 100.783C365.86 101.62 365.629 102.455 365.388 103.288L363.273 102.675ZM363.954 100.221C364.229 99.176 364.544 98.1571 364.897 97.1628L366.971 97.8999C366.639 98.8358 366.342 99.7957 366.083 100.781L363.954 100.221ZM373.186 83.6436C374.599 82.1097 376.132 80.6532 377.771 79.2637L379.194 80.943C377.618 82.2796 376.151 83.6738 374.805 85.135L373.186 83.6436ZM390.825 70.4989C392.624 69.5127 394.482 68.5576 396.393 67.627L397.357 69.6062C395.474 70.5232 393.647 71.4621 391.884 72.4291L390.825 70.4989ZM410.68 61.3668C411.638 60.981 412.604 60.597 413.575 60.2142L414.382 62.2624C413.415 62.6434 412.455 63.0254 411.503 63.4088L410.68 61.3668ZM413.575 60.2142C414.475 59.8597 415.371 59.5168 416.262 59.1853L417.029 61.2485C416.151 61.5751 415.269 61.913 414.382 62.2624L413.575 60.2142ZM429.953 54.8787C431.836 54.3965 433.703 53.9645 435.557 53.5804L436.004 55.736C434.183 56.1132 432.349 56.5375 430.499 57.0113L429.953 54.8787ZM449.779 51.5133C451.7 51.3517 453.613 51.2379 455.518 51.1689L455.598 53.3688C453.727 53.4366 451.849 53.5483 449.963 53.7069L449.779 51.5133ZM469.875 51.4573C471.78 51.5973 473.684 51.7753 475.591 51.9884L475.346 54.1761C473.466 53.966 471.589 53.7906 469.714 53.6527L469.875 51.4573ZM489.753 54.1508C491.614 54.5033 493.483 54.8811 495.363 55.2815L494.905 57.4346C493.039 57.0373 491.186 56.6628 489.344 56.3138L489.753 54.1508ZM509.273 58.5569C510.192 58.7901 511.114 59.0268 512.041 59.2669L511.489 61.3979C510.565 61.1587 509.647 60.9228 508.732 60.6906L509.273 58.5569ZM512.041 59.2669C513.053 59.5292 514.066 59.7894 515.079 60.0481L514.535 62.1811C513.519 61.9219 512.504 61.661 511.489 61.3979L512.041 59.2669ZM530.308 63.8744C532.344 64.387 534.377 64.9025 536.402 65.4246L535.852 67.5563C533.832 67.0356 531.804 66.5212 529.77 66.0092L530.308 63.8744ZM551.587 69.5731C553.612 70.1681 555.624 70.7802 557.618 71.4135L556.952 73.5117C554.974 72.8837 552.978 72.2762 550.966 71.6852L551.587 69.5731ZM572.483 76.7316C574.447 77.529 576.385 78.3607 578.295 79.2313L577.382 81.2344C575.502 80.3775 573.592 79.5579 571.655 78.7713L572.483 76.7316ZM592.262 86.7041C593.159 87.2685 594.046 87.8463 594.923 88.4382L593.691 90.2628C592.834 89.6843 591.967 89.1192 591.09 88.567L592.262 86.7041ZM594.924 88.4388C595.833 89.0537 596.728 89.6786 597.61 90.3136L596.323 92.1C595.459 91.4777 594.581 90.8651 593.69 90.2622L594.924 88.4388ZM610.117 100.861C611.677 102.401 613.181 103.985 614.63 105.612L612.986 107.076C611.568 105.484 610.097 103.935 608.57 102.428L610.117 100.861ZM624.513 118.656C625.686 120.484 626.809 122.356 627.883 124.269L625.963 125.346C624.911 123.47 623.81 121.636 622.66 119.845L624.513 118.656ZM634.883 139.036C635.283 140.044 635.673 141.062 636.052 142.09L633.987 142.852C633.614 141.841 633.23 140.839 632.837 139.848L634.883 139.036ZM636.052 142.09C636.399 143.03 636.751 143.968 637.106 144.905L635.048 145.686C634.69 144.744 634.336 143.799 633.987 142.852L636.052 142.09ZM642.743 158.843C643.533 160.687 644.336 162.524 645.153 164.356L643.142 165.252C642.322 163.411 641.514 161.563 640.72 159.709L642.743 158.843ZM651.503 177.996C652.378 179.802 653.263 181.603 654.157 183.4L652.186 184.381C651.288 182.577 650.4 180.769 649.522 178.955L651.503 177.996ZM661.015 196.806C661.947 198.584 662.887 200.359 663.831 202.132L661.888 203.167C660.942 201.39 660 199.611 659.065 197.828L661.015 196.806ZM670.999 215.388C671.963 217.151 672.931 218.912 673.9 220.674L671.972 221.735C671.002 219.973 670.033 218.209 669.068 216.445L670.999 215.388ZM681.186 233.877C681.672 234.758 682.158 235.639 682.643 236.519L680.715 237.582C680.23 236.701 679.744 235.821 679.259 234.941L681.186 233.877ZM682.642 236.519C683.106 237.36 683.568 238.203 684.025 239.048L682.089 240.096C681.634 239.256 681.176 238.418 680.715 237.582L682.642 236.519ZM690.569 251.905C691.393 253.647 692.194 255.398 692.969 257.161L690.953 258.047C690.187 256.304 689.395 254.571 688.579 252.846L690.569 251.905ZM698.234 270.627C698.856 272.455 699.441 274.295 699.988 276.147L697.876 276.77C697.339 274.947 696.762 273.136 696.15 271.336L698.234 270.627ZM703.283 290.258C703.607 292.158 703.884 294.073 704.109 296.002L701.923 296.258C701.702 294.368 701.431 292.491 701.113 290.628L703.283 290.258ZM704.799 310.496C704.777 311.461 704.742 312.428 704.692 313.4L702.493 313.287C702.542 312.337 702.577 311.39 702.598 310.446L704.799 310.496ZM704.692 313.399C704.649 314.233 704.593 315.061 704.524 315.882L702.33 315.696C702.398 314.9 702.452 314.097 702.493 313.288L704.692 313.399ZM702.358 328.122C701.911 329.734 701.405 331.316 700.838 332.869L698.77 332.115C699.317 330.617 699.805 329.09 700.236 327.535L702.358 328.122ZM695.412 344.07C694.545 345.479 693.62 346.858 692.638 348.209L690.857 346.913C691.807 345.608 692.7 344.276 693.537 342.917L695.412 344.07ZM684.456 357.554C683.863 358.126 683.257 358.691 682.639 359.249L681.162 357.617C681.764 357.073 682.352 356.524 682.929 355.968L684.456 357.554ZM682.639 359.249C681.861 359.954 681.078 360.651 680.292 361.342L678.84 359.688C679.617 359.005 680.391 358.314 681.162 357.617L682.639 359.249ZM668.107 371.252C666.428 372.514 664.734 373.747 663.027 374.949L661.759 373.149C663.448 371.96 665.123 370.741 666.784 369.492L668.107 371.252ZM649.842 383.489C648.037 384.561 646.219 385.602 644.388 386.613L643.324 384.686C645.135 383.686 646.933 382.656 648.718 381.596L649.842 383.489ZM630.354 393.669C628.447 394.537 626.528 395.376 624.596 396.185L623.745 394.155C625.657 393.354 627.556 392.524 629.442 391.665L630.354 393.669ZM609.894 401.707C607.909 402.37 605.913 403.004 603.906 403.61L603.27 401.502C605.257 400.902 607.232 400.275 609.197 399.619L609.894 401.707ZM588.724 407.613C586.687 408.075 584.639 408.511 582.582 408.919L582.153 406.76C584.191 406.355 586.219 405.924 588.237 405.466L588.724 407.613ZM567.096 411.472C566.059 411.609 565.02 411.74 563.98 411.864L563.719 409.678C564.75 409.555 565.78 409.425 566.807 409.29L567.096 411.472ZM563.979 411.864C562.951 411.986 561.921 412.09 560.891 412.176L560.708 409.982C561.713 409.898 562.717 409.797 563.719 409.678L563.979 411.864ZM545.412 412.225C543.359 412.079 541.306 411.876 539.255 411.623L539.525 409.438C541.541 409.687 543.556 409.886 545.569 410.029L545.412 412.225ZM524.066 408.894C522.067 408.433 520.072 407.935 518.082 407.408L518.647 405.28C520.615 405.802 522.587 406.294 524.561 406.749L524.066 408.894ZM503.344 402.98C502.37 402.658 501.399 402.331 500.429 402.001L501.139 399.917C502.103 400.246 503.069 400.57 504.036 400.89L503.344 402.98ZM500.429 402.001C499.579 401.711 498.73 401.421 497.88 401.13L498.594 399.047C499.442 399.338 500.291 399.628 501.14 399.917L500.429 402.001ZM485.151 396.747C483.455 396.162 481.759 395.578 480.062 394.995L480.776 392.913C482.475 393.496 484.172 394.081 485.869 394.666L485.151 396.747ZM467.323 390.675C465.623 390.108 463.921 389.544 462.217 388.986L462.903 386.894C464.61 387.454 466.316 388.018 468.02 388.587L467.323 390.675ZM449.409 384.918C447.696 384.393 445.981 383.876 444.264 383.369L444.888 381.258C446.613 381.768 448.334 382.287 450.054 382.813L449.409 384.918ZM431.335 379.746C429.604 379.29 427.871 378.846 426.134 378.414L426.665 376.278C428.412 376.712 430.155 377.159 431.896 377.617L431.335 379.746ZM413.054 375.437C412.178 375.257 411.302 375.08 410.425 374.908L410.849 372.748C411.733 372.921 412.616 373.099 413.498 373.281L413.054 375.437ZM410.426 374.908C409.585 374.744 408.744 374.582 407.901 374.422L408.314 372.259C409.159 372.42 410.003 372.583 410.847 372.748L410.426 374.908ZM395.247 372.128C393.558 371.835 391.867 371.546 390.174 371.261L390.54 369.09C392.236 369.376 393.93 369.666 395.623 369.959L395.247 372.128ZM377.473 369.161C375.787 368.886 374.076 368.608 372.389 368.333L372.743 366.16C374.446 366.438 376.125 366.711 377.828 366.989L377.473 369.161ZM359.676 366.231C358.829 366.088 357.982 365.944 357.135 365.799L357.506 363.629C358.351 363.774 359.197 363.918 360.043 364.06L359.676 366.231ZM357.134 365.799C356.1 365.621 355.084 365.433 354.086 365.234L354.518 363.075C355.496 363.27 356.492 363.455 357.507 363.63L357.134 365.799ZM339.18 360.925C337.191 360.131 335.3 359.267 333.5 358.331L334.516 356.378C336.247 357.278 338.072 358.112 339.996 358.88L339.18 360.925ZM320.875 349.16C319.399 347.681 318.023 346.11 316.742 344.446L318.486 343.103C319.711 344.694 321.025 346.194 322.433 347.605L320.875 349.16ZM309.066 330.893C308.294 329.021 307.584 327.074 306.928 325.052L309.023 324.373C309.662 326.346 310.353 328.239 311.101 330.054L309.066 330.893ZM303.247 310.022C303.066 309.021 302.892 308.006 302.726 306.977L304.9 306.626C305.064 307.642 305.235 308.643 305.413 309.629L303.247 310.022ZM302.726 306.976C302.551 305.888 302.399 304.8 302.269 303.712L304.455 303.451C304.581 304.51 304.729 305.568 304.9 306.626L302.726 306.976ZM301.683 287.319C301.751 285.14 301.862 282.963 301.999 280.79L304.196 280.929C304.06 283.085 303.95 285.237 303.883 287.388L301.683 287.319ZM303.229 264.573C303.307 263.495 303.379 262.417 303.445 261.341L305.643 261.475C305.576 262.561 305.503 263.646 305.425 264.73L303.229 264.573Z" fill="black"/>
<path d="M407.471 189.04C408.579 193.532 413.119 196.275 417.611 195.166C422.103 194.058 424.846 189.518 423.738 185.026C422.629 180.534 418.089 177.791 413.597 178.899C409.105 180.008 406.362 184.548 407.471 189.04Z" fill="#00BC7F"/>
<path d="M518.096 370.736C519.204 375.228 523.744 377.971 528.236 376.862C532.728 375.754 535.471 371.214 534.363 366.722C533.254 362.23 528.714 359.487 524.222 360.595C519.73 361.704 516.987 366.244 518.096 370.736Z" fill="#00BC7F"/>
<circle r="3.2128" transform="matrix(-0.970876 0.239581 0.239581 0.970876 434.252 203.847)" fill="#00BC7F"/>
<circle r="3.2128" transform="matrix(-0.970876 0.239581 0.239581 0.970876 524.322 346.989)" fill="#00BC7F"/>
<circle r="3.2128" transform="matrix(-0.970876 0.239581 0.239581 0.970876 452.783 298.719)" fill="#00BC7F"/>
<circle r="1.86234" transform="matrix(-0.970876 0.239581 0.239581 0.970876 516.087 338.421)" fill="#00BC7F"/>
<circle r="1.86234" transform="matrix(-0.970876 0.239581 0.239581 0.970876 451.767 309.717)" fill="#00BC7F"/>
<circle r="1.86234" transform="matrix(-0.970876 0.239581 0.239581 0.970876 443.833 189.287)" fill="#00BC7F"/>
<path d="M531.477 192.617C542.32 198.011 550.44 207.684 553.849 219.231L565.345 214.958C564.112 202.397 559.94 194.306 552.932 190.88C545.82 187.422 536.863 189.192 529.745 191.802C530.33 192.058 530.906 192.332 531.477 192.617Z" fill="#00BC7F"/>
<path d="M556.144 250.869C559.435 254.412 562.971 258.969 566.758 264.77L579.706 259.951C578.474 247.397 574.303 239.304 567.294 235.88C564.016 234.282 560.357 233.807 556.655 234.008C557.224 239.942 557.034 245.617 556.144 250.869Z" fill="#00BC7F"/>
<path d="M530.019 282.558L538.834 293.751L534.03 281.349C532.707 281.843 531.366 282.249 530.019 282.558Z" fill="#00BC7F"/>
<path d="M534.03 281.348L538.834 293.751L537.82 279.545C536.614 280.216 535.356 280.817 534.052 281.339L534.03 281.348Z" fill="#00BC7F"/>
<path d="M464.608 193.747C466.9 194.501 471.619 193.8 481.036 186.176L483.881 188.634L481.33 192.807C485.504 190.675 489.779 189.444 491.723 191.827C492.201 192.425 492.62 192.997 492.973 193.547C494.523 192.595 496.135 191.759 497.798 191.057L485.968 160.515C485.664 160.535 485.361 160.563 485.061 160.597L485.047 160.602C484.74 160.639 484.436 160.684 484.128 160.738C482.759 160.966 481.364 161.36 479.917 161.921C468.088 166.502 460.692 169.455 457.779 171.841C455.936 173.356 455.903 174.208 457.518 178.376C458.068 179.797 458.489 181.478 458.938 183.255C460.037 187.664 461.29 192.665 464.608 193.747Z" fill="#00BC7F"/>
<path d="M488.223 166.37L497.801 191.058C498.161 190.901 498.53 190.75 498.895 190.609L498.967 190.581C502.827 189.086 506.93 188.264 511.12 188.111C509.047 181.207 503.871 167.397 494.451 162.358C494.118 162.177 493.775 162.016 493.435 161.861L493.019 161.68C492.801 161.585 492.585 161.496 492.369 161.425C492.205 161.366 492.052 161.311 491.892 161.259C491.369 161.078 490.835 160.934 490.296 160.816C490.126 160.783 489.965 160.748 489.789 160.718C489.566 160.674 489.331 160.643 489.104 160.608C488.975 160.593 488.845 160.577 488.716 160.563C488.354 160.522 487.998 160.497 487.632 160.485C487.449 160.481 487.267 160.479 487.084 160.475C486.895 160.475 486.716 160.48 486.529 160.488C486.342 160.494 486.155 160.501 485.972 160.515C485.666 160.535 485.364 160.562 485.065 160.597L485.05 160.603C484.743 160.64 484.439 160.684 484.131 160.737C480.702 161.985 486.954 163.882 488.223 166.37Z" fill="#00BC7F"/>
<path d="M471.485 174.605C472.608 177.036 474.396 178.548 475.663 178.057C477.038 177.525 477.277 174.828 476.194 172.031C475.111 169.234 473.114 167.394 471.74 167.926C470.572 168.379 470.224 170.392 470.814 172.702L473.692 174.224L471.485 174.605Z" fill="#00BC7F"/>
<path d="M466.209 183.821C466.212 185.106 466.751 186.377 467.21 187.547C468.103 189.829 464.524 191.218 463.629 188.934C463.063 187.485 462.395 185.804 462.391 184.214C462.389 183.186 463.012 182.236 464.113 182.121C465.069 182.023 466.206 182.786 466.209 183.821Z" fill="#00BC7F"/>
<path d="M534.625 244.152L534.627 244.158L534.633 244.149L534.625 244.152Z" fill="#00BC7F"/>
<path d="M534.625 244.152L534.627 244.158L534.633 244.149L534.625 244.152Z" fill="#00BC7F"/>
<path d="M534.625 244.152L534.627 244.158L534.633 244.149L534.625 244.152Z" fill="#00BC7F"/>
<path d="M508.606 254.23L508.616 254.234L508.613 254.227L508.606 254.23Z" fill="#00BC7F"/>
<path d="M508.606 254.23L508.616 254.234L508.613 254.227L508.606 254.23Z" fill="#00BC7F"/>
<path d="M508.606 254.23L508.616 254.234L508.613 254.227L508.606 254.23Z" fill="#00BC7F"/>
<path d="M466.174 253.367L477.621 248.754C472.371 237.92 471.848 225.304 476.23 214.014C476.46 213.418 476.708 212.825 476.961 212.244C469.926 215.108 462.065 219.835 459.131 227.208C456.259 234.462 458.625 243.252 466.174 253.367Z" fill="#00BC7F"/>
<path d="M487.453 257.768C487.502 257.831 487.547 257.903 487.596 257.965L488.145 257.321C487.912 257.468 487.681 257.613 487.453 257.768Z" fill="#00BC7F"/>
<path d="M485.869 296.296L498.685 291.136C497.57 284.26 497.112 278.486 497.167 273.631C492.999 270.355 489.056 266.297 485.48 261.551C482.588 263.904 480.185 266.738 478.828 270.145C475.955 277.397 478.322 286.188 485.869 296.296Z" fill="#00BC7F"/>
<path d="M548.966 232.291L552.685 232.752C552.237 228.958 551.482 225.054 550.387 221.077C549.805 218.959 549.049 216.901 548.136 214.928L544.652 216.008C545.615 217.986 546.401 220.057 546.994 222.204C547.936 225.636 548.591 229.007 548.966 232.291Z" fill="#00BC7F"/>
<path d="M542.751 212.605L546.339 211.492C542.464 204.91 536.728 199.499 529.741 196.024C528.976 195.642 528.205 195.288 527.428 194.961L524.991 198.239C526.172 198.672 527.342 199.183 528.494 199.756C534.388 202.683 539.299 207.156 542.751 212.605Z" fill="#00BC7F"/>
<path d="M549.287 236.176C549.669 243.923 548.46 251.029 545.828 256.947L549.786 259.726C552.42 253.112 553.557 245.225 553.033 236.644L553.03 236.637L549.287 236.176Z" fill="#00BC7F"/>
<path d="M534.633 244.145L534.625 244.148L534.627 244.154L534.633 244.145Z" fill="#00BC7F"/>
<path d="M523.427 219.402L532.327 224.928L542.766 221.497C540.977 216.157 537.898 211.503 533.773 207.867L526.051 213.528L523.427 219.402Z" fill="#00BC7F"/>
<path d="M528.884 237.605L534.946 242.009L545.514 238.168C545.451 234.029 544.887 229.659 543.797 225.166L533.433 228.577L528.884 237.605Z" fill="#00BC7F"/>
<path d="M515.278 205.438L524.336 210.054L530.651 205.436C529.424 204.606 528.124 203.843 526.758 203.164C523.137 201.365 519.31 200.284 515.497 199.965L515.278 205.438Z" fill="#00BC7F"/>
<path d="M536.168 245.617L533.232 254.559L540.636 258.73C543.368 254.193 545.007 248.561 545.422 242.253L536.168 245.617Z" fill="#00BC7F"/>
<path d="M521.127 197.042L523.679 193.596C520.948 192.752 518.163 192.221 515.395 192.004C510.869 191.65 506.372 192.134 502.153 193.49L503.688 197.452C509.217 195.719 515.261 195.59 521.127 197.042Z" fill="#00BC7F"/>
<path d="M544.072 260.395C541.22 265.255 537.259 269.084 532.315 271.479L534.454 277.003C535.774 276.37 537.026 275.647 538.212 274.82C538.84 274.398 539.454 273.94 540.038 273.453C543.346 270.766 546.068 267.312 548.165 263.266L544.072 260.395Z" fill="#00BC7F"/>
<path d="M503.172 201.669L505.187 206.873C507.719 205.926 510.019 205.336 511.459 205.016L511.665 199.89C508.745 200.026 505.893 200.615 503.186 201.664L503.172 201.669Z" fill="#00BC7F"/>
<path d="M513.019 208.575C511.905 208.803 509.379 209.381 506.565 210.43L510.583 220.803C514.494 219.336 517.966 218.67 519.684 218.404L522.021 213.171L513.019 208.575Z" fill="#00BC7F"/>
<path d="M520.558 222.132C519.202 222.329 515.8 222.921 511.959 224.36L517.431 238.487C520.725 237.253 523.677 236.689 525.192 236.454L529.576 227.726L520.558 222.132Z" fill="#00BC7F"/>
<path d="M525.93 240.192C524.679 240.383 521.9 240.887 518.808 242.044L523.972 255.377C526.214 254.534 528.239 254.043 529.459 253.79L532.381 244.878L525.93 240.192Z" fill="#00BC7F"/>
<path d="M530.573 257.45C529.593 257.642 527.578 258.096 525.347 258.928L529.147 268.739L529.17 268.73C532.834 267.262 535.943 264.916 538.431 261.878L530.573 257.45Z" fill="#00BC7F"/>
<path d="M495.772 206.037L499.339 209.653C501.246 208.498 503.282 207.587 505.187 206.872L503.172 201.669C500.501 202.703 498.003 204.185 495.772 206.037Z" fill="#00BC7F"/>
<path d="M517.745 269.897C521.615 270.471 525.467 270.106 529.146 268.739L525.345 258.927C523.774 259.504 522.089 260.278 520.579 261.288L517.745 269.897Z" fill="#00BC7F"/>
<path d="M510.762 253.251L518.883 257.846C520.537 256.806 522.315 255.994 523.97 255.377L518.806 242.044C516.681 242.827 514.411 243.919 512.377 245.409L510.762 253.251Z" fill="#00BC7F"/>
<path d="M497.066 222.836L502.278 225.112C504.963 223.199 507.876 221.81 510.581 220.802L506.564 210.43C504.605 211.156 502.513 212.113 500.64 213.336L497.066 222.836Z" fill="#00BC7F"/>
<path d="M508.606 254.226L508.616 254.23L508.613 254.223L508.606 254.226Z" fill="#00BC7F"/>
<path d="M501.284 238.683L510.355 242.159C512.631 240.535 515.121 239.35 517.43 238.488L511.958 224.36C509.403 225.309 506.652 226.627 504.187 228.447L501.284 238.683Z" fill="#00BC7F"/>
<path d="M511.492 277.479C515.741 279.05 520.053 279.764 524.278 279.533C525.063 279.497 525.834 279.427 526.606 279.316C528.048 279.126 529.47 278.82 530.878 278.397L528.739 272.872C523.471 274.432 517.965 274.269 512.576 272.601L511.492 277.479Z" fill="#00BC7F"/>
<path d="M482.655 209.485L486.329 210.209L486.863 210.313C487.065 210.006 487.277 209.703 487.496 209.415C488.103 208.559 488.741 207.74 489.42 206.962C489.738 206.595 490.059 206.234 490.394 205.883C493.19 202.922 496.477 200.522 500.107 198.839L498.57 194.87C496.177 195.961 493.898 197.349 491.805 198.985C489.42 200.839 487.259 203.023 485.369 205.478C484.762 206.268 484.179 207.082 483.632 207.923C483.293 208.43 482.969 208.954 482.655 209.485Z" fill="#00BC7F"/>
<path d="M485.48 222.93L493.251 222.092L496.837 212.579L492.986 208.674C490.393 211.483 488.281 214.857 486.82 218.631C486.275 220.051 485.825 221.482 485.48 222.93Z" fill="#00BC7F"/>
<path d="M499.365 260.092C499.825 260.534 500.286 260.958 500.759 261.372C501.278 261.84 501.803 262.282 502.341 262.71C506.056 265.713 510.002 267.867 513.995 269.056L516.656 260.979L508.464 256.347L504.265 258.072L501.573 259.179L499.365 260.092Z" fill="#00BC7F"/>
<path d="M489.05 246.369C490.261 248.578 491.561 250.662 492.944 252.593C493.325 253.131 493.718 253.656 494.108 254.176C494.511 254.704 494.926 255.222 495.344 255.729C495.735 256.206 496.133 256.681 496.539 257.136L501.647 255.035L505.781 253.335L506.937 252.856L507.018 252.448L507.564 249.796L507.986 247.762L508.451 245.517L499.008 241.908L489.05 246.369Z" fill="#00BC7F"/>
<path d="M486.761 241.557C486.946 242.033 487.134 242.499 487.34 242.966L497.366 238.47L500.223 228.391L494.326 225.817L484.813 226.831C484.268 231.802 484.925 236.815 486.761 241.557Z" fill="#00BC7F"/>
<path d="M489.957 261.065C492.303 263.976 494.8 266.594 497.391 268.864C497.988 269.384 498.586 269.888 499.194 270.371C499.794 270.857 500.402 271.323 501.024 271.776C503.271 273.413 505.574 274.807 507.908 275.944L508.957 271.234C507.845 270.743 506.742 270.191 505.645 269.57C504.229 268.763 502.833 267.858 501.464 266.855C500.888 266.432 500.322 265.991 499.752 265.541C499.185 265.074 498.63 264.596 498.075 264.101C496.104 262.349 494.21 260.372 492.414 258.202L489.957 261.065Z" fill="#00BC7F"/>
<path d="M477.971 237.974L479.61 237.208L481.372 236.379C480.256 230.034 480.866 223.422 483.248 217.281C483.713 216.081 484.234 214.915 484.814 213.801L483.345 213.513L481.321 213.113L480.812 213.015C480.451 213.784 480.121 214.565 479.811 215.363C477.25 221.972 476.527 229.078 477.599 235.929C477.701 236.617 477.83 237.293 477.971 237.974Z" fill="#00BC7F"/>
<path d="M479.794 244.133C480.05 244.793 480.32 245.448 480.609 246.087C480.866 246.665 481.141 247.229 481.424 247.788C481.792 248.503 482.166 249.215 482.55 249.907C483.75 252.113 485.019 254.2 486.355 256.182L486.362 256.179C486.718 256.718 487.081 257.248 487.453 257.765C487.503 257.827 487.547 257.9 487.595 257.963L488.145 257.317L490.035 255.116C489.843 254.855 489.661 254.598 489.481 254.326C487.755 251.868 486.153 249.198 484.697 246.332C483.682 244.35 482.875 242.286 482.254 240.175L481.808 240.382L479.97 241.248L478.952 241.724C479.207 242.531 479.486 243.338 479.794 244.133Z" fill="#00BC7F"/>
<path d="M476.227 214.016C476.457 213.42 476.705 212.827 476.958 212.246C469.923 215.11 462.062 219.837 459.129 227.21C456.255 234.464 458.621 243.254 466.171 253.369L477.618 248.756C472.368 237.922 471.845 225.306 476.227 214.016ZM478.82 270.147C475.948 277.399 478.314 286.19 485.861 296.299L498.677 291.139C497.563 284.262 497.105 278.489 497.16 273.634C492.992 270.357 489.05 266.3 485.473 261.553C482.581 263.906 480.178 266.739 478.82 270.147ZM499.191 270.373C499.791 270.859 500.399 271.325 501.02 271.779C503.267 273.415 505.57 274.809 507.904 275.947L508.954 271.236C507.842 270.745 506.738 270.193 505.642 269.572C504.225 268.766 502.829 267.86 501.461 266.857C500.885 266.434 500.319 265.993 499.749 265.543C499.182 265.077 498.626 264.598 498.072 264.103C496.101 262.352 494.206 260.375 492.411 258.204L489.954 261.067C492.3 263.979 494.796 266.597 497.389 268.866C497.985 269.386 498.583 269.89 499.191 270.373ZM524.274 279.535C525.059 279.499 525.83 279.429 526.602 279.318C528.043 279.127 529.465 278.822 530.874 278.399L528.735 272.875C523.467 274.433 517.961 274.271 512.571 272.603L511.488 277.481C515.737 279.053 520.048 279.766 524.274 279.535ZM538.83 293.753L537.816 279.547C536.61 280.218 535.352 280.819 534.048 281.341L534.026 281.35C532.703 281.845 531.362 282.251 530.015 282.56L538.83 293.753ZM566.754 264.772L579.702 259.953C578.47 247.399 574.299 239.306 567.29 235.882C564.012 234.285 560.353 233.81 556.651 234.009C557.22 239.945 557.03 245.619 556.14 250.87C559.431 254.414 562.967 258.971 566.754 264.772ZM553.843 219.233L565.339 214.96C564.106 202.399 559.934 194.308 552.925 190.882C545.813 187.424 536.857 189.194 529.739 191.804C530.324 192.059 530.9 192.334 531.471 192.619C542.314 198.013 550.433 207.686 553.843 219.233ZM494.444 162.357C494.11 162.176 493.768 162.014 493.429 161.86L493.013 161.679C492.794 161.583 492.579 161.495 492.363 161.424C492.199 161.365 492.046 161.309 491.887 161.257C491.363 161.076 490.829 160.932 490.29 160.814C490.12 160.781 489.959 160.746 489.783 160.717C489.56 160.672 489.325 160.641 489.097 160.607C488.968 160.591 488.839 160.576 488.71 160.561C488.348 160.522 487.993 160.496 487.625 160.483C487.443 160.48 487.26 160.477 487.078 160.474C486.889 160.474 486.709 160.478 486.522 160.485C486.336 160.492 486.149 160.499 485.965 160.513C485.66 160.534 485.359 160.561 485.057 160.595L485.044 160.6C484.737 160.637 484.433 160.682 484.125 160.736C482.756 160.965 481.359 161.358 479.913 161.919C468.084 166.5 460.689 169.453 457.775 171.84C455.932 173.353 455.901 174.206 457.515 178.374C458.065 179.794 458.485 181.476 458.935 183.253C460.032 187.662 461.287 192.663 464.604 193.746C466.897 194.499 471.616 193.798 481.032 186.174L483.878 188.633L481.327 192.805C485.5 190.674 489.776 189.443 491.72 191.825C492.197 192.423 492.617 192.995 492.969 193.545C494.52 192.594 496.131 191.757 497.794 191.055C498.154 190.899 498.524 190.749 498.889 190.607L498.961 190.58C502.821 189.085 506.924 188.262 511.114 188.11C509.041 181.205 503.865 167.395 494.444 162.357ZM485.363 205.48C484.756 206.271 484.173 207.085 483.626 207.924C483.287 208.431 482.963 208.957 482.649 209.487L486.323 210.211L486.856 210.315C487.059 210.008 487.271 209.705 487.49 209.417C488.097 208.561 488.735 207.742 489.414 206.964C489.732 206.597 490.053 206.235 490.388 205.886C493.185 202.925 496.472 200.525 500.102 198.841L498.564 194.873C496.171 195.962 493.892 197.352 491.799 198.987C489.414 200.841 487.253 203.025 485.363 205.48ZM497.36 238.472L500.216 228.393L494.32 225.819L484.806 226.833C484.261 231.805 484.919 236.817 486.756 241.559C486.94 242.035 487.127 242.5 487.333 242.968L497.36 238.472ZM501.643 255.037L505.777 253.337L506.933 252.858L507.014 252.45L507.559 249.798L507.982 247.764L508.447 245.519L499.004 241.91L489.046 246.371C490.257 248.58 491.557 250.664 492.94 252.595C493.32 253.133 493.713 253.658 494.103 254.178C494.506 254.706 494.921 255.224 495.34 255.73C495.731 256.208 496.128 256.683 496.535 257.138L501.643 255.037ZM508.611 254.232L508.608 254.225L508.601 254.228L508.611 254.232ZM516.65 260.98L508.458 256.35L504.26 258.073L501.568 259.18L499.36 260.093C499.819 260.536 500.28 260.961 500.753 261.374C501.273 261.842 501.798 262.285 502.334 262.713C506.05 265.716 509.997 267.869 513.99 269.058L516.65 260.98ZM529.164 268.732C532.828 267.264 535.938 264.917 538.425 261.88L530.568 257.452C529.588 257.644 527.573 258.098 525.342 258.93C523.771 259.506 522.086 260.28 520.574 261.29L517.741 269.899C521.612 270.473 525.464 270.108 529.142 268.74L529.164 268.732ZM553.028 236.647L553.025 236.639L549.281 236.178C549.663 243.925 548.454 251.032 545.821 256.95L549.78 259.728C552.415 253.114 553.551 245.227 553.028 236.647ZM546.99 222.206C547.932 225.638 548.587 229.009 548.962 232.293L552.681 232.754C552.233 228.96 551.478 225.056 550.383 221.079C549.801 218.962 549.046 216.903 548.132 214.93L544.648 216.01C545.612 217.987 546.397 220.059 546.99 222.206ZM527.421 194.963L524.985 198.241C526.167 198.674 527.336 199.185 528.488 199.758C534.382 202.686 539.294 207.159 542.745 212.607L546.333 211.494C542.458 204.913 536.722 199.501 529.736 196.026C528.97 195.645 528.198 195.291 527.421 194.963ZM499.333 209.655C501.24 208.5 503.275 207.589 505.181 206.876C507.713 205.928 510.013 205.338 511.453 205.017L511.659 199.893C508.739 200.028 505.887 200.617 503.18 201.665L503.166 201.671C500.495 202.705 497.997 204.188 495.767 206.039L499.333 209.655ZM517.426 238.489C520.719 237.255 523.671 236.691 525.186 236.456L529.571 227.727L520.553 222.134C519.197 222.332 515.795 222.923 511.954 224.362C509.398 225.311 506.648 226.629 504.183 228.449L501.279 238.684L510.349 242.162C512.627 240.536 515.117 239.351 517.426 238.489ZM532.377 244.88L525.926 240.194C524.674 240.385 521.896 240.889 518.803 242.046C516.677 242.829 514.408 243.922 512.374 245.41L510.759 253.253L518.88 257.848C520.534 256.807 522.313 255.996 523.967 255.379C526.211 254.536 528.236 254.045 529.455 253.792L532.377 244.88ZM534.622 244.149L534.625 244.156L534.629 244.147L534.622 244.149ZM533.425 228.578L528.876 237.606L534.939 242.011L545.507 238.17C545.443 234.031 544.879 229.661 543.79 225.168L533.425 228.578ZM526.048 213.53L523.424 219.404L532.325 224.93L542.763 221.5C540.975 216.158 537.896 211.505 533.771 207.869L526.048 213.53ZM523.673 193.598C520.941 192.755 518.158 192.222 515.39 192.005C510.863 191.652 506.366 192.137 502.148 193.492L503.682 197.454C509.211 195.721 515.256 195.592 521.12 197.044L523.673 193.598ZM515.492 199.967L515.273 205.44L524.332 210.055L530.647 205.438C529.419 204.608 528.12 203.845 526.753 203.166C523.133 201.367 519.305 200.287 515.492 199.967ZM532.313 271.482L534.452 277.005C535.771 276.372 537.023 275.649 538.21 274.822C538.836 274.4 539.45 273.942 540.035 273.455C543.343 270.768 546.065 267.314 548.161 263.269L544.069 260.397C541.216 265.257 537.256 269.086 532.313 271.482ZM545.417 242.255L536.163 245.62L533.227 254.56L540.632 258.731C543.363 254.195 545.003 248.563 545.417 242.255ZM496.835 212.581L492.983 208.676C490.39 211.486 488.279 214.858 486.818 218.634C486.273 220.053 485.823 221.484 485.478 222.932L493.248 222.094L496.835 212.581ZM497.061 222.838L502.273 225.115C504.958 223.201 507.87 221.812 510.576 220.804C514.488 219.338 517.961 218.672 519.677 218.406L522.015 213.173L513.013 208.578C511.899 208.805 509.373 209.383 506.559 210.432C504.601 211.158 502.508 212.115 500.636 213.338L497.061 222.838ZM482.25 240.177L481.802 240.383L479.965 241.25L478.947 241.726C479.202 242.533 479.482 243.339 479.79 244.135C480.045 244.795 480.315 245.45 480.603 246.089C480.86 246.667 481.136 247.23 481.419 247.79C481.788 248.505 482.162 249.217 482.544 249.91C483.745 252.115 485.013 254.202 486.35 256.184L486.357 256.181C486.714 256.72 487.076 257.25 487.448 257.766C487.498 257.829 487.542 257.902 487.591 257.964L488.14 257.319L490.03 255.118C489.838 254.857 489.657 254.601 489.477 254.328C487.751 251.87 486.148 249.2 484.693 246.334C483.677 244.351 482.87 242.288 482.25 240.177ZM481.313 213.115L480.805 213.018C480.445 213.786 480.113 214.567 479.804 215.365C477.242 221.975 476.519 229.08 477.591 235.931C477.693 236.619 477.823 237.295 477.964 237.975L479.603 237.21L481.364 236.381C480.249 230.036 480.859 223.424 483.24 217.283C483.706 216.083 484.226 214.918 484.807 213.803L483.337 213.515L481.313 213.115ZM466.234 257.443L464.002 256.846C454.881 245.119 452.049 234.679 455.568 225.821C459.629 215.62 471.149 210.005 479.587 207.17C482.305 202.664 485.782 198.777 489.799 195.712C489.514 195.276 489.182 194.8 488.785 194.308C487.394 193.884 481.674 196.613 476.664 200.113L473.933 197.57L475.762 194.576C470.698 197.55 466.67 198.44 463.379 197.364C458.079 195.628 456.487 189.288 455.208 184.199C454.793 182.532 454.399 180.961 453.934 179.761C449.939 169.446 453.748 167.97 478.538 158.369C484.905 155.903 490.875 156.114 496.285 159.007C507.606 165.064 513.208 181.249 515.139 188.167C518.229 188.366 521.331 188.913 524.384 189.82C532.525 186.242 544.777 182.665 554.62 187.457C563.189 191.634 568.127 201.258 569.285 216.069L568.037 218.013L554.814 222.931C555.401 225.381 555.863 227.808 556.204 230.198C560.566 229.937 564.978 230.507 568.986 232.457C577.561 236.631 582.492 246.257 583.657 261.066L582.402 263.013L566.63 268.876L564.352 268.119C561.043 262.934 557.98 258.788 555.157 255.497C552.776 264.617 548.122 272.159 541.485 277.155L543.112 299.704L539.682 301.033L525.673 283.253C518.315 283.924 510.765 282.055 503.631 278.01C502.744 277.504 501.869 276.969 500.999 276.4C501.127 280.751 501.656 285.902 502.706 291.995L501.533 294.089L485.927 300.379L483.688 299.785C474.574 288.055 471.735 277.619 475.261 268.758C476.916 264.59 479.821 261.186 483.251 258.43C481.895 256.439 480.612 254.339 479.391 252.143L466.234 257.443Z" fill="#00BC7F"/>
<path d="M460.023 344.974C459.198 348.734 459.975 352.673 462.155 355.819L458.805 357.815C455.94 355.006 454.768 352.36 455.316 349.941C455.878 347.491 458.102 345.625 460.166 344.383C460.113 344.578 460.067 344.776 460.023 344.974Z" fill="#00BC7F"/>
<path d="M469.531 362.694C469.753 364.216 470.176 366 470.858 368.094L467.084 370.34C464.22 367.533 463.048 364.887 463.597 362.468C463.854 361.338 464.466 360.337 465.253 359.46C466.61 360.784 468.053 361.868 469.531 362.694Z" fill="#00BC7F"/>
<path d="M482.591 362.541L483.607 366.955L481.492 363.293C481.879 363.064 482.246 362.812 482.591 362.541Z" fill="#00BC7F"/>
<path d="M481.491 363.293L483.605 366.955L480.289 363.872C480.696 363.707 481.095 363.515 481.484 363.297L481.491 363.293Z" fill="#00BC7F"/>
<path d="M473.631 328.639C473.36 329.357 472.246 330.386 468.481 331.198L468.523 332.393L470.065 332.593C468.705 333.202 467.548 334.015 467.751 334.971C467.803 335.209 467.861 335.427 467.927 335.624C467.383 335.818 466.854 336.051 466.349 336.323L461.143 327.305C461.209 327.234 461.276 327.164 461.344 327.097L461.348 327.094C461.419 327.026 461.49 326.959 461.565 326.894C461.894 326.6 462.27 326.333 462.697 326.087C466.19 324.07 468.395 322.827 469.567 322.581C470.309 322.427 470.527 322.589 471.237 323.819C471.479 324.239 471.812 324.678 472.163 325.143C473.035 326.294 474.024 327.602 473.631 328.639Z" fill="#00BC7F"/>
<path d="M462.146 329.03L466.351 336.323C466.241 336.381 466.13 336.442 466.022 336.504L466.001 336.517C464.861 337.175 463.839 338.027 462.966 339.034C461.67 337.145 459.281 333.11 459.911 329.773C459.933 329.654 459.961 329.537 459.991 329.422L460.029 329.283C460.049 329.21 460.069 329.139 460.095 329.071C460.113 329.019 460.13 328.97 460.149 328.92C460.208 328.754 460.279 328.593 460.357 328.436C460.383 328.388 460.407 328.341 460.434 328.291C460.468 328.227 460.507 328.163 460.543 328.1C460.566 328.065 460.588 328.029 460.61 327.995C460.672 327.897 460.736 327.804 460.806 327.71C460.842 327.665 460.878 327.619 460.913 327.573C460.951 327.526 460.988 327.483 461.027 327.438C461.066 327.393 461.105 327.348 461.145 327.305C461.211 327.234 461.278 327.164 461.346 327.097L461.35 327.095C461.42 327.026 461.492 326.96 461.567 326.894C462.559 326.293 461.783 328.22 462.146 329.03Z" fill="#00BC7F"/>
<path d="M467.522 326.527C467.901 327.289 467.918 328.033 467.544 328.249C467.138 328.483 466.423 328.005 465.946 327.179C465.469 326.354 465.412 325.493 465.817 325.258C466.162 325.059 466.73 325.374 467.185 325.981L466.988 326.997L467.522 326.527Z" fill="#00BC7F"/>
<path d="M470.854 327.057C471.172 327.314 471.379 327.701 471.578 328.047C471.965 328.723 473.022 328.114 472.635 327.437C472.389 327.008 472.106 326.507 471.713 326.19C471.459 325.984 471.099 325.949 470.851 326.199C470.636 326.416 470.599 326.85 470.854 327.057Z" fill="#00BC7F"/>
<path d="M472.159 356.026L472.16 356.028L472.156 356.027L472.159 356.026Z" fill="#00BC7F"/>
<path d="M472.159 356.026L472.16 356.028L472.156 356.027L472.159 356.026Z" fill="#00BC7F"/>
<path d="M472.159 356.026L472.16 356.028L472.156 356.027L472.159 356.026Z" fill="#00BC7F"/>
<path d="M479.842 351.59L479.841 351.594L479.84 351.592L479.842 351.59Z" fill="#00BC7F"/>
<path d="M479.842 351.59L479.841 351.594L479.84 351.592L479.842 351.59Z" fill="#00BC7F"/>
<path d="M479.842 351.59L479.841 351.594L479.84 351.592L479.842 351.59Z" fill="#00BC7F"/>
<path d="M488.084 340.911L484.66 342.826C483.024 339.366 480.003 336.722 476.334 335.557C476.141 335.495 475.944 335.438 475.75 335.385C477.862 334.214 480.599 333.209 483.01 333.952C485.379 334.687 487.084 337.025 488.084 340.911Z" fill="#00BC7F"/>
<path d="M484.932 347.057C484.938 347.082 484.947 347.108 484.953 347.132L484.684 347.14C484.766 347.111 484.848 347.083 484.932 347.057Z" fill="#00BC7F"/>
<path d="M494.792 354.344L490.959 356.49C489.478 354.843 488.14 353.579 486.926 352.624C486.946 350.939 486.727 349.154 486.264 347.322C487.423 347.075 488.604 347.045 489.718 347.388C492.087 348.122 493.792 350.46 494.792 354.344Z" fill="#00BC7F"/>
<path d="M466.365 357.214L465.738 358.227C464.888 357.359 464.071 356.394 463.305 355.33C462.896 354.764 462.537 354.167 462.23 353.547L463.192 352.9C463.49 353.532 463.846 354.14 464.26 354.715C464.922 355.632 465.626 356.466 466.365 357.214Z" fill="#00BC7F"/>
<path d="M462.726 351.75L461.735 352.417C460.878 350.145 460.681 347.646 461.213 345.223C461.271 344.958 461.337 344.696 461.411 344.438L462.708 344.488C462.58 344.867 462.473 345.258 462.386 345.658C461.936 347.701 462.065 349.809 462.726 351.75Z" fill="#00BC7F"/>
<path d="M467.263 358.067C469.105 359.706 471.106 360.823 473.097 361.351L472.996 362.885C470.833 362.219 468.653 360.928 466.632 359.088L466.631 359.086L467.263 358.067Z" fill="#00BC7F"/>
<path d="M472.156 356.027L472.159 356.025L472.16 356.027L472.156 356.027Z" fill="#00BC7F"/>
<path d="M468.261 348.32L467.855 351.626L464.925 353.527C463.959 352.02 463.42 350.33 463.342 348.583L466.283 347.799L468.261 348.32Z" fill="#00BC7F"/>
<path d="M471.682 353.299L471.564 355.678L468.506 357.529C467.494 356.689 466.524 355.678 465.629 354.513L468.539 352.626L471.682 353.299Z" fill="#00BC7F"/>
<path d="M466.429 343.518L465.767 346.681L463.364 347.325C463.404 346.855 463.474 346.382 463.578 345.908C463.854 344.653 464.349 343.489 465.03 342.481L466.429 343.518Z" fill="#00BC7F"/>
<path d="M472.214 356.7L475.014 357.755L474.571 360.42C472.903 360.193 471.181 359.476 469.537 358.322L472.214 356.7Z" fill="#00BC7F"/>
<path d="M463.184 343.293L461.822 343.238C462.157 342.393 462.581 341.598 463.079 340.869C463.893 339.678 464.91 338.66 466.086 337.886L466.762 339.056C465.23 340.079 463.994 341.551 463.184 343.293Z" fill="#00BC7F"/>
<path d="M474.3 361.603C476.073 361.866 477.81 361.648 479.389 360.901L480.331 362.532C479.911 362.733 479.482 362.899 479.041 363.028C478.812 363.099 478.576 363.16 478.338 363.207C477.014 363.491 475.616 363.476 474.196 363.19L474.3 361.603Z" fill="#00BC7F"/>
<path d="M467.908 339.768L468.795 341.305C468.056 341.743 467.452 342.195 467.085 342.488L465.775 341.517C466.39 340.821 467.105 340.232 467.904 339.771L467.908 339.768Z" fill="#00BC7F"/>
<path d="M467.657 343.584C467.935 343.353 468.582 342.843 469.403 342.355L471.171 345.417C470.028 346.094 469.171 346.821 468.762 347.193L467.001 346.729L467.657 343.584Z" fill="#00BC7F"/>
<path d="M469.508 348.153C469.827 347.857 470.652 347.132 471.774 346.467L474.182 350.639C473.22 351.208 472.492 351.827 472.132 352.155L469.096 351.501L469.508 348.153Z" fill="#00BC7F"/>
<path d="M472.914 353.083C473.211 352.812 473.89 352.224 474.793 351.689L477.065 355.625C476.41 356.013 475.884 356.416 475.579 356.668L472.789 355.615L472.914 353.083Z" fill="#00BC7F"/>
<path d="M476.264 357.673C476.506 357.469 477.02 357.06 477.671 356.673L479.343 359.57L479.337 359.574C478.243 360.189 477.042 360.491 475.794 360.502L476.264 357.673Z" fill="#00BC7F"/>
<path d="M470.463 338.806L470.648 340.41C469.981 340.652 469.35 340.975 468.793 341.305L467.906 339.768C468.695 339.313 469.56 338.99 470.463 338.806Z" fill="#00BC7F"/>
<path d="M481.9 356.978C481.271 358.051 480.413 358.932 479.341 359.57L477.669 356.673C478.125 356.399 478.652 356.136 479.204 355.963L481.9 356.978Z" fill="#00BC7F"/>
<path d="M479.169 351.93L478.688 354.857C478.1 355.06 477.545 355.338 477.062 355.625L474.79 351.689C475.407 351.318 476.13 350.974 476.904 350.767L479.169 351.93Z" fill="#00BC7F"/>
<path d="M474.369 342.475L473.893 344.22C472.884 344.504 471.96 344.948 471.171 345.417L469.403 342.355C469.973 342.015 470.627 341.687 471.303 341.467L474.369 342.475Z" fill="#00BC7F"/>
<path d="M479.838 351.59L479.837 351.593L479.836 351.591L479.838 351.59Z" fill="#00BC7F"/>
<path d="M477.449 346.679L476.502 349.618C475.646 349.858 474.856 350.239 474.182 350.639L471.774 346.467C472.518 346.024 473.393 345.605 474.335 345.357L477.449 346.679Z" fill="#00BC7F"/>
<path d="M485.023 356.94C484.565 358.305 483.883 359.515 482.983 360.516C482.818 360.703 482.647 360.88 482.465 361.049C482.131 361.368 481.772 361.659 481.386 361.924L480.445 360.293C481.881 359.299 482.938 357.903 483.599 356.236L485.023 356.94Z" fill="#00BC7F"/>
<path d="M473.932 336.245L473.379 337.299L473.299 337.452C473.182 337.441 473.065 337.433 472.95 337.43C472.617 337.41 472.287 337.404 471.959 337.417C471.805 337.423 471.651 337.431 471.498 337.444C470.207 337.546 468.958 337.882 467.817 338.445L467.141 337.273C467.888 336.898 468.686 336.61 469.508 336.418C470.443 336.197 471.414 336.097 472.399 336.118C472.716 336.125 473.034 336.143 473.351 336.175C473.544 336.193 473.738 336.217 473.932 336.245Z" fill="#00BC7F"/>
<path d="M476.701 339.625L474.945 341.383L471.874 340.375L471.675 338.643C472.887 338.56 474.144 338.71 475.37 339.1C475.83 339.248 476.274 339.422 476.701 339.625Z" fill="#00BC7F"/>
<path d="M483.134 350.471C483.151 350.673 483.165 350.871 483.173 351.071C483.185 351.293 483.19 351.511 483.189 351.729C483.192 353.248 482.939 354.655 482.437 355.881L479.907 354.93L480.392 351.978L481.657 351.281L482.467 350.835L483.134 350.471Z" fill="#00BC7F"/>
<path d="M481.792 345.181C482.098 345.921 482.355 346.659 482.557 347.386C482.614 347.588 482.666 347.789 482.717 347.989C482.768 348.195 482.813 348.401 482.855 348.605C482.896 348.797 482.934 348.99 482.965 349.182L481.427 350.028L480.182 350.713L479.833 350.904L479.716 350.843L478.95 350.449L478.362 350.148L477.714 349.816L478.702 346.758L481.792 345.181Z" fill="#00BC7F"/>
<path d="M481.06 343.654C481.141 343.795 481.219 343.935 481.293 344.079L478.181 345.666L475.116 344.364L475.654 342.391L477.801 340.237C479.141 341.092 480.251 342.254 481.06 343.654Z" fill="#00BC7F"/>
<path d="M485.252 348.335C485.505 349.496 485.656 350.637 485.701 351.731C485.711 351.982 485.717 352.231 485.715 352.478C485.716 352.723 485.71 352.967 485.699 353.211C485.656 354.094 485.542 354.942 485.359 355.747L483.983 355.068C484.083 354.694 484.166 354.311 484.231 353.916C484.314 353.404 484.368 352.878 484.392 352.339C484.402 352.112 484.406 351.884 484.408 351.653C484.405 351.42 484.397 351.187 484.385 350.951C484.344 350.113 484.232 349.25 484.053 348.373L485.252 348.335Z" fill="#00BC7F"/>
<path d="M481.923 340.763L481.407 341.016L480.85 341.287C479.502 339.746 477.742 338.579 475.747 337.945C475.357 337.821 474.964 337.718 474.573 337.64L474.794 337.218L475.099 336.637L475.176 336.492C475.438 336.556 475.698 336.63 475.957 336.712C478.104 337.395 480.008 338.632 481.491 340.263C481.641 340.426 481.783 340.592 481.923 340.763Z" fill="#00BC7F"/>
<path d="M483.084 342.443C483.197 342.638 483.305 342.835 483.406 343.034C483.498 343.213 483.582 343.393 483.665 343.575C483.768 343.809 483.87 344.043 483.965 344.276C484.272 345.013 484.536 345.743 484.76 346.469L484.758 346.471C484.821 346.666 484.88 346.862 484.933 347.057C484.939 347.081 484.948 347.107 484.954 347.131L484.685 347.139L483.763 347.168C483.736 347.069 483.709 346.973 483.677 346.874C483.413 345.956 483.071 345.027 482.651 344.096C482.363 343.449 482.013 342.838 481.613 342.263L481.754 342.194L482.334 341.911L482.655 341.754C482.804 341.978 482.948 342.208 483.084 342.443Z" fill="#00BC7F"/>
<path d="M476.336 335.556C476.143 335.495 475.946 335.438 475.752 335.385C477.864 334.213 480.601 333.208 483.012 333.952C485.381 334.686 487.086 337.024 488.087 340.91L484.663 342.825C483.026 339.366 480.006 336.721 476.336 335.556ZM489.721 347.387C492.089 348.121 493.795 350.459 494.794 354.343L490.961 356.489C489.481 354.842 488.142 353.578 486.929 352.624C486.948 350.938 486.729 349.153 486.266 347.321C487.425 347.074 488.606 347.044 489.721 347.387ZM485.716 352.477C485.717 352.722 485.711 352.966 485.7 353.21C485.657 354.093 485.543 354.941 485.36 355.746L483.984 355.067C484.084 354.693 484.167 354.31 484.232 353.915C484.315 353.403 484.369 352.877 484.393 352.338C484.403 352.111 484.407 351.883 484.409 351.652C484.406 351.419 484.399 351.186 484.386 350.95C484.346 350.113 484.234 349.249 484.054 348.372L485.253 348.334C485.506 349.496 485.657 350.636 485.702 351.73C485.712 351.982 485.718 352.23 485.716 352.477ZM482.986 360.515C482.82 360.702 482.649 360.879 482.468 361.048C482.133 361.367 481.774 361.659 481.389 361.923L480.447 360.292C481.883 359.298 482.94 357.902 483.601 356.235L485.025 356.939C484.568 358.305 483.885 359.515 482.986 360.515ZM483.606 366.954L480.289 363.871C480.696 363.706 481.096 363.515 481.485 363.296L481.491 363.292C481.878 363.063 482.246 362.812 482.591 362.54L483.606 366.954ZM470.862 368.093L467.088 370.339C464.224 367.532 463.051 364.886 463.6 362.467C463.858 361.337 464.47 360.336 465.257 359.459C466.614 360.783 468.057 361.867 469.535 362.693C469.757 364.215 470.18 365.999 470.862 368.093ZM462.158 355.818L458.808 357.814C455.943 355.005 454.771 352.359 455.319 349.94C455.88 347.49 458.104 345.624 460.169 344.382C460.116 344.577 460.069 344.775 460.026 344.973C459.2 348.733 459.978 352.672 462.158 355.818ZM459.911 329.771C459.933 329.652 459.961 329.535 459.991 329.421L460.029 329.281C460.048 329.208 460.07 329.137 460.095 329.07C460.113 329.017 460.13 328.968 460.149 328.919C460.208 328.753 460.279 328.592 460.357 328.435C460.383 328.386 460.406 328.339 460.434 328.29C460.468 328.226 460.507 328.161 460.544 328.098C460.566 328.063 460.587 328.028 460.61 327.993C460.672 327.896 460.736 327.802 460.806 327.709C460.842 327.663 460.878 327.617 460.913 327.572C460.951 327.525 460.988 327.481 461.027 327.436C461.065 327.391 461.105 327.347 461.145 327.304C461.211 327.232 461.277 327.163 461.346 327.095L461.35 327.093C461.42 327.024 461.492 326.958 461.567 326.892C461.896 326.599 462.272 326.332 462.699 326.085C466.192 324.069 468.397 322.826 469.569 322.58C470.311 322.425 470.528 322.587 471.239 323.818C471.481 324.237 471.814 324.676 472.164 325.142C473.037 326.293 474.026 327.6 473.633 328.637C473.362 329.356 472.248 330.384 468.483 331.197L468.525 332.392L470.067 332.592C468.707 333.2 467.55 334.014 467.752 334.97C467.805 335.208 467.863 335.425 467.929 335.622C467.384 335.817 466.856 336.049 466.351 336.321C466.241 336.379 466.13 336.441 466.022 336.503L466.001 336.515C464.861 337.173 463.839 338.025 462.967 339.033C461.67 337.143 459.281 333.109 459.911 329.771ZM472.401 336.118C472.718 336.125 473.036 336.143 473.353 336.175C473.546 336.192 473.741 336.216 473.934 336.244L473.381 337.298L473.301 337.451C473.184 337.44 473.067 337.432 472.952 337.429C472.619 337.409 472.289 337.403 471.961 337.417C471.807 337.422 471.653 337.43 471.5 337.443C470.209 337.545 468.96 337.881 467.819 338.444L467.143 337.273C467.89 336.897 468.688 336.61 469.51 336.417C470.445 336.196 471.416 336.096 472.401 336.118ZM478.181 345.665L475.115 344.363L475.653 342.39L477.801 340.236C479.14 341.092 480.25 342.254 481.059 343.654C481.14 343.794 481.218 343.933 481.293 344.078L478.181 345.665ZM481.43 350.027L480.184 350.712L479.835 350.903L479.718 350.842L478.953 350.448L478.365 350.148L477.716 349.815L478.704 346.757L481.794 345.18C482.1 345.92 482.357 346.658 482.559 347.385C482.617 347.587 482.668 347.789 482.719 347.989C482.77 348.194 482.816 348.4 482.857 348.604C482.898 348.796 482.936 348.99 482.968 349.181L481.43 350.027ZM479.841 351.592L479.84 351.59L479.842 351.589L479.841 351.592ZM479.91 354.929L480.396 351.977L481.66 351.281L482.471 350.834L483.137 350.47C483.155 350.672 483.168 350.87 483.176 351.07C483.189 351.292 483.193 351.51 483.193 351.728C483.196 353.247 482.942 354.654 482.441 355.88L479.91 354.929ZM479.335 359.573C478.242 360.188 477.041 360.49 475.793 360.501L476.262 357.672C476.505 357.468 477.019 357.059 477.67 356.672C478.126 356.398 478.653 356.135 479.204 355.962L481.901 356.976C481.272 358.049 480.414 358.931 479.342 359.569L479.335 359.573ZM466.633 359.087L466.631 359.085L467.264 358.066C469.106 359.705 471.107 360.822 473.097 361.35L472.996 362.884C470.833 362.218 468.653 360.927 466.633 359.087ZM464.26 354.714C464.922 355.631 465.626 356.465 466.365 357.213L465.738 358.226C464.888 357.359 464.071 356.393 463.305 355.33C462.896 354.763 462.537 354.166 462.23 353.546L463.192 352.899C463.49 353.532 463.846 354.139 464.26 354.714ZM461.413 344.437L462.711 344.487C462.582 344.866 462.476 345.258 462.388 345.657C461.939 347.7 462.067 349.809 462.729 351.749L461.738 352.416C460.88 350.144 460.683 347.645 461.215 345.222C461.274 344.957 461.34 344.695 461.413 344.437ZM470.651 340.409C469.984 340.651 469.353 340.974 468.797 341.304C468.057 341.742 467.453 342.194 467.086 342.487L465.776 341.516C466.392 340.82 467.106 340.231 467.905 339.77L467.909 339.767C468.698 339.312 469.563 338.989 470.466 338.806L470.651 340.409ZM474.185 350.638C473.223 351.207 472.495 351.826 472.135 352.154L469.099 351.5L469.511 348.152C469.831 347.856 470.655 347.131 471.777 346.467C472.522 346.023 473.396 345.604 474.338 345.357L477.452 346.678L476.505 349.617C475.649 349.857 474.859 350.238 474.185 350.638ZM472.788 355.614L472.913 353.083C473.21 352.811 473.889 352.223 474.792 351.688C475.409 351.317 476.132 350.973 476.906 350.766L479.171 351.929L478.69 354.856C478.102 355.059 477.547 355.337 477.064 355.624C476.408 356.012 475.883 356.415 475.578 356.667L472.788 355.614ZM472.159 356.025L472.161 356.027L472.158 356.026L472.159 356.025ZM468.542 352.624L471.684 353.297L471.567 355.677L468.509 357.529C467.497 356.688 466.527 355.677 465.631 354.512L468.542 352.624ZM466.285 347.798L468.263 348.319L467.858 351.625L464.927 353.526C463.961 352.019 463.422 350.329 463.344 348.582L466.285 347.798ZM461.822 343.237C462.158 342.392 462.581 341.597 463.079 340.868C463.894 339.677 464.91 338.66 466.087 337.885L466.762 339.055C465.231 340.078 463.994 341.55 463.185 343.292L461.822 343.237ZM465.031 342.48L466.429 343.517L465.767 346.68L463.365 347.324C463.404 346.855 463.474 346.381 463.578 345.907C463.854 344.652 464.35 343.488 465.031 342.48ZM479.389 360.901L480.33 362.531C479.911 362.732 479.482 362.898 479.041 363.027C478.811 363.098 478.576 363.159 478.338 363.206C477.014 363.49 475.616 363.476 474.196 363.189L474.3 361.603C476.073 361.865 477.81 361.647 479.389 360.901ZM469.539 358.32L472.217 356.699L475.016 357.754L474.573 360.42C472.905 360.192 471.183 359.475 469.539 358.32ZM471.873 340.374L471.674 338.642C472.886 338.56 474.143 338.709 475.369 339.1C475.829 339.248 476.273 339.421 476.7 339.625L474.944 341.382L471.873 340.374ZM474.369 342.474L473.893 344.219C472.884 344.503 471.96 344.947 471.171 345.416C470.028 346.093 469.171 346.82 468.763 347.192L467.001 346.728L467.657 343.583C467.935 343.352 468.582 342.842 469.403 342.354C469.973 342.014 470.627 341.686 471.303 341.466L474.369 342.474ZM481.615 342.262L481.755 342.193L482.336 341.911L482.657 341.753C482.806 341.977 482.95 342.207 483.085 342.442C483.198 342.637 483.306 342.834 483.407 343.033C483.499 343.212 483.583 343.392 483.666 343.574C483.769 343.808 483.871 344.043 483.966 344.275C484.273 345.012 484.537 345.742 484.762 346.468L484.759 346.47C484.822 346.665 484.881 346.861 484.935 347.056C484.94 347.081 484.95 347.106 484.955 347.13L484.686 347.138L483.764 347.167C483.738 347.068 483.71 346.972 483.679 346.873C483.414 345.955 483.072 345.026 482.653 344.095C482.364 343.448 482.014 342.837 481.615 342.262ZM475.099 336.636L475.177 336.491C475.439 336.555 475.698 336.629 475.957 336.711C478.105 337.394 480.009 338.631 481.492 340.262C481.642 340.425 481.783 340.592 481.924 340.762L481.408 341.015L480.851 341.286C479.502 339.746 477.743 338.579 475.747 337.944C475.358 337.821 474.965 337.717 474.573 337.639L474.795 337.217L475.099 336.636ZM489.083 341.737L489.38 341.066C488.294 336.469 486.273 333.687 483.378 332.793C480.042 331.765 476.355 333.499 473.971 335.024C472.313 334.799 470.658 334.885 469.098 335.269C469.047 335.112 468.995 334.935 468.952 334.738C469.124 334.309 470.94 333.437 472.806 332.893L472.72 331.71L471.614 331.566C473.36 330.905 474.384 330.085 474.773 329.055C475.4 327.397 474.147 325.739 473.141 324.407C472.811 323.972 472.501 323.562 472.296 323.208C470.538 320.162 469.413 320.811 462.094 325.037C460.214 326.122 459.077 327.643 458.715 329.559C457.958 333.571 460.85 338.184 462.179 340.041C461.612 340.846 461.129 341.723 460.745 342.66C458.236 343.963 454.908 346.284 454.133 349.677C453.46 352.632 454.859 355.773 458.296 359.012L459.026 359.091L462.88 356.796C463.37 357.43 463.879 358.028 464.403 358.589C463.468 359.617 462.73 360.823 462.414 362.205C461.739 365.16 463.14 368.3 466.575 371.541L467.308 371.618L471.903 368.88L472.17 368.165C471.545 366.312 471.129 364.727 470.877 363.372C473.61 364.6 476.406 364.951 478.966 364.303L484.226 369.201L485.239 368.616L483.628 361.603C485.261 359.914 486.302 357.672 486.722 355.099C486.774 354.778 486.816 354.455 486.849 354.126C487.9 355.025 489.071 356.183 490.37 357.657L491.123 357.784L495.791 355.173L496.091 354.5C495.002 349.905 492.983 347.121 490.086 346.228C488.724 345.808 487.302 345.848 485.936 346.148C485.713 345.416 485.448 344.68 485.148 343.94L489.083 341.737Z" fill="#00BC7F"/>
</svg>
