<svg width="407" height="171" viewBox="0 0 407 171" fill="none" xmlns="http://www.w3.org/2000/svg">
<g clip-path="url(#clip0_4952_11527)">
<rect x="0.695312" y="0.779297" width="405.609" height="169.532" rx="6.33764" fill="white"/>
<rect x="0.695312" y="0.779297" width="405.609" height="39.6102" fill="#16032E"/>
<rect x="19.832" y="55.001" width="31.6882" height="31.6882" rx="15.8441" fill="#FEE2E2"/>
<path d="M35.8331 68.6243V70.2087M35.8331 73.3776H35.8411M30.3446 76.5464H41.3217C42.5414 76.5464 43.3037 75.226 42.6938 74.1698L37.2053 64.6633C36.5954 63.607 35.0708 63.607 34.461 64.6633L28.9724 74.1698C28.3626 75.226 29.1249 76.5464 30.3446 76.5464Z" stroke="#DC2626" stroke-width="1.58441" stroke-linecap="round" stroke-linejoin="round"/>
<path d="M65.2097 69.6492V59.2785H71.7116V60.6255H66.7744V63.7853H71.3723V65.1272H66.7744V68.3022H71.7724V69.6492H65.2097ZM74.8752 61.8712L76.5918 64.8993L78.3237 61.8712H79.9795L77.554 65.7602L79.9998 69.6492H78.3439L76.5918 66.7425L74.8448 69.6492H73.1839L75.6044 65.7602L73.2143 61.8712H74.8752ZM81.5341 72.5659V61.8712H83.0128V63.132H83.1394C83.2271 62.97 83.3537 62.7826 83.5191 62.57C83.6846 62.3573 83.9141 62.1716 84.2078 62.0129C84.5015 61.8509 84.8897 61.7699 85.3725 61.7699C86.0004 61.7699 86.5608 61.9285 87.0537 62.2459C87.5466 62.5632 87.9331 63.0206 88.2133 63.6182C88.4969 64.2157 88.6387 64.9348 88.6387 65.7754C88.6387 66.6159 88.4986 67.3367 88.2184 67.9376C87.9382 68.5351 87.5533 68.9959 87.0638 69.32C86.5743 69.6407 86.0156 69.8011 85.3877 69.8011C84.9151 69.8011 84.5285 69.7218 84.2281 69.5631C83.931 69.4044 83.6981 69.2187 83.5293 69.0061C83.3605 68.7934 83.2305 68.6043 83.1394 68.4389H83.0482V72.5659H81.5341ZM83.0178 65.7602C83.0178 66.3071 83.0972 66.7864 83.2558 67.1983C83.4145 67.6101 83.644 67.9325 83.9445 68.1655C84.245 68.395 84.6129 68.5098 85.0484 68.5098C85.5008 68.5098 85.8789 68.39 86.1827 68.1503C86.4865 67.9072 86.7161 67.5781 86.8714 67.1628C87.0301 66.7476 87.1094 66.28 87.1094 65.7602C87.1094 65.247 87.0317 64.7862 86.8764 64.3777C86.7245 63.9693 86.495 63.6469 86.1878 63.4106C85.8839 63.1742 85.5042 63.0561 85.0484 63.0561C84.6095 63.0561 84.2382 63.1692 83.9344 63.3954C83.6339 63.6215 83.406 63.9372 83.2508 64.3423C83.0955 64.7474 83.0178 65.22 83.0178 65.7602ZM90.335 69.6492V61.8712H91.8491V69.6492H90.335ZM91.0997 60.671C90.8363 60.671 90.6102 60.5833 90.4211 60.4077C90.2354 60.2288 90.1426 60.0161 90.1426 59.7697C90.1426 59.5199 90.2354 59.3072 90.4211 59.1316C90.6102 58.9527 90.8363 58.8633 91.0997 58.8633C91.363 58.8633 91.5875 58.9527 91.7732 59.1316C91.9622 59.3072 92.0567 59.5199 92.0567 59.7697C92.0567 60.0161 91.9622 60.2288 91.7732 60.4077C91.5875 60.5833 91.363 60.671 91.0997 60.671ZM93.886 69.6492V61.8712H95.3495V63.1067H95.4305C95.5723 62.6881 95.8221 62.359 96.1799 62.1193C96.5412 61.8762 96.9496 61.7547 97.4054 61.7547C97.4999 61.7547 97.6113 61.7581 97.7396 61.7648C97.8712 61.7716 97.9742 61.78 98.0485 61.7901V63.2384C97.9877 63.2215 97.8797 63.2029 97.7244 63.1827C97.5691 63.1591 97.4138 63.1472 97.2585 63.1472C96.9007 63.1472 96.5817 63.2232 96.3015 63.3751C96.0246 63.5236 95.8052 63.7313 95.6432 63.998C95.4811 64.2613 95.4001 64.5617 95.4001 64.8993V69.6492H93.886ZM102.432 69.8061C101.666 69.8061 101.006 69.6424 100.453 69.315C99.9023 68.9841 99.4769 68.5199 99.1764 67.9224C98.8794 67.3215 98.7308 66.6176 98.7308 65.8108C98.7308 65.0141 98.8794 64.3119 99.1764 63.7043C99.4769 63.0966 99.8955 62.6223 100.432 62.2813C100.972 61.9404 101.604 61.7699 102.326 61.7699C102.765 61.7699 103.19 61.8425 103.602 61.9876C104.014 62.1328 104.384 62.3607 104.711 62.6712C105.039 62.9818 105.297 63.3852 105.486 63.8815C105.675 64.3744 105.77 64.9736 105.77 65.6791V66.2159H99.5866V65.0816H104.286C104.286 64.6833 104.205 64.3305 104.043 64.0233C103.881 63.7127 103.653 63.4679 103.359 63.289C103.069 63.1101 102.728 63.0206 102.336 63.0206C101.911 63.0206 101.54 63.1253 101.222 63.3346C100.908 63.5405 100.665 63.8106 100.493 64.1448C100.324 64.4756 100.24 64.8352 100.24 65.2234V66.1096C100.24 66.6295 100.331 67.0717 100.513 67.4363C100.699 67.8009 100.957 68.0794 101.288 68.2718C101.619 68.4609 102.005 68.5554 102.448 68.5554C102.735 68.5554 102.996 68.5149 103.233 68.4339C103.469 68.3495 103.673 68.2246 103.845 68.0591C104.017 67.8937 104.149 67.6895 104.24 67.4464L105.673 67.7047C105.559 68.1267 105.353 68.4963 105.056 68.8136C104.762 69.1276 104.392 69.3723 103.947 69.5479C103.504 69.7201 103 69.8061 102.432 69.8061ZM110.361 69.8011C109.733 69.8011 109.173 69.6407 108.68 69.32C108.19 68.9959 107.806 68.5351 107.525 67.9376C107.249 67.3367 107.11 66.6159 107.11 65.7754C107.11 64.9348 107.25 64.2157 107.53 63.6182C107.814 63.0206 108.202 62.5632 108.695 62.2459C109.188 61.9285 109.747 61.7699 110.371 61.7699C110.854 61.7699 111.242 61.8509 111.536 62.0129C111.833 62.1716 112.063 62.3573 112.225 62.57C112.39 62.7826 112.518 62.97 112.609 63.132H112.701V59.2785H114.215V69.6492H112.736V68.4389H112.609C112.518 68.6043 112.387 68.7934 112.214 69.0061C112.046 69.2187 111.813 69.4044 111.516 69.5631C111.219 69.7218 110.834 69.8011 110.361 69.8011ZM110.695 68.5098C111.131 68.5098 111.499 68.395 111.799 68.1655C112.103 67.9325 112.333 67.6101 112.488 67.1983C112.647 66.7864 112.726 66.3071 112.726 65.7602C112.726 65.22 112.648 64.7474 112.493 64.3423C112.338 63.9372 112.11 63.6215 111.809 63.3954C111.509 63.1692 111.138 63.0561 110.695 63.0561C110.24 63.0561 109.86 63.1742 109.556 63.4106C109.252 63.6469 109.023 63.9693 108.867 64.3777C108.715 64.7862 108.639 65.247 108.639 65.7602C108.639 66.28 108.717 66.7476 108.872 67.1628C109.028 67.5781 109.257 67.9072 109.561 68.1503C109.868 68.39 110.246 68.5098 110.695 68.5098ZM120.271 69.6492V59.2785H121.836V64.2309H121.962L126.312 59.2785H128.282L124.099 63.9473L128.297 69.6492H126.413L123.061 65.0158L121.836 66.4235V69.6492H120.271ZM132.4 69.8061C131.634 69.8061 130.974 69.6424 130.42 69.315C129.87 68.9841 129.445 68.5199 129.144 67.9224C128.847 67.3215 128.698 66.6176 128.698 65.8108C128.698 65.0141 128.847 64.3119 129.144 63.7043C129.445 63.0966 129.863 62.6223 130.4 62.2813C130.94 61.9404 131.571 61.7699 132.294 61.7699C132.733 61.7699 133.158 61.8425 133.57 61.9876C133.982 62.1328 134.351 62.3607 134.679 62.6712C135.006 62.9818 135.265 63.3852 135.454 63.8815C135.643 64.3744 135.737 64.9736 135.737 65.6791V66.2159H129.554V65.0816H134.253C134.253 64.6833 134.172 64.3305 134.01 64.0233C133.848 63.7127 133.62 63.4679 133.327 63.289C133.036 63.1101 132.695 63.0206 132.304 63.0206C131.879 63.0206 131.507 63.1253 131.19 63.3346C130.876 63.5405 130.633 63.8106 130.461 64.1448C130.292 64.4756 130.207 64.8352 130.207 65.2234V66.1096C130.207 66.6295 130.299 67.0717 130.481 67.4363C130.667 67.8009 130.925 68.0794 131.256 68.2718C131.587 68.4609 131.973 68.5554 132.415 68.5554C132.702 68.5554 132.964 68.5149 133.2 68.4339C133.436 68.3495 133.641 68.2246 133.813 68.0591C133.985 67.8937 134.117 67.6895 134.208 67.4464L135.641 67.7047C135.526 68.1267 135.32 68.4963 135.023 68.8136C134.729 69.1276 134.36 69.3723 133.914 69.5479C133.472 69.7201 132.967 69.8061 132.4 69.8061ZM138.151 72.5659C137.925 72.5659 137.719 72.5474 137.534 72.5102C137.348 72.4765 137.209 72.4393 137.118 72.3988L137.483 71.1582C137.76 71.2325 138.006 71.2645 138.222 71.2544C138.438 71.2443 138.629 71.1632 138.794 71.0113C138.963 70.8594 139.112 70.6113 139.24 70.267L139.427 69.7504L136.582 61.8712H138.202L140.172 67.9072H140.253L142.223 61.8712H143.848L140.643 70.6873C140.494 71.0924 140.305 71.435 140.076 71.7152C139.846 71.9988 139.573 72.2115 139.255 72.3532C138.938 72.495 138.57 72.5659 138.151 72.5659Z" fill="#111827"/>
<path d="M64.606 85.7872V84.9207H70.6555V85.7872H68.1191V92.9868H67.1424V85.7872H64.606ZM72.9664 89.3476V92.9868H72.037V84.9207H72.9664V87.8825H73.0452C73.187 87.57 73.3997 87.3219 73.6833 87.1381C73.9695 86.9517 74.3502 86.8585 74.8254 86.8585C75.2377 86.8585 75.5987 86.9412 75.9085 87.1066C76.2183 87.2694 76.4586 87.5202 76.6293 87.8589C76.8026 88.195 76.8892 88.6229 76.8892 89.1428V92.9868H75.9597V89.2058C75.9597 88.7253 75.835 88.3538 75.5856 88.0912C75.3387 87.826 74.9961 87.6934 74.5576 87.6934C74.253 87.6934 73.98 87.7578 73.7384 87.8864C73.4995 88.0151 73.3104 88.2028 73.1712 88.4496C73.0347 88.6965 72.9664 88.9958 72.9664 89.3476ZM78.5897 92.9868V86.9373H79.5192V92.9868H78.5897ZM79.0623 85.929C78.8811 85.929 78.7249 85.8673 78.5936 85.7439C78.4649 85.6205 78.4006 85.4721 78.4006 85.2988C78.4006 85.1255 78.4649 84.9772 78.5936 84.8538C78.7249 84.7304 78.8811 84.6687 79.0623 84.6687C79.2435 84.6687 79.3984 84.7304 79.527 84.8538C79.6583 84.9772 79.724 85.1255 79.724 85.2988C79.724 85.4721 79.6583 85.6205 79.527 85.7439C79.3984 85.8673 79.2435 85.929 79.0623 85.929ZM85.5067 88.2921L84.6717 88.5284C84.6192 88.3893 84.5418 88.254 84.4393 88.1227C84.3396 87.9888 84.203 87.8786 84.0297 87.7919C83.8564 87.7053 83.6346 87.6619 83.3641 87.6619C82.9939 87.6619 82.6854 87.7473 82.4386 87.9179C82.1944 88.086 82.0723 88.3 82.0723 88.5599C82.0723 88.791 82.1563 88.9735 82.3244 89.1074C82.4924 89.2413 82.755 89.3529 83.1121 89.4421L84.0101 89.6627C84.5509 89.794 84.954 89.9949 85.2192 90.2653C85.4844 90.5331 85.617 90.8784 85.617 91.3011C85.617 91.6477 85.5172 91.9576 85.3176 92.2306C85.1207 92.5037 84.845 92.719 84.4906 92.8765C84.1361 93.0341 83.7239 93.1128 83.2539 93.1128C82.6368 93.1128 82.1261 92.9789 81.7218 92.7111C81.3174 92.4433 81.0614 92.0521 80.9538 91.5374L81.836 91.3169C81.92 91.6425 82.0789 91.8867 82.3125 92.0494C82.5489 92.2122 82.8574 92.2936 83.2381 92.2936C83.6713 92.2936 84.0153 92.2017 84.27 92.0179C84.5273 91.8315 84.656 91.6083 84.656 91.3484C84.656 91.1383 84.5824 90.9624 84.4354 90.8206C84.2884 90.6762 84.0626 90.5686 83.758 90.4977L82.7497 90.2614C82.1957 90.1301 81.7887 89.9266 81.5288 89.6509C81.2715 89.3726 81.1428 89.0247 81.1428 88.6072C81.1428 88.2658 81.2386 87.9639 81.4303 87.7013C81.6246 87.4388 81.8885 87.2326 82.222 87.083C82.5581 86.9333 82.9388 86.8585 83.3641 86.8585C83.9628 86.8585 84.4328 86.9898 84.7741 87.2523C85.1181 87.5149 85.3623 87.8615 85.5067 88.2921ZM91.0019 90.7812L90.9862 89.6312H91.1752L93.8219 86.9373H94.9719L92.152 89.7887H92.0732L91.0019 90.7812ZM90.1354 92.9868V84.9207H91.0649V92.9868H90.1354ZM93.9794 92.9868L91.6163 89.9935L92.278 89.3476L95.161 92.9868H93.9794ZM98.4556 93.1128C97.8727 93.1128 97.3698 92.9842 96.9471 92.7269C96.527 92.4669 96.2027 92.1046 95.9743 91.6398C95.7485 91.1725 95.6356 90.629 95.6356 90.0093C95.6356 89.3896 95.7485 88.8435 95.9743 88.3709C96.2027 87.8956 96.5204 87.5254 96.9274 87.2602C97.337 86.9924 97.8149 86.8585 98.361 86.8585C98.6761 86.8585 98.9873 86.911 99.2945 87.016C99.6017 87.121 99.8813 87.2917 100.133 87.528C100.385 87.7617 100.586 88.0715 100.736 88.4575C100.886 88.8435 100.96 89.3187 100.96 89.8833V90.2771H96.2972V89.4737H100.015C100.015 89.1323 99.9469 88.8277 99.8104 88.5599C99.6765 88.2921 99.4848 88.0807 99.2354 87.9258C98.9886 87.7709 98.6971 87.6934 98.361 87.6934C97.9908 87.6934 97.6705 87.7853 97.4 87.9691C97.1322 88.1503 96.9261 88.3866 96.7817 88.6781C96.6373 88.9695 96.5651 89.282 96.5651 89.6154V90.1511C96.5651 90.608 96.6438 90.9952 96.8014 91.3129C96.9615 91.628 97.1834 91.8683 97.467 92.0337C97.7506 92.1965 98.0801 92.2779 98.4556 92.2779C98.6997 92.2779 98.9203 92.2437 99.1172 92.1755C99.3168 92.1046 99.4888 91.9996 99.6332 91.8604C99.7776 91.7186 99.8892 91.5427 99.9679 91.3326L100.866 91.5847C100.771 91.8893 100.613 92.1571 100.389 92.3882C100.166 92.6166 99.8905 92.7951 99.5623 92.9238C99.2341 93.0498 98.8652 93.1128 98.4556 93.1128ZM102.789 95.2554C102.631 95.2554 102.491 95.2423 102.367 95.216C102.244 95.1924 102.159 95.1688 102.111 95.1451L102.348 94.3259C102.574 94.3837 102.773 94.4047 102.946 94.3889C103.12 94.3732 103.273 94.2957 103.407 94.1566C103.544 94.02 103.669 93.7982 103.781 93.4909L103.955 93.0183L101.718 86.9373H102.726L104.396 91.758H104.459L106.129 86.9373H107.137L104.569 93.869C104.454 94.1815 104.31 94.4401 104.14 94.6449C103.969 94.8524 103.771 95.006 103.545 95.1057C103.322 95.2055 103.07 95.2554 102.789 95.2554ZM111.483 92.9868V86.9373H112.413V92.9868H111.483ZM111.956 85.929C111.775 85.929 111.618 85.8673 111.487 85.7439C111.358 85.6205 111.294 85.4721 111.294 85.2988C111.294 85.1255 111.358 84.9772 111.487 84.8538C111.618 84.7304 111.775 84.6687 111.956 84.6687C112.137 84.6687 112.292 84.7304 112.421 84.8538C112.552 84.9772 112.617 85.1255 112.617 85.2988C112.617 85.4721 112.552 85.6205 112.421 85.7439C112.292 85.8673 112.137 85.929 111.956 85.929ZM118.4 88.2921L117.565 88.5284C117.513 88.3893 117.435 88.254 117.333 88.1227C117.233 87.9888 117.097 87.8786 116.923 87.7919C116.75 87.7053 116.528 87.6619 116.258 87.6619C115.887 87.6619 115.579 87.7473 115.332 87.9179C115.088 88.086 114.966 88.3 114.966 88.5599C114.966 88.791 115.05 88.9735 115.218 89.1074C115.386 89.2413 115.649 89.3529 116.006 89.4421L116.904 89.6627C117.444 89.794 117.848 89.9949 118.113 90.2653C118.378 90.5331 118.51 90.8784 118.51 91.3011C118.51 91.6477 118.411 91.9576 118.211 92.2306C118.014 92.5037 117.739 92.719 117.384 92.8765C117.03 93.0341 116.617 93.1128 116.147 93.1128C115.53 93.1128 115.02 92.9789 114.615 92.7111C114.211 92.4433 113.955 92.0521 113.847 91.5374L114.73 91.3169C114.814 91.6425 114.972 91.8867 115.206 92.0494C115.442 92.2122 115.751 92.2936 116.132 92.2936C116.565 92.2936 116.909 92.2017 117.164 92.0179C117.421 91.8315 117.549 91.6083 117.549 91.3484C117.549 91.1383 117.476 90.9624 117.329 90.8206C117.182 90.6762 116.956 90.5686 116.652 90.4977L115.643 90.2614C115.089 90.1301 114.682 89.9266 114.422 89.6509C114.165 89.3726 114.036 89.0247 114.036 88.6072C114.036 88.2658 114.132 87.9639 114.324 87.7013C114.518 87.4388 114.782 87.2326 115.115 87.083C115.452 86.9333 115.832 86.8585 116.258 86.8585C116.856 86.8585 117.326 86.9898 117.668 87.2523C118.012 87.5149 118.256 87.8615 118.4 88.2921ZM125.565 93.1128C124.982 93.1128 124.48 92.9842 124.057 92.7269C123.637 92.4669 123.313 92.1046 123.084 91.6398C122.858 91.1725 122.745 90.629 122.745 90.0093C122.745 89.3896 122.858 88.8435 123.084 88.3709C123.313 87.8956 123.63 87.5254 124.037 87.2602C124.447 86.9924 124.925 86.8585 125.471 86.8585C125.786 86.8585 126.097 86.911 126.404 87.016C126.711 87.121 126.991 87.2917 127.243 87.528C127.495 87.7617 127.696 88.0715 127.846 88.4575C127.995 88.8435 128.07 89.3187 128.07 89.8833V90.2771H123.407V89.4737H127.125C127.125 89.1323 127.057 88.8277 126.92 88.5599C126.786 88.2921 126.595 88.0807 126.345 87.9258C126.098 87.7709 125.807 87.6934 125.471 87.6934C125.101 87.6934 124.78 87.7853 124.51 87.9691C124.242 88.1503 124.036 88.3866 123.891 88.6781C123.747 88.9695 123.675 89.282 123.675 89.6154V90.1511C123.675 90.608 123.754 90.9952 123.911 91.3129C124.071 91.628 124.293 91.8683 124.577 92.0337C124.86 92.1965 125.19 92.2779 125.565 92.2779C125.81 92.2779 126.03 92.2437 126.227 92.1755C126.427 92.1046 126.599 91.9996 126.743 91.8604C126.887 91.7186 126.999 91.5427 127.078 91.3326L127.976 91.5847C127.881 91.8893 127.722 92.1571 127.499 92.3882C127.276 92.6166 127 92.7951 126.672 92.9238C126.344 93.0498 125.975 93.1128 125.565 93.1128ZM130.015 86.9373L131.464 89.4106L132.914 86.9373H133.985L132.031 89.962L133.985 92.9868H132.914L131.464 90.6395L130.015 92.9868H128.944L130.866 89.962L128.944 86.9373H130.015ZM135.311 95.2554V86.9373H136.209V87.8982H136.319C136.388 87.7932 136.482 87.6593 136.603 87.4965C136.726 87.3311 136.902 87.1841 137.131 87.0554C137.362 86.9241 137.674 86.8585 138.068 86.8585C138.578 86.8585 139.027 86.9858 139.415 87.2405C139.804 87.4952 140.107 87.8562 140.325 88.3236C140.543 88.791 140.652 89.3424 140.652 89.9778C140.652 90.6185 140.543 91.1738 140.325 91.6438C140.107 92.1112 139.805 92.4735 139.419 92.7308C139.033 92.9855 138.588 93.1128 138.084 93.1128C137.695 93.1128 137.384 93.0485 137.151 92.9199C136.917 92.7886 136.737 92.6402 136.611 92.4748C136.485 92.3068 136.388 92.1676 136.319 92.0573H136.241V95.2554H135.311ZM136.225 89.962C136.225 90.4189 136.292 90.8219 136.426 91.1712C136.56 91.5177 136.755 91.7895 137.013 91.9864C137.27 92.1807 137.585 92.2779 137.958 92.2779C138.347 92.2779 138.671 92.1755 138.931 91.9707C139.193 91.7632 139.39 91.4849 139.522 91.1357C139.655 90.7839 139.722 90.3926 139.722 89.962C139.722 89.5367 139.657 89.1533 139.525 88.812C139.397 88.468 139.201 88.1963 138.939 87.9967C138.679 87.7945 138.352 87.6934 137.958 87.6934C137.58 87.6934 137.262 87.7893 137.005 87.981C136.747 88.17 136.553 88.4352 136.422 88.7765C136.291 89.1153 136.225 89.5104 136.225 89.962ZM142.07 92.9868V86.9373H142.999V92.9868H142.07ZM142.542 85.929C142.361 85.929 142.205 85.8673 142.074 85.7439C141.945 85.6205 141.881 85.4721 141.881 85.2988C141.881 85.1255 141.945 84.9772 142.074 84.8538C142.205 84.7304 142.361 84.6687 142.542 84.6687C142.724 84.6687 142.878 84.7304 143.007 84.8538C143.138 84.9772 143.204 85.1255 143.204 85.2988C143.204 85.4721 143.138 85.6205 143.007 85.7439C142.878 85.8673 142.724 85.929 142.542 85.929ZM144.702 92.9868V86.9373H145.6V87.851H145.663C145.773 87.5517 145.972 87.3088 146.261 87.1224C146.55 86.9359 146.876 86.8427 147.238 86.8427C147.306 86.8427 147.392 86.844 147.494 86.8467C147.596 86.8493 147.674 86.8532 147.726 86.8585V87.8037C147.695 87.7958 147.623 87.784 147.51 87.7683C147.4 87.7499 147.283 87.7407 147.159 87.7407C146.865 87.7407 146.603 87.8024 146.372 87.9258C146.143 88.0466 145.962 88.2146 145.828 88.4299C145.697 88.6426 145.631 88.8855 145.631 89.1586V92.9868H144.702ZM151.181 93.1128C150.598 93.1128 150.095 92.9842 149.672 92.7269C149.252 92.4669 148.928 92.1046 148.699 91.6398C148.473 91.1725 148.361 90.629 148.361 90.0093C148.361 89.3896 148.473 88.8435 148.699 88.3709C148.928 87.8956 149.245 87.5254 149.652 87.2602C150.062 86.9924 150.54 86.8585 151.086 86.8585C151.401 86.8585 151.712 86.911 152.019 87.016C152.327 87.121 152.606 87.2917 152.858 87.528C153.11 87.7617 153.311 88.0715 153.461 88.4575C153.611 88.8435 153.685 89.3187 153.685 89.8833V90.2771H149.022V89.4737H152.74C152.74 89.1323 152.672 88.8277 152.535 88.5599C152.401 88.2921 152.21 88.0807 151.96 87.9258C151.714 87.7709 151.422 87.6934 151.086 87.6934C150.716 87.6934 150.395 87.7853 150.125 87.9691C149.857 88.1503 149.651 88.3866 149.507 88.6781C149.362 88.9695 149.29 89.282 149.29 89.6154V90.1511C149.29 90.608 149.369 90.9952 149.526 91.3129C149.686 91.628 149.908 91.8683 150.192 92.0337C150.476 92.1965 150.805 92.2779 151.181 92.2779C151.425 92.2779 151.645 92.2437 151.842 92.1755C152.042 92.1046 152.214 91.9996 152.358 91.8604C152.503 91.7186 152.614 91.5427 152.693 91.3326L153.591 91.5847C153.496 91.8893 153.338 92.1571 153.114 92.3882C152.891 92.6166 152.615 92.7951 152.287 92.9238C151.959 93.0498 151.59 93.1128 151.181 93.1128ZM157.384 93.1128C156.88 93.1128 156.434 92.9855 156.049 92.7308C155.663 92.4735 155.361 92.1112 155.143 91.6438C154.925 91.1738 154.816 90.6185 154.816 89.9778C154.816 89.3424 154.925 88.791 155.143 88.3236C155.361 87.8562 155.664 87.4952 156.052 87.2405C156.441 86.9858 156.89 86.8585 157.399 86.8585C157.793 86.8585 158.104 86.9241 158.333 87.0554C158.564 87.1841 158.74 87.3311 158.861 87.4965C158.984 87.6593 159.08 87.7932 159.148 87.8982H159.227V84.9207H160.156V92.9868H159.258V92.0573H159.148C159.08 92.1676 158.983 92.3068 158.857 92.4748C158.731 92.6402 158.551 92.7886 158.317 92.9199C158.083 93.0485 157.772 93.1128 157.384 93.1128ZM157.51 92.2779C157.883 92.2779 158.198 92.1807 158.455 91.9864C158.712 91.7895 158.908 91.5177 159.042 91.1712C159.176 90.8219 159.243 90.4189 159.243 89.962C159.243 89.5104 159.177 89.1153 159.046 88.7765C158.914 88.4352 158.72 88.17 158.463 87.981C158.206 87.7893 157.888 87.6934 157.51 87.6934C157.116 87.6934 156.788 87.7945 156.525 87.9967C156.265 88.1963 156.07 88.468 155.938 88.812C155.81 89.1533 155.745 89.5367 155.745 89.962C155.745 90.3926 155.811 90.7839 155.942 91.1357C156.076 91.4849 156.273 91.7632 156.533 91.9707C156.796 92.1755 157.121 92.2779 157.51 92.2779ZM166.887 93.1286C166.504 93.1286 166.156 93.0564 165.844 92.912C165.531 92.7649 165.283 92.5536 165.099 92.2779C164.915 91.9996 164.824 91.6635 164.824 91.2696C164.824 90.923 164.892 90.6421 165.028 90.4268C165.165 90.2088 165.347 90.0382 165.576 89.9148C165.804 89.7914 166.056 89.6995 166.332 89.6391C166.61 89.5761 166.89 89.5262 167.171 89.4894C167.538 89.4421 167.837 89.4067 168.065 89.3831C168.296 89.3568 168.464 89.3135 168.569 89.2531C168.677 89.1927 168.731 89.0877 168.731 88.938V88.9065C168.731 88.5179 168.624 88.216 168.412 88.0007C168.201 87.7853 167.882 87.6777 167.454 87.6777C167.011 87.6777 166.663 87.7748 166.411 87.9691C166.159 88.1634 165.981 88.3709 165.879 88.5914L164.997 88.2763C165.154 87.9088 165.364 87.6226 165.627 87.4178C165.892 87.2103 166.181 87.0659 166.493 86.9845C166.809 86.9005 167.118 86.8585 167.423 86.8585C167.617 86.8585 167.84 86.8821 168.093 86.9294C168.347 86.974 168.593 87.0672 168.829 87.209C169.068 87.3508 169.266 87.5648 169.424 87.851C169.581 88.1372 169.66 88.5205 169.66 89.001V92.9868H168.731V92.1676H168.683C168.62 92.2989 168.515 92.4394 168.368 92.589C168.221 92.7387 168.026 92.866 167.781 92.9711C167.537 93.0761 167.239 93.1286 166.887 93.1286ZM167.029 92.2936C167.397 92.2936 167.707 92.2214 167.959 92.077C168.213 91.9326 168.405 91.7462 168.534 91.5177C168.665 91.2893 168.731 91.0491 168.731 90.797V89.9463C168.691 89.9935 168.605 90.0369 168.471 90.0763C168.339 90.113 168.187 90.1458 168.014 90.1747C167.843 90.201 167.676 90.2246 167.514 90.2456C167.353 90.264 167.223 90.2797 167.124 90.2929C166.882 90.3244 166.656 90.3756 166.446 90.4465C166.239 90.5147 166.071 90.6185 165.942 90.7576C165.816 90.8941 165.753 91.0806 165.753 91.3169C165.753 91.6398 165.872 91.884 166.111 92.0494C166.353 92.2122 166.659 92.2936 167.029 92.2936ZM172.286 89.3476V92.9868H171.357V86.9373H172.255V87.8825H172.333C172.475 87.5753 172.69 87.3285 172.979 87.1421C173.268 86.953 173.641 86.8585 174.098 86.8585C174.507 86.8585 174.866 86.9425 175.173 87.1105C175.48 87.276 175.719 87.528 175.89 87.8667C176.06 88.2028 176.146 88.6282 176.146 89.1428V92.9868H175.216V89.2058C175.216 88.7306 175.093 88.3604 174.846 88.0952C174.599 87.8274 174.261 87.6934 173.83 87.6934C173.533 87.6934 173.268 87.7578 173.034 87.8864C172.803 88.0151 172.621 88.2028 172.487 88.4496C172.353 88.6965 172.286 88.9958 172.286 89.3476ZM180.129 93.1128C179.624 93.1128 179.179 92.9855 178.793 92.7308C178.407 92.4735 178.106 92.1112 177.888 91.6438C177.67 91.1738 177.561 90.6185 177.561 89.9778C177.561 89.3424 177.67 88.791 177.888 88.3236C178.106 87.8562 178.409 87.4952 178.797 87.2405C179.186 86.9858 179.635 86.8585 180.144 86.8585C180.538 86.8585 180.849 86.9241 181.078 87.0554C181.309 87.1841 181.485 87.3311 181.606 87.4965C181.729 87.6593 181.825 87.7932 181.893 87.8982H181.972V84.9207H182.901V92.9868H182.003V92.0573H181.893C181.825 92.1676 181.728 92.3068 181.602 92.4748C181.476 92.6402 181.296 92.7886 181.062 92.9199C180.828 93.0485 180.517 93.1128 180.129 93.1128ZM180.255 92.2779C180.628 92.2779 180.943 92.1807 181.2 91.9864C181.457 91.7895 181.653 91.5177 181.787 91.1712C181.921 90.8219 181.988 90.4189 181.988 89.962C181.988 89.5104 181.922 89.1153 181.791 88.7765C181.659 88.4352 181.465 88.17 181.208 87.981C180.95 87.7893 180.633 87.6934 180.255 87.6934C179.861 87.6934 179.533 87.7945 179.27 87.9967C179.01 88.1963 178.814 88.468 178.683 88.812C178.555 89.1533 178.49 89.5367 178.49 89.962C178.49 90.3926 178.556 90.7839 178.687 91.1357C178.821 91.4849 179.018 91.7632 179.278 91.9707C179.54 92.1755 179.866 92.2779 180.255 92.2779ZM190.31 93.1128C189.743 93.1128 189.254 92.9789 188.845 92.7111C188.435 92.4433 188.12 92.0744 187.899 91.6044C187.679 91.1344 187.568 90.5974 187.568 89.9935C187.568 89.3791 187.681 88.8369 187.907 88.3669C188.136 87.8943 188.453 87.5254 188.86 87.2602C189.27 86.9924 189.748 86.8585 190.294 86.8585C190.719 86.8585 191.103 86.9373 191.444 87.0948C191.785 87.2523 192.065 87.4729 192.283 87.7565C192.501 88.04 192.636 88.3709 192.689 88.749H191.759C191.688 88.4733 191.531 88.2291 191.286 88.0164C191.045 87.8011 190.719 87.6934 190.31 87.6934C189.947 87.6934 189.63 87.788 189.357 87.977C189.086 88.1634 188.875 88.4273 188.722 88.7687C188.573 89.1074 188.498 89.5052 188.498 89.962C188.498 90.4294 188.571 90.8364 188.719 91.183C188.868 91.5296 189.078 91.7987 189.349 91.9904C189.622 92.182 189.942 92.2779 190.31 92.2779C190.551 92.2779 190.771 92.2359 190.967 92.1519C191.164 92.0678 191.331 91.947 191.468 91.7895C191.604 91.632 191.701 91.4429 191.759 91.2224H192.689C192.636 91.5795 192.506 91.9011 192.299 92.1873C192.094 92.4709 191.822 92.6967 191.483 92.8647C191.147 93.0301 190.756 93.1128 190.31 93.1128ZM195.828 93.1286C195.444 93.1286 195.096 93.0564 194.784 92.912C194.471 92.7649 194.223 92.5536 194.039 92.2779C193.856 91.9996 193.764 91.6635 193.764 91.2696C193.764 90.923 193.832 90.6421 193.969 90.4268C194.105 90.2088 194.288 90.0382 194.516 89.9148C194.744 89.7914 194.997 89.6995 195.272 89.6391C195.551 89.5761 195.83 89.5262 196.111 89.4894C196.479 89.4421 196.777 89.4067 197.005 89.3831C197.236 89.3568 197.404 89.3135 197.509 89.2531C197.617 89.1927 197.671 89.0877 197.671 88.938V88.9065C197.671 88.5179 197.564 88.216 197.352 88.0007C197.142 87.7853 196.823 87.6777 196.395 87.6777C195.951 87.6777 195.603 87.7748 195.351 87.9691C195.099 88.1634 194.922 88.3709 194.819 88.5914L193.937 88.2763C194.095 87.9088 194.305 87.6226 194.567 87.4178C194.832 87.2103 195.121 87.0659 195.434 86.9845C195.749 86.9005 196.059 86.8585 196.363 86.8585C196.557 86.8585 196.781 86.8821 197.033 86.9294C197.287 86.974 197.533 87.0672 197.769 87.209C198.008 87.3508 198.206 87.5648 198.364 87.851C198.522 88.1372 198.6 88.5205 198.6 89.001V92.9868H197.671V92.1676H197.624C197.561 92.2989 197.455 92.4394 197.308 92.589C197.161 92.7387 196.966 92.866 196.722 92.9711C196.477 93.0761 196.179 93.1286 195.828 93.1286ZM195.969 92.2936C196.337 92.2936 196.647 92.2214 196.899 92.077C197.154 91.9326 197.345 91.7462 197.474 91.5177C197.605 91.2893 197.671 91.0491 197.671 90.797V89.9463C197.631 89.9935 197.545 90.0369 197.411 90.0763C197.28 90.113 197.127 90.1458 196.954 90.1747C196.783 90.201 196.617 90.2246 196.454 90.2456C196.294 90.264 196.164 90.2797 196.064 90.2929C195.822 90.3244 195.596 90.3756 195.386 90.4465C195.179 90.5147 195.011 90.6185 194.882 90.7576C194.756 90.8941 194.693 91.0806 194.693 91.3169C194.693 91.6398 194.813 91.884 195.052 92.0494C195.293 92.2122 195.599 92.2936 195.969 92.2936ZM201.226 89.3476V92.9868H200.297V86.9373H201.195V87.8825H201.274C201.415 87.5753 201.631 87.3285 201.919 87.1421C202.208 86.953 202.581 86.8585 203.038 86.8585C203.448 86.8585 203.806 86.9425 204.113 87.1105C204.42 87.276 204.659 87.528 204.83 87.8667C205.001 88.2028 205.086 88.6282 205.086 89.1428V92.9868H204.157V89.2058C204.157 88.7306 204.033 88.3604 203.786 88.0952C203.54 87.8274 203.201 87.6934 202.77 87.6934C202.473 87.6934 202.208 87.7578 201.975 87.8864C201.744 88.0151 201.561 88.2028 201.427 88.4496C201.293 88.6965 201.226 88.9958 201.226 89.3476ZM207.714 89.3476V92.9868H206.785V86.9373H207.683V87.8825H207.761C207.903 87.5753 208.118 87.3285 208.407 87.1421C208.696 86.953 209.069 86.8585 209.526 86.8585C209.935 86.8585 210.294 86.9425 210.601 87.1105C210.908 87.276 211.147 87.528 211.318 87.8667C211.488 88.2028 211.574 88.6282 211.574 89.1428V92.9868H210.644V89.2058C210.644 88.7306 210.521 88.3604 210.274 88.0952C210.027 87.8274 209.689 87.6934 209.258 87.6934C208.961 87.6934 208.696 87.7578 208.462 87.8864C208.231 88.0151 208.049 88.2028 207.915 88.4496C207.781 88.6965 207.714 88.9958 207.714 89.3476ZM215.73 93.1128C215.184 93.1128 214.705 92.9829 214.292 92.7229C213.883 92.463 213.562 92.0993 213.331 91.632C213.103 91.1646 212.989 90.6185 212.989 89.9935C212.989 89.3634 213.103 88.8133 213.331 88.3433C213.562 87.8733 213.883 87.5083 214.292 87.2484C214.705 86.9885 215.184 86.8585 215.73 86.8585C216.276 86.8585 216.754 86.9885 217.164 87.2484C217.576 87.5083 217.896 87.8733 218.124 88.3433C218.356 88.8133 218.471 89.3634 218.471 89.9935C218.471 90.6185 218.356 91.1646 218.124 91.632C217.896 92.0993 217.576 92.463 217.164 92.7229C216.754 92.9829 216.276 93.1128 215.73 93.1128ZM215.73 92.2779C216.145 92.2779 216.486 92.1715 216.754 91.9589C217.022 91.7462 217.22 91.4665 217.349 91.12C217.477 90.7734 217.542 90.3979 217.542 89.9935C217.542 89.5892 217.477 89.2124 217.349 88.8632C217.22 88.514 217.022 88.2317 216.754 88.0164C216.486 87.8011 216.145 87.6934 215.73 87.6934C215.315 87.6934 214.974 87.8011 214.706 88.0164C214.438 88.2317 214.24 88.514 214.111 88.8632C213.982 89.2124 213.918 89.5892 213.918 89.9935C213.918 90.3979 213.982 90.7734 214.111 91.12C214.24 91.4665 214.438 91.7462 214.706 91.9589C214.974 92.1715 215.315 92.2779 215.73 92.2779ZM222.521 86.9373V87.725H219.386V86.9373H222.521ZM220.3 85.4879H221.229V91.2539C221.229 91.5164 221.267 91.7134 221.343 91.8446C221.422 91.9733 221.522 92.06 221.643 92.1046C221.766 92.1466 221.896 92.1676 222.033 92.1676C222.135 92.1676 222.219 92.1624 222.285 92.1519C222.35 92.1387 222.403 92.1282 222.442 92.1203L222.631 92.9553C222.568 92.9789 222.48 93.0026 222.367 93.0262C222.254 93.0525 222.111 93.0656 221.938 93.0656C221.675 93.0656 221.418 93.0091 221.166 92.8962C220.917 92.7833 220.709 92.6113 220.544 92.3803C220.381 92.1492 220.3 91.8578 220.3 91.5059V85.4879ZM227.164 92.9868V84.9207H228.094V87.8982H228.173C228.241 87.7932 228.335 87.6593 228.456 87.4965C228.58 87.3311 228.756 87.1841 228.984 87.0554C229.215 86.9241 229.528 86.8585 229.921 86.8585C230.431 86.8585 230.88 86.9858 231.268 87.2405C231.657 87.4952 231.96 87.8562 232.178 88.3236C232.396 88.791 232.505 89.3424 232.505 89.9778C232.505 90.6185 232.396 91.1738 232.178 91.6438C231.96 92.1112 231.658 92.4735 231.272 92.7308C230.886 92.9855 230.441 93.1128 229.937 93.1128C229.549 93.1128 229.237 93.0485 229.004 92.9199C228.77 92.7886 228.59 92.6402 228.464 92.4748C228.338 92.3068 228.241 92.1676 228.173 92.0573H228.062V92.9868H227.164ZM228.078 89.962C228.078 90.4189 228.145 90.8219 228.279 91.1712C228.413 91.5177 228.609 91.7895 228.866 91.9864C229.123 92.1807 229.438 92.2779 229.811 92.2779C230.2 92.2779 230.524 92.1755 230.784 91.9707C231.046 91.7632 231.243 91.4849 231.375 91.1357C231.509 90.7839 231.576 90.3926 231.576 89.962C231.576 89.5367 231.51 89.1533 231.379 88.812C231.25 88.468 231.054 88.1963 230.792 87.9967C230.532 87.7945 230.205 87.6934 229.811 87.6934C229.433 87.6934 229.115 87.7893 228.858 87.981C228.601 88.17 228.406 88.4352 228.275 88.7765C228.144 89.1153 228.078 89.5104 228.078 89.962ZM236.463 93.1128C235.88 93.1128 235.378 92.9842 234.955 92.7269C234.535 92.4669 234.21 92.1046 233.982 91.6398C233.756 91.1725 233.643 90.629 233.643 90.0093C233.643 89.3896 233.756 88.8435 233.982 88.3709C234.21 87.8956 234.528 87.5254 234.935 87.2602C235.345 86.9924 235.823 86.8585 236.369 86.8585C236.684 86.8585 236.995 86.911 237.302 87.016C237.609 87.121 237.889 87.2917 238.141 87.528C238.393 87.7617 238.594 88.0715 238.744 88.4575C238.893 88.8435 238.968 89.3187 238.968 89.8833V90.2771H234.305V89.4737H238.023C238.023 89.1323 237.955 88.8277 237.818 88.5599C237.684 88.2921 237.493 88.0807 237.243 87.9258C236.996 87.7709 236.705 87.6934 236.369 87.6934C235.998 87.6934 235.678 87.7853 235.408 87.9691C235.14 88.1503 234.934 88.3866 234.789 88.6781C234.645 88.9695 234.573 89.282 234.573 89.6154V90.1511C234.573 90.608 234.652 90.9952 234.809 91.3129C234.969 91.628 235.191 91.8683 235.475 92.0337C235.758 92.1965 236.088 92.2779 236.463 92.2779C236.707 92.2779 236.928 92.2437 237.125 92.1755C237.324 92.1046 237.496 91.9996 237.641 91.8604C237.785 91.7186 237.897 91.5427 237.976 91.3326L238.874 91.5847C238.779 91.8893 238.62 92.1571 238.397 92.3882C238.174 92.6166 237.898 92.7951 237.57 92.9238C237.242 93.0498 236.873 93.1128 236.463 93.1128ZM247.786 88.2921L246.952 88.5284C246.899 88.3893 246.822 88.254 246.719 88.1227C246.619 87.9888 246.483 87.8786 246.31 87.7919C246.136 87.7053 245.914 87.6619 245.644 87.6619C245.274 87.6619 244.965 87.7473 244.718 87.9179C244.474 88.086 244.352 88.3 244.352 88.5599C244.352 88.791 244.436 88.9735 244.604 89.1074C244.772 89.2413 245.035 89.3529 245.392 89.4421L246.29 89.6627C246.831 89.794 247.234 89.9949 247.499 90.2653C247.764 90.5331 247.897 90.8784 247.897 91.3011C247.897 91.6477 247.797 91.9576 247.597 92.2306C247.401 92.5037 247.125 92.719 246.77 92.8765C246.416 93.0341 246.004 93.1128 245.534 93.1128C244.917 93.1128 244.406 92.9789 244.002 92.7111C243.597 92.4433 243.341 92.0521 243.234 91.5374L244.116 91.3169C244.2 91.6425 244.359 91.8867 244.592 92.0494C244.829 92.2122 245.137 92.2936 245.518 92.2936C245.951 92.2936 246.295 92.2017 246.55 92.0179C246.807 91.8315 246.936 91.6083 246.936 91.3484C246.936 91.1383 246.862 90.9624 246.715 90.8206C246.568 90.6762 246.342 90.5686 246.038 90.4977L245.03 90.2614C244.475 90.1301 244.069 89.9266 243.809 89.6509C243.551 89.3726 243.423 89.0247 243.423 88.6072C243.423 88.2658 243.518 87.9639 243.71 87.7013C243.904 87.4388 244.168 87.2326 244.502 87.083C244.838 86.9333 245.219 86.8585 245.644 86.8585C246.243 86.8585 246.713 86.9898 247.054 87.2523C247.398 87.5149 247.642 87.8615 247.786 88.2921ZM251.832 93.1128C251.249 93.1128 250.747 92.9842 250.324 92.7269C249.904 92.4669 249.579 92.1046 249.351 91.6398C249.125 91.1725 249.012 90.629 249.012 90.0093C249.012 89.3896 249.125 88.8435 249.351 88.3709C249.579 87.8956 249.897 87.5254 250.304 87.2602C250.714 86.9924 251.192 86.8585 251.738 86.8585C252.053 86.8585 252.364 86.911 252.671 87.016C252.978 87.121 253.258 87.2917 253.51 87.528C253.762 87.7617 253.963 88.0715 254.113 88.4575C254.262 88.8435 254.337 89.3187 254.337 89.8833V90.2771H249.674V89.4737H253.392C253.392 89.1323 253.324 88.8277 253.187 88.5599C253.053 88.2921 252.862 88.0807 252.612 87.9258C252.365 87.7709 252.074 87.6934 251.738 87.6934C251.368 87.6934 251.047 87.7853 250.777 87.9691C250.509 88.1503 250.303 88.3866 250.158 88.6781C250.014 88.9695 249.942 89.282 249.942 89.6154V90.1511C249.942 90.608 250.021 90.9952 250.178 91.3129C250.338 91.628 250.56 91.8683 250.844 92.0337C251.127 92.1965 251.457 92.2779 251.832 92.2779C252.077 92.2779 252.297 92.2437 252.494 92.1755C252.694 92.1046 252.866 91.9996 253.01 91.8604C253.154 91.7186 253.266 91.5427 253.345 91.3326L254.243 91.5847C254.148 91.8893 253.989 92.1571 253.766 92.3882C253.543 92.6166 253.267 92.7951 252.939 92.9238C252.611 93.0498 252.242 93.1128 251.832 93.1128ZM256.681 89.3476V92.9868H255.751V86.9373H256.649V87.8825H256.728C256.87 87.5753 257.085 87.3285 257.374 87.1421C257.663 86.953 258.035 86.8585 258.492 86.8585C258.902 86.8585 259.26 86.9425 259.568 87.1105C259.875 87.276 260.114 87.528 260.284 87.8667C260.455 88.2028 260.54 88.6282 260.54 89.1428V92.9868H259.611V89.2058C259.611 88.7306 259.487 88.3604 259.241 88.0952C258.994 87.8274 258.655 87.6934 258.225 87.6934C257.928 87.6934 257.663 87.7578 257.429 87.8864C257.198 88.0151 257.015 88.2028 256.881 88.4496C256.748 88.6965 256.681 88.9958 256.681 89.3476ZM264.523 93.1128C264.019 93.1128 263.574 92.9855 263.188 92.7308C262.802 92.4735 262.5 92.1112 262.282 91.6438C262.064 91.1738 261.955 90.6185 261.955 89.9778C261.955 89.3424 262.064 88.791 262.282 88.3236C262.5 87.8562 262.803 87.4952 263.192 87.2405C263.581 86.9858 264.03 86.8585 264.539 86.8585C264.933 86.8585 265.244 86.9241 265.472 87.0554C265.703 87.1841 265.879 87.3311 266 87.4965C266.124 87.6593 266.219 87.7932 266.288 87.8982H266.366V84.9207H267.296V92.9868H266.398V92.0573H266.288C266.219 92.1676 266.122 92.3068 265.996 92.4748C265.87 92.6402 265.69 92.7886 265.457 92.9199C265.223 93.0485 264.912 93.1128 264.523 93.1128ZM264.649 92.2779C265.022 92.2779 265.337 92.1807 265.594 91.9864C265.852 91.7895 266.047 91.5177 266.181 91.1712C266.315 90.8219 266.382 90.4189 266.382 89.962C266.382 89.5104 266.317 89.1153 266.185 88.7765C266.054 88.4352 265.86 88.17 265.602 87.981C265.345 87.7893 265.027 87.6934 264.649 87.6934C264.255 87.6934 263.927 87.7945 263.665 87.9967C263.405 88.1963 263.209 88.468 263.078 88.812C262.949 89.1533 262.885 89.5367 262.885 89.962C262.885 90.3926 262.95 90.7839 263.082 91.1357C263.216 91.4849 263.413 91.7632 263.672 91.9707C263.935 92.1755 264.261 92.2779 264.649 92.2779ZM274.878 86.9373V87.725H271.743V86.9373H274.878ZM272.656 85.4879H273.586V91.2539C273.586 91.5164 273.624 91.7134 273.7 91.8446C273.779 91.9733 273.879 92.06 273.999 92.1046C274.123 92.1466 274.253 92.1676 274.389 92.1676C274.492 92.1676 274.576 92.1624 274.641 92.1519C274.707 92.1387 274.759 92.1282 274.799 92.1203L274.988 92.9553C274.925 92.9789 274.837 93.0026 274.724 93.0262C274.611 93.0525 274.468 93.0656 274.295 93.0656C274.032 93.0656 273.775 93.0091 273.523 92.8962C273.273 92.7833 273.066 92.6113 272.9 92.3803C272.738 92.1492 272.656 91.8578 272.656 91.5059V85.4879ZM278.668 93.1128C278.122 93.1128 277.643 92.9829 277.231 92.7229C276.821 92.463 276.501 92.0993 276.27 91.632C276.041 91.1646 275.927 90.6185 275.927 89.9935C275.927 89.3634 276.041 88.8133 276.27 88.3433C276.501 87.8733 276.821 87.5083 277.231 87.2484C277.643 86.9885 278.122 86.8585 278.668 86.8585C279.215 86.8585 279.692 86.9885 280.102 87.2484C280.514 87.5083 280.835 87.8733 281.063 88.3433C281.294 88.8133 281.41 89.3634 281.41 89.9935C281.41 90.6185 281.294 91.1646 281.063 91.632C280.835 92.0993 280.514 92.463 280.102 92.7229C279.692 92.9829 279.215 93.1128 278.668 93.1128ZM278.668 92.2779C279.083 92.2779 279.425 92.1715 279.692 91.9589C279.96 91.7462 280.158 91.4665 280.287 91.12C280.416 90.7734 280.48 90.3979 280.48 89.9935C280.48 89.5892 280.416 89.2124 280.287 88.8632C280.158 88.514 279.96 88.2317 279.692 88.0164C279.425 87.8011 279.083 87.6934 278.668 87.6934C278.254 87.6934 277.912 87.8011 277.644 88.0164C277.377 88.2317 277.178 88.514 277.05 88.8632C276.921 89.2124 276.857 89.5892 276.857 89.9935C276.857 90.3979 276.921 90.7734 277.05 91.12C277.178 91.4665 277.377 91.7462 277.644 91.9589C277.912 92.1715 278.254 92.2779 278.668 92.2779ZM286.546 95.2554C286.389 95.2554 286.248 95.2423 286.125 95.216C286.002 95.1924 285.916 95.1688 285.869 95.1451L286.105 94.3259C286.331 94.3837 286.531 94.4047 286.704 94.3889C286.877 94.3732 287.031 94.2957 287.165 94.1566C287.301 94.02 287.426 93.7982 287.539 93.4909L287.712 93.0183L285.475 86.9373H286.483L288.153 91.758H288.216L289.886 86.9373H290.895L288.327 93.869C288.211 94.1815 288.068 94.4401 287.897 94.6449C287.727 94.8524 287.528 95.006 287.303 95.1057C287.079 95.2055 286.827 95.2554 286.546 95.2554ZM294.362 93.1128C293.816 93.1128 293.337 92.9829 292.925 92.7229C292.515 92.463 292.195 92.0993 291.964 91.632C291.735 91.1646 291.621 90.6185 291.621 89.9935C291.621 89.3634 291.735 88.8133 291.964 88.3433C292.195 87.8733 292.515 87.5083 292.925 87.2484C293.337 86.9885 293.816 86.8585 294.362 86.8585C294.909 86.8585 295.386 86.9885 295.796 87.2484C296.208 87.5083 296.529 87.8733 296.757 88.3433C296.988 88.8133 297.104 89.3634 297.104 89.9935C297.104 90.6185 296.988 91.1646 296.757 91.632C296.529 92.0993 296.208 92.463 295.796 92.7229C295.386 92.9829 294.909 93.1128 294.362 93.1128ZM294.362 92.2779C294.777 92.2779 295.119 92.1715 295.386 91.9589C295.654 91.7462 295.852 91.4665 295.981 91.12C296.11 90.7734 296.174 90.3979 296.174 89.9935C296.174 89.5892 296.11 89.2124 295.981 88.8632C295.852 88.514 295.654 88.2317 295.386 88.0164C295.119 87.8011 294.777 87.6934 294.362 87.6934C293.948 87.6934 293.606 87.8011 293.338 88.0164C293.071 88.2317 292.872 88.514 292.744 88.8632C292.615 89.2124 292.551 89.5892 292.551 89.9935C292.551 90.3979 292.615 90.7734 292.744 91.12C292.872 91.4665 293.071 91.7462 293.338 91.9589C293.606 92.1715 293.948 92.2779 294.362 92.2779ZM302.335 90.5134V86.9373H303.264V92.9868H302.335V91.9628H302.272C302.13 92.27 301.91 92.5313 301.61 92.7466C301.311 92.9592 300.933 93.0656 300.476 93.0656C300.098 93.0656 299.762 92.9829 299.468 92.8175C299.174 92.6494 298.943 92.3974 298.775 92.0613C298.606 91.7226 298.522 91.2959 298.522 90.7812V86.9373H299.452V90.7182C299.452 91.1593 299.575 91.5112 299.822 91.7738C300.072 92.0363 300.389 92.1676 300.775 92.1676C301.006 92.1676 301.241 92.1085 301.48 91.9904C301.722 91.8722 301.924 91.691 302.087 91.4469C302.252 91.2027 302.335 90.8915 302.335 90.5134ZM304.967 92.9868V86.9373H305.865V87.851H305.928C306.038 87.5517 306.238 87.3088 306.527 87.1224C306.815 86.9359 307.141 86.8427 307.503 86.8427C307.572 86.8427 307.657 86.844 307.759 86.8467C307.862 86.8493 307.939 86.8532 307.992 86.8585V87.8037C307.96 87.7958 307.888 87.784 307.775 87.7683C307.665 87.7499 307.548 87.7407 307.425 87.7407C307.13 87.7407 306.868 87.8024 306.637 87.9258C306.408 88.0466 306.227 88.2146 306.093 88.4299C305.962 88.6426 305.896 88.8855 305.896 89.1586V92.9868H304.967ZM314.67 93.1128C314.103 93.1128 313.615 92.9789 313.205 92.7111C312.796 92.4433 312.481 92.0744 312.26 91.6044C312.039 91.1344 311.929 90.5974 311.929 89.9935C311.929 89.3791 312.042 88.8369 312.268 88.3669C312.496 87.8943 312.814 87.5254 313.221 87.2602C313.631 86.9924 314.109 86.8585 314.655 86.8585C315.08 86.8585 315.463 86.9373 315.805 87.0948C316.146 87.2523 316.426 87.4729 316.644 87.7565C316.862 88.04 316.997 88.3709 317.049 88.749H316.12C316.049 88.4733 315.891 88.2291 315.647 88.0164C315.406 87.8011 315.08 87.6934 314.67 87.6934C314.308 87.6934 313.99 87.788 313.717 87.977C313.447 88.1634 313.235 88.4273 313.083 88.7687C312.934 89.1074 312.859 89.5052 312.859 89.962C312.859 90.4294 312.932 90.8364 313.079 91.183C313.229 91.5296 313.439 91.7987 313.709 91.9904C313.982 92.182 314.303 92.2779 314.67 92.2779C314.912 92.2779 315.131 92.2359 315.328 92.1519C315.525 92.0678 315.692 91.947 315.828 91.7895C315.965 91.632 316.062 91.4429 316.12 91.2224H317.049C316.997 91.5795 316.867 91.9011 316.659 92.1873C316.455 92.4709 316.183 92.6967 315.844 92.8647C315.508 93.0301 315.117 93.1128 314.67 93.1128ZM320.188 93.1286C319.805 93.1286 319.457 93.0564 319.145 92.912C318.832 92.7649 318.584 92.5536 318.4 92.2779C318.216 91.9996 318.124 91.6635 318.124 91.2696C318.124 90.923 318.193 90.6421 318.329 90.4268C318.466 90.2088 318.648 90.0382 318.877 89.9148C319.105 89.7914 319.357 89.6995 319.633 89.6391C319.911 89.5761 320.191 89.5262 320.472 89.4894C320.839 89.4421 321.137 89.4067 321.366 89.3831C321.597 89.3568 321.765 89.3135 321.87 89.2531C321.978 89.1927 322.032 89.0877 322.032 88.938V88.9065C322.032 88.5179 321.925 88.216 321.712 88.0007C321.502 87.7853 321.183 87.6777 320.755 87.6777C320.312 87.6777 319.964 87.7748 319.712 87.9691C319.46 88.1634 319.282 88.3709 319.18 88.5914L318.298 88.2763C318.455 87.9088 318.665 87.6226 318.928 87.4178C319.193 87.2103 319.482 87.0659 319.794 86.9845C320.11 86.9005 320.419 86.8585 320.724 86.8585C320.918 86.8585 321.141 86.8821 321.393 86.9294C321.648 86.974 321.894 87.0672 322.13 87.209C322.369 87.3508 322.567 87.5648 322.725 87.851C322.882 88.1372 322.961 88.5205 322.961 89.001V92.9868H322.032V92.1676H321.984C321.921 92.2989 321.816 92.4394 321.669 92.589C321.522 92.7387 321.327 92.866 321.082 92.9711C320.838 93.0761 320.54 93.1286 320.188 93.1286ZM320.33 92.2936C320.698 92.2936 321.007 92.2214 321.26 92.077C321.514 91.9326 321.706 91.7462 321.835 91.5177C321.966 91.2893 322.032 91.0491 322.032 90.797V89.9463C321.992 89.9935 321.905 90.0369 321.772 90.0763C321.64 90.113 321.488 90.1458 321.315 90.1747C321.144 90.201 320.977 90.2246 320.814 90.2456C320.654 90.264 320.524 90.2797 320.425 90.2929C320.183 90.3244 319.957 90.3756 319.747 90.4465C319.54 90.5147 319.372 90.6185 319.243 90.7576C319.117 90.8941 319.054 91.0806 319.054 91.3169C319.054 91.6398 319.173 91.884 319.412 92.0494C319.654 92.2122 319.96 92.2936 320.33 92.2936ZM324.658 92.9868V86.9373H325.555V87.851H325.619C325.729 87.5517 325.928 87.3088 326.217 87.1224C326.506 86.9359 326.832 86.8427 327.194 86.8427C327.262 86.8427 327.348 86.844 327.45 86.8467C327.552 86.8493 327.63 86.8532 327.682 86.8585V87.8037C327.651 87.7958 327.579 87.784 327.466 87.7683C327.355 87.7499 327.239 87.7407 327.115 87.7407C326.821 87.7407 326.559 87.8024 326.327 87.9258C326.099 88.0466 325.918 88.2146 325.784 88.4299C325.653 88.6426 325.587 88.8855 325.587 89.1586V92.9868H324.658ZM330.884 93.1128C330.38 93.1128 329.935 92.9855 329.549 92.7308C329.163 92.4735 328.861 92.1112 328.643 91.6438C328.425 91.1738 328.316 90.6185 328.316 89.9778C328.316 89.3424 328.425 88.791 328.643 88.3236C328.861 87.8562 329.164 87.4952 329.553 87.2405C329.942 86.9858 330.391 86.8585 330.9 86.8585C331.294 86.8585 331.605 86.9241 331.833 87.0554C332.065 87.1841 332.24 87.3311 332.361 87.4965C332.485 87.6593 332.58 87.7932 332.649 87.8982H332.728V84.9207H333.657V92.9868H332.759V92.0573H332.649C332.58 92.1676 332.483 92.3068 332.357 92.4748C332.231 92.6402 332.051 92.7886 331.818 92.9199C331.584 93.0485 331.273 93.1128 330.884 93.1128ZM331.01 92.2779C331.383 92.2779 331.698 92.1807 331.956 91.9864C332.213 91.7895 332.409 91.5177 332.542 91.1712C332.676 90.8219 332.743 90.4189 332.743 89.962C332.743 89.5104 332.678 89.1153 332.546 88.7765C332.415 88.4352 332.221 88.17 331.963 87.981C331.706 87.7893 331.388 87.6934 331.01 87.6934C330.616 87.6934 330.288 87.7945 330.026 87.9967C329.766 88.1963 329.57 88.468 329.439 88.812C329.31 89.1533 329.246 89.5367 329.246 89.962C329.246 90.3926 329.312 90.7839 329.443 91.1357C329.577 91.4849 329.774 91.7632 330.034 91.9707C330.296 92.1755 330.622 92.2779 331.01 92.2779ZM336.166 93.0498C335.972 93.0498 335.805 92.9803 335.666 92.8411C335.527 92.7019 335.457 92.5352 335.457 92.3409C335.457 92.1466 335.527 91.9799 335.666 91.8407C335.805 91.7015 335.972 91.632 336.166 91.632C336.36 91.632 336.527 91.7015 336.666 91.8407C336.805 91.9799 336.875 92.1466 336.875 92.3409C336.875 92.4696 336.842 92.5877 336.776 92.6954C336.713 92.803 336.628 92.8897 336.52 92.9553C336.415 93.0183 336.297 93.0498 336.166 93.0498Z" fill="#6B7280"/>
<g filter="url(#filter0_d_4952_11527)">
<rect x="332.355" y="116" width="54.935" height="30.2597" rx="3.96102" fill="white"/>
<rect x="332.752" y="116.396" width="54.1428" height="29.4675" rx="3.56492" stroke="#D1D5DB" stroke-width="0.792205"/>
<path d="M353.717 131.097C353.717 131.958 353.559 132.698 353.244 133.318C352.929 133.935 352.497 134.41 351.949 134.744C351.402 135.074 350.782 135.24 350.086 135.24C349.387 135.24 348.764 135.074 348.215 134.744C347.669 134.41 347.238 133.934 346.923 133.314C346.608 132.694 346.45 131.955 346.45 131.097C346.45 130.235 346.608 129.496 346.923 128.879C347.238 128.26 347.669 127.784 348.215 127.453C348.764 127.12 349.387 126.953 350.086 126.953C350.782 126.953 351.402 127.12 351.949 127.453C352.497 127.784 352.929 128.26 353.244 128.879C353.559 129.496 353.717 130.235 353.717 131.097ZM352.512 131.097C352.512 130.44 352.405 129.887 352.193 129.438C351.983 128.987 351.694 128.646 351.326 128.414C350.961 128.181 350.548 128.064 350.086 128.064C349.621 128.064 349.206 128.181 348.841 128.414C348.476 128.646 348.187 128.987 347.975 129.438C347.765 129.887 347.66 130.44 347.66 131.097C347.66 131.753 347.765 132.307 347.975 132.759C348.187 133.208 348.476 133.549 348.841 133.783C349.206 134.014 349.621 134.129 350.086 134.129C350.548 134.129 350.961 134.014 351.326 133.783C351.694 133.549 351.983 133.208 352.193 132.759C352.405 132.307 352.512 131.753 352.512 131.097ZM356.223 133.078L356.215 131.64H356.42L358.83 129.08H360.24L357.491 131.995H357.306L356.223 133.078ZM355.14 135.13V127.064H356.317V135.13H355.14ZM358.96 135.13L356.794 132.255L357.605 131.431L360.406 135.13H358.96ZM363.074 135.264C362.691 135.264 362.344 135.193 362.034 135.051C361.724 134.906 361.479 134.698 361.298 134.425C361.119 134.152 361.03 133.817 361.03 133.42C361.03 133.079 361.095 132.798 361.227 132.577C361.358 132.357 361.535 132.182 361.758 132.054C361.982 131.925 362.231 131.828 362.507 131.762C362.782 131.697 363.063 131.647 363.35 131.613C363.712 131.571 364.006 131.536 364.232 131.51C364.458 131.481 364.622 131.435 364.724 131.372C364.827 131.309 364.878 131.207 364.878 131.065V131.038C364.878 130.694 364.781 130.427 364.586 130.238C364.395 130.049 364.108 129.954 363.728 129.954C363.331 129.954 363.019 130.042 362.79 130.218C362.565 130.392 362.408 130.585 362.322 130.797L361.215 130.545C361.346 130.178 361.538 129.881 361.79 129.655C362.045 129.427 362.337 129.261 362.668 129.159C362.999 129.054 363.347 129.001 363.712 129.001C363.954 129.001 364.21 129.03 364.48 129.088C364.753 129.143 365.008 129.245 365.244 129.395C365.483 129.545 365.679 129.759 365.831 130.037C365.983 130.313 366.059 130.671 366.059 131.112V135.13H364.909V134.303H364.862C364.786 134.455 364.672 134.605 364.519 134.752C364.367 134.899 364.171 135.021 363.933 135.118C363.694 135.215 363.407 135.264 363.074 135.264ZM363.33 134.318C363.656 134.318 363.934 134.254 364.165 134.125C364.399 133.997 364.576 133.829 364.697 133.621C364.82 133.411 364.882 133.187 364.882 132.948V132.168C364.84 132.21 364.758 132.249 364.638 132.286C364.519 132.32 364.384 132.35 364.232 132.377C364.08 132.4 363.931 132.423 363.787 132.444C363.642 132.462 363.522 132.478 363.424 132.491C363.196 132.52 362.987 132.568 362.798 132.637C362.612 132.705 362.462 132.803 362.349 132.932C362.239 133.058 362.184 133.226 362.184 133.436C362.184 133.728 362.291 133.948 362.507 134.098C362.722 134.245 362.996 134.318 363.33 134.318ZM368.156 137.398C367.98 137.398 367.82 137.384 367.675 137.355C367.531 137.329 367.423 137.3 367.352 137.268L367.636 136.303C367.851 136.361 368.043 136.386 368.211 136.378C368.379 136.37 368.527 136.307 368.656 136.189C368.787 136.071 368.903 135.878 369.002 135.61L369.148 135.208L366.935 129.08H368.195L369.727 133.775H369.79L371.322 129.08H372.586L370.093 135.937C369.978 136.252 369.831 136.519 369.652 136.737C369.474 136.957 369.261 137.123 369.014 137.233C368.767 137.343 368.481 137.398 368.156 137.398Z" fill="#374151"/>
</g>
<circle cx="26.0486" cy="20.5845" r="6.33764" fill="#FB645C"/>
<circle cx="45.7673" cy="20.5845" r="6.33764" fill="#FCBA46"/>
<circle cx="65.4822" cy="20.5845" r="6.33764" fill="#40C44E"/>
</g>
<defs>
<filter id="filter0_d_4952_11527" x="330.355" y="115" width="58.9336" height="34.2598" filterUnits="userSpaceOnUse" color-interpolation-filters="sRGB">
<feFlood flood-opacity="0" result="BackgroundImageFix"/>
<feColorMatrix in="SourceAlpha" type="matrix" values="0 0 0 0 0 0 0 0 0 0 0 0 0 0 0 0 0 0 127 0" result="hardAlpha"/>
<feOffset dy="1"/>
<feGaussianBlur stdDeviation="1"/>
<feColorMatrix type="matrix" values="0 0 0 0 0 0 0 0 0 0 0 0 0 0 0 0 0 0 0.05 0"/>
<feBlend mode="normal" in2="BackgroundImageFix" result="effect1_dropShadow_4952_11527"/>
<feBlend mode="normal" in="SourceGraphic" in2="effect1_dropShadow_4952_11527" result="shape"/>
</filter>
<clipPath id="clip0_4952_11527">
<rect x="0.695312" y="0.779297" width="405.609" height="169.532" rx="6.33764" fill="white"/>
</clipPath>
</defs>
</svg>
