<svg width="495" height="62" viewBox="0 0 495 62" fill="none" xmlns="http://www.w3.org/2000/svg">
<path d="M449.155 13.7282C448.472 12.5445 448.878 11.031 450.061 10.3476L462.445 3.19802C463.628 2.51463 465.142 2.92018 465.825 4.10387L473.293 17.0382L456.623 26.6626L449.155 13.7282Z" fill="#FFF9D9" stroke="#F5ECBC" stroke-width="1.72948"/>
<path d="M455.76 32.868C454.393 30.5007 455.204 27.4735 457.572 26.1067L472.336 17.5827C474.703 16.2159 477.73 17.0271 479.097 19.3944L492.347 42.3436C493.713 44.711 492.902 47.7381 490.535 49.1049L475.771 57.6289C473.404 58.9957 470.376 58.1846 469.01 55.8173L455.76 32.868Z" fill="#FFF9D9" stroke="#F5ECBC" stroke-width="1.72948"/>
<rect x="454.465" y="16.1016" width="3.83641" height="2.67166" transform="rotate(-30 454.465 16.1016)" fill="#F5ECBC"/>
<rect x="461.902" y="11.8081" width="3.83641" height="2.67166" transform="rotate(-30 461.902 11.8081)" fill="#F5ECBC"/>
<path fill-rule="evenodd" clip-rule="evenodd" d="M345.767 21.3287C345.767 21.3288 345.767 21.3286 345.767 21.3283C346.448 18.7962 346.36 16.1184 345.513 13.6334C345.231 12.804 344.868 12.0085 344.433 11.2571C344.431 11.2548 344.432 11.2519 344.435 11.2505C344.437 11.2492 344.438 11.2462 344.436 11.2439C343.116 8.97419 341.151 7.14387 338.79 5.98418C338.23 5.70898 337.653 5.47448 337.064 5.28141C336.006 4.93315 334.904 4.71662 333.781 4.64118C331.156 4.46485 328.54 5.06741 326.262 6.3727C326.259 6.3742 326.258 6.37752 326.26 6.38012C326.261 6.38271 326.26 6.38603 326.258 6.38753C325.505 6.82052 324.793 7.32821 324.133 7.90539C322.158 9.63423 320.742 11.9089 320.066 14.4418C320.066 14.4425 320.066 14.4431 320.067 14.4432C320.067 14.4434 320.068 14.444 320.067 14.4446L316.18 28.9539C315.798 30.377 316.643 31.8399 318.066 32.2212C319.489 32.6025 320.952 31.758 321.333 30.3348L325.221 15.8254C325.222 15.8224 325.225 15.8207 325.228 15.8215C325.231 15.8223 325.234 15.8205 325.235 15.8175C325.64 14.3043 326.486 12.9454 327.666 11.9124C328.848 10.8781 330.312 10.2169 331.872 10.0123C333.063 9.8563 334.268 9.97123 335.4 10.3424C336.246 10.6214 337.044 11.0412 337.757 11.5883C339.007 12.5457 339.944 13.8502 340.45 15.3368C340.956 16.8215 341.009 18.4212 340.603 19.9341C340.603 19.9374 340.604 19.9407 340.608 19.9416C340.611 19.9425 340.613 19.9458 340.612 19.9491L336.724 34.4578C336.343 35.8809 337.188 37.3437 338.611 37.7251C340.034 38.1064 341.497 37.2618 341.878 35.8387L345.766 21.3292C345.766 21.3288 345.766 21.3286 345.767 21.3287Z" fill="#FFF9D9"/>
<path d="M345.513 13.6334L346.332 13.3546L346.332 13.3546L345.513 13.6334ZM338.79 5.98418L338.409 6.76037L338.409 6.76037L338.79 5.98418ZM337.064 5.28141L336.794 6.10278L336.795 6.10307L337.064 5.28141ZM333.781 4.64118L333.723 5.50398L333.781 4.64118ZM324.133 7.90539L323.564 7.25467L324.133 7.90539ZM331.872 10.0123L331.76 9.15489L331.872 10.0123ZM335.4 10.3424L335.671 9.52123L335.67 9.52074L335.4 10.3424ZM337.757 11.5883L338.283 10.902L338.283 10.902L337.757 11.5883ZM340.45 15.3368L341.269 15.058L340.45 15.3368ZM336.724 34.4578L337.56 34.6816L336.724 34.4578ZM340.612 19.9491L341.447 20.1729L340.612 19.9491ZM340.603 19.9341L341.439 20.158L340.603 19.9341ZM325.235 15.8175L326.07 16.0412L325.235 15.8175ZM320.066 14.4418L320.901 14.665L320.066 14.4418ZM320.067 14.4432L319.843 15.2787L320.067 14.4432ZM326.258 6.38753L325.827 5.63789L326.258 6.38753ZM325.221 15.8254L324.386 15.6016L325.221 15.8254ZM325.228 15.8215L325.005 16.6569L325.228 15.8215ZM344.436 11.2439L343.689 11.6787L344.436 11.2439ZM326.262 6.3727L326.691 7.12301L326.262 6.3727ZM344.433 11.2571L343.685 11.6908L344.433 11.2571ZM344.435 11.2505L344.003 10.5012L344.435 11.2505ZM318.066 32.2212L318.29 31.3859L318.066 32.2212ZM345.767 21.3283L344.932 21.1038L345.767 21.3283ZM344.695 13.9122C345.486 16.235 345.568 18.7377 344.932 21.1038L346.603 21.5528C347.328 18.8548 347.234 16.0018 346.332 13.3546L344.695 13.9122ZM343.685 11.6908C344.092 12.3932 344.431 13.1369 344.695 13.9122L346.332 13.3546C346.031 12.4711 345.645 11.6238 345.181 10.8235L343.685 11.6908ZM345.184 10.8091C343.778 8.39167 341.685 6.44272 339.171 5.208L338.409 6.76037C340.617 7.84502 342.455 9.55671 343.689 11.6787L345.184 10.8091ZM339.171 5.208C338.574 4.91499 337.96 4.66531 337.334 4.45974L336.795 6.10307C337.345 6.28365 337.885 6.50298 338.409 6.76037L339.171 5.208ZM333.723 5.50398C334.773 5.57453 335.804 5.77705 336.794 6.10278L337.335 4.46004C336.208 4.08925 335.034 3.8587 333.839 3.77839L333.723 5.50398ZM326.691 7.12301C328.821 5.90267 331.268 5.33906 333.723 5.50398L333.839 3.77839C331.044 3.59065 328.258 4.23215 325.832 5.6224L326.691 7.12301ZM325.827 5.63789C325.024 6.09907 324.266 6.63984 323.564 7.25467L324.703 8.55611C325.319 8.01658 325.985 7.54198 326.689 7.13717L325.827 5.63789ZM323.564 7.25467C321.459 9.09634 319.951 11.5198 319.23 14.2187L320.901 14.665C321.533 12.298 322.856 10.1721 324.703 8.55611L323.564 7.25467ZM319.232 14.2208L315.344 28.7301L317.015 29.1777L320.903 14.6685L319.232 14.2208ZM322.169 30.5586L326.056 16.0493L324.386 15.6016L320.498 30.111L322.169 30.5586ZM326.07 16.0412C326.431 14.6937 327.184 13.4834 328.236 12.5631L327.097 11.2616C325.788 12.4074 324.849 13.9148 324.399 15.5938L326.07 16.0412ZM328.236 12.5631C329.289 11.6416 330.593 11.0521 331.985 10.8697L331.76 9.15489C330.03 9.3816 328.408 10.1145 327.097 11.2616L328.236 12.5631ZM331.985 10.8697C333.046 10.7306 334.121 10.8331 335.131 11.1641L335.67 9.52074C334.415 9.10939 333.079 8.98199 331.76 9.15489L331.985 10.8697ZM338.283 10.902C337.492 10.2956 336.608 9.83038 335.671 9.52123L335.129 11.1636C335.884 11.4125 336.595 11.7868 337.231 12.2747L338.283 10.902ZM341.269 15.058C340.707 13.4093 339.668 11.9631 338.283 10.902L337.231 12.2747C338.345 13.1284 339.18 14.2912 339.631 15.6156L341.269 15.058ZM341.439 20.158C341.889 18.4793 341.829 16.7047 341.269 15.058L339.631 15.6156C340.082 16.9383 340.129 18.363 339.768 19.7102L341.439 20.158ZM337.56 34.6816L341.447 20.1729L339.777 19.7253L335.889 34.234L337.56 34.6816ZM344.931 21.1054L341.043 35.6149L342.713 36.0625L346.601 21.553L344.931 21.1054ZM335.889 34.234C335.384 36.1184 336.503 38.0554 338.387 38.5603L338.835 36.8898C337.873 36.6321 337.302 35.6434 337.56 34.6816L335.889 34.234ZM340.383 20.7767C339.925 20.6536 339.654 20.183 339.777 19.7253L341.447 20.1729C341.572 19.7087 341.297 19.2314 340.832 19.1065L340.383 20.7767ZM339.768 19.7102C339.644 20.1734 339.918 20.6516 340.383 20.7767L340.832 19.1065C341.291 19.2299 341.561 19.7014 341.439 20.158L339.768 19.7102ZM325.005 16.6569C325.47 16.7812 325.946 16.5041 326.07 16.0412L324.399 15.5938C324.522 15.1368 324.992 14.8633 325.451 14.986L325.005 16.6569ZM319.843 15.2787C319.382 15.1556 319.109 14.6818 319.232 14.2208L320.903 14.6685C321.026 14.2063 320.752 13.7312 320.29 13.6078L319.843 15.2787ZM319.23 14.2187C319.107 14.6802 319.381 15.1552 319.843 15.2787L320.29 13.6078C320.751 13.731 321.024 14.2048 320.901 14.665L319.23 14.2187ZM325.511 6.81336C325.273 6.40164 325.414 5.87487 325.827 5.63789L326.689 7.13717C327.106 6.8972 327.249 6.36379 327.008 5.94688L325.511 6.81336ZM326.056 16.0493C325.934 16.5073 325.463 16.7793 325.005 16.6569L325.451 14.986C324.987 14.8621 324.51 15.1376 324.386 15.6016L326.056 16.0493ZM344.866 11.9999C345.284 11.7592 345.426 11.2251 345.184 10.8091L343.689 11.6787C343.45 11.2674 343.59 10.7392 344.003 10.5012L344.866 11.9999ZM325.832 5.6224C325.414 5.86181 325.269 6.3957 325.511 6.81336L327.008 5.94688C327.247 6.35934 327.104 6.88658 326.691 7.12301L325.832 5.6224ZM317.842 33.0565C319.727 33.5614 321.664 32.4431 322.169 30.5586L320.498 30.111C320.24 31.0728 319.252 31.6436 318.29 31.3859L317.842 33.0565ZM346.601 21.553C346.478 22.0142 346.003 22.2878 345.542 22.1638L345.991 20.4936C345.529 20.3695 345.054 20.6435 344.931 21.1054L346.601 21.553ZM345.181 10.8235C345.42 11.2351 345.279 11.7624 344.866 11.9999L344.003 10.5012C343.586 10.7414 343.443 11.2746 343.685 11.6908L345.181 10.8235ZM315.344 28.7301C314.839 30.6145 315.958 32.5515 317.842 33.0565L318.29 31.3859C317.328 31.1282 316.757 30.1395 317.015 29.1777L315.344 28.7301ZM338.387 38.5603C340.271 39.0653 342.208 37.947 342.713 36.0625L341.043 35.6149C340.785 36.5767 339.796 37.1475 338.835 36.8898L338.387 38.5603ZM344.932 21.1038C345.056 20.6433 345.53 20.3697 345.991 20.4936L345.542 22.1638C346.004 22.288 346.479 22.014 346.603 21.5528L344.932 21.1038Z" fill="#F5ECBC"/>
<path d="M306.649 41.7674C305.13 47.3734 308.443 53.1492 314.049 54.668L330.771 59.1983C336.377 60.7171 342.153 57.4037 343.672 51.7977L346.238 42.3269C347.757 36.7209 344.444 30.9451 338.838 29.4263L322.116 24.896C316.51 23.3772 310.734 26.6905 309.215 32.2966L306.649 41.7674Z" fill="#FFF9D9" stroke="#F5ECBC" stroke-width="1.72948"/>
<mask id="path-8-inside-1_4952_15351" fill="white">
<path fill-rule="evenodd" clip-rule="evenodd" d="M322.845 44.6708C323.165 43.9823 322.994 43.1814 322.605 42.529C321.925 41.3856 321.689 39.9814 322.059 38.5974C322.79 35.8697 325.603 34.2533 328.342 34.9872C331.081 35.721 332.708 38.5272 331.977 41.2549C331.607 42.639 330.7 43.7369 329.539 44.3868C328.876 44.7577 328.327 45.3656 328.26 46.1218L328.106 47.8586C328.006 48.9805 326.918 49.741 325.83 49.4494L323.286 48.7676C322.198 48.4761 321.636 47.2737 322.11 46.2523L322.845 44.6708Z"/>
</mask>
<path fill-rule="evenodd" clip-rule="evenodd" d="M322.845 44.6708C323.165 43.9823 322.994 43.1814 322.605 42.529C321.925 41.3856 321.689 39.9814 322.059 38.5974C322.79 35.8697 325.603 34.2533 328.342 34.9872C331.081 35.721 332.708 38.5272 331.977 41.2549C331.607 42.639 330.7 43.7369 329.539 44.3868C328.876 44.7577 328.327 45.3656 328.26 46.1218L328.106 47.8586C328.006 48.9805 326.918 49.741 325.83 49.4494L323.286 48.7676C322.198 48.4761 321.636 47.2737 322.11 46.2523L322.845 44.6708Z" fill="#F5ECBC"/>
<path d="M325.83 49.4494L325.383 51.12L325.83 49.4494ZM329.539 44.3868L330.383 45.896L329.539 44.3868ZM323.286 48.7676L323.733 47.0971L323.286 48.7676ZM322.845 44.6708L324.414 45.3994L322.845 44.6708ZM323.73 39.045C323.485 39.959 323.639 40.8845 324.092 41.6445L321.119 43.4135C320.21 41.8866 319.892 40.0038 320.389 38.1498L323.73 39.045ZM327.894 36.6577C326.072 36.1694 324.212 37.2463 323.73 39.045L320.389 38.1498C321.369 34.4931 325.134 32.3372 328.789 33.3166L327.894 36.6577ZM330.307 40.8073C330.789 39.0085 329.717 37.1461 327.894 36.6577L328.789 33.3166C332.444 34.296 334.628 38.0458 333.648 41.7026L330.307 40.8073ZM328.694 42.8777C329.466 42.4457 330.062 41.7213 330.307 40.8073L333.648 41.7026C333.151 43.5566 331.934 45.028 330.383 45.896L328.694 42.8777ZM326.383 47.7054L326.537 45.9686L329.983 46.275L329.828 48.0118L326.383 47.7054ZM323.733 47.0971L326.278 47.7789L325.383 51.12L322.838 50.4382L323.733 47.0971ZM324.414 45.3994L323.679 46.9809L320.542 45.5236L321.277 43.9421L324.414 45.3994ZM329.828 48.0118C329.633 50.2038 327.508 51.6896 325.383 51.12L326.278 47.7789C326.296 47.7837 326.306 47.7828 326.314 47.7814C326.323 47.7797 326.335 47.7752 326.347 47.7666C326.36 47.7581 326.368 47.7484 326.373 47.74C326.377 47.7334 326.381 47.7237 326.383 47.7054L329.828 48.0118ZM330.383 45.896C330.218 45.9885 330.104 46.0913 330.04 46.1735C330.01 46.2123 329.995 46.2403 329.989 46.2554C329.983 46.2692 329.983 46.2746 329.983 46.275L326.537 45.9686C326.674 44.4341 327.749 43.4066 328.694 42.8777L330.383 45.896ZM322.838 50.4382C320.712 49.8686 319.615 47.5193 320.542 45.5236L323.679 46.9809C323.671 46.9976 323.67 47.0082 323.67 47.0158C323.67 47.0256 323.673 47.0382 323.679 47.0516C323.685 47.0651 323.693 47.075 323.701 47.0814C323.707 47.0863 323.715 47.0923 323.733 47.0971L322.838 50.4382ZM324.092 41.6445C324.645 42.5749 325.063 44.0024 324.414 45.3994L321.277 43.9421C321.277 43.9417 321.279 43.937 321.281 43.9221C321.283 43.9058 321.285 43.8744 321.278 43.8257C321.264 43.7224 321.216 43.5763 321.119 43.4135L324.092 41.6445Z" fill="#F5ECBC" mask="url(#path-8-inside-1_4952_15351)"/>
<rect x="53.7422" y="4.53516" width="39.4752" height="55.2709" rx="9.40839" transform="rotate(75 53.7422 4.53516)" fill="#FFF9D9" stroke="#F5ECBC" stroke-width="1.72948"/>
<path d="M2.49219 23.5503L25.6864 32.4835M54.2445 9.68331L38.6245 29.0168M38.6245 29.0168L33.4178 35.4612L25.6864 32.4835M38.6245 29.0168L61.8185 37.95M25.6864 32.4835L10.0663 51.8172" stroke="#F5ECBC" stroke-width="1.72948"/>
<rect x="53.7422" y="4.53516" width="39.4752" height="55.2709" rx="9.40839" transform="rotate(75 53.7422 4.53516)" stroke="#F5ECBC" stroke-width="1.72948"/>
<path d="M157.281 26.5662H158.894C164.339 26.5662 169.539 24.3041 173.25 20.3208V20.3208C179.101 14.0415 189.05 14.0415 194.901 20.3208V20.3208C198.613 24.3041 203.813 26.5662 209.258 26.5662H210.87" stroke="#F5ECBC" stroke-width="1.72948"/>
<path d="M157.281 35.4978H158.894C164.339 35.4978 169.539 33.2357 173.25 29.2524V29.2524C179.101 22.9731 189.05 22.9731 194.901 29.2524V29.2524C198.613 33.2357 203.813 35.4978 209.258 35.4978H210.87" stroke="#F5ECBC" stroke-width="1.72948"/>
<path d="M157.281 44.429H158.894C164.339 44.429 169.539 42.1669 173.25 38.1836V38.1836C179.101 31.9043 189.05 31.9043 194.901 38.1836V38.1836C198.613 42.1669 203.813 44.429 209.258 44.429H210.87" stroke="#F5ECBC" stroke-width="1.72948"/>
<path d="M157.281 53.3606H158.894C164.339 53.3606 169.539 51.0985 173.25 47.1152V47.1152C179.101 40.8359 189.05 40.8359 194.901 47.1152V47.1152C198.613 51.0985 203.813 53.3606 209.258 53.3606H210.87" stroke="#F5ECBC" stroke-width="1.72948"/>
</svg>
