<svg width="366" height="366" viewBox="0 0 366 366" fill="none" xmlns="http://www.w3.org/2000/svg">
<style xmlns="http://www.w3.org/2000/svg">
    path {
        fill: #1F78D1 !important;
    }
    @media (prefers-color-scheme: dark) {
        path {
            fill: #fff !important;
        }
    }
</style>
<path d="M105.017 310.848L153.427 175.062C112.692 180.376 75.4982 197.497 44.2085 223.473C51.8833 259.486 74.3174 290.185 105.017 310.848Z"/>
<path d="M260.285 310.848C291.575 291.366 314.009 260.076 322.274 223.473C290.984 196.316 253.791 179.195 213.055 175.062L260.285 310.848Z"/>
<path d="M326.997 195.726V189.231C326.997 108.351 262.647 44 183.537 44C104.427 44 38.8961 108.351 38.8961 189.231V195.726C80.8125 164.436 130.994 147.315 183.537 147.315C234.9 147.315 285.081 164.436 326.997 195.726Z"/>
</svg>
