<svg width="261" height="146" viewBox="0 0 261 146" fill="none" xmlns="http://www.w3.org/2000/svg">
<rect y="0.5" width="261" height="145.5" fill="#1F78D1"/>
<path d="M136.531 88.4407C140.788 88.4407 142.074 87.7981 144.403 84.9064C144.403 86.5922 145.77 87.9588 147.455 87.9588H150.508V62.3349H144.082V76.6329C144.082 80.8098 141.913 83.2196 138.539 83.2196C135.407 83.2196 134.202 81.4524 134.202 77.9984V62.3349H127.776V79.2836C127.856 85.4687 130.748 88.4407 136.531 88.4407Z" fill="white"/>
<path d="M176.656 61.8542L172.042 61.8541L169.94 67.0654C169.94 67.0654 181.879 66.1396 181.633 70.0171V70.5794C181.552 71.7842 180.749 72.4268 178.339 72.5875L173.921 73.0695C167.495 73.5514 165.085 76.6841 165.085 80.6201C165.085 85.3593 168.298 88.4116 174.323 88.4116C178.5 88.4116 180.267 87.9297 181.633 85.3593C181.713 85.279 181.793 85.1183 181.874 84.9577C181.874 86.5991 183.204 87.9297 184.846 87.9297H187.978V71.1416C188.059 65.9205 184.527 61.9345 176.656 61.8542ZM181.633 77.1661C181.633 80.861 179.383 83.9134 175.447 83.9134C172.154 83.9134 170.708 82.3872 170.708 80.0578C170.708 78.2103 171.993 76.8448 175.206 76.6038L178.259 76.3628C180.026 76.2021 181.151 75.8808 181.633 75.3989V77.1661Z" fill="white"/>
<path d="M168.982 61.8545H167.426C163.892 61.8545 161.285 63.6968 160.241 66.5885V62.3312H154.136V83.9551C154.136 86.1643 155.927 87.9551 158.136 87.9551H160.563V74.1391C160.563 68.7538 163.053 67.0704 166.888 67.0704L168.982 61.8545Z" fill="white"/>
<path d="M83.0283 93.4449L90.3557 72.8925C84.19 73.6967 78.5604 76.2881 73.8245 80.2199C74.9861 85.6707 78.3817 90.3173 83.0283 93.4449Z" fill="white"/>
<path d="M106.529 93.4449C111.265 90.496 114.661 85.7601 115.912 80.2199C111.176 76.1094 105.547 73.518 99.3809 72.8925L106.529 93.4449Z" fill="white"/>
<path d="M116.627 76.02V75.0371C116.627 62.795 106.887 53.055 94.913 53.055C82.939 53.055 73.0203 62.795 73.0203 75.0371V76.02C79.3647 71.284 86.9601 68.6926 94.913 68.6926C102.687 68.6926 110.283 71.284 116.627 76.02Z" fill="white"/>
</svg>
