<svg width="237" height="84" viewBox="0 0 237 84" fill="none" xmlns="http://www.w3.org/2000/svg">
<path d="M131.011 72.9796C139.791 72.9796 142.441 71.6543 147.246 65.6904C147.246 69.1671 150.064 71.9856 153.541 71.9856H159.836V19.1389H146.583V48.627C146.583 57.2416 142.11 62.2115 135.152 62.2115C128.691 62.2115 126.206 58.5669 126.206 51.4433V19.1389H112.953V54.0939C113.119 66.85 119.083 72.9796 131.011 72.9796Z" fill="#1F78D1"/>
<path d="M212.834 18.1476L204.287 18.1473L199.951 28.8951C199.951 28.8951 223.098 26.3682 223.098 34.9828V36.1424C222.932 38.6274 221.276 39.9527 216.306 40.284L207.194 41.278C193.941 42.272 188.971 48.7329 188.971 56.8504C188.971 66.6246 195.598 72.9198 208.023 72.9198C216.637 72.9198 220.282 71.9258 223.098 66.6246C223.264 66.4589 223.429 66.1276 223.595 65.7963C223.595 69.1815 226.339 71.9258 229.725 71.9258H236.186V37.3021C236.351 26.5339 229.069 18.3133 212.834 18.1476ZM223.098 49.7269C223.098 57.3474 218.46 63.6426 210.342 63.6426C203.55 63.6426 200.568 60.495 200.568 55.6908C200.568 51.8805 203.219 49.0642 209.845 48.5672L216.14 48.0702C219.785 47.7389 222.104 47.0763 223.098 46.0823V49.7269Z" fill="#1F78D1"/>
<path d="M197.937 18.1481H194.728C187.439 18.1481 182.064 21.9476 179.91 27.9115V19.1313H167.32V63.5972C167.32 68.2258 171.072 71.978 175.701 71.978H180.573V43.4839C180.573 32.3773 185.709 28.9054 193.618 28.9054L197.937 18.1481Z" fill="#1F78D1"/>
<path d="M20.6668 83.3001L35.7787 40.913C23.0626 42.5716 11.4522 47.9161 1.68469 56.0249C4.08049 67.2667 11.0836 76.8499 20.6668 83.3001Z" fill="#1F78D1"/>
<path d="M69.1357 83.3001C78.9032 77.2185 85.9063 67.451 88.4863 56.0249C78.7189 47.5475 67.1085 42.203 54.3923 40.913L69.1357 83.3001Z" fill="#1F78D1"/>
<path d="M89.9608 47.363V45.3358C89.9608 20.0878 69.873 0 45.1779 0C20.4828 0 0.0263672 20.0878 0.0263672 45.3358V47.363C13.1111 37.5956 28.7759 32.2511 45.1779 32.2511C61.2113 32.2511 76.8761 37.5956 89.9608 47.363Z" fill="#1F78D1"/>
</svg>
