<svg width="800" height="450" viewBox="0 0 800 450" fill="none" xmlns="http://www.w3.org/2000/svg">
<rect width="800" height="450" fill="#AC2D94"/>
<path d="M368.621 204.334C355.521 204.334 348.672 210.959 346.291 218.551L358.051 222.496C358.945 217.956 361.996 214.457 368.398 214.457C374.799 214.457 377.777 218.105 377.777 222.794V225.623H363.932C352.543 225.623 344.43 230.982 344.43 241.403C344.43 251.824 352.543 257.555 362.89 257.555C372.268 257.555 375.618 252.494 376.511 250.261H377.926V256.141H390.133V223.687C390.133 211.182 381.796 204.334 368.621 204.334ZM377.777 236.043C377.777 242.743 372.715 247.209 365.569 247.209C360.061 247.209 357.233 244.678 357.233 241.105C357.233 237.532 360.061 235.225 364.825 235.225H377.702L377.777 236.043Z" fill="#F1FC71"/>
<path d="M432.041 212.299H430.999C428.17 208.205 423.258 204.334 414.549 204.334C402.565 204.334 391.771 214.532 391.771 230.982C391.771 247.432 402.565 257.63 414.549 257.63C423.258 257.63 428.17 253.759 431.222 249.368H432.264V256.216H444.844V185.056H432.041V212.299ZM418.419 246.614C410.455 246.614 404.574 240.882 404.574 230.982C404.574 221.082 410.455 215.351 418.419 215.351C426.384 215.351 432.264 221.082 432.264 230.982C432.264 240.882 426.384 246.614 418.419 246.614Z" fill="#F1FC71"/>
<path d="M471.862 204.334C458.762 204.334 451.914 210.959 449.532 218.551L461.293 222.496C462.186 217.956 465.238 214.457 471.639 214.457C478.041 214.457 481.018 218.105 481.018 222.794V225.623H467.173C455.784 225.623 447.671 230.982 447.671 241.403C447.671 251.824 455.784 257.555 466.131 257.555C475.51 257.555 478.859 252.494 479.753 250.261H481.167V256.141H493.374V223.687C493.374 211.182 485.037 204.334 471.862 204.334ZM481.018 236.043C481.018 242.743 475.956 247.209 468.811 247.209C463.302 247.209 460.474 244.678 460.474 241.105C460.474 237.532 463.302 235.225 468.066 235.225H480.944V236.043H481.018Z" fill="#F1FC71"/>
<path d="M528.359 205.748C519.65 205.748 514.737 209.619 511.685 214.01H510.643V207.162H498.063V277.95H510.866V251.154H511.908C514.737 255.248 519.65 259.118 528.359 259.118C540.343 259.118 551.136 248.92 551.136 232.47C551.136 216.02 540.417 205.748 528.359 205.748ZM524.488 248.027C516.523 248.027 510.643 242.296 510.643 232.396C510.643 222.496 516.523 216.764 524.488 216.764C532.453 216.764 538.333 222.422 538.333 232.396C538.333 242.37 532.453 248.027 524.488 248.027Z" fill="#F1FC71"/>
<path d="M584.706 217.583V207.237H570.861V191.605H558.058V207.237H544.437C547.861 210.065 550.54 213.564 552.327 217.583H557.984V246.241C557.984 253.163 562.45 257.63 569.149 257.63H583.366V247.283H573.615C571.754 247.283 570.787 246.241 570.787 244.231V217.583H584.706Z" fill="#F1FC71"/>
<path d="M244.314 166V195.328H215.061V224.581H244.314H273.567V195.328H302.894V166H244.314Z" fill="#F1FC71"/>
<path d="M273.567 224.58V253.833H244.314H215.061V283.161H244.314H273.567H302.894V253.833V224.58H273.567Z" fill="#F1FC71"/>
</svg>
