<svg width="1017" height="374" viewBox="0 0 1017 374" fill="none" xmlns="http://www.w3.org/2000/svg">
<rect x="282.012" y="3.18018" width="45.9001" height="90.3315" fill="#7AD7EC"/>
<rect x="925.348" y="0.977051" width="91.6534" height="91.6534" fill="#7AD7EC"/>
<rect y="280.784" width="91.6534" height="91.6534" fill="#7AD7EC"/>
<path d="M311.824 72.8016L306.294 68.7697L300.775 72.7906L300.775 71.3254L305.27 68.0316L300.775 64.7489L300.775 63.2837L306.294 67.3046L311.824 63.2727L311.824 64.7378L307.297 68.0316L311.824 71.3364L311.824 72.8016ZM296.402 55.8546L313.058 60.3161L313.058 61.5058L296.402 57.0444L296.402 55.8546ZM311.824 52.5187L297.592 52.5187L297.592 54.0829L296.402 53.7304L296.402 51.3289L311.824 51.3289L311.824 52.5187ZM312.111 47.9665C312.111 48.1647 312.037 48.3337 311.89 48.4732C311.751 48.6127 311.578 48.6825 311.373 48.6825C311.182 48.6825 311.016 48.6127 310.877 48.4732C310.73 48.3337 310.657 48.1647 310.657 47.9665C310.657 47.7608 310.73 47.5882 310.877 47.4487C311.016 47.3018 311.182 47.2284 311.373 47.2284C311.578 47.2284 311.751 47.3018 311.89 47.4487C312.037 47.5882 312.111 47.7608 312.111 47.9665ZM311.824 45.0248L310.778 45.0248C310.161 44.3786 309.5 43.6882 308.795 42.9538C308.09 42.2121 307.37 41.485 306.636 40.7726C305.894 40.0529 305.167 39.403 304.454 38.8228C303.742 38.2353 303.066 37.7653 302.428 37.4128C301.789 37.0602 301.216 36.884 300.709 36.884C300.092 36.884 299.527 37.0345 299.013 37.3356C298.491 37.6367 298.076 38.0443 297.768 38.5584C297.459 39.0652 297.305 39.627 297.305 40.2439C297.305 40.8681 297.459 41.4373 297.768 41.9514C298.076 42.4654 298.491 42.8767 299.013 43.1852C299.527 43.4863 300.092 43.6368 300.709 43.6368L300.709 44.8265C299.857 44.8265 299.086 44.6209 298.396 44.2096C297.698 43.791 297.144 43.2366 296.732 42.5462C296.321 41.8485 296.115 41.0811 296.115 40.2439C296.115 39.4067 296.325 38.6465 296.743 37.9636C297.155 37.2732 297.709 36.7224 298.407 36.3111C299.097 35.8999 299.864 35.6943 300.709 35.6943C301.245 35.6943 301.84 35.8485 302.494 36.1569C303.147 36.458 303.83 36.8656 304.543 37.3797C305.255 37.8864 305.971 38.4556 306.691 39.0872C307.41 39.7188 308.108 40.3687 308.784 41.037C309.452 41.7053 310.069 42.3406 310.634 42.9428L310.634 35.4078L311.824 35.4078L311.824 45.0248Z" fill="black"/>
<path d="M282.012 0.977051L282.012 373.319" stroke="#55BCD4" stroke-width="1.1016" stroke-dasharray="4.41 4.41"/>
<path d="M92.5352 0.977051L92.5352 373.319" stroke="#55BCD4" stroke-width="1.1016" stroke-dasharray="4.41 4.41"/>
<path d="M328.277 0.977051L328.277 373.319" stroke="#55BCD4" stroke-width="1.1016" stroke-dasharray="4.41 4.41"/>
<path d="M586.922 0.977051L586.922 373.319" stroke="#55BCD4" stroke-width="1.1016" stroke-dasharray="4.41 4.41"/>
<path d="M642.004 0.977051L642.004 373.319" stroke="#55BCD4" stroke-width="1.1016" stroke-dasharray="4.41 4.41"/>
<path d="M925.348 0.977051L925.348 373.319" stroke="#55BCD4" stroke-width="1.1016" stroke-dasharray="4.41 4.41"/>
<path d="M0 93.5117H1004.66" stroke="#55BCD4" stroke-width="1.1016" stroke-dasharray="4.41 4.41"/>
<path d="M2.20312 126.56H1004.66" stroke="#55BCD4" stroke-width="1.1016" stroke-dasharray="4.41 4.41"/>
<path d="M0 280.784L1004.66 280.784" stroke="#55BCD4" stroke-width="1.1016" stroke-dasharray="4.41 4.41"/>
<path d="M2.20312 241.126H1004.66" stroke="#55BCD4" stroke-width="1.1016" stroke-dasharray="4.41 4.41"/>
<rect x="642.004" y="0.977051" width="35.2513" height="55.0802" transform="rotate(90 642.004 0.977051)" fill="#7AD7EC"/>
<path d="M608.03 28.1802L612.868 21.5441L608.043 14.9213L609.801 14.9213L613.754 20.3147L617.693 14.9213L619.452 14.9213L614.626 21.5441L619.465 28.1802L617.707 28.1802L613.754 22.7471L609.788 28.1802H608.03Z" fill="black"/>
<path d="M93.0859 200.788V127.402L135.193 200.788H93.0859Z" fill="#1F8197"/>
<path d="M93.0859 232.699V262.093C93.0859 272.149 101.237 280.3 111.293 280.3H180.815L153.503 232.699H93.0859Z" fill="#1F8197"/>
<path d="M190.294 232.699L215.114 275.956C237.873 268.761 256.877 253.114 268.443 232.699H190.294Z" fill="#1F8197"/>
<path d="M279.492 200.788C280.199 196.148 280.565 191.397 280.565 186.56C280.565 134.79 238.596 92.821 186.825 92.821H111.293C110.878 92.821 110.467 92.8349 110.059 92.8622L171.984 200.788H279.492Z" fill="#1F8197"/>
<path d="M328.277 240.09L373.46 127.852H391.182L436.204 240.09H413.054L378.249 147.969H386.232L350.948 240.09H328.277ZM352.226 219.175V200.974H412.575V219.175H352.226Z" fill="white"/>
<path d="M470.984 241.846C466.62 241.846 462.31 241.261 458.052 240.09C453.901 238.919 450.069 237.322 446.557 235.3C443.045 233.171 440.011 230.617 437.457 227.637L449.91 215.024C452.571 218.004 455.657 220.239 459.17 221.729C462.682 223.22 466.567 223.965 470.825 223.965C474.23 223.965 476.785 223.486 478.488 222.528C480.297 221.57 481.202 220.133 481.202 218.217C481.202 216.088 480.244 214.439 478.328 213.268C476.519 212.097 474.124 211.139 471.144 210.394C468.164 209.542 465.024 208.638 461.724 207.68C458.531 206.615 455.444 205.285 452.464 203.688C449.484 201.985 447.036 199.697 445.12 196.823C443.311 193.843 442.406 190.011 442.406 185.328C442.406 180.432 443.577 176.175 445.918 172.556C448.366 168.937 451.826 166.116 456.296 164.094C460.766 162.072 466.035 161.06 472.102 161.06C478.488 161.06 484.236 162.178 489.345 164.413C494.56 166.648 498.871 170.001 502.277 174.472L489.664 187.084C487.322 184.211 484.661 182.135 481.681 180.858C478.807 179.581 475.667 178.942 472.261 178.942C469.175 178.942 466.78 179.421 465.077 180.379C463.48 181.337 462.682 182.667 462.682 184.37C462.682 186.286 463.587 187.776 465.396 188.841C467.312 189.905 469.76 190.863 472.74 191.714C475.721 192.459 478.807 193.364 482 194.428C485.3 195.386 488.387 196.77 491.26 198.579C494.241 200.389 496.635 202.784 498.445 205.764C500.361 208.744 501.319 212.576 501.319 217.259C501.319 224.816 498.605 230.83 493.176 235.3C487.748 239.664 480.351 241.846 470.984 241.846Z" fill="white"/>
<path d="M547.832 241.686C539.956 241.686 532.878 239.93 526.598 236.418C520.318 232.905 515.369 228.116 511.75 222.049C508.131 215.982 506.322 209.17 506.322 201.613C506.322 193.949 508.131 187.084 511.75 181.017C515.369 174.95 520.318 170.161 526.598 166.648C532.984 163.03 540.062 161.22 547.832 161.22C553.899 161.22 559.487 162.338 564.596 164.573C569.705 166.808 574.122 170.001 577.847 174.152L564.436 187.723C562.414 185.488 559.966 183.785 557.092 182.614C554.325 181.443 551.238 180.858 547.832 180.858C544 180.858 540.541 181.762 537.454 183.572C534.474 185.275 532.079 187.67 530.27 190.756C528.567 193.737 527.715 197.302 527.715 201.453C527.715 205.498 528.567 209.117 530.27 212.31C532.079 215.397 534.474 217.845 537.454 219.654C540.541 221.357 544 222.208 547.832 222.208C551.344 222.208 554.484 221.623 557.252 220.452C560.125 219.175 562.573 217.366 564.596 215.024L578.166 228.595C574.228 232.852 569.705 236.098 564.596 238.334C559.487 240.569 553.899 241.686 547.832 241.686Z" fill="white"/>
<path d="M586.02 240.09V162.976H607.094V240.09H586.02ZM596.557 150.523C593.151 150.523 590.33 149.406 588.095 147.17C585.86 144.829 584.742 141.955 584.742 138.549C584.742 135.25 585.86 132.429 588.095 130.087C590.33 127.746 593.151 126.575 596.557 126.575C600.069 126.575 602.89 127.746 605.018 130.087C607.254 132.429 608.371 135.25 608.371 138.549C608.371 141.955 607.254 144.829 605.018 147.17C602.89 149.406 600.069 150.523 596.557 150.523Z" fill="white"/>
<path d="M621.63 240.09V162.976H642.705V240.09H621.63ZM632.167 150.523C628.761 150.523 625.941 149.406 623.706 147.17C621.47 144.829 620.353 141.955 620.353 138.549C620.353 135.25 621.47 132.429 623.706 130.087C625.941 127.746 628.761 126.575 632.167 126.575C635.68 126.575 638.5 127.746 640.629 130.087C642.864 132.429 643.982 135.25 643.982 138.549C643.982 141.955 642.864 144.829 640.629 147.17C638.5 149.406 635.68 150.523 632.167 150.523Z" fill="white"/>
<path d="M673.115 240.09V220.772H701.693C708.931 220.772 715.263 219.281 720.692 216.301C726.12 213.215 730.324 208.904 733.305 203.369C736.391 197.834 737.935 191.289 737.935 183.732C737.935 176.387 736.391 170.001 733.305 164.573C730.218 159.038 725.96 154.781 720.532 151.8C715.104 148.714 708.824 147.17 701.693 147.17H672.636V127.852H702.012C710.314 127.852 717.978 129.236 725.002 132.003C732.134 134.771 738.307 138.709 743.522 143.818C748.844 148.82 752.942 154.727 755.816 161.539C758.796 168.351 760.286 175.802 760.286 183.891C760.286 191.98 758.796 199.484 755.816 206.403C752.942 213.215 748.898 219.175 743.682 224.284C738.467 229.287 732.293 233.171 725.162 235.939C718.137 238.706 710.527 240.09 702.331 240.09H673.115ZM658.267 240.09V127.852H679.98V240.09H658.267Z" fill="white"/>
<path d="M806.346 241.686C798.576 241.686 791.551 239.93 785.272 236.418C779.098 232.799 774.149 227.956 770.424 221.889C766.805 215.716 764.995 208.851 764.995 201.294C764.995 193.737 766.805 186.978 770.424 181.017C774.043 174.95 778.992 170.161 785.272 166.648C791.551 163.03 798.523 161.22 806.186 161.22C814.063 161.22 821.088 163.03 827.261 166.648C833.541 170.161 838.49 174.95 842.109 181.017C845.728 186.978 847.537 193.737 847.537 201.294C847.537 208.851 845.728 215.716 842.109 221.889C838.49 227.956 833.541 232.799 827.261 236.418C821.088 239.93 814.116 241.686 806.346 241.686ZM806.186 222.208C810.125 222.208 813.584 221.357 816.564 219.654C819.651 217.845 821.992 215.397 823.589 212.31C825.292 209.117 826.143 205.498 826.143 201.453C826.143 197.409 825.292 193.843 823.589 190.756C821.886 187.67 819.544 185.275 816.564 183.572C813.584 181.762 810.125 180.858 806.186 180.858C802.355 180.858 798.949 181.762 795.969 183.572C792.988 185.275 790.647 187.67 788.944 190.756C787.241 193.843 786.389 197.409 786.389 201.453C786.389 205.498 787.241 209.117 788.944 212.31C790.647 215.397 792.988 217.845 795.969 219.654C798.949 221.357 802.355 222.208 806.186 222.208Z" fill="white"/>
<path d="M894.621 241.686C886.745 241.686 879.667 239.93 873.387 236.418C867.107 232.905 862.158 228.116 858.539 222.049C854.92 215.982 853.111 209.17 853.111 201.613C853.111 193.949 854.92 187.084 858.539 181.017C862.158 174.95 867.107 170.161 873.387 166.648C879.773 163.03 886.851 161.22 894.621 161.22C900.688 161.22 906.276 162.338 911.385 164.573C916.494 166.808 920.911 170.001 924.636 174.152L911.225 187.723C909.203 185.488 906.755 183.785 903.881 182.614C901.114 181.443 898.027 180.858 894.621 180.858C890.789 180.858 887.33 181.762 884.244 183.572C881.263 185.275 878.868 187.67 877.059 190.756C875.356 193.737 874.505 197.302 874.505 201.453C874.505 205.498 875.356 209.117 877.059 212.31C878.868 215.397 881.263 217.845 884.244 219.654C887.33 221.357 890.789 222.208 894.621 222.208C898.134 222.208 901.273 221.623 904.041 220.452C906.915 219.175 909.363 217.366 911.385 215.024L924.956 228.595C921.018 232.852 916.494 236.098 911.385 238.334C906.276 240.569 900.688 241.686 894.621 241.686Z" fill="white"/>
<path d="M944.189 34.5722L946.739 38.8108L949.32 34.5722H951.655L947.847 40.3169L951.773 46.2122H949.471L946.782 41.8445L944.092 46.2122L941.779 46.2122L945.695 40.3169L941.898 34.5722L944.189 34.5722ZM959.11 38.5956L961.272 35.6264L958.024 34.6582L958.529 33.0446L961.778 34.2387L961.681 30.538H963.316L963.209 34.3032L966.415 33.1091L966.91 34.7551L963.607 35.734L965.726 38.6494L964.392 39.6499L962.402 36.5516L960.455 39.5746L959.11 38.5956ZM980.518 30.4627V46.2122L978.528 46.2122V32.9477L974.515 34.4108V32.6142L980.206 30.4627H980.518ZM986.618 45.1579C986.618 44.8208 986.722 44.5375 986.93 44.308C987.145 44.0713 987.453 43.953 987.855 43.953C988.257 43.953 988.561 44.0713 988.769 44.308C988.985 44.5375 989.092 44.8208 989.092 45.1579C989.092 45.4878 988.985 45.7675 988.769 45.997C988.561 46.2265 988.257 46.3413 987.855 46.3413C987.453 46.3413 987.145 46.2265 986.93 45.997C986.722 45.7675 986.618 45.4878 986.618 45.1579ZM999.818 30.5272H999.99V32.2162H999.818C998.764 32.2162 997.881 32.3883 997.171 32.7326C996.461 33.0697 995.898 33.5251 995.482 34.0988C995.066 34.6654 994.765 35.3037 994.579 36.0137C994.399 36.7237 994.31 37.4445 994.31 38.1761V40.4782C994.31 41.1739 994.392 41.7907 994.557 42.3286C994.722 42.8593 994.948 43.3075 995.235 43.6733C995.522 44.0391 995.845 44.3152 996.203 44.5017C996.569 44.6881 996.949 44.7814 997.343 44.7814C997.802 44.7814 998.211 44.6953 998.57 44.5232C998.928 44.3439 999.23 44.0964 999.474 43.7809C999.725 43.4582 999.915 43.078 1000.04 42.6406C1000.17 42.2031 1000.24 41.7226 1000.24 41.199C1000.24 40.7328 1000.18 40.2846 1000.07 39.8543C999.95 39.4168 999.775 39.0295 999.538 38.6924C999.301 38.3482 999.004 38.0792 998.645 37.8856C998.294 37.6848 997.874 37.5844 997.387 37.5844C996.834 37.5844 996.318 37.7206 995.837 37.9932C995.364 38.2585 994.973 38.6099 994.665 39.0474C994.364 39.4777 994.191 39.9475 994.148 40.4567L993.094 40.446C993.195 39.6427 993.381 38.9578 993.654 38.3912C993.933 37.8175 994.277 37.3513 994.686 36.9927C995.102 36.6269 995.565 36.3616 996.074 36.1966C996.59 36.0245 997.135 35.9384 997.709 35.9384C998.491 35.9384 999.165 36.0854 999.732 36.3795C1000.3 36.6735 1000.76 37.068 1001.13 37.5629C1001.5 38.0505 1001.76 38.6028 1001.94 39.2196C1002.12 39.8292 1002.21 40.4567 1002.21 41.1022C1002.21 41.8409 1002.1 42.533 1001.89 43.1784C1001.69 43.8239 1001.37 44.3905 1000.96 44.8782C1000.55 45.3659 1000.04 45.746 999.441 46.0185C998.839 46.291 998.14 46.4273 997.343 46.4273C996.497 46.4273 995.758 46.2552 995.127 45.9109C994.496 45.5595 993.973 45.0933 993.557 44.5124C993.141 43.9315 992.829 43.286 992.621 42.576C992.413 41.866 992.309 41.1452 992.309 40.4137V39.4777C992.309 38.3733 992.42 37.2903 992.642 36.2289C992.865 35.1674 993.248 34.2064 993.793 33.3458C994.346 32.4852 995.109 31.8002 996.085 31.291C997.06 30.7818 998.305 30.5272 999.818 30.5272Z" fill="black"/>
<path d="M942.27 65.8397C942.27 65.5471 942.224 65.2889 942.132 65.0652C942.046 64.8357 941.891 64.6291 941.668 64.4455C941.45 64.2619 941.145 64.0869 940.755 63.9205C940.371 63.7541 939.883 63.5849 939.292 63.4128C938.673 63.2292 938.113 63.0255 937.614 62.8017C937.115 62.5722 936.687 62.3112 936.332 62.0185C935.976 61.7259 935.703 61.3903 935.514 61.0116C935.325 60.6329 935.23 60.1997 935.23 59.7121C935.23 59.2244 935.33 58.774 935.531 58.3609C935.732 57.9478 936.019 57.5892 936.392 57.2851C936.771 56.9753 937.221 56.7343 937.743 56.5622C938.265 56.39 938.848 56.304 939.49 56.304C940.431 56.304 941.229 56.4847 941.883 56.8462C942.543 57.2019 943.045 57.6695 943.389 58.249C943.733 58.8227 943.905 59.4367 943.905 60.0907H942.253C942.253 59.6203 942.152 59.2043 941.952 58.8428C941.751 58.4756 941.447 58.1887 941.039 57.9822C940.632 57.7699 940.116 57.6638 939.49 57.6638C938.899 57.6638 938.412 57.7527 938.027 57.9306C937.643 58.1084 937.356 58.3494 937.166 58.6535C936.983 58.9576 936.891 59.3047 936.891 59.6948C936.891 59.9588 936.946 60.1997 937.055 60.4178C937.169 60.6301 937.344 60.828 937.58 61.0116C937.821 61.1952 938.125 61.3645 938.492 61.5194C938.865 61.6743 939.309 61.8235 939.826 61.9669C940.537 62.1677 941.151 62.3915 941.668 62.6382C942.184 62.8849 942.609 63.1632 942.941 63.473C943.28 63.7771 943.529 64.1242 943.69 64.5144C943.856 64.8988 943.94 65.3348 943.94 65.8225C943.94 66.3332 943.836 66.795 943.63 67.2081C943.423 67.6212 943.128 67.9741 942.743 68.2667C942.359 68.5593 941.897 68.7859 941.358 68.9466C940.824 69.1015 940.227 69.179 939.568 69.179C938.988 69.179 938.417 69.0986 937.855 68.938C937.298 68.7773 936.791 68.5364 936.332 68.2151C935.878 67.8938 935.514 67.4979 935.239 67.0274C934.969 66.5512 934.834 66.0004 934.834 65.375H936.487C936.487 65.8053 936.57 66.1754 936.736 66.4852C936.903 66.7893 937.129 67.0417 937.416 67.2425C937.709 67.4434 938.039 67.5925 938.406 67.6901C938.779 67.7819 939.166 67.8278 939.568 67.8278C940.147 67.8278 940.638 67.7475 941.039 67.5868C941.441 67.4262 941.745 67.1966 941.952 66.8983C942.164 66.5999 942.27 66.2471 942.27 65.8397ZM951.307 67.4147V62.621C951.307 62.2538 951.232 61.9353 951.083 61.6657C950.939 61.3903 950.721 61.178 950.429 61.0288C950.136 60.8796 949.775 60.8051 949.344 60.8051C948.943 60.8051 948.59 60.8739 948.286 61.0116C947.987 61.1493 947.752 61.33 947.58 61.5538C947.414 61.7776 947.33 62.0185 947.33 62.2767H945.738C945.738 61.944 945.824 61.614 945.997 61.287C946.169 60.96 946.415 60.6645 946.737 60.4006C947.064 60.1309 947.454 59.9186 947.907 59.7637C948.366 59.603 948.877 59.5227 949.439 59.5227C950.116 59.5227 950.713 59.6375 951.229 59.867C951.751 60.0965 952.159 60.4436 952.451 60.9083C952.75 61.3673 952.899 61.944 952.899 62.6382V66.9758C952.899 67.2856 952.925 67.6155 952.976 67.9655C953.034 68.3155 953.117 68.6167 953.226 68.8691V69.0068H951.565C951.484 68.8232 951.421 68.5794 951.375 68.2753C951.33 67.9655 951.307 67.6786 951.307 67.4147ZM951.582 63.3611L951.599 64.4799H949.99C949.537 64.4799 949.132 64.5172 948.776 64.5918C948.421 64.6607 948.122 64.7668 947.881 64.9102C947.64 65.0537 947.457 65.2344 947.33 65.4524C947.204 65.6647 947.141 65.9143 947.141 66.2012C947.141 66.4938 947.207 66.7606 947.339 67.0016C947.471 67.2425 947.669 67.4348 947.933 67.5782C948.203 67.7159 948.532 67.7847 948.923 67.7847C949.41 67.7847 949.841 67.6815 950.214 67.4749C950.587 67.2684 950.882 67.0159 951.1 66.7176C951.324 66.4192 951.444 66.1295 951.461 65.8483L952.141 66.6143C952.101 66.8553 951.992 67.1221 951.814 67.4147C951.636 67.7073 951.398 67.9884 951.1 68.2581C950.807 68.522 950.457 68.7429 950.05 68.9208C949.648 69.0929 949.195 69.179 948.69 69.179C948.059 69.179 947.505 69.0556 947.029 68.8089C946.559 68.5622 946.192 68.2323 945.928 67.8192C945.669 67.4003 945.54 66.9327 945.54 66.4163C945.54 65.9172 945.638 65.4783 945.833 65.0996C946.028 64.7152 946.309 64.3967 946.676 64.1443C947.044 63.8861 947.485 63.691 948.002 63.5591C948.518 63.4271 949.095 63.3611 949.732 63.3611H951.582ZM957.778 69.0068H956.186V58.7137C956.186 58.0424 956.307 57.4773 956.548 57.0183C956.795 56.5536 957.147 56.2036 957.606 55.9683C958.065 55.7274 958.61 55.6069 959.242 55.6069C959.425 55.6069 959.609 55.6183 959.792 55.6413C959.982 55.6642 960.165 55.6987 960.343 55.7446L960.257 57.0441C960.137 57.0154 959.999 56.9953 959.844 56.9839C959.695 56.9724 959.546 56.9667 959.396 56.9667C959.058 56.9667 958.765 57.0355 958.519 57.1732C958.278 57.3052 958.094 57.5002 957.968 57.7584C957.842 58.0166 957.778 58.3351 957.778 58.7137V69.0068ZM959.758 59.6948V60.9169H954.715V59.6948H959.758ZM965.188 69.179C964.54 69.179 963.952 69.0699 963.424 68.8519C962.902 68.6282 962.452 68.3155 962.073 67.9138C961.7 67.5122 961.413 67.036 961.212 66.4852C961.012 65.9344 960.911 65.332 960.911 64.6779V64.3164C960.911 63.5591 961.023 62.8849 961.247 62.2939C961.471 61.6972 961.775 61.1923 962.159 60.7792C962.543 60.3661 962.98 60.0534 963.467 59.8412C963.955 59.6289 964.46 59.5227 964.982 59.5227C965.647 59.5227 966.221 59.6375 966.703 59.867C967.191 60.0965 967.59 60.4178 967.899 60.8309C968.209 61.2382 968.439 61.7202 968.588 62.2767C968.737 62.8275 968.812 63.43 968.812 64.084V64.7984L961.858 64.7984V63.4988L967.22 63.4988V63.3783C967.197 62.9652 967.111 62.5636 966.961 62.1735C966.818 61.7833 966.588 61.462 966.273 61.2096C965.957 60.9571 965.527 60.8309 964.982 60.8309C964.62 60.8309 964.288 60.9083 963.984 61.0632C963.68 61.2124 963.418 61.4362 963.2 61.7345C962.982 62.0329 962.813 62.3972 962.693 62.8275C962.572 63.2578 962.512 63.7541 962.512 64.3164V64.6779C962.512 65.1197 962.572 65.5356 962.693 65.9258C962.819 66.3102 963 66.6487 963.235 66.9413C963.476 67.2339 963.766 67.4634 964.104 67.6298C964.448 67.7962 964.839 67.8794 965.275 67.8794C965.837 67.8794 966.313 67.7647 966.703 67.5352C967.093 67.3057 967.435 66.9987 967.727 66.6143L968.691 67.3803C968.49 67.6843 968.235 67.9741 967.925 68.2495C967.615 68.5249 967.234 68.7486 966.781 68.9208C966.333 69.0929 965.802 69.179 965.188 69.179ZM980.533 67.4147V62.621C980.533 62.2538 980.459 61.9353 980.31 61.6657C980.166 61.3903 979.948 61.178 979.656 61.0288C979.363 60.8796 979.002 60.8051 978.571 60.8051C978.17 60.8051 977.817 60.8739 977.513 61.0116C977.214 61.1493 976.979 61.33 976.807 61.5538C976.641 61.7776 976.557 62.0185 976.557 62.2767H974.965C974.965 61.944 975.051 61.614 975.223 61.287C975.396 60.96 975.642 60.6645 975.964 60.4006C976.291 60.1309 976.681 59.9186 977.134 59.7637C977.593 59.603 978.104 59.5227 978.666 59.5227C979.343 59.5227 979.94 59.6375 980.456 59.867C980.978 60.0965 981.386 60.4436 981.678 60.9083C981.976 61.3673 982.126 61.944 982.126 62.6382V66.9758C982.126 67.2856 982.151 67.6155 982.203 67.9655C982.26 68.3155 982.344 68.6167 982.453 68.8691V69.0068H980.792C980.711 68.8232 980.648 68.5794 980.602 68.2753C980.556 67.9655 980.533 67.6786 980.533 67.4147ZM980.809 63.3611L980.826 64.4799H979.217C978.763 64.4799 978.359 64.5172 978.003 64.5918C977.648 64.6607 977.349 64.7668 977.108 64.9102C976.867 65.0537 976.684 65.2344 976.557 65.4524C976.431 65.6647 976.368 65.9143 976.368 66.2012C976.368 66.4938 976.434 66.7606 976.566 67.0016C976.698 67.2425 976.896 67.4348 977.16 67.5782C977.429 67.7159 977.759 67.7847 978.15 67.7847C978.637 67.7847 979.068 67.6815 979.44 67.4749C979.813 67.2684 980.109 67.0159 980.327 66.7176C980.551 66.4192 980.671 66.1295 980.688 65.8483L981.368 66.6143C981.328 66.8553 981.219 67.1221 981.041 67.4147C980.863 67.7073 980.625 67.9884 980.327 68.2581C980.034 68.522 979.684 68.7429 979.277 68.9208C978.875 69.0929 978.422 69.179 977.917 69.179C977.286 69.179 976.732 69.0556 976.256 68.8089C975.786 68.5622 975.418 68.2323 975.155 67.8192C974.896 67.4003 974.767 66.9327 974.767 66.4163C974.767 65.9172 974.865 65.4783 975.06 65.0996C975.255 64.7152 975.536 64.3967 975.903 64.1443C976.271 63.8861 976.712 63.691 977.229 63.5591C977.745 63.4271 978.322 63.3611 978.959 63.3611H980.809ZM986.222 61.1579V69.0068H984.63V59.6948H986.179L986.222 61.1579ZM989.131 59.6432L989.123 61.1235C988.991 61.0948 988.864 61.0776 988.744 61.0719C988.629 61.0604 988.497 61.0546 988.348 61.0546C987.981 61.0546 987.657 61.112 987.375 61.2268C987.094 61.3415 986.856 61.5022 986.661 61.7087C986.466 61.9153 986.311 62.162 986.196 62.4489C986.087 62.73 986.016 63.0398 985.981 63.3783L985.534 63.6365C985.534 63.0742 985.588 62.5464 985.697 62.053C985.812 61.5595 985.987 61.1235 986.222 60.7448C986.457 60.3604 986.756 60.062 987.117 59.8498C987.484 59.6317 987.921 59.5227 988.425 59.5227C988.54 59.5227 988.672 59.5371 988.821 59.5658C988.97 59.5887 989.074 59.6145 989.131 59.6432ZM994.295 69.179C993.647 69.179 993.058 69.0699 992.531 68.8519C992.009 68.6282 991.558 68.3155 991.179 67.9138C990.807 67.5122 990.52 67.036 990.319 66.4852C990.118 65.9344 990.018 65.332 990.018 64.6779V64.3164C990.018 63.5591 990.129 62.8849 990.353 62.2939C990.577 61.6972 990.881 61.1923 991.266 60.7792C991.65 60.3661 992.086 60.0534 992.574 59.8412C993.061 59.6289 993.566 59.5227 994.088 59.5227C994.754 59.5227 995.328 59.6375 995.81 59.867C996.297 60.0965 996.696 60.4178 997.006 60.8309C997.316 61.2382 997.545 61.7202 997.694 62.2767C997.844 62.8275 997.918 63.43 997.918 64.084V64.7984H990.964V63.4988H996.326V63.3783C996.303 62.9652 996.217 62.5636 996.068 62.1735C995.924 61.7833 995.695 61.462 995.379 61.2096C995.064 60.9571 994.633 60.8309 994.088 60.8309C993.727 60.8309 993.394 60.9083 993.09 61.0632C992.786 61.2124 992.525 61.4362 992.307 61.7345C992.089 62.0329 991.92 62.3972 991.799 62.8275C991.679 63.2578 991.618 63.7541 991.618 64.3164V64.6779C991.618 65.1197 991.679 65.5356 991.799 65.9258C991.925 66.3102 992.106 66.6487 992.341 66.9413C992.582 67.2339 992.872 67.4634 993.211 67.6298C993.555 67.7962 993.945 67.8794 994.381 67.8794C994.943 67.8794 995.419 67.7647 995.81 67.5352C996.2 67.3057 996.541 66.9987 996.834 66.6143L997.798 67.3803C997.597 67.6843 997.342 67.9741 997.032 68.2495C996.722 68.5249 996.34 68.7486 995.887 68.9208C995.44 69.0929 994.909 69.179 994.295 69.179ZM1005.27 67.4147V62.621C1005.27 62.2538 1005.19 61.9353 1005.04 61.6657C1004.9 61.3903 1004.68 61.178 1004.39 61.0288C1004.1 60.8796 1003.74 60.8051 1003.31 60.8051C1002.9 60.8051 1002.55 60.8739 1002.25 61.0116C1001.95 61.1493 1001.71 61.33 1001.54 61.5538C1001.38 61.7776 1001.29 62.0185 1001.29 62.2767H999.7C999.7 61.944 999.786 61.614 999.958 61.287C1000.13 60.96 1000.38 60.6645 1000.7 60.4006C1001.03 60.1309 1001.42 59.9186 1001.87 59.7637C1002.33 59.603 1002.84 59.5227 1003.4 59.5227C1004.08 59.5227 1004.67 59.6375 1005.19 59.867C1005.71 60.0965 1006.12 60.4436 1006.41 60.9083C1006.71 61.3673 1006.86 61.944 1006.86 62.6382V66.9758C1006.86 67.2856 1006.89 67.6155 1006.94 67.9655C1006.99 68.3155 1007.08 68.6167 1007.19 68.8691V69.0068H1005.53C1005.45 68.8232 1005.38 68.5794 1005.34 68.2753C1005.29 67.9655 1005.27 67.6786 1005.27 67.4147ZM1005.54 63.3611L1005.56 64.4799H1003.95C1003.5 64.4799 1003.09 64.5172 1002.74 64.5918C1002.38 64.6607 1002.08 64.7668 1001.84 64.9102C1001.6 65.0537 1001.42 65.2344 1001.29 65.4524C1001.17 65.6647 1001.1 65.9143 1001.1 66.2012C1001.1 66.4938 1001.17 66.7606 1001.3 67.0016C1001.43 67.2425 1001.63 67.4348 1001.89 67.5782C1002.16 67.7159 1002.49 67.7847 1002.88 67.7847C1003.37 67.7847 1003.8 67.6815 1004.17 67.4749C1004.55 67.2684 1004.84 67.0159 1005.06 66.7176C1005.29 66.4192 1005.41 66.1295 1005.42 65.8483L1006.1 66.6143C1006.06 66.8553 1005.95 67.1221 1005.78 67.4147C1005.6 67.7073 1005.36 67.9884 1005.06 68.2581C1004.77 68.522 1004.42 68.7429 1004.01 68.9208C1003.61 69.0929 1003.16 69.179 1002.65 69.179C1002.02 69.179 1001.47 69.0556 1000.99 68.8089C1000.52 68.5622 1000.15 68.2323 999.889 67.8192C999.631 67.4003 999.502 66.9327 999.502 66.4163C999.502 65.9172 999.599 65.4783 999.794 65.0996C999.989 64.7152 1000.27 64.3967 1000.64 64.1443C1001 63.8861 1001.45 63.691 1001.96 63.5591C1002.48 63.4271 1003.06 63.3611 1003.69 63.3611H1005.54Z" fill="black"/>
<path d="M18.8413 314.38L21.3909 318.618L23.9728 314.38H26.3073L22.499 320.124L26.4256 326.02H24.1234L21.434 321.652L18.7445 326.02H16.4316L20.3474 320.124L16.5499 314.38H18.8413ZM33.7624 318.403L35.9248 315.434L32.6759 314.466L33.1815 312.852L36.4304 314.046L36.3336 310.345H37.9688L37.8612 314.111L41.067 312.916L41.5619 314.562L38.2592 315.541L40.3785 318.457L39.0445 319.457L37.0543 316.359L35.1072 319.382L33.7624 318.403ZM55.1706 310.27L55.1706 326.02H53.1804L53.1804 312.755L49.1677 314.218V312.422L54.8586 310.27H55.1706ZM61.2702 324.965C61.2702 324.628 61.3742 324.345 61.5822 324.115C61.7974 323.879 62.1058 323.76 62.5074 323.76C62.909 323.76 63.2138 323.879 63.4218 324.115C63.637 324.345 63.7446 324.628 63.7446 324.965C63.7446 325.295 63.637 325.575 63.4218 325.804C63.2138 326.034 62.909 326.149 62.5074 326.149C62.1058 326.149 61.7974 326.034 61.5822 325.804C61.3742 325.575 61.2702 325.295 61.2702 324.965ZM74.4701 310.335H74.6422V312.024H74.4701C73.4159 312.024 72.5337 312.196 71.8237 312.54C71.1137 312.877 70.5507 313.332 70.1347 313.906C69.7187 314.473 69.4175 315.111 69.2311 315.821C69.0518 316.531 68.9621 317.252 68.9621 317.983V320.286C68.9621 320.981 69.0446 321.598 69.2095 322.136C69.3745 322.667 69.6004 323.115 69.8873 323.481C70.1742 323.846 70.4969 324.123 70.8555 324.309C71.2213 324.496 71.6014 324.589 71.9958 324.589C72.4548 324.589 72.8636 324.503 73.2222 324.331C73.5808 324.151 73.882 323.904 74.1259 323.588C74.3769 323.266 74.5669 322.885 74.696 322.448C74.8251 322.01 74.8897 321.53 74.8897 321.006C74.8897 320.54 74.8323 320.092 74.7176 319.662C74.6028 319.224 74.4271 318.837 74.1904 318.5C73.9537 318.156 73.6561 317.887 73.2975 317.693C72.9461 317.492 72.5265 317.392 72.0388 317.392C71.4866 317.392 70.9702 317.528 70.4897 317.801C70.0164 318.066 69.6255 318.417 69.3171 318.855C69.0159 319.285 68.8438 319.755 68.8007 320.264L67.7465 320.253C67.8469 319.45 68.0333 318.765 68.3059 318.199C68.5856 317.625 68.9298 317.159 69.3386 316.8C69.7546 316.434 70.2172 316.169 70.7264 316.004C71.2428 315.832 71.7878 315.746 72.3616 315.746C73.1433 315.746 73.8175 315.893 74.3841 316.187C74.9506 316.481 75.4168 316.875 75.7826 317.37C76.1483 317.858 76.4173 318.41 76.5894 319.027C76.7687 319.637 76.8584 320.264 76.8584 320.91C76.8584 321.648 76.7544 322.34 76.5464 322.986C76.3384 323.631 76.0264 324.198 75.6105 324.686C75.2017 325.173 74.696 325.553 74.0936 325.826C73.4912 326.098 72.7919 326.235 71.9958 326.235C71.1495 326.235 70.4108 326.063 69.7797 325.718C69.1486 325.367 68.625 324.901 68.2091 324.32C67.7931 323.739 67.4811 323.093 67.2731 322.383C67.0651 321.673 66.9611 320.953 66.9611 320.221V319.285C66.9611 318.181 67.0723 317.098 67.2946 316.036C67.517 314.975 67.9007 314.014 68.4457 313.153C68.998 312.293 69.7618 311.608 70.7371 311.098C71.7125 310.589 72.9569 310.335 74.4701 310.335Z" fill="black"/>
<path d="M16.9223 345.647C16.9223 345.354 16.8764 345.096 16.7846 344.872C16.6986 344.643 16.5437 344.436 16.3199 344.253C16.1019 344.069 15.7978 343.894 15.4076 343.728C15.0232 343.561 14.5355 343.392 13.9446 343.22C13.3249 343.036 12.7655 342.833 12.2663 342.609C11.7672 342.379 11.3397 342.118 10.984 341.826C10.6283 341.533 10.3557 341.197 10.1664 340.819C9.97707 340.44 9.8824 340.007 9.8824 339.519C9.8824 339.032 9.98281 338.581 10.1836 338.168C10.3844 337.755 10.6713 337.396 11.0442 337.092C11.4229 336.782 11.8733 336.541 12.3954 336.369C12.9175 336.197 13.4999 336.111 14.1425 336.111C15.0835 336.111 15.881 336.292 16.535 336.653C17.1949 337.009 17.6969 337.477 18.0411 338.056C18.3854 338.63 18.5575 339.244 18.5575 339.898H16.9051C16.9051 339.427 16.8047 339.011 16.6039 338.65C16.4031 338.283 16.099 337.996 15.6916 337.789C15.2843 337.577 14.7679 337.471 14.1425 337.471C13.5515 337.471 13.0639 337.56 12.6794 337.738C12.295 337.916 12.0081 338.157 11.8188 338.461C11.6352 338.765 11.5434 339.112 11.5434 339.502C11.5434 339.766 11.5979 340.007 11.7069 340.225C11.8217 340.437 11.9967 340.635 12.2319 340.819C12.4729 341.002 12.777 341.172 13.1442 341.327C13.5171 341.481 13.9618 341.631 14.4781 341.774C15.1896 341.975 15.8035 342.199 16.3199 342.445C16.8363 342.692 17.2608 342.97 17.5936 343.28C17.9321 343.584 18.1817 343.931 18.3424 344.321C18.5088 344.706 18.5919 345.142 18.5919 345.63C18.5919 346.14 18.4887 346.602 18.2821 347.015C18.0756 347.428 17.7801 347.781 17.3957 348.074C17.0113 348.366 16.5494 348.593 16.0101 348.754C15.4765 348.909 14.8798 348.986 14.22 348.986C13.6405 348.986 13.0696 348.906 12.5073 348.745C11.9508 348.584 11.443 348.343 10.984 348.022C10.5307 347.701 10.1664 347.305 9.89101 346.835C9.62134 346.358 9.48651 345.808 9.48651 345.182H11.1389C11.1389 345.612 11.2221 345.983 11.3885 346.292C11.5549 346.596 11.7815 346.849 12.0684 347.05C12.361 347.25 12.6909 347.4 13.0581 347.497C13.4311 347.589 13.8183 347.635 14.22 347.635C14.7994 347.635 15.29 347.555 15.6916 347.394C16.0933 347.233 16.3973 347.004 16.6039 346.705C16.8162 346.407 16.9223 346.054 16.9223 345.647ZM25.9589 347.222L25.9589 342.428C25.9589 342.061 25.8843 341.742 25.7352 341.473C25.5917 341.197 25.3737 340.985 25.0811 340.836C24.7885 340.687 24.427 340.612 23.9967 340.612C23.5951 340.612 23.2422 340.681 22.9381 340.819C22.6398 340.956 22.4045 341.137 22.2324 341.361C22.066 341.585 21.9828 341.826 21.9828 342.084H20.3907C20.3907 341.751 20.4767 341.421 20.6488 341.094C20.821 340.767 21.0677 340.472 21.389 340.208C21.716 339.938 22.1062 339.726 22.5594 339.571C23.0184 339.41 23.5291 339.33 24.0914 339.33C24.7684 339.33 25.3651 339.445 25.8815 339.674C26.4036 339.904 26.8109 340.251 27.1036 340.715C27.4019 341.174 27.5511 341.751 27.5511 342.445L27.5511 346.783C27.5511 347.093 27.5769 347.423 27.6285 347.773C27.6859 348.123 27.7691 348.424 27.8781 348.676V348.814H26.2171C26.1368 348.63 26.0737 348.387 26.0278 348.082C25.9819 347.773 25.9589 347.486 25.9589 347.222ZM26.2343 343.168L26.2515 344.287H24.6422C24.1889 344.287 23.7844 344.324 23.4287 344.399C23.0729 344.468 22.7746 344.574 22.5336 344.717C22.2926 344.861 22.109 345.042 21.9828 345.26C21.8566 345.472 21.7935 345.721 21.7935 346.008C21.7935 346.301 21.8595 346.568 21.9914 346.809C22.1234 347.05 22.3213 347.242 22.5853 347.385C22.8549 347.523 23.1848 347.592 23.575 347.592C24.0627 347.592 24.493 347.489 24.8659 347.282C25.2389 347.075 25.5343 346.823 25.7524 346.525C25.9761 346.226 26.0966 345.937 26.1138 345.655L26.7937 346.421C26.7536 346.662 26.6446 346.929 26.4667 347.222C26.2888 347.514 26.0507 347.796 25.7524 348.065C25.4598 348.329 25.1098 348.55 24.7024 348.728C24.3008 348.9 23.8475 348.986 23.3426 348.986C22.7115 348.986 22.1578 348.863 21.6816 348.616C21.2111 348.369 20.8439 348.039 20.58 347.626C20.3218 347.207 20.1927 346.74 20.1927 346.223C20.1927 345.724 20.2903 345.285 20.4853 344.907C20.6804 344.522 20.9615 344.204 21.3287 343.951C21.6959 343.693 22.1377 343.498 22.6541 343.366C23.1705 343.234 23.7471 343.168 24.384 343.168H26.2343ZM32.4308 348.814H30.8387L30.8387 338.521C30.8387 337.85 30.9592 337.284 31.2001 336.825C31.4469 336.361 31.7997 336.011 32.2587 335.775C32.7177 335.534 33.2628 335.414 33.8939 335.414C34.0775 335.414 34.2611 335.425 34.4447 335.448C34.634 335.471 34.8176 335.506 34.9955 335.552L34.9094 336.851C34.789 336.823 34.6513 336.802 34.4963 336.791C34.3472 336.78 34.198 336.774 34.0488 336.774C33.7103 336.774 33.4177 336.843 33.171 336.98C32.93 337.112 32.7464 337.307 32.6202 337.566C32.4939 337.824 32.4308 338.142 32.4308 338.521L32.4308 348.814ZM34.4103 339.502L34.4103 340.724L29.367 340.724L29.367 339.502L34.4103 339.502ZM39.8408 348.986C39.1925 348.986 38.6044 348.877 38.0766 348.659C37.5544 348.435 37.104 348.123 36.7254 347.721C36.3524 347.319 36.0656 346.843 35.8647 346.292C35.6639 345.742 35.5635 345.139 35.5635 344.485V344.124C35.5635 343.366 35.6754 342.692 35.8992 342.101C36.1229 341.504 36.427 340.999 36.8114 340.586C37.1958 340.173 37.6319 339.861 38.1196 339.648C38.6073 339.436 39.1122 339.33 39.6343 339.33C40.2998 339.33 40.8736 339.445 41.3555 339.674C41.8432 339.904 42.242 340.225 42.5518 340.638C42.8616 341.045 43.0911 341.527 43.2403 342.084C43.3895 342.635 43.4641 343.237 43.4641 343.891L43.4641 344.605H36.5102V343.306H41.8719V343.185C41.849 342.772 41.7629 342.371 41.6137 341.981C41.4703 341.59 41.2408 341.269 40.9252 341.017C40.6097 340.764 40.1794 340.638 39.6343 340.638C39.2728 340.638 38.94 340.715 38.636 340.87C38.3319 341.02 38.0708 341.243 37.8528 341.542C37.6348 341.84 37.4655 342.204 37.345 342.635C37.2245 343.065 37.1643 343.561 37.1643 344.124V344.485C37.1643 344.927 37.2245 345.343 37.345 345.733C37.4712 346.117 37.652 346.456 37.8872 346.748C38.1282 347.041 38.4179 347.271 38.7564 347.437C39.1007 347.603 39.4908 347.687 39.9269 347.687C40.4892 347.687 40.9654 347.572 41.3555 347.342C41.7457 347.113 42.0871 346.806 42.3797 346.421L43.3436 347.187C43.1428 347.491 42.8875 347.781 42.5776 348.057C42.2678 348.332 41.8863 348.556 41.433 348.728C40.9855 348.9 40.4548 348.986 39.8408 348.986ZM55.1858 347.222L55.1858 342.428C55.1858 342.061 55.1112 341.742 54.9621 341.473C54.8186 341.197 54.6006 340.985 54.308 340.836C54.0154 340.687 53.6539 340.612 53.2236 340.612C52.822 340.612 52.4691 340.681 52.165 340.819C51.8667 340.956 51.6314 341.137 51.4593 341.361C51.2929 341.585 51.2097 341.826 51.2097 342.084H49.6176C49.6176 341.751 49.7036 341.421 49.8758 341.094C50.0479 340.767 50.2946 340.472 50.6159 340.208C50.9429 339.938 51.3331 339.726 51.7863 339.571C52.2453 339.41 52.756 339.33 53.3183 339.33C53.9953 339.33 54.592 339.445 55.1084 339.674C55.6305 339.904 56.0378 340.251 56.3305 340.715C56.6288 341.174 56.778 341.751 56.778 342.445L56.778 346.783C56.778 347.093 56.8038 347.423 56.8554 347.773C56.9128 348.123 56.996 348.424 57.105 348.676V348.814H55.444C55.3637 348.63 55.3006 348.387 55.2547 348.082C55.2088 347.773 55.1858 347.486 55.1858 347.222ZM55.4612 343.168L55.4784 344.287H53.8691C53.4158 344.287 53.0113 344.324 52.6556 344.399C52.2999 344.468 52.0015 344.574 51.7605 344.717C51.5196 344.861 51.336 345.042 51.2097 345.26C51.0835 345.472 51.0204 345.721 51.0204 346.008C51.0204 346.301 51.0864 346.568 51.2183 346.809C51.3503 347.05 51.5482 347.242 51.8122 347.385C52.0818 347.523 52.4117 347.592 52.8019 347.592C53.2896 347.592 53.7199 347.489 54.0928 347.282C54.4658 347.075 54.7612 346.823 54.9793 346.525C55.203 346.226 55.3235 345.937 55.3407 345.655L56.0206 346.421C55.9805 346.662 55.8715 346.929 55.6936 347.222C55.5157 347.514 55.2776 347.796 54.9793 348.065C54.6867 348.329 54.3367 348.55 53.9293 348.728C53.5277 348.9 53.0744 348.986 52.5695 348.986C51.9384 348.986 51.3847 348.863 50.9085 348.616C50.438 348.369 50.0708 348.039 49.8069 347.626C49.5487 347.207 49.4196 346.74 49.4196 346.223C49.4196 345.724 49.5172 345.285 49.7122 344.907C49.9073 344.522 50.1884 344.204 50.5556 343.951C50.9228 343.693 51.3646 343.498 51.881 343.366C52.3974 343.234 52.974 343.168 53.6109 343.168H55.4612ZM60.8746 340.965L60.8746 348.814H59.2824L59.2824 339.502H60.8315L60.8746 340.965ZM63.7835 339.45L63.7749 340.931C63.6429 340.902 63.5167 340.885 63.3962 340.879C63.2815 340.868 63.1495 340.862 63.0003 340.862C62.6331 340.862 62.309 340.919 62.0278 341.034C61.7467 341.149 61.5086 341.309 61.3135 341.516C61.1184 341.722 60.9635 341.969 60.8488 342.256C60.7397 342.537 60.668 342.847 60.6336 343.185L60.1861 343.444C60.1861 342.881 60.2406 342.354 60.3496 341.86C60.4643 341.367 60.6393 340.931 60.8746 340.552C61.1098 340.168 61.4082 339.869 61.7696 339.657C62.1368 339.439 62.5729 339.33 63.0778 339.33C63.1925 339.33 63.3245 339.344 63.4737 339.373C63.6228 339.396 63.7261 339.422 63.7835 339.45ZM68.9473 348.986C68.2989 348.986 67.7108 348.877 67.183 348.659C66.6609 348.435 66.2105 348.123 65.8318 347.721C65.4588 347.319 65.172 346.843 64.9712 346.292C64.7703 345.742 64.6699 345.139 64.6699 344.485V344.124C64.6699 343.366 64.7818 342.692 65.0056 342.101C65.2293 341.504 65.5334 340.999 65.9178 340.586C66.3023 340.173 66.7383 339.861 67.226 339.648C67.7137 339.436 68.2186 339.33 68.7407 339.33C69.4063 339.33 69.98 339.445 70.462 339.674C70.9497 339.904 71.3484 340.225 71.6582 340.638C71.9681 341.045 72.1976 341.527 72.3467 342.084C72.4959 342.635 72.5705 343.237 72.5705 343.891V344.605H65.6166V343.306H70.9783V343.185C70.9554 342.772 70.8693 342.371 70.7202 341.981C70.5767 341.59 70.3472 341.269 70.0316 341.017C69.7161 340.764 69.2858 340.638 68.7407 340.638C68.3792 340.638 68.0465 340.715 67.7424 340.87C67.4383 341.02 67.1772 341.243 66.9592 341.542C66.7412 341.84 66.5719 342.204 66.4514 342.635C66.331 343.065 66.2707 343.561 66.2707 344.124V344.485C66.2707 344.927 66.331 345.343 66.4514 345.733C66.5777 346.117 66.7584 346.456 66.9936 346.748C67.2346 347.041 67.5244 347.271 67.8629 347.437C68.2071 347.603 68.5973 347.687 69.0333 347.687C69.5956 347.687 70.0718 347.572 70.462 347.342C70.8521 347.113 71.1935 346.806 71.4861 346.421L72.45 347.187C72.2492 347.491 71.9939 347.781 71.6841 348.057C71.3742 348.332 70.9927 348.556 70.5394 348.728C70.0919 348.9 69.5612 348.986 68.9473 348.986ZM79.9203 347.222L79.9203 342.428C79.9203 342.061 79.8457 341.742 79.6965 341.473C79.5531 341.197 79.335 340.985 79.0424 340.836C78.7498 340.687 78.3883 340.612 77.958 340.612C77.5564 340.612 77.2035 340.681 76.8995 340.819C76.6011 340.956 76.3659 341.137 76.1937 341.361C76.0274 341.585 75.9442 341.826 75.9442 342.084H74.352C74.352 341.751 74.4381 341.421 74.6102 341.094C74.7823 340.767 75.029 340.472 75.3503 340.208C75.6774 339.938 76.0675 339.726 76.5208 339.571C76.9798 339.41 77.4904 339.33 78.0527 339.33C78.7297 339.33 79.3264 339.445 79.8428 339.674C80.3649 339.904 80.7723 340.251 81.0649 340.715C81.3632 341.174 81.5124 341.751 81.5124 342.445L81.5124 346.783C81.5124 347.093 81.5382 347.423 81.5899 347.773C81.6473 348.123 81.7304 348.424 81.8395 348.676V348.814H80.1784C80.0981 348.63 80.035 348.387 79.9891 348.082C79.9432 347.773 79.9203 347.486 79.9203 347.222ZM80.1957 343.168L80.2129 344.287L78.6035 344.287C78.1502 344.287 77.7457 344.324 77.39 344.399C77.0343 344.468 76.7359 344.574 76.495 344.717C76.254 344.861 76.0704 345.042 75.9442 345.26C75.8179 345.472 75.7548 345.721 75.7548 346.008C75.7548 346.301 75.8208 346.568 75.9528 346.809C76.0847 347.05 76.2827 347.242 76.5466 347.385C76.8163 347.523 77.1462 347.592 77.5363 347.592C78.024 347.592 78.4543 347.489 78.8273 347.282C79.2002 347.075 79.4957 346.823 79.7137 346.525C79.9375 346.226 80.058 345.937 80.0752 345.655L80.7551 346.421C80.7149 346.662 80.6059 346.929 80.428 347.222C80.2502 347.514 80.0121 347.796 79.7137 348.065C79.4211 348.329 79.0711 348.55 78.6637 348.728C78.2621 348.9 77.8089 348.986 77.304 348.986C76.6728 348.986 76.1192 348.863 75.6429 348.616C75.1725 348.369 74.8053 348.039 74.5413 347.626C74.2832 347.207 74.1541 346.74 74.1541 346.223C74.1541 345.724 74.2516 345.285 74.4467 344.907C74.6417 344.522 74.9229 344.204 75.2901 343.951C75.6573 343.693 76.0991 343.498 76.6155 343.366C77.1318 343.234 77.7084 343.168 78.3453 343.168L80.1957 343.168Z" fill="black"/>
</svg>
