<svg width="1019" height="297" viewBox="0 0 1019 297" fill="none" xmlns="http://www.w3.org/2000/svg">
<path d="M433.008 49.5125H436.187L444.156 71.4329H441.369L439.741 66.9549H429.454L427.841 71.4329H425.039L433.008 49.5125ZM430.425 64.3244H438.77L434.59 52.8789L430.425 64.3244ZM458.487 55.7755H461.117V71.4329H458.471L458.377 68.7868C457.886 69.6949 457.208 70.4308 456.342 70.9945C455.486 71.5581 454.468 71.84 453.288 71.84C452.13 71.84 451.049 71.626 450.047 71.198C449.045 70.7596 448.158 70.1594 447.386 69.3974C446.624 68.625 446.029 67.7377 445.601 66.7356C445.173 65.7336 444.959 64.6532 444.959 63.4946C444.959 62.3777 445.167 61.3234 445.585 60.3318C446.002 59.3401 446.582 58.4738 447.323 57.7327C448.074 56.9811 448.941 56.3966 449.922 55.979C450.903 55.5511 451.952 55.3371 453.069 55.3371C454.311 55.3371 455.397 55.6293 456.326 56.2139C457.265 56.788 458.017 57.5343 458.581 58.4529L458.487 55.7755ZM453.351 69.2878C454.395 69.2878 455.292 69.0268 456.044 68.5049C456.796 67.983 457.364 67.2837 457.751 66.4068C458.147 65.53 458.325 64.5593 458.283 63.4946C458.241 62.4507 457.996 61.5061 457.547 60.6606C457.098 59.8151 456.493 59.147 455.731 58.6564C454.969 58.1554 454.082 57.9049 453.069 57.9049C452.036 57.9049 451.096 58.1658 450.251 58.6878C449.405 59.2097 448.742 59.909 448.262 60.7858C447.793 61.6627 447.579 62.6386 447.62 63.7138C447.673 64.7472 447.965 65.6866 448.497 66.5321C449.03 67.3776 449.718 68.0509 450.564 68.5519C451.42 69.0425 452.349 69.2878 453.351 69.2878Z" fill="white"/>
<path d="M437.749 135.893C437.018 135.893 436.303 135.768 435.604 135.517C434.904 135.277 434.268 134.912 433.693 134.421L435.369 132.386C435.672 132.647 436.021 132.861 436.418 133.028C436.825 133.184 437.269 133.262 437.749 133.262C438.438 133.262 439.064 133.08 439.628 132.714C440.191 132.349 440.64 131.869 440.974 131.274C441.319 130.679 441.491 130.042 441.491 129.364V113.566H444.121V129.364C444.121 130.533 443.834 131.613 443.26 132.605C442.686 133.586 441.919 134.379 440.959 134.985C439.998 135.59 438.928 135.893 437.749 135.893ZM444.75 143.315C444.75 143.315 444.75 143.226 444.75 143.048C444.75 142.871 444.75 142.652 444.75 142.391C444.75 142.13 444.75 141.869 444.75 141.608C444.75 141.347 444.75 141.128 444.75 140.95C444.75 140.773 444.75 140.684 444.75 140.684C445.481 140.684 446.133 140.522 446.707 140.199C447.292 139.875 447.751 139.426 448.085 138.852C448.419 138.289 448.586 137.657 448.586 136.958V119.828H451.217V136.958C451.217 138.127 450.935 139.191 450.371 140.152C449.808 141.112 449.035 141.879 448.054 142.453C447.083 143.027 445.982 143.315 444.75 143.315ZM449.902 117.402C449.505 117.402 449.166 117.261 448.884 116.979C448.612 116.687 448.477 116.347 448.477 115.961C448.477 115.564 448.612 115.225 448.884 114.943C449.166 114.651 449.505 114.505 449.902 114.505C450.298 114.505 450.637 114.651 450.919 114.943C451.212 115.225 451.358 115.564 451.358 115.961C451.358 116.347 451.212 116.687 450.919 116.979C450.637 117.261 450.298 117.402 449.902 117.402Z" fill="white"/>
<path d="M436.457 199.946C435.278 199.946 434.14 199.763 433.044 199.398C431.948 199.022 430.988 198.49 430.163 197.801C429.349 197.112 428.769 196.293 428.425 195.343L430.883 194.419C431.092 195.003 431.478 195.515 432.042 195.953C432.616 196.381 433.289 196.715 434.062 196.955C434.834 197.195 435.633 197.315 436.457 197.315C437.397 197.315 438.268 197.164 439.072 196.861C439.886 196.548 440.544 196.115 441.045 195.562C441.546 195.009 441.796 194.361 441.796 193.62C441.796 192.858 441.535 192.237 441.014 191.757C440.492 191.267 439.824 190.88 439.009 190.598C438.195 190.306 437.345 190.082 436.457 189.925C434.944 189.675 433.587 189.32 432.386 188.86C431.196 188.391 430.252 187.738 429.552 186.903C428.863 186.068 428.519 184.967 428.519 183.6C428.519 182.326 428.884 181.214 429.615 180.265C430.356 179.315 431.332 178.579 432.543 178.057C433.754 177.535 435.059 177.274 436.457 177.274C437.616 177.274 438.738 177.457 439.824 177.822C440.92 178.177 441.885 178.699 442.72 179.388C443.555 180.077 444.155 180.917 444.521 181.909L442.031 182.817C441.823 182.222 441.431 181.71 440.857 181.282C440.293 180.844 439.625 180.51 438.853 180.28C438.091 180.04 437.292 179.92 436.457 179.92C435.528 179.91 434.662 180.061 433.858 180.374C433.054 180.687 432.402 181.121 431.901 181.674C431.4 182.227 431.149 182.869 431.149 183.6C431.149 184.476 431.379 185.15 431.838 185.619C432.308 186.079 432.945 186.423 433.749 186.653C434.552 186.882 435.455 187.086 436.457 187.263C437.877 187.504 439.192 187.885 440.403 188.406C441.614 188.918 442.585 189.602 443.315 190.458C444.056 191.313 444.427 192.368 444.427 193.62C444.427 194.894 444.056 196.005 443.315 196.955C442.585 197.905 441.614 198.641 440.403 199.163C439.192 199.685 437.877 199.946 436.457 199.946ZM452.906 199.836C452.06 199.805 451.235 199.648 450.432 199.367C449.638 199.074 448.939 198.683 448.334 198.192C447.739 197.691 447.305 197.117 447.034 196.47L449.289 195.499C449.445 195.854 449.727 196.188 450.134 196.501C450.541 196.814 451.011 197.065 451.543 197.253C452.076 197.441 452.613 197.535 453.156 197.535C453.73 197.535 454.268 197.446 454.769 197.268C455.27 197.091 455.677 196.83 455.99 196.486C456.314 196.131 456.475 195.708 456.475 195.217C456.475 194.695 456.298 194.288 455.943 193.996C455.599 193.693 455.16 193.459 454.628 193.292C454.106 193.114 453.574 192.947 453.031 192.79C451.956 192.519 450.995 192.196 450.15 191.82C449.304 191.434 448.636 190.948 448.146 190.364C447.666 189.769 447.426 189.012 447.426 188.093C447.426 187.123 447.692 186.282 448.224 185.572C448.767 184.863 449.477 184.315 450.353 183.928C451.23 183.542 452.17 183.349 453.172 183.349C454.435 183.349 455.588 183.62 456.632 184.163C457.676 184.706 458.454 185.442 458.965 186.371L456.851 187.608C456.674 187.232 456.402 186.903 456.037 186.621C455.672 186.329 455.254 186.1 454.784 185.933C454.315 185.766 453.835 185.677 453.344 185.666C452.739 185.646 452.17 185.724 451.637 185.901C451.115 186.079 450.693 186.35 450.369 186.715C450.056 187.07 449.899 187.514 449.899 188.046C449.899 188.568 450.066 188.965 450.4 189.236C450.745 189.508 451.188 189.727 451.731 189.894C452.285 190.05 452.885 190.233 453.532 190.442C454.482 190.745 455.369 191.094 456.194 191.491C457.018 191.888 457.681 192.383 458.182 192.978C458.694 193.573 458.944 194.309 458.934 195.186C458.934 196.146 458.647 196.987 458.073 197.707C457.498 198.417 456.752 198.959 455.834 199.335C454.925 199.711 453.949 199.878 452.906 199.836Z" fill="white"/>
<path d="M438.99 259.729C437.686 259.729 436.516 259.436 435.483 258.852C434.45 258.257 433.562 257.437 432.821 256.394C432.08 255.35 431.517 254.144 431.13 252.777C430.744 251.399 430.551 249.927 430.551 248.361C430.551 246.796 430.744 245.324 431.13 243.946C431.517 242.568 432.08 241.363 432.821 240.329C433.562 239.285 434.45 238.471 435.483 237.887C436.516 237.292 437.686 236.994 438.99 236.994C440.285 236.994 441.449 237.292 442.482 237.887C443.526 238.471 444.408 239.285 445.128 240.329C445.859 241.363 446.417 242.568 446.803 243.946C447.2 245.324 447.398 246.796 447.398 248.361C447.398 249.927 447.2 251.399 446.803 252.777C446.417 254.144 445.859 255.35 445.128 256.394C444.408 257.437 443.526 258.257 442.482 258.852C441.449 259.436 440.285 259.729 438.99 259.729ZM438.99 257.098C440.295 257.098 441.386 256.696 442.263 255.893C443.15 255.078 443.813 254.008 444.251 252.683C444.69 251.357 444.909 249.917 444.909 248.361C444.909 246.723 444.679 245.246 444.22 243.93C443.771 242.605 443.103 241.556 442.216 240.783C441.339 240.011 440.264 239.625 438.99 239.625C437.988 239.625 437.111 239.859 436.36 240.329C435.619 240.799 435.003 241.441 434.512 242.255C434.022 243.069 433.651 244.003 433.401 245.058C433.161 246.101 433.041 247.203 433.041 248.361C433.041 249.917 433.265 251.362 433.714 252.698C434.163 254.024 434.825 255.089 435.702 255.893C436.59 256.696 437.686 257.098 438.99 257.098ZM452.038 259.322V240.032H449.58L450.316 237.401H454.668V259.322H452.038Z" fill="white"/>
<path d="M495.243 71.4329V49.5125H502.805C503.891 49.5125 504.877 49.7369 505.765 50.1858C506.662 50.6242 507.372 51.2662 507.894 52.1117C508.416 52.9572 508.677 53.9697 508.677 55.1492C508.677 55.7859 508.567 56.4018 508.348 56.9968C508.139 57.5813 507.847 58.0876 507.471 58.5155C507.106 58.9331 506.688 59.2149 506.219 59.361C506.876 59.528 507.435 59.8255 507.894 60.2535C508.353 60.671 508.724 61.1616 509.006 61.7253C509.298 62.289 509.507 62.8787 509.632 63.4946C509.757 64.1104 509.82 64.7054 509.82 65.2795C509.82 66.4903 509.543 67.5603 508.99 68.4893C508.447 69.4078 507.717 70.1281 506.798 70.65C505.879 71.1719 504.867 71.4329 503.76 71.4329H495.243ZM497.873 69.1156H503.526C504.246 69.1156 504.898 68.9329 505.483 68.5676C506.078 68.1918 506.553 67.6803 506.908 67.0331C507.262 66.386 507.44 65.6553 507.44 64.8411C507.44 64.1209 507.262 63.4424 506.908 62.8056C506.553 62.1585 506.078 61.6366 505.483 61.2399C504.898 60.8433 504.246 60.6449 503.526 60.6449H497.873V69.1156ZM497.873 58.3746H502.555C503.515 58.3746 504.335 58.0928 505.013 57.5291C505.702 56.955 506.046 56.1565 506.046 55.1335C506.046 54.0271 505.702 53.2024 505.013 52.6597C504.335 52.1064 503.515 51.8298 502.555 51.8298H497.873V58.3746ZM520.872 55.3371C522.396 55.3371 523.779 55.7076 525.021 56.4487C526.274 57.1899 527.27 58.1867 528.012 59.4393C528.753 60.6815 529.123 62.0645 529.123 63.5885C529.123 64.7263 528.909 65.7962 528.481 66.7983C528.053 67.7899 527.458 68.6667 526.696 69.4287C525.945 70.1803 525.068 70.77 524.066 71.198C523.074 71.626 522.01 71.84 520.872 71.84C519.661 71.84 518.607 71.5581 517.709 70.9945C516.822 70.4204 516.112 69.674 515.58 68.7554V71.4329H512.949V47.9468H515.58V58.4216C516.112 57.503 516.822 56.7619 517.709 56.1982C518.607 55.6241 519.661 55.3371 520.872 55.3371ZM520.84 69.2721C521.874 69.2721 522.813 69.0164 523.659 68.5049C524.504 67.9935 525.178 67.3098 525.679 66.4538C526.18 65.5874 526.43 64.6323 526.43 63.5885C526.43 62.5238 526.174 61.5635 525.663 60.7076C525.151 59.8412 524.473 59.1575 523.627 58.6564C522.782 58.145 521.853 57.8892 520.84 57.8892C519.817 57.8892 518.925 58.145 518.163 58.6564C517.411 59.1679 516.827 59.8568 516.409 60.7232C516.002 61.5896 515.799 62.5447 515.799 63.5885C515.799 64.6428 516.002 65.6031 516.409 66.4695C516.827 67.3254 517.417 68.0091 518.179 68.5206C518.941 69.0216 519.828 69.2721 520.84 69.2721Z" fill="white"/>
<path d="M511.609 135.486H508.212L501.291 125.982L499.647 127.955V135.486H497.017V113.566H499.647V123.868L508.274 113.566H511.703L503.013 123.915L511.609 135.486ZM527.137 135.486H524.099L519.934 128.299L517.053 131.744V135.486H514.439V112H517.053V127.657L523.614 119.828H527.058L521.735 126.17L527.137 135.486Z" fill="white"/>
<path d="M514.851 177.618V180.249H507.555V199.539H504.925V180.249H497.644V177.618H514.851ZM526.105 186.512H522.551L522.536 199.539H519.905L519.921 186.512H517.228V183.881H519.921L519.905 178.965H522.536L522.551 183.881H526.105V186.512Z" fill="white"/>
<path d="M503.094 259.729C501.79 259.729 500.621 259.436 499.587 258.852C498.554 258.257 497.667 257.437 496.925 256.394C496.184 255.35 495.621 254.144 495.234 252.777C494.848 251.399 494.655 249.927 494.655 248.361C494.655 246.796 494.848 245.324 495.234 243.946C495.621 242.568 496.184 241.363 496.925 240.329C497.667 239.285 498.554 238.471 499.587 237.887C500.621 237.292 501.79 236.994 503.094 236.994C504.389 236.994 505.553 237.292 506.586 237.887C507.63 238.471 508.512 239.285 509.232 240.329C509.963 241.363 510.521 242.568 510.907 243.946C511.304 245.324 511.502 246.796 511.502 248.361C511.502 249.927 511.304 251.399 510.907 252.777C510.521 254.144 509.963 255.35 509.232 256.394C508.512 257.437 507.63 258.257 506.586 258.852C505.553 259.436 504.389 259.729 503.094 259.729ZM503.094 257.098C504.399 257.098 505.49 256.696 506.367 255.893C507.254 255.078 507.917 254.008 508.355 252.683C508.794 251.357 509.013 249.917 509.013 248.361C509.013 246.723 508.783 245.246 508.324 243.93C507.875 242.605 507.207 241.556 506.32 240.783C505.443 240.011 504.368 239.625 503.094 239.625C502.092 239.625 501.216 239.859 500.464 240.329C499.723 240.799 499.107 241.441 498.616 242.255C498.126 243.069 497.755 244.003 497.505 245.058C497.265 246.101 497.145 247.203 497.145 248.361C497.145 249.917 497.369 251.362 497.818 252.698C498.267 254.024 498.93 255.089 499.806 255.893C500.694 256.696 501.79 257.098 503.094 257.098ZM513.684 259.322V256.989C514.487 256.268 515.39 255.465 516.392 254.577C517.394 253.68 518.391 252.745 519.383 251.775C520.385 250.793 521.304 249.823 522.139 248.862C522.974 247.902 523.647 246.994 524.158 246.138C524.67 245.272 524.926 244.515 524.926 243.868C524.926 243.095 524.738 242.391 524.362 241.754C523.986 241.107 523.48 240.59 522.843 240.204C522.217 239.818 521.518 239.625 520.745 239.625C519.973 239.625 519.263 239.818 518.616 240.204C517.979 240.59 517.468 241.107 517.081 241.754C516.706 242.391 516.518 243.095 516.518 243.868H513.887C513.887 242.584 514.2 241.425 514.827 240.392C515.453 239.348 516.283 238.523 517.316 237.918C518.35 237.302 519.493 236.994 520.745 236.994C521.998 236.994 523.136 237.302 524.158 237.918C525.192 238.534 526.016 239.364 526.632 240.407C527.248 241.441 527.556 242.594 527.556 243.868C527.556 244.598 527.379 245.386 527.024 246.232C526.669 247.067 526.183 247.928 525.568 248.815C524.952 249.703 524.252 250.6 523.47 251.508C522.687 252.406 521.862 253.293 520.996 254.17C520.129 255.047 519.268 255.887 518.412 256.691H527.838V259.322H513.684Z" fill="white"/>
<path d="M573.385 71.84C571.902 71.84 570.509 71.5477 569.204 70.9631C567.899 70.3682 566.751 69.554 565.759 68.5206C564.778 67.4768 564.006 66.2659 563.442 64.8881C562.889 63.5102 562.612 62.0384 562.612 60.4727C562.612 58.907 562.889 57.4352 563.442 56.0573C564.006 54.6795 564.778 53.4738 565.759 52.4405C566.751 51.3966 567.899 50.5824 569.204 49.9979C570.509 49.4029 571.902 49.1054 573.385 49.1054C575.159 49.1054 576.793 49.5177 578.285 50.3424C579.778 51.167 581.015 52.263 581.996 53.6304L579.663 54.883C578.933 53.9227 578.009 53.1607 576.892 52.597C575.785 52.0229 574.616 51.7359 573.385 51.7359C572.247 51.7359 571.182 51.9655 570.19 52.4248C569.209 52.8841 568.348 53.5156 567.607 54.3193C566.866 55.1231 566.287 56.0521 565.869 57.1064C565.452 58.1606 565.243 59.2827 565.243 60.4727C565.243 61.6731 565.452 62.8004 565.869 63.8547C566.297 64.909 566.882 65.838 567.623 66.6417C568.374 67.4454 569.241 68.077 570.222 68.5362C571.213 68.9851 572.268 69.2095 573.385 69.2095C574.658 69.2095 575.838 68.9225 576.923 68.3484C578.019 67.7638 578.933 67.0018 579.663 66.0624L581.996 67.3306C581.015 68.698 579.778 69.7941 578.285 70.6187C576.793 71.4329 575.159 71.84 573.385 71.84ZM595.104 67.2993L597.453 68.5676C596.743 69.5592 595.84 70.3525 594.744 70.9475C593.658 71.5425 592.479 71.84 591.205 71.84C589.765 71.84 588.45 71.4694 587.26 70.7283C586.08 69.9872 585.136 68.9955 584.426 67.7534C583.726 66.5008 583.377 65.1177 583.377 63.6042C583.377 62.456 583.58 61.386 583.987 60.3944C584.394 59.3923 584.953 58.5155 585.663 57.764C586.383 57.002 587.218 56.407 588.168 55.979C589.118 55.5511 590.13 55.3371 591.205 55.3371C592.479 55.3371 593.658 55.6346 594.744 56.2295C595.84 56.8245 596.743 57.6231 597.453 58.6251L595.104 59.8934C594.603 59.2775 594.008 58.8026 593.319 58.4685C592.63 58.1345 591.926 57.9675 591.205 57.9675C590.235 57.9675 589.353 58.2285 588.559 58.7504C587.776 59.2619 587.155 59.9456 586.696 60.8015C586.237 61.6574 586.007 62.5917 586.007 63.6042C586.007 64.6167 586.237 65.5509 586.696 66.4068C587.166 67.2523 587.792 67.9308 588.575 68.4423C589.368 68.9538 590.245 69.2095 591.205 69.2095C591.978 69.2095 592.703 69.0321 593.382 68.6772C594.06 68.3223 594.634 67.863 595.104 67.2993Z" fill="white"/>
<path d="M570.509 135.486V113.566H573.139V132.855H582.957V135.486H570.509ZM586.677 135.486V112H589.292V135.486H586.677Z" fill="white"/>
<path d="M570.97 199.946C569.216 199.946 567.692 199.518 566.398 198.662C565.114 197.806 564.122 196.658 563.423 195.217C562.734 193.766 562.39 192.159 562.39 190.395V177.618H565.02V190.395C565.02 191.647 565.25 192.801 565.709 193.855C566.179 194.909 566.852 195.75 567.729 196.376C568.616 197.002 569.696 197.315 570.97 197.315C572.264 197.315 573.35 197.002 574.227 196.376C575.103 195.739 575.766 194.899 576.215 193.855C576.674 192.801 576.904 191.647 576.904 190.395V177.618H579.535V190.395C579.535 191.721 579.336 192.963 578.94 194.121C578.543 195.27 577.969 196.282 577.217 197.159C576.476 198.036 575.578 198.719 574.524 199.21C573.47 199.701 572.285 199.946 570.97 199.946ZM583.307 192.18V183.881H585.937V192.117C585.937 193.088 586.141 193.975 586.548 194.779C586.955 195.572 587.508 196.209 588.208 196.689C588.907 197.159 589.695 197.394 590.572 197.394C591.449 197.394 592.221 197.159 592.889 196.689C593.568 196.209 594.095 195.572 594.471 194.779C594.857 193.975 595.05 193.088 595.05 192.117V183.881H597.68V199.539H595.05V197.112C594.486 197.989 593.792 198.683 592.968 199.194C592.143 199.706 591.219 199.962 590.196 199.962C588.829 199.962 587.628 199.607 586.595 198.897C585.572 198.187 584.774 197.242 584.199 196.063C583.625 194.883 583.328 193.589 583.307 192.18Z" fill="white"/>
<path d="M572.275 259.729C570.97 259.729 569.801 259.436 568.768 258.852C567.734 258.257 566.847 257.437 566.106 256.394C565.365 255.35 564.801 254.144 564.415 252.777C564.029 251.399 563.836 249.927 563.836 248.361C563.836 246.796 564.029 245.324 564.415 243.946C564.801 242.568 565.365 241.363 566.106 240.329C566.847 239.285 567.734 238.471 568.768 237.887C569.801 237.292 570.97 236.994 572.275 236.994C573.569 236.994 574.733 237.292 575.766 237.887C576.81 238.471 577.692 239.285 578.413 240.329C579.143 241.363 579.702 242.568 580.088 243.946C580.485 245.324 580.683 246.796 580.683 248.361C580.683 249.927 580.485 251.399 580.088 252.777C579.702 254.144 579.143 255.35 578.413 256.394C577.692 257.437 576.81 258.257 575.766 258.852C574.733 259.436 573.569 259.729 572.275 259.729ZM572.275 257.098C573.58 257.098 574.67 256.696 575.547 255.893C576.435 255.078 577.097 254.008 577.536 252.683C577.974 251.357 578.193 249.917 578.193 248.361C578.193 246.723 577.964 245.246 577.504 243.93C577.056 242.605 576.388 241.556 575.5 240.783C574.623 240.011 573.548 239.625 572.275 239.625C571.273 239.625 570.396 239.859 569.644 240.329C568.903 240.799 568.287 241.441 567.797 242.255C567.306 243.069 566.936 244.003 566.685 245.058C566.445 246.101 566.325 247.203 566.325 248.361C566.325 249.917 566.549 251.362 566.998 252.698C567.447 254.024 568.11 255.089 568.987 255.893C569.874 256.696 570.97 257.098 572.275 257.098ZM589.378 259.729C588.052 259.729 586.872 259.431 585.839 258.836C584.816 258.231 584.012 257.427 583.428 256.425C582.843 255.412 582.551 254.29 582.551 253.059H585.181C585.181 253.8 585.354 254.478 585.698 255.094C586.043 255.699 586.528 256.185 587.154 256.55C587.781 256.916 588.522 257.098 589.378 257.098C590.119 257.098 590.808 256.916 591.444 256.55C592.092 256.185 592.613 255.699 593.01 255.094C593.407 254.478 593.605 253.8 593.605 253.059C593.605 252.13 593.365 251.357 592.885 250.741C592.415 250.115 591.758 249.65 590.912 249.348C590.077 249.035 589.122 248.878 588.047 248.878V246.764C589.529 246.764 590.714 246.456 591.601 245.841C592.499 245.225 592.948 244.317 592.948 243.116C592.948 242.479 592.775 241.895 592.431 241.363C592.086 240.83 591.632 240.407 591.069 240.094C590.515 239.771 589.92 239.609 589.284 239.609C588.637 239.609 588.015 239.771 587.42 240.094C586.825 240.407 586.34 240.83 585.964 241.363C585.589 241.895 585.401 242.479 585.401 243.116H582.77C582.77 242.271 582.942 241.477 583.287 240.736C583.642 239.995 584.122 239.343 584.727 238.779C585.343 238.215 586.037 237.777 586.81 237.464C587.582 237.14 588.396 236.978 589.252 236.978C590.369 236.978 591.408 237.255 592.368 237.808C593.329 238.362 594.101 239.103 594.685 240.032C595.28 240.961 595.578 241.989 595.578 243.116C595.578 244.129 595.322 245.063 594.811 245.919C594.299 246.775 593.605 247.375 592.728 247.719C593.49 247.98 594.132 248.387 594.654 248.941C595.176 249.483 595.568 250.11 595.828 250.82C596.1 251.529 596.236 252.276 596.236 253.059C596.236 254.28 595.917 255.397 595.28 256.409C594.654 257.422 593.819 258.231 592.775 258.836C591.742 259.431 590.609 259.729 589.378 259.729Z" fill="white"/>
<path d="M631.723 71.4329V49.5125H638.972C640.486 49.5125 641.905 49.7996 643.231 50.3737C644.557 50.9373 645.721 51.7254 646.723 52.7379C647.725 53.74 648.508 54.9039 649.071 56.2295C649.645 57.5448 649.932 58.9591 649.932 60.4727C649.932 61.9862 649.645 63.4058 649.071 64.7315C648.508 66.0467 647.725 67.2106 646.723 68.2231C645.721 69.2252 644.557 70.0133 643.231 70.5874C641.905 71.151 640.486 71.4329 638.972 71.4329H631.723ZM634.353 68.8024H638.972C640.121 68.8024 641.196 68.5884 642.198 68.1605C643.21 67.7221 644.097 67.1219 644.859 66.3599C645.621 65.5979 646.216 64.7158 646.644 63.7138C647.083 62.7013 647.302 61.6209 647.302 60.4727C647.302 59.3245 647.083 58.2493 646.644 57.2473C646.216 56.2348 645.616 55.3475 644.844 54.5855C644.082 53.8235 643.2 53.2285 642.198 52.8006C641.196 52.3622 640.121 52.143 638.972 52.143H634.353V68.8024ZM665.092 47.9468H667.722V71.4329H665.092V68.7711C664.559 69.6897 663.844 70.4308 662.946 70.9945C662.049 71.5581 660.994 71.84 659.784 71.84C658.646 71.84 657.581 71.626 656.59 71.198C655.598 70.77 654.721 70.1803 653.959 69.4287C653.208 68.6667 652.618 67.7899 652.19 66.7983C651.762 65.8066 651.548 64.7419 651.548 63.6042C651.548 62.4664 651.762 61.4017 652.19 60.4101C652.618 59.408 653.208 58.5312 653.959 57.7796C654.721 57.0176 655.598 56.4227 656.59 55.9947C657.581 55.5667 658.646 55.3527 659.784 55.3527C660.994 55.3527 662.049 55.6346 662.946 56.1982C663.844 56.7619 664.559 57.503 665.092 58.4216V47.9468ZM659.815 69.2878C660.848 69.2878 661.741 69.0373 662.492 68.5362C663.254 68.0248 663.839 67.3358 664.246 66.4695C664.664 65.6031 664.872 64.648 664.872 63.6042C664.872 62.5395 664.664 61.5791 664.246 60.7232C663.828 59.8568 663.239 59.1731 662.477 58.6721C661.725 58.1606 660.838 57.9049 659.815 57.9049C658.782 57.9049 657.842 58.1606 656.997 58.6721C656.162 59.1836 655.494 59.8725 654.992 60.7389C654.491 61.5948 654.241 62.5499 654.241 63.6042C654.241 64.6584 654.497 65.6188 655.008 66.4851C655.52 67.3411 656.198 68.0248 657.044 68.5362C657.889 69.0373 658.813 69.2878 659.815 69.2878Z" fill="white"/>
<path d="M623.44 135.486L627.683 113.566H629.703L635.622 129.129L641.524 113.566H643.544L647.803 135.486H645.126L642.041 119.578L636.483 134.296H634.745L629.186 119.578L626.118 135.486H623.44ZM651.12 135.486V119.828H653.751V122.099C654.273 121.337 654.836 120.726 655.442 120.267C656.047 119.797 656.804 119.562 657.712 119.562C658.944 119.562 660.014 119.86 660.922 120.455C661.83 121.05 662.566 121.864 663.13 122.897C663.704 121.853 664.45 121.039 665.369 120.455C666.287 119.86 667.352 119.562 668.563 119.562C669.888 119.562 671.042 119.902 672.023 120.58C673.015 121.258 673.782 122.161 674.325 123.289C674.878 124.416 675.154 125.653 675.154 127V135.486H672.524V127C672.524 126.112 672.362 125.309 672.039 124.588C671.726 123.858 671.271 123.278 670.676 122.85C670.092 122.412 669.387 122.193 668.563 122.193C667.738 122.193 667.018 122.412 666.402 122.85C665.786 123.278 665.306 123.858 664.962 124.588C664.617 125.309 664.445 126.112 664.445 127V135.486H661.814V127C661.814 126.112 661.642 125.309 661.298 124.588C660.953 123.858 660.473 123.278 659.857 122.85C659.241 122.412 658.526 122.193 657.712 122.193C656.94 122.193 656.256 122.422 655.661 122.882C655.066 123.341 654.596 123.952 654.252 124.714C653.918 125.465 653.751 126.285 653.751 127.172V135.486H651.12Z" fill="white"/>
<path d="M639.915 199.539L631.961 177.618H634.764L641.544 196.329L648.339 177.618H651.142L643.157 199.539H639.915ZM661.271 199.539H657.905L652.19 183.85H654.993L659.58 196.486L664.168 183.85H666.971L661.271 199.539Z" fill="white"/>
<path d="M641.119 259.729C639.814 259.729 638.645 259.436 637.612 258.852C636.578 258.257 635.691 257.437 634.95 256.394C634.209 255.35 633.645 254.144 633.259 252.777C632.873 251.399 632.68 249.927 632.68 248.361C632.68 246.796 632.873 245.324 633.259 243.946C633.645 242.568 634.209 241.363 634.95 240.329C635.691 239.285 636.578 238.471 637.612 237.887C638.645 237.292 639.814 236.994 641.119 236.994C642.413 236.994 643.577 237.292 644.61 237.887C645.654 238.471 646.536 239.285 647.257 240.329C647.987 241.363 648.546 242.568 648.932 243.946C649.329 245.324 649.527 246.796 649.527 248.361C649.527 249.927 649.329 251.399 648.932 252.777C648.546 254.144 647.987 255.35 647.257 256.394C646.536 257.437 645.654 258.257 644.61 258.852C643.577 259.436 642.413 259.729 641.119 259.729ZM641.119 257.098C642.424 257.098 643.514 256.696 644.391 255.893C645.278 255.078 645.941 254.008 646.38 252.683C646.818 251.357 647.037 249.917 647.037 248.361C647.037 246.723 646.808 245.246 646.348 243.93C645.9 242.605 645.232 241.556 644.344 240.783C643.467 240.011 642.392 239.625 641.119 239.625C640.117 239.625 639.24 239.859 638.488 240.329C637.747 240.799 637.131 241.441 636.641 242.255C636.15 243.069 635.78 244.003 635.529 245.058C635.289 246.101 635.169 247.203 635.169 248.361C635.169 249.917 635.393 251.362 635.842 252.698C636.291 254.024 636.954 255.089 637.831 255.893C638.718 256.696 639.814 257.098 641.119 257.098ZM661.134 259.322V253.403H651.708V250.741L660.476 237.401H663.764V250.773H665.941V253.403H663.764V259.322H661.134ZM654.793 250.741L661.134 250.773L661.087 241.096L654.793 250.741Z" fill="white"/>
<path d="M703.147 71.4329V49.5125H716.597V52.143H705.778V58.3746H714.64V61.005H705.778V68.8024H716.597V71.4329H703.147ZM726.183 71.84C724.743 71.84 723.427 71.4694 722.237 70.7283C721.058 69.9872 720.113 68.9955 719.403 67.7534C718.704 66.5008 718.354 65.1177 718.354 63.6042C718.354 62.456 718.558 61.386 718.965 60.3944C719.372 59.3923 719.931 58.5155 720.64 57.764C721.361 57.002 722.196 56.407 723.146 55.979C724.095 55.5511 725.108 55.3371 726.183 55.3371C727.363 55.3371 728.443 55.5772 729.424 56.0573C730.416 56.527 731.261 57.1846 731.961 58.0301C732.671 58.8756 733.198 59.8568 733.542 60.9737C733.897 62.0906 734.027 63.2858 733.934 64.5593H721.157C721.282 65.4465 721.575 66.2398 722.034 66.9392C722.493 67.6281 723.078 68.1761 723.788 68.5832C724.508 68.9903 725.306 69.1991 726.183 69.2095C727.123 69.2095 727.973 68.9694 728.735 68.4893C729.497 67.9987 730.113 67.3306 730.583 66.4851L733.26 67.1114C732.634 68.4997 731.689 69.6375 730.426 70.5247C729.163 71.4015 727.749 71.84 726.183 71.84ZM721.079 62.4925H731.287C731.204 61.6157 730.922 60.8172 730.442 60.0969C729.962 59.3662 729.351 58.7817 728.61 58.3433C727.869 57.9049 727.06 57.6857 726.183 57.6857C725.306 57.6857 724.503 57.8997 723.772 58.3276C723.041 58.7556 722.436 59.3349 721.956 60.0656C721.486 60.7858 721.194 61.5948 721.079 62.4925Z" fill="white"/>
<path d="M701.15 135.486V113.566H704L714.945 130.726V113.566H717.575V135.486H714.741L703.765 118.325V135.486H701.15ZM735.648 127.156V135.486H733.017V127.219C733.017 126.248 732.814 125.366 732.407 124.573C732 123.769 731.446 123.132 730.747 122.662C730.048 122.182 729.26 121.942 728.383 121.942C727.516 121.942 726.744 122.182 726.065 122.662C725.397 123.132 724.87 123.769 724.484 124.573C724.098 125.366 723.905 126.248 723.905 127.219V135.486H721.274V119.828H723.905V122.24C724.468 121.352 725.163 120.658 725.987 120.157C726.822 119.646 727.751 119.39 728.774 119.39C730.131 119.39 731.321 119.745 732.344 120.455C733.377 121.165 734.181 122.109 734.755 123.289C735.34 124.458 735.637 125.747 735.648 127.156Z" fill="white"/>
<path d="M698.21 199.539L692.605 177.618H695.329L699.745 194.92L704.129 177.618H706.493L710.908 194.92L715.308 177.618H718.032L712.458 199.539H709.389L705.319 183.662L701.263 199.539H698.21ZM728.234 199.539H725.572L720.327 183.881H722.895L726.934 195.828L730.927 183.881H733.636L737.644 195.828L741.637 183.881H744.236L738.991 199.539H736.313L732.258 187.483L728.234 199.539Z" fill="white"/>
<path d="M709.378 259.729C708.073 259.729 706.904 259.436 705.871 258.852C704.837 258.257 703.95 257.437 703.209 256.394C702.468 255.35 701.904 254.144 701.518 252.777C701.132 251.399 700.939 249.927 700.939 248.361C700.939 246.796 701.132 245.324 701.518 243.946C701.904 242.568 702.468 241.363 703.209 240.329C703.95 239.285 704.837 238.471 705.871 237.887C706.904 237.292 708.073 236.994 709.378 236.994C710.672 236.994 711.836 237.292 712.87 237.887C713.913 238.471 714.795 239.285 715.516 240.329C716.246 241.363 716.805 242.568 717.191 243.946C717.588 245.324 717.786 246.796 717.786 248.361C717.786 249.927 717.588 251.399 717.191 252.777C716.805 254.144 716.246 255.35 715.516 256.394C714.795 257.437 713.913 258.257 712.87 258.852C711.836 259.436 710.672 259.729 709.378 259.729ZM709.378 257.098C710.683 257.098 711.774 256.696 712.65 255.893C713.538 255.078 714.2 254.008 714.639 252.683C715.077 251.357 715.296 249.917 715.296 248.361C715.296 246.723 715.067 245.246 714.608 243.93C714.159 242.605 713.491 241.556 712.603 240.783C711.727 240.011 710.651 239.625 709.378 239.625C708.376 239.625 707.499 239.859 706.748 240.329C706.006 240.799 705.391 241.441 704.9 242.255C704.409 243.069 704.039 244.003 703.788 245.058C703.548 246.101 703.428 247.203 703.428 248.361C703.428 249.917 703.653 251.362 704.101 252.698C704.55 254.024 705.213 255.089 706.09 255.893C706.977 256.696 708.073 257.098 709.378 257.098ZM727.091 259.729C725.734 259.729 724.503 259.4 723.396 258.742C722.29 258.085 721.413 257.208 720.766 256.112C720.129 255.005 719.811 253.789 719.811 252.464H722.441C722.441 253.309 722.65 254.087 723.067 254.797C723.485 255.496 724.043 256.054 724.743 256.472C725.453 256.889 726.235 257.098 727.091 257.098C727.937 257.098 728.709 256.889 729.409 256.472C730.108 256.054 730.666 255.496 731.084 254.797C731.502 254.087 731.71 253.309 731.71 252.464C731.71 251.618 731.512 250.84 731.115 250.131C730.729 249.421 730.16 248.857 729.409 248.44C728.657 248.012 727.744 247.798 726.669 247.798H721.267L723.396 237.401H733.793V240.032H725.526L724.508 245.167L726.778 245.183C728.271 245.214 729.581 245.548 730.708 246.185C731.846 246.811 732.733 247.667 733.37 248.753C734.017 249.828 734.341 251.065 734.341 252.464C734.341 253.455 734.153 254.395 733.777 255.282C733.401 256.159 732.879 256.931 732.211 257.599C731.543 258.267 730.771 258.789 729.894 259.165C729.028 259.541 728.093 259.729 727.091 259.729Z" fill="white"/>
<path d="M775.432 71.4329V49.5125H788.286V52.143H778.062V58.3746H786.783V61.005H778.062V71.4329H775.432ZM794.032 51.9081V55.7755H798.619V58.4059H794.032V71.4329H791.401V58.4059H789.381V55.7755H791.401V51.9081C791.401 51.1044 791.594 50.3789 791.981 49.7317C792.377 49.0741 792.904 48.5522 793.562 48.166C794.23 47.7693 794.961 47.571 795.754 47.571C796.338 47.571 796.907 47.6911 797.461 47.9311C798.014 48.1608 798.504 48.5052 798.932 48.9645L797.054 50.8277C796.907 50.6294 796.714 50.4781 796.474 50.3737C796.245 50.2589 796.004 50.2015 795.754 50.2015C795.284 50.2015 794.877 50.3685 794.533 50.7025C794.199 51.0365 794.032 51.4384 794.032 51.9081Z" fill="white"/>
<path d="M777.811 135.893C776.329 135.893 774.935 135.601 773.63 135.016C772.326 134.421 771.177 133.602 770.186 132.558C769.194 131.514 768.416 130.308 767.853 128.941C767.289 127.563 767.007 126.091 767.007 124.526C767.007 122.96 767.289 121.493 767.853 120.126C768.416 118.748 769.194 117.537 770.186 116.493C771.177 115.45 772.326 114.635 773.63 114.051C774.935 113.456 776.329 113.158 777.811 113.158C779.304 113.158 780.702 113.456 782.007 114.051C783.312 114.635 784.46 115.45 785.452 116.493C786.443 117.537 787.216 118.748 787.769 120.126C788.333 121.493 788.614 122.96 788.614 124.526C788.614 126.091 788.333 127.563 787.769 128.941C787.216 130.308 786.443 131.514 785.452 132.558C784.46 133.602 783.312 134.421 782.007 135.016C780.702 135.601 779.304 135.893 777.811 135.893ZM777.811 133.262C778.949 133.262 780.008 133.033 780.989 132.574C781.981 132.114 782.847 131.483 783.588 130.679C784.34 129.865 784.925 128.936 785.342 127.892C785.77 126.838 785.984 125.716 785.984 124.526C785.984 123.336 785.77 122.214 785.342 121.159C784.914 120.095 784.324 119.166 783.573 118.372C782.832 117.569 781.965 116.937 780.974 116.478C779.992 116.018 778.938 115.789 777.811 115.789C776.673 115.789 775.608 116.018 774.617 116.478C773.636 116.937 772.769 117.574 772.018 118.388C771.276 119.192 770.692 120.121 770.264 121.175C769.846 122.219 769.638 123.336 769.638 124.526C769.638 125.726 769.852 126.853 770.28 127.908C770.708 128.962 771.292 129.891 772.033 130.695C772.785 131.498 773.651 132.13 774.632 132.589C775.624 133.038 776.683 133.262 777.811 133.262ZM798.345 135.893C796.905 135.893 795.59 135.522 794.4 134.781C793.22 134.04 792.275 133.049 791.566 131.806C790.866 130.554 790.517 129.171 790.517 127.657C790.517 126.509 790.72 125.439 791.127 124.447C791.534 123.445 792.093 122.568 792.803 121.817C793.523 121.055 794.358 120.46 795.308 120.032C796.258 119.604 797.27 119.39 798.345 119.39C799.786 119.39 801.096 119.761 802.275 120.502C803.465 121.243 804.41 122.24 805.109 123.492C805.819 124.745 806.174 126.133 806.174 127.657C806.174 128.795 805.97 129.86 805.563 130.851C805.156 131.843 804.593 132.72 803.872 133.482C803.162 134.233 802.333 134.823 801.383 135.251C800.443 135.679 799.431 135.893 798.345 135.893ZM798.345 133.262C799.326 133.262 800.208 133.007 800.991 132.495C801.785 131.973 802.406 131.29 802.855 130.444C803.314 129.588 803.543 128.659 803.543 127.657C803.543 126.634 803.309 125.695 802.839 124.839C802.38 123.983 801.759 123.299 800.976 122.788C800.193 122.276 799.316 122.02 798.345 122.02C797.364 122.02 796.482 122.281 795.699 122.803C794.916 123.315 794.295 123.999 793.836 124.854C793.377 125.71 793.147 126.645 793.147 127.657C793.147 128.701 793.382 129.651 793.852 130.507C794.321 131.352 794.953 132.026 795.746 132.527C796.539 133.017 797.406 133.262 798.345 133.262Z" fill="white"/>
<path d="M768.162 199.539L776.194 188.516L768.256 177.618H771.497L777.807 186.293L784.132 177.618H787.374L779.451 188.516L787.468 199.539H784.211L777.807 190.771L771.434 199.539H768.162ZM789.668 199.539L795.398 191.679L789.699 183.85H792.94L797.027 189.424L801.098 183.85H804.339L798.639 191.679L804.37 199.539H801.129L797.027 193.902L792.909 199.539H789.668Z" fill="white"/>
<path d="M777.977 259.729C776.673 259.729 775.504 259.436 774.47 258.852C773.437 258.257 772.55 257.437 771.808 256.394C771.067 255.35 770.504 254.144 770.117 252.777C769.731 251.399 769.538 249.927 769.538 248.361C769.538 246.796 769.731 245.324 770.117 243.946C770.504 242.568 771.067 241.363 771.808 240.329C772.55 239.285 773.437 238.471 774.47 237.887C775.504 237.292 776.673 236.994 777.977 236.994C779.272 236.994 780.436 237.292 781.469 237.887C782.513 238.471 783.395 239.285 784.115 240.329C784.846 241.363 785.404 242.568 785.79 243.946C786.187 245.324 786.385 246.796 786.385 248.361C786.385 249.927 786.187 251.399 785.79 252.777C785.404 254.144 784.846 255.35 784.115 256.394C783.395 257.437 782.513 258.257 781.469 258.852C780.436 259.436 779.272 259.729 777.977 259.729ZM777.977 257.098C779.282 257.098 780.373 256.696 781.25 255.893C782.137 255.078 782.8 254.008 783.238 252.683C783.677 251.357 783.896 249.917 783.896 248.361C783.896 246.723 783.666 245.246 783.207 243.93C782.758 242.605 782.09 241.556 781.203 240.783C780.326 240.011 779.251 239.625 777.977 239.625C776.975 239.625 776.099 239.859 775.347 240.329C774.606 240.799 773.99 241.441 773.499 242.255C773.009 243.069 772.638 244.003 772.388 245.058C772.148 246.101 772.028 247.203 772.028 248.361C772.028 249.917 772.252 251.362 772.701 252.698C773.15 254.024 773.813 255.089 774.689 255.893C775.577 256.696 776.673 257.098 777.977 257.098ZM795.691 259.729C794.303 259.729 793.034 259.384 791.886 258.695C790.738 258.006 789.819 257.088 789.13 255.94C788.441 254.781 788.097 253.502 788.097 252.103C788.097 251.321 788.186 250.637 788.363 250.052C788.551 249.468 788.828 248.836 789.193 248.158L795.393 237.401H798.447L794.015 245.089C794.913 244.807 795.806 244.708 796.693 244.791C797.58 244.875 798.42 245.115 799.214 245.512C800.017 245.908 800.727 246.43 801.343 247.077C801.959 247.725 802.444 248.476 802.799 249.332C803.154 250.178 803.332 251.101 803.332 252.103C803.332 253.158 803.128 254.144 802.721 255.063C802.324 255.981 801.776 256.79 801.077 257.49C800.388 258.189 799.579 258.737 798.65 259.134C797.721 259.53 796.735 259.729 795.691 259.729ZM795.691 257.098C796.651 257.098 797.507 256.863 798.259 256.394C799.021 255.924 799.616 255.308 800.044 254.546C800.482 253.784 800.701 252.97 800.701 252.103C800.701 251.195 800.477 250.366 800.028 249.614C799.59 248.862 798.989 248.262 798.227 247.813C797.476 247.354 796.641 247.124 795.722 247.124C794.762 247.124 793.906 247.359 793.154 247.829C792.403 248.299 791.808 248.909 791.369 249.661C790.941 250.412 790.727 251.227 790.727 252.103C790.727 253.053 790.957 253.904 791.416 254.656C791.876 255.407 792.481 256.002 793.233 256.441C793.995 256.879 794.814 257.098 795.691 257.098Z" fill="white"/>
<path d="M845.592 71.84C844.079 71.84 842.664 71.5477 841.349 70.9631C840.044 70.3682 838.901 69.5488 837.92 68.5049C836.949 67.4507 836.187 66.2398 835.634 64.8724C835.081 63.4946 834.804 62.0228 834.804 60.457C834.804 58.8391 835.091 57.3412 835.665 55.9634C836.25 54.5855 837.043 53.3851 838.045 52.3622C839.058 51.3392 840.211 50.5459 841.506 49.9822C842.81 49.4081 844.188 49.1211 845.639 49.1211C847.288 49.1211 848.859 49.5073 850.352 50.2797C851.845 51.0522 853.129 52.1691 854.204 53.6304L851.855 54.8987C851.051 53.8757 850.096 53.0928 848.99 52.5501C847.894 52.0073 846.766 51.7359 845.608 51.7359C844.501 51.7359 843.452 51.9603 842.461 52.4091C841.48 52.858 840.608 53.4843 839.846 54.288C839.094 55.0918 838.505 56.0208 838.077 57.075C837.649 58.1293 837.435 59.2723 837.435 60.504C837.435 61.7044 837.649 62.8317 838.077 63.886C838.505 64.9403 839.089 65.8693 839.83 66.673C840.582 67.4663 841.453 68.0874 842.445 68.5362C843.437 68.9851 844.496 69.2095 845.623 69.2095C846.521 69.2095 847.372 69.0582 848.176 68.7554C848.99 68.4527 849.736 68.0248 850.415 67.4715C851.104 66.9183 851.688 66.2659 852.168 65.5144C852.659 64.7628 853.029 63.9382 853.28 63.0405H847.878V60.6919H856.349C856.338 62.2263 856.046 63.6668 855.472 65.0133C854.908 66.3599 854.131 67.5446 853.139 68.5676C852.158 69.5905 851.02 70.3943 849.726 70.9788C848.442 71.5529 847.064 71.84 845.592 71.84ZM871.122 55.7755H873.752V71.9339C873.752 72.9673 873.528 73.9276 873.079 74.8149C872.641 75.7125 872.046 76.4902 871.294 77.1478C870.542 77.8159 869.687 78.3325 868.726 78.6979C867.766 79.0737 866.764 79.2616 865.72 79.2616C864.634 79.2616 863.585 79.0163 862.573 78.5257C861.56 78.0455 860.673 77.3983 859.911 76.5841C859.16 75.7804 858.617 74.8775 858.283 73.8754L860.694 72.7794C860.892 73.4996 861.247 74.1468 861.759 74.7209C862.281 75.3055 862.886 75.7647 863.575 76.0988C864.274 76.4432 864.989 76.6155 865.72 76.6155C866.409 76.6155 867.072 76.4954 867.708 76.2553C868.356 76.0153 868.935 75.6812 869.446 75.2533C869.968 74.8357 870.375 74.3399 870.668 73.7658C870.97 73.2021 871.122 72.5915 871.122 71.9339V68.8181C870.589 69.7158 869.885 70.4464 869.008 71.0101C868.142 71.5633 867.129 71.84 865.971 71.84C864.864 71.84 863.825 71.626 862.855 71.198C861.884 70.77 861.033 70.1803 860.303 69.4287C859.572 68.6667 858.998 67.7899 858.58 66.7983C858.163 65.8066 857.954 64.7419 857.954 63.6042C857.954 62.4664 858.163 61.4017 858.58 60.4101C858.998 59.408 859.572 58.5312 860.303 57.7796C861.033 57.0176 861.884 56.4227 862.855 55.9947C863.825 55.5667 864.864 55.3527 865.971 55.3527C867.129 55.3527 868.142 55.6293 869.008 56.1826C869.885 56.7358 870.589 57.4665 871.122 58.3746V55.7755ZM865.986 69.2878C866.999 69.2878 867.875 69.0268 868.617 68.5049C869.368 67.983 869.947 67.2889 870.355 66.4225C870.762 65.5561 870.965 64.6167 870.965 63.6042C870.965 62.5603 870.756 61.6105 870.339 60.7545C869.932 59.8882 869.352 59.1992 868.601 58.6878C867.86 58.1658 866.988 57.9049 865.986 57.9049C865.005 57.9049 864.107 58.1606 863.293 58.6721C862.479 59.1836 861.832 59.8725 861.352 60.7389C860.882 61.5948 860.647 62.5499 860.647 63.6042C860.647 64.6584 860.887 65.6188 861.367 66.4851C861.858 67.3411 862.505 68.0248 863.309 68.5362C864.123 69.0373 865.015 69.2878 865.986 69.2878Z" fill="white"/>
<path d="M838.664 135.486V113.566H845.898C847.077 113.566 848.137 113.853 849.076 114.427C850.026 115.001 850.778 115.778 851.331 116.76C851.895 117.73 852.176 118.816 852.176 120.016C852.176 121.238 851.889 122.339 851.315 123.32C850.752 124.291 849.99 125.063 849.029 125.637C848.079 126.201 847.036 126.483 845.898 126.483H841.295V135.486H838.664ZM841.295 123.852H845.663C846.373 123.852 847.02 123.68 847.605 123.336C848.2 122.981 848.669 122.506 849.014 121.911C849.369 121.305 849.546 120.627 849.546 119.875C849.546 119.113 849.369 118.435 849.014 117.84C848.669 117.235 848.2 116.76 847.605 116.415C847.02 116.06 846.373 115.883 845.663 115.883H841.295V123.852ZM857.931 143.315H855.3V119.828H857.931V122.506C858.463 121.587 859.173 120.846 860.06 120.283C860.947 119.708 862.001 119.421 863.223 119.421C864.361 119.421 865.425 119.635 866.417 120.063C867.419 120.491 868.296 121.086 869.047 121.848C869.799 122.6 870.389 123.471 870.817 124.463C871.245 125.455 871.459 126.519 871.459 127.657C871.459 128.795 871.245 129.865 870.817 130.867C870.389 131.869 869.799 132.751 869.047 133.513C868.296 134.265 867.419 134.854 866.417 135.282C865.425 135.71 864.361 135.924 863.223 135.924C862.001 135.924 860.947 135.642 860.06 135.079C859.173 134.505 858.463 133.758 857.931 132.84V143.315ZM863.191 121.974C862.179 121.974 861.292 122.229 860.53 122.741C859.768 123.252 859.178 123.936 858.76 124.792C858.353 125.648 858.15 126.603 858.15 127.657C858.15 128.701 858.353 129.656 858.76 130.522C859.178 131.389 859.762 132.078 860.514 132.589C861.276 133.101 862.168 133.356 863.191 133.356C864.204 133.356 865.133 133.106 865.978 132.605C866.824 132.093 867.502 131.41 868.014 130.554C868.525 129.687 868.781 128.722 868.781 127.657C868.781 126.613 868.531 125.663 868.03 124.808C867.529 123.941 866.855 123.252 866.01 122.741C865.164 122.229 864.225 121.974 863.191 121.974Z" fill="white"/>
<path d="M852.068 177.618H855.168L847.746 189.628V199.539H845.116V189.628L837.694 177.618H840.794L846.431 186.747L852.068 177.618ZM868.717 183.881H871.504L862.939 207.368H860.152L862.986 199.539L857.365 183.881H860.246L864.301 195.922L868.717 183.881Z" fill="white"/>
<path d="M846.348 259.729C845.043 259.729 843.874 259.436 842.84 258.852C841.807 258.257 840.92 257.437 840.179 256.394C839.437 255.35 838.874 254.144 838.488 252.777C838.101 251.399 837.908 249.927 837.908 248.361C837.908 246.796 838.101 245.324 838.488 243.946C838.874 242.568 839.437 241.363 840.179 240.329C840.92 239.285 841.807 238.471 842.84 237.887C843.874 237.292 845.043 236.994 846.348 236.994C847.642 236.994 848.806 237.292 849.839 237.887C850.883 238.471 851.765 239.285 852.485 240.329C853.216 241.363 853.774 242.568 854.161 243.946C854.557 245.324 854.756 246.796 854.756 248.361C854.756 249.927 854.557 251.399 854.161 252.777C853.774 254.144 853.216 255.35 852.485 256.394C851.765 257.437 850.883 258.257 849.839 258.852C848.806 259.436 847.642 259.729 846.348 259.729ZM846.348 257.098C847.652 257.098 848.743 256.696 849.62 255.893C850.507 255.078 851.17 254.008 851.608 252.683C852.047 251.357 852.266 249.917 852.266 248.361C852.266 246.723 852.036 245.246 851.577 243.93C851.128 242.605 850.46 241.556 849.573 240.783C848.696 240.011 847.621 239.625 846.348 239.625C845.345 239.625 844.469 239.859 843.717 240.329C842.976 240.799 842.36 241.441 841.87 242.255C841.379 243.069 841.008 244.003 840.758 245.058C840.518 246.101 840.398 247.203 840.398 248.361C840.398 249.917 840.622 251.362 841.071 252.698C841.52 254.024 842.183 255.089 843.059 255.893C843.947 256.696 845.043 257.098 846.348 257.098ZM857.767 259.322L868.883 240.032H856.311V237.401H871.921V240.032L860.773 259.322H857.767Z" fill="white"/>
<path d="M919.873 49.5125H922.503V71.4329H919.873V61.005H909.022V71.4329H906.392V49.5125H909.022V58.3746H919.873V49.5125ZM940.377 63.1188V71.4329H937.746V63.1814C937.746 62.2107 937.543 61.3234 937.136 60.5197C936.739 59.7159 936.196 59.0792 935.507 58.6095C934.829 58.1397 934.077 57.9049 933.253 57.9049C932.386 57.9049 931.624 58.1397 930.967 58.6095C930.32 59.0792 929.813 59.7159 929.448 60.5197C929.093 61.3234 928.916 62.2107 928.916 63.1814V71.4329H926.27V47.9468H928.9V57.9675C929.391 57.0489 930.027 56.3861 930.81 55.979C931.593 55.5615 932.48 55.3527 933.472 55.3527C934.839 55.3527 936.035 55.7076 937.058 56.4174C938.091 57.1272 938.895 58.0719 939.469 59.2514C940.053 60.4309 940.356 61.7201 940.377 63.1188Z" fill="white"/>
<path d="M922.626 135.94L920.058 133.372C919.161 134.145 918.143 134.75 917.005 135.188C915.878 135.616 914.683 135.83 913.42 135.83C911.927 135.83 910.528 135.538 909.223 134.953C907.919 134.359 906.77 133.544 905.779 132.511C904.787 131.467 904.009 130.256 903.446 128.878C902.893 127.501 902.616 126.029 902.616 124.463C902.616 122.897 902.893 121.431 903.446 120.063C904.009 118.685 904.787 117.475 905.779 116.431C906.77 115.387 907.919 114.573 909.223 113.988C910.528 113.393 911.927 113.096 913.42 113.096C914.912 113.096 916.306 113.393 917.6 113.988C918.905 114.573 920.053 115.387 921.045 116.431C922.036 117.475 922.809 118.685 923.362 120.063C923.926 121.431 924.207 122.897 924.207 124.463C924.207 125.799 923.999 127.062 923.581 128.252C923.174 129.442 922.605 130.522 921.875 131.493L924.489 134.077L922.626 135.94ZM913.42 133.2C914.275 133.2 915.116 133.054 915.94 132.761C916.765 132.459 917.501 132.026 918.148 131.462L915.236 128.565L917.099 126.686L919.917 129.536C920.46 128.816 920.872 128.022 921.154 127.156C921.436 126.279 921.577 125.382 921.577 124.463C921.577 123.263 921.363 122.135 920.935 121.081C920.518 120.027 919.933 119.098 919.181 118.294C918.43 117.49 917.558 116.864 916.567 116.415C915.585 115.956 914.536 115.726 913.42 115.726C912.282 115.726 911.217 115.961 910.225 116.431C909.244 116.89 908.378 117.527 907.626 118.341C906.885 119.145 906.301 120.074 905.873 121.128C905.455 122.172 905.246 123.284 905.246 124.463C905.246 125.663 905.46 126.791 905.888 127.845C906.316 128.899 906.906 129.834 907.658 130.648C908.409 131.451 909.276 132.078 910.257 132.527C911.248 132.975 912.303 133.2 913.42 133.2ZM934.98 135.924C933.466 135.924 932.083 135.554 930.831 134.813C929.589 134.071 928.597 133.075 927.856 131.822C927.115 130.569 926.744 129.181 926.744 127.657C926.744 126.519 926.958 125.455 927.386 124.463C927.814 123.471 928.404 122.6 929.155 121.848C929.917 121.086 930.794 120.491 931.786 120.063C932.778 119.635 933.842 119.421 934.98 119.421C936.191 119.421 937.24 119.708 938.127 120.283C939.025 120.846 939.74 121.587 940.272 122.506V119.828H942.903V143.315H940.272V132.84C939.74 133.758 939.025 134.505 938.127 135.079C937.24 135.642 936.191 135.924 934.98 135.924ZM935.011 121.974C933.978 121.974 933.038 122.229 932.193 122.741C931.347 123.252 930.674 123.941 930.173 124.808C929.683 125.663 929.437 126.613 929.437 127.657C929.437 128.722 929.688 129.687 930.189 130.554C930.7 131.41 931.379 132.093 932.224 132.605C933.07 133.106 933.999 133.356 935.011 133.356C936.045 133.356 936.937 133.101 937.689 132.589C938.44 132.078 939.02 131.389 939.427 130.522C939.844 129.656 940.053 128.701 940.053 127.657C940.053 126.603 939.844 125.648 939.427 124.792C939.02 123.936 938.435 123.252 937.673 122.741C936.921 122.229 936.034 121.974 935.011 121.974Z" fill="white"/>
<path d="M905.826 199.539V196.908L920.028 180.249H905.826V177.618H923.55V180.249L909.349 196.908H923.55V199.539H905.826ZM940.493 186.512L930.88 196.908H940.493V199.539H927.122V196.908L936.751 186.512H927.122V183.881H940.493V186.512Z" fill="white"/>
<path d="M914.779 259.729C913.474 259.729 912.305 259.436 911.272 258.852C910.238 258.257 909.351 257.437 908.61 256.394C907.869 255.35 907.305 254.144 906.919 252.777C906.533 251.399 906.339 249.927 906.339 248.361C906.339 246.796 906.533 245.324 906.919 243.946C907.305 242.568 907.869 241.363 908.61 240.329C909.351 239.285 910.238 238.471 911.272 237.887C912.305 237.292 913.474 236.994 914.779 236.994C916.073 236.994 917.237 237.292 918.27 237.887C919.314 238.471 920.196 239.285 920.916 240.329C921.647 241.363 922.206 242.568 922.592 243.946C922.988 245.324 923.187 246.796 923.187 248.361C923.187 249.927 922.988 251.399 922.592 252.777C922.206 254.144 921.647 255.35 920.916 256.394C920.196 257.437 919.314 258.257 918.27 258.852C917.237 259.436 916.073 259.729 914.779 259.729ZM914.779 257.098C916.084 257.098 917.174 256.696 918.051 255.893C918.938 255.078 919.601 254.008 920.04 252.683C920.478 251.357 920.697 249.917 920.697 248.361C920.697 246.723 920.468 245.246 920.008 243.93C919.559 242.605 918.891 241.556 918.004 240.783C917.127 240.011 916.052 239.625 914.779 239.625C913.777 239.625 912.9 239.859 912.148 240.329C911.407 240.799 910.791 241.441 910.301 242.255C909.81 243.069 909.44 244.003 909.189 245.058C908.949 246.101 908.829 247.203 908.829 248.361C908.829 249.917 909.053 251.362 909.502 252.698C909.951 254.024 910.614 255.089 911.491 255.893C912.378 256.696 913.474 257.098 914.779 257.098ZM932.43 259.729C931.125 259.729 929.935 259.431 928.86 258.836C927.795 258.241 926.944 257.448 926.308 256.456C925.681 255.454 925.368 254.348 925.368 253.137C925.368 252.01 925.666 250.976 926.261 250.037C926.856 249.087 927.633 248.335 928.593 247.782C927.811 247.281 927.163 246.618 926.652 245.794C926.151 244.958 925.9 244.056 925.9 243.085C925.9 241.957 926.193 240.935 926.777 240.016C927.372 239.097 928.16 238.367 929.141 237.824C930.133 237.271 931.229 236.994 932.43 236.994C933.63 236.994 934.721 237.271 935.702 237.824C936.694 238.367 937.482 239.097 938.066 240.016C938.661 240.935 938.959 241.957 938.959 243.085C938.959 244.056 938.708 244.958 938.207 245.794C937.706 246.618 937.054 247.281 936.25 247.782C937.242 248.335 938.03 249.087 938.614 250.037C939.209 250.976 939.507 252.01 939.507 253.137C939.507 254.337 939.188 255.439 938.552 256.441C937.915 257.443 937.059 258.241 935.984 258.836C934.919 259.431 933.734 259.729 932.43 259.729ZM932.43 257.098C933.223 257.098 933.938 256.921 934.575 256.566C935.222 256.211 935.738 255.736 936.125 255.141C936.511 254.536 936.704 253.868 936.704 253.137C936.704 252.396 936.511 251.728 936.125 251.133C935.738 250.538 935.222 250.063 934.575 249.708C933.938 249.353 933.223 249.176 932.43 249.176C931.647 249.176 930.932 249.353 930.284 249.708C929.637 250.063 929.121 250.538 928.734 251.133C928.348 251.728 928.155 252.396 928.155 253.137C928.155 253.868 928.348 254.536 928.734 255.141C929.121 255.736 929.637 256.211 930.284 256.566C930.932 256.921 931.647 257.098 932.43 257.098ZM932.43 246.545C933.118 246.545 933.745 246.389 934.308 246.075C934.872 245.762 935.321 245.345 935.655 244.823C935.999 244.301 936.172 243.722 936.172 243.085C936.172 242.438 935.999 241.858 935.655 241.347C935.321 240.825 934.872 240.407 934.308 240.094C933.745 239.781 933.118 239.625 932.43 239.625C931.741 239.625 931.114 239.781 930.551 240.094C929.987 240.407 929.533 240.825 929.188 241.347C928.854 241.858 928.687 242.438 928.687 243.085C928.687 243.722 928.854 244.301 929.188 244.823C929.533 245.345 929.987 245.762 930.551 246.075C931.114 246.389 931.741 246.545 932.43 246.545Z" fill="white"/>
<path d="M983.603 71.4329V49.5125H986.234V71.4329H983.603ZM990.473 55.7755H993.104V71.4329H990.473V55.7755ZM991.804 52.9102C991.397 52.9102 991.052 52.7745 990.771 52.5031C990.489 52.2317 990.348 51.8924 990.348 51.4854C990.348 51.0783 990.489 50.739 990.771 50.4676C991.052 50.1962 991.397 50.0605 991.804 50.0605C992.211 50.0605 992.556 50.1962 992.837 50.4676C993.119 50.739 993.26 51.0783 993.26 51.4854C993.26 51.8924 993.119 52.2317 992.837 52.5031C992.556 52.7745 992.211 52.9102 991.804 52.9102Z" fill="white"/>
<path d="M978.618 135.486V113.566H986.305C987.485 113.566 988.544 113.853 989.484 114.427C990.434 115.001 991.185 115.778 991.739 116.76C992.292 117.73 992.568 118.816 992.568 120.016C992.568 121.071 992.36 122.031 991.942 122.897C991.525 123.764 990.95 124.489 990.22 125.074C989.5 125.648 988.68 126.044 987.762 126.264L993.085 135.486H990.048L984.834 126.483H981.232V135.486H978.618ZM981.232 123.852H986.055C986.765 123.852 987.412 123.68 987.996 123.336C988.591 122.981 989.061 122.506 989.406 121.911C989.76 121.305 989.938 120.627 989.938 119.875C989.938 119.113 989.76 118.435 989.406 117.84C989.061 117.235 988.591 116.76 987.996 116.415C987.412 116.06 986.765 115.883 986.055 115.883H981.232V123.852ZM1005.44 122.428C1005.18 122.281 1004.9 122.167 1004.6 122.083C1004.29 122 1003.96 121.958 1003.61 121.958C1002.74 121.958 1001.97 122.193 1001.29 122.662C1000.62 123.132 1000.1 123.769 999.711 124.573C999.325 125.376 999.132 126.264 999.132 127.234V135.486H996.486V119.828H999.116V122.24C999.68 121.363 1000.38 120.674 1001.21 120.173C1002.05 119.661 1002.97 119.406 1003.99 119.406C1004.33 119.406 1004.66 119.421 1004.97 119.453C1005.29 119.484 1005.58 119.547 1005.86 119.641L1005.44 122.428Z" fill="white"/>
<path d="M983.084 259.729C981.779 259.729 980.61 259.436 979.577 258.852C978.543 258.257 977.656 257.437 976.915 256.394C976.174 255.35 975.61 254.144 975.224 252.777C974.838 251.399 974.644 249.927 974.644 248.361C974.644 246.796 974.838 245.324 975.224 243.946C975.61 242.568 976.174 241.363 976.915 240.329C977.656 239.285 978.543 238.471 979.577 237.887C980.61 237.292 981.779 236.994 983.084 236.994C984.378 236.994 985.542 237.292 986.575 237.887C987.619 238.471 988.501 239.285 989.221 240.329C989.952 241.363 990.511 242.568 990.897 243.946C991.293 245.324 991.492 246.796 991.492 248.361C991.492 249.927 991.293 251.399 990.897 252.777C990.511 254.144 989.952 255.35 989.221 256.394C988.501 257.437 987.619 258.257 986.575 258.852C985.542 259.436 984.378 259.729 983.084 259.729ZM983.084 257.098C984.389 257.098 985.479 256.696 986.356 255.893C987.243 255.078 987.906 254.008 988.345 252.683C988.783 251.357 989.002 249.917 989.002 248.361C989.002 246.723 988.773 245.246 988.313 243.93C987.865 242.605 987.196 241.556 986.309 240.783C985.432 240.011 984.357 239.625 983.084 239.625C982.082 239.625 981.205 239.859 980.453 240.329C979.712 240.799 979.096 241.441 978.606 242.255C978.115 243.069 977.745 244.003 977.494 245.058C977.254 246.101 977.134 247.203 977.134 248.361C977.134 249.917 977.358 251.362 977.807 252.698C978.256 254.024 978.919 255.089 979.796 255.893C980.683 256.696 981.779 257.098 983.084 257.098ZM997.666 259.322L1002.35 251.242C1001.25 251.566 1000.17 251.623 999.106 251.415C998.052 251.195 997.092 250.767 996.225 250.131C995.359 249.483 994.665 248.669 994.143 247.688C993.621 246.707 993.36 245.616 993.36 244.416C993.36 243.393 993.553 242.432 993.939 241.535C994.325 240.637 994.858 239.849 995.536 239.17C996.215 238.492 996.998 237.96 997.885 237.573C998.783 237.187 999.743 236.994 1000.77 236.994C1002.12 236.994 1003.35 237.328 1004.46 237.996C1005.58 238.664 1006.47 239.562 1007.14 240.689C1007.82 241.806 1008.16 243.048 1008.16 244.416C1008.16 245.157 1008.06 245.814 1007.87 246.389C1007.7 246.952 1007.43 247.568 1007.06 248.236L1000.7 259.322H997.666ZM1000.73 249.191C1001.66 249.191 1002.49 248.972 1003.21 248.534C1003.94 248.085 1004.51 247.495 1004.92 246.764C1005.33 246.034 1005.54 245.251 1005.54 244.416C1005.54 243.508 1005.32 242.693 1004.88 241.973C1004.45 241.242 1003.86 240.668 1003.13 240.251C1002.4 239.823 1001.61 239.609 1000.77 239.609C999.837 239.609 999.007 239.833 998.276 240.282C997.556 240.731 996.987 241.326 996.57 242.067C996.163 242.798 995.959 243.581 995.959 244.416C995.959 245.293 996.168 246.096 996.585 246.827C997.013 247.547 997.587 248.121 998.308 248.549C999.038 248.977 999.847 249.191 1000.73 249.191Z" fill="white"/>
<path d="M30.4266 117.96C25.3251 117.96 20.8917 116.715 17.1263 114.225C13.3913 111.735 10.5066 108.395 8.47207 104.204C6.46792 99.9833 5.46585 95.307 5.46585 90.1752V53.0074H13.118V90.1752C13.118 93.8191 13.7861 97.1745 15.1222 100.241C16.4886 103.308 18.4472 105.753 20.998 107.575C23.5791 109.397 26.7219 110.308 30.4266 110.308C34.1919 110.308 37.35 109.397 39.9007 107.575C42.4514 105.722 44.3797 103.278 45.6854 100.241C47.0215 97.1745 47.6895 93.8191 47.6895 90.1752V53.0074H55.3417V90.1752C55.3417 94.0316 54.7648 97.6452 53.6109 101.016C52.457 104.356 50.7869 107.301 48.6005 109.852C46.4445 112.403 43.8331 114.392 40.7661 115.819C37.6992 117.246 34.2527 117.96 30.4266 117.96ZM91.5693 78.788C90.8102 78.3629 89.9903 78.0288 89.1097 77.7859C88.2291 77.543 87.2726 77.4215 86.2401 77.4215C83.7198 77.4215 81.4727 78.1047 79.4989 79.4712C77.5555 80.8377 76.022 82.69 74.8985 85.0282C73.775 87.3663 73.2132 89.9474 73.2132 92.7714V116.776H65.5155V71.2269H73.1677V78.2414C74.8074 75.6907 76.8419 73.6865 79.2712 72.229C81.7005 70.741 84.3878 69.9971 87.3333 69.9971C88.3354 69.9971 89.2919 70.0426 90.2029 70.1337C91.1139 70.2248 91.9793 70.407 92.7992 70.6803L91.5693 78.788ZM123.97 69.9515C128.404 69.9515 132.427 71.0295 136.041 73.1855C139.684 75.3415 142.584 78.2414 144.74 81.8853C146.896 85.4988 147.974 89.5223 147.974 93.9557C147.974 97.2656 147.352 100.378 146.107 103.293C144.862 106.178 143.131 108.729 140.914 110.945C138.728 113.132 136.177 114.847 133.262 116.092C130.377 117.337 127.28 117.96 123.97 117.96C120.448 117.96 117.381 117.14 114.769 115.5C112.188 113.83 110.123 111.659 108.575 108.987V116.776H100.922V48.4525H108.575V78.9246C110.123 76.2524 112.188 74.0965 114.769 72.4567C117.381 70.7866 120.448 69.9515 123.97 69.9515ZM123.879 110.49C126.885 110.49 129.618 109.746 132.078 108.258C134.537 106.77 136.496 104.781 137.954 102.291C139.411 99.7708 140.14 96.9923 140.14 93.9557C140.14 90.8584 139.396 88.0647 137.908 85.5747C136.42 83.0544 134.446 81.0654 131.987 79.6079C129.527 78.1199 126.825 77.376 123.879 77.376C120.903 77.376 118.307 78.1199 116.09 79.6079C113.904 81.0958 112.203 83.0999 110.989 85.6203C109.805 88.1407 109.212 90.9191 109.212 93.9557C109.212 97.0227 109.805 99.8163 110.989 102.337C112.203 104.827 113.919 106.816 116.136 108.304C118.352 109.761 120.934 110.49 123.879 110.49ZM192.401 71.2269H200.053V116.776H192.355L192.082 109.078C190.655 111.72 188.681 113.861 186.161 115.5C183.671 117.14 180.71 117.96 177.279 117.96C173.908 117.96 170.765 117.337 167.85 116.092C164.935 114.817 162.354 113.071 160.107 110.854C157.89 108.607 156.159 106.026 154.914 103.111C153.669 100.196 153.047 97.053 153.047 93.6824C153.047 90.4333 153.654 87.3663 154.869 84.4816C156.083 81.5968 157.769 79.0765 159.924 76.9205C162.111 74.7341 164.631 73.0337 167.486 71.819C170.34 70.574 173.392 69.9515 176.641 69.9515C180.254 69.9515 183.412 70.8018 186.115 72.5023C188.848 74.1724 191.034 76.3435 192.674 79.0157L192.401 71.2269ZM177.461 110.535C180.497 110.535 183.109 109.776 185.295 108.258C187.481 106.74 189.136 104.705 190.26 102.154C191.414 99.6038 191.93 96.7797 191.809 93.6824C191.687 90.6458 190.974 87.8977 189.668 85.4381C188.362 82.9785 186.601 81.0351 184.384 79.6079C182.167 78.1503 179.586 77.4215 176.641 77.4215C173.635 77.4215 170.902 78.1807 168.442 79.699C165.982 81.2172 164.054 83.2518 162.657 85.8025C161.291 88.3532 160.668 91.1924 160.79 94.3201C160.942 97.3263 161.792 100.059 163.341 102.519C164.889 104.979 166.893 106.937 169.353 108.395C171.843 109.822 174.546 110.535 177.461 110.535ZM251.872 92.5437V116.776H244.22V92.7259C244.22 89.9019 243.627 87.336 242.443 85.0282C241.259 82.69 239.65 80.8377 237.615 79.4712C235.58 78.0744 233.288 77.376 230.737 77.376C228.217 77.376 225.97 78.0744 223.996 79.4712C222.053 80.8377 220.519 82.69 219.395 85.0282C218.272 87.336 217.71 89.9019 217.71 92.7259V116.776H210.058V71.2269H217.71V78.2414C219.35 75.6603 221.369 73.641 223.768 72.1834C226.197 70.6955 228.9 69.9515 231.876 69.9515C235.823 69.9515 239.285 70.984 242.261 73.0488C245.267 75.1137 247.605 77.8618 249.275 81.2932C250.976 84.6941 251.841 88.4443 251.872 92.5437ZM261.855 71.2269H269.508V116.776H261.855V71.2269ZM265.727 62.8915C264.543 62.8915 263.541 62.4967 262.721 61.7072C261.901 60.9177 261.491 59.9308 261.491 58.7465C261.491 57.5623 261.901 56.5754 262.721 55.7859C263.541 54.9964 264.543 54.6016 265.727 54.6016C266.911 54.6016 267.913 54.9964 268.733 55.7859C269.553 56.5754 269.963 57.5623 269.963 58.7465C269.963 59.9308 269.553 60.9177 268.733 61.7072C267.913 62.4967 266.911 62.8915 265.727 62.8915ZM296.843 117.641C294.383 117.55 291.984 117.094 289.646 116.275C287.338 115.424 285.304 114.286 283.542 112.858C281.811 111.401 280.551 109.731 279.762 107.848L286.321 105.024C286.776 106.056 287.596 107.028 288.78 107.939C289.965 108.85 291.331 109.579 292.88 110.126C294.428 110.672 295.992 110.945 297.571 110.945C299.241 110.945 300.805 110.687 302.263 110.171C303.72 109.655 304.905 108.896 305.816 107.894C306.757 106.861 307.228 105.631 307.228 104.204C307.228 102.686 306.711 101.502 305.679 100.651C304.677 99.7708 303.402 99.0875 301.853 98.6017C300.335 98.0855 298.786 97.5996 297.207 97.1441C294.079 96.3546 291.286 95.4133 288.826 94.3201C286.366 93.1966 284.423 91.7846 282.996 90.0841C281.599 88.3532 280.901 86.1517 280.901 83.4795C280.901 80.6555 281.675 78.211 283.223 76.1462C284.803 74.0813 286.867 72.4871 289.418 71.3635C291.969 70.24 294.702 69.6782 297.617 69.6782C301.291 69.6782 304.647 70.4677 307.683 72.0468C310.72 73.6258 312.982 75.7666 314.47 78.4691L308.321 82.0675C307.805 80.9743 307.015 80.0178 305.952 79.1979C304.89 78.3477 303.675 77.6796 302.308 77.1938C300.942 76.7079 299.545 76.4498 298.118 76.4194C296.357 76.3587 294.702 76.5865 293.153 77.1027C291.635 77.6189 290.405 78.4084 289.464 79.4712C288.553 80.5036 288.097 81.7942 288.097 83.3429C288.097 84.8611 288.583 86.015 289.555 86.8046C290.557 87.5941 291.847 88.2318 293.426 88.7176C295.036 89.1731 296.782 89.7045 298.665 90.3118C301.428 91.1924 304.009 92.2097 306.408 93.3636C308.807 94.5175 310.735 95.9599 312.193 97.6907C313.68 99.4216 314.409 101.562 314.379 104.113C314.379 106.907 313.544 109.351 311.874 111.446C310.204 113.511 308.032 115.09 305.36 116.184C302.718 117.277 299.879 117.763 296.843 117.641ZM346.3 78.8791H335.96L335.915 116.776H328.263L328.308 78.8791H320.474V71.2269H328.308L328.263 56.9246H335.915L335.96 71.2269H346.3V78.8791Z" fill="#379FB6"/>
</svg>
