<svg width="800" height="450" viewBox="0 0 800 450" fill="none" xmlns="http://www.w3.org/2000/svg">
<rect width="800" height="450" fill="#D2F4FD"/>
<path d="M161.721 171.024L197.187 232.836H258.76C259.165 230.179 259.375 227.457 259.375 224.687C259.375 195.037 235.338 171 205.687 171H162.427C162.19 171 161.954 171.008 161.721 171.024Z" fill="#1F8197"/>
<path d="M152 190.805L176.116 232.836H152V190.805Z" fill="#1F8197"/>
<path d="M152 251.112V267.947C152 273.706 156.669 278.375 162.427 278.375H202.245L186.602 251.112H152Z" fill="#1F8197"/>
<path d="M221.889 275.887C234.924 271.766 245.808 262.805 252.432 251.112H207.674L221.889 275.887Z" fill="#1F8197"/>
<path d="M286.371 236.013L312.248 171.732H322.398L348.184 236.013H334.925L314.992 183.253H319.564L299.355 236.013H286.371ZM300.087 224.035V213.611H334.651V224.035H300.087Z" fill="#404040"/>
<path d="M368.103 237.019C365.604 237.019 363.135 236.684 360.697 236.013C358.319 235.343 356.125 234.428 354.113 233.27C352.102 232.051 350.364 230.588 348.901 228.881L356.034 221.657C357.557 223.364 359.325 224.644 361.337 225.498C363.349 226.351 365.574 226.778 368.012 226.778C369.963 226.778 371.426 226.504 372.401 225.955C373.437 225.406 373.956 224.583 373.956 223.486C373.956 222.267 373.407 221.322 372.31 220.652C371.273 219.981 369.902 219.432 368.195 219.006C366.488 218.518 364.69 218 362.8 217.451C360.971 216.842 359.203 216.08 357.497 215.165C355.79 214.19 354.388 212.879 353.29 211.233C352.254 209.526 351.736 207.332 351.736 204.65C351.736 201.846 352.406 199.407 353.748 197.335C355.15 195.262 357.131 193.646 359.691 192.488C362.251 191.33 365.269 190.751 368.744 190.751C372.401 190.751 375.693 191.391 378.619 192.671C381.606 193.951 384.075 195.871 386.026 198.432L378.802 205.655C377.461 204.01 375.937 202.821 374.23 202.089C372.584 201.358 370.786 200.992 368.835 200.992C367.067 200.992 365.696 201.266 364.72 201.815C363.806 202.364 363.349 203.126 363.349 204.101C363.349 205.198 363.867 206.052 364.903 206.661C366 207.271 367.402 207.82 369.109 208.307C370.816 208.734 372.584 209.252 374.413 209.862C376.303 210.41 378.07 211.203 379.716 212.239C381.423 213.275 382.795 214.647 383.831 216.354C384.928 218.061 385.477 220.255 385.477 222.937C385.477 227.266 383.922 230.71 380.814 233.27C377.705 235.769 373.468 237.019 368.103 237.019Z" fill="#404040"/>
<path d="M412.116 236.928C407.605 236.928 403.552 235.922 399.955 233.91C396.358 231.899 393.524 229.155 391.451 225.681C389.379 222.206 388.342 218.305 388.342 213.976C388.342 209.587 389.379 205.655 391.451 202.181C393.524 198.706 396.358 195.963 399.955 193.951C403.613 191.879 407.666 190.842 412.116 190.842C415.591 190.842 418.792 191.482 421.718 192.763C424.644 194.043 427.173 195.871 429.307 198.249L421.626 206.021C420.468 204.741 419.066 203.766 417.42 203.095C415.835 202.425 414.067 202.089 412.116 202.089C409.922 202.089 407.941 202.607 406.173 203.644C404.466 204.619 403.094 205.991 402.058 207.759C401.083 209.465 400.595 211.508 400.595 213.885C400.595 216.201 401.083 218.274 402.058 220.103C403.094 221.871 404.466 223.273 406.173 224.309C407.941 225.284 409.922 225.772 412.116 225.772C414.128 225.772 415.926 225.437 417.511 224.766C419.157 224.035 420.559 222.998 421.718 221.657L429.49 229.43C427.234 231.868 424.644 233.727 421.718 235.007C418.792 236.288 415.591 236.928 412.116 236.928Z" fill="#404040"/>
<path d="M433.988 236.013V191.848H446.058V236.013H433.988ZM440.023 184.716C438.072 184.716 436.456 184.076 435.176 182.796C433.896 181.455 433.256 179.809 433.256 177.858C433.256 175.968 433.896 174.353 435.176 173.012C436.456 171.671 438.072 171 440.023 171C442.034 171 443.65 171.671 444.869 173.012C446.149 174.353 446.789 175.968 446.789 177.858C446.789 179.809 446.149 181.455 444.869 182.796C443.65 184.076 442.034 184.716 440.023 184.716Z" fill="#404040"/>
<path d="M454.383 236.013V191.848H466.453V236.013H454.383ZM460.418 184.716C458.467 184.716 456.852 184.076 455.572 182.796C454.291 181.455 453.651 179.809 453.651 177.858C453.651 175.968 454.291 174.353 455.572 173.012C456.852 171.671 458.467 171 460.418 171C462.429 171 464.045 171.671 465.264 173.012C466.544 174.353 467.184 175.968 467.184 177.858C467.184 179.809 466.544 181.455 465.264 182.796C464.045 184.076 462.429 184.716 460.418 184.716Z" fill="#404040"/>
<path d="M483.869 236.013V224.949H500.237C504.382 224.949 508.009 224.096 511.118 222.389C514.227 220.621 516.635 218.152 518.342 214.982C520.11 211.812 520.994 208.063 520.994 203.735C520.994 199.529 520.11 195.871 518.342 192.763C516.574 189.593 514.136 187.154 511.027 185.447C507.918 183.68 504.321 182.796 500.237 182.796H483.595V171.732H500.42C505.175 171.732 509.564 172.524 513.587 174.109C517.671 175.694 521.207 177.949 524.194 180.875C527.242 183.741 529.589 187.124 531.235 191.025C532.942 194.927 533.795 199.194 533.795 203.827C533.795 208.46 532.942 212.757 531.235 216.72C529.589 220.621 527.273 224.035 524.286 226.961C521.299 229.826 517.763 232.051 513.679 233.636C509.655 235.221 505.297 236.013 500.603 236.013H483.869ZM475.366 236.013V171.732H487.801V236.013H475.366Z" fill="#404040"/>
<path d="M560.175 236.928C555.725 236.928 551.702 235.922 548.105 233.91C544.569 231.838 541.735 229.064 539.601 225.589C537.529 222.054 536.492 218.122 536.492 213.794C536.492 209.465 537.529 205.595 539.601 202.181C541.674 198.706 544.509 195.963 548.105 193.951C551.702 191.879 555.695 190.842 560.084 190.842C564.595 190.842 568.618 191.879 572.154 193.951C575.75 195.963 578.585 198.706 580.657 202.181C582.73 205.595 583.766 209.465 583.766 213.794C583.766 218.122 582.73 222.054 580.657 225.589C578.585 229.064 575.75 231.838 572.154 233.91C568.618 235.922 564.625 236.928 560.175 236.928ZM560.084 225.772C562.339 225.772 564.32 225.284 566.027 224.309C567.795 223.273 569.136 221.871 570.051 220.103C571.026 218.274 571.514 216.201 571.514 213.885C571.514 211.569 571.026 209.526 570.051 207.759C569.075 205.991 567.734 204.619 566.027 203.644C564.32 202.607 562.339 202.089 560.084 202.089C557.889 202.089 555.938 202.607 554.232 203.644C552.525 204.619 551.184 205.991 550.208 207.759C549.233 209.526 548.745 211.569 548.745 213.885C548.745 216.201 549.233 218.274 550.208 220.103C551.184 221.871 552.525 223.273 554.232 224.309C555.938 225.284 557.889 225.772 560.084 225.772Z" fill="#404040"/>
<path d="M610.733 236.928C606.222 236.928 602.168 235.922 598.571 233.91C594.975 231.899 592.14 229.155 590.068 225.681C587.995 222.206 586.959 218.305 586.959 213.976C586.959 209.587 587.995 205.655 590.068 202.181C592.14 198.706 594.975 195.963 598.571 193.951C602.229 191.879 606.283 190.842 610.733 190.842C614.207 190.842 617.408 191.482 620.334 192.763C623.26 194.043 625.79 195.871 627.923 198.249L620.242 206.021C619.084 204.741 617.682 203.766 616.036 203.095C614.451 202.425 612.683 202.089 610.733 202.089C608.538 202.089 606.557 202.607 604.789 203.644C603.082 204.619 601.711 205.991 600.674 207.759C599.699 209.465 599.211 211.508 599.211 213.885C599.211 216.201 599.699 218.274 600.674 220.103C601.711 221.871 603.082 223.273 604.789 224.309C606.557 225.284 608.538 225.772 610.733 225.772C612.744 225.772 614.543 225.437 616.128 224.766C617.774 224.035 619.176 222.998 620.334 221.657L628.106 229.43C625.851 231.868 623.26 233.727 620.334 235.007C617.408 236.288 614.207 236.928 610.733 236.928Z" fill="#404040"/>
<path d="M292.403 273.95L287.691 255.527H290.521L293.969 269.042L297.403 255.527H299.89L303.338 269.042L306.773 255.527H309.602L304.917 273.95H301.772L298.64 261.751L295.548 273.95H292.403Z" fill="#404040"/>
<path d="M330.65 274.292C329.404 274.292 328.233 274.047 327.137 273.555C326.04 273.055 325.075 272.367 324.242 271.489C323.408 270.612 322.754 269.599 322.281 268.449C321.807 267.291 321.57 266.054 321.57 264.738C321.57 263.422 321.807 262.19 322.281 261.041C322.754 259.883 323.408 258.865 324.242 257.988C325.075 257.11 326.04 256.426 327.137 255.935C328.233 255.435 329.404 255.185 330.65 255.185C331.905 255.185 333.08 255.435 334.177 255.935C335.274 256.426 336.239 257.11 337.072 257.988C337.906 258.865 338.555 259.883 339.02 261.041C339.493 262.19 339.73 263.422 339.73 264.738C339.73 266.054 339.493 267.291 339.02 268.449C338.555 269.599 337.906 270.612 337.072 271.489C336.239 272.367 335.274 273.055 334.177 273.555C333.08 274.047 331.905 274.292 330.65 274.292ZM330.65 271.555C331.528 271.555 332.348 271.375 333.111 271.016C333.874 270.656 334.545 270.165 335.124 269.542C335.712 268.91 336.168 268.186 336.493 267.37C336.826 266.546 336.993 265.668 336.993 264.738C336.993 263.808 336.826 262.931 336.493 262.107C336.168 261.282 335.712 260.558 335.124 259.935C334.545 259.304 333.874 258.812 333.111 258.461C332.348 258.102 331.528 257.922 330.65 257.922C329.773 257.922 328.953 258.102 328.189 258.461C327.426 258.821 326.751 259.317 326.163 259.948C325.584 260.571 325.128 261.295 324.794 262.12C324.47 262.936 324.307 263.808 324.307 264.738C324.307 265.677 324.47 266.559 324.794 267.384C325.128 268.199 325.584 268.923 326.163 269.555C326.751 270.178 327.426 270.669 328.189 271.029C328.953 271.38 329.773 271.555 330.65 271.555Z" fill="#404040"/>
<path d="M353.132 273.95V255.527H359.909C360.901 255.527 361.796 255.772 362.594 256.264C363.401 256.755 364.037 257.417 364.502 258.251C364.976 259.075 365.213 259.997 365.213 261.014C365.213 261.874 365.05 262.659 364.726 263.37C364.401 264.08 363.954 264.686 363.383 265.186C362.813 265.686 362.155 266.046 361.41 266.265L365.857 273.95H362.699L358.383 266.515H355.856V273.95H353.132ZM355.856 263.778H359.62C360.137 263.778 360.611 263.646 361.041 263.383C361.48 263.12 361.826 262.769 362.081 262.33C362.344 261.892 362.475 261.396 362.475 260.843C362.475 260.29 362.344 259.795 362.081 259.356C361.826 258.909 361.48 258.558 361.041 258.303C360.611 258.04 360.137 257.909 359.62 257.909H355.856V263.778Z" fill="#404040"/>
<path d="M391.788 273.95H388.235L382.747 266.357L381.629 267.712V273.95H378.891V255.527H381.629V263.462L388.261 255.527H391.84L384.55 264.225L391.788 273.95Z" fill="#404040"/>
<path d="M404.612 273.95V255.527H407.349V273.95H404.612Z" fill="#404040"/>
<path d="M421.579 273.95V255.527H424.54L432.989 269.002V255.527H435.726V273.95H432.778L424.303 260.475V273.95H421.579Z" fill="#404040"/>
<path d="M457.595 274.292C456.314 274.292 455.121 274.047 454.016 273.555C452.919 273.055 451.958 272.367 451.134 271.489C450.318 270.603 449.677 269.581 449.212 268.423C448.756 267.265 448.528 266.032 448.528 264.725C448.528 263.348 448.774 262.08 449.265 260.922C449.756 259.764 450.428 258.76 451.279 257.909C452.13 257.049 453.099 256.382 454.187 255.908C455.283 255.435 456.433 255.198 457.635 255.198C458.994 255.198 460.302 255.514 461.556 256.145C462.811 256.777 463.903 257.724 464.833 258.988L462.385 260.317C461.754 259.527 461.017 258.931 460.174 258.527C459.341 258.124 458.486 257.922 457.608 257.922C456.757 257.922 455.95 258.097 455.187 258.448C454.424 258.79 453.748 259.273 453.16 259.896C452.573 260.51 452.108 261.234 451.765 262.067C451.432 262.892 451.265 263.791 451.265 264.765C451.265 265.703 451.428 266.585 451.752 267.41C452.086 268.234 452.542 268.958 453.121 269.581C453.709 270.195 454.384 270.678 455.147 271.029C455.919 271.38 456.744 271.555 457.621 271.555C458.271 271.555 458.894 271.45 459.49 271.239C460.087 271.029 460.639 270.73 461.148 270.344C461.666 269.95 462.118 269.48 462.504 268.936C462.89 268.392 463.197 267.787 463.425 267.12H459.516V264.699H466.636C466.653 266.015 466.425 267.252 465.951 268.41C465.486 269.568 464.837 270.59 464.004 271.476C463.179 272.353 462.219 273.042 461.122 273.542C460.025 274.042 458.85 274.292 457.595 274.292Z" fill="#404040"/>
<path d="M504.135 274.292C502.854 274.292 501.661 274.047 500.555 273.555C499.459 273.055 498.498 272.367 497.673 271.489C496.858 270.603 496.217 269.581 495.752 268.423C495.296 267.265 495.068 266.032 495.068 264.725C495.068 263.348 495.313 262.08 495.805 260.922C496.296 259.764 496.967 258.76 497.818 257.909C498.669 257.049 499.639 256.382 500.726 255.908C501.823 255.435 502.972 255.198 504.174 255.198C505.534 255.198 506.841 255.514 508.096 256.145C509.35 256.777 510.443 257.724 511.373 258.988L508.925 260.317C508.293 259.527 507.556 258.931 506.714 258.527C505.881 258.124 505.025 257.922 504.148 257.922C503.297 257.922 502.49 258.097 501.727 258.448C500.963 258.79 500.288 259.273 499.7 259.896C499.112 260.51 498.647 261.234 498.305 262.067C497.972 262.892 497.805 263.791 497.805 264.765C497.805 265.703 497.967 266.585 498.292 267.41C498.625 268.234 499.082 268.958 499.661 269.581C500.248 270.195 500.924 270.678 501.687 271.029C502.459 271.38 503.284 271.555 504.161 271.555C504.81 271.555 505.433 271.45 506.03 271.239C506.626 271.029 507.179 270.73 507.688 270.344C508.205 269.95 508.657 269.48 509.043 268.936C509.429 268.392 509.736 267.787 509.964 267.12H506.056V264.699H513.175C513.193 266.015 512.965 267.252 512.491 268.41C512.026 269.568 511.377 270.59 510.543 271.476C509.719 272.353 508.758 273.042 507.662 273.542C506.565 274.042 505.389 274.292 504.135 274.292Z" fill="#404040"/>
<path d="M526.328 273.95V255.527H533.105C534.096 255.527 534.991 255.772 535.789 256.264C536.596 256.755 537.232 257.417 537.697 258.251C538.171 259.075 538.408 259.997 538.408 261.014C538.408 261.874 538.246 262.659 537.921 263.37C537.597 264.08 537.149 264.686 536.579 265.186C536.009 265.686 535.351 266.046 534.605 266.265L539.053 273.95H535.895L531.578 266.515H529.052V273.95H526.328ZM529.052 263.778H532.815C533.333 263.778 533.807 263.646 534.236 263.383C534.675 263.12 535.022 262.769 535.276 262.33C535.539 261.892 535.671 261.396 535.671 260.843C535.671 260.29 535.539 259.795 535.276 259.356C535.022 258.909 534.675 258.558 534.236 258.303C533.807 258.04 533.333 257.909 532.815 257.909H529.052V263.778Z" fill="#404040"/>
<path d="M559.998 274.292C558.752 274.292 557.581 274.047 556.484 273.555C555.388 273.055 554.423 272.367 553.589 271.489C552.756 270.612 552.102 269.599 551.629 268.449C551.155 267.291 550.918 266.054 550.918 264.738C550.918 263.422 551.155 262.19 551.629 261.041C552.102 259.883 552.756 258.865 553.589 257.988C554.423 257.11 555.388 256.426 556.484 255.935C557.581 255.435 558.752 255.185 559.998 255.185C561.253 255.185 562.428 255.435 563.525 255.935C564.621 256.426 565.586 257.11 566.42 257.988C567.253 258.865 567.903 259.883 568.368 261.041C568.841 262.19 569.078 263.422 569.078 264.738C569.078 266.054 568.841 267.291 568.368 268.449C567.903 269.599 567.253 270.612 566.42 271.489C565.586 272.367 564.621 273.055 563.525 273.555C562.428 274.047 561.253 274.292 559.998 274.292ZM559.998 271.555C560.875 271.555 561.696 271.375 562.459 271.016C563.222 270.656 563.893 270.165 564.472 269.542C565.06 268.91 565.516 268.186 565.841 267.37C566.174 266.546 566.341 265.668 566.341 264.738C566.341 263.808 566.174 262.931 565.841 262.107C565.516 261.282 565.06 260.558 564.472 259.935C563.893 259.304 563.222 258.812 562.459 258.461C561.696 258.102 560.875 257.922 559.998 257.922C559.121 257.922 558.3 258.102 557.537 258.461C556.774 258.821 556.098 259.317 555.511 259.948C554.932 260.571 554.475 261.295 554.142 262.12C553.817 262.936 553.655 263.808 553.655 264.738C553.655 265.677 553.817 266.559 554.142 267.384C554.475 268.199 554.932 268.923 555.511 269.555C556.098 270.178 556.774 270.669 557.537 271.029C558.3 271.38 559.121 271.555 559.998 271.555Z" fill="#404040"/>
<path d="M589.253 274.292C587.779 274.292 586.493 273.933 585.397 273.213C584.309 272.494 583.462 271.529 582.857 270.318C582.26 269.099 581.962 267.748 581.962 266.265V255.527H584.699V266.265C584.699 267.23 584.875 268.116 585.226 268.923C585.585 269.722 586.103 270.362 586.779 270.844C587.463 271.318 588.288 271.555 589.253 271.555C590.244 271.555 591.077 271.318 591.753 270.844C592.428 270.362 592.937 269.722 593.279 268.923C593.63 268.116 593.806 267.23 593.806 266.265V255.527H596.543V266.265C596.543 267.379 596.372 268.423 596.03 269.397C595.688 270.362 595.196 271.213 594.556 271.95C593.915 272.687 593.148 273.261 592.253 273.674C591.358 274.086 590.358 274.292 589.253 274.292Z" fill="#404040"/>
<path d="M609.961 273.95V255.527H616.304C617.296 255.527 618.19 255.772 618.989 256.264C619.796 256.755 620.436 257.417 620.91 258.251C621.393 259.084 621.634 260.005 621.634 261.014C621.634 262.041 621.388 262.971 620.897 263.804C620.414 264.629 619.77 265.287 618.962 265.778C618.155 266.269 617.269 266.515 616.304 266.515H612.698V273.95H609.961ZM612.698 263.778H616.028C616.554 263.778 617.032 263.646 617.462 263.383C617.901 263.12 618.247 262.769 618.502 262.33C618.765 261.892 618.897 261.396 618.897 260.843C618.897 260.29 618.765 259.795 618.502 259.356C618.247 258.909 617.901 258.558 617.462 258.303C617.032 258.04 616.554 257.909 616.028 257.909H612.698V263.778Z" fill="#404040"/>
<path d="M634.371 177.801C634.371 175.997 635.089 174.268 636.367 172.993C637.645 171.717 639.378 171.001 641.186 171.001C642.993 171.001 644.726 171.717 646.004 172.993C647.282 174.268 648 175.997 648 177.801V177.801C648 179.604 647.282 181.334 646.004 182.609C644.726 183.884 642.993 184.601 641.186 184.601C639.378 184.601 637.645 183.884 636.367 182.609C635.089 181.334 634.371 179.604 634.371 177.801ZM647.212 177.801C647.212 176.206 646.577 174.677 645.447 173.549C644.317 172.421 642.784 171.788 641.186 171.788C639.587 171.788 638.055 172.421 636.925 173.549C635.795 174.677 635.16 176.206 635.16 177.801V177.801C635.144 178.597 635.288 179.388 635.585 180.127C635.881 180.867 636.324 181.539 636.886 182.104C637.448 182.669 638.119 183.115 638.857 183.417C639.596 183.718 640.388 183.868 641.186 183.858C641.988 183.862 642.784 183.707 643.526 183.401C644.268 183.096 644.942 182.646 645.508 182.078C646.074 181.51 646.522 180.836 646.824 180.094C647.127 179.352 647.279 178.557 647.271 177.756L647.212 177.801ZM638.374 174.134H641.811C643.462 174.134 644.667 174.876 644.667 176.479C644.69 176.976 644.542 177.465 644.246 177.865C643.951 178.265 643.527 178.551 643.045 178.677L644.786 181.156H642.718L641.23 178.929H640.129V181.156H638.418L638.374 174.134ZM641.572 177.563C642.361 177.563 642.793 177.177 642.793 176.598C642.793 176.019 642.316 175.618 641.572 175.618H640.085V177.563H641.572Z" fill="#404040"/>
</svg>
