<svg width="800" height="450" viewBox="0 0 800 450" fill="none" xmlns="http://www.w3.org/2000/svg">
<rect width="800" height="450" fill="#333333"/>
<path fill-rule="evenodd" clip-rule="evenodd" d="M529.912 132.839H267.5L300.61 191.617L324.788 180.886L322.57 196.779L330.332 191.604L329.223 176.081L345.855 164.254L351.768 163.515L361.747 151.688L381.335 147.622L393.163 141.709H416.078L421.252 149.84L426.426 146.514L437.144 146.144L451.928 155.014V180.886L456.362 181.625L457.472 186.43L470.407 186.8L460.428 170.168L512.09 163.083L529.912 132.839ZM480.254 217.106H460.428V235.586L425.317 271.436L423.931 312.277L395.815 360.397L480.254 217.106ZM395.75 360.508L359.622 296.199L358.79 265.523L337.723 220.433L316.744 220.258L395.749 360.508L395.75 360.508Z" fill="#7EA330"/>
<path d="M481.497 191.974L472.996 174.973L519.935 172.386L528.805 192.344L486.302 190.495L495.542 210.824L460.799 210.454L458.951 192.344L481.497 191.974Z" fill="#7EA330"/>
<path d="M287.09 203.061L314.44 191.974L314.809 204.91L334.398 197.887L346.224 206.758L343.638 214.888H303.352L305.569 202.691L287.09 203.061Z" fill="#7EA330"/>
<path d="M406.836 202.691L410.162 221.17C410.162 221.17 414.598 223.388 424.207 219.323C433.816 215.257 437.511 214.148 437.511 214.148C437.511 214.148 437.881 216.367 433.447 219.323C429.011 222.279 420.51 223.757 420.51 223.757C420.51 223.757 424.207 226.715 429.75 224.498C435.294 222.28 437.142 221.171 437.142 221.171C437.142 221.171 437.142 227.824 432.707 228.932C428.272 230.041 417.184 227.454 411.64 227.824C406.097 228.194 403.509 232.998 403.14 236.694C402.77 240.391 405.357 251.108 405.357 251.108C405.357 251.108 399.444 243.347 399.444 237.803C399.444 232.258 400.553 228.563 400.553 228.563L391.313 227.454L387.247 221.171L368.49 222.188C368.49 222.188 368.398 237.064 375.42 245.933C382.443 254.803 390.205 261.087 390.205 261.087L395.748 344.245L417.924 311.351L418.293 268.479L400.183 262.565C400.183 262.565 414.967 264.043 422.358 260.717C429.75 257.391 448.231 240.76 451.187 235.216C454.143 229.671 450.447 189.386 450.447 189.386C450.447 189.386 438.25 194.93 426.054 198.626C413.857 202.322 406.836 202.691 406.836 202.691Z" fill="#7EA330"/>
<path d="M423.098 155.014C423.098 155.014 429.011 151.318 436.403 153.536C443.795 155.753 446.013 157.232 446.013 157.232V181.625C446.013 181.625 442.686 183.843 437.142 186.43C431.599 189.017 427.903 189.017 427.903 189.017C427.903 189.017 426.794 172.016 425.316 164.994C423.837 157.971 423.098 155.014 423.098 155.014Z" fill="#7EA330"/>
<path d="M396.488 146.514H410.532C410.532 146.514 416.447 153.166 417.925 160.928C419.403 168.689 420.142 192.343 420.142 192.343C420.142 192.343 415.338 194.192 409.054 194.931C402.771 195.67 400.554 195.3 400.554 195.3C400.554 195.3 399.074 169.798 397.966 161.298C396.857 152.797 396.488 146.514 396.488 146.514Z" fill="#7EA330"/>
<path d="M368.77 156.492L380.966 152.796C380.966 152.796 389.466 158.34 390.945 168.689C392.424 179.037 391.684 194.93 391.684 194.93L374.683 197.886C374.683 197.886 373.204 173.493 371.356 166.471C369.508 159.448 368.77 156.492 368.77 156.492Z" fill="#7EA330"/>
<path d="M342.896 176.45C342.896 176.45 345.484 171.276 350.658 170.907C355.832 170.537 358.789 171.646 358.789 171.646L365.442 197.517C365.442 197.517 364.703 198.996 359.898 200.844C355.093 202.691 352.137 202.322 352.137 202.322C352.137 202.322 347.332 190.495 345.854 185.69C344.376 180.886 342.896 176.45 342.896 176.45Z" fill="#7EA330"/>
<path d="M354.354 167.211L362.854 158.341C362.854 158.341 367.289 162.406 368.028 167.211C368.767 172.016 368.398 190.865 368.398 190.865C368.398 190.865 364.332 169.798 361.745 168.69C359.158 167.581 354.354 167.211 354.354 167.211Z" fill="#7EA330"/>
<path d="M339.571 175.342L334.396 180.147L334.766 190.865L346.223 199.365L340.679 184.582L339.571 175.342Z" fill="#7EA330"/>
<path d="M392.423 147.994L386.139 150.581L393.162 161.669L392.423 147.994Z" fill="#7EA330"/>
<path d="M389.836 205.279L401.662 204.171L405.359 223.02H394.27L389.836 205.279Z" fill="#7EA330"/>
<path d="M385.77 200.843L373.574 203.06L370.986 215.996L384.292 214.887L383.553 203.06L385.77 200.843Z" fill="#7EA330"/>
<path d="M366.18 203.431C366.18 203.431 363.592 205.648 359.157 206.018C354.722 206.387 352.874 206.387 352.874 206.387L351.766 215.257L363.592 215.996L366.18 203.431Z" fill="#7EA330"/>
<path d="M347.701 221.911L362.115 221.356L361.376 227.455L357.311 228.564L362.485 229.672C362.485 229.672 362.947 231.706 364.01 234.569C364.173 235.011 361.284 236.879 361.284 236.879C361.284 236.879 364.853 236.698 365.02 237.086C366.038 239.43 367.393 242.041 369.137 244.456C373.942 251.109 384.29 262.566 384.29 262.566L377.638 264.044L384.66 266.263L388.357 333.528L366.181 296.569L365.442 268.48L370.616 265.523L364.333 263.305L347.701 221.911Z" fill="#7EA330"/>
<path d="M284.905 95.75C289.493 95.75 296.974 97.7242 296.974 102.588V105.25H293.946V103.46C293.946 100.431 288.714 98.7791 284.996 98.7791C277.837 98.7791 272.33 104.378 272.33 112.18C272.33 119.89 277.791 126.086 285.134 126.086C291.788 126.086 295.689 121.542 295.689 121.542L297.526 123.883C297.526 123.883 293.074 129.114 285.089 129.114C275.635 129.114 268.98 121.588 268.98 112.18C268.98 102.863 275.818 95.75 284.905 95.75Z" fill="#7EA330" stroke="#7EA330" stroke-width="0.118283"/>
<path d="M330.846 125.718H331.442C332.268 125.718 332.773 125.58 333.094 124.708L343.65 96.3008H347.092L357.647 124.708C357.969 125.58 358.428 125.718 359.3 125.718H359.85V128.563H358.382C356.087 128.563 355.399 128.105 354.573 125.902L351.773 118.284H338.969L336.124 125.902C335.298 128.105 334.655 128.563 332.36 128.563H330.846V125.718ZM350.901 115.484L346.633 103.965C346.082 102.45 345.393 99.7884 345.393 99.7884H345.302C345.302 99.7884 344.614 102.45 344.062 103.965L339.841 115.484H350.901Z" fill="#7EA330" stroke="#7EA330" stroke-width="0.118283"/>
<path d="M396.568 100.155C396.568 99.4668 396.201 99.1464 395.559 99.1464H393.586V96.3008H396.982C398.956 96.3008 399.781 97.1268 399.781 99.0999V124.708C399.781 125.397 400.148 125.718 400.791 125.718H411.484C412.126 125.718 412.493 125.397 412.493 124.708V122.551H415.522V125.763C415.522 127.737 414.696 128.563 412.723 128.563H399.368C397.394 128.563 396.568 127.737 396.568 125.763V100.155Z" fill="#7EA330" stroke="#7EA330" stroke-width="0.118283"/>
<path d="M455.497 114.52L446.869 100.339C446.273 99.3754 445.676 99.1464 444.713 99.1464H443.979V96.3008H445.217C447.42 96.3008 448.246 96.6223 449.622 98.8709L455.085 108.003C456.094 109.701 457.059 111.63 457.059 111.63H457.15C457.15 111.63 458.114 109.701 459.123 108.003L464.585 98.8709C465.962 96.6223 466.788 96.3008 468.991 96.3008H470.229V99.1464H469.495C468.577 99.1464 467.936 99.376 467.385 100.339L458.711 114.52V128.563H455.497V114.52Z" fill="#7EA330" stroke="#7EA330" stroke-width="0.118283"/>
<path d="M512.869 111.721L505.892 100.339C505.25 99.2834 504.516 99.1464 503.597 99.1464H502.635V96.3008H504.332C506.581 96.3008 507.499 96.7138 508.784 98.8709L512.914 105.801C513.877 107.453 514.979 109.472 514.979 109.472H515.07C515.07 109.472 516.035 107.453 517.045 105.801L521.174 98.8709C522.459 96.7138 523.378 96.3008 525.626 96.3008H527.325V99.1464H526.362C525.444 99.1464 524.71 99.2839 524.067 100.339L517.045 111.721L527.37 128.563H523.699L516.998 117.457C515.99 115.759 514.934 113.923 514.934 113.923H514.842C514.842 113.923 513.924 115.851 512.914 117.503L506.26 128.563H502.588L512.869 111.721Z" fill="#7EA330" stroke="#7EA330" stroke-width="0.118283"/>
</svg>
