<svg width="751" height="623" viewBox="0 0 751 623" fill="none" xmlns="http://www.w3.org/2000/svg">
<path fill-rule="evenodd" clip-rule="evenodd" d="M437.261 58.327L438.436 61.3957L441.385 59.9468C445.449 57.9506 450.021 56.8281 454.864 56.8281C471.771 56.8281 485.477 70.5337 485.477 87.4404C485.477 104.347 471.771 118.053 454.864 118.053C446.219 118.053 438.416 114.473 432.845 108.708L430.688 106.474L428.53 108.708C422.96 114.473 415.156 118.053 406.511 118.053L388.509 118.053L388.509 121.053L406.511 121.053C415.164 121.053 423.053 117.783 429.011 112.413C429.588 111.892 430.148 111.351 430.688 110.792C431.228 111.351 431.788 111.892 432.365 112.412C438.323 117.783 446.212 121.053 454.864 121.053C473.428 121.053 488.477 106.004 488.477 87.4404C488.477 68.8768 473.428 53.8281 454.864 53.8281C450.618 53.8281 446.555 54.6155 442.815 56.0524C441.876 56.4129 440.958 56.8142 440.063 57.2542C439.703 56.316 439.315 55.3923 438.898 54.4841C431.475 38.2998 415.129 27.0591 396.158 27.0591C377.445 27.0591 361.286 37.9968 353.726 53.828L337.767 53.828C319.203 53.828 304.154 68.8768 304.154 87.4404C304.154 106.004 319.203 121.053 337.767 121.053L345.469 121.053L345.469 118.053L337.767 118.053C320.86 118.053 307.154 104.347 307.154 87.4404C307.154 70.5337 320.86 56.828 337.767 56.828L353.726 56.828L355.618 56.828L356.433 55.1208C363.514 40.2932 378.644 30.0591 396.158 30.0591C414.91 30.0591 430.929 41.7917 437.261 58.327Z" fill="white"/>
<path d="M393.516 139.669L393.493 139.693L393.471 139.719L368.969 168.21C368.968 168.212 368.966 168.214 368.964 168.216C368.565 168.668 368.1 169.013 367.602 169.239C367.102 169.466 366.575 169.573 366.05 169.559L366.03 169.559H366.01H365.929H365.91L365.892 169.559C365.364 169.572 364.834 169.465 364.331 169.237C363.831 169.01 363.363 168.666 362.962 168.214L338.489 139.744C338.421 139.657 338.355 139.585 338.308 139.533C338.274 139.496 338.255 139.475 338.24 139.46C338.229 139.448 338.221 139.439 338.212 139.429C337.491 138.544 337.084 137.341 337.122 136.076C337.16 134.8 337.644 133.628 338.421 132.806L338.422 132.804C339.278 131.897 340.369 131.427 341.463 131.427C342.546 131.427 343.627 131.888 344.478 132.778L358.972 149.877L361.616 152.996V148.907V104.766C361.676 103.409 362.195 102.161 363.021 101.269C363.847 100.377 364.908 99.9161 365.97 99.9161C367.032 99.9161 368.092 100.377 368.919 101.269L370.013 100.255L368.919 101.269C369.745 102.161 370.263 103.409 370.323 104.766V148.907V152.999L372.968 149.876L387.45 132.778C388.303 131.888 389.385 131.427 390.471 131.427C391.561 131.427 392.648 131.892 393.503 132.79C393.573 132.869 393.642 132.947 393.723 133.038C394.445 133.926 394.851 135.13 394.814 136.396C394.776 137.672 394.292 138.845 393.516 139.669Z" fill="#A4C954" stroke="#333333" stroke-width="3"/>
<circle cx="383.898" cy="361.96" r="132.464" fill="#FFE924" stroke="#333333" stroke-width="3" stroke-linecap="round"/>
<path d="M526.811 351.994L525.853 353.147L526.811 351.994C525.023 350.508 522.488 350.323 520.504 351.533L249.454 516.783C246.268 518.725 245.939 523.226 248.809 525.611L332.861 595.444C334.649 596.929 337.183 597.114 339.168 595.904L610.218 430.655C613.404 428.712 613.733 424.212 610.863 421.827L526.811 351.994Z" fill="#628026" stroke="#333333" stroke-width="3" stroke-linecap="round"/>
<path d="M423.233 465.701C423.245 465.701 423.245 465.701 423.245 465.701L423.245 465.689C423.244 465.668 423.243 465.63 423.244 465.573C423.244 465.46 423.248 465.276 423.263 465.02C423.295 464.507 423.373 463.705 423.564 462.608C423.945 460.414 424.778 457.039 426.59 452.438C430.215 443.233 437.758 429.126 453.439 409.771C466.293 393.905 470.876 381.908 472.047 373.387C472.632 369.125 472.359 365.761 471.862 363.253C471.459 361.222 470.897 359.726 470.592 358.915C470.524 358.735 470.469 358.589 470.432 358.478C469.812 356.654 467.9 354.06 464.782 352.453C461.584 350.805 457.191 350.228 451.724 352.377C441.068 356.567 428.644 366.838 419.49 391.164C415.02 403.043 406.315 427.648 420.337 466.292L423.233 465.701Z" fill="#A4C954" stroke="#333333" stroke-width="3" stroke-linecap="round"/>
<path d="M453.205 254.612C428.816 281.728 310.243 371.58 395.924 549.679" stroke="#333333" stroke-width="3" stroke-linecap="round"/>
<path d="M337.237 532.903L334.239 532.811C334.282 531.086 333.817 519.502 325.704 506.377C317.622 493.302 301.866 478.558 271.097 470.548C249.048 464.809 237.633 458.696 232.019 452.441C229.174 449.271 227.829 446.078 227.35 442.944C226.876 439.847 227.261 436.885 227.744 434.214C228.126 432.105 229.932 427.447 233.528 423.333C237.166 419.169 242.73 415.463 250.584 415.609C265.661 415.89 285.603 422.318 307.275 446.34C317.85 458.061 339.077 482.593 337.237 532.903Z" fill="#A4C954" stroke="#333333" stroke-width="3" stroke-linecap="round"/>
<path d="M336.821 540.583L339.424 539.091C339.109 538.534 336.939 534.075 337.363 527.46C337.783 520.904 340.76 512.066 350.96 502.672C358.395 495.824 361.741 490.921 362.694 487.057C363.184 485.071 363.038 483.378 362.518 481.9C362.012 480.458 361.174 479.293 360.415 478.333C359.729 477.465 357.929 475.934 355.534 475.025C353.077 474.092 349.867 473.769 346.564 475.609C340.509 478.982 333.932 485.847 330.42 499.931C328.704 506.811 325.481 521.058 336.821 540.583Z" fill="#A4C954" stroke="#333333" stroke-width="3" stroke-linecap="round"/>
<path d="M369.346 391.771L368.294 395.906L366.527 392.023C365.591 389.967 365.029 387.772 364.444 385.484C364.355 385.139 364.266 384.792 364.176 384.443C363.473 381.739 362.622 378.752 361.003 375.252C357.769 368.258 351.39 359.044 336.732 346.165C324.763 335.65 319.693 328.921 317.746 324.398C316.755 322.096 316.554 320.324 316.698 318.906C316.769 318.208 316.92 317.636 317.062 317.183C317.138 316.937 317.194 316.775 317.236 316.652C317.287 316.503 317.318 316.411 317.345 316.296C318.045 313.261 322.777 307.595 332.27 309.829C341.416 311.981 352.625 318.504 362.545 335.769C367.388 344.198 376.981 361.749 369.346 391.771Z" fill="#A4C954" stroke="#333333" stroke-width="3" stroke-linecap="round"/>
<path d="M547.365 441.559L550.318 441.274C551.05 427.891 554.262 420.528 559.269 415.267C563.474 410.85 568.983 407.834 575.835 404.083C577.341 403.259 578.911 402.399 580.547 401.482C591.386 395.4 595.883 387.901 597.531 381.525C599.135 375.316 597.995 370.336 597.71 369.091C597.704 369.068 597.7 369.047 597.695 369.027C597.021 366.074 592.45 360.593 583.28 362.726C574.457 364.779 563.643 371.041 554.049 387.642C549.365 395.748 540.084 412.63 547.365 441.559Z" fill="#A4C954" stroke="#333333" stroke-width="3" stroke-linecap="round"/>
<mask id="path-11-outside-1_2933_2229" maskUnits="userSpaceOnUse" x="348.049" y="127.77" width="227.939" height="228.526" fill="black">
<rect fill="white" x="348.049" y="127.77" width="227.939" height="228.526"/>
<path fill-rule="evenodd" clip-rule="evenodd" d="M495.684 232.105C495.692 232.1 495.701 232.095 495.71 232.09L495.71 232.09L495.71 232.09L495.71 232.09L495.71 232.09L495.711 232.09C518.385 218.724 540.939 205.429 516.359 182.638C494.182 162.076 482.613 178.494 470.973 207.376C470.906 207.541 470.84 207.705 470.773 207.868L470.773 207.833L470.773 207.833C470.535 181.513 470.299 155.333 438.271 165.225C409.375 174.149 417.809 192.378 437.001 216.9C437.112 217.041 437.222 217.182 437.331 217.323L437.297 217.304C414.385 204.35 391.594 191.465 384.146 224.148C377.427 253.635 397.431 255.444 428.263 251.085C428.438 251.06 428.613 251.035 428.787 251.012L428.759 251.029C406.085 264.394 383.53 277.689 408.111 300.48C430.287 321.042 441.856 304.624 453.497 275.742C453.564 275.576 453.631 275.41 453.699 275.246L453.699 275.285C453.937 301.604 454.173 327.784 486.201 317.893C515.097 308.969 506.663 290.74 487.471 266.218C487.36 266.076 487.249 265.935 487.14 265.793C487.151 265.8 487.163 265.806 487.175 265.813C510.087 278.767 532.877 291.652 540.325 258.97C547.044 229.483 527.041 227.673 496.208 232.033C496.033 232.057 495.858 232.082 495.684 232.105Z"/>
</mask>
<path fill-rule="evenodd" clip-rule="evenodd" d="M495.684 232.105C495.692 232.1 495.701 232.095 495.71 232.09L495.71 232.09L495.71 232.09L495.71 232.09L495.71 232.09L495.711 232.09C518.385 218.724 540.939 205.429 516.359 182.638C494.182 162.076 482.613 178.494 470.973 207.376C470.906 207.541 470.84 207.705 470.773 207.868L470.773 207.833L470.773 207.833C470.535 181.513 470.299 155.333 438.271 165.225C409.375 174.149 417.809 192.378 437.001 216.9C437.112 217.041 437.222 217.182 437.331 217.323L437.297 217.304C414.385 204.35 391.594 191.465 384.146 224.148C377.427 253.635 397.431 255.444 428.263 251.085C428.438 251.06 428.613 251.035 428.787 251.012L428.759 251.029C406.085 264.394 383.53 277.689 408.111 300.48C430.287 321.042 441.856 304.624 453.497 275.742C453.564 275.576 453.631 275.41 453.699 275.246L453.699 275.285C453.937 301.604 454.173 327.784 486.201 317.893C515.097 308.969 506.663 290.74 487.471 266.218C487.36 266.076 487.249 265.935 487.14 265.793C487.151 265.8 487.163 265.806 487.175 265.813C510.087 278.767 532.877 291.652 540.325 258.97C547.044 229.483 527.041 227.673 496.208 232.033C496.033 232.057 495.858 232.082 495.684 232.105Z" fill="white"/>
<path d="M495.684 232.105L494.16 229.521L496.089 235.078L495.684 232.105ZM495.71 232.09L497.234 234.674L497.326 234.619L497.415 234.558L495.71 232.09ZM495.71 232.09L494.005 229.621L495.71 232.09ZM495.71 232.09L497.415 234.558L495.71 232.09ZM495.71 232.09L494.247 229.471L494.122 229.54L494.005 229.621L495.71 232.09ZM495.711 232.09L497.174 234.708L497.204 234.692L497.234 234.674L495.711 232.09ZM516.359 182.638L518.399 180.438L516.359 182.638ZM470.973 207.376L473.755 208.497L473.755 208.497L470.973 207.376ZM470.773 207.868L467.773 207.895L473.55 209.003L470.773 207.868ZM470.773 207.833L473.772 207.805L473.772 207.762L473.77 207.719L470.773 207.833ZM470.773 207.833L467.773 207.86L467.773 207.903L467.775 207.946L470.773 207.833ZM438.271 165.225L439.156 168.091L438.271 165.225ZM437.001 216.9L434.638 218.749L434.638 218.749L437.001 216.9ZM437.331 217.323L435.854 219.935L439.703 215.486L437.331 217.323ZM437.297 217.304L435.82 219.916L435.821 219.916L437.297 217.304ZM384.146 224.148L387.071 224.814L384.146 224.148ZM428.263 251.085L428.683 254.055L428.683 254.055L428.263 251.085ZM428.787 251.012L430.311 253.596L428.382 248.039L428.787 251.012ZM428.759 251.029L430.282 253.613L430.282 253.613L428.759 251.029ZM408.111 300.48L406.071 302.68L406.071 302.68L408.111 300.48ZM453.497 275.742L456.279 276.864L456.28 276.864L453.497 275.742ZM453.699 275.246L456.698 275.218L450.922 274.11L453.699 275.246ZM453.699 275.285L456.699 275.258L456.699 275.258L453.699 275.285ZM486.201 317.893L487.086 320.759L487.086 320.759L486.201 317.893ZM487.471 266.218L485.108 268.067L485.108 268.067L487.471 266.218ZM487.14 265.793L488.617 263.182L484.768 267.63L487.14 265.793ZM487.175 265.813L485.698 268.424L485.698 268.425L487.175 265.813ZM540.325 258.97L537.4 258.303L540.325 258.97ZM496.208 232.033L495.788 229.062L495.788 229.062L496.208 232.033ZM497.208 234.689C497.212 234.687 497.215 234.685 497.22 234.682C497.224 234.68 497.229 234.677 497.234 234.674L494.186 229.506C494.182 229.508 494.178 229.51 494.174 229.513C494.169 229.516 494.165 229.518 494.16 229.521L497.208 234.689ZM497.415 234.558L497.415 234.558L494.005 229.622L494.005 229.622L497.415 234.558ZM497.415 234.558L497.415 234.558L494.005 229.621L494.005 229.622L497.415 234.558ZM497.415 234.558L497.415 234.558L494.005 229.621L494.005 229.621L497.415 234.558ZM497.415 234.558L497.415 234.558L494.005 229.621L494.005 229.621L497.415 234.558ZM497.173 234.709L497.174 234.708L494.247 229.471L494.247 229.471L497.173 234.709ZM497.234 234.674C502.877 231.347 508.652 227.946 513.692 224.378C518.713 220.824 523.228 216.954 526.226 212.6C529.283 208.161 530.821 203.117 529.626 197.478C528.458 191.97 524.774 186.35 518.399 180.438L514.319 184.838C520.234 190.322 522.948 194.91 523.756 198.723C524.537 202.405 523.628 205.793 521.284 209.197C518.882 212.686 515.043 216.07 510.226 219.481C505.428 222.877 499.881 226.149 494.187 229.505L497.234 234.674ZM518.399 180.438C512.658 175.116 507.295 171.885 502.152 170.829C496.856 169.74 492.122 171.025 487.958 174.034C483.904 176.963 480.42 181.494 477.263 186.927C474.088 192.39 471.12 198.986 468.19 206.254L473.755 208.497C476.646 201.325 479.489 195.038 482.45 189.942C485.429 184.816 488.406 181.113 491.472 178.897C494.427 176.762 497.471 175.992 500.945 176.706C504.572 177.451 508.971 179.879 514.319 184.838L518.399 180.438ZM468.19 206.254C468.126 206.414 468.061 206.574 467.996 206.732L473.55 209.003C473.618 208.835 473.687 208.667 473.755 208.497L468.19 206.254ZM473.773 207.841L473.772 207.805L467.773 207.86L467.773 207.895L473.773 207.841ZM473.77 207.719L473.77 207.719L467.775 207.946L467.775 207.946L473.77 207.719ZM473.772 207.806C473.713 201.255 473.655 194.553 473.085 188.404C472.518 182.279 471.424 176.434 469.152 171.661C466.836 166.794 463.237 162.94 457.756 161.156C452.402 159.413 445.692 159.793 437.385 162.359L439.156 168.091C446.863 165.711 452.193 165.655 455.899 166.861C459.478 168.026 461.958 170.507 463.734 174.239C465.554 178.064 466.566 183.08 467.111 188.958C467.653 194.811 467.713 201.251 467.773 207.86L473.772 207.806ZM437.385 162.359C429.906 164.669 424.427 167.698 420.94 171.623C417.349 175.666 416.094 180.408 416.618 185.519C417.128 190.494 419.31 195.777 422.437 201.228C425.581 206.709 429.808 212.577 434.638 218.749L439.363 215.051C434.598 208.961 430.574 203.355 427.641 198.243C424.692 193.1 422.973 188.67 422.587 184.907C422.215 181.28 423.071 178.259 425.426 175.608C427.885 172.839 432.188 170.243 439.156 168.091L437.385 162.359ZM434.638 218.749C434.746 218.886 434.853 219.023 434.959 219.16L439.703 215.486C439.59 215.341 439.477 215.196 439.363 215.051L434.638 218.749ZM438.807 214.712L438.773 214.692L435.821 219.916L435.854 219.935L438.807 214.712ZM438.773 214.693C433.071 211.468 427.237 208.168 421.627 205.587C416.04 203.016 410.431 201.041 405.16 200.622C399.788 200.194 394.65 201.384 390.365 205.238C386.179 209.003 383.153 215.004 381.221 223.481L387.071 224.814C388.864 216.95 391.48 212.305 394.377 209.699C397.176 207.182 400.564 206.275 404.685 206.603C408.907 206.939 413.757 208.571 419.12 211.038C424.46 213.495 430.067 216.663 435.82 219.916L438.773 214.693ZM381.221 223.481C379.482 231.114 379.366 237.373 381.022 242.356C382.728 247.487 386.207 250.944 390.896 253.046C395.459 255.092 401.125 255.844 407.409 255.862C413.727 255.879 420.923 255.152 428.683 254.055L427.843 248.114C420.187 249.197 413.32 249.878 407.426 249.862C401.498 249.845 396.802 249.119 393.35 247.571C390.023 246.08 387.835 243.828 386.716 240.463C385.548 236.949 385.451 231.925 387.071 224.814L381.221 223.481ZM428.683 254.055C428.853 254.031 429.023 254.007 429.193 253.984L428.382 248.039C428.203 248.064 428.023 248.089 427.843 248.114L428.683 254.055ZM427.264 248.427L427.236 248.444L430.282 253.613L430.311 253.596L427.264 248.427ZM427.236 248.444C421.592 251.771 415.817 255.172 410.777 258.74C405.757 262.294 401.242 266.164 398.243 270.518C395.187 274.957 393.649 280.001 394.844 285.64C396.011 291.148 399.695 296.768 406.071 302.68L410.15 298.28C404.235 292.796 401.521 288.208 400.713 284.395C399.933 280.713 400.841 277.325 403.185 273.921C405.587 270.432 409.426 267.048 414.244 263.637C419.041 260.241 424.589 256.969 430.282 253.613L427.236 248.444ZM406.071 302.68C411.811 308.002 417.174 311.233 422.317 312.29C427.614 313.378 432.348 312.093 436.512 309.084C440.565 306.155 444.05 301.624 447.207 296.191C450.382 290.728 453.35 284.132 456.279 276.864L450.714 274.621C447.824 281.793 444.981 288.08 442.019 293.176C439.041 298.302 436.064 302.005 432.998 304.221C430.043 306.356 426.999 307.126 423.525 306.412C419.898 305.667 415.498 303.239 410.15 298.28L406.071 302.68ZM456.28 276.864C456.345 276.702 456.41 276.541 456.475 276.381L450.922 274.11C450.853 274.279 450.783 274.45 450.714 274.621L456.28 276.864ZM450.699 275.273L450.699 275.313L456.699 275.258L456.698 275.218L450.699 275.273ZM450.699 275.312C450.758 281.863 450.817 288.565 451.387 294.714C451.954 300.838 453.048 306.684 455.32 311.457C457.636 316.324 461.235 320.178 466.715 321.962C472.069 323.705 478.779 323.325 487.086 320.759L485.316 315.026C477.609 317.407 472.278 317.463 468.573 316.257C464.994 315.092 462.514 312.611 460.737 308.879C458.917 305.054 457.905 300.038 457.361 294.16C456.819 288.307 456.759 281.867 456.699 275.258L450.699 275.312ZM487.086 320.759C494.566 318.449 500.045 315.42 503.532 311.494C507.123 307.452 508.377 302.71 507.853 297.599C507.343 292.624 505.161 287.341 502.035 281.89C498.891 276.409 494.663 270.541 489.833 264.369L485.108 268.067C489.874 274.157 493.898 279.763 496.83 284.875C499.78 290.018 501.499 294.447 501.884 298.21C502.256 301.837 501.401 304.859 499.046 307.51C496.587 310.278 492.284 312.874 485.316 315.026L487.086 320.759ZM489.833 264.369C489.725 264.231 489.618 264.094 489.512 263.956L484.768 267.63C484.881 267.776 484.994 267.921 485.108 268.067L489.833 264.369ZM488.652 263.202C488.646 263.198 488.639 263.195 488.634 263.192C488.628 263.188 488.622 263.185 488.617 263.182L485.663 268.404C485.669 268.408 485.675 268.411 485.681 268.415C485.687 268.418 485.692 268.421 485.698 268.424L488.652 263.202ZM537.4 258.303C535.608 266.167 532.992 270.812 530.094 273.418C527.296 275.935 523.907 276.842 519.787 276.514C515.564 276.178 510.714 274.546 505.352 272.079C500.012 269.622 494.404 266.454 488.651 263.202L485.698 268.425C491.401 271.649 497.234 274.949 502.844 277.53C508.432 280.101 514.041 282.076 519.311 282.496C524.684 282.923 529.821 281.733 534.106 277.879C538.293 274.114 541.318 268.113 543.25 259.636L537.4 258.303ZM496.628 235.003C504.285 233.92 511.152 233.239 517.046 233.255C522.974 233.272 527.67 233.998 531.121 235.546C534.448 237.037 536.637 239.289 537.756 242.654C538.924 246.168 539.02 251.192 537.4 258.303L543.25 259.636C544.989 252.003 545.105 245.744 543.449 240.761C541.744 235.63 538.264 232.173 533.576 230.071C529.013 228.025 523.346 227.273 517.063 227.255C510.744 227.238 503.548 227.965 495.788 229.062L496.628 235.003ZM496.089 235.078C496.268 235.053 496.448 235.028 496.628 235.003L495.788 229.062C495.618 229.086 495.448 229.11 495.279 229.133L496.089 235.078Z" fill="#333333" mask="url(#path-11-outside-1_2933_2229)"/>
<mask id="path-13-inside-2_2933_2229" fill="white">
<path fill-rule="evenodd" clip-rule="evenodd" d="M469.792 246.301C474.115 243.777 477.02 239.087 477.02 233.719C477.02 225.678 470.501 219.16 462.46 219.16C454.419 219.16 447.9 225.678 447.9 233.719C447.9 239.087 450.805 243.777 455.129 246.301L452.605 260.79H472.315L469.792 246.301Z"/>
</mask>
<path fill-rule="evenodd" clip-rule="evenodd" d="M469.792 246.301C474.115 243.777 477.02 239.087 477.02 233.719C477.02 225.678 470.501 219.16 462.46 219.16C454.419 219.16 447.9 225.678 447.9 233.719C447.9 239.087 450.805 243.777 455.129 246.301L452.605 260.79H472.315L469.792 246.301Z" fill="#A4C954"/>
<path d="M469.792 246.301L468.279 243.711L466.479 244.762L466.836 246.816L469.792 246.301ZM455.129 246.301L458.084 246.816L458.442 244.762L456.642 243.711L455.129 246.301ZM452.605 260.79L449.65 260.276L449.038 263.79H452.605V260.79ZM472.315 260.79V263.79H475.883L475.271 260.276L472.315 260.79ZM474.02 233.719C474.02 237.977 471.719 241.702 468.279 243.711L471.305 248.892C476.511 245.851 480.02 240.197 480.02 233.719H474.02ZM462.46 222.16C468.844 222.16 474.02 227.335 474.02 233.719H480.02C480.02 224.021 472.158 216.16 462.46 216.16V222.16ZM450.9 233.719C450.9 227.335 456.076 222.16 462.46 222.16V216.16C452.762 216.16 444.9 224.021 444.9 233.719H450.9ZM456.642 243.711C453.201 241.702 450.9 237.978 450.9 233.719H444.9C444.9 240.197 448.409 245.852 453.616 248.892L456.642 243.711ZM455.561 261.305L458.084 246.816L452.173 245.787L449.65 260.276L455.561 261.305ZM472.315 257.79H452.605V263.79H472.315V257.79ZM466.836 246.816L469.36 261.305L475.271 260.276L472.747 245.787L466.836 246.816Z" fill="#333333" mask="url(#path-13-inside-2_2933_2229)"/>
<path d="M488.62 481.007C487.453 475.603 482.879 462.253 473.92 452.083" stroke="#333333" stroke-width="3" stroke-linecap="round"/>
<path d="M363.239 529.478C364.648 531.644 367.027 538.268 365.269 547.434" stroke="#333333" stroke-width="3" stroke-linecap="round"/>
<path d="M297.01 531.881C295.837 526.478 294.477 512.432 298.425 499.467" stroke="#333333" stroke-width="3" stroke-linecap="round"/>
<path d="M498.255 476C498.194 460.471 502.682 421.084 521.12 387.776" stroke="#333333" stroke-width="3" stroke-linecap="round"/>
<circle cx="262.57" cy="52.1163" r="8.13557" transform="rotate(-180 262.57 52.1163)" stroke="white" stroke-width="3"/>
<circle cx="320.23" cy="203.454" r="8.13557" transform="rotate(-180 320.23 203.454)" fill="#628026" stroke="white" stroke-width="3"/>
<circle cx="432.902" cy="501.493" r="12.7039" transform="rotate(-180 432.902 501.493)" fill="#A4C954" stroke="#333333" stroke-width="3"/>
<circle cx="170.722" cy="418.459" r="3.7183" fill="white" stroke="white" stroke-width="3"/>
<circle cx="245.283" cy="492.925" r="6.15184" stroke="white" stroke-width="3"/>
<circle cx="556.87" cy="139.252" r="26.2682" fill="#628026"/>
<circle cx="344.425" cy="567.143" r="1.5" fill="#333333" stroke="#333333" stroke-width="2.70185"/>
<circle cx="396.316" cy="479.879" r="1.5" fill="#333333" stroke="#333333" stroke-width="2.70185"/>
<circle cx="527.749" cy="83.0795" r="1.5" fill="white" stroke="white" stroke-width="2.70185"/>
<circle cx="210.478" cy="29.9102" r="1.5" fill="white" stroke="white" stroke-width="2.70185"/>
<path d="M160.247 342.529C159.797 341.931 159.646 341.159 159.839 340.435L170.089 301.901C170.612 299.934 173.171 299.435 174.395 301.061L205.63 342.561C206.08 343.159 206.231 343.931 206.038 344.655L195.788 383.189C195.265 385.155 192.705 385.654 191.482 384.028L160.247 342.529Z" stroke="white" stroke-width="3"/>
<path d="M600.81 203.456L571.511 227.464" stroke="white" stroke-width="3"/>
<circle cx="568.66" cy="492.925" r="1.5" fill="white" stroke="white" stroke-width="2.70185"/>
<circle cx="542.422" cy="507.598" r="10.3221" transform="rotate(-180 542.422 507.598)" stroke="white" stroke-width="3"/>
<path d="M301.394 155.887C302.067 154.749 301.711 153.28 300.59 152.578L199.397 89.1592C198.206 88.4131 196.633 88.8245 195.96 90.0579L125.31 219.568C124.671 220.739 125.091 222.206 126.253 222.861L225.777 278.943C226.933 279.594 228.397 279.202 229.073 278.06L301.394 155.887Z" fill="#A4C954" stroke="#333333" stroke-width="3"/>
<path d="M183.859 234.628C207.163 237.658 223.511 230.66 236.198 219.142C249.01 207.51 258.117 191.25 266.774 175.698C266.77 175.671 266.766 175.641 266.76 175.607C266.708 175.293 266.599 174.83 266.427 174.213C266.085 172.989 265.533 171.309 264.833 169.305C263.435 165.303 261.481 160.114 259.516 154.904L259.373 154.526C257.46 149.453 255.55 144.389 254.166 140.456C253.459 138.444 252.879 136.701 252.506 135.394C252.416 135.077 252.336 134.777 252.267 134.498C249.802 134.98 247.666 135.153 246.004 135.101C245.001 135.07 244.11 134.955 243.402 134.744C243.082 134.649 242.751 134.519 242.45 134.336C229.349 137.45 219.369 133.585 207.532 129.001C207.142 128.85 206.75 128.698 206.355 128.545C202.157 129.767 199.085 129.853 196.394 128.867C195.566 130.251 194.72 131.657 193.855 133.095C184.626 148.431 174.962 164.517 171.231 181.524C167.558 198.262 169.629 215.925 183.859 234.628ZM266.791 175.869C266.791 175.866 266.791 175.863 266.791 175.859C266.789 175.889 266.791 175.895 266.791 175.869Z" fill="white" stroke="#333333" stroke-width="3"/>
<path d="M207.407 161.587L207.407 161.587C207.072 159.94 205.579 159.075 203.984 159.605L203.984 159.606C202.255 160.179 201.114 162.149 201.477 163.935L201.477 163.936L208.761 199.773L207.291 200.071L208.761 199.773C208.936 200.63 209.412 201.239 210 201.58C210.588 201.92 211.354 202.03 212.184 201.755L229.537 195.992C231.266 195.418 232.407 193.448 232.044 191.662C231.71 190.015 230.217 189.151 228.622 189.68C228.622 189.68 228.621 189.68 228.621 189.68L215.703 193.97L214.098 194.503L213.761 192.845L207.407 161.587Z" fill="#A4C954" stroke="#333333" stroke-width="3"/>
<path d="M194.399 234.628C217.703 237.658 234.051 230.66 246.738 219.142C259.629 207.439 268.768 191.05 277.473 175.411C278.277 173.967 279.063 172.555 279.84 171.168C265.875 161.846 256.976 149.976 252.382 134.486C236.66 138.213 221.933 136.403 206.894 128.932C206.079 130.296 205.246 131.679 204.395 133.095C195.166 148.431 185.502 164.517 181.77 181.524C178.098 198.262 180.168 215.925 194.399 234.628Z" fill="white" stroke="#333333" stroke-width="3"/>
<path d="M246.07 178.043L246.07 178.043C247.67 177.528 249.155 178.406 249.474 180.056L249.474 180.057C249.821 181.845 248.662 183.805 246.928 184.363L246.927 184.363L212.116 195.568L212.576 196.996L212.116 195.568C211.284 195.836 210.519 195.719 209.934 195.373C209.349 195.028 208.878 194.413 208.712 193.555L205.235 175.604C204.888 173.815 206.047 171.856 207.782 171.297C209.381 170.782 210.866 171.66 211.186 173.31C211.186 173.31 211.186 173.31 211.186 173.31L213.775 186.673L214.096 188.334L215.707 187.816L246.07 178.043Z" fill="#A4C954" stroke="#333333" stroke-width="3"/>
<path d="M582.2 275.326L612.603 258.939L630.476 269.258L611.972 278.794L621.72 284.423L596.298 297.186L609.838 305.003L557.498 318.112L582.775 303.099L570.318 295.907L594.657 282.518L582.2 275.326Z" stroke="white" stroke-width="3"/>
</svg>
