<svg width="578" height="279" viewBox="0 0 578 279" fill="none" xmlns="http://www.w3.org/2000/svg">
<path opacity="0.8" fill-rule="evenodd" clip-rule="evenodd" d="M0.73584 258.644V191.274H26.6924C32.8394 191.274 38.3466 192.775 42.3562 196.212C46.4342 199.707 48.5812 204.876 48.5812 211.373C48.5812 217.079 46.7994 222.138 42.9178 225.747C39.0618 229.333 33.5016 231.147 26.611 231.147H14.3309V258.644H0.73584ZM11.5604 255.874H3.50633V194.044H26.6924C38.1634 194.044 45.8107 199.658 45.8107 211.373C45.8107 221.624 39.4651 228.376 26.611 228.376H11.5604V255.874ZM14.3309 204.137V218.284H24.9839C28.5904 218.284 31.1171 217.559 32.6732 216.431C34.087 215.407 34.9861 213.848 34.9861 211.292C34.9861 208.964 34.2481 207.336 32.921 206.229C31.5154 205.057 29.0523 204.137 24.9839 204.137H14.3309ZM52.1532 258.644V210.392H65.1788V213.347C66.3222 212.394 67.5688 211.585 68.8947 210.973L68.9085 210.966L68.9224 210.96C71.7749 209.681 74.5681 209.335 77.8657 209.335H80.6362V220.246C81.4492 218.847 82.3943 217.549 83.4651 216.367C87.6477 211.751 93.5939 209.091 100.559 209.091C107.526 209.091 113.437 211.753 117.581 216.378C121.7 220.975 123.912 227.325 123.912 234.478C123.912 248.438 114.857 259.946 100.559 259.946C86.2873 259.946 77.0427 248.469 77.0427 234.478C77.0427 230.352 77.7918 226.497 79.2212 223.092H76.1573C73.1625 223.092 70.5597 224.202 68.7012 226.123C66.8463 228.04 65.5856 230.923 65.5856 234.722V258.644H52.1532ZM65.1788 217.188C64.0914 218.397 63.1502 219.768 62.4083 221.217V213.163H54.9237V255.874H62.8151V234.722C62.8151 225.854 68.754 220.322 76.1573 220.322H77.8657V212.105C76.8751 212.105 75.9596 212.139 75.0952 212.219C73.2622 212.389 71.6589 212.769 70.0557 213.488C68.2606 214.317 66.5957 215.614 65.1788 217.188ZM93.1939 244.275C94.798 246.331 97.1603 247.571 100.477 247.571C103.794 247.571 106.156 246.331 107.761 244.275C109.432 242.132 110.479 238.836 110.479 234.478C110.479 230.165 109.435 226.889 107.764 224.755C106.159 222.707 103.795 221.465 100.477 221.465C97.1596 221.465 94.7953 222.707 93.1908 224.755C91.5199 226.889 90.475 230.165 90.475 234.478C90.475 238.836 91.5221 242.132 93.1939 244.275ZM151.675 258.983L149.145 259.203C147.231 259.37 145.68 259.458 144.186 259.458C138.995 259.458 134.833 258.367 132.022 255.57C129.202 252.764 128.318 248.815 128.318 244.484V222.686H122.623V211.206H125.393C127.614 211.206 128.024 210.711 128.128 210.573C128.408 210.204 128.724 209.269 128.724 206.736V199.409H141.75V210.392H151.269V222.686H141.75V242.857C141.75 245.475 142.231 246.22 142.49 246.467C142.782 246.746 143.584 247.165 146.139 247.165C146.855 247.165 147.594 247.164 148.721 247.089L151.675 246.892V258.983ZM138.98 202.18V213.163H148.498V219.915H138.98V242.857C138.98 248.388 140.85 249.934 146.134 249.935C146.136 249.935 146.137 249.935 146.139 249.935C146.871 249.935 147.684 249.935 148.905 249.854V256.443C147.034 256.606 145.569 256.687 144.186 256.687C134.424 256.687 131.088 252.538 131.088 244.484V219.915H125.393V213.976C130.437 213.976 131.495 211.78 131.495 206.736V202.18H138.98ZM197.322 234.478C197.322 248.438 188.267 259.946 173.968 259.946C159.697 259.946 150.452 248.469 150.452 234.478C150.452 227.31 152.714 220.959 156.875 216.367C161.058 211.751 167.004 209.091 173.968 209.091C180.936 209.091 186.847 211.753 190.991 216.378C195.11 220.975 197.322 227.325 197.322 234.478ZM166.604 244.275C168.208 246.331 170.57 247.571 173.887 247.571C177.204 247.571 179.566 246.331 181.17 244.275C182.842 242.132 183.889 238.836 183.889 234.478C183.889 230.165 182.844 226.889 181.173 224.755C179.569 222.707 177.205 221.465 173.887 221.465C170.569 221.465 168.205 222.707 166.601 224.755C164.93 226.889 163.885 230.165 163.885 234.478C163.885 238.836 164.932 242.132 166.604 244.275ZM225.085 258.983L222.555 259.203C220.641 259.37 219.09 259.458 217.596 259.458C212.405 259.458 208.243 258.367 205.432 255.57C202.612 252.764 201.727 248.815 201.727 244.484V222.686H196.033V211.206H198.803C201.023 211.206 201.434 210.711 201.538 210.573C201.818 210.204 202.134 209.269 202.134 206.736V199.409H215.16V210.392H236.578L245.972 238.34L255.288 210.392H282.473V212.674C285.898 210.408 289.971 209.091 293.939 209.091C300.523 209.091 306.163 211.67 310.121 216.254C314.047 220.802 316.153 227.123 316.153 234.396C316.153 241.729 314.1 248.102 310.247 252.692C306.358 257.326 300.792 259.946 294.265 259.946C290.25 259.946 286.111 258.749 282.717 256.657V278.17H269.284V212.315L253.625 252.996L245.029 278.17H231.51L239.205 255.92L224.678 217.787V222.686H215.16V242.857C215.16 245.475 215.64 246.22 215.899 246.467C216.192 246.746 216.994 247.165 219.549 247.165C220.265 247.165 221.004 247.164 222.13 247.089L225.085 246.892V258.983ZM242.152 255.874L235.4 275.399H243.047L251.02 252.05L265.989 213.163H257.284L247.522 242.45L246.057 246.437H245.895L244.43 242.45L234.586 213.163H225.882L242.152 255.874ZM279.946 250.505C280.699 251.529 281.639 252.467 282.717 253.296C285.832 255.693 290.093 257.176 294.265 257.176C305.736 257.176 313.383 248.064 313.383 234.396C313.383 220.891 305.573 211.861 293.939 211.861C289.925 211.861 285.723 213.455 282.473 216.109C281.441 216.951 280.506 217.9 279.702 218.939V213.163H272.055V275.399H279.946V250.505ZM212.389 202.18V213.163H221.908V219.915H212.389V242.857C212.389 248.388 214.26 249.934 219.544 249.935C219.546 249.935 219.547 249.935 219.549 249.935C220.281 249.935 221.094 249.935 222.315 249.854V256.443C220.443 256.606 218.979 256.687 217.596 256.687C207.834 256.687 204.498 252.538 204.498 244.484V219.915H198.803V213.976C203.847 213.976 204.905 211.78 204.905 206.736V202.18H212.389ZM285.48 244.728C287.17 246.41 289.687 247.49 292.963 247.49C295.861 247.49 298.2 246.308 299.874 244.224C301.588 242.089 302.721 238.843 302.721 234.64C302.721 230.3 301.58 226.972 299.846 224.793C298.157 222.67 295.783 221.465 292.8 221.465C289.628 221.465 287.18 222.582 285.509 224.389C283.819 226.217 282.717 228.979 282.717 232.607V237.325C282.717 240.552 283.791 243.046 285.48 244.728ZM362.625 240.738L362.181 243.894C361.169 251.077 353.7 259.946 340.482 259.946C333.105 259.946 327.217 257.176 323.219 252.419C319.272 247.723 317.372 241.342 317.372 234.396C317.372 227.308 319.365 220.981 323.32 216.38C327.317 211.731 333.113 209.091 340.156 209.091C346.383 209.091 351.921 211.152 355.921 214.973C359.934 218.807 362.208 224.233 362.208 230.573V240.007L331.464 240.087C331.99 242.148 332.831 243.762 333.891 244.933C335.365 246.56 337.477 247.571 340.482 247.571C345.38 247.571 348.286 244.51 349.036 242.528L349.713 240.738H362.625ZM328.619 240.094C329.994 246.395 333.985 250.342 340.482 250.342C346.583 250.342 350.488 246.518 351.627 243.508H359.437C359.312 244.394 359.06 245.329 358.678 246.279C356.57 251.519 350.538 257.176 340.482 257.176C327.221 257.176 320.143 247.332 320.143 234.396C320.143 221.217 327.546 211.861 340.156 211.861C351.383 211.861 359.437 219.264 359.437 230.573V237.244L328.197 237.325C328.287 238.291 328.428 239.216 328.619 240.094ZM333.688 223.689C332.617 224.689 331.728 226.143 331.309 228.209H348.61C348.207 226.116 347.345 224.656 346.311 223.662C344.844 222.252 342.705 221.465 340.075 221.465C337.44 221.465 335.223 222.256 333.688 223.689ZM351.421 228.209C350.398 221.679 345.681 218.695 340.075 218.695C334.469 218.695 329.561 221.679 328.493 228.209C328.352 229.07 328.278 229.993 328.278 230.979H351.627C351.627 229.993 351.556 229.07 351.421 228.209ZM11.5604 221.054H24.9839C32.794 221.054 37.7566 217.963 37.7566 211.292C37.7566 205.353 33.8516 201.366 24.9839 201.366H11.5604V221.054ZM121.141 234.478C121.141 247.25 113.006 257.176 100.559 257.176C88.1113 257.176 79.8131 247.25 79.8131 234.478C79.8131 221.298 88.1113 211.861 100.559 211.861C113.006 211.861 121.141 221.298 121.141 234.478ZM87.7045 234.478C87.7045 243.996 92.2604 250.342 100.477 250.342C108.694 250.342 113.25 243.996 113.25 234.478C113.25 225.041 108.694 218.695 100.477 218.695C92.2604 218.695 87.7045 225.041 87.7045 234.478ZM194.551 234.478C194.551 247.25 186.416 257.176 173.968 257.176C161.521 257.176 153.223 247.25 153.223 234.478C153.223 221.298 161.521 211.861 173.968 211.861C186.416 211.861 194.551 221.298 194.551 234.478ZM161.114 234.478C161.114 243.996 165.67 250.342 173.887 250.342C182.104 250.342 186.66 243.996 186.66 234.478C186.66 225.041 182.104 218.695 173.887 218.695C165.67 218.695 161.114 225.041 161.114 234.478ZM279.946 237.325C279.946 245.054 285.153 250.26 292.963 250.26C300.448 250.26 305.491 243.996 305.491 234.64C305.491 225.041 300.448 218.695 292.8 218.695C285.072 218.695 279.946 224.227 279.946 232.607V237.325Z" fill="#FF0080"/>
<path fill-rule="evenodd" clip-rule="evenodd" d="M435.931 208.438H403.389V220.47H431.944V233.902H403.389V262.458H389.712V195.087H435.931V208.438ZM400.618 259.687H392.483V197.858H433.16V205.668H400.618V223.241H429.174V231.132H400.618V259.687ZM438.709 243.01C438.709 255.213 444.323 260.989 453.841 260.989C458.296 260.989 462.469 259.766 465.715 256.352C466.737 255.278 467.667 253.986 468.485 252.447V259.687H476.377V216.976H468.485V240.244C468.485 249.03 463.116 254.155 455.794 254.155C451.157 254.155 446.601 252.04 446.601 242.44V216.976H438.709V243.01ZM465.715 260.071V262.458H479.147V214.206H465.715V240.244C465.715 244.068 464.556 246.817 462.875 248.588C461.202 250.351 458.789 251.385 455.794 251.385C453.853 251.385 452.414 250.941 451.423 249.944C450.422 248.937 449.371 246.854 449.371 242.44V214.206H435.939V243.01C435.939 249.487 437.424 254.739 440.619 258.398C443.87 262.12 448.507 263.76 453.841 263.76C457.097 263.76 460.379 263.172 463.381 261.573C464.192 261.141 464.972 260.641 465.715 260.071ZM483.714 262.458V214.206H497.146V216.397C500.82 213.818 505.079 212.904 508.694 212.904C514.232 212.904 518.877 214.994 522.106 218.679C525.301 222.325 526.922 227.311 526.922 232.84V262.458H513.49V235.037C513.49 231.484 512.705 229.025 511.562 227.519C510.501 226.122 508.935 225.279 506.579 225.279C504.021 225.279 501.713 226.264 500.029 228.062C498.347 229.859 497.146 232.629 497.146 236.42V262.458H483.714ZM497.146 219.957C496.121 220.911 495.183 222.051 494.376 223.403V216.976H486.484V259.687H494.376V236.42C494.376 227.634 499.989 222.508 506.579 222.508C512.843 222.508 516.26 227.227 516.26 235.037V259.687H524.152V232.84C524.152 222.834 518.294 215.675 508.694 215.675C504.94 215.675 500.56 216.781 497.146 219.957ZM563.832 195.087H577.264V262.458H564.076V260.426C560.585 262.553 556.309 263.76 552.284 263.76C545.756 263.76 540.19 261.14 536.301 256.506C532.448 251.915 530.395 245.543 530.395 238.21C530.395 230.936 532.501 224.613 536.44 220.064C540.411 215.479 546.071 212.904 552.69 212.904C556.644 212.904 560.539 214.207 563.832 216.424V195.087ZM566.602 222.752C565.786 221.697 564.853 220.735 563.832 219.883C560.679 217.253 556.685 215.675 552.69 215.675C540.975 215.675 533.165 224.705 533.165 238.21C533.165 251.877 540.813 260.989 552.284 260.989C556.472 260.989 560.887 259.494 564.076 257.079C565.16 256.258 566.103 255.33 566.846 254.318V259.687H574.494V197.858H566.602V222.752ZM561.077 248.393C562.742 246.568 563.832 243.801 563.832 240.162V235.444C563.832 232.205 562.77 229.733 561.114 228.077C559.459 226.422 556.987 225.36 553.748 225.36C550.737 225.36 548.359 226.547 546.681 228.603C544.96 230.71 543.827 233.926 543.827 238.128C543.827 242.459 544.984 245.782 546.742 247.962C548.457 250.089 550.874 251.303 553.911 251.303C557.031 251.303 559.434 250.195 561.077 248.393ZM553.911 254.074C561.558 254.074 566.602 248.542 566.602 240.162V235.444C566.602 227.715 561.477 222.59 553.748 222.59C546.101 222.59 541.057 228.773 541.057 238.128C541.057 247.728 546.182 254.074 553.911 254.074Z" fill="#009ACE"/>
<path d="M337.242 2.47311L320.093 0.369629H247.002L245.941 9.7146L261.141 14.8363V81.7242H263.684V13.0101L248.699 7.96104L249.272 2.91196H319.938L335.619 4.83542L354.165 39.6981L335.619 68.9908C335.619 68.9908 314.452 74.4006 306.345 76.324H287.88V81.7242H290.423V78.8664H306.643L306.932 78.7977C311.006 77.8309 318.343 75.993 324.645 74.401C327.799 73.6041 330.7 72.8674 332.812 72.33C333.868 72.0612 334.727 71.8423 335.322 71.6905L337.226 71.204L357.104 39.8092L337.242 2.47311Z" fill="white"/>
<path d="M290.423 112.232H287.88V123.529L302.824 128.698L302.456 133.747L275.884 133.387L249.231 133.747L248.658 128.698L263.684 123.529V112.232H261.141V121.715L245.902 126.958L246.965 136.321L275.884 135.929L304.817 136.322L305.502 126.934L290.423 121.718V112.232Z" fill="white"/>
<path fill-rule="evenodd" clip-rule="evenodd" d="M303.356 69.1511L287.921 66.2659V13.0502L303.356 11.0466L327.185 26.4343L334.554 39.6981L327.185 52.8819L303.356 69.1511ZM325.257 51.1194L302.791 66.459L290.464 64.1548V15.2838L302.76 13.6877L325.271 28.225L331.644 39.6944L325.257 51.1194Z" fill="white"/>
<path d="M201.257 105.9H214.07V103.68H205.032C207.504 102.193 208.945 101.186 210.112 100.202C212.675 98.0286 213.842 96.0608 213.842 93.6583C213.842 90.249 211.462 88.1211 207.343 88.1211C202.882 88.1211 200.342 90.5922 200.342 94.4591C200.342 94.9854 200.388 95.2828 200.571 95.9693H202.813C202.63 95.26 202.584 95.0083 202.584 94.5964C202.584 91.9651 204.369 90.1804 207.389 90.1804C209.975 90.1804 211.485 91.5075 211.485 93.7269C211.485 95.3744 210.661 96.8845 208.487 98.7379C207.092 99.9277 205.147 101.255 201.257 103.68V105.9Z" fill="white"/>
<path d="M223.794 106.243C228.896 106.243 230.956 101.987 230.956 97.182C230.956 92.377 228.896 88.1211 223.794 88.1211C218.691 88.1211 216.586 92.377 216.586 97.182C216.586 101.987 218.691 106.243 223.794 106.243ZM223.771 104.138C220.362 104.138 218.852 100.98 218.852 97.182C218.852 93.3837 220.362 90.2261 223.771 90.2261C227.18 90.2261 228.69 93.3837 228.69 97.182C228.69 100.98 227.18 104.138 223.771 104.138Z" fill="white"/>
<path d="M234.394 105.9H247.208V103.68H238.17C240.641 102.193 242.082 101.186 243.249 100.202C245.812 98.0286 246.979 96.0608 246.979 93.6583C246.979 90.249 244.599 88.1211 240.481 88.1211C236.019 88.1211 233.479 90.5922 233.479 94.4591C233.479 94.9854 233.525 95.2828 233.708 95.9693H235.95C235.767 95.26 235.721 95.0083 235.721 94.5964C235.721 91.9651 237.506 90.1804 240.526 90.1804C243.112 90.1804 244.622 91.5075 244.622 93.7269C244.622 95.3744 243.798 96.8845 241.625 98.7379C240.229 99.9277 238.284 101.255 234.394 103.68V105.9Z" fill="white"/>
<path d="M256.931 106.243C262.034 106.243 264.093 101.987 264.093 97.182C264.093 92.377 262.034 88.1211 256.931 88.1211C251.829 88.1211 249.724 92.377 249.724 97.182C249.724 101.987 251.829 106.243 256.931 106.243ZM256.908 104.138C253.499 104.138 251.989 100.98 251.989 97.182C251.989 93.3837 253.499 90.2261 256.908 90.2261C260.318 90.2261 261.828 93.3837 261.828 97.182C261.828 100.98 260.318 104.138 256.908 104.138Z" fill="white"/>
<path d="M280.383 105.9C285.462 105.923 287.842 102.536 287.842 97.2735C287.842 91.2558 284.73 88.4872 279.971 88.4872H273.633L273.61 105.877L280.383 105.9ZM275.898 103.703V90.6609H279.925C283.677 90.6609 285.439 93.1778 285.439 97.1591C285.439 101.667 283.243 103.703 279.925 103.703H275.898Z" fill="white"/>
<path d="M295.429 106.243C298.769 106.243 300.531 104.023 300.76 102.399H298.563C298.243 103.245 297.145 104.321 295.429 104.321C293.346 104.321 292.179 102.879 291.974 100.66L300.76 100.637V98.7608C300.76 95.5803 298.495 93.4981 295.337 93.4981C291.79 93.4981 289.708 96.1294 289.708 99.8362C289.708 103.474 291.699 106.243 295.429 106.243ZM291.996 98.8752C291.996 96.4955 293.529 95.4201 295.314 95.4201C297.099 95.4201 298.563 96.4955 298.563 98.8752H291.996Z" fill="white"/>
<path d="M317.777 93.4981C316.175 93.4981 314.505 94.0473 313.223 95.9006C312.583 94.2761 311.256 93.4981 309.402 93.4981C307.755 93.4981 306.245 94.093 305.284 95.6718V93.8642H303.064V105.877H305.284V99.3328C305.284 96.8616 306.794 95.4201 308.853 95.4201C310.157 95.4201 311.439 96.015 311.439 98.715V105.877H313.658V99.3328C313.658 96.8616 315.168 95.4201 317.228 95.4201C318.532 95.4201 319.813 96.015 319.813 98.715V105.877H322.033V98.5548C322.033 95.1227 320.454 93.4981 317.777 93.4981Z" fill="white"/>
<path d="M330.133 106.243C333.633 106.243 335.921 103.451 335.921 99.859C335.921 96.1523 333.633 93.4981 330.133 93.4981C326.632 93.4981 324.298 96.1523 324.298 99.859C324.298 103.451 326.632 106.243 330.133 106.243ZM330.11 104.321C327.799 104.321 326.517 102.536 326.517 99.859C326.517 97.2048 327.799 95.4201 330.11 95.4201C332.421 95.4201 333.702 97.2048 333.702 99.859C333.702 102.536 332.421 104.321 330.11 104.321Z" fill="white"/>
<path d="M347.932 105.877H350.426L355.162 90.8668L359.899 105.877H362.393L367.221 88.4872H364.658L361.134 103.154L356.627 88.4872H353.698L349.19 103.154L345.667 88.4872H343.104L347.932 105.877Z" fill="white"/>
<path d="M372.697 106.243C376.037 106.243 377.799 104.023 378.028 102.399H375.831C375.511 103.245 374.413 104.321 372.697 104.321C370.614 104.321 369.447 102.879 369.242 100.66L378.028 100.637V98.7608C378.028 95.5803 375.763 93.4981 372.605 93.4981C369.059 93.4981 366.976 96.1294 366.976 99.8362C366.976 103.474 368.967 106.243 372.697 106.243ZM369.264 98.8752C369.264 96.4955 370.797 95.4201 372.582 95.4201C374.367 95.4201 375.831 96.4955 375.831 98.8752H369.264Z" fill="white"/>
<path d="M385.366 106.243C388.707 106.243 390.468 104.023 390.697 102.399H388.501C388.18 103.245 387.082 104.321 385.366 104.321C383.284 104.321 382.117 102.879 381.911 100.66L390.697 100.637V98.7608C390.697 95.5803 388.432 93.4981 385.275 93.4981C381.728 93.4981 379.646 96.1294 379.646 99.8362C379.646 103.474 381.636 106.243 385.366 106.243ZM381.934 98.8752C381.934 96.4955 383.467 95.4201 385.252 95.4201C387.036 95.4201 388.501 96.4955 388.501 98.8752H381.934Z" fill="white"/>
<path d="M402.383 105.877L397.212 99.859L401.925 93.8642H399.363L395.221 99.1268V88.4872H393.002V105.877H395.221V100.523L399.82 105.877H402.383Z" fill="white"/>
</svg>
