<svg width="793" height="228" viewBox="0 0 793 228" fill="none" xmlns="http://www.w3.org/2000/svg">
<rect x="4" y="12" width="162" height="141" fill="#FF0080" stroke="white" stroke-width="8"/>
<rect y="157" width="170" height="71" fill="white"/>
<rect x="204" y="12" width="162" height="141" fill="#009ACE" stroke="white" stroke-width="8"/>
<rect x="200" y="157" width="170" height="71" fill="white"/>
<rect x="404" y="12" width="162" height="141" fill="#005DA6" stroke="white" stroke-width="8"/>
<rect x="400" y="157" width="170" height="71" fill="white"/>
<g filter="url(#filter0_d_4370_8247)">
<rect x="596" y="8" width="170" height="149" fill="#000067"/>
<rect x="600" y="12" width="162" height="141" stroke="white" stroke-width="8"/>
</g>
<rect x="596" y="157" width="170" height="71" fill="white"/>
<path d="M24.7443 177.364V189H22.6193L17.5568 181.676H17.4716V189H15.0114V177.364H17.1705L22.1932 184.682H22.2955V177.364H24.7443ZM30.7088 189.17C29.8111 189.17 29.0384 188.989 28.3906 188.625C27.7467 188.258 27.2505 187.739 26.902 187.068C26.5535 186.394 26.3793 185.597 26.3793 184.676C26.3793 183.778 26.5535 182.991 26.902 182.312C27.2505 181.634 27.741 181.106 28.3736 180.727C29.0099 180.348 29.7562 180.159 30.6122 180.159C31.188 180.159 31.724 180.252 32.2202 180.438C32.7202 180.619 33.1558 180.894 33.527 181.261C33.902 181.629 34.1937 182.091 34.402 182.648C34.6103 183.201 34.7145 183.848 34.7145 184.591V185.256H27.3452V183.756H32.4361C32.4361 183.407 32.3603 183.098 32.2088 182.83C32.0573 182.561 31.8471 182.35 31.5781 182.199C31.313 182.044 31.0043 181.966 30.652 181.966C30.2846 181.966 29.9588 182.051 29.6747 182.222C29.3944 182.388 29.1747 182.614 29.0156 182.898C28.8565 183.178 28.7751 183.491 28.7713 183.835V185.261C28.7713 185.693 28.8509 186.066 29.0099 186.381C29.1728 186.695 29.402 186.938 29.6974 187.108C29.9929 187.278 30.3433 187.364 30.7486 187.364C31.0175 187.364 31.2637 187.326 31.4872 187.25C31.7107 187.174 31.902 187.061 32.0611 186.909C32.2202 186.758 32.3414 186.572 32.4247 186.352L34.6634 186.5C34.5497 187.038 34.3168 187.508 33.9645 187.909C33.616 188.307 33.1652 188.617 32.6122 188.841C32.063 189.061 31.4285 189.17 30.7088 189.17ZM40.2372 189.17C39.3546 189.17 38.5914 188.983 37.9474 188.608C37.3073 188.229 36.813 187.703 36.4645 187.028C36.116 186.35 35.9418 185.564 35.9418 184.67C35.9418 183.769 36.116 182.981 36.4645 182.307C36.813 181.629 37.3073 181.102 37.9474 180.727C38.5914 180.348 39.3546 180.159 40.2372 180.159C41.1198 180.159 41.8812 180.348 42.5213 180.727C43.1652 181.102 43.6615 181.629 44.0099 182.307C44.3584 182.981 44.5327 183.769 44.5327 184.67C44.5327 185.564 44.3584 186.35 44.0099 187.028C43.6615 187.703 43.1652 188.229 42.5213 188.608C41.8812 188.983 41.1198 189.17 40.2372 189.17ZM40.2486 187.295C40.6501 187.295 40.9853 187.182 41.2543 186.955C41.5232 186.723 41.7259 186.409 41.8622 186.011C42.0024 185.614 42.0724 185.161 42.0724 184.653C42.0724 184.146 42.0024 183.693 41.8622 183.295C41.7259 182.898 41.5232 182.583 41.2543 182.352C40.9853 182.121 40.6501 182.006 40.2486 182.006C39.8433 182.006 39.5024 182.121 39.2259 182.352C38.9531 182.583 38.7467 182.898 38.6065 183.295C38.4702 183.693 38.402 184.146 38.402 184.653C38.402 185.161 38.4702 185.614 38.6065 186.011C38.7467 186.409 38.9531 186.723 39.2259 186.955C39.5024 187.182 39.8433 187.295 40.2486 187.295ZM48.527 183.955V189H46.1065V180.273H48.4134V181.812H48.5156C48.7088 181.305 49.0327 180.903 49.4872 180.608C49.9418 180.309 50.4929 180.159 51.1406 180.159C51.7467 180.159 52.2751 180.292 52.7259 180.557C53.1766 180.822 53.527 181.201 53.777 181.693C54.027 182.182 54.152 182.765 54.152 183.443V189H51.7315V183.875C51.7353 183.341 51.599 182.924 51.3224 182.625C51.0459 182.322 50.6652 182.17 50.1804 182.17C49.8546 182.17 49.5668 182.241 49.3168 182.381C49.0705 182.521 48.8774 182.725 48.7372 182.994C48.6009 183.259 48.5308 183.58 48.527 183.955ZM59.8082 189V177.364H64.3991C65.2817 177.364 66.0336 177.532 66.6548 177.869C67.276 178.203 67.7495 178.667 68.0753 179.261C68.4048 179.852 68.5696 180.534 68.5696 181.307C68.5696 182.08 68.4029 182.761 68.0696 183.352C67.7363 183.943 67.2533 184.403 66.6207 184.733C65.992 185.062 65.2306 185.227 64.3366 185.227H61.4105V183.256H63.9389C64.4124 183.256 64.8026 183.174 65.1094 183.011C65.42 182.845 65.651 182.616 65.8026 182.324C65.9579 182.028 66.0355 181.689 66.0355 181.307C66.0355 180.92 65.9579 180.583 65.8026 180.295C65.651 180.004 65.42 179.778 65.1094 179.619C64.7988 179.456 64.4048 179.375 63.9276 179.375H62.2685V189H59.8082ZM70.1222 189V180.273H72.5426V189H70.1222ZM71.3381 179.148C70.9782 179.148 70.6695 179.028 70.4119 178.79C70.1581 178.547 70.0312 178.258 70.0312 177.92C70.0312 177.587 70.1581 177.301 70.4119 177.062C70.6695 176.82 70.9782 176.699 71.3381 176.699C71.6979 176.699 72.0047 176.82 72.2585 177.062C72.5161 177.301 72.6449 177.587 72.6449 177.92C72.6449 178.258 72.5161 178.547 72.2585 178.79C72.0047 179.028 71.6979 179.148 71.3381 179.148ZM76.902 183.955V189H74.4815V180.273H76.7884V181.812H76.8906C77.0838 181.305 77.4077 180.903 77.8622 180.608C78.3168 180.309 78.8679 180.159 79.5156 180.159C80.1217 180.159 80.6501 180.292 81.1009 180.557C81.5516 180.822 81.902 181.201 82.152 181.693C82.402 182.182 82.527 182.765 82.527 183.443V189H80.1065V183.875C80.1103 183.341 79.974 182.924 79.6974 182.625C79.4209 182.322 79.0402 182.17 78.5554 182.17C78.2296 182.17 77.9418 182.241 77.6918 182.381C77.4455 182.521 77.2524 182.725 77.1122 182.994C76.9759 183.259 76.9058 183.58 76.902 183.955ZM86.6278 186.489L86.6335 183.585H86.9858L89.7812 180.273H92.5597L88.804 184.659H88.2301L86.6278 186.489ZM84.4347 189V177.364H86.8551V189H84.4347ZM89.8892 189L87.321 185.199L88.9347 183.489L92.7244 189H89.8892Z" fill="black"/>
<path d="M224.744 177.364V189H222.619L217.557 181.676H217.472V189H215.011V177.364H217.17L222.193 184.682H222.295V177.364H224.744ZM230.709 189.17C229.811 189.17 229.038 188.989 228.391 188.625C227.747 188.258 227.25 187.739 226.902 187.068C226.554 186.394 226.379 185.597 226.379 184.676C226.379 183.778 226.554 182.991 226.902 182.312C227.25 181.634 227.741 181.106 228.374 180.727C229.01 180.348 229.756 180.159 230.612 180.159C231.188 180.159 231.724 180.252 232.22 180.438C232.72 180.619 233.156 180.894 233.527 181.261C233.902 181.629 234.194 182.091 234.402 182.648C234.61 183.201 234.714 183.848 234.714 184.591V185.256H227.345V183.756H232.436C232.436 183.407 232.36 183.098 232.209 182.83C232.057 182.561 231.847 182.35 231.578 182.199C231.313 182.044 231.004 181.966 230.652 181.966C230.285 181.966 229.959 182.051 229.675 182.222C229.394 182.388 229.175 182.614 229.016 182.898C228.857 183.178 228.775 183.491 228.771 183.835V185.261C228.771 185.693 228.851 186.066 229.01 186.381C229.173 186.695 229.402 186.938 229.697 187.108C229.993 187.278 230.343 187.364 230.749 187.364C231.018 187.364 231.264 187.326 231.487 187.25C231.711 187.174 231.902 187.061 232.061 186.909C232.22 186.758 232.341 186.572 232.425 186.352L234.663 186.5C234.55 187.038 234.317 187.508 233.964 187.909C233.616 188.307 233.165 188.617 232.612 188.841C232.063 189.061 231.429 189.17 230.709 189.17ZM240.237 189.17C239.355 189.17 238.591 188.983 237.947 188.608C237.307 188.229 236.813 187.703 236.464 187.028C236.116 186.35 235.942 185.564 235.942 184.67C235.942 183.769 236.116 182.981 236.464 182.307C236.813 181.629 237.307 181.102 237.947 180.727C238.591 180.348 239.355 180.159 240.237 180.159C241.12 180.159 241.881 180.348 242.521 180.727C243.165 181.102 243.661 181.629 244.01 182.307C244.358 182.981 244.533 183.769 244.533 184.67C244.533 185.564 244.358 186.35 244.01 187.028C243.661 187.703 243.165 188.229 242.521 188.608C241.881 188.983 241.12 189.17 240.237 189.17ZM240.249 187.295C240.65 187.295 240.985 187.182 241.254 186.955C241.523 186.723 241.726 186.409 241.862 186.011C242.002 185.614 242.072 185.161 242.072 184.653C242.072 184.146 242.002 183.693 241.862 183.295C241.726 182.898 241.523 182.583 241.254 182.352C240.985 182.121 240.65 182.006 240.249 182.006C239.843 182.006 239.502 182.121 239.226 182.352C238.953 182.583 238.747 182.898 238.607 183.295C238.47 183.693 238.402 184.146 238.402 184.653C238.402 185.161 238.47 185.614 238.607 186.011C238.747 186.409 238.953 186.723 239.226 186.955C239.502 187.182 239.843 187.295 240.249 187.295ZM248.527 183.955V189H246.107V180.273H248.413V181.812H248.516C248.709 181.305 249.033 180.903 249.487 180.608C249.942 180.309 250.493 180.159 251.141 180.159C251.747 180.159 252.275 180.292 252.726 180.557C253.177 180.822 253.527 181.201 253.777 181.693C254.027 182.182 254.152 182.765 254.152 183.443V189H251.732V183.875C251.735 183.341 251.599 182.924 251.322 182.625C251.046 182.322 250.665 182.17 250.18 182.17C249.855 182.17 249.567 182.241 249.317 182.381C249.071 182.521 248.877 182.725 248.737 182.994C248.601 183.259 248.531 183.58 248.527 183.955ZM259.808 189V177.364H264.467C265.323 177.364 266.037 177.491 266.609 177.744C267.181 177.998 267.611 178.35 267.899 178.801C268.187 179.248 268.331 179.763 268.331 180.347C268.331 180.801 268.24 181.201 268.058 181.545C267.876 181.886 267.626 182.167 267.308 182.386C266.994 182.602 266.634 182.756 266.229 182.847V182.96C266.672 182.979 267.087 183.104 267.473 183.335C267.863 183.566 268.179 183.89 268.422 184.307C268.664 184.72 268.786 185.212 268.786 185.784C268.786 186.402 268.632 186.953 268.325 187.438C268.022 187.919 267.573 188.299 266.979 188.58C266.384 188.86 265.651 189 264.78 189H259.808ZM262.268 186.989H264.274C264.96 186.989 265.46 186.858 265.774 186.597C266.089 186.331 266.246 185.979 266.246 185.54C266.246 185.218 266.168 184.934 266.013 184.688C265.857 184.441 265.636 184.248 265.348 184.108C265.064 183.968 264.725 183.898 264.331 183.898H262.268V186.989ZM262.268 182.233H264.092C264.429 182.233 264.729 182.174 264.99 182.057C265.255 181.936 265.464 181.765 265.615 181.545C265.77 181.326 265.848 181.062 265.848 180.756C265.848 180.335 265.698 179.996 265.399 179.739C265.104 179.481 264.683 179.352 264.138 179.352H262.268V182.233ZM272.761 177.364V189H270.341V177.364H272.761ZM280.297 185.284V180.273H282.717V189H280.393V187.415H280.303C280.106 187.926 279.778 188.337 279.32 188.648C278.865 188.958 278.31 189.114 277.655 189.114C277.071 189.114 276.558 188.981 276.115 188.716C275.672 188.451 275.325 188.074 275.075 187.585C274.829 187.097 274.704 186.511 274.7 185.83V180.273H277.121V185.398C277.125 185.913 277.263 186.32 277.536 186.619C277.808 186.919 278.174 187.068 278.632 187.068C278.924 187.068 279.196 187.002 279.45 186.869C279.704 186.733 279.909 186.532 280.064 186.267C280.223 186.002 280.301 185.674 280.297 185.284ZM288.631 189.17C287.733 189.17 286.96 188.989 286.312 188.625C285.669 188.258 285.172 187.739 284.824 187.068C284.475 186.394 284.301 185.597 284.301 184.676C284.301 183.778 284.475 182.991 284.824 182.312C285.172 181.634 285.663 181.106 286.295 180.727C286.932 180.348 287.678 180.159 288.534 180.159C289.11 180.159 289.646 180.252 290.142 180.438C290.642 180.619 291.078 180.894 291.449 181.261C291.824 181.629 292.116 182.091 292.324 182.648C292.532 183.201 292.636 183.848 292.636 184.591V185.256H285.267V183.756H290.358C290.358 183.407 290.282 183.098 290.131 182.83C289.979 182.561 289.769 182.35 289.5 182.199C289.235 182.044 288.926 181.966 288.574 181.966C288.206 181.966 287.881 182.051 287.597 182.222C287.316 182.388 287.097 182.614 286.938 182.898C286.778 183.178 286.697 183.491 286.693 183.835V185.261C286.693 185.693 286.773 186.066 286.932 186.381C287.095 186.695 287.324 186.938 287.619 187.108C287.915 187.278 288.265 187.364 288.67 187.364C288.939 187.364 289.186 187.326 289.409 187.25C289.633 187.174 289.824 187.061 289.983 186.909C290.142 186.758 290.263 186.572 290.347 186.352L292.585 186.5C292.472 187.038 292.239 187.508 291.886 187.909C291.538 188.307 291.087 188.617 290.534 188.841C289.985 189.061 289.35 189.17 288.631 189.17Z" fill="black"/>
<path d="M424.744 177.364V189H422.619L417.557 181.676H417.472V189H415.011V177.364H417.17L422.193 184.682H422.295V177.364H424.744ZM430.709 189.17C429.811 189.17 429.038 188.989 428.391 188.625C427.747 188.258 427.25 187.739 426.902 187.068C426.554 186.394 426.379 185.597 426.379 184.676C426.379 183.778 426.554 182.991 426.902 182.312C427.25 181.634 427.741 181.106 428.374 180.727C429.01 180.348 429.756 180.159 430.612 180.159C431.188 180.159 431.724 180.252 432.22 180.438C432.72 180.619 433.156 180.894 433.527 181.261C433.902 181.629 434.194 182.091 434.402 182.648C434.61 183.201 434.714 183.848 434.714 184.591V185.256H427.345V183.756H432.436C432.436 183.407 432.36 183.098 432.209 182.83C432.057 182.561 431.847 182.35 431.578 182.199C431.313 182.044 431.004 181.966 430.652 181.966C430.285 181.966 429.959 182.051 429.675 182.222C429.394 182.388 429.175 182.614 429.016 182.898C428.857 183.178 428.775 183.491 428.771 183.835V185.261C428.771 185.693 428.851 186.066 429.01 186.381C429.173 186.695 429.402 186.938 429.697 187.108C429.993 187.278 430.343 187.364 430.749 187.364C431.018 187.364 431.264 187.326 431.487 187.25C431.711 187.174 431.902 187.061 432.061 186.909C432.22 186.758 432.341 186.572 432.425 186.352L434.663 186.5C434.55 187.038 434.317 187.508 433.964 187.909C433.616 188.307 433.165 188.617 432.612 188.841C432.063 189.061 431.429 189.17 430.709 189.17ZM440.237 189.17C439.355 189.17 438.591 188.983 437.947 188.608C437.307 188.229 436.813 187.703 436.464 187.028C436.116 186.35 435.942 185.564 435.942 184.67C435.942 183.769 436.116 182.981 436.464 182.307C436.813 181.629 437.307 181.102 437.947 180.727C438.591 180.348 439.355 180.159 440.237 180.159C441.12 180.159 441.881 180.348 442.521 180.727C443.165 181.102 443.661 181.629 444.01 182.307C444.358 182.981 444.533 183.769 444.533 184.67C444.533 185.564 444.358 186.35 444.01 187.028C443.661 187.703 443.165 188.229 442.521 188.608C441.881 188.983 441.12 189.17 440.237 189.17ZM440.249 187.295C440.65 187.295 440.985 187.182 441.254 186.955C441.523 186.723 441.726 186.409 441.862 186.011C442.002 185.614 442.072 185.161 442.072 184.653C442.072 184.146 442.002 183.693 441.862 183.295C441.726 182.898 441.523 182.583 441.254 182.352C440.985 182.121 440.65 182.006 440.249 182.006C439.843 182.006 439.502 182.121 439.226 182.352C438.953 182.583 438.747 182.898 438.607 183.295C438.47 183.693 438.402 184.146 438.402 184.653C438.402 185.161 438.47 185.614 438.607 186.011C438.747 186.409 438.953 186.723 439.226 186.955C439.502 187.182 439.843 187.295 440.249 187.295ZM448.527 183.955V189H446.107V180.273H448.413V181.812H448.516C448.709 181.305 449.033 180.903 449.487 180.608C449.942 180.309 450.493 180.159 451.141 180.159C451.747 180.159 452.275 180.292 452.726 180.557C453.177 180.822 453.527 181.201 453.777 181.693C454.027 182.182 454.152 182.765 454.152 183.443V189H451.732V183.875C451.735 183.341 451.599 182.924 451.322 182.625C451.046 182.322 450.665 182.17 450.18 182.17C449.855 182.17 449.567 182.241 449.317 182.381C449.071 182.521 448.877 182.725 448.737 182.994C448.601 183.259 448.531 183.58 448.527 183.955ZM459.808 189V177.364H464.467C465.323 177.364 466.037 177.491 466.609 177.744C467.181 177.998 467.611 178.35 467.899 178.801C468.187 179.248 468.331 179.763 468.331 180.347C468.331 180.801 468.24 181.201 468.058 181.545C467.876 181.886 467.626 182.167 467.308 182.386C466.994 182.602 466.634 182.756 466.229 182.847V182.96C466.672 182.979 467.087 183.104 467.473 183.335C467.863 183.566 468.179 183.89 468.422 184.307C468.664 184.72 468.786 185.212 468.786 185.784C468.786 186.402 468.632 186.953 468.325 187.438C468.022 187.919 467.573 188.299 466.979 188.58C466.384 188.86 465.651 189 464.78 189H459.808ZM462.268 186.989H464.274C464.96 186.989 465.46 186.858 465.774 186.597C466.089 186.331 466.246 185.979 466.246 185.54C466.246 185.218 466.168 184.934 466.013 184.688C465.857 184.441 465.636 184.248 465.348 184.108C465.064 183.968 464.725 183.898 464.331 183.898H462.268V186.989ZM462.268 182.233H464.092C464.429 182.233 464.729 182.174 464.99 182.057C465.255 181.936 465.464 181.765 465.615 181.545C465.77 181.326 465.848 181.062 465.848 180.756C465.848 180.335 465.698 179.996 465.399 179.739C465.104 179.481 464.683 179.352 464.138 179.352H462.268V182.233ZM472.761 177.364V189H470.341V177.364H472.761ZM480.297 185.284V180.273H482.717V189H480.393V187.415H480.303C480.106 187.926 479.778 188.337 479.32 188.648C478.865 188.958 478.31 189.114 477.655 189.114C477.071 189.114 476.558 188.981 476.115 188.716C475.672 188.451 475.325 188.074 475.075 187.585C474.829 187.097 474.704 186.511 474.7 185.83V180.273H477.121V185.398C477.125 185.913 477.263 186.32 477.536 186.619C477.808 186.919 478.174 187.068 478.632 187.068C478.924 187.068 479.196 187.002 479.45 186.869C479.704 186.733 479.909 186.532 480.064 186.267C480.223 186.002 480.301 185.674 480.297 185.284ZM488.631 189.17C487.733 189.17 486.96 188.989 486.312 188.625C485.669 188.258 485.172 187.739 484.824 187.068C484.475 186.394 484.301 185.597 484.301 184.676C484.301 183.778 484.475 182.991 484.824 182.312C485.172 181.634 485.663 181.106 486.295 180.727C486.932 180.348 487.678 180.159 488.534 180.159C489.11 180.159 489.646 180.252 490.142 180.438C490.642 180.619 491.078 180.894 491.449 181.261C491.824 181.629 492.116 182.091 492.324 182.648C492.532 183.201 492.636 183.848 492.636 184.591V185.256H485.267V183.756H490.358C490.358 183.407 490.282 183.098 490.131 182.83C489.979 182.561 489.769 182.35 489.5 182.199C489.235 182.044 488.926 181.966 488.574 181.966C488.206 181.966 487.881 182.051 487.597 182.222C487.316 182.388 487.097 182.614 486.938 182.898C486.778 183.178 486.697 183.491 486.693 183.835V185.261C486.693 185.693 486.773 186.066 486.932 186.381C487.095 186.695 487.324 186.938 487.619 187.108C487.915 187.278 488.265 187.364 488.67 187.364C488.939 187.364 489.186 187.326 489.409 187.25C489.633 187.174 489.824 187.061 489.983 186.909C490.142 186.758 490.263 186.572 490.347 186.352L492.585 186.5C492.472 187.038 492.239 187.508 491.886 187.909C491.538 188.307 491.087 188.617 490.534 188.841C489.985 189.061 489.35 189.17 488.631 189.17Z" fill="black"/>
<path d="M620.744 177.364V189H618.619L613.557 181.676H613.472V189H611.011V177.364H613.17L618.193 184.682H618.295V177.364H620.744ZM626.709 189.17C625.811 189.17 625.038 188.989 624.391 188.625C623.747 188.258 623.25 187.739 622.902 187.068C622.554 186.394 622.379 185.597 622.379 184.676C622.379 183.778 622.554 182.991 622.902 182.312C623.25 181.634 623.741 181.106 624.374 180.727C625.01 180.348 625.756 180.159 626.612 180.159C627.188 180.159 627.724 180.252 628.22 180.438C628.72 180.619 629.156 180.894 629.527 181.261C629.902 181.629 630.194 182.091 630.402 182.648C630.61 183.201 630.714 183.848 630.714 184.591V185.256H623.345V183.756H628.436C628.436 183.407 628.36 183.098 628.209 182.83C628.057 182.561 627.847 182.35 627.578 182.199C627.313 182.044 627.004 181.966 626.652 181.966C626.285 181.966 625.959 182.051 625.675 182.222C625.394 182.388 625.175 182.614 625.016 182.898C624.857 183.178 624.775 183.491 624.771 183.835V185.261C624.771 185.693 624.851 186.066 625.01 186.381C625.173 186.695 625.402 186.938 625.697 187.108C625.993 187.278 626.343 187.364 626.749 187.364C627.018 187.364 627.264 187.326 627.487 187.25C627.711 187.174 627.902 187.061 628.061 186.909C628.22 186.758 628.341 186.572 628.425 186.352L630.663 186.5C630.55 187.038 630.317 187.508 629.964 187.909C629.616 188.307 629.165 188.617 628.612 188.841C628.063 189.061 627.429 189.17 626.709 189.17ZM636.237 189.17C635.355 189.17 634.591 188.983 633.947 188.608C633.307 188.229 632.813 187.703 632.464 187.028C632.116 186.35 631.942 185.564 631.942 184.67C631.942 183.769 632.116 182.981 632.464 182.307C632.813 181.629 633.307 181.102 633.947 180.727C634.591 180.348 635.355 180.159 636.237 180.159C637.12 180.159 637.881 180.348 638.521 180.727C639.165 181.102 639.661 181.629 640.01 182.307C640.358 182.981 640.533 183.769 640.533 184.67C640.533 185.564 640.358 186.35 640.01 187.028C639.661 187.703 639.165 188.229 638.521 188.608C637.881 188.983 637.12 189.17 636.237 189.17ZM636.249 187.295C636.65 187.295 636.985 187.182 637.254 186.955C637.523 186.723 637.726 186.409 637.862 186.011C638.002 185.614 638.072 185.161 638.072 184.653C638.072 184.146 638.002 183.693 637.862 183.295C637.726 182.898 637.523 182.583 637.254 182.352C636.985 182.121 636.65 182.006 636.249 182.006C635.843 182.006 635.502 182.121 635.226 182.352C634.953 182.583 634.747 182.898 634.607 183.295C634.47 183.693 634.402 184.146 634.402 184.653C634.402 185.161 634.47 185.614 634.607 186.011C634.747 186.409 634.953 186.723 635.226 186.955C635.502 187.182 635.843 187.295 636.249 187.295ZM644.527 183.955V189H642.107V180.273H644.413V181.812H644.516C644.709 181.305 645.033 180.903 645.487 180.608C645.942 180.309 646.493 180.159 647.141 180.159C647.747 180.159 648.275 180.292 648.726 180.557C649.177 180.822 649.527 181.201 649.777 181.693C650.027 182.182 650.152 182.765 650.152 183.443V189H647.732V183.875C647.735 183.341 647.599 182.924 647.322 182.625C647.046 182.322 646.665 182.17 646.18 182.17C645.855 182.17 645.567 182.241 645.317 182.381C645.071 182.521 644.877 182.725 644.737 182.994C644.601 183.259 644.531 183.58 644.527 183.955ZM655.808 189V177.364H660.467C661.323 177.364 662.037 177.491 662.609 177.744C663.181 177.998 663.611 178.35 663.899 178.801C664.187 179.248 664.331 179.763 664.331 180.347C664.331 180.801 664.24 181.201 664.058 181.545C663.876 181.886 663.626 182.167 663.308 182.386C662.994 182.602 662.634 182.756 662.229 182.847V182.96C662.672 182.979 663.087 183.104 663.473 183.335C663.863 183.566 664.179 183.89 664.422 184.307C664.664 184.72 664.786 185.212 664.786 185.784C664.786 186.402 664.632 186.953 664.325 187.438C664.022 187.919 663.573 188.299 662.979 188.58C662.384 188.86 661.651 189 660.78 189H655.808ZM658.268 186.989H660.274C660.96 186.989 661.46 186.858 661.774 186.597C662.089 186.331 662.246 185.979 662.246 185.54C662.246 185.218 662.168 184.934 662.013 184.688C661.857 184.441 661.636 184.248 661.348 184.108C661.064 183.968 660.725 183.898 660.331 183.898H658.268V186.989ZM658.268 182.233H660.092C660.429 182.233 660.729 182.174 660.99 182.057C661.255 181.936 661.464 181.765 661.615 181.545C661.77 181.326 661.848 181.062 661.848 180.756C661.848 180.335 661.698 179.996 661.399 179.739C661.104 179.481 660.683 179.352 660.138 179.352H658.268V182.233ZM668.761 177.364V189H666.341V177.364H668.761ZM676.297 185.284V180.273H678.717V189H676.393V187.415H676.303C676.106 187.926 675.778 188.337 675.32 188.648C674.865 188.958 674.31 189.114 673.655 189.114C673.071 189.114 672.558 188.981 672.115 188.716C671.672 188.451 671.325 188.074 671.075 187.585C670.829 187.097 670.704 186.511 670.7 185.83V180.273H673.121V185.398C673.125 185.913 673.263 186.32 673.536 186.619C673.808 186.919 674.174 187.068 674.632 187.068C674.924 187.068 675.196 187.002 675.45 186.869C675.704 186.733 675.909 186.532 676.064 186.267C676.223 186.002 676.301 185.674 676.297 185.284ZM684.631 189.17C683.733 189.17 682.96 188.989 682.312 188.625C681.669 188.258 681.172 187.739 680.824 187.068C680.475 186.394 680.301 185.597 680.301 184.676C680.301 183.778 680.475 182.991 680.824 182.312C681.172 181.634 681.663 181.106 682.295 180.727C682.932 180.348 683.678 180.159 684.534 180.159C685.11 180.159 685.646 180.252 686.142 180.438C686.642 180.619 687.078 180.894 687.449 181.261C687.824 181.629 688.116 182.091 688.324 182.648C688.532 183.201 688.636 183.848 688.636 184.591V185.256H681.267V183.756H686.358C686.358 183.407 686.282 183.098 686.131 182.83C685.979 182.561 685.769 182.35 685.5 182.199C685.235 182.044 684.926 181.966 684.574 181.966C684.206 181.966 683.881 182.051 683.597 182.222C683.316 182.388 683.097 182.614 682.938 182.898C682.778 183.178 682.697 183.491 682.693 183.835V185.261C682.693 185.693 682.773 186.066 682.932 186.381C683.095 186.695 683.324 186.938 683.619 187.108C683.915 187.278 684.265 187.364 684.67 187.364C684.939 187.364 685.186 187.326 685.409 187.25C685.633 187.174 685.824 187.061 685.983 186.909C686.142 186.758 686.263 186.572 686.347 186.352L688.585 186.5C688.472 187.038 688.239 187.508 687.886 187.909C687.538 188.307 687.087 188.617 686.534 188.841C685.985 189.061 685.35 189.17 684.631 189.17ZM695.942 180.273L697.544 183.324L699.186 180.273H701.669L699.141 184.636L701.737 189H699.266L697.544 185.983L695.851 189H693.351L695.942 184.636L693.442 180.273H695.942ZM706.855 189V177.364H711.446C712.329 177.364 713.08 177.532 713.702 177.869C714.323 178.203 714.796 178.667 715.122 179.261C715.452 179.852 715.616 180.534 715.616 181.307C715.616 182.08 715.45 182.761 715.116 183.352C714.783 183.943 714.3 184.403 713.668 184.733C713.039 185.062 712.277 185.227 711.384 185.227H708.457V183.256H710.986C711.459 183.256 711.849 183.174 712.156 183.011C712.467 182.845 712.698 182.616 712.849 182.324C713.005 182.028 713.082 181.689 713.082 181.307C713.082 180.92 713.005 180.583 712.849 180.295C712.698 180.004 712.467 179.778 712.156 179.619C711.846 179.456 711.452 179.375 710.974 179.375H709.315V189H706.855ZM717.169 189V180.273H719.589V189H717.169ZM718.385 179.148C718.025 179.148 717.716 179.028 717.459 178.79C717.205 178.547 717.078 178.258 717.078 177.92C717.078 177.587 717.205 177.301 717.459 177.062C717.716 176.82 718.025 176.699 718.385 176.699C718.745 176.699 719.052 176.82 719.305 177.062C719.563 177.301 719.692 177.587 719.692 177.92C719.692 178.258 719.563 178.547 719.305 178.79C719.052 179.028 718.745 179.148 718.385 179.148ZM723.949 183.955V189H721.528V180.273H723.835V181.812H723.938C724.131 181.305 724.455 180.903 724.909 180.608C725.364 180.309 725.915 180.159 726.562 180.159C727.169 180.159 727.697 180.292 728.148 180.557C728.598 180.822 728.949 181.201 729.199 181.693C729.449 182.182 729.574 182.765 729.574 183.443V189H727.153V183.875C727.157 183.341 727.021 182.924 726.744 182.625C726.468 182.322 726.087 182.17 725.602 182.17C725.277 182.17 724.989 182.241 724.739 182.381C724.492 182.521 724.299 182.725 724.159 182.994C724.023 183.259 723.953 183.58 723.949 183.955ZM733.675 186.489L733.68 183.585H734.033L736.828 180.273H739.607L735.851 184.659H735.277L733.675 186.489ZM731.482 189V177.364H733.902V189H731.482ZM736.936 189L734.368 185.199L735.982 183.489L739.771 189H736.936Z" fill="black"/>
<path d="M16.9915 213L18.6619 202.818H19.4325L17.7621 213H16.9915ZM12.2635 210.062L12.3928 209.296H19.9893L19.8601 210.062H12.2635ZM13.4119 213L15.0824 202.818H15.853L14.1825 213H13.4119ZM12.8551 206.522L12.9794 205.756H20.576L20.4517 206.522H12.8551ZM22.198 213V202.818H28.0893V203.653H23.1277V207.487H27.627V208.322H23.1277V213H22.198ZM30.4011 213V202.818H36.2924V203.653H31.3308V207.487H35.8301V208.322H31.3308V213H30.4011ZM41.5474 213.139C40.8315 213.139 40.22 212.934 39.7129 212.523C39.2091 212.108 38.8213 211.51 38.5495 210.728C38.2811 209.946 38.1468 209.006 38.1468 207.909C38.1468 206.815 38.2811 205.879 38.5495 205.1C38.8213 204.318 39.2108 203.72 39.7179 203.305C40.2283 202.888 40.8381 202.679 41.5474 202.679C42.2567 202.679 42.8649 202.888 43.372 203.305C43.8824 203.72 44.2718 204.318 44.5403 205.1C44.8121 205.879 44.948 206.815 44.948 207.909C44.948 209.006 44.8121 209.946 44.5403 210.728C44.2718 211.51 43.8841 212.108 43.377 212.523C42.8732 212.934 42.2633 213.139 41.5474 213.139ZM41.5474 212.304C42.3329 212.304 42.9461 211.921 43.3869 211.156C43.8277 210.387 44.0481 209.304 44.0481 207.909C44.0481 206.981 43.947 206.189 43.7449 205.533C43.546 204.873 43.2593 204.369 42.8848 204.021C42.5136 203.673 42.0678 203.499 41.5474 203.499C40.7685 203.499 40.157 203.887 39.7129 204.663C39.2688 205.435 39.0467 206.517 39.0467 207.909C39.0467 208.837 39.1461 209.629 39.345 210.286C39.5472 210.942 39.8339 211.442 40.2051 211.787C40.5796 212.132 41.027 212.304 41.5474 212.304ZM50.1333 213.139C49.4174 213.139 48.8059 212.934 48.2988 212.523C47.795 212.108 47.4073 211.51 47.1355 210.728C46.867 209.946 46.7328 209.006 46.7328 207.909C46.7328 206.815 46.867 205.879 47.1355 205.1C47.4073 204.318 47.7967 203.72 48.3038 203.305C48.8142 202.888 49.4241 202.679 50.1333 202.679C50.8426 202.679 51.4508 202.888 51.9579 203.305C52.4683 203.72 52.8578 204.318 53.1262 205.1C53.398 205.879 53.5339 206.815 53.5339 207.909C53.5339 209.006 53.398 209.946 53.1262 210.728C52.8578 211.51 52.47 212.108 51.9629 212.523C51.4591 212.934 50.8493 213.139 50.1333 213.139ZM50.1333 212.304C50.9189 212.304 51.532 211.921 51.9728 211.156C52.4136 210.387 52.6341 209.304 52.6341 207.909C52.6341 206.981 52.533 206.189 52.3308 205.533C52.1319 204.873 51.8452 204.369 51.4707 204.021C51.0995 203.673 50.6537 203.499 50.1333 203.499C49.3545 203.499 48.743 203.887 48.2988 204.663C47.8547 205.435 47.6326 206.517 47.6326 207.909C47.6326 208.837 47.7321 209.629 47.9309 210.286C48.1331 210.942 48.4198 211.442 48.791 211.787C49.1655 212.132 49.613 212.304 50.1333 212.304ZM58.7044 213.139C58.0547 213.139 57.4764 213.017 56.9693 212.771C56.4622 212.526 56.0645 212.191 55.7761 211.767C55.4877 211.339 55.3436 210.857 55.3436 210.32C55.3436 209.899 55.4314 209.507 55.6071 209.142C55.7827 208.774 56.0247 208.466 56.3329 208.217C56.6412 207.965 56.9875 207.801 57.372 207.725V207.67C56.8715 207.525 56.4688 207.238 56.1639 206.81C55.859 206.379 55.7082 205.891 55.7115 205.344C55.7082 204.837 55.8374 204.383 56.0993 203.982C56.3611 203.58 56.7174 203.264 57.1681 203.032C57.6222 202.797 58.1343 202.679 58.7044 202.679C59.2711 202.679 59.7799 202.797 60.2306 203.032C60.6814 203.264 61.0377 203.58 61.2995 203.982C61.5647 204.383 61.6989 204.837 61.7022 205.344C61.6989 205.887 61.5448 206.376 61.2399 206.81C60.935 207.241 60.5339 207.528 60.0368 207.67V207.725C60.4212 207.798 60.7659 207.96 61.0708 208.212C61.3758 208.464 61.6177 208.774 61.7967 209.142C61.9757 209.507 62.0652 209.899 62.0652 210.32C62.0652 210.857 61.9193 211.339 61.6277 211.767C61.3393 212.191 60.9416 212.526 60.4345 212.771C59.9307 213.017 59.354 213.139 58.7044 213.139ZM58.7044 212.304C59.1883 212.304 59.6125 212.218 59.9771 212.045C60.345 211.87 60.6317 211.629 60.8372 211.325C61.046 211.02 61.1504 210.67 61.1504 210.276C61.1504 209.868 61.0427 209.505 60.8272 209.187C60.6118 208.865 60.3201 208.612 59.9522 208.426C59.5843 208.237 59.1684 208.143 58.7044 208.143C58.2404 208.143 57.8227 208.237 57.4515 208.426C57.0836 208.612 56.792 208.865 56.5765 209.187C56.3644 209.505 56.2583 209.868 56.2583 210.276C56.2583 210.67 56.3594 211.02 56.5616 211.325C56.7671 211.629 57.0538 211.87 57.4217 212.045C57.7929 212.218 58.2205 212.304 58.7044 212.304ZM58.7044 207.347C59.1021 207.347 59.4584 207.263 59.7733 207.094C60.0881 206.925 60.3367 206.694 60.519 206.403C60.7046 206.108 60.7991 205.773 60.8024 205.398C60.7991 205.027 60.7063 204.699 60.524 204.414C60.3417 204.126 60.0931 203.902 59.7782 203.743C59.4667 203.58 59.1087 203.499 58.7044 203.499C58.3 203.499 57.9387 203.58 57.6206 203.743C57.3057 203.902 57.0571 204.126 56.8748 204.414C56.6958 204.699 56.608 205.027 56.6113 205.398C56.608 205.773 56.6975 206.108 56.8798 206.403C57.0654 206.694 57.3156 206.925 57.6305 207.094C57.9487 207.263 58.3066 207.347 58.7044 207.347ZM67.2915 213.139C66.5756 213.139 65.9641 212.934 65.457 212.523C64.9532 212.108 64.5655 211.51 64.2937 210.728C64.0252 209.946 63.891 209.006 63.891 207.909C63.891 206.815 64.0252 205.879 64.2937 205.1C64.5655 204.318 64.9549 203.72 65.462 203.305C65.9724 202.888 66.5823 202.679 67.2915 202.679C68.0008 202.679 68.609 202.888 69.1161 203.305C69.6265 203.72 70.016 204.318 70.2844 205.1C70.5562 205.879 70.6921 206.815 70.6921 207.909C70.6921 209.006 70.5562 209.946 70.2844 210.728C70.016 211.51 69.6282 212.108 69.1211 212.523C68.6173 212.934 68.0075 213.139 67.2915 213.139ZM67.2915 212.304C68.0771 212.304 68.6902 211.921 69.131 211.156C69.5719 210.387 69.7923 209.304 69.7923 207.909C69.7923 206.981 69.6912 206.189 69.489 205.533C69.2901 204.873 69.0034 204.369 68.6289 204.021C68.2577 203.673 67.8119 203.499 67.2915 203.499C66.5127 203.499 65.9012 203.887 65.457 204.663C65.0129 205.435 64.7908 206.517 64.7908 207.909C64.7908 208.837 64.8903 209.629 65.0891 210.286C65.2913 210.942 65.578 211.442 65.9492 211.787C66.3237 212.132 66.7712 212.304 67.2915 212.304Z" fill="black"/>
<path d="M220.127 213L221.798 202.818H222.568L220.898 213H220.127ZM215.399 210.062L215.528 209.296H223.125L222.996 210.062H215.399ZM216.548 213L218.218 202.818H218.989L217.318 213H216.548ZM215.991 206.522L216.115 205.756H223.712L223.587 206.522H215.991ZM228.277 213.139C227.561 213.139 226.949 212.934 226.442 212.523C225.939 212.108 225.551 211.51 225.279 210.728C225.011 209.946 224.876 209.006 224.876 207.909C224.876 206.815 225.011 205.879 225.279 205.1C225.551 204.318 225.94 203.72 226.447 203.305C226.958 202.888 227.568 202.679 228.277 202.679C228.986 202.679 229.594 202.888 230.101 203.305C230.612 203.72 231.001 204.318 231.27 205.1C231.542 205.879 231.677 206.815 231.677 207.909C231.677 209.006 231.542 209.946 231.27 210.728C231.001 211.51 230.614 212.108 230.106 212.523C229.603 212.934 228.993 213.139 228.277 213.139ZM228.277 212.304C229.062 212.304 229.676 211.921 230.116 211.156C230.557 210.387 230.778 209.304 230.778 207.909C230.778 206.981 230.677 206.189 230.474 205.533C230.275 204.873 229.989 204.369 229.614 204.021C229.243 203.673 228.797 203.499 228.277 203.499C227.498 203.499 226.887 203.887 226.442 204.663C225.998 205.435 225.776 206.517 225.776 207.909C225.776 208.837 225.876 209.629 226.074 210.286C226.277 210.942 226.563 211.442 226.935 211.787C227.309 212.132 227.757 212.304 228.277 212.304ZM236.863 213.139C236.147 213.139 235.535 212.934 235.028 212.523C234.525 212.108 234.137 211.51 233.865 210.728C233.597 209.946 233.462 209.006 233.462 207.909C233.462 206.815 233.597 205.879 233.865 205.1C234.137 204.318 234.526 203.72 235.033 203.305C235.544 202.888 236.154 202.679 236.863 202.679C237.572 202.679 238.18 202.888 238.687 203.305C239.198 203.72 239.587 204.318 239.856 205.1C240.128 205.879 240.263 206.815 240.263 207.909C240.263 209.006 240.128 209.946 239.856 210.728C239.587 211.51 239.199 212.108 238.692 212.523C238.189 212.934 237.579 213.139 236.863 213.139ZM236.863 212.304C237.648 212.304 238.262 211.921 238.702 211.156C239.143 210.387 239.364 209.304 239.364 207.909C239.364 206.981 239.262 206.189 239.06 205.533C238.861 204.873 238.575 204.369 238.2 204.021C237.829 203.673 237.383 203.499 236.863 203.499C236.084 203.499 235.472 203.887 235.028 204.663C234.584 205.435 234.362 206.517 234.362 207.909C234.362 208.837 234.462 209.629 234.66 210.286C234.863 210.942 235.149 211.442 235.521 211.787C235.895 212.132 236.342 212.304 236.863 212.304ZM245.349 202.679C245.774 202.682 246.185 202.768 246.582 202.938C246.983 203.103 247.345 203.372 247.666 203.743C247.988 204.111 248.243 204.601 248.432 205.214C248.621 205.824 248.715 206.575 248.715 207.467C248.715 208.299 248.642 209.061 248.496 209.754C248.351 210.446 248.132 211.046 247.84 211.553C247.552 212.057 247.187 212.448 246.746 212.727C246.309 213.002 245.797 213.139 245.21 213.139C244.663 213.139 244.178 213.025 243.753 212.796C243.333 212.567 242.991 212.251 242.729 211.847C242.467 211.439 242.305 210.968 242.242 210.435H243.157C243.246 210.978 243.465 211.426 243.813 211.777C244.164 212.128 244.63 212.304 245.21 212.304C246.042 212.304 246.688 211.916 247.149 211.141C247.61 210.365 247.84 209.261 247.84 207.83H247.775C247.616 208.128 247.408 208.388 247.149 208.61C246.894 208.832 246.602 209.006 246.274 209.132C245.946 209.255 245.6 209.316 245.235 209.316C244.668 209.316 244.15 209.174 243.679 208.888C243.208 208.6 242.832 208.207 242.55 207.71C242.269 207.21 242.128 206.64 242.128 206C242.128 205.397 242.26 204.843 242.525 204.339C242.794 203.832 243.168 203.428 243.649 203.126C244.133 202.821 244.7 202.672 245.349 202.679ZM245.349 203.514C244.909 203.514 244.512 203.627 244.161 203.852C243.813 204.074 243.536 204.374 243.331 204.752C243.129 205.127 243.028 205.543 243.028 206C243.028 206.461 243.129 206.88 243.331 207.258C243.536 207.632 243.813 207.931 244.161 208.153C244.512 208.371 244.909 208.481 245.349 208.481C245.687 208.481 246.002 208.413 246.294 208.277C246.586 208.138 246.838 207.949 247.05 207.71C247.265 207.472 247.427 207.201 247.537 206.9C247.65 206.595 247.694 206.275 247.671 205.94C247.631 205.476 247.507 205.062 247.298 204.697C247.093 204.33 246.821 204.041 246.483 203.832C246.148 203.62 245.77 203.514 245.349 203.514ZM251.052 213H250.077L253.781 202.818H254.775L258.479 213H257.505L254.313 204.026H254.244L251.052 213ZM251.753 209.097H256.804V209.933H251.753V209.097ZM267.72 206H266.786C266.716 205.652 266.59 205.33 266.408 205.036C266.229 204.737 266.003 204.477 265.732 204.255C265.46 204.033 265.152 203.861 264.807 203.738C264.462 203.615 264.089 203.554 263.688 203.554C263.045 203.554 262.459 203.721 261.928 204.056C261.401 204.391 260.979 204.883 260.661 205.533C260.346 206.179 260.188 206.971 260.188 207.909C260.188 208.854 260.346 209.649 260.661 210.295C260.979 210.942 261.401 211.432 261.928 211.767C262.459 212.098 263.045 212.264 263.688 212.264C264.089 212.264 264.462 212.203 264.807 212.08C265.152 211.958 265.46 211.787 265.732 211.568C266.003 211.346 266.229 211.086 266.408 210.788C266.59 210.489 266.716 210.166 266.786 209.818H267.72C267.637 210.286 267.482 210.721 267.253 211.126C267.028 211.527 266.739 211.878 266.388 212.18C266.04 212.481 265.639 212.717 265.185 212.886C264.731 213.055 264.232 213.139 263.688 213.139C262.833 213.139 262.074 212.925 261.411 212.498C260.748 212.067 260.228 211.46 259.85 210.678C259.476 209.896 259.288 208.973 259.288 207.909C259.288 206.845 259.476 205.922 259.85 205.14C260.228 204.358 260.748 203.753 261.411 203.325C262.074 202.894 262.833 202.679 263.688 202.679C264.232 202.679 264.731 202.763 265.185 202.933C265.639 203.098 266.04 203.334 266.388 203.638C266.739 203.94 267.028 204.291 267.253 204.692C267.482 205.094 267.637 205.529 267.72 206ZM269.904 213V202.818H275.81V203.653H270.834V207.487H275.497V208.322H270.834V212.165H275.91V213H269.904Z" fill="black"/>
<path d="M420.168 213H420.939L421.421 210.062H423.037L423.166 209.296H421.545L422.003 206.522H423.628L423.753 205.756H422.127L422.609 202.818H421.839L421.356 205.756H418.547L419.03 202.818H418.259L417.777 205.756H416.156L416.032 206.522H417.653L417.195 209.296H415.57L415.44 210.062H417.071L416.589 213H417.359L417.842 210.062H420.65L420.168 213ZM417.966 209.296L418.423 206.522H421.232L420.775 209.296H417.966ZM428.318 213.139C430.461 213.139 431.718 211.205 431.718 207.909C431.718 204.628 430.451 202.679 428.318 202.679C426.185 202.679 424.917 204.628 424.917 207.909C424.917 211.205 426.175 213.139 428.318 213.139ZM428.318 212.304C426.752 212.304 425.817 210.698 425.817 207.909C425.817 205.125 426.757 203.499 428.318 203.499C429.879 203.499 430.819 205.125 430.819 207.909C430.819 210.698 429.884 212.304 428.318 212.304ZM436.904 213.139C439.047 213.139 440.304 211.205 440.304 207.909C440.304 204.628 439.037 202.679 436.904 202.679C434.771 202.679 433.503 204.628 433.503 207.909C433.503 211.205 434.761 213.139 436.904 213.139ZM436.904 212.304C435.338 212.304 434.403 210.698 434.403 207.909C434.403 205.125 435.343 203.499 436.904 203.499C438.465 203.499 439.405 205.125 439.405 207.909C439.405 210.698 438.47 212.304 436.904 212.304ZM445.306 213.139C447.185 213.139 448.547 211.712 448.552 209.783C448.557 207.815 447.17 206.418 445.375 206.418C444.65 206.418 443.973 206.681 443.526 207.059H443.476L443.884 203.653H448.135V202.818H443.103L442.492 207.765L443.422 207.884C443.859 207.521 444.56 207.263 445.246 207.268C446.598 207.273 447.647 208.307 447.652 209.798C447.652 211.235 446.673 212.304 445.306 212.304C444.133 212.304 443.263 211.533 443.203 210.455H442.303C442.348 212.011 443.611 213.139 445.306 213.139ZM453.869 213C456.932 213 458.677 211.086 458.682 207.884C458.682 204.717 456.962 202.818 454.048 202.818H450.886V213H453.869ZM451.816 212.165V203.653H453.994C456.465 203.653 457.777 205.249 457.782 207.884C457.782 210.544 456.44 212.165 453.815 212.165H451.816ZM460.472 213L461.56 209.933H465.836L466.925 213H467.899L464.195 202.818H463.201L459.497 213H460.472ZM461.859 209.097L463.663 204.026H463.733L465.538 209.097H461.859ZM472.632 213.139C474.576 213.154 475.854 211.623 475.854 209.798C475.854 207.884 474.442 206.482 472.747 206.482C471.653 206.482 470.688 207.069 470.206 207.969H470.141C470.146 205.11 471.101 203.499 472.771 203.499C473.935 203.499 474.641 204.275 474.83 205.364H475.744C475.546 203.768 474.417 202.664 472.771 202.664C470.43 202.664 469.266 205.006 469.266 208.332C469.266 211.911 470.942 213.124 472.632 213.139ZM472.632 212.304C471.364 212.304 470.425 211.265 470.315 209.858C470.216 208.516 471.275 207.317 472.632 207.317C473.955 207.317 474.954 208.421 474.954 209.798C474.954 211.185 473.955 212.304 472.632 212.304Z" fill="black"/>
<path d="M615.187 213L616.857 202.818H617.628L615.957 213H615.187ZM610.459 210.062L610.588 209.296H618.185L618.055 210.062H610.459ZM611.607 213L613.278 202.818H614.048L612.378 213H611.607ZM611.05 206.522L611.175 205.756H618.771L618.647 206.522H611.05ZM623.336 213.139C622.621 213.139 622.009 212.934 621.502 212.523C620.998 212.108 620.61 211.51 620.339 210.728C620.07 209.946 619.936 209.006 619.936 207.909C619.936 206.815 620.07 205.879 620.339 205.1C620.61 204.318 621 203.72 621.507 203.305C622.017 202.888 622.627 202.679 623.336 202.679C624.046 202.679 624.654 202.888 625.161 203.305C625.671 203.72 626.061 204.318 626.329 205.1C626.601 205.879 626.737 206.815 626.737 207.909C626.737 209.006 626.601 209.946 626.329 210.728C626.061 211.51 625.673 212.108 625.166 212.523C624.662 212.934 624.052 213.139 623.336 213.139ZM623.336 212.304C624.122 212.304 624.735 211.921 625.176 211.156C625.617 210.387 625.837 209.304 625.837 207.909C625.837 206.981 625.736 206.189 625.534 205.533C625.335 204.873 625.048 204.369 624.674 204.021C624.303 203.673 623.857 203.499 623.336 203.499C622.558 203.499 621.946 203.887 621.502 204.663C621.058 205.435 620.836 206.517 620.836 207.909C620.836 208.837 620.935 209.629 621.134 210.286C621.336 210.942 621.623 211.442 621.994 211.787C622.369 212.132 622.816 212.304 623.336 212.304ZM631.922 213.139C631.206 213.139 630.595 212.934 630.088 212.523C629.584 212.108 629.196 211.51 628.925 210.728C628.656 209.946 628.522 209.006 628.522 207.909C628.522 206.815 628.656 205.879 628.925 205.1C629.196 204.318 629.586 203.72 630.093 203.305C630.603 202.888 631.213 202.679 631.922 202.679C632.632 202.679 633.24 202.888 633.747 203.305C634.257 203.72 634.647 204.318 634.915 205.1C635.187 205.879 635.323 206.815 635.323 207.909C635.323 209.006 635.187 209.946 634.915 210.728C634.647 211.51 634.259 212.108 633.752 212.523C633.248 212.934 632.638 213.139 631.922 213.139ZM631.922 212.304C632.708 212.304 633.321 211.921 633.762 211.156C634.203 210.387 634.423 209.304 634.423 207.909C634.423 206.981 634.322 206.189 634.12 205.533C633.921 204.873 633.634 204.369 633.26 204.021C632.889 203.673 632.443 203.499 631.922 203.499C631.144 203.499 630.532 203.887 630.088 204.663C629.644 205.435 629.422 206.517 629.422 207.909C629.422 208.837 629.521 209.629 629.72 210.286C629.922 210.942 630.209 211.442 630.58 211.787C630.955 212.132 631.402 212.304 631.922 212.304ZM640.508 213.139C639.792 213.139 639.181 212.934 638.674 212.523C638.17 212.108 637.782 211.51 637.51 210.728C637.242 209.946 637.108 209.006 637.108 207.909C637.108 206.815 637.242 205.879 637.51 205.1C637.782 204.318 638.172 203.72 638.679 203.305C639.189 202.888 639.799 202.679 640.508 202.679C641.218 202.679 641.826 202.888 642.333 203.305C642.843 203.72 643.233 204.318 643.501 205.1C643.773 205.879 643.909 206.815 643.909 207.909C643.909 209.006 643.773 209.946 643.501 210.728C643.233 211.51 642.845 212.108 642.338 212.523C641.834 212.934 641.224 213.139 640.508 213.139ZM640.508 212.304C641.294 212.304 641.907 211.921 642.348 211.156C642.789 210.387 643.009 209.304 643.009 207.909C643.009 206.981 642.908 206.189 642.706 205.533C642.507 204.873 642.22 204.369 641.846 204.021C641.474 203.673 641.029 203.499 640.508 203.499C639.729 203.499 639.118 203.887 638.674 204.663C638.23 205.435 638.008 206.517 638.008 207.909C638.008 208.837 638.107 209.629 638.306 210.286C638.508 210.942 638.795 211.442 639.166 211.787C639.541 212.132 639.988 212.304 640.508 212.304ZM649.094 213.139C648.378 213.139 647.767 212.934 647.26 212.523C646.756 212.108 646.368 211.51 646.096 210.728C645.828 209.946 645.694 209.006 645.694 207.909C645.694 206.815 645.828 205.879 646.096 205.1C646.368 204.318 646.758 203.72 647.265 203.305C647.775 202.888 648.385 202.679 649.094 202.679C649.804 202.679 650.412 202.888 650.919 203.305C651.429 203.72 651.819 204.318 652.087 205.1C652.359 205.879 652.495 206.815 652.495 207.909C652.495 209.006 652.359 209.946 652.087 210.728C651.819 211.51 651.431 212.108 650.924 212.523C650.42 212.934 649.81 213.139 649.094 213.139ZM649.094 212.304C649.88 212.304 650.493 211.921 650.934 211.156C651.375 210.387 651.595 209.304 651.595 207.909C651.595 206.981 651.494 206.189 651.292 205.533C651.093 204.873 650.806 204.369 650.432 204.021C650.06 203.673 649.615 203.499 649.094 203.499C648.315 203.499 647.704 203.887 647.26 204.663C646.816 205.435 646.594 206.517 646.594 207.909C646.594 208.837 646.693 209.629 646.892 210.286C647.094 210.942 647.381 211.442 647.752 211.787C648.126 212.132 648.574 212.304 649.094 212.304ZM657.725 213.139C657.304 213.136 656.893 213.051 656.492 212.886C656.091 212.717 655.73 212.446 655.408 212.075C655.087 211.701 654.831 211.207 654.643 210.594C654.454 209.981 654.359 209.227 654.359 208.332C654.359 207.503 654.432 206.744 654.578 206.055C654.724 205.365 654.943 204.769 655.234 204.265C655.526 203.761 655.89 203.372 656.328 203.097C656.765 202.818 657.278 202.679 657.864 202.679C658.414 202.679 658.9 202.793 659.321 203.022C659.742 203.247 660.083 203.562 660.345 203.967C660.607 204.371 660.771 204.837 660.837 205.364H659.922C659.83 204.827 659.609 204.384 659.261 204.036C658.913 203.688 658.448 203.514 657.864 203.514C657.029 203.514 656.383 203.902 655.925 204.678C655.468 205.45 655.238 206.547 655.234 207.969H655.299C655.461 207.667 655.67 207.407 655.925 207.188C656.184 206.966 656.477 206.794 656.805 206.671C657.133 206.545 657.478 206.482 657.839 206.482C658.406 206.482 658.925 206.626 659.395 206.915C659.866 207.2 660.242 207.593 660.524 208.093C660.806 208.59 660.947 209.159 660.947 209.798C660.947 210.405 660.812 210.963 660.544 211.474C660.279 211.984 659.904 212.39 659.42 212.692C658.94 212.993 658.375 213.143 657.725 213.139ZM657.725 212.304C658.169 212.304 658.565 212.191 658.913 211.966C659.265 211.741 659.541 211.439 659.743 211.061C659.946 210.68 660.047 210.259 660.047 209.798C660.047 209.338 659.946 208.92 659.743 208.545C659.541 208.171 659.265 207.873 658.913 207.651C658.565 207.429 658.169 207.317 657.725 207.317C657.387 207.317 657.072 207.387 656.78 207.526C656.489 207.662 656.235 207.849 656.02 208.088C655.808 208.323 655.645 208.594 655.532 208.898C655.423 209.203 655.382 209.523 655.408 209.858C655.445 210.325 655.566 210.745 655.771 211.116C655.98 211.484 656.252 211.774 656.586 211.986C656.925 212.198 657.304 212.304 657.725 212.304ZM663.343 213L667.981 203.718V203.653H662.637V202.818H668.956V203.693L664.322 213H663.343Z" fill="black"/>
<defs>
<filter id="filter0_d_4370_8247" x="584" y="0" width="194" height="173" filterUnits="userSpaceOnUse" color-interpolation-filters="sRGB">
<feFlood flood-opacity="0" result="BackgroundImageFix"/>
<feColorMatrix in="SourceAlpha" type="matrix" values="0 0 0 0 0 0 0 0 0 0 0 0 0 0 0 0 0 0 127 0" result="hardAlpha"/>
<feOffset dy="4"/>
<feGaussianBlur stdDeviation="6"/>
<feColorMatrix type="matrix" values="0 0 0 0 0 0 0 0 0 0 0 0 0 0 0 0 0 0 0.4 0"/>
<feBlend mode="normal" in2="BackgroundImageFix" result="effect1_dropShadow_4370_8247"/>
<feBlend mode="normal" in="SourceGraphic" in2="effect1_dropShadow_4370_8247" result="shape"/>
</filter>
</defs>
</svg>
