<svg width="747" height="337" viewBox="0 0 747 337" fill="none" xmlns="http://www.w3.org/2000/svg">
<path d="M1.11861 24.583V14.4012H7.43253V15.7236H2.65483V18.8259H6.98011V20.1434H2.65483V24.583H1.11861ZM13.0013 21.4161V16.9466H14.4927V24.583H13.0311V23.2606H12.9515C12.7759 23.6682 12.4942 24.008 12.1064 24.2797C11.7219 24.5482 11.243 24.6824 10.6696 24.6824C10.1791 24.6824 9.74487 24.5747 9.36702 24.3593C8.9925 24.1405 8.69752 23.8174 8.48208 23.3898C8.26996 22.9623 8.1639 22.4336 8.1639 21.8039V16.9466H9.65041V21.6249C9.65041 22.1453 9.79458 22.5596 10.0829 22.8678C10.3713 23.176 10.7458 23.3302 11.2065 23.3302C11.4849 23.3302 11.7617 23.2606 12.0368 23.1214C12.3152 22.9822 12.5455 22.7717 12.7278 22.49C12.9134 22.2082 13.0046 21.8503 13.0013 21.4161ZM17.4166 14.4012V24.583H15.9301V14.4012H17.4166ZM20.3429 14.4012V24.583H18.8564V14.4012H20.3429ZM26.4143 14.4012V24.583H24.9278V14.4012H26.4143ZM31.0708 24.7371C30.3548 24.7371 29.7301 24.5731 29.1965 24.2449C28.6628 23.9168 28.2485 23.4578 27.9536 22.8678C27.6586 22.2778 27.5111 21.5885 27.5111 20.7996C27.5111 20.0075 27.6586 19.3148 27.9536 18.7215C28.2485 18.1282 28.6628 17.6675 29.1965 17.3394C29.7301 17.0113 30.3548 16.8472 31.0708 16.8472C31.7867 16.8472 32.4114 17.0113 32.945 17.3394C33.4787 17.6675 33.893 18.1282 34.1879 18.7215C34.4829 19.3148 34.6304 20.0075 34.6304 20.7996C34.6304 21.5885 34.4829 22.2778 34.1879 22.8678C33.893 23.4578 33.4787 23.9168 32.945 24.2449C32.4114 24.5731 31.7867 24.7371 31.0708 24.7371ZM31.0757 23.4893C31.5397 23.4893 31.9242 23.3666 32.2291 23.1214C32.5341 22.8761 32.7594 22.5496 32.9053 22.142C33.0544 21.7343 33.129 21.2852 33.129 20.7947C33.129 20.3074 33.0544 19.86 32.9053 19.4523C32.7594 19.0413 32.5341 18.7116 32.2291 18.463C31.9242 18.2144 31.5397 18.0901 31.0757 18.0901C30.6084 18.0901 30.2206 18.2144 29.9124 18.463C29.6074 18.7116 29.3804 19.0413 29.2313 19.4523C29.0854 19.86 29.0125 20.3074 29.0125 20.7947C29.0125 21.2852 29.0854 21.7343 29.2313 22.142C29.3804 22.5496 29.6074 22.8761 29.9124 23.1214C30.2206 23.3666 30.6084 23.4893 31.0757 23.4893ZM38.9314 27.6057C38.3249 27.6057 37.8028 27.5262 37.3653 27.3671C36.9312 27.208 36.5765 26.9975 36.3014 26.7357C36.0263 26.4739 35.8208 26.1872 35.6849 25.8756L36.9626 25.3486C37.0521 25.4945 37.1714 25.6486 37.3206 25.811C37.4731 25.9767 37.6785 26.1176 37.9371 26.2336C38.1989 26.3496 38.5353 26.4076 38.9463 26.4076C39.5097 26.4076 39.9754 26.27 40.3433 25.9949C40.7112 25.7232 40.8952 25.289 40.8952 24.6924V23.191H40.8007C40.7112 23.3534 40.582 23.534 40.4129 23.7329C40.2472 23.9317 40.0185 24.1041 39.7268 24.2499C39.4352 24.3957 39.0557 24.4687 38.5883 24.4687C37.9851 24.4687 37.4416 24.3278 36.9577 24.0461C36.4771 23.761 36.0959 23.3418 35.8142 22.7883C35.5358 22.2314 35.3966 21.547 35.3966 20.735C35.3966 19.923 35.5341 19.2269 35.8092 18.6469C36.0876 18.0669 36.4688 17.6228 36.9527 17.3145C37.4366 17.003 37.9851 16.8472 38.5983 16.8472C39.0722 16.8472 39.4551 16.9268 39.7467 17.0858C40.0384 17.2416 40.2654 17.4239 40.4278 17.6327C40.5936 17.8415 40.7212 18.0255 40.8106 18.1846H40.92V16.9466H42.3767V24.752C42.3767 25.4083 42.2242 25.9469 41.9193 26.3678C41.6144 26.7887 41.2017 27.1003 40.6814 27.3025C40.1643 27.5046 39.581 27.6057 38.9314 27.6057ZM38.9165 23.2357C39.344 23.2357 39.7053 23.1363 40.0003 22.9374C40.2986 22.7352 40.524 22.4469 40.6764 22.0724C40.8322 21.6945 40.9101 21.2421 40.9101 20.7151C40.9101 20.2014 40.8338 19.749 40.6814 19.3579C40.5289 18.9668 40.3052 18.6618 40.0102 18.4431C39.7152 18.221 39.3507 18.11 38.9165 18.11C38.469 18.11 38.0962 18.226 37.7979 18.458C37.4996 18.6867 37.2742 18.9983 37.1217 19.3927C36.9726 19.7871 36.898 20.2279 36.898 20.7151C36.898 21.2156 36.9742 21.6547 37.1267 22.0326C37.2792 22.4104 37.5045 22.7054 37.8028 22.9175C38.1044 23.1296 38.4757 23.2357 38.9165 23.2357ZM47.0269 24.7371C46.311 24.7371 45.6863 24.5731 45.1526 24.2449C44.619 23.9168 44.2047 23.4578 43.9097 22.8678C43.6148 22.2778 43.4673 21.5885 43.4673 20.7996C43.4673 20.0075 43.6148 19.3148 43.9097 18.7215C44.2047 18.1282 44.619 17.6675 45.1526 17.3394C45.6863 17.0113 46.311 16.8472 47.0269 16.8472C47.7428 16.8472 48.3676 17.0113 48.9012 17.3394C49.4348 17.6675 49.8491 18.1282 50.1441 18.7215C50.4391 19.3148 50.5866 20.0075 50.5866 20.7996C50.5866 21.5885 50.4391 22.2778 50.1441 22.8678C49.8491 23.4578 49.4348 23.9168 48.9012 24.2449C48.3676 24.5731 47.7428 24.7371 47.0269 24.7371ZM47.0319 23.4893C47.4959 23.4893 47.8804 23.3666 48.1853 23.1214C48.4902 22.8761 48.7156 22.5496 48.8614 22.142C49.0106 21.7343 49.0852 21.2852 49.0852 20.7947C49.0852 20.3074 49.0106 19.86 48.8614 19.4523C48.7156 19.0413 48.4902 18.7116 48.1853 18.463C47.8804 18.2144 47.4959 18.0901 47.0319 18.0901C46.5646 18.0901 46.1768 18.2144 45.8685 18.463C45.5636 18.7116 45.3366 19.0413 45.1874 19.4523C45.0416 19.86 44.9687 20.3074 44.9687 20.7947C44.9687 21.2852 45.0416 21.7343 45.1874 22.142C45.3366 22.5496 45.5636 22.8761 45.8685 23.1214C46.1768 23.3666 46.5646 23.4893 47.0319 23.4893Z" fill="#1F2937"/>
<path d="M426.552 24.583V14.4012H432.866V15.7236H428.089V18.8259H432.414V20.1434H428.089V24.583H426.552ZM438.435 21.4161V16.9466H439.927V24.583H438.465V23.2606H438.385C438.21 23.6682 437.928 24.008 437.54 24.2797C437.156 24.5482 436.677 24.6824 436.103 24.6824C435.613 24.6824 435.179 24.5747 434.801 24.3593C434.426 24.1405 434.131 23.8174 433.916 23.3898C433.704 22.9623 433.598 22.4336 433.598 21.8039V16.9466H435.084V21.6249C435.084 22.1453 435.228 22.5596 435.517 22.8678C435.805 23.176 436.18 23.3302 436.64 23.3302C436.919 23.3302 437.195 23.2606 437.471 23.1214C437.749 22.9822 437.979 22.7717 438.162 22.49C438.347 22.2082 438.438 21.8503 438.435 21.4161ZM442.85 14.4012V24.583H441.364V14.4012H442.85ZM445.777 14.4012V24.583H444.29V14.4012H445.777ZM451.848 14.4012V24.583H450.362V14.4012H451.848ZM456.505 24.7371C455.789 24.7371 455.164 24.5731 454.63 24.2449C454.097 23.9168 453.682 23.4578 453.387 22.8678C453.092 22.2778 452.945 21.5885 452.945 20.7996C452.945 20.0075 453.092 19.3148 453.387 18.7215C453.682 18.1282 454.097 17.6675 454.63 17.3394C455.164 17.0113 455.789 16.8472 456.505 16.8472C457.22 16.8472 457.845 17.0113 458.379 17.3394C458.912 17.6675 459.327 18.1282 459.622 18.7215C459.917 19.3148 460.064 20.0075 460.064 20.7996C460.064 21.5885 459.917 22.2778 459.622 22.8678C459.327 23.4578 458.912 23.9168 458.379 24.2449C457.845 24.5731 457.22 24.7371 456.505 24.7371ZM456.51 23.4893C456.974 23.4893 457.358 23.3666 457.663 23.1214C457.968 22.8761 458.193 22.5496 458.339 22.142C458.488 21.7343 458.563 21.2852 458.563 20.7947C458.563 20.3074 458.488 19.86 458.339 19.4523C458.193 19.0413 457.968 18.7116 457.663 18.463C457.358 18.2144 456.974 18.0901 456.51 18.0901C456.042 18.0901 455.654 18.2144 455.346 18.463C455.041 18.7116 454.814 19.0413 454.665 19.4523C454.519 19.86 454.446 20.3074 454.446 20.7947C454.446 21.2852 454.519 21.7343 454.665 22.142C454.814 22.5496 455.041 22.8761 455.346 23.1214C455.654 23.3666 456.042 23.4893 456.51 23.4893ZM464.365 27.6057C463.759 27.6057 463.237 27.5262 462.799 27.3671C462.365 27.208 462.01 26.9975 461.735 26.7357C461.46 26.4739 461.255 26.1872 461.119 25.8756L462.396 25.3486C462.486 25.4945 462.605 25.6486 462.754 25.811C462.907 25.9767 463.112 26.1176 463.371 26.2336C463.633 26.3496 463.969 26.4076 464.38 26.4076C464.944 26.4076 465.409 26.27 465.777 25.9949C466.145 25.7232 466.329 25.289 466.329 24.6924V23.191H466.234C466.145 23.3534 466.016 23.534 465.847 23.7329C465.681 23.9317 465.452 24.1041 465.161 24.2499C464.869 24.3957 464.489 24.4687 464.022 24.4687C463.419 24.4687 462.875 24.3278 462.391 24.0461C461.911 23.761 461.53 23.3418 461.248 22.7883C460.97 22.2314 460.83 21.547 460.83 20.735C460.83 19.923 460.968 19.2269 461.243 18.6469C461.521 18.0669 461.903 17.6228 462.386 17.3145C462.87 17.003 463.419 16.8472 464.032 16.8472C464.506 16.8472 464.889 16.9268 465.181 17.0858C465.472 17.2416 465.699 17.4239 465.862 17.6327C466.027 17.8415 466.155 18.0255 466.244 18.1846H466.354V16.9466H467.81V24.752C467.81 25.4083 467.658 25.9469 467.353 26.3678C467.048 26.7887 466.636 27.1003 466.115 27.3025C465.598 27.5046 465.015 27.6057 464.365 27.6057ZM464.35 23.2357C464.778 23.2357 465.139 23.1363 465.434 22.9374C465.732 22.7352 465.958 22.4469 466.11 22.0724C466.266 21.6945 466.344 21.2421 466.344 20.7151C466.344 20.2014 466.268 19.749 466.115 19.3579C465.963 18.9668 465.739 18.6618 465.444 18.4431C465.149 18.221 464.784 18.11 464.35 18.11C463.903 18.11 463.53 18.226 463.232 18.458C462.933 18.6867 462.708 18.9983 462.556 19.3927C462.406 19.7871 462.332 20.2279 462.332 20.7151C462.332 21.2156 462.408 21.6547 462.56 22.0326C462.713 22.4104 462.938 22.7054 463.237 22.9175C463.538 23.1296 463.909 23.2357 464.35 23.2357ZM472.461 24.7371C471.745 24.7371 471.12 24.5731 470.586 24.2449C470.053 23.9168 469.638 23.4578 469.344 22.8678C469.049 22.2778 468.901 21.5885 468.901 20.7996C468.901 20.0075 469.049 19.3148 469.344 18.7215C469.638 18.1282 470.053 17.6675 470.586 17.3394C471.12 17.0113 471.745 16.8472 472.461 16.8472C473.177 16.8472 473.801 17.0113 474.335 17.3394C474.869 17.6675 475.283 18.1282 475.578 18.7215C475.873 19.3148 476.02 20.0075 476.02 20.7996C476.02 21.5885 475.873 22.2778 475.578 22.8678C475.283 23.4578 474.869 23.9168 474.335 24.2449C473.801 24.5731 473.177 24.7371 472.461 24.7371ZM472.466 23.4893C472.93 23.4893 473.314 23.3666 473.619 23.1214C473.924 22.8761 474.149 22.5496 474.295 22.142C474.444 21.7343 474.519 21.2852 474.519 20.7947C474.519 20.3074 474.444 19.86 474.295 19.4523C474.149 19.0413 473.924 18.7116 473.619 18.463C473.314 18.2144 472.93 18.0901 472.466 18.0901C471.998 18.0901 471.611 18.2144 471.302 18.463C470.997 18.7116 470.77 19.0413 470.621 19.4523C470.475 19.86 470.402 20.3074 470.402 20.7947C470.402 21.2852 470.475 21.7343 470.621 22.142C470.77 22.5496 470.997 22.8761 471.302 23.1214C471.611 23.3666 471.998 23.4893 472.466 23.4893ZM480.384 24.583V14.4012H481.871V18.1846H481.96C482.046 18.0255 482.17 17.8415 482.333 17.6327C482.495 17.4239 482.721 17.2416 483.009 17.0858C483.297 16.9268 483.679 16.8472 484.152 16.8472C484.769 16.8472 485.319 17.003 485.803 17.3145C486.287 17.6261 486.666 18.0752 486.942 18.6618C487.22 19.2485 487.359 19.9545 487.359 20.7797C487.359 21.605 487.222 22.3126 486.947 22.9026C486.671 23.4893 486.294 23.9417 485.813 24.2599C485.332 24.5747 484.784 24.7322 484.167 24.7322C483.703 24.7322 483.324 24.6543 483.029 24.4985C482.737 24.3427 482.509 24.1604 482.343 23.9516C482.177 23.7428 482.05 23.5572 481.96 23.3948H481.836V24.583H480.384ZM481.841 20.7648C481.841 21.3018 481.919 21.7724 482.074 22.1768C482.23 22.5811 482.456 22.8976 482.751 23.1263C483.045 23.3517 483.407 23.4644 483.834 23.4644C484.278 23.4644 484.65 23.3467 484.948 23.1114C485.246 22.8728 485.472 22.5496 485.624 22.142C485.78 21.7343 485.858 21.2752 485.858 20.7648C485.858 20.261 485.782 19.8086 485.629 19.4076C485.48 19.0065 485.255 18.69 484.953 18.458C484.655 18.226 484.282 18.11 483.834 18.11C483.403 18.11 483.039 18.221 482.741 18.4431C482.446 18.6652 482.222 18.9751 482.069 19.3728C481.917 19.7705 481.841 20.2345 481.841 20.7648ZM491.431 24.7272C490.749 24.7272 490.16 24.6029 489.667 24.3543C489.176 24.1057 488.798 23.7677 488.533 23.3401C488.268 22.9092 488.135 22.422 488.135 21.8785C488.135 21.4642 488.221 21.0963 488.394 20.7748C488.566 20.45 488.806 20.15 489.115 19.8749C489.423 19.5998 489.779 19.3231 490.184 19.0447L491.824 17.8863C492.103 17.704 492.32 17.5117 492.475 17.3096C492.631 17.1041 492.709 16.8505 492.709 16.5489C492.709 16.3103 492.606 16.0816 492.401 15.8628C492.195 15.6441 491.92 15.5347 491.576 15.5347C491.337 15.5347 491.127 15.5927 490.944 15.7087C490.765 15.8247 490.624 15.9739 490.522 16.1562C490.422 16.3351 490.372 16.5241 490.372 16.7229C490.372 16.9549 490.435 17.1886 490.561 17.4239C490.691 17.6592 490.856 17.9028 491.059 18.1547C491.261 18.4033 491.473 18.6618 491.695 18.9303L496.423 24.583H494.743L490.83 19.9843C490.502 19.5965 490.197 19.2319 489.915 18.8905C489.633 18.5458 489.405 18.1978 489.229 17.8465C489.057 17.4919 488.971 17.109 488.971 16.6981C488.971 16.2307 489.077 15.8164 489.289 15.4552C489.504 15.0906 489.804 14.8055 490.189 14.6001C490.573 14.3946 491.024 14.2918 491.541 14.2918C492.064 14.2918 492.514 14.3946 492.888 14.6001C493.266 14.8022 493.556 15.0724 493.758 15.4104C493.964 15.7452 494.066 16.1114 494.066 16.5091C494.066 16.993 493.945 17.4206 493.703 17.7918C493.465 18.1597 493.135 18.4978 492.714 18.806L490.671 20.3124C490.273 20.6041 489.996 20.8924 489.841 21.1775C489.688 21.4592 489.612 21.6796 489.612 21.8387C489.612 22.1304 489.686 22.4005 489.836 22.6491C489.988 22.8976 490.2 23.0965 490.472 23.2456C490.747 23.3948 491.069 23.4694 491.436 23.4694C491.814 23.4694 492.182 23.3882 492.54 23.2258C492.901 23.06 493.228 22.8231 493.52 22.5148C493.814 22.2066 494.048 21.837 494.221 21.4062C494.393 20.9753 494.479 20.493 494.479 19.9594H495.821C495.821 20.6157 495.747 21.1708 495.598 21.6249C495.448 22.0757 495.268 22.4436 495.056 22.7286C494.847 23.0103 494.65 23.2307 494.464 23.3898C494.404 23.4429 494.348 23.4959 494.295 23.5489C494.242 23.6019 494.186 23.655 494.126 23.708C493.781 24.056 493.364 24.3129 492.873 24.4786C492.386 24.6443 491.905 24.7272 491.431 24.7272ZM498.205 24.583L495.957 16.9466H497.494L498.99 22.5546H499.065L500.566 16.9466H502.102L503.594 22.5297H503.668L505.155 16.9466H506.691L504.449 24.583H502.933L501.381 19.0695H501.267L499.716 24.583H498.205Z" fill="#1F2937"/>
<path d="M2.65483 199.846V210.028H1.11861V199.846H2.65483ZM7.42935 210.182C6.69024 210.182 6.05387 210.015 5.52026 209.68C4.98995 209.342 4.58228 208.876 4.29724 208.283C4.01221 207.69 3.86969 207.01 3.86969 206.245C3.86969 205.469 4.01552 204.785 4.30719 204.191C4.59885 203.595 5.00984 203.129 5.54014 202.794C6.07045 202.46 6.69521 202.292 7.41443 202.292C7.99445 202.292 8.5115 202.4 8.96557 202.615C9.41964 202.827 9.78588 203.126 10.0643 203.51C10.346 203.895 10.5134 204.344 10.5664 204.858H9.11969C9.04014 204.5 8.85785 204.191 8.57281 203.933C8.29109 203.674 7.91325 203.545 7.43929 203.545C7.02499 203.545 6.66206 203.654 6.35051 203.873C6.04227 204.089 5.80198 204.397 5.62963 204.798C5.45728 205.196 5.37111 205.666 5.37111 206.21C5.37111 206.767 5.45563 207.247 5.62466 207.652C5.79369 208.056 6.03233 208.369 6.34057 208.591C6.65212 208.813 7.01836 208.924 7.43929 208.924C7.72101 208.924 7.97622 208.873 8.20491 208.77C8.43692 208.664 8.63081 208.513 8.78659 208.318C8.94568 208.122 9.05671 207.887 9.11969 207.612H10.5664C10.5134 208.106 10.3526 208.546 10.0842 208.934C9.81571 209.322 9.4561 209.627 9.00534 209.849C8.5579 210.071 8.03257 210.182 7.42935 210.182ZM14.8127 210.182C14.0968 210.182 13.472 210.018 12.9384 209.69C12.4048 209.362 11.9905 208.903 11.6955 208.313C11.4005 207.723 11.253 207.033 11.253 206.245C11.253 205.452 11.4005 204.76 11.6955 204.167C11.9905 203.573 12.4048 203.113 12.9384 202.784C13.472 202.456 14.0968 202.292 14.8127 202.292C15.5286 202.292 16.1534 202.456 16.687 202.784C17.2206 203.113 17.6349 203.573 17.9299 204.167C18.2249 204.76 18.3724 205.452 18.3724 206.245C18.3724 207.033 18.2249 207.723 17.9299 208.313C17.6349 208.903 17.2206 209.362 16.687 209.69C16.1534 210.018 15.5286 210.182 14.8127 210.182ZM14.8177 208.934C15.2817 208.934 15.6662 208.812 15.9711 208.566C16.276 208.321 16.5014 207.995 16.6472 207.587C16.7964 207.179 16.8709 206.73 16.8709 206.24C16.8709 205.752 16.7964 205.305 16.6472 204.897C16.5014 204.486 16.276 204.157 15.9711 203.908C15.6662 203.659 15.2817 203.535 14.8177 203.535C14.3503 203.535 13.9626 203.659 13.6543 203.908C13.3494 204.157 13.1224 204.486 12.9732 204.897C12.8274 205.305 12.7545 205.752 12.7545 206.24C12.7545 206.73 12.8274 207.179 12.9732 207.587C13.1224 207.995 13.3494 208.321 13.6543 208.566C13.9626 208.812 14.3503 208.934 14.8177 208.934ZM20.9581 205.494V210.028H19.4716V202.392H20.8985V203.635H20.9929C21.1686 203.23 21.4437 202.905 21.8182 202.66C22.1961 202.415 22.6717 202.292 23.2451 202.292C23.7654 202.292 24.2212 202.402 24.6123 202.62C25.0034 202.836 25.3066 203.157 25.5221 203.585C25.7375 204.012 25.8452 204.541 25.8452 205.171V210.028H24.3587V205.35C24.3587 204.796 24.2145 204.364 23.9262 204.052C23.6378 203.737 23.2418 203.58 22.738 203.58C22.3933 203.58 22.0867 203.654 21.8182 203.804C21.5531 203.953 21.3426 204.171 21.1868 204.46C21.0344 204.745 20.9581 205.09 20.9581 205.494ZM31.4331 199.846L34.2669 208.139H34.3813L37.2151 199.846H38.8756L35.2115 210.028H33.4367L29.7726 199.846H31.4331ZM41.137 210.197C40.6531 210.197 40.2156 210.108 39.8245 209.929C39.4334 209.746 39.1235 209.483 38.8948 209.138C38.6694 208.793 38.5567 208.371 38.5567 207.87C38.5567 207.439 38.6396 207.085 38.8053 206.806C38.971 206.528 39.1947 206.308 39.4765 206.145C39.7582 205.983 40.0731 205.86 40.4211 205.777C40.7691 205.694 41.1237 205.631 41.485 205.588C41.9424 205.535 42.3136 205.492 42.5986 205.459C42.8837 205.423 43.0908 205.365 43.2201 205.285C43.3493 205.206 43.414 205.076 43.414 204.897V204.863C43.414 204.428 43.2913 204.092 43.0461 203.853C42.8041 203.615 42.4429 203.495 41.9623 203.495C41.4618 203.495 41.0674 203.606 40.779 203.828C40.494 204.047 40.2968 204.291 40.1874 204.559L38.7904 204.241C38.9561 203.777 39.1981 203.403 39.5162 203.118C39.8377 202.829 40.2073 202.62 40.6249 202.491C41.0425 202.359 41.4817 202.292 41.9424 202.292C42.2473 202.292 42.5705 202.329 42.9118 202.402C43.2565 202.471 43.578 202.6 43.8763 202.789C44.1779 202.978 44.4249 203.248 44.6171 203.6C44.8093 203.948 44.9054 204.4 44.9054 204.957V210.028H43.4537V208.984H43.3941C43.298 209.176 43.1538 209.365 42.9616 209.551C42.7693 209.736 42.5224 209.89 42.2208 210.013C41.9192 210.136 41.5579 210.197 41.137 210.197ZM41.4601 209.004C41.8711 209.004 42.2224 208.923 42.5141 208.76C42.8091 208.598 43.0328 208.386 43.1853 208.124C43.3411 207.859 43.4189 207.575 43.4189 207.274V206.289C43.3659 206.342 43.2632 206.392 43.1107 206.439C42.9616 206.482 42.7909 206.52 42.5986 206.553C42.4064 206.583 42.2191 206.611 42.0368 206.637C41.8545 206.661 41.7021 206.68 41.5795 206.697C41.2911 206.734 41.0276 206.795 40.789 206.881C40.5536 206.967 40.3647 207.091 40.2222 207.254C40.083 207.413 40.0134 207.625 40.0134 207.89C40.0134 208.258 40.1493 208.537 40.4211 208.725C40.6929 208.911 41.0392 209.004 41.4601 209.004ZM46.3254 210.028V202.392H47.7622V203.605H47.8417C47.9809 203.194 48.2262 202.871 48.5775 202.635C48.9322 202.397 49.3332 202.277 49.7806 202.277C49.8734 202.277 49.9828 202.281 50.1088 202.287C50.238 202.294 50.3391 202.302 50.412 202.312V203.734C50.3524 203.717 50.2463 203.699 50.0939 203.679C49.9414 203.656 49.7889 203.644 49.6365 203.644C49.2851 203.644 48.9719 203.719 48.6968 203.868C48.4251 204.014 48.2096 204.218 48.0505 204.48C47.8914 204.738 47.8119 205.033 47.8119 205.365V210.028H46.3254ZM51.1384 210.028V202.392H52.6249V210.028H51.1384ZM51.8891 201.213C51.6306 201.213 51.4086 201.127 51.2229 200.955C51.0407 200.779 50.9495 200.57 50.9495 200.328C50.9495 200.083 51.0407 199.874 51.2229 199.702C51.4086 199.526 51.6306 199.439 51.8891 199.439C52.1477 199.439 52.3681 199.526 52.5504 199.702C52.736 199.874 52.8288 200.083 52.8288 200.328C52.8288 200.57 52.736 200.779 52.5504 200.955C52.3681 201.127 52.1477 201.213 51.8891 201.213ZM56.2871 210.197C55.8032 210.197 55.3657 210.108 54.9746 209.929C54.5835 209.746 54.2736 209.483 54.0449 209.138C53.8195 208.793 53.7068 208.371 53.7068 207.87C53.7068 207.439 53.7897 207.085 53.9554 206.806C54.1211 206.528 54.3448 206.308 54.6265 206.145C54.9083 205.983 55.2231 205.86 55.5711 205.777C55.9192 205.694 56.2738 205.631 56.6351 205.588C57.0925 205.535 57.4637 205.492 57.7487 205.459C58.0337 205.423 58.2409 205.365 58.3702 205.285C58.4994 205.206 58.564 205.076 58.564 204.897V204.863C58.564 204.428 58.4414 204.092 58.1961 203.853C57.9542 203.615 57.5929 203.495 57.1123 203.495C56.6119 203.495 56.2175 203.606 55.9291 203.828C55.6441 204.047 55.4469 204.291 55.3375 204.559L53.9405 204.241C54.1062 203.777 54.3481 203.403 54.6663 203.118C54.9878 202.829 55.3574 202.62 55.775 202.491C56.1926 202.359 56.6318 202.292 57.0925 202.292C57.3974 202.292 57.7205 202.329 58.0619 202.402C58.4066 202.471 58.7281 202.6 59.0264 202.789C59.328 202.978 59.5749 203.248 59.7672 203.6C59.9594 203.948 60.0555 204.4 60.0555 204.957V210.028H58.6038V208.984H58.5442C58.448 209.176 58.3039 209.365 58.1116 209.551C57.9194 209.736 57.6725 209.89 57.3709 210.013C57.0693 210.136 56.708 210.197 56.2871 210.197ZM56.6102 209.004C57.0212 209.004 57.3725 208.923 57.6642 208.76C57.9592 208.598 58.1829 208.386 58.3354 208.124C58.4911 207.859 58.569 207.575 58.569 207.274V206.289C58.516 206.342 58.4132 206.392 58.2608 206.439C58.1116 206.482 57.9409 206.52 57.7487 206.553C57.5565 206.583 57.3692 206.611 57.1869 206.637C57.0046 206.661 56.8522 206.68 56.7295 206.697C56.4412 206.734 56.1777 206.795 55.939 206.881C55.7037 206.967 55.5148 207.091 55.3723 207.254C55.2331 207.413 55.1635 207.625 55.1635 207.89C55.1635 208.258 55.2994 208.537 55.5711 208.725C55.8429 208.911 56.1893 209.004 56.6102 209.004ZM65.0401 202.392V203.585H60.8689V202.392H65.0401ZM61.9875 200.562H63.474V207.786C63.474 208.074 63.5171 208.291 63.6033 208.437C63.6895 208.58 63.8005 208.677 63.9364 208.73C64.0756 208.78 64.2264 208.805 64.3888 208.805C64.5081 208.805 64.6125 208.797 64.702 208.78C64.7915 208.764 64.8611 208.75 64.9108 208.74L65.1793 209.968C65.0931 210.001 64.9705 210.035 64.8114 210.068C64.6523 210.104 64.4534 210.124 64.2148 210.127C63.8237 210.134 63.4591 210.064 63.1211 209.919C62.783 209.773 62.5096 209.547 62.3007 209.243C62.0919 208.938 61.9875 208.555 61.9875 208.094V200.562ZM66.1244 210.028V202.392H67.6109V210.028H66.1244ZM66.8752 201.213C66.6166 201.213 66.3946 201.127 66.209 200.955C66.0267 200.779 65.9355 200.57 65.9355 200.328C65.9355 200.083 66.0267 199.874 66.209 199.702C66.3946 199.526 66.6166 199.439 66.8752 199.439C67.1337 199.439 67.3541 199.526 67.5364 199.702C67.722 199.874 67.8148 200.083 67.8148 200.328C67.8148 200.57 67.722 200.779 67.5364 200.955C67.3541 201.127 67.1337 201.213 66.8752 201.213ZM72.2674 210.182C71.5515 210.182 70.9267 210.018 70.3931 209.69C69.8595 209.362 69.4452 208.903 69.1502 208.313C68.8552 207.723 68.7077 207.033 68.7077 206.245C68.7077 205.452 68.8552 204.76 69.1502 204.167C69.4452 203.573 69.8595 203.113 70.3931 202.784C70.9267 202.456 71.5515 202.292 72.2674 202.292C72.9833 202.292 73.6081 202.456 74.1417 202.784C74.6753 203.113 75.0896 203.573 75.3846 204.167C75.6796 204.76 75.8271 205.452 75.8271 206.245C75.8271 207.033 75.6796 207.723 75.3846 208.313C75.0896 208.903 74.6753 209.362 74.1417 209.69C73.6081 210.018 72.9833 210.182 72.2674 210.182ZM72.2724 208.934C72.7364 208.934 73.1208 208.812 73.4258 208.566C73.7307 208.321 73.9561 207.995 74.1019 207.587C74.2511 207.179 74.3256 206.73 74.3256 206.24C74.3256 205.752 74.2511 205.305 74.1019 204.897C73.9561 204.486 73.7307 204.157 73.4258 203.908C73.1208 203.659 72.7364 203.535 72.2724 203.535C71.805 203.535 71.4173 203.659 71.109 203.908C70.8041 204.157 70.5771 204.486 70.4279 204.897C70.2821 205.305 70.2092 205.752 70.2092 206.24C70.2092 206.73 70.2821 207.179 70.4279 207.587C70.5771 207.995 70.8041 208.321 71.109 208.566C71.4173 208.812 71.805 208.934 72.2724 208.934ZM78.4128 205.494V210.028H76.9263V202.392H78.3532V203.635H78.4476C78.6233 203.23 78.8984 202.905 79.2729 202.66C79.6508 202.415 80.1264 202.292 80.6998 202.292C81.2201 202.292 81.6758 202.402 82.0669 202.62C82.458 202.836 82.7613 203.157 82.9767 203.585C83.1922 204.012 83.2999 204.541 83.2999 205.171V210.028H81.8134V205.35C81.8134 204.796 81.6692 204.364 81.3809 204.052C81.0925 203.737 80.6964 203.58 80.1927 203.58C79.848 203.58 79.5414 203.654 79.2729 203.804C79.0078 203.953 78.7973 204.171 78.6415 204.46C78.4891 204.745 78.4128 205.09 78.4128 205.494ZM90.4558 204.256L89.1085 204.495C89.0522 204.322 88.9627 204.158 88.84 204.002C88.7207 203.847 88.5583 203.719 88.3528 203.62C88.1473 203.52 87.8905 203.47 87.5822 203.47C87.1613 203.47 86.81 203.565 86.5283 203.754C86.2465 203.939 86.1057 204.18 86.1057 204.475C86.1057 204.73 86.2001 204.935 86.3891 205.091C86.578 205.247 86.8829 205.375 87.3038 205.474L88.5169 205.752C89.2195 205.915 89.7432 206.165 90.0879 206.503C90.4326 206.841 90.605 207.28 90.605 207.821C90.605 208.278 90.4724 208.686 90.2072 209.044C89.9454 209.398 89.5792 209.677 89.1085 209.879C88.6412 210.081 88.0993 210.182 87.4828 210.182C86.6277 210.182 85.93 210 85.3898 209.635C84.8495 209.267 84.5181 208.745 84.3954 208.069L85.8322 207.85C85.9217 208.225 86.1057 208.508 86.3841 208.701C86.6625 208.89 87.0254 208.984 87.4729 208.984C87.9601 208.984 88.3495 208.883 88.6412 208.681C88.9328 208.475 89.0787 208.225 89.0787 207.93C89.0787 207.691 88.9892 207.491 88.8102 207.328C88.6346 207.166 88.3644 207.043 87.9998 206.961L86.7072 206.677C85.9946 206.515 85.4677 206.256 85.1263 205.902C84.7882 205.547 84.6192 205.098 84.6192 204.554C84.6192 204.104 84.7451 203.709 84.997 203.371C85.2489 203.033 85.5969 202.769 86.041 202.581C86.4852 202.388 86.9939 202.292 87.5673 202.292C88.3926 202.292 89.0422 202.471 89.5162 202.829C89.9901 203.184 90.3034 203.659 90.4558 204.256Z" fill="#1F2937"/>
<path d="M265.159 124.138C259.622 124.138 254.844 123.028 250.825 120.809C246.83 118.566 243.746 115.377 241.574 111.242C239.424 107.083 238.35 102.153 238.35 96.4529C238.35 90.8924 239.424 86.0329 241.574 81.8742C243.746 77.6922 246.795 74.4331 250.72 72.0968C254.669 69.7604 259.295 68.5923 264.598 68.5923C268.243 68.5923 271.607 69.1647 274.691 70.3095C277.798 71.4543 280.497 73.1715 282.786 75.4611C285.099 77.7506 286.898 80.6126 288.183 84.047C289.468 87.458 290.111 91.4298 290.111 95.9622V100.098H244.307V90.6705H275.567C275.544 88.6145 275.076 86.7922 274.165 85.2035C273.254 83.5914 272.004 82.3298 270.415 81.4187C268.827 80.5075 266.981 80.0519 264.878 80.0519C262.729 80.0519 260.802 80.5542 259.096 81.5588C257.414 82.5401 256.094 83.8718 255.136 85.5539C254.201 87.2127 253.711 89.0584 253.664 91.091V100.273C253.664 102.819 254.143 105.027 255.101 106.896C256.082 108.742 257.449 110.167 259.201 111.172C260.953 112.176 263.033 112.679 265.439 112.679C267.075 112.679 268.558 112.457 269.89 112.013C271.222 111.545 272.366 110.868 273.324 109.98C274.305 109.069 275.041 107.959 275.532 106.651L289.83 107.422C289.153 110.81 287.728 113.753 285.555 116.253C283.382 118.753 280.567 120.692 277.109 122.071C273.675 123.449 269.691 124.138 265.159 124.138Z" fill="#4F46E5"/>
<path d="M160.813 51.4675H168.114C172.656 51.4675 176.338 55.1495 176.338 59.6914V107.567C176.361 109.179 176.677 110.359 177.284 111.106C178.6 112.675 181.593 112.425 183.036 112.155L187.644 122.292C185.234 123.4 181.424 124.056 178.09 124.178C172.203 124.412 167.857 123.337 165.054 120.954C162.25 118.571 160.836 114.763 160.813 109.529L160.813 51.4675Z" fill="#4F46E5"/>
<path d="M74.4772 124.138C68.9868 124.138 64.2441 122.982 60.249 120.669C56.2773 118.356 53.205 115.12 51.0322 110.961C48.8828 106.779 47.8081 101.92 47.8081 96.3825C47.8081 90.8455 48.8828 85.9976 51.0322 81.839C53.205 77.6569 56.2773 74.4095 60.249 72.0965C64.2441 69.7602 68.9868 68.592 74.4772 68.592C79.9909 68.592 84.7336 69.7602 88.7053 72.0965C92.7004 74.4095 95.7727 77.6569 97.9221 81.839C100.095 85.9976 101.181 90.8455 101.181 96.3825C101.181 101.92 100.095 106.779 97.9221 110.961C95.7727 115.12 92.7004 118.356 88.7053 120.669C84.7336 122.982 79.9909 124.138 74.4772 124.138ZM74.5823 112.223C76.9186 112.223 78.8928 111.545 80.5049 110.19C82.1169 108.812 83.3318 106.931 84.1495 104.548C84.9672 102.142 85.3761 99.3964 85.3761 96.3124C85.3761 93.2051 84.9672 90.46 84.1495 88.0769C83.3318 85.6705 82.1169 83.7781 80.5049 82.3997C78.8928 81.0212 76.9186 80.332 74.5823 80.332C72.1759 80.332 70.155 81.0212 68.5196 82.3997C66.8841 83.7781 65.6459 85.6705 64.8048 88.0769C63.9871 90.46 63.5782 93.2051 63.5782 96.3124C63.5782 99.3964 63.9871 102.142 64.8048 104.548C65.6459 106.931 66.8841 108.812 68.5196 110.19C70.155 111.545 72.1759 112.223 74.5823 112.223Z" fill="#4F46E5"/>
<path d="M15.7424 106.753V123.228H0.347412V51.4463H7.5186C12.0605 51.4463 15.7424 55.1282 15.7424 59.6701V82.8295L29.3611 100.057C33.4481 104.185 36.0379 110.472 45.255 109.415L51.1624 122.411C32.6428 128.82 23.8775 117.592 15.7424 106.753ZM25.611 101.291L14.0648 93.7205C16.4332 91.6152 18.5714 89.5428 20.4794 87.5032C22.4531 85.4637 24.1636 83.4571 25.611 81.4834C27.1242 79.5097 28.3742 77.4702 29.3611 75.3649C30.4138 73.2596 31.4304 71.0225 32.0225 68.6541H48.4044C47.6807 71.4831 46.368 75.1675 44.8548 77.9307C43.3416 80.6939 41.5653 83.3913 39.5258 86.023C37.552 88.6546 35.4796 91.1546 33.3085 93.5231C31.1375 95.8258 27.5848 99.3172 25.611 101.291Z" fill="#4F46E5"/>
<path d="M130.258 124.138C124.767 124.138 120.025 122.982 116.03 120.669C112.058 118.356 108.986 115.12 106.813 110.961C104.663 106.779 103.589 101.92 103.589 96.3825C103.589 90.8455 104.663 85.9976 106.813 81.839C108.986 77.6569 112.058 74.4095 116.03 72.0965C120.025 69.7602 124.767 68.592 130.258 68.592C135.771 68.592 140.514 69.7602 144.486 72.0965C148.481 74.4095 151.553 77.6569 153.703 81.839C155.875 85.9976 156.962 90.8455 156.962 96.3825C156.962 101.92 155.875 106.779 153.703 110.961C151.553 115.12 148.481 118.356 144.486 120.669C140.514 122.982 135.771 124.138 130.258 124.138ZM130.363 112.223C132.699 112.223 134.673 111.545 136.285 110.19C137.897 108.812 139.112 106.931 139.93 104.548C140.748 102.142 141.157 99.3964 141.157 96.3124C141.157 93.2051 140.748 90.46 139.93 88.0769C139.112 85.6705 137.897 83.7781 136.285 82.3997C134.673 81.0212 132.699 80.332 130.363 80.332C127.956 80.332 125.935 81.0212 124.3 82.3997C122.665 83.7781 121.426 85.6705 120.585 88.0769C119.768 90.46 119.359 93.2051 119.359 96.3124C119.359 99.3964 119.768 102.142 120.585 104.548C121.426 106.931 122.665 108.812 124.3 110.19C125.935 111.545 127.956 112.223 130.363 112.223Z" fill="#4F46E5"/>
<path d="M211.313 124.138C205.776 124.138 200.999 123.028 196.98 120.809C192.985 118.566 189.901 115.377 187.728 111.242C185.579 107.083 184.504 102.153 184.504 96.4529C184.504 90.8924 185.579 86.0329 187.728 81.8742C189.901 77.6922 192.95 74.4331 196.875 72.0968C200.823 69.7604 205.449 68.5923 210.753 68.5923C214.397 68.5923 217.762 69.1647 220.846 70.3095C223.953 71.4543 226.651 73.1715 228.941 75.4611C231.254 77.7506 233.053 80.6126 234.338 84.047C235.623 87.458 236.265 91.4298 236.265 95.9622V100.098H190.462V90.6705H221.722C221.698 88.6145 221.231 86.7922 220.32 85.2035C219.409 83.5914 218.159 82.3298 216.57 81.4187C214.981 80.5075 213.136 80.0519 211.033 80.0519C208.884 80.0519 206.956 80.5542 205.251 81.5588C203.569 82.5401 202.248 83.8718 201.291 85.5539C200.356 87.2127 199.865 89.0584 199.819 91.091V100.273C199.819 102.819 200.298 105.027 201.256 106.896C202.237 108.742 203.604 110.167 205.356 111.172C207.108 112.176 209.187 112.679 211.594 112.679C213.229 112.679 214.713 112.457 216.044 112.013C217.376 111.545 218.521 110.868 219.479 109.98C220.46 109.069 221.196 107.959 221.687 106.651L235.985 107.422C235.307 110.81 233.882 113.753 231.709 116.253C229.537 118.753 226.721 120.692 223.264 122.071C219.829 123.449 215.846 124.138 211.313 124.138Z" fill="#4F46E5"/>
<path d="M690.245 124.138C684.708 124.138 679.93 123.028 675.912 120.809C671.917 118.566 668.833 115.377 666.66 111.242C664.511 107.083 663.436 102.153 663.436 96.4529C663.436 90.8924 664.511 86.0329 666.66 81.8742C668.833 77.6922 671.882 74.4331 675.807 72.0968C679.755 69.7604 684.381 68.5923 689.684 68.5923C693.329 68.5923 696.693 69.1647 699.777 70.3095C702.885 71.4543 705.583 73.1715 707.873 75.4611C710.186 77.7506 711.985 80.6126 713.27 84.047C714.555 87.458 715.197 91.4298 715.197 95.9622V100.098H669.394V90.6705H700.653C700.63 88.6145 700.163 86.7922 699.252 85.2035C698.34 83.5914 697.091 82.3298 695.502 81.4187C693.913 80.5075 692.067 80.0519 689.965 80.0519C687.815 80.0519 685.888 80.5542 684.182 81.5588C682.5 82.5401 681.18 83.8718 680.222 85.5539C679.288 87.2127 678.797 89.0584 678.75 91.091V100.273C678.75 102.819 679.229 105.027 680.187 106.896C681.169 108.742 682.535 110.167 684.288 111.172C686.04 112.176 688.119 112.679 690.526 112.679C692.161 112.679 693.644 112.457 694.976 112.013C696.308 111.545 697.453 110.868 698.411 109.98C699.392 109.069 700.128 107.959 700.618 106.651L714.917 107.422C714.239 110.81 712.814 113.753 710.641 116.253C708.468 118.753 705.653 120.692 702.195 122.071C698.761 123.449 694.778 124.138 690.245 124.138Z" fill="#1F2937"/>
<path d="M585.899 51.4675H593.2C597.742 51.4675 601.424 55.1495 601.424 59.6914V107.567C601.448 109.179 601.763 110.359 602.37 111.106C603.687 112.675 606.679 112.425 608.122 112.155L612.73 122.292C610.32 123.4 606.51 124.056 603.176 124.178C597.289 124.412 592.943 123.337 590.14 120.954C587.336 118.571 585.923 114.763 585.899 109.529L585.899 51.4675Z" fill="#1F2937"/>
<path d="M499.563 124.138C494.073 124.138 489.33 122.982 485.335 120.669C481.364 118.356 478.291 115.12 476.119 110.961C473.969 106.779 472.894 101.92 472.894 96.3825C472.894 90.8455 473.969 85.9976 476.119 81.839C478.291 77.6569 481.364 74.4095 485.335 72.0965C489.33 69.7602 494.073 68.592 499.563 68.592C505.077 68.592 509.82 69.7602 513.792 72.0965C517.787 74.4095 520.859 77.6569 523.008 81.839C525.181 85.9976 526.268 90.8455 526.268 96.3825C526.268 101.92 525.181 106.779 523.008 110.961C520.859 115.12 517.787 118.356 513.792 120.669C509.82 122.982 505.077 124.138 499.563 124.138ZM499.669 112.223C502.005 112.223 503.979 111.545 505.591 110.19C507.203 108.812 508.418 106.931 509.236 104.548C510.054 102.142 510.462 99.3964 510.462 96.3124C510.462 93.2051 510.054 90.46 509.236 88.0769C508.418 85.6705 507.203 83.7781 505.591 82.3997C503.979 81.0212 502.005 80.332 499.669 80.332C497.262 80.332 495.241 81.0212 493.606 82.3997C491.97 83.7781 490.732 85.6705 489.891 88.0769C489.073 90.46 488.665 93.2051 488.665 96.3124C488.665 99.3964 489.073 102.142 489.891 104.548C490.732 106.931 491.97 108.812 493.606 110.19C495.241 111.545 497.262 112.223 499.669 112.223Z" fill="#1F2937"/>
<path d="M440.829 106.753V123.228H425.434V51.4463H432.605C437.147 51.4463 440.829 55.1282 440.829 59.6701V82.8295L454.447 100.057C458.534 104.185 462.059 109.415 470.341 109.415L476.249 122.411C457.729 128.82 448.964 117.592 440.829 106.753ZM450.697 101.291L439.151 93.7205C441.52 91.6152 443.658 89.5428 445.566 87.5032C447.539 85.4637 449.25 83.4571 450.697 81.4834C452.211 79.5097 453.461 77.4702 454.447 75.3649C455.5 73.2596 456.517 71.0225 457.109 68.6541H473.491C472.767 71.4831 471.454 75.1675 469.941 77.9307C468.428 80.6939 466.652 83.3913 464.612 86.023C462.638 88.6546 460.566 91.1546 458.395 93.5231C456.224 95.8258 452.671 99.3172 450.697 101.291Z" fill="#1F2937"/>
<path d="M555.344 124.138C549.854 124.138 545.111 122.982 541.116 120.669C537.144 118.356 534.072 115.12 531.899 110.961C529.75 106.779 528.675 101.92 528.675 96.3825C528.675 90.8455 529.75 85.9976 531.899 81.839C534.072 77.6569 537.144 74.4095 541.116 72.0965C545.111 69.7602 549.854 68.592 555.344 68.592C560.858 68.592 565.6 69.7602 569.572 72.0965C573.567 74.4095 576.64 77.6569 578.789 81.839C580.962 85.9976 582.048 90.8455 582.048 96.3825C582.048 101.92 580.962 106.779 578.789 110.961C576.64 115.12 573.567 118.356 569.572 120.669C565.6 122.982 560.858 124.138 555.344 124.138ZM555.449 112.223C557.785 112.223 559.76 111.545 561.372 110.19C562.984 108.812 564.199 106.931 565.016 104.548C565.834 102.142 566.243 99.3964 566.243 96.3124C566.243 93.2051 565.834 90.46 565.016 88.0769C564.199 85.6705 562.984 83.7781 561.372 82.3997C559.76 81.0212 557.785 80.332 555.449 80.332C553.043 80.332 551.022 81.0212 549.386 82.3997C547.751 83.7781 546.513 85.6705 545.672 88.0769C544.854 90.46 544.445 93.2051 544.445 96.3124C544.445 99.3964 544.854 102.142 545.672 104.548C546.513 106.931 547.751 108.812 549.386 110.19C551.022 111.545 553.043 112.223 555.449 112.223Z" fill="#1F2937"/>
<path d="M636.4 124.138C630.863 124.138 626.085 123.028 622.066 120.809C618.071 118.566 614.987 115.377 612.815 111.242C610.665 107.083 609.59 102.153 609.59 96.4529C609.59 90.8924 610.665 86.0329 612.815 81.8742C614.987 77.6922 618.036 74.4331 621.961 72.0968C625.91 69.7604 630.536 68.5923 635.839 68.5923C639.484 68.5923 642.848 69.1647 645.932 70.3095C649.039 71.4543 651.738 73.1715 654.027 75.4611C656.34 77.7506 658.139 80.6126 659.424 84.047C660.709 87.458 661.352 91.4298 661.352 95.9622V100.098H615.548V90.6705H646.808C646.785 88.6145 646.317 86.7922 645.406 85.2035C644.495 83.5914 643.245 82.3298 641.656 81.4187C640.068 80.5075 638.222 80.0519 636.119 80.0519C633.97 80.0519 632.042 80.5542 630.337 81.5588C628.655 82.5401 627.335 83.8718 626.377 85.5539C625.442 87.2127 624.952 89.0584 624.905 91.091V100.273C624.905 102.819 625.384 105.027 626.342 106.896C627.323 108.742 628.69 110.167 630.442 111.172C632.194 112.176 634.274 112.679 636.68 112.679C638.315 112.679 639.799 112.457 641.131 112.013C642.462 111.545 643.607 110.868 644.565 109.98C645.546 109.069 646.282 107.959 646.773 106.651L661.071 107.422C660.394 110.81 658.969 113.753 656.796 116.253C654.623 118.753 651.808 120.692 648.35 122.071C644.916 123.449 640.932 124.138 636.4 124.138Z" fill="#1F2937"/>
<rect x="252.182" y="237.932" width="88.7066" height="88.7066" rx="11.303" fill="#111827"/>
<path d="M291.09 295.794V308.183H279.512V254.202H284.905C288.321 254.202 291.09 256.971 291.09 260.387V277.803L301.331 290.758C304.405 293.863 307.055 297.796 313.284 297.796L317.726 307.569C303.799 312.389 297.207 303.945 291.09 295.794ZM298.511 291.686L289.828 285.993C291.609 284.41 293.217 282.851 294.652 281.318C296.136 279.784 297.423 278.275 298.511 276.791C299.649 275.306 300.589 273.773 301.331 272.189C302.123 270.606 302.887 268.924 303.333 267.143H315.652C315.108 269.27 314.121 272.041 312.983 274.119C311.845 276.197 310.509 278.225 308.975 280.205C307.491 282.184 305.932 284.064 304.3 285.845C302.667 287.576 299.995 290.202 298.511 291.686Z" fill="white"/>
<g filter="url(#filter0_d_5260_3263)">
<rect x="376.551" y="237.237" width="90.0962" height="90.0962" rx="45.0481" fill="white" stroke="#1F2937" stroke-width="1.3896"/>
<path d="M416.153 295.794V308.183H404.576V254.202H409.969C413.384 254.202 416.153 256.971 416.153 260.387V277.803L426.395 290.758C429.468 293.863 432.119 297.796 438.347 297.796L442.79 307.569C428.863 312.389 422.271 303.945 416.153 295.794ZM423.575 291.686L414.892 285.993C416.673 284.41 418.281 282.851 419.715 281.318C421.2 279.784 422.486 278.275 423.575 276.791C424.713 275.306 425.653 273.773 426.395 272.189C427.186 270.606 427.951 268.924 428.396 267.143H440.716C440.171 269.27 439.184 272.041 438.046 274.119C436.908 276.197 435.573 278.225 434.039 280.205C432.555 282.184 430.996 284.064 429.363 285.845C427.731 287.576 425.059 290.202 423.575 291.686Z" fill="#4F46E5"/>
</g>
<path d="M88.9714 302.455C88.9714 315.811 78.1443 326.638 64.7882 326.638L24.448 326.638C11.092 326.638 0.26481 315.811 0.264811 302.455L1.60833 282.285L87.6279 282.285L88.9714 302.455Z" fill="#4F46E5"/>
<path d="M0.264644 262.115C0.264647 248.759 11.0918 237.932 24.4478 237.932L64.7881 237.932C78.1441 237.932 88.9713 248.759 88.9713 262.115L87.6278 282.285L1.60815 282.285L0.264644 262.115Z" fill="#4338CA"/>
<path d="M39.1739 295.794V308.183H27.5966V254.202H32.9894C36.405 254.202 39.1739 256.971 39.1739 260.387V277.803L49.4154 290.758C52.4889 293.863 55.1393 297.796 61.368 297.796L65.8104 307.569C51.8834 312.389 45.2916 303.945 39.1739 295.794ZM46.5953 291.686L37.9123 285.993C39.6934 284.41 41.3014 282.851 42.7362 281.318C44.2205 279.784 45.5068 278.275 46.5953 276.791C47.7333 275.306 48.6733 273.773 49.4154 272.189C50.2071 270.606 50.9716 268.924 51.4169 267.143H63.7364C63.1921 269.27 62.205 272.041 61.067 274.119C59.9291 276.197 58.5932 278.225 57.0595 280.204C55.5752 282.183 54.0167 284.064 52.384 285.845C50.7513 287.576 48.0796 290.202 46.5953 291.686Z" fill="white"/>
<rect x="127.118" y="237.932" width="88.7066" height="88.7066" rx="11.303" fill="#374151"/>
<path d="M166.026 295.794V308.183H154.449V254.202H159.842C163.257 254.202 166.026 256.971 166.026 260.387V277.803L176.268 290.758C179.341 293.863 181.991 297.796 188.22 297.796L192.663 307.569C178.736 312.389 172.144 303.945 166.026 295.794ZM173.447 291.686L164.764 285.993C166.546 284.41 168.154 282.851 169.588 281.318C171.073 279.784 172.359 278.275 173.447 276.791C174.585 275.306 175.525 273.773 176.268 272.189C177.059 270.606 177.824 268.924 178.269 267.143H190.589C190.044 269.27 189.057 272.041 187.919 274.119C186.781 276.197 185.445 278.225 183.912 280.205C182.427 282.184 180.869 284.064 179.236 285.845C177.603 287.576 174.932 290.202 173.447 291.686Z" fill="white"/>
<defs>
<filter id="filter0_d_5260_3263" x="373.077" y="236.542" width="97.0442" height="97.0442" filterUnits="userSpaceOnUse" color-interpolation-filters="sRGB">
<feFlood flood-opacity="0" result="BackgroundImageFix"/>
<feColorMatrix in="SourceAlpha" type="matrix" values="0 0 0 0 0 0 0 0 0 0 0 0 0 0 0 0 0 0 127 0" result="hardAlpha"/>
<feOffset dy="2.77919"/>
<feGaussianBlur stdDeviation="1.3896"/>
<feComposite in2="hardAlpha" operator="out"/>
<feColorMatrix type="matrix" values="0 0 0 0 0 0 0 0 0 0 0 0 0 0 0 0 0 0 0.25 0"/>
<feBlend mode="normal" in2="BackgroundImageFix" result="effect1_dropShadow_5260_3263"/>
<feBlend mode="normal" in="SourceGraphic" in2="effect1_dropShadow_5260_3263" result="shape"/>
</filter>
</defs>
</svg>
