<svg width="747" height="338" viewBox="0 0 747 338" fill="none" xmlns="http://www.w3.org/2000/svg">
<g clip-path="url(#clip0_5260_3196)">
<path d="M1.11861 24.6835V14.5017H4.74787C5.54001 14.5017 6.19626 14.6458 6.71662 14.9342C7.23698 15.2225 7.62642 15.6169 7.88494 16.1174C8.14347 16.6146 8.27273 17.1747 8.27273 17.7978C8.27273 18.4242 8.14181 18.9877 7.87997 19.4882C7.62145 19.9853 7.23035 20.3797 6.70668 20.6714C6.18632 20.9598 5.53172 21.1039 4.7429 21.1039H2.24716V19.8014H4.60369C5.10417 19.8014 5.51018 19.7152 5.82173 19.5428C6.13329 19.3672 6.36198 19.1285 6.50781 18.8269C6.65365 18.5253 6.72656 18.1823 6.72656 17.7978C6.72656 17.4133 6.65365 17.072 6.50781 16.7737C6.36198 16.4754 6.13163 16.2417 5.81676 16.0727C5.50521 15.9036 5.09422 15.8191 4.58381 15.8191H2.65483V24.6835H1.11861ZM9.39437 24.6835V17.0471H10.8312V18.2602H10.9107C11.0499 17.8492 11.2952 17.526 11.6465 17.2907C12.0011 17.0521 12.4022 16.9328 12.8496 16.9328C12.9424 16.9328 13.0518 16.9361 13.1777 16.9427C13.307 16.9493 13.4081 16.9576 13.481 16.9676V18.3894C13.4214 18.3729 13.3153 18.3546 13.1628 18.3347C13.0104 18.3115 12.8579 18.2999 12.7054 18.2999C12.3541 18.2999 12.0409 18.3745 11.7658 18.5237C11.494 18.6695 11.2786 18.8733 11.1195 19.1352C10.9604 19.3937 10.8809 19.6887 10.8809 20.0201V24.6835H9.39437ZM17.1506 24.8376C16.4347 24.8376 15.8099 24.6735 15.2763 24.3454C14.7427 24.0173 14.3284 23.5582 14.0334 22.9683C13.7384 22.3783 13.5909 21.6889 13.5909 20.9001C13.5909 20.108 13.7384 19.4152 14.0334 18.822C14.3284 18.2287 14.7427 17.768 15.2763 17.4399C15.8099 17.1117 16.4347 16.9477 17.1506 16.9477C17.8665 16.9477 18.4913 17.1117 19.0249 17.4399C19.5585 17.768 19.9728 18.2287 20.2678 18.822C20.5628 19.4152 20.7103 20.108 20.7103 20.9001C20.7103 21.6889 20.5628 22.3783 20.2678 22.9683C19.9728 23.5582 19.5585 24.0173 19.0249 24.3454C18.4913 24.6735 17.8665 24.8376 17.1506 24.8376ZM17.1556 23.5897C17.6196 23.5897 18.0041 23.4671 18.309 23.2218C18.6139 22.9766 18.8393 22.6501 18.9851 22.2424C19.1343 21.8348 19.2088 21.3856 19.2088 20.8951C19.2088 20.4079 19.1343 19.9605 18.9851 19.5528C18.8393 19.1418 18.6139 18.812 18.309 18.5634C18.0041 18.3149 17.6196 18.1906 17.1556 18.1906C16.6882 18.1906 16.3005 18.3149 15.9922 18.5634C15.6873 18.812 15.4603 19.1418 15.3111 19.5528C15.1653 19.9605 15.0924 20.4079 15.0924 20.8951C15.0924 21.3856 15.1653 21.8348 15.3111 22.2424C15.4603 22.6501 15.6873 22.9766 15.9922 23.2218C16.3005 23.4671 16.6882 23.5897 17.1556 23.5897ZM21.8095 27.5471V17.0471H23.2612V18.285H23.3855C23.4717 18.1259 23.596 17.942 23.7584 17.7332C23.9208 17.5244 24.1462 17.3421 24.4345 17.1863C24.7229 17.0272 25.104 16.9477 25.578 16.9477C26.1945 16.9477 26.7447 17.1035 27.2286 17.415C27.7125 17.7266 28.092 18.1757 28.3671 18.7623C28.6455 19.349 28.7847 20.0549 28.7847 20.8802C28.7847 21.7055 28.6471 22.4131 28.372 23.0031C28.0969 23.5897 27.7191 24.0421 27.2385 24.3603C26.7579 24.6752 26.2094 24.8326 25.5929 24.8326C25.1289 24.8326 24.7494 24.7547 24.4544 24.599C24.1627 24.4432 23.9341 24.2609 23.7683 24.0521C23.6026 23.8433 23.475 23.6577 23.3855 23.4953H23.296V27.5471H21.8095ZM23.2662 20.8653C23.2662 21.4022 23.3441 21.8729 23.4999 22.2772C23.6556 22.6816 23.881 22.9981 24.176 23.2268C24.471 23.4522 24.8323 23.5649 25.2598 23.5649C25.7039 23.5649 26.0751 23.4472 26.3734 23.2119C26.6717 22.9732 26.8971 22.6501 27.0496 22.2424C27.2054 21.8348 27.2832 21.3757 27.2832 20.8653C27.2832 20.3615 27.207 19.9091 27.0546 19.508C26.9054 19.107 26.68 18.7905 26.3784 18.5585C26.0801 18.3265 25.7073 18.2105 25.2598 18.2105C24.8289 18.2105 24.4644 18.3215 24.1661 18.5436C23.8711 18.7656 23.6474 19.0755 23.4949 19.4732C23.3424 19.871 23.2662 20.335 23.2662 20.8653ZM33.1068 24.8376C32.3909 24.8376 31.7661 24.6735 31.2325 24.3454C30.6989 24.0173 30.2846 23.5582 29.9896 22.9683C29.6946 22.3783 29.5471 21.6889 29.5471 20.9001C29.5471 20.108 29.6946 19.4152 29.9896 18.822C30.2846 18.2287 30.6989 17.768 31.2325 17.4399C31.7661 17.1117 32.3909 16.9477 33.1068 16.9477C33.8227 16.9477 34.4474 17.1117 34.9811 17.4399C35.5147 17.768 35.929 18.2287 36.224 18.822C36.5189 19.4152 36.6664 20.108 36.6664 20.9001C36.6664 21.6889 36.5189 22.3783 36.224 22.9683C35.929 23.5582 35.5147 24.0173 34.9811 24.3454C34.4474 24.6735 33.8227 24.8376 33.1068 24.8376ZM33.1117 23.5897C33.5758 23.5897 33.9602 23.4671 34.2651 23.2218C34.5701 22.9766 34.7955 22.6501 34.9413 22.2424C35.0904 21.8348 35.165 21.3856 35.165 20.8951C35.165 20.4079 35.0904 19.9605 34.9413 19.5528C34.7955 19.1418 34.5701 18.812 34.2651 18.5634C33.9602 18.3149 33.5758 18.1906 33.1117 18.1906C32.6444 18.1906 32.2566 18.3149 31.9484 18.5634C31.6435 18.812 31.4164 19.1418 31.2673 19.5528C31.1214 19.9605 31.0485 20.4079 31.0485 20.8951C31.0485 21.3856 31.1214 21.8348 31.2673 22.2424C31.4164 22.6501 31.6435 22.9766 31.9484 23.2218C32.2566 23.4671 32.6444 23.5897 33.1117 23.5897ZM43.488 18.9115L42.1407 19.1501C42.0844 18.9777 41.9949 18.8137 41.8722 18.6579C41.7529 18.5021 41.5905 18.3745 41.385 18.2751C41.1795 18.1757 40.9227 18.1259 40.6144 18.1259C40.1935 18.1259 39.8422 18.2204 39.5604 18.4093C39.2787 18.5949 39.1379 18.8352 39.1379 19.1302C39.1379 19.3854 39.2323 19.5909 39.4212 19.7467C39.6102 19.9025 39.9151 20.0301 40.336 20.1295L41.5491 20.4079C42.2517 20.5703 42.7754 20.8205 43.1201 21.1586C43.4648 21.4967 43.6371 21.9358 43.6371 22.4761C43.6371 22.9335 43.5046 23.3411 43.2394 23.6991C42.9776 24.0537 42.6113 24.3321 42.1407 24.5343C41.6734 24.7365 41.1315 24.8376 40.515 24.8376C39.6599 24.8376 38.9622 24.6553 38.4219 24.2907C37.8817 23.9228 37.5503 23.4008 37.4276 22.7247L38.8644 22.5059C38.9539 22.8804 39.1379 23.1638 39.4163 23.3561C39.6947 23.545 40.0576 23.6394 40.505 23.6394C40.9923 23.6394 41.3817 23.5383 41.6734 23.3362C41.965 23.1307 42.1109 22.8804 42.1109 22.5855C42.1109 22.3468 42.0214 22.1463 41.8424 21.9839C41.6667 21.8215 41.3966 21.6989 41.032 21.616L39.7394 21.3326C39.0268 21.1702 38.4998 20.9117 38.1585 20.5571C37.8204 20.2024 37.6514 19.7533 37.6514 19.2097C37.6514 18.759 37.7773 18.3646 38.0292 18.0265C38.2811 17.6884 38.6291 17.4249 39.0732 17.236C39.5174 17.0438 40.0261 16.9477 40.5995 16.9477C41.4248 16.9477 42.0744 17.1267 42.5484 17.4846C43.0223 17.8392 43.3355 18.3149 43.488 18.9115ZM46.9339 24.8525C46.45 24.8525 46.0125 24.763 45.6214 24.584C45.2303 24.4017 44.9204 24.1383 44.6917 23.7936C44.4663 23.4489 44.3536 23.0263 44.3536 22.5258C44.3536 22.0949 44.4365 21.7403 44.6022 21.4619C44.7679 21.1835 44.9916 20.9631 45.2733 20.8007C45.5551 20.6383 45.8699 20.5156 46.2179 20.4328C46.566 20.3499 46.9206 20.2869 47.2819 20.2438C47.7393 20.1908 48.1105 20.1477 48.3955 20.1146C48.6805 20.0781 48.8877 20.0201 49.017 19.9406C49.1462 19.861 49.2108 19.7318 49.2108 19.5528V19.518C49.2108 19.0838 49.0882 18.7474 48.8429 18.5088C48.601 18.2701 48.2397 18.1508 47.7591 18.1508C47.2587 18.1508 46.8643 18.2618 46.5759 18.4839C46.2909 18.7026 46.0937 18.9463 45.9843 19.2147L44.5873 18.8965C44.753 18.4325 44.9949 18.058 45.3131 17.773C45.6346 17.4846 46.0042 17.2758 46.4218 17.1465C46.8394 17.014 47.2786 16.9477 47.7393 16.9477C48.0442 16.9477 48.3673 16.9841 48.7087 17.0571C49.0534 17.1267 49.3749 17.2559 49.6732 17.4448C49.9748 17.6338 50.2217 17.9039 50.414 18.2552C50.6062 18.6032 50.7023 19.0556 50.7023 19.6124V24.6835H49.2506V23.6394H49.191C49.0948 23.8317 48.9507 24.0206 48.7584 24.2062C48.5662 24.3918 48.3193 24.5459 48.0177 24.6686C47.7161 24.7912 47.3548 24.8525 46.9339 24.8525ZM47.257 23.6593C47.668 23.6593 48.0193 23.5781 48.311 23.4157C48.606 23.2533 48.8297 23.0412 48.9822 22.7794C49.1379 22.5142 49.2158 22.2308 49.2158 21.9292V20.9448C49.1628 20.9979 49.06 21.0476 48.9076 21.094C48.7584 21.1371 48.5877 21.1752 48.3955 21.2083C48.2033 21.2382 48.016 21.2663 47.8337 21.2928C47.6514 21.316 47.499 21.3359 47.3763 21.3525C47.088 21.389 46.8245 21.4503 46.5858 21.5365C46.3505 21.6226 46.1616 21.7469 46.0191 21.9093C45.8799 22.0684 45.8103 22.2805 45.8103 22.5457C45.8103 22.9136 45.9462 23.192 46.2179 23.3809C46.4897 23.5665 46.8361 23.6593 47.257 23.6593ZM53.6088 14.5017V24.6835H52.1223V14.5017H53.6088ZM67.1574 19.5926C67.1574 20.6797 66.9586 21.6143 66.5609 22.3965C66.1631 23.1754 65.6179 23.7753 64.9252 24.1963C64.2358 24.6139 63.452 24.8227 62.5736 24.8227C61.692 24.8227 60.9048 24.6139 60.2121 24.1963C59.5227 23.7753 58.9792 23.1738 58.5814 22.3916C58.1837 21.6094 57.9849 20.6764 57.9849 19.5926C57.9849 18.5054 58.1837 17.5724 58.5814 16.7936C58.9792 16.0114 59.5227 15.4115 60.2121 14.9938C60.9048 14.5729 61.692 14.3624 62.5736 14.3624C63.452 14.3624 64.2358 14.5729 64.9252 14.9938C65.6179 15.4115 66.1631 16.0114 66.5609 16.7936C66.9586 17.5724 67.1574 18.5054 67.1574 19.5926ZM65.6361 19.5926C65.6361 18.764 65.5019 18.0663 65.2334 17.4995C64.9683 16.9294 64.6037 16.4986 64.1397 16.2069C63.679 15.9119 63.157 15.7644 62.5736 15.7644C61.987 15.7644 61.4633 15.9119 61.0026 16.2069C60.5419 16.4986 60.1773 16.9294 59.9089 17.4995C59.6437 18.0663 59.5111 18.764 59.5111 19.5926C59.5111 20.4212 59.6437 21.1205 59.9089 21.6906C60.1773 22.2573 60.5419 22.6882 61.0026 22.9832C61.4633 23.2749 61.987 23.4207 62.5736 23.4207C63.157 23.4207 63.679 23.2749 64.1397 22.9832C64.6037 22.6882 64.9683 22.2573 65.2334 21.6906C65.5019 21.1205 65.6361 20.4212 65.6361 19.5926ZM69.8799 20.1494V24.6835H68.3934V17.0471H69.8203V18.29H69.9147C70.0904 17.8856 70.3655 17.5608 70.74 17.3156C71.1179 17.0703 71.5935 16.9477 72.1669 16.9477C72.6872 16.9477 73.143 17.0571 73.5341 17.2758C73.9252 17.4912 74.2284 17.8127 74.4439 18.2403C74.6593 18.6678 74.767 19.1965 74.767 19.8262V24.6835H73.2805V20.0052C73.2805 19.4517 73.1363 19.0192 72.848 18.7076C72.5596 18.3928 72.1636 18.2353 71.6598 18.2353C71.3151 18.2353 71.0085 18.3099 70.74 18.459C70.4749 18.6082 70.2644 18.8269 70.1086 19.1153C69.9562 19.4003 69.8799 19.745 69.8799 20.1494ZM79.4918 24.8376C78.7394 24.8376 78.0915 24.6768 77.5479 24.3553C77.0077 24.0305 76.5901 23.5748 76.2951 22.9882C76.0034 22.3982 75.8576 21.7071 75.8576 20.915C75.8576 20.1328 76.0034 19.4434 76.2951 18.8468C76.5901 18.2502 77.001 17.7846 77.528 17.4498C78.0583 17.1151 78.6781 16.9477 79.3874 16.9477C79.8183 16.9477 80.2359 17.0189 80.6402 17.1615C81.0446 17.304 81.4075 17.5277 81.729 17.8326C82.0505 18.1375 82.3041 18.5336 82.4897 19.0208C82.6753 19.5047 82.7681 20.093 82.7681 20.7857V21.3127H76.6978V20.1991H81.3114C81.3114 19.808 81.2319 19.4616 81.0728 19.16C80.9137 18.8551 80.69 18.6148 80.4016 18.4392C80.1166 18.2635 79.7818 18.1757 79.3973 18.1757C78.9797 18.1757 78.6152 18.2784 78.3036 18.4839C77.9954 18.6861 77.7567 18.9512 77.5877 19.2794C77.422 19.6042 77.3391 19.9571 77.3391 20.3383V21.2083C77.3391 21.7187 77.4286 22.1529 77.6076 22.5109C77.7899 22.8688 78.0434 23.1423 78.3682 23.3312C78.693 23.5168 79.0725 23.6096 79.5067 23.6096C79.7884 23.6096 80.0453 23.5698 80.2773 23.4903C80.5093 23.4074 80.7098 23.2848 80.8789 23.1224C81.0479 22.96 81.1772 22.7595 81.2667 22.5208L82.6736 22.7744C82.5609 23.1887 82.3588 23.5516 82.0671 23.8632C81.7787 24.1714 81.4158 24.4117 80.9783 24.584C80.5441 24.7531 80.0486 24.8376 79.4918 24.8376Z" fill="#1F2937"/>
<path d="M1.11861 210.668V200.486H4.74787C5.54001 200.486 6.19626 200.63 6.71662 200.919C7.23698 201.207 7.62642 201.601 7.88494 202.102C8.14347 202.599 8.27273 203.159 8.27273 203.782C8.27273 204.409 8.14181 204.972 7.87997 205.473C7.62145 205.97 7.23035 206.364 6.70668 206.656C6.18632 206.944 5.53172 207.088 4.7429 207.088H2.24716V205.786H4.60369C5.10417 205.786 5.51018 205.7 5.82173 205.527C6.13329 205.352 6.36198 205.113 6.50781 204.811C6.65365 204.51 6.72656 204.167 6.72656 203.782C6.72656 203.398 6.65365 203.056 6.50781 202.758C6.36198 202.46 6.13163 202.226 5.81676 202.057C5.50521 201.888 5.09422 201.803 4.58381 201.803H2.65483V210.668H1.11861ZM9.39437 210.668V203.031H10.8312V204.245H10.9107C11.0499 203.834 11.2952 203.51 11.6465 203.275C12.0011 203.036 12.4022 202.917 12.8496 202.917C12.9424 202.917 13.0518 202.92 13.1777 202.927C13.307 202.934 13.4081 202.942 13.481 202.952V204.374C13.4214 204.357 13.3153 204.339 13.1628 204.319C13.0104 204.296 12.8579 204.284 12.7054 204.284C12.3541 204.284 12.0409 204.359 11.7658 204.508C11.494 204.654 11.2786 204.858 11.1195 205.12C10.9604 205.378 10.8809 205.673 10.8809 206.004V210.668H9.39437ZM17.1506 210.822C16.4347 210.822 15.8099 210.658 15.2763 210.33C14.7427 210.002 14.3284 209.543 14.0334 208.953C13.7384 208.363 13.5909 207.673 13.5909 206.884C13.5909 206.092 13.7384 205.4 14.0334 204.806C14.3284 204.213 14.7427 203.752 15.2763 203.424C15.8099 203.096 16.4347 202.932 17.1506 202.932C17.8665 202.932 18.4913 203.096 19.0249 203.424C19.5585 203.752 19.9728 204.213 20.2678 204.806C20.5628 205.4 20.7103 206.092 20.7103 206.884C20.7103 207.673 20.5628 208.363 20.2678 208.953C19.9728 209.543 19.5585 210.002 19.0249 210.33C18.4913 210.658 17.8665 210.822 17.1506 210.822ZM17.1556 209.574C17.6196 209.574 18.0041 209.451 18.309 209.206C18.6139 208.961 18.8393 208.634 18.9851 208.227C19.1343 207.819 19.2088 207.37 19.2088 206.879C19.2088 206.392 19.1343 205.945 18.9851 205.537C18.8393 205.126 18.6139 204.796 18.309 204.548C18.0041 204.299 17.6196 204.175 17.1556 204.175C16.6882 204.175 16.3005 204.299 15.9922 204.548C15.6873 204.796 15.4603 205.126 15.3111 205.537C15.1653 205.945 15.0924 206.392 15.0924 206.879C15.0924 207.37 15.1653 207.819 15.3111 208.227C15.4603 208.634 15.6873 208.961 15.9922 209.206C16.3005 209.451 16.6882 209.574 17.1556 209.574ZM21.8095 213.531V203.031H23.2612V204.269H23.3855C23.4717 204.11 23.596 203.926 23.7584 203.718C23.9208 203.509 24.1462 203.326 24.4345 203.171C24.7229 203.012 25.104 202.932 25.578 202.932C26.1945 202.932 26.7447 203.088 27.2286 203.399C27.7125 203.711 28.092 204.16 28.3671 204.747C28.6455 205.333 28.7847 206.039 28.7847 206.865C28.7847 207.69 28.6471 208.397 28.372 208.987C28.0969 209.574 27.7191 210.027 27.2385 210.345C26.7579 210.66 26.2094 210.817 25.5929 210.817C25.1289 210.817 24.7494 210.739 24.4544 210.583C24.1627 210.428 23.9341 210.245 23.7683 210.036C23.6026 209.828 23.475 209.642 23.3855 209.48H23.296V213.531H21.8095ZM23.2662 206.85C23.2662 207.387 23.3441 207.857 23.4999 208.262C23.6556 208.666 23.881 208.982 24.176 209.211C24.471 209.437 24.8323 209.549 25.2598 209.549C25.7039 209.549 26.0751 209.432 26.3734 209.196C26.6717 208.958 26.8971 208.634 27.0496 208.227C27.2054 207.819 27.2832 207.36 27.2832 206.85C27.2832 206.346 27.207 205.893 27.0546 205.492C26.9054 205.091 26.68 204.775 26.3784 204.543C26.0801 204.311 25.7073 204.195 25.2598 204.195C24.8289 204.195 24.4644 204.306 24.1661 204.528C23.8711 204.75 23.6474 205.06 23.4949 205.458C23.3424 205.855 23.2662 206.319 23.2662 206.85ZM33.1068 210.822C32.3909 210.822 31.7661 210.658 31.2325 210.33C30.6989 210.002 30.2846 209.543 29.9896 208.953C29.6946 208.363 29.5471 207.673 29.5471 206.884C29.5471 206.092 29.6946 205.4 29.9896 204.806C30.2846 204.213 30.6989 203.752 31.2325 203.424C31.7661 203.096 32.3909 202.932 33.1068 202.932C33.8227 202.932 34.4474 203.096 34.9811 203.424C35.5147 203.752 35.929 204.213 36.224 204.806C36.5189 205.4 36.6664 206.092 36.6664 206.884C36.6664 207.673 36.5189 208.363 36.224 208.953C35.929 209.543 35.5147 210.002 34.9811 210.33C34.4474 210.658 33.8227 210.822 33.1068 210.822ZM33.1117 209.574C33.5758 209.574 33.9602 209.451 34.2651 209.206C34.5701 208.961 34.7955 208.634 34.9413 208.227C35.0904 207.819 35.165 207.37 35.165 206.879C35.165 206.392 35.0904 205.945 34.9413 205.537C34.7955 205.126 34.5701 204.796 34.2651 204.548C33.9602 204.299 33.5758 204.175 33.1117 204.175C32.6444 204.175 32.2566 204.299 31.9484 204.548C31.6435 204.796 31.4164 205.126 31.2673 205.537C31.1214 205.945 31.0485 206.392 31.0485 206.879C31.0485 207.37 31.1214 207.819 31.2673 208.227C31.4164 208.634 31.6435 208.961 31.9484 209.206C32.2566 209.451 32.6444 209.574 33.1117 209.574ZM43.488 204.896L42.1407 205.134C42.0844 204.962 41.9949 204.798 41.8722 204.642C41.7529 204.487 41.5905 204.359 41.385 204.259C41.1795 204.16 40.9227 204.11 40.6144 204.11C40.1935 204.11 39.8422 204.205 39.5604 204.394C39.2787 204.579 39.1379 204.82 39.1379 205.115C39.1379 205.37 39.2323 205.575 39.4212 205.731C39.6102 205.887 39.9151 206.014 40.336 206.114L41.5491 206.392C42.2517 206.555 42.7754 206.805 43.1201 207.143C43.4648 207.481 43.6371 207.92 43.6371 208.46C43.6371 208.918 43.5046 209.326 43.2394 209.683C42.9776 210.038 42.6113 210.317 42.1407 210.519C41.6734 210.721 41.1315 210.822 40.515 210.822C39.6599 210.822 38.9622 210.64 38.4219 210.275C37.8817 209.907 37.5503 209.385 37.4276 208.709L38.8644 208.49C38.9539 208.865 39.1379 209.148 39.4163 209.34C39.6947 209.529 40.0576 209.624 40.505 209.624C40.9923 209.624 41.3817 209.523 41.6734 209.321C41.965 209.115 42.1109 208.865 42.1109 208.57C42.1109 208.331 42.0214 208.131 41.8424 207.968C41.6667 207.806 41.3966 207.683 41.032 207.6L39.7394 207.317C39.0268 207.155 38.4998 206.896 38.1585 206.541C37.8204 206.187 37.6514 205.738 37.6514 205.194C37.6514 204.743 37.7773 204.349 38.0292 204.011C38.2811 203.673 38.6291 203.409 39.0732 203.22C39.5174 203.028 40.0261 202.932 40.5995 202.932C41.4248 202.932 42.0744 203.111 42.5484 203.469C43.0223 203.824 43.3355 204.299 43.488 204.896ZM46.9339 210.837C46.45 210.837 46.0125 210.747 45.6214 210.568C45.2303 210.386 44.9204 210.123 44.6917 209.778C44.4663 209.433 44.3536 209.011 44.3536 208.51C44.3536 208.079 44.4365 207.725 44.6022 207.446C44.7679 207.168 44.9916 206.947 45.2733 206.785C45.5551 206.623 45.8699 206.5 46.2179 206.417C46.566 206.334 46.9206 206.271 47.2819 206.228C47.7393 206.175 48.1105 206.132 48.3955 206.099C48.6805 206.062 48.8877 206.004 49.017 205.925C49.1462 205.845 49.2108 205.716 49.2108 205.537V205.502C49.2108 205.068 49.0882 204.732 48.8429 204.493C48.601 204.254 48.2397 204.135 47.7591 204.135C47.2587 204.135 46.8643 204.246 46.5759 204.468C46.2909 204.687 46.0937 204.931 45.9843 205.199L44.5873 204.881C44.753 204.417 44.9949 204.042 45.3131 203.757C45.6346 203.469 46.0042 203.26 46.4218 203.131C46.8394 202.998 47.2786 202.932 47.7393 202.932C48.0442 202.932 48.3673 202.969 48.7087 203.041C49.0534 203.111 49.3749 203.24 49.6732 203.429C49.9748 203.618 50.2217 203.888 50.414 204.24C50.6062 204.588 50.7023 205.04 50.7023 205.597V210.668H49.2506V209.624H49.191C49.0948 209.816 48.9507 210.005 48.7584 210.191C48.5662 210.376 48.3193 210.53 48.0177 210.653C47.7161 210.776 47.3548 210.837 46.9339 210.837ZM47.257 209.644C47.668 209.644 48.0193 209.562 48.311 209.4C48.606 209.238 48.8297 209.026 48.9822 208.764C49.1379 208.499 49.2158 208.215 49.2158 207.914V206.929C49.1628 206.982 49.06 207.032 48.9076 207.078C48.7584 207.121 48.5877 207.16 48.3955 207.193C48.2033 207.223 48.016 207.251 47.8337 207.277C47.6514 207.3 47.499 207.32 47.3763 207.337C47.088 207.373 46.8245 207.435 46.5858 207.521C46.3505 207.607 46.1616 207.731 46.0191 207.894C45.8799 208.053 45.8103 208.265 45.8103 208.53C45.8103 208.898 45.9462 209.176 46.2179 209.365C46.4897 209.551 46.8361 209.644 47.257 209.644ZM53.6088 200.486V210.668H52.1223V200.486H53.6088ZM57.8109 201.808V200.486H65.6908V201.808H62.514V210.668H60.9827V201.808H57.8109ZM68.2393 206.134V210.668H66.7528V200.486H68.2194V204.274H68.3139C68.4929 203.863 68.7663 203.537 69.1342 203.295C69.5021 203.053 69.9827 202.932 70.576 202.932C71.0996 202.932 71.557 203.04 71.9481 203.255C72.3425 203.471 72.6475 203.792 72.8629 204.22C73.0816 204.644 73.191 205.174 73.191 205.811V210.668H71.7045V205.99C71.7045 205.429 71.5603 204.995 71.272 204.687C70.9836 204.375 70.5826 204.22 70.0689 204.22C69.7175 204.22 69.4027 204.294 69.1243 204.443C68.8492 204.593 68.6321 204.811 68.473 205.1C68.3172 205.385 68.2393 205.729 68.2393 206.134ZM74.6147 210.668V203.031H76.0515V204.245H76.131C76.2702 203.834 76.5155 203.51 76.8668 203.275C77.2214 203.036 77.6225 202.917 78.0699 202.917C78.1627 202.917 78.2721 202.92 78.3981 202.927C78.5273 202.934 78.6284 202.942 78.7013 202.952V204.374C78.6417 204.357 78.5356 204.339 78.3831 204.319C78.2307 204.296 78.0782 204.284 77.9258 204.284C77.5744 204.284 77.2612 204.359 76.9861 204.508C76.7143 204.654 76.4989 204.858 76.3398 205.12C76.1807 205.378 76.1012 205.673 76.1012 206.004V210.668H74.6147ZM82.4455 210.822C81.6931 210.822 81.0452 210.661 80.5016 210.34C79.9613 210.015 79.5437 209.559 79.2487 208.973C78.9571 208.383 78.8112 207.692 78.8112 206.899C78.8112 206.117 78.9571 205.428 79.2487 204.831C79.5437 204.235 79.9547 203.769 80.4817 203.434C81.012 203.099 81.6318 202.932 82.3411 202.932C82.7719 202.932 83.1896 203.003 83.5939 203.146C83.9983 203.288 84.3612 203.512 84.6827 203.817C85.0042 204.122 85.2577 204.518 85.4434 205.005C85.629 205.489 85.7218 206.077 85.7218 206.77V207.297H79.6514V206.183H84.2651C84.2651 205.792 84.1855 205.446 84.0264 205.144C83.8674 204.839 83.6436 204.599 83.3553 204.424C83.0702 204.248 82.7355 204.16 82.351 204.16C81.9334 204.16 81.5688 204.263 81.2573 204.468C80.949 204.67 80.7104 204.936 80.5414 205.264C80.3756 205.589 80.2928 205.942 80.2928 206.323V207.193C80.2928 207.703 80.3823 208.137 80.5612 208.495C80.7435 208.853 80.9971 209.127 81.3219 209.316C81.6467 209.501 82.0262 209.594 82.4604 209.594C82.7421 209.594 82.999 209.554 83.231 209.475C83.463 209.392 83.6635 209.269 83.8326 209.107C84.0016 208.944 84.1309 208.744 84.2203 208.505L85.6273 208.759C85.5146 209.173 85.3124 209.536 85.0208 209.848C84.7324 210.156 84.3695 210.396 83.932 210.568C83.4978 210.737 83.0023 210.822 82.4455 210.822ZM90.1023 210.822C89.3499 210.822 88.7019 210.661 88.1584 210.34C87.6181 210.015 87.2005 209.559 86.9055 208.973C86.6139 208.383 86.468 207.692 86.468 206.899C86.468 206.117 86.6139 205.428 86.9055 204.831C87.2005 204.235 87.6115 203.769 88.1385 203.434C88.6688 203.099 89.2886 202.932 89.9979 202.932C90.4287 202.932 90.8464 203.003 91.2507 203.146C91.6551 203.288 92.018 203.512 92.3395 203.817C92.661 204.122 92.9145 204.518 93.1002 205.005C93.2858 205.489 93.3786 206.077 93.3786 206.77V207.297H87.3082V206.183H91.9219C91.9219 205.792 91.8423 205.446 91.6832 205.144C91.5242 204.839 91.3004 204.599 91.0121 204.424C90.727 204.248 90.3923 204.16 90.0078 204.16C89.5902 204.16 89.2256 204.263 88.9141 204.468C88.6058 204.67 88.3672 204.936 88.1982 205.264C88.0324 205.589 87.9496 205.942 87.9496 206.323V207.193C87.9496 207.703 88.0391 208.137 88.218 208.495C88.4003 208.853 88.6539 209.127 88.9787 209.316C89.3035 209.501 89.683 209.594 90.1172 209.594C90.3989 209.594 90.6558 209.554 90.8878 209.475C91.1198 209.392 91.3203 209.269 91.4894 209.107C91.6584 208.944 91.7877 208.744 91.8771 208.505L93.2841 208.759C93.1714 209.173 92.9692 209.536 92.6776 209.848C92.3892 210.156 92.0263 210.396 91.5888 210.568C91.1546 210.737 90.6591 210.822 90.1023 210.822Z" fill="#1F2937"/>
<path d="M426.552 210.668V200.486H430.182C430.974 200.486 431.63 200.63 432.15 200.919C432.671 201.207 433.06 201.601 433.319 202.102C433.577 202.599 433.707 203.159 433.707 203.782C433.707 204.409 433.576 204.972 433.314 205.473C433.055 205.97 432.664 206.364 432.14 206.656C431.62 206.944 430.966 207.088 430.177 207.088H427.681V205.786H430.037C430.538 205.786 430.944 205.7 431.256 205.527C431.567 205.352 431.796 205.113 431.942 204.811C432.087 204.51 432.16 204.167 432.16 203.782C432.16 203.398 432.087 203.056 431.942 202.758C431.796 202.46 431.565 202.226 431.251 202.057C430.939 201.888 430.528 201.803 430.018 201.803H428.089V210.668H426.552ZM434.828 210.668V203.031H436.265V204.245H436.344C436.484 203.834 436.729 203.51 437.08 203.275C437.435 203.036 437.836 202.917 438.283 202.917C438.376 202.917 438.486 202.92 438.612 202.927C438.741 202.934 438.842 202.942 438.915 202.952V204.374C438.855 204.357 438.749 204.339 438.597 204.319C438.444 204.296 438.292 204.284 438.139 204.284C437.788 204.284 437.475 204.359 437.2 204.508C436.928 204.654 436.712 204.858 436.553 205.12C436.394 205.378 436.315 205.673 436.315 206.004V210.668H434.828ZM442.584 210.822C441.868 210.822 441.244 210.658 440.71 210.33C440.176 210.002 439.762 209.543 439.467 208.953C439.172 208.363 439.025 207.673 439.025 206.884C439.025 206.092 439.172 205.4 439.467 204.806C439.762 204.213 440.176 203.752 440.71 203.424C441.244 203.096 441.868 202.932 442.584 202.932C443.3 202.932 443.925 203.096 444.459 203.424C444.992 203.752 445.407 204.213 445.702 204.806C445.997 205.4 446.144 206.092 446.144 206.884C446.144 207.673 445.997 208.363 445.702 208.953C445.407 209.543 444.992 210.002 444.459 210.33C443.925 210.658 443.3 210.822 442.584 210.822ZM442.589 209.574C443.053 209.574 443.438 209.451 443.743 209.206C444.048 208.961 444.273 208.634 444.419 208.227C444.568 207.819 444.643 207.37 444.643 206.879C444.643 206.392 444.568 205.945 444.419 205.537C444.273 205.126 444.048 204.796 443.743 204.548C443.438 204.299 443.053 204.175 442.589 204.175C442.122 204.175 441.734 204.299 441.426 204.548C441.121 204.796 440.894 205.126 440.745 205.537C440.599 205.945 440.526 206.392 440.526 206.879C440.526 207.37 440.599 207.819 440.745 208.227C440.894 208.634 441.121 208.961 441.426 209.206C441.734 209.451 442.122 209.574 442.589 209.574ZM447.243 213.531V203.031H448.695V204.269H448.819C448.905 204.11 449.03 203.926 449.192 203.718C449.355 203.509 449.58 203.326 449.868 203.171C450.157 203.012 450.538 202.932 451.012 202.932C451.628 202.932 452.178 203.088 452.662 203.399C453.146 203.711 453.526 204.16 453.801 204.747C454.079 205.333 454.218 206.039 454.218 206.865C454.218 207.69 454.081 208.397 453.806 208.987C453.531 209.574 453.153 210.027 452.672 210.345C452.192 210.66 451.643 210.817 451.027 210.817C450.563 210.817 450.183 210.739 449.888 210.583C449.597 210.428 449.368 210.245 449.202 210.036C449.036 209.828 448.909 209.642 448.819 209.48H448.73V213.531H447.243ZM448.7 206.85C448.7 207.387 448.778 207.857 448.934 208.262C449.089 208.666 449.315 208.982 449.61 209.211C449.905 209.437 450.266 209.549 450.694 209.549C451.138 209.549 451.509 209.432 451.807 209.196C452.106 208.958 452.331 208.634 452.483 208.227C452.639 207.819 452.717 207.36 452.717 206.85C452.717 206.346 452.641 205.893 452.488 205.492C452.339 205.091 452.114 204.775 451.812 204.543C451.514 204.311 451.141 204.195 450.694 204.195C450.263 204.195 449.898 204.306 449.6 204.528C449.305 204.75 449.081 205.06 448.929 205.458C448.776 205.855 448.7 206.319 448.7 206.85ZM458.541 210.822C457.825 210.822 457.2 210.658 456.666 210.33C456.133 210.002 455.718 209.543 455.423 208.953C455.128 208.363 454.981 207.673 454.981 206.884C454.981 206.092 455.128 205.4 455.423 204.806C455.718 204.213 456.133 203.752 456.666 203.424C457.2 203.096 457.825 202.932 458.541 202.932C459.256 202.932 459.881 203.096 460.415 203.424C460.948 203.752 461.363 204.213 461.658 204.806C461.953 205.4 462.1 206.092 462.1 206.884C462.1 207.673 461.953 208.363 461.658 208.953C461.363 209.543 460.948 210.002 460.415 210.33C459.881 210.658 459.256 210.822 458.541 210.822ZM458.546 209.574C459.01 209.574 459.394 209.451 459.699 209.206C460.004 208.961 460.229 208.634 460.375 208.227C460.524 207.819 460.599 207.37 460.599 206.879C460.599 206.392 460.524 205.945 460.375 205.537C460.229 205.126 460.004 204.796 459.699 204.548C459.394 204.299 459.01 204.175 458.546 204.175C458.078 204.175 457.69 204.299 457.382 204.548C457.077 204.796 456.85 205.126 456.701 205.537C456.555 205.945 456.482 206.392 456.482 206.879C456.482 207.37 456.555 207.819 456.701 208.227C456.85 208.634 457.077 208.961 457.382 209.206C457.69 209.451 458.078 209.574 458.546 209.574ZM468.922 204.896L467.574 205.134C467.518 204.962 467.429 204.798 467.306 204.642C467.187 204.487 467.024 204.359 466.819 204.259C466.613 204.16 466.356 204.11 466.048 204.11C465.627 204.11 465.276 204.205 464.994 204.394C464.712 204.579 464.572 204.82 464.572 205.115C464.572 205.37 464.666 205.575 464.855 205.731C465.044 205.887 465.349 206.014 465.77 206.114L466.983 206.392C467.686 206.555 468.209 206.805 468.554 207.143C468.899 207.481 469.071 207.92 469.071 208.46C469.071 208.918 468.938 209.326 468.673 209.683C468.411 210.038 468.045 210.317 467.574 210.519C467.107 210.721 466.565 210.822 465.949 210.822C465.094 210.822 464.396 210.64 463.856 210.275C463.315 209.907 462.984 209.385 462.861 208.709L464.298 208.49C464.388 208.865 464.572 209.148 464.85 209.34C465.128 209.529 465.491 209.624 465.939 209.624C466.426 209.624 466.815 209.523 467.107 209.321C467.399 209.115 467.545 208.865 467.545 208.57C467.545 208.331 467.455 208.131 467.276 207.968C467.101 207.806 466.83 207.683 466.466 207.6L465.173 207.317C464.461 207.155 463.934 206.896 463.592 206.541C463.254 206.187 463.085 205.738 463.085 205.194C463.085 204.743 463.211 204.349 463.463 204.011C463.715 203.673 464.063 203.409 464.507 203.22C464.951 203.028 465.46 202.932 466.033 202.932C466.859 202.932 467.508 203.111 467.982 203.469C468.456 203.824 468.769 204.299 468.922 204.896ZM472.368 210.837C471.884 210.837 471.446 210.747 471.055 210.568C470.664 210.386 470.354 210.123 470.125 209.778C469.9 209.433 469.787 209.011 469.787 208.51C469.787 208.079 469.87 207.725 470.036 207.446C470.202 207.168 470.425 206.947 470.707 206.785C470.989 206.623 471.304 206.5 471.652 206.417C472 206.334 472.354 206.271 472.716 206.228C473.173 206.175 473.544 206.132 473.829 206.099C474.114 206.062 474.321 206.004 474.451 205.925C474.58 205.845 474.645 205.716 474.645 205.537V205.502C474.645 205.068 474.522 204.732 474.277 204.493C474.035 204.254 473.674 204.135 473.193 204.135C472.692 204.135 472.298 204.246 472.01 204.468C471.725 204.687 471.527 204.931 471.418 205.199L470.021 204.881C470.187 204.417 470.429 204.042 470.747 203.757C471.068 203.469 471.438 203.26 471.856 203.131C472.273 202.998 472.712 202.932 473.173 202.932C473.478 202.932 473.801 202.969 474.142 203.041C474.487 203.111 474.809 203.24 475.107 203.429C475.409 203.618 475.656 203.888 475.848 204.24C476.04 204.588 476.136 205.04 476.136 205.597V210.668H474.684V209.624H474.625C474.529 209.816 474.384 210.005 474.192 210.191C474 210.376 473.753 210.53 473.451 210.653C473.15 210.776 472.789 210.837 472.368 210.837ZM472.691 209.644C473.102 209.644 473.453 209.562 473.745 209.4C474.04 209.238 474.263 209.026 474.416 208.764C474.572 208.499 474.65 208.215 474.65 207.914V206.929C474.597 206.982 474.494 207.032 474.341 207.078C474.192 207.121 474.022 207.16 473.829 207.193C473.637 207.223 473.45 207.251 473.267 207.277C473.085 207.3 472.933 207.32 472.81 207.337C472.522 207.373 472.258 207.435 472.02 207.521C471.784 207.607 471.595 207.731 471.453 207.894C471.314 208.053 471.244 208.265 471.244 208.53C471.244 208.898 471.38 209.176 471.652 209.365C471.924 209.551 472.27 209.644 472.691 209.644ZM479.043 200.486V210.668H477.556V200.486H479.043ZM483.747 210.668V200.486H490.061V201.808H485.283V204.911H489.608V206.228H485.283V210.668H483.747ZM493.927 210.822C493.211 210.822 492.586 210.658 492.052 210.33C491.519 210.002 491.104 209.543 490.809 208.953C490.514 208.363 490.367 207.673 490.367 206.884C490.367 206.092 490.514 205.4 490.809 204.806C491.104 204.213 491.519 203.752 492.052 203.424C492.586 203.096 493.211 202.932 493.927 202.932C494.643 202.932 495.267 203.096 495.801 203.424C496.335 203.752 496.749 204.213 497.044 204.806C497.339 205.4 497.486 206.092 497.486 206.884C497.486 207.673 497.339 208.363 497.044 208.953C496.749 209.543 496.335 210.002 495.801 210.33C495.267 210.658 494.643 210.822 493.927 210.822ZM493.932 209.574C494.396 209.574 494.78 209.451 495.085 209.206C495.39 208.961 495.615 208.634 495.761 208.227C495.91 207.819 495.985 207.37 495.985 206.879C495.985 206.392 495.91 205.945 495.761 205.537C495.615 205.126 495.39 204.796 495.085 204.548C494.78 204.299 494.396 204.175 493.932 204.175C493.464 204.175 493.076 204.299 492.768 204.548C492.463 204.796 492.236 205.126 492.087 205.537C491.941 205.945 491.868 206.392 491.868 206.879C491.868 207.37 491.941 207.819 492.087 208.227C492.236 208.634 492.463 208.961 492.768 209.206C493.076 209.451 493.464 209.574 493.932 209.574ZM503.423 207.501V203.031H504.914V210.668H503.453V209.345H503.373C503.198 209.753 502.916 210.093 502.528 210.365C502.144 210.633 501.665 210.767 501.091 210.767C500.601 210.767 500.167 210.66 499.789 210.444C499.414 210.225 499.119 209.902 498.904 209.475C498.692 209.047 498.586 208.518 498.586 207.889V203.031H500.072V207.71C500.072 208.23 500.216 208.644 500.505 208.953C500.793 209.261 501.167 209.415 501.628 209.415C501.907 209.415 502.183 209.345 502.458 209.206C502.737 209.067 502.967 208.857 503.149 208.575C503.335 208.293 503.426 207.935 503.423 207.501ZM506.352 210.668V203.031H507.789V204.245H507.868C508.007 203.834 508.253 203.51 508.604 203.275C508.959 203.036 509.36 202.917 509.807 202.917C509.9 202.917 510.009 202.92 510.135 202.927C510.264 202.934 510.365 202.942 510.438 202.952V204.374C510.379 204.357 510.273 204.339 510.12 204.319C509.968 204.296 509.815 204.284 509.663 204.284C509.311 204.284 508.998 204.359 508.723 204.508C508.451 204.654 508.236 204.858 508.077 205.12C507.918 205.378 507.838 205.673 507.838 206.004V210.668H506.352Z" fill="#1F2937"/>
<path d="M426.552 24.6835V14.5017H430.182C430.974 14.5017 431.63 14.6458 432.15 14.9342C432.671 15.2225 433.06 15.6169 433.319 16.1174C433.577 16.6146 433.707 17.1747 433.707 17.7978C433.707 18.4242 433.576 18.9877 433.314 19.4882C433.055 19.9853 432.664 20.3797 432.14 20.6714C431.62 20.9598 430.966 21.1039 430.177 21.1039H427.681V19.8014H430.037C430.538 19.8014 430.944 19.7152 431.256 19.5428C431.567 19.3672 431.796 19.1285 431.942 18.8269C432.087 18.5253 432.16 18.1823 432.16 17.7978C432.16 17.4133 432.087 17.072 431.942 16.7737C431.796 16.4754 431.565 16.2417 431.251 16.0727C430.939 15.9036 430.528 15.8191 430.018 15.8191H428.089V24.6835H426.552ZM434.828 24.6835V17.0471H436.265V18.2602H436.344C436.484 17.8492 436.729 17.526 437.08 17.2907C437.435 17.0521 437.836 16.9328 438.283 16.9328C438.376 16.9328 438.486 16.9361 438.612 16.9427C438.741 16.9493 438.842 16.9576 438.915 16.9676V18.3894C438.855 18.3729 438.749 18.3546 438.597 18.3347C438.444 18.3115 438.292 18.2999 438.139 18.2999C437.788 18.2999 437.475 18.3745 437.2 18.5237C436.928 18.6695 436.712 18.8733 436.553 19.1352C436.394 19.3937 436.315 19.6887 436.315 20.0201V24.6835H434.828ZM442.584 24.8376C441.868 24.8376 441.244 24.6735 440.71 24.3454C440.176 24.0173 439.762 23.5582 439.467 22.9683C439.172 22.3783 439.025 21.6889 439.025 20.9001C439.025 20.108 439.172 19.4152 439.467 18.822C439.762 18.2287 440.176 17.768 440.71 17.4399C441.244 17.1117 441.868 16.9477 442.584 16.9477C443.3 16.9477 443.925 17.1117 444.459 17.4399C444.992 17.768 445.407 18.2287 445.702 18.822C445.997 19.4152 446.144 20.108 446.144 20.9001C446.144 21.6889 445.997 22.3783 445.702 22.9683C445.407 23.5582 444.992 24.0173 444.459 24.3454C443.925 24.6735 443.3 24.8376 442.584 24.8376ZM442.589 23.5897C443.053 23.5897 443.438 23.4671 443.743 23.2218C444.048 22.9766 444.273 22.6501 444.419 22.2424C444.568 21.8348 444.643 21.3856 444.643 20.8951C444.643 20.4079 444.568 19.9605 444.419 19.5528C444.273 19.1418 444.048 18.812 443.743 18.5634C443.438 18.3149 443.053 18.1906 442.589 18.1906C442.122 18.1906 441.734 18.3149 441.426 18.5634C441.121 18.812 440.894 19.1418 440.745 19.5528C440.599 19.9605 440.526 20.4079 440.526 20.8951C440.526 21.3856 440.599 21.8348 440.745 22.2424C440.894 22.6501 441.121 22.9766 441.426 23.2218C441.734 23.4671 442.122 23.5897 442.589 23.5897ZM447.243 27.5471V17.0471H448.695V18.285H448.819C448.905 18.1259 449.03 17.942 449.192 17.7332C449.355 17.5244 449.58 17.3421 449.868 17.1863C450.157 17.0272 450.538 16.9477 451.012 16.9477C451.628 16.9477 452.178 17.1035 452.662 17.415C453.146 17.7266 453.526 18.1757 453.801 18.7623C454.079 19.349 454.218 20.0549 454.218 20.8802C454.218 21.7055 454.081 22.4131 453.806 23.0031C453.531 23.5897 453.153 24.0421 452.672 24.3603C452.192 24.6752 451.643 24.8326 451.027 24.8326C450.563 24.8326 450.183 24.7547 449.888 24.599C449.597 24.4432 449.368 24.2609 449.202 24.0521C449.036 23.8433 448.909 23.6577 448.819 23.4953H448.73V27.5471H447.243ZM448.7 20.8653C448.7 21.4022 448.778 21.8729 448.934 22.2772C449.089 22.6816 449.315 22.9981 449.61 23.2268C449.905 23.4522 450.266 23.5649 450.694 23.5649C451.138 23.5649 451.509 23.4472 451.807 23.2119C452.106 22.9732 452.331 22.6501 452.483 22.2424C452.639 21.8348 452.717 21.3757 452.717 20.8653C452.717 20.3615 452.641 19.9091 452.488 19.508C452.339 19.107 452.114 18.7905 451.812 18.5585C451.514 18.3265 451.141 18.2105 450.694 18.2105C450.263 18.2105 449.898 18.3215 449.6 18.5436C449.305 18.7656 449.081 19.0755 448.929 19.4732C448.776 19.871 448.7 20.335 448.7 20.8653ZM458.541 24.8376C457.825 24.8376 457.2 24.6735 456.666 24.3454C456.133 24.0173 455.718 23.5582 455.423 22.9683C455.128 22.3783 454.981 21.6889 454.981 20.9001C454.981 20.108 455.128 19.4152 455.423 18.822C455.718 18.2287 456.133 17.768 456.666 17.4399C457.2 17.1117 457.825 16.9477 458.541 16.9477C459.256 16.9477 459.881 17.1117 460.415 17.4399C460.948 17.768 461.363 18.2287 461.658 18.822C461.953 19.4152 462.1 20.108 462.1 20.9001C462.1 21.6889 461.953 22.3783 461.658 22.9683C461.363 23.5582 460.948 24.0173 460.415 24.3454C459.881 24.6735 459.256 24.8376 458.541 24.8376ZM458.546 23.5897C459.01 23.5897 459.394 23.4671 459.699 23.2218C460.004 22.9766 460.229 22.6501 460.375 22.2424C460.524 21.8348 460.599 21.3856 460.599 20.8951C460.599 20.4079 460.524 19.9605 460.375 19.5528C460.229 19.1418 460.004 18.812 459.699 18.5634C459.394 18.3149 459.01 18.1906 458.546 18.1906C458.078 18.1906 457.69 18.3149 457.382 18.5634C457.077 18.812 456.85 19.1418 456.701 19.5528C456.555 19.9605 456.482 20.4079 456.482 20.8951C456.482 21.3856 456.555 21.8348 456.701 22.2424C456.85 22.6501 457.077 22.9766 457.382 23.2218C457.69 23.4671 458.078 23.5897 458.546 23.5897ZM468.922 18.9115L467.574 19.1501C467.518 18.9777 467.429 18.8137 467.306 18.6579C467.187 18.5021 467.024 18.3745 466.819 18.2751C466.613 18.1757 466.356 18.1259 466.048 18.1259C465.627 18.1259 465.276 18.2204 464.994 18.4093C464.712 18.5949 464.572 18.8352 464.572 19.1302C464.572 19.3854 464.666 19.5909 464.855 19.7467C465.044 19.9025 465.349 20.0301 465.77 20.1295L466.983 20.4079C467.686 20.5703 468.209 20.8205 468.554 21.1586C468.899 21.4967 469.071 21.9358 469.071 22.4761C469.071 22.9335 468.938 23.3411 468.673 23.6991C468.411 24.0537 468.045 24.3321 467.574 24.5343C467.107 24.7365 466.565 24.8376 465.949 24.8376C465.094 24.8376 464.396 24.6553 463.856 24.2907C463.315 23.9228 462.984 23.4008 462.861 22.7247L464.298 22.5059C464.388 22.8804 464.572 23.1638 464.85 23.3561C465.128 23.545 465.491 23.6394 465.939 23.6394C466.426 23.6394 466.815 23.5383 467.107 23.3362C467.399 23.1307 467.545 22.8804 467.545 22.5855C467.545 22.3468 467.455 22.1463 467.276 21.9839C467.101 21.8215 466.83 21.6989 466.466 21.616L465.173 21.3326C464.461 21.1702 463.934 20.9117 463.592 20.5571C463.254 20.2024 463.085 19.7533 463.085 19.2097C463.085 18.759 463.211 18.3646 463.463 18.0265C463.715 17.6884 464.063 17.4249 464.507 17.236C464.951 17.0438 465.46 16.9477 466.033 16.9477C466.859 16.9477 467.508 17.1267 467.982 17.4846C468.456 17.8392 468.769 18.3149 468.922 18.9115ZM472.368 24.8525C471.884 24.8525 471.446 24.763 471.055 24.584C470.664 24.4017 470.354 24.1383 470.125 23.7936C469.9 23.4489 469.787 23.0263 469.787 22.5258C469.787 22.0949 469.87 21.7403 470.036 21.4619C470.202 21.1835 470.425 20.9631 470.707 20.8007C470.989 20.6383 471.304 20.5156 471.652 20.4328C472 20.3499 472.354 20.2869 472.716 20.2438C473.173 20.1908 473.544 20.1477 473.829 20.1146C474.114 20.0781 474.321 20.0201 474.451 19.9406C474.58 19.861 474.645 19.7318 474.645 19.5528V19.518C474.645 19.0838 474.522 18.7474 474.277 18.5088C474.035 18.2701 473.674 18.1508 473.193 18.1508C472.692 18.1508 472.298 18.2618 472.01 18.4839C471.725 18.7026 471.527 18.9463 471.418 19.2147L470.021 18.8965C470.187 18.4325 470.429 18.058 470.747 17.773C471.068 17.4846 471.438 17.2758 471.856 17.1465C472.273 17.014 472.712 16.9477 473.173 16.9477C473.478 16.9477 473.801 16.9841 474.142 17.0571C474.487 17.1267 474.809 17.2559 475.107 17.4448C475.409 17.6338 475.656 17.9039 475.848 18.2552C476.04 18.6032 476.136 19.0556 476.136 19.6124V24.6835H474.684V23.6394H474.625C474.529 23.8317 474.384 24.0206 474.192 24.2062C474 24.3918 473.753 24.5459 473.451 24.6686C473.15 24.7912 472.789 24.8525 472.368 24.8525ZM472.691 23.6593C473.102 23.6593 473.453 23.5781 473.745 23.4157C474.04 23.2533 474.263 23.0412 474.416 22.7794C474.572 22.5142 474.65 22.2308 474.65 21.9292V20.9448C474.597 20.9979 474.494 21.0476 474.341 21.094C474.192 21.1371 474.022 21.1752 473.829 21.2083C473.637 21.2382 473.45 21.2663 473.267 21.2928C473.085 21.316 472.933 21.3359 472.81 21.3525C472.522 21.389 472.258 21.4503 472.02 21.5365C471.784 21.6226 471.595 21.7469 471.453 21.9093C471.314 22.0684 471.244 22.2805 471.244 22.5457C471.244 22.9136 471.38 23.192 471.652 23.3809C471.924 23.5665 472.27 23.6593 472.691 23.6593ZM479.043 14.5017V24.6835H477.556V14.5017H479.043ZM483.245 15.8241V14.5017H491.125V15.8241H487.948V24.6835H486.417V15.8241H483.245ZM492.967 24.6835L490.72 17.0471H492.256L493.753 22.6551H493.827L495.329 17.0471H496.865L498.356 22.6302H498.431L499.917 17.0471H501.454L499.211 24.6835H497.695L496.144 19.17H496.03L494.478 24.6835H492.967ZM505.289 24.8376C504.573 24.8376 503.948 24.6735 503.414 24.3454C502.881 24.0173 502.466 23.5582 502.171 22.9683C501.876 22.3783 501.729 21.6889 501.729 20.9001C501.729 20.108 501.876 19.4152 502.171 18.822C502.466 18.2287 502.881 17.768 503.414 17.4399C503.948 17.1117 504.573 16.9477 505.289 16.9477C506.004 16.9477 506.629 17.1117 507.163 17.4399C507.696 17.768 508.111 18.2287 508.406 18.822C508.701 19.4152 508.848 20.108 508.848 20.9001C508.848 21.6889 508.701 22.3783 508.406 22.9683C508.111 23.5582 507.696 24.0173 507.163 24.3454C506.629 24.6735 506.004 24.8376 505.289 24.8376ZM505.293 23.5897C505.757 23.5897 506.142 23.4671 506.447 23.2218C506.752 22.9766 506.977 22.6501 507.123 22.2424C507.272 21.8348 507.347 21.3856 507.347 20.8951C507.347 20.4079 507.272 19.9605 507.123 19.5528C506.977 19.1418 506.752 18.812 506.447 18.5634C506.142 18.3149 505.757 18.1906 505.293 18.1906C504.826 18.1906 504.438 18.3149 504.13 18.5634C503.825 18.812 503.598 19.1418 503.449 19.5528C503.303 19.9605 503.23 20.4079 503.23 20.8951C503.23 21.3856 503.303 21.8348 503.449 22.2424C503.598 22.6501 503.825 22.9766 504.13 23.2218C504.438 23.4671 504.826 23.5897 505.293 23.5897Z" fill="#1F2937"/>
<path d="M562.141 116.596C562.764 117.26 563.075 117.987 563.075 118.775C563.075 119.606 562.743 120.311 562.079 120.893C561.456 121.432 560.792 121.702 560.086 121.702C559.173 121.702 558.446 121.37 557.907 120.706L545.639 107.691L541.903 111.054V118.775C541.903 119.606 541.612 120.311 541.031 120.893C540.491 121.474 539.806 121.764 538.976 121.764C538.104 121.764 537.378 121.474 536.796 120.893C536.257 120.311 535.987 119.606 535.987 118.775V78.6723C535.987 77.842 536.257 77.1363 536.796 76.5551C537.378 75.9739 538.104 75.6833 538.976 75.6833C539.806 75.6833 540.491 75.9739 541.031 76.5551C541.612 77.1363 541.903 77.842 541.903 78.6723V103.955L557.159 89.9435C557.865 89.3208 558.592 89.0095 559.339 89.0095C560.045 89.0095 560.688 89.3208 561.269 89.9435C561.85 90.5247 562.141 91.1474 562.141 91.8117C562.141 92.642 561.747 93.3892 560.958 94.0535L550.185 103.643L562.141 116.596ZM599.518 105.449C599.518 108.687 598.792 111.593 597.339 114.167C595.886 116.741 593.893 118.755 591.361 120.208C588.87 121.661 586.109 122.387 583.078 122.387C580.048 122.387 577.266 121.661 574.734 120.208C572.243 118.755 570.271 116.741 568.818 114.167C567.365 111.593 566.639 108.687 566.639 105.449C566.639 102.211 567.365 99.2843 568.818 96.6689C570.271 94.0535 572.243 92.0193 574.734 90.5662C577.266 89.1132 580.048 88.3867 583.078 88.3867C586.109 88.3867 588.87 89.1132 591.361 90.5662C593.893 92.0193 595.886 94.0535 597.339 96.6689C598.792 99.2843 599.518 102.211 599.518 105.449ZM593.602 105.449C593.602 103.207 593.125 101.215 592.17 99.4711C591.257 97.686 589.991 96.316 588.372 95.3612C586.794 94.3648 585.03 93.8667 583.078 93.8667C581.127 93.8667 579.342 94.3648 577.723 95.3612C576.145 96.316 574.879 97.686 573.924 99.4711C573.011 101.215 572.554 103.207 572.554 105.449C572.554 107.649 573.011 109.621 573.924 111.365C574.879 113.109 576.145 114.479 577.723 115.475C579.342 116.43 581.127 116.907 583.078 116.907C585.03 116.907 586.794 116.43 588.372 115.475C589.991 114.479 591.257 113.109 592.17 111.365C593.125 109.621 593.602 107.649 593.602 105.449ZM637.283 105.449C637.283 108.687 636.556 111.593 635.103 114.167C633.65 116.741 631.657 118.755 629.125 120.208C626.634 121.661 623.873 122.387 620.843 122.387C617.812 122.387 615.031 121.661 612.498 120.208C610.008 118.755 608.036 116.741 606.583 114.167C605.13 111.593 604.403 108.687 604.403 105.449C604.403 102.211 605.13 99.2843 606.583 96.6689C608.036 94.0535 610.008 92.0193 612.498 90.5662C615.031 89.1132 617.812 88.3867 620.843 88.3867C623.873 88.3867 626.634 89.1132 629.125 90.5662C631.657 92.0193 633.65 94.0535 635.103 96.6689C636.556 99.2843 637.283 102.211 637.283 105.449ZM631.367 105.449C631.367 103.207 630.889 101.215 629.935 99.4711C629.021 97.686 627.755 96.316 626.136 95.3612C624.558 94.3648 622.794 93.8667 620.843 93.8667C618.892 93.8667 617.107 94.3648 615.487 95.3612C613.91 96.316 612.644 97.686 611.689 99.4711C610.776 101.215 610.319 103.207 610.319 105.449C610.319 107.649 610.776 109.621 611.689 111.365C612.644 113.109 613.91 114.479 615.487 115.475C617.107 116.43 618.892 116.907 620.843 116.907C622.794 116.907 624.558 116.43 626.136 115.475C627.755 114.479 629.021 113.109 629.935 111.365C630.889 109.621 631.367 107.649 631.367 105.449ZM650.574 118.775C650.574 119.606 650.284 120.311 649.702 120.893C649.121 121.474 648.415 121.764 647.585 121.764C646.755 121.764 646.049 121.474 645.468 120.893C644.928 120.311 644.658 119.606 644.658 118.775V78.6723C644.658 77.842 644.949 77.1363 645.53 76.5551C646.111 75.9739 646.817 75.6833 647.647 75.6833C648.478 75.6833 649.163 75.9739 649.702 76.5551C650.284 77.1363 650.574 77.842 650.574 78.6723V118.775ZM687.947 104.204C687.906 104.951 687.595 105.595 687.013 106.134C686.432 106.632 685.747 106.881 684.958 106.881H663.039C663.329 109.912 664.471 112.341 666.464 114.167C668.498 115.994 670.968 116.907 673.874 116.907C675.867 116.907 677.486 116.617 678.731 116.035C679.977 115.454 681.077 114.707 682.032 113.794C682.654 113.42 683.256 113.233 683.838 113.233C684.543 113.233 685.124 113.482 685.581 113.98C686.079 114.479 686.328 115.06 686.328 115.724C686.328 116.596 685.913 117.385 685.083 118.09C683.879 119.294 682.281 120.311 680.288 121.142C678.295 121.972 676.261 122.387 674.185 122.387C670.823 122.387 667.854 121.681 665.281 120.27C662.748 118.858 660.776 116.886 659.365 114.354C657.995 111.822 657.31 108.957 657.31 105.761C657.31 102.273 658.016 99.222 659.427 96.6066C660.88 93.9497 662.769 91.9155 665.094 90.504C667.46 89.0925 669.992 88.3867 672.691 88.3867C675.348 88.3867 677.839 89.0717 680.164 90.4417C682.488 91.8117 684.356 93.7006 685.768 96.1084C687.179 98.5163 687.906 101.215 687.947 104.204ZM672.691 93.8667C670.366 93.8667 668.353 94.5309 666.651 95.8593C664.948 97.1463 663.828 99.1598 663.288 101.9H681.658V101.402C681.45 99.2013 680.454 97.3954 678.669 95.9839C676.925 94.5724 674.933 93.8667 672.691 93.8667ZM723.462 104.204C723.42 104.951 723.109 105.595 722.528 106.134C721.947 106.632 721.262 106.881 720.473 106.881H698.553C698.844 109.912 699.985 112.341 701.978 114.167C704.012 115.994 706.482 116.907 709.388 116.907C711.381 116.907 713 116.617 714.246 116.035C715.491 115.454 716.591 114.707 717.546 113.794C718.169 113.42 718.771 113.233 719.352 113.233C720.058 113.233 720.639 113.482 721.096 113.98C721.594 114.479 721.843 115.06 721.843 115.724C721.843 116.596 721.428 117.385 720.597 118.09C719.393 119.294 717.795 120.311 715.802 121.142C713.81 121.972 711.776 122.387 709.7 122.387C706.337 122.387 703.369 121.681 700.795 120.27C698.263 118.858 696.291 116.886 694.879 114.354C693.509 111.822 692.824 108.957 692.824 105.761C692.824 102.273 693.53 99.222 694.941 96.6066C696.394 93.9497 698.283 91.9155 700.608 90.504C702.974 89.0925 705.507 88.3867 708.205 88.3867C710.862 88.3867 713.353 89.0717 715.678 90.4417C718.003 91.8117 719.871 93.7006 721.282 96.1084C722.694 98.5163 723.42 101.215 723.462 104.204ZM708.205 93.8667C705.88 93.8667 703.867 94.5309 702.165 95.8593C700.463 97.1463 699.342 99.1598 698.802 101.9H717.172V101.402C716.965 99.2013 715.968 97.3954 714.183 95.9839C712.44 94.5724 710.447 93.8667 708.205 93.8667Z" fill="#374151"/>
<circle cx="471.474" cy="103.279" r="37.9356" fill="#06B6D4"/>
<path d="M431.601 92.6948L427.188 88.281C426.22 87.3133 426.222 85.7435 427.193 84.7787L445.953 66.1356C446.42 65.6715 446.683 65.0402 446.683 64.3817V57.5944C446.683 55.3915 449.346 54.2882 450.904 55.8459L481.457 86.3984C481.542 86.4841 481.622 86.576 481.694 86.6733L482.438 87.6763C483.169 88.6606 483.068 90.0316 482.201 90.8983L464.325 108.775C463.359 109.74 461.794 109.74 460.828 108.775L449.057 97.0038L446.197 94.1433C445.733 93.6796 445.104 93.4191 444.448 93.4191H433.35C432.694 93.4191 432.065 93.1586 431.601 92.6948Z" stroke="#374151" stroke-width="5.43983"/>
<path fill-rule="evenodd" clip-rule="evenodd" d="M465.048 140.673C463.185 140.355 461.368 139.901 459.608 139.322V112.313H465.048L465.048 140.673ZM507.239 115.955L485.916 94.6321L489.763 90.7855L508.84 109.863C508.473 111.958 507.935 113.994 507.239 115.955Z" fill="#374151"/>
<path fill-rule="evenodd" clip-rule="evenodd" d="M487.941 88.5873L466.284 110.246L455.005 98.9669L451.143 102.829L466.284 117.97L491.803 92.4492L487.941 88.5873Z" fill="white"/>
<path fill-rule="evenodd" clip-rule="evenodd" d="M487.941 80.8632L466.284 102.522L455.005 91.2427L443.419 102.829L466.284 125.695L499.527 92.4488L487.941 80.8632ZM462.422 106.384L466.277 110.239L462.422 106.384ZM462.422 106.384L455.005 98.9668L451.143 102.829L466.284 117.97L470.146 114.108L491.803 92.4492L487.941 88.5873L466.284 110.246" fill="#06B6D4"/>
<path d="M119.733 115.06L109.739 100.134L105.005 104.802V115.06H96.1943V67.0613H105.005V96.189L118.813 80.6718H128.215L115.394 95.2685L129.136 115.06H119.733ZM144.342 115.717C141.537 115.717 139.016 115.235 136.781 114.271C134.545 113.306 132.638 112.013 131.06 110.391C129.526 108.726 128.343 106.819 127.51 104.671C126.677 102.523 126.26 100.266 126.26 97.8986C126.26 95.4877 126.677 93.2083 127.51 91.0605C128.343 88.9126 129.526 87.0277 131.06 85.4059C132.638 83.7402 134.545 82.4252 136.781 81.4608C139.016 80.4965 141.537 80.0143 144.342 80.0143C147.147 80.0143 149.646 80.4965 151.838 81.4608C154.073 82.4252 155.958 83.7402 157.492 85.4059C159.07 87.0277 160.276 88.9126 161.108 91.0605C161.941 93.2083 162.358 95.4877 162.358 97.8986C162.358 100.266 161.941 102.523 161.108 104.671C160.276 106.819 159.092 108.726 157.558 110.391C156.024 112.013 154.139 113.306 151.903 114.271C149.668 115.235 147.147 115.717 144.342 115.717ZM135.334 97.8986C135.334 99.4328 135.553 100.835 135.992 102.107C136.474 103.334 137.109 104.408 137.898 105.328C138.731 106.249 139.696 106.972 140.791 107.498C141.887 107.98 143.071 108.221 144.342 108.221C145.613 108.221 146.797 107.98 147.893 107.498C148.988 106.972 149.931 106.249 150.72 105.328C151.553 104.408 152.188 103.312 152.627 102.041C153.109 100.77 153.35 99.367 153.35 97.8328C153.35 96.3425 153.109 94.9617 152.627 93.6905C152.188 92.4193 151.553 91.3235 150.72 90.4029C149.931 89.4824 148.988 88.7811 147.893 88.2989C146.797 87.7729 145.613 87.5099 144.342 87.5099C143.071 87.5099 141.887 87.7729 140.791 88.2989C139.696 88.8249 138.731 89.5482 137.898 90.4687C137.109 91.3892 136.474 92.4851 135.992 93.7562C135.553 95.0274 135.334 96.4082 135.334 97.8986ZM181.586 115.717C178.781 115.717 176.261 115.235 174.025 114.271C171.789 113.306 169.883 112.013 168.305 110.391C166.77 108.726 165.587 106.819 164.754 104.671C163.921 102.523 163.505 100.266 163.505 97.8986C163.505 95.4877 163.921 93.2083 164.754 91.0605C165.587 88.9126 166.77 87.0277 168.305 85.4059C169.883 83.7402 171.789 82.4252 174.025 81.4608C176.261 80.4965 178.781 80.0143 181.586 80.0143C184.392 80.0143 186.89 80.4965 189.082 81.4608C191.317 82.4252 193.202 83.7402 194.737 85.4059C196.315 87.0277 197.52 88.9126 198.353 91.0605C199.186 93.2083 199.602 95.4877 199.602 97.8986C199.602 100.266 199.186 102.523 198.353 104.671C197.52 106.819 196.336 108.726 194.802 110.391C193.268 112.013 191.383 113.306 189.148 114.271C186.912 115.235 184.392 115.717 181.586 115.717ZM172.578 97.8986C172.578 99.4328 172.798 100.835 173.236 102.107C173.718 103.334 174.354 104.408 175.143 105.328C175.976 106.249 176.94 106.972 178.036 107.498C179.132 107.98 180.315 108.221 181.586 108.221C182.858 108.221 184.041 107.98 185.137 107.498C186.233 106.972 187.175 106.249 187.964 105.328C188.797 104.408 189.433 103.312 189.871 102.041C190.353 100.77 190.594 99.367 190.594 97.8328C190.594 96.3425 190.353 94.9617 189.871 93.6905C189.433 92.4193 188.797 91.3235 187.964 90.4029C187.175 89.4824 186.233 88.7811 185.137 88.2989C184.041 87.7729 182.858 87.5099 181.586 87.5099C180.315 87.5099 179.132 87.7729 178.036 88.2989C176.94 88.8249 175.976 89.5482 175.143 90.4687C174.354 91.3892 173.718 92.4851 173.236 93.7562C172.798 95.0274 172.578 96.4082 172.578 97.8986ZM202.853 67.0613H211.664V104.013C211.664 105.285 211.971 106.271 212.584 106.972C213.198 107.674 214.075 108.024 215.214 108.024C215.74 108.024 216.31 107.937 216.924 107.761C217.581 107.586 218.195 107.367 218.765 107.104L219.948 113.81C218.765 114.38 217.384 114.818 215.806 115.125C214.228 115.432 212.803 115.586 211.532 115.586C208.771 115.586 206.623 114.862 205.089 113.416C203.598 111.925 202.853 109.821 202.853 107.104V67.0613ZM237.135 115.717C234.373 115.717 231.875 115.257 229.639 114.336C227.403 113.372 225.497 112.079 223.919 110.457C222.341 108.835 221.113 106.95 220.237 104.802C219.404 102.655 218.987 100.397 218.987 98.0301C218.987 95.5754 219.404 93.2741 220.237 91.1262C221.069 88.9345 222.275 87.0277 223.853 85.4059C225.431 83.7402 227.338 82.4252 229.573 81.4608C231.853 80.4965 234.395 80.0143 237.2 80.0143C240.006 80.0143 242.504 80.4965 244.696 81.4608C246.932 82.4252 248.816 83.7183 250.351 85.3401C251.929 86.962 253.112 88.8468 253.901 90.9947C254.734 93.1426 255.15 95.3781 255.15 97.7013C255.15 98.2711 255.128 98.8191 255.085 99.3451C255.085 99.8711 255.041 100.309 254.953 100.66H228.324C228.455 102.019 228.784 103.224 229.31 104.276C229.836 105.328 230.516 106.227 231.349 106.972C232.181 107.717 233.124 108.287 234.176 108.682C235.228 109.076 236.324 109.273 237.463 109.273C239.217 109.273 240.861 108.857 242.395 108.024C243.973 107.148 245.047 106.008 245.616 104.605L253.178 106.709C251.907 109.339 249.868 111.509 247.063 113.219C244.301 114.884 240.992 115.717 237.135 115.717ZM246.077 94.9398C245.858 92.3536 244.893 90.2934 243.184 88.7592C241.518 87.1811 239.48 86.3921 237.069 86.3921C235.885 86.3921 234.768 86.6113 233.716 87.0496C232.707 87.4442 231.809 88.014 231.02 88.7592C230.231 89.5044 229.573 90.4029 229.047 91.455C228.565 92.507 228.28 93.6686 228.192 94.9398H246.077ZM273.865 115.717C271.104 115.717 268.605 115.257 266.37 114.336C264.134 113.372 262.227 112.079 260.649 110.457C259.071 108.835 257.844 106.95 256.967 104.802C256.134 102.655 255.718 100.397 255.718 98.0301C255.718 95.5754 256.134 93.2741 256.967 91.1262C257.8 88.9345 259.006 87.0277 260.584 85.4059C262.162 83.7402 264.068 82.4252 266.304 81.4608C268.583 80.4965 271.126 80.0143 273.931 80.0143C276.736 80.0143 279.235 80.4965 281.427 81.4608C283.662 82.4252 285.547 83.7183 287.081 85.3401C288.659 86.962 289.843 88.8468 290.632 90.9947C291.465 93.1426 291.881 95.3781 291.881 97.7013C291.881 98.2711 291.859 98.8191 291.815 99.3451C291.815 99.8711 291.771 100.309 291.684 100.66H265.055C265.186 102.019 265.515 103.224 266.041 104.276C266.567 105.328 267.246 106.227 268.079 106.972C268.912 107.717 269.854 108.287 270.906 108.682C271.959 109.076 273.054 109.273 274.194 109.273C275.947 109.273 277.591 108.857 279.125 108.024C280.703 107.148 281.777 106.008 282.347 104.605L289.909 106.709C288.637 109.339 286.599 111.509 283.794 113.219C281.032 114.884 277.723 115.717 273.865 115.717ZM282.807 94.9398C282.588 92.3536 281.624 90.2934 279.914 88.7592C278.249 87.1811 276.21 86.3921 273.8 86.3921C272.616 86.3921 271.498 86.6113 270.446 87.0496C269.438 87.4442 268.539 88.014 267.75 88.7592C266.961 89.5044 266.304 90.4029 265.778 91.455C265.296 92.507 265.011 93.6686 264.923 94.9398H282.807Z" fill="#4338CA"/>
<path d="M0 90.1812C0 58.4301 6.80519 51.6249 38.5563 51.6249C70.3074 51.6249 77.1126 58.4301 77.1126 90.1812C77.1126 121.932 70.3074 128.737 38.5563 128.737C6.80519 128.737 0 121.932 0 90.1812Z" fill="#4338CA"/>
<path d="M58.264 70.0838V87.7178C58.264 88.2556 57.5421 88.4315 57.2947 87.9539C55.3982 84.2921 52.3236 81.3758 48.5666 79.6754L46.9897 78.9617C46.6647 78.8146 46.5695 78.3982 46.7982 78.1245L54.6216 68.7623C55.8568 67.2842 58.264 68.1576 58.264 70.0838Z" fill="white"/>
<path d="M18.8486 70.9716V88.0059C18.8486 88.4702 19.4719 88.622 19.6855 88.2097C21.6678 84.3822 24.8816 81.334 28.8085 79.5566L30.123 78.9617C30.448 78.8146 30.5432 78.3982 30.3145 78.1245L23.0603 69.4435C21.6321 67.7344 18.8486 68.7443 18.8486 70.9716Z" fill="white"/>
<path fill-rule="evenodd" clip-rule="evenodd" d="M43.0135 83.6654C43.4888 82.8089 43.7223 81.8208 43.5154 80.8634C43.2853 79.7985 42.573 78.8715 41.523 78.5812C39.5848 78.0453 37.5361 78.045 35.5978 78.5804C34.5461 78.871 33.8327 79.7994 33.6023 80.866C33.3933 81.8334 33.6341 82.8312 34.1158 83.6958C34.3152 84.0536 34.4972 84.4225 34.6617 84.8023C35.3576 86.4084 35.7055 88.1129 35.7055 89.9157C35.7055 91.6857 35.3576 93.3738 34.6617 94.9799C33.9659 96.5861 32.9771 98.0119 31.6952 99.2575C30.2748 100.601 28.9991 102.172 28.5862 104.083L28.428 104.815C27.6296 108.511 29.3295 112.296 32.6222 114.154L33.5823 114.695C36.6712 116.439 40.447 116.439 43.5359 114.695L44.4823 114.161C47.7831 112.299 49.4873 108.504 48.6869 104.8L48.5219 104.036C48.1117 102.137 46.8501 100.573 45.4203 99.2575C44.1385 98.0119 43.1497 96.5861 42.4538 94.9799C41.758 93.3738 41.4101 91.6857 41.4101 89.9157C41.4101 88.1129 41.758 86.4084 42.4538 84.8023C42.6231 84.4117 42.8096 84.0327 43.0135 83.6654Z" fill="white"/>
<path d="M32.6008 108.572C32.6008 106.38 34.3781 104.602 36.5704 104.602H40.5215C42.7138 104.602 44.491 106.38 44.491 108.572C44.491 109.67 44.0357 110.72 43.2335 111.47L42.6077 112.056C40.3221 114.195 36.7698 114.195 34.4841 112.056L33.8583 111.47C33.0561 110.72 32.6008 109.67 32.6008 108.572Z" fill="#818CF8"/>
<path d="M122.06 290.752L117.925 294.832V302.386H109.324V261.475H117.925V284.632L130.496 272.723H140.751L128.401 285.294L141.854 302.386H131.433L122.06 290.752ZM156.339 302.827C153.214 302.827 150.403 302.184 147.903 300.897C145.44 299.574 143.511 297.754 142.114 295.439C140.717 293.123 140.019 290.495 140.019 287.554C140.019 284.614 140.717 281.986 142.114 279.67C143.511 277.354 145.44 275.553 147.903 274.267C150.403 272.943 153.214 272.282 156.339 272.282C159.463 272.282 162.257 272.943 164.719 274.267C167.182 275.553 169.112 277.354 170.509 279.67C171.905 281.986 172.604 284.614 172.604 287.554C172.604 290.495 171.905 293.123 170.509 295.439C169.112 297.754 167.182 299.574 164.719 300.897C162.257 302.184 159.463 302.827 156.339 302.827ZM156.339 295.769C158.544 295.769 160.345 295.034 161.742 293.564C163.176 292.057 163.892 290.054 163.892 287.554C163.892 285.055 163.176 283.07 161.742 281.6C160.345 280.093 158.544 279.339 156.339 279.339C154.133 279.339 152.314 280.093 150.88 281.6C149.447 283.07 148.73 285.055 148.73 287.554C148.73 290.054 149.447 292.057 150.88 293.564C152.314 295.034 154.133 295.769 156.339 295.769ZM190.262 302.827C187.138 302.827 184.326 302.184 181.826 300.897C179.364 299.574 177.434 297.754 176.037 295.439C174.64 293.123 173.942 290.495 173.942 287.554C173.942 284.614 174.64 281.986 176.037 279.67C177.434 277.354 179.364 275.553 181.826 274.267C184.326 272.943 187.138 272.282 190.262 272.282C193.387 272.282 196.18 272.943 198.643 274.267C201.106 275.553 203.035 277.354 204.432 279.67C205.829 281.986 206.527 284.614 206.527 287.554C206.527 290.495 205.829 293.123 204.432 295.439C203.035 297.754 201.106 299.574 198.643 300.897C196.18 302.184 193.387 302.827 190.262 302.827ZM190.262 295.769C192.468 295.769 194.269 295.034 195.666 293.564C197.099 292.057 197.816 290.054 197.816 287.554C197.816 285.055 197.099 283.07 195.666 281.6C194.269 280.093 192.468 279.339 190.262 279.339C188.057 279.339 186.237 280.093 184.804 281.6C183.37 283.07 182.654 285.055 182.654 287.554C182.654 290.054 183.37 292.057 184.804 293.564C186.237 295.034 188.057 295.769 190.262 295.769ZM210.071 261.475H218.672V302.386H210.071V261.475ZM253.506 287.665C253.506 287.775 253.451 288.547 253.34 289.98H230.9C231.304 291.818 232.26 293.27 233.767 294.336C235.274 295.402 237.149 295.935 239.391 295.935C240.935 295.935 242.295 295.714 243.471 295.273C244.684 294.795 245.805 294.06 246.834 293.068L251.411 298.03C248.617 301.228 244.537 302.827 239.17 302.827C235.826 302.827 232.867 302.184 230.294 300.897C227.721 299.574 225.736 297.754 224.339 295.439C222.942 293.123 222.244 290.495 222.244 287.554C222.244 284.65 222.924 282.041 224.284 279.725C225.681 277.373 227.574 275.553 229.963 274.267C232.389 272.943 235.09 272.282 238.068 272.282C240.972 272.282 243.6 272.907 245.952 274.156C248.305 275.406 250.142 277.207 251.466 279.56C252.826 281.875 253.506 284.577 253.506 287.665ZM238.123 278.788C236.175 278.788 234.539 279.339 233.216 280.442C231.893 281.544 231.084 283.052 230.79 284.963H245.401C245.107 283.088 244.298 281.6 242.975 280.497C241.652 279.357 240.034 278.788 238.123 278.788ZM286.083 287.665C286.083 287.775 286.028 288.547 285.918 289.98H263.478C263.882 291.818 264.838 293.27 266.345 294.336C267.852 295.402 269.726 295.935 271.968 295.935C273.512 295.935 274.872 295.714 276.048 295.273C277.261 294.795 278.382 294.06 279.412 293.068L283.988 298.03C281.194 301.228 277.114 302.827 271.748 302.827C268.403 302.827 265.444 302.184 262.871 300.897C260.298 299.574 258.313 297.754 256.916 295.439C255.52 293.123 254.821 290.495 254.821 287.554C254.821 284.65 255.501 282.041 256.861 279.725C258.258 277.373 260.151 275.553 262.54 274.267C264.966 272.943 267.668 272.282 270.645 272.282C273.549 272.282 276.177 272.907 278.53 274.156C280.882 275.406 282.72 277.207 284.043 279.56C285.403 281.875 286.083 284.577 286.083 287.665ZM270.7 278.788C268.752 278.788 267.116 279.339 265.793 280.442C264.47 281.544 263.661 283.052 263.367 284.963H277.978C277.684 283.088 276.875 281.6 275.552 280.497C274.229 279.357 272.612 278.788 270.7 278.788Z" fill="#4338CA"/>
<path fill-rule="evenodd" clip-rule="evenodd" d="M40.8749 245.833C7.21442 245.833 0 253.048 0 286.708C0 320.368 7.21442 327.583 40.8749 327.583C74.5353 327.583 81.7497 320.368 81.7497 286.708C81.7497 253.048 74.5353 245.833 40.8749 245.833ZM40.8749 261.812C20.3731 261.812 15.979 266.206 15.979 286.708C15.979 307.21 20.3731 311.604 40.8749 311.604C61.3766 311.604 65.7707 307.21 65.7707 286.708C65.7707 266.206 61.3766 261.812 40.8749 261.812Z" fill="#4338CA"/>
<mask id="mask0_5260_3196" style="mask-type:alpha" maskUnits="userSpaceOnUse" x="0" y="245" width="82" height="83">
<path fill-rule="evenodd" clip-rule="evenodd" d="M40.8749 245.833C7.21442 245.833 0 253.048 0 286.708C0 320.369 7.21442 327.583 40.8749 327.583C74.5353 327.583 81.7497 320.369 81.7497 286.708C81.7497 253.048 74.5353 245.833 40.8749 245.833ZM40.8749 261.812C20.3731 261.812 15.979 266.207 15.979 286.708C15.979 307.21 20.3731 311.604 40.8749 311.604C61.3766 311.604 65.7707 307.21 65.7707 286.708C65.7707 266.207 61.3766 261.812 40.8749 261.812Z" fill="#4338CA"/>
</mask>
<g mask="url(#mask0_5260_3196)">
<path d="M-50.7421 240.724C-50.7421 207.064 -35.8175 199.849 33.8166 199.849C103.451 199.849 118.375 207.064 118.375 240.724C118.375 274.385 103.451 281.599 33.8166 281.599C-35.8175 281.599 -50.7421 274.385 -50.7421 240.724Z" fill="#818CF8"/>
</g>
<path fill-rule="evenodd" clip-rule="evenodd" d="M40.7034 297.784L56.4793 282.034L56.4819 282.031C58.2695 280.264 58.2357 277.397 56.488 275.635C54.7238 273.856 51.8496 273.863 50.0771 275.631L37.4927 288.184L31.6818 282.387L31.6796 282.385C29.9098 280.603 27.0405 280.637 25.2753 282.379C23.4906 284.14 23.4969 287.012 25.271 288.782L34.2922 297.78L34.2943 297.782C36.0587 299.559 38.9316 299.552 40.7034 297.784Z" fill="#4338CA"/>
<path d="M23.3796 259.16L23.7349 259.161L23.8934 258.843L27.2612 252.084L27.3215 251.963L27.3214 251.828L27.3096 242.469C27.3096 242.469 27.3096 242.468 27.3096 242.468C27.3177 240.282 25.5296 238.528 23.3597 238.513C21.1761 238.499 19.408 240.271 19.4107 242.459L19.4267 255.204C19.4267 255.205 19.4267 255.205 19.4267 255.206C19.4186 257.388 21.1935 259.158 23.3796 259.16Z" fill="#818CF8" stroke="#818CF8" stroke-width="1.14643"/>
<path d="M57.3602 259.16L57.7155 259.161L57.874 258.843L61.2418 252.084L61.3021 251.963L61.3019 251.828L61.2902 242.469C61.2902 242.469 61.2902 242.468 61.2902 242.468C61.2983 240.282 59.5102 238.528 57.3403 238.513C55.1567 238.499 53.3886 240.271 53.3913 242.459L53.4073 255.204C53.4073 255.205 53.4073 255.205 53.4072 255.206C53.3992 257.388 55.1741 259.158 57.3602 259.16Z" fill="#818CF8" stroke="#818CF8" stroke-width="1.14643"/>
<path fill-rule="evenodd" clip-rule="evenodd" d="M441.447 289.416C440.437 290.236 440.301 291.726 441.146 292.715L466.557 322.444C467.48 323.524 469.15 323.524 470.073 322.444L514.949 269.941C515.795 268.952 515.658 267.46 514.647 266.641L503.424 257.543C502.443 256.748 501.006 256.887 500.195 257.854L470.088 293.764C469.163 294.866 467.467 294.866 466.543 293.764L455.673 280.799C454.861 279.831 453.423 279.693 452.443 280.489L441.447 289.416Z" fill="#4F46E5"/>
<path d="M443.161 266.902C446.496 272.678 445.692 279.386 441.365 281.885C437.038 284.383 430.827 281.725 427.491 275.949C424.156 270.172 424.96 263.464 429.287 260.966C433.615 258.468 439.826 261.125 443.161 266.902Z" fill="#1F2937"/>
<path d="M464.473 252.102C466.2 258.545 463.687 264.816 458.861 266.11C454.034 267.403 448.722 263.228 446.996 256.785C445.27 250.342 447.783 244.071 452.609 242.778C457.435 241.484 462.747 245.659 464.473 252.102Z" fill="#1F2937"/>
<path d="M472.157 252.102C470.43 258.545 472.943 264.816 477.769 266.11C482.595 267.403 487.907 263.228 489.634 256.785C491.36 250.342 488.847 244.071 484.021 242.778C479.195 241.484 473.883 245.659 472.157 252.102Z" fill="#1F2937"/>
<path d="M566.57 299.953C567.715 301.542 567.333 303.767 565.744 304.911C564.155 306.055 561.93 305.674 560.849 304.085L552.205 291.753L547.755 295.567V301.86C547.755 303.894 546.102 305.483 544.068 305.483C542.098 305.483 540.445 303.894 540.445 301.86V264.293C540.445 262.259 542.098 260.606 544.068 260.606C546.102 260.606 547.755 262.259 547.755 264.293V286.414L560.341 275.417C561.866 274.145 564.155 274.336 565.426 275.862C566.634 277.387 566.507 279.612 564.981 280.883L557.608 287.176L566.57 299.953ZM585.253 305.865C576.608 305.865 569.616 299.317 569.616 290.1C569.616 280.883 576.608 274.336 585.253 274.336C593.834 274.336 600.826 280.883 600.826 290.1C600.826 299.317 593.834 305.865 585.253 305.865ZM585.253 299.254C589.766 299.254 593.389 295.44 593.389 290.1C593.389 284.761 589.766 280.947 585.253 280.947C580.676 280.947 577.053 284.761 577.053 290.1C577.053 295.44 580.676 299.254 585.253 299.254ZM620.591 305.865C611.946 305.865 604.954 299.317 604.954 290.1C604.954 280.883 611.946 274.336 620.591 274.336C629.173 274.336 636.165 280.883 636.165 290.1C636.165 299.317 629.173 305.865 620.591 305.865ZM620.591 299.254C625.104 299.254 628.728 295.44 628.728 290.1C628.728 284.761 625.104 280.947 620.591 280.947C616.015 280.947 612.391 284.761 612.391 290.1C612.391 295.44 616.015 299.254 620.591 299.254ZM645.124 305.483C643.09 305.483 641.437 303.894 641.437 301.86V264.293C641.437 262.259 643.09 260.606 645.124 260.606C647.094 260.606 648.747 262.259 648.747 264.293V301.86C648.747 303.894 647.094 305.483 645.124 305.483ZM668.906 305.801C660.071 305.865 653.905 299.445 653.905 290.291C653.905 281.01 660.388 274.336 668.334 274.336C676.852 274.336 682.763 281.455 682.7 290.355C682.7 292.007 681.365 293.406 679.649 293.406H661.469C662.359 296.902 664.965 299.19 668.906 299.19C671.385 299.19 673.674 298.555 676.089 297.474C676.47 297.283 676.915 297.22 677.36 297.22C679.204 297.22 680.666 298.682 680.666 300.525C680.666 301.924 679.776 303.131 678.568 303.64C675.39 304.975 672.275 305.738 668.906 305.801ZM661.469 287.24H675.008C674.5 283.553 671.449 281.01 668.334 281.01C665.156 281.01 662.041 283.49 661.469 287.24ZM701.638 305.801C692.802 305.865 686.636 299.445 686.636 290.291C686.636 281.01 693.12 274.336 701.065 274.336C709.583 274.336 715.495 281.455 715.431 290.355C715.431 292.007 714.096 293.406 712.38 293.406H694.2C695.09 296.902 697.696 299.19 701.638 299.19C704.117 299.19 706.405 298.555 708.82 297.474C709.202 297.283 709.647 297.22 710.092 297.22C711.935 297.22 713.397 298.682 713.397 300.525C713.397 301.924 712.507 303.131 711.3 303.64C708.121 304.975 705.006 305.738 701.638 305.801ZM694.2 287.24H707.74C707.231 283.553 704.18 281.01 701.065 281.01C697.887 281.01 694.772 283.49 694.2 287.24Z" fill="#1F2937"/>
</g>
<defs>
<clipPath id="clip0_5260_3196">
<rect width="747" height="316.9" fill="white" transform="translate(0 10.6835)"/>
</clipPath>
</defs>
</svg>
