<svg width="745" height="176" viewBox="0 0 745 176" fill="none" xmlns="http://www.w3.org/2000/svg">
<path d="M67.2195 144.279V118.108C80.1427 135.327 94.0672 153.164 123.487 142.982L114.103 122.337C102.467 123.671 97.48 117.639 92.6645 111.814C91.4201 110.309 90.1871 108.818 88.8539 107.471L87.0976 105.249C89.855 102.503 92.9331 99.4157 95.1248 97.0911C98.5737 93.3286 101.866 89.3571 105.001 85.1765C108.241 80.996 111.063 76.7109 113.467 72.3213C115.871 67.9317 117.956 62.0787 119.106 57.5846H93.0818C92.1412 61.3471 90.5261 64.9008 88.8539 68.2452C87.2862 71.5897 85.3004 74.8296 82.8966 77.9651C80.5973 81.1005 77.8799 84.2882 74.7445 87.5281C74.4475 87.8456 74.147 88.1636 73.8429 88.4821L67.2195 80.1034V43.3128C67.2195 36.0976 61.3704 30.2485 54.1552 30.2485H42.7632V144.279H67.2195Z" fill="#4F46E5"/>
<path d="M309.275 30.2822H297.677V122.518C297.714 130.832 299.96 136.881 304.413 140.667C308.867 144.453 315.77 146.16 325.123 145.789C330.419 145.595 336.471 144.554 340.3 142.792L332.98 126.689C330.688 127.118 325.934 127.516 323.843 125.023C322.878 123.836 322.377 121.961 322.34 119.401V43.3465C322.34 36.1313 316.491 30.2822 309.275 30.2822Z" fill="#4F46E5"/>
<path fill-rule="evenodd" clip-rule="evenodd" d="M440.669 140.437C447.053 143.963 454.642 145.726 463.439 145.726C470.639 145.726 476.967 144.631 482.423 142.442C487.915 140.252 492.388 137.171 495.839 133.2C499.291 129.229 501.555 124.552 502.631 119.171L479.917 117.946C479.138 120.024 477.969 121.787 476.41 123.235C474.888 124.645 473.07 125.721 470.954 126.464C468.839 127.169 466.482 127.522 463.884 127.522C460.061 127.522 456.758 126.724 453.974 125.128C451.191 123.532 449.02 121.268 447.461 118.336C445.939 115.367 445.178 111.859 445.178 107.814V107.535H503.077V100.966C503.077 93.766 502.056 87.4565 500.015 82.0378C497.974 76.582 495.116 72.0355 491.441 68.3983C487.804 64.7611 483.517 62.0332 478.581 60.2146C473.682 58.396 468.338 57.4866 462.548 57.4866C454.123 57.4866 446.774 59.3424 440.502 63.0538C434.267 66.7652 429.423 71.9427 425.972 78.5862C422.557 85.1925 420.85 92.9123 420.85 101.746C420.85 110.801 422.557 118.633 425.972 125.239C429.423 131.808 434.322 136.874 440.669 140.437ZM445.204 92.5598C445.364 89.5933 446.135 86.8839 447.516 84.4317C449.038 81.7595 451.135 79.6439 453.807 78.0851C456.517 76.4892 459.579 75.6913 462.993 75.6913C466.333 75.6913 469.266 76.415 471.789 77.8625C474.313 79.3099 476.299 81.3141 477.746 83.875C479.194 86.3988 479.936 89.2937 479.973 92.5598H445.204Z" fill="#4F46E5"/>
<path fill-rule="evenodd" clip-rule="evenodd" d="M160.524 145.725C151.803 145.725 144.268 143.888 137.922 140.214C131.612 136.539 126.732 131.399 123.28 124.793C119.866 118.149 118.158 110.429 118.158 101.633C118.158 92.837 119.866 85.1358 123.28 78.5294C126.732 71.886 131.612 66.7271 137.922 63.0527C144.268 59.3413 151.803 57.4856 160.524 57.4856C169.283 57.4856 176.818 59.3413 183.127 63.0527C189.474 66.7271 194.354 71.886 197.769 78.5294C201.22 85.1358 202.946 92.837 202.946 101.633C202.946 110.429 201.22 118.149 197.769 124.793C194.354 131.399 189.474 136.539 183.127 140.214C176.818 143.888 169.283 145.725 160.524 145.725ZM160.691 126.797C164.403 126.797 167.539 125.72 170.1 123.568C172.661 121.378 174.591 118.39 175.89 114.605C177.189 110.782 177.838 106.421 177.838 101.522C177.838 96.5856 177.189 92.2247 175.89 88.439C174.591 84.6162 172.661 81.6099 170.1 79.4202C167.539 77.2304 164.403 76.1356 160.691 76.1356C156.869 76.1356 153.658 77.2304 151.06 79.4202C148.462 81.6099 146.495 84.6162 145.159 88.439C143.86 92.2247 143.211 96.5856 143.211 101.522C143.211 106.421 143.86 110.782 145.159 114.605C146.495 118.39 148.462 121.378 151.06 123.568C153.658 125.72 156.869 126.797 160.691 126.797Z" fill="#4F46E5"/>
<path fill-rule="evenodd" clip-rule="evenodd" d="M249.137 145.725C240.415 145.725 232.881 143.888 226.534 140.214C220.225 136.539 215.344 131.399 211.893 124.793C208.478 118.149 206.771 110.429 206.771 101.633C206.771 92.837 208.478 85.1358 211.893 78.5294C215.344 71.886 220.225 66.7271 226.534 63.0527C232.881 59.3413 240.415 57.4856 249.137 57.4856C257.896 57.4856 265.43 59.3413 271.74 63.0527C278.086 66.7271 282.967 71.886 286.381 78.5294C289.833 85.1358 291.559 92.837 291.559 101.633C291.559 110.429 289.833 118.149 286.381 124.793C282.967 131.399 278.086 136.539 271.74 140.214C265.43 143.888 257.896 145.725 249.137 145.725ZM249.304 126.797C253.015 126.797 256.152 125.72 258.712 123.568C261.273 121.378 263.203 118.39 264.502 114.605C265.801 110.782 266.451 106.421 266.451 101.522C266.451 96.5856 265.801 92.2247 264.502 88.439C263.203 84.6162 261.273 81.6099 258.712 79.4202C256.152 77.2304 253.015 76.1356 249.304 76.1356C245.481 76.1356 242.271 77.2304 239.673 79.4202C237.075 81.6099 235.108 84.6162 233.772 88.439C232.473 92.2247 231.823 96.5856 231.823 101.522C231.823 106.421 232.473 110.782 233.772 114.605C235.108 118.39 237.075 121.378 239.673 123.568C242.271 125.72 245.481 126.797 249.304 126.797Z" fill="#4F46E5"/>
<path fill-rule="evenodd" clip-rule="evenodd" d="M355.131 140.437C361.515 143.963 369.105 145.726 377.901 145.726C385.101 145.726 391.429 144.631 396.885 142.442C402.378 140.252 406.85 137.171 410.302 133.2C413.753 129.229 416.017 124.552 417.094 119.171L394.38 117.946C393.6 120.024 392.431 121.787 390.872 123.235C389.351 124.645 387.532 125.721 385.417 126.464C383.301 127.169 380.944 127.522 378.346 127.522C374.524 127.522 371.22 126.724 368.437 125.128C365.653 123.532 363.482 121.268 361.923 118.336C360.401 115.367 359.641 111.859 359.641 107.814V107.535H417.539V100.966C417.539 93.766 416.518 87.4565 414.477 82.0378C412.436 76.582 409.578 72.0355 405.904 68.3983C402.267 64.7611 397.98 62.0332 393.044 60.2146C388.145 58.396 382.8 57.4866 377.01 57.4866C368.585 57.4866 361.237 59.3424 354.964 63.0538C348.729 66.7652 343.886 71.9427 340.434 78.5862C337.019 85.1926 335.312 92.9123 335.312 101.746C335.312 110.801 337.019 118.633 340.434 125.239C343.886 131.808 348.785 136.874 355.131 140.437ZM359.666 92.5598C359.826 89.5933 360.597 86.8839 361.979 84.4317C363.501 81.7595 365.598 79.6439 368.27 78.0851C370.979 76.4892 374.041 75.6913 377.456 75.6913C380.796 75.6913 383.728 76.415 386.252 77.8625C388.775 79.3099 390.761 81.3141 392.209 83.875C393.656 86.3988 394.398 89.2937 394.435 92.5598H359.666Z" fill="#4F46E5"/>
<rect x="527.077" y="0.523438" width="175.16" height="175.16" rx="8" fill="#4F46E5"/>
<path d="M675.962 115.983C675.962 134.444 660.997 149.409 642.536 149.409L586.777 149.409C568.316 149.409 553.351 134.444 553.351 115.983L555.208 88.1036L674.105 88.1036L675.962 115.983Z" fill="white"/>
<path d="M553.351 60.2237C553.351 41.7629 568.316 26.7974 586.777 26.7974L642.536 26.7974C660.997 26.7974 675.962 41.7629 675.962 60.2238L674.105 88.1032L555.208 88.1032L553.351 60.2237Z" fill="#EEF2FF"/>
<path d="M607.131 106.776V123.9H591.129V49.2871H598.583C603.304 49.2871 607.131 53.1143 607.131 57.8354V81.9085L621.287 99.8158C625.535 104.107 629.199 109.543 637.808 109.543L643.949 123.052C624.698 129.714 615.587 118.043 607.131 106.776ZM617.389 101.098L605.387 93.2292C607.849 91.0408 610.072 88.8866 612.055 86.7667C614.107 84.6467 615.885 82.5609 617.389 80.5093C618.962 78.4577 620.261 76.3377 621.287 74.1494C622.381 71.961 623.438 69.6357 624.054 67.1738H641.082C640.33 70.1144 638.965 73.9442 637.392 76.8164C635.819 79.6887 633.973 82.4925 631.853 85.228C629.801 87.9634 627.647 90.5621 625.39 93.024C623.134 95.4175 619.441 99.0467 617.389 101.098Z" fill="#4F46E5"/>
</svg>
