<svg width="800" height="450" viewBox="0 0 800 450" fill="none" xmlns="http://www.w3.org/2000/svg">
<rect width="800" height="450" fill="#1F2937"/>
<path d="M235.002 259.744C235.002 283.081 216.083 302 192.746 302H122.258C98.9209 302 80.0023 283.081 80.0023 259.744L82.3499 224.5L232.654 224.5L235.002 259.744Z" fill="white"/>
<path d="M80.002 189.256C80.002 165.919 98.9206 147 122.258 147L192.746 147C216.083 147 235.002 165.919 235.002 189.256L232.654 224.5L82.3499 224.5L80.002 189.256Z" fill="white"/>
<path d="M147.989 248.105V269.753H127.759V175.43H137.182C143.151 175.43 147.989 180.268 147.989 186.237V216.669L165.884 239.306C171.254 244.731 175.886 251.602 186.769 251.602L194.531 268.68C170.196 277.102 158.678 262.348 147.989 248.105ZM160.956 240.927L145.784 230.98C148.896 228.213 151.706 225.49 154.213 222.81C156.807 220.13 159.054 217.493 160.956 214.9C162.945 212.306 164.587 209.626 165.884 206.86C167.267 204.093 168.603 201.154 169.381 198.042H190.907C189.956 201.759 188.232 206.6 186.243 210.231C184.255 213.862 181.921 217.407 179.241 220.865C176.647 224.323 173.924 227.608 171.071 230.72C168.218 233.746 163.55 238.334 160.956 240.927Z" fill="black"/>
<path d="M283.458 280.675V254.504C296.381 271.722 310.306 289.559 339.725 279.378L330.341 258.732C318.706 260.067 313.718 254.034 308.903 248.21C307.658 246.705 306.426 245.213 305.092 243.867L303.336 241.645C306.093 238.899 309.171 235.812 311.363 233.487C314.812 229.725 318.104 225.753 321.24 221.573C324.48 217.392 327.301 213.107 329.705 208.717C332.109 204.328 334.194 198.475 335.344 193.981H309.32C308.38 197.743 306.765 201.297 305.092 204.641C303.525 207.986 301.539 211.226 299.135 214.361C296.836 217.497 294.118 220.684 290.983 223.924C290.686 224.242 290.385 224.56 290.081 224.878L283.458 216.499V179.709C283.458 172.494 277.609 166.645 270.394 166.645H259.002V280.675H283.458Z" fill="white"/>
<path d="M525.512 166.679H513.914V258.914C513.951 267.227 516.196 273.277 520.65 277.063C525.104 280.848 532.007 282.556 541.36 282.184C546.656 281.991 552.707 280.949 556.536 279.188L549.216 263.085C546.924 263.513 542.17 263.912 540.079 261.419C539.114 260.231 538.613 258.357 538.576 255.796V179.743C538.576 172.528 532.727 166.679 525.512 166.679Z" fill="white"/>
<path fill-rule="evenodd" clip-rule="evenodd" d="M656.905 276.832C663.288 280.358 670.878 282.121 679.674 282.121C686.874 282.121 693.202 281.026 698.658 278.837C704.151 276.647 708.623 273.566 712.075 269.595C715.526 265.624 717.79 260.948 718.867 255.566L696.153 254.341C695.373 256.42 694.204 258.183 692.646 259.63C691.124 261.04 689.305 262.117 687.19 262.859C685.074 263.564 682.717 263.917 680.12 263.917C676.297 263.917 672.994 263.119 670.21 261.523C667.427 259.927 665.255 257.663 663.697 254.731C662.175 251.762 661.414 248.255 661.414 244.209V243.931H719.312V237.362C719.312 230.161 718.291 223.852 716.25 218.433C714.209 212.978 711.351 208.431 707.677 204.794C704.04 201.157 699.753 198.429 694.817 196.61C689.918 194.792 684.573 193.882 678.783 193.882C670.358 193.882 663.01 195.738 656.738 199.45C650.502 203.161 645.659 208.338 642.207 214.982C638.793 221.588 637.086 229.308 637.086 238.141C637.086 247.197 638.793 255.028 642.207 261.634C645.659 268.203 650.558 273.269 656.905 276.832ZM661.44 228.955C661.6 225.989 662.371 223.279 663.752 220.827C665.274 218.155 667.371 216.04 670.043 214.481C672.752 212.885 675.814 212.087 679.229 212.087C682.569 212.087 685.501 212.811 688.025 214.258C690.549 215.705 692.534 217.71 693.982 220.271C695.429 222.794 696.171 225.689 696.208 228.955H661.44Z" fill="white"/>
<path fill-rule="evenodd" clip-rule="evenodd" d="M376.762 282.121C368.04 282.121 360.506 280.284 354.16 276.61C347.85 272.935 342.97 267.795 339.518 261.189C336.104 254.545 334.397 246.826 334.397 238.03C334.397 229.234 336.104 221.532 339.518 214.926C342.97 208.283 347.85 203.124 354.16 199.45C360.506 195.738 368.04 193.882 376.762 193.882C385.521 193.882 393.055 195.738 399.365 199.45C405.711 203.124 410.592 208.283 414.006 214.926C417.458 221.532 419.184 229.234 419.184 238.03C419.184 246.826 417.458 254.545 414.006 261.189C410.592 267.795 405.711 272.935 399.365 276.61C393.055 280.284 385.521 282.121 376.762 282.121ZM376.929 263.193C380.641 263.193 383.777 262.117 386.338 259.964C388.899 257.774 390.828 254.787 392.127 251.001C393.426 247.178 394.076 242.817 394.076 237.918C394.076 232.982 393.426 228.621 392.127 224.836C390.828 221.013 388.899 218.007 386.338 215.817C383.777 213.627 380.641 212.532 376.929 212.532C373.106 212.532 369.896 213.627 367.298 215.817C364.7 218.007 362.733 221.013 361.397 224.836C360.098 228.621 359.449 232.982 359.449 237.918C359.449 242.817 360.098 247.178 361.397 251.001C362.733 254.787 364.7 257.774 367.298 259.964C369.896 262.117 373.106 263.193 376.929 263.193Z" fill="white"/>
<path fill-rule="evenodd" clip-rule="evenodd" d="M465.374 282.121C456.652 282.121 449.118 280.284 442.772 276.61C436.462 272.935 431.582 267.795 428.13 261.189C424.716 254.545 423.008 246.826 423.008 238.03C423.008 229.234 424.716 221.532 428.13 214.926C431.582 208.283 436.462 203.124 442.772 199.45C449.118 195.738 456.652 193.882 465.374 193.882C474.133 193.882 481.667 195.738 487.977 199.45C494.323 203.124 499.204 208.283 502.618 214.926C506.07 221.532 507.796 229.234 507.796 238.03C507.796 246.826 506.07 254.545 502.618 261.189C499.204 267.795 494.323 272.935 487.977 276.61C481.667 280.284 474.133 282.121 465.374 282.121ZM465.541 263.193C469.253 263.193 472.389 262.117 474.95 259.964C477.51 257.774 479.44 254.787 480.739 251.001C482.038 247.178 482.688 242.817 482.688 237.918C482.688 232.982 482.038 228.621 480.739 224.836C479.44 221.013 477.51 218.007 474.95 215.817C472.389 213.627 469.253 212.532 465.541 212.532C461.718 212.532 458.508 213.627 455.91 215.817C453.312 218.007 451.345 221.013 450.009 224.836C448.71 228.621 448.06 232.982 448.06 237.918C448.06 242.817 448.71 247.178 450.009 251.001C451.345 254.787 453.312 257.774 455.91 259.964C458.508 262.117 461.718 263.193 465.541 263.193Z" fill="white"/>
<path fill-rule="evenodd" clip-rule="evenodd" d="M571.367 276.832C577.751 280.358 585.34 282.121 594.136 282.121C601.337 282.121 607.664 281.026 613.12 278.837C618.613 276.647 623.085 273.566 626.537 269.595C629.989 265.624 632.253 260.948 633.329 255.566L610.615 254.341C609.836 256.42 608.667 258.183 607.108 259.63C605.586 261.04 603.767 262.117 601.652 262.859C599.536 263.564 597.18 263.917 594.582 263.917C590.759 263.917 587.456 263.119 584.672 261.523C581.889 259.927 579.718 257.663 578.159 254.731C576.637 251.762 575.876 248.255 575.876 244.209V243.931H633.774V237.362C633.774 230.161 632.754 223.852 630.712 218.433C628.671 212.978 625.813 208.431 622.139 204.794C618.502 201.157 614.215 198.429 609.279 196.61C604.38 194.792 599.035 193.882 593.246 193.882C584.821 193.882 577.472 195.738 571.2 199.45C564.965 203.161 560.121 208.338 556.67 214.982C553.255 221.588 551.548 229.308 551.548 238.141C551.548 247.197 553.255 255.028 556.67 261.634C560.121 268.203 565.02 273.269 571.367 276.832ZM575.902 228.955C576.062 225.989 576.833 223.279 578.214 220.827C579.736 218.155 581.833 216.04 584.505 214.481C587.215 212.885 590.277 212.087 593.691 212.087C597.031 212.087 599.963 212.811 602.487 214.258C605.011 215.705 606.996 217.71 608.444 220.271C609.891 222.794 610.634 225.689 610.671 228.955H575.902Z" fill="white"/>
</svg>
