<svg width="310" height="386" viewBox="0 0 310 386" fill="none" xmlns="http://www.w3.org/2000/svg">
<g clip-path="url(#clip0_5260_4102)">
<path d="M0.725985 14.0955V7.48738H3.0814C3.59551 7.48738 4.02142 7.58095 4.35914 7.76809C4.69686 7.95524 4.94961 8.21121 5.11739 8.53603C5.28517 8.85869 5.36906 9.22222 5.36906 9.62662C5.36906 10.0332 5.2841 10.3989 5.11416 10.7237C4.94638 11.0463 4.69255 11.3023 4.35268 11.4916C4.01497 11.6787 3.59013 11.7723 3.07818 11.7723H1.45842V10.9269H2.98783C3.31264 10.9269 3.57615 10.871 3.77835 10.7592C3.98055 10.6451 4.12897 10.4903 4.22362 10.2945C4.31827 10.0988 4.36559 9.87614 4.36559 9.62662C4.36559 9.37709 4.31827 9.15553 4.22362 8.96194C4.12897 8.76834 3.97947 8.61669 3.77512 8.50699C3.57292 8.39728 3.30619 8.34243 2.97493 8.34243H1.723V14.0955H0.725985ZM6.09702 14.0955V9.1394H7.0295V9.92669H7.08113C7.17147 9.65996 7.33065 9.45023 7.55867 9.2975C7.78883 9.14263 8.04911 9.06519 8.3395 9.06519C8.39973 9.06519 8.47072 9.06734 8.55246 9.07164C8.63635 9.07594 8.70196 9.08132 8.74928 9.08777V10.0106C8.71056 9.99983 8.64173 9.988 8.54278 9.97509C8.44383 9.96003 8.34488 9.9525 8.24593 9.9525C8.01792 9.9525 7.81464 10.0009 7.63611 10.0977C7.45972 10.1923 7.3199 10.3246 7.21665 10.4946C7.1134 10.6624 7.06177 10.8538 7.06177 11.0689V14.0955H6.09702ZM11.1309 14.1955C10.6662 14.1955 10.2608 14.089 9.91444 13.8761C9.56812 13.6631 9.29924 13.3652 9.10779 12.9823C8.91635 12.5994 8.82062 12.152 8.82062 11.64C8.82062 11.1259 8.91635 10.6763 9.10779 10.2913C9.29924 9.90626 9.56812 9.60726 9.91444 9.3943C10.2608 9.18135 10.6662 9.07487 11.1309 9.07487C11.5955 9.07487 12.001 9.18135 12.3473 9.3943C12.6936 9.60726 12.9625 9.90626 13.1539 10.2913C13.3454 10.6763 13.4411 11.1259 13.4411 11.64C13.4411 12.152 13.3454 12.5994 13.1539 12.9823C12.9625 13.3652 12.6936 13.6631 12.3473 13.8761C12.001 14.089 11.5955 14.1955 11.1309 14.1955ZM11.1341 13.3856C11.4352 13.3856 11.6848 13.306 11.8827 13.1468C12.0806 12.9877 12.2268 12.7758 12.3215 12.5112C12.4183 12.2466 12.4667 11.9551 12.4667 11.6368C12.4667 11.3206 12.4183 11.0302 12.3215 10.7656C12.2268 10.4989 12.0806 10.2848 11.8827 10.1235C11.6848 9.96218 11.4352 9.88152 11.1341 9.88152C10.8308 9.88152 10.5791 9.96218 10.3791 10.1235C10.1812 10.2848 10.0338 10.4989 9.93703 10.7656C9.84238 11.0302 9.79506 11.3206 9.79506 11.6368C9.79506 11.9551 9.84238 12.2466 9.93703 12.5112C10.0338 12.7758 10.1812 12.9877 10.3791 13.1468C10.5791 13.306 10.8308 13.3856 11.1341 13.3856ZM14.1545 15.954V9.1394H15.0967V9.94282H15.1774C15.2333 9.83957 15.314 9.72019 15.4194 9.58467C15.5248 9.44915 15.6711 9.33085 15.8582 9.22975C16.0453 9.12649 16.2927 9.07487 16.6003 9.07487C17.0004 9.07487 17.3575 9.17597 17.6715 9.37817C17.9856 9.58037 18.2319 9.87184 18.4104 10.2526C18.5911 10.6333 18.6815 11.0915 18.6815 11.6271C18.6815 12.1627 18.5922 12.622 18.4137 13.0049C18.2351 13.3856 17.9899 13.6792 17.678 13.8857C17.3661 14.0901 17.0101 14.1923 16.61 14.1923C16.3088 14.1923 16.0625 14.1417 15.8711 14.0406C15.6818 13.9395 15.5334 13.8212 15.4258 13.6857C15.3183 13.5502 15.2355 13.4297 15.1774 13.3243H15.1193V15.954H14.1545ZM15.0999 11.6174C15.0999 11.9659 15.1505 12.2714 15.2516 12.5338C15.3527 12.7962 15.499 13.0016 15.6904 13.1501C15.8819 13.2963 16.1163 13.3695 16.3938 13.3695C16.6821 13.3695 16.923 13.2931 17.1166 13.1404C17.3102 12.9855 17.4564 12.7758 17.5554 12.5112C17.6565 12.2466 17.707 11.9487 17.707 11.6174C17.707 11.2905 17.6576 10.9968 17.5586 10.7366C17.4618 10.4763 17.3155 10.2709 17.1198 10.1203C16.9262 9.96971 16.6842 9.89442 16.3938 9.89442C16.1142 9.89442 15.8776 9.96649 15.684 10.1106C15.4925 10.2547 15.3473 10.4559 15.2484 10.714C15.1494 10.9721 15.0999 11.2733 15.0999 11.6174ZM21.4865 14.1955C21.0219 14.1955 20.6164 14.089 20.2701 13.8761C19.9238 13.6631 19.6549 13.3652 19.4635 12.9823C19.272 12.5994 19.1763 12.152 19.1763 11.64C19.1763 11.1259 19.272 10.6763 19.4635 10.2913C19.6549 9.90626 19.9238 9.60726 20.2701 9.3943C20.6164 9.18135 21.0219 9.07487 21.4865 9.07487C21.9512 9.07487 22.3567 9.18135 22.703 9.3943C23.0493 9.60726 23.3182 9.90626 23.5096 10.2913C23.7011 10.6763 23.7968 11.1259 23.7968 11.64C23.7968 12.152 23.7011 12.5994 23.5096 12.9823C23.3182 13.3652 23.0493 13.6631 22.703 13.8761C22.3567 14.089 21.9512 14.1955 21.4865 14.1955ZM21.4898 13.3856C21.7909 13.3856 22.0404 13.306 22.2383 13.1468C22.4362 12.9877 22.5825 12.7758 22.6772 12.5112C22.774 12.2466 22.8224 11.9551 22.8224 11.6368C22.8224 11.3206 22.774 11.0302 22.6772 10.7656C22.5825 10.4989 22.4362 10.2848 22.2383 10.1235C22.0404 9.96218 21.7909 9.88152 21.4898 9.88152C21.1865 9.88152 20.9348 9.96218 20.7347 10.1235C20.5369 10.2848 20.3895 10.4989 20.2927 10.7656C20.1981 11.0302 20.1507 11.3206 20.1507 11.6368C20.1507 11.9551 20.1981 12.2466 20.2927 12.5112C20.3895 12.7758 20.5369 12.9877 20.7347 13.1468C20.9348 13.306 21.1865 13.3856 21.4898 13.3856ZM28.224 10.3494L27.3496 10.5043C27.3131 10.3924 27.255 10.2859 27.1754 10.1848C27.098 10.0837 26.9926 10.0009 26.8592 9.93637C26.7258 9.87184 26.5591 9.83957 26.3591 9.83957C26.0859 9.83957 25.8579 9.90088 25.675 10.0235C25.4922 10.1439 25.4008 10.2999 25.4008 10.4913C25.4008 10.657 25.4621 10.7903 25.5847 10.8914C25.7073 10.9925 25.9052 11.0754 26.1784 11.1399L26.9657 11.3206C27.4217 11.426 27.7616 11.5884 27.9853 11.8078C28.209 12.0272 28.3208 12.3122 28.3208 12.6628C28.3208 12.9597 28.2348 13.2243 28.0627 13.4566C27.8928 13.6868 27.6551 13.8674 27.3496 13.9987C27.0463 14.1299 26.6946 14.1955 26.2945 14.1955C25.7396 14.1955 25.2868 14.0772 24.9361 13.8406C24.5855 13.6018 24.3704 13.263 24.2908 12.8242L25.2233 12.6822C25.2814 12.9253 25.4008 13.1092 25.5815 13.234C25.7621 13.3566 25.9977 13.4179 26.2881 13.4179C26.6043 13.4179 26.857 13.3523 27.0463 13.2211C27.2356 13.0877 27.3303 12.9253 27.3303 12.7338C27.3303 12.579 27.2722 12.4488 27.156 12.3434C27.042 12.238 26.8667 12.1584 26.6301 12.1046L25.7912 11.9207C25.3287 11.8153 24.9867 11.6475 24.7651 11.4174C24.5457 11.1872 24.436 10.8957 24.436 10.543C24.436 10.2504 24.5178 9.99445 24.6812 9.77504C24.8447 9.55563 25.0706 9.38462 25.3588 9.26201C25.6471 9.13725 25.9773 9.07487 26.3494 9.07487C26.885 9.07487 27.3066 9.19103 27.6142 9.42334C27.9218 9.65351 28.1251 9.96218 28.224 10.3494ZM30.4604 14.2052C30.1464 14.2052 29.8624 14.1471 29.6086 14.0309C29.3548 13.9126 29.1537 13.7416 29.0052 13.5179C28.859 13.2942 28.7858 13.0199 28.7858 12.6951C28.7858 12.4155 28.8396 12.1853 28.9472 12.0046C29.0547 11.8239 29.1999 11.6809 29.3827 11.5755C29.5656 11.4701 29.7699 11.3905 29.9958 11.3367C30.2217 11.2829 30.4518 11.2421 30.6863 11.2141C30.9831 11.1797 31.2241 11.1517 31.4091 11.1302C31.594 11.1066 31.7285 11.0689 31.8124 11.0173C31.8963 10.9657 31.9382 10.8818 31.9382 10.7656V10.743C31.9382 10.4612 31.8586 10.2429 31.6994 10.088C31.5424 9.93314 31.308 9.85571 30.996 9.85571C30.6712 9.85571 30.4153 9.92777 30.2281 10.0719C30.0431 10.2139 29.9151 10.372 29.8442 10.5462L28.9375 10.3397C29.045 10.0385 29.2021 9.79548 29.4086 9.61048C29.6172 9.42334 29.8571 9.28782 30.1281 9.20393C30.3991 9.11789 30.6841 9.07487 30.9831 9.07487C31.181 9.07487 31.3908 9.09853 31.6123 9.14585C31.836 9.19103 32.0447 9.27492 32.2383 9.39753C32.434 9.52014 32.5943 9.69545 32.7191 9.92346C32.8438 10.1493 32.9062 10.4429 32.9062 10.8043V14.0955H31.964V13.4179H31.9253C31.8629 13.5426 31.7694 13.6652 31.6446 13.7857C31.5198 13.9062 31.3596 14.0062 31.1638 14.0858C30.9681 14.1654 30.7336 14.2052 30.4604 14.2052ZM30.6702 13.4308C30.9369 13.4308 31.1649 13.3781 31.3542 13.2727C31.5456 13.1673 31.6908 13.0296 31.7898 12.8597C31.8909 12.6876 31.9414 12.5037 31.9414 12.3079V11.6691C31.907 11.7035 31.8403 11.7357 31.7414 11.7659C31.6446 11.7938 31.5338 11.8186 31.4091 11.8401C31.2843 11.8594 31.1628 11.8777 31.0444 11.8949C30.9261 11.91 30.8272 11.9229 30.7476 11.9336C30.5605 11.9573 30.3894 11.9971 30.2346 12.053C30.0818 12.1089 29.9592 12.1896 29.8667 12.295C29.7764 12.3983 29.7312 12.5359 29.7312 12.708C29.7312 12.9468 29.8194 13.1275 29.9958 13.2501C30.1722 13.3705 30.397 13.4308 30.6702 13.4308ZM34.7925 7.48738V14.0955H33.8277V7.48738H34.7925ZM43.5857 10.7914C43.5857 11.497 43.4566 12.1036 43.1985 12.6112C42.9404 13.1167 42.5865 13.5061 42.137 13.7793C41.6895 14.0503 41.1808 14.1858 40.6108 14.1858C40.0386 14.1858 39.5277 14.0503 39.0781 13.7793C38.6307 13.5061 38.2779 13.1156 38.0198 12.608C37.7617 12.1003 37.6326 11.4948 37.6326 10.7914C37.6326 10.0859 37.7617 9.48034 38.0198 8.97484C38.2779 8.46719 38.6307 8.07785 39.0781 7.80681C39.5277 7.53363 40.0386 7.39704 40.6108 7.39704C41.1808 7.39704 41.6895 7.53363 42.137 7.80681C42.5865 8.07785 42.9404 8.46719 43.1985 8.97484C43.4566 9.48034 43.5857 10.0859 43.5857 10.7914ZM42.5984 10.7914C42.5984 10.2537 42.5112 9.80085 42.337 9.43302C42.1649 9.06304 41.9283 8.7834 41.6271 8.5941C41.3281 8.40266 40.9894 8.30694 40.6108 8.30694C40.23 8.30694 39.8902 8.40266 39.5912 8.5941C39.2922 8.7834 39.0555 9.06304 38.8813 9.43302C38.7092 9.80085 38.6232 10.2537 38.6232 10.7914C38.6232 11.3292 38.7092 11.7831 38.8813 12.153C39.0555 12.5209 39.2922 12.8005 39.5912 12.992C39.8902 13.1813 40.23 13.2759 40.6108 13.2759C40.9894 13.2759 41.3281 13.1813 41.6271 12.992C41.9283 12.8005 42.1649 12.5209 42.337 12.153C42.5112 11.7831 42.5984 11.3292 42.5984 10.7914ZM45.3526 11.1528V14.0955H44.3879V9.1394H45.3139V9.94605H45.3752C45.4892 9.68362 45.6677 9.47282 45.9108 9.31364C46.156 9.15446 46.4647 9.07487 46.8369 9.07487C47.1746 9.07487 47.4703 9.14585 47.7242 9.28782C47.978 9.42764 48.1748 9.6363 48.3146 9.91378C48.4545 10.1913 48.5244 10.5344 48.5244 10.9431V14.0955H47.5596V11.0592C47.5596 10.7 47.466 10.4193 47.2789 10.2171C47.0918 10.0127 46.8347 9.91056 46.5077 9.91056C46.284 9.91056 46.0851 9.95896 45.9108 10.0558C45.7387 10.1526 45.6021 10.2945 45.501 10.4817C45.4021 10.6667 45.3526 10.8904 45.3526 11.1528ZM51.5908 14.1955C51.1025 14.1955 50.682 14.0912 50.3292 13.8825C49.9786 13.6717 49.7075 13.3759 49.5161 12.9952C49.3268 12.6123 49.2322 12.1638 49.2322 11.6497C49.2322 11.142 49.3268 10.6946 49.5161 10.3074C49.7075 9.92024 49.9743 9.61801 50.3163 9.40075C50.6605 9.1835 51.0627 9.07487 51.523 9.07487C51.8027 9.07487 52.0737 9.12112 52.3361 9.21361C52.5986 9.30611 52.8341 9.45131 53.0428 9.6492C53.2514 9.8471 53.416 10.1042 53.5364 10.4204C53.6569 10.7344 53.7171 11.1162 53.7171 11.5658V11.9078H49.7774V11.1851H52.7717C52.7717 10.9312 52.7201 10.7065 52.6169 10.5107C52.5136 10.3128 52.3684 10.1569 52.1813 10.0428C51.9963 9.92884 51.779 9.87184 51.5295 9.87184C51.2585 9.87184 51.0218 9.93852 50.8196 10.0719C50.6196 10.2031 50.4647 10.3752 50.355 10.5881C50.2475 10.7989 50.1937 11.028 50.1937 11.2754V11.8401C50.1937 12.1713 50.2518 12.4531 50.3679 12.6854C50.4862 12.9177 50.6508 13.0952 50.8616 13.2178C51.0724 13.3383 51.3187 13.3985 51.6005 13.3985C51.7833 13.3985 51.95 13.3727 52.1006 13.3211C52.2512 13.2673 52.3813 13.1877 52.491 13.0823C52.6007 12.9769 52.6846 12.8468 52.7427 12.6919L53.6558 12.8564C53.5827 13.1253 53.4515 13.3609 53.2622 13.5631C53.075 13.7631 52.8395 13.9191 52.5556 14.0309C52.2738 14.1406 51.9522 14.1955 51.5908 14.1955Z" fill="#1F2937"/>
<path d="M77.7083 73.4919L71.222 63.8052L68.1496 66.835V73.4919H62.4314V42.3407H68.1496V61.2448L77.1109 51.174H83.2131L74.8919 60.6474L83.8105 73.4919H77.7083ZM93.6797 73.9187C91.8589 73.9187 90.2231 73.6057 88.7723 72.9799C87.3214 72.354 86.0839 71.5148 85.0597 70.4622C84.064 69.3811 83.2959 68.1436 82.7554 66.7496C82.2149 65.3556 81.9446 63.8905 81.9446 62.3543C81.9446 60.7896 82.2149 59.3103 82.7554 57.9163C83.2959 56.5224 84.064 55.2991 85.0597 54.2465C86.0839 53.1654 87.3214 52.312 88.7723 51.6861C90.2231 51.0602 91.8589 50.7473 93.6797 50.7473C95.5004 50.7473 97.1219 51.0602 98.5444 51.6861C99.9952 52.312 101.219 53.1654 102.214 54.2465C103.238 55.2991 104.021 56.5224 104.561 57.9163C105.102 59.3103 105.372 60.7896 105.372 62.3543C105.372 63.8905 105.102 65.3556 104.561 66.7496C104.021 68.1436 103.253 69.3811 102.257 70.4622C101.261 71.5148 100.038 72.354 98.587 72.9799C97.1362 73.6057 95.5004 73.9187 93.6797 73.9187ZM87.8335 62.3543C87.8335 63.35 87.9757 64.2604 88.2602 65.0854C88.5731 65.8819 88.9856 66.5789 89.4977 67.1764C90.0382 67.7738 90.6641 68.2432 91.3753 68.5846C92.0865 68.8975 92.8546 69.054 93.6797 69.054C94.5047 69.054 95.2728 68.8975 95.984 68.5846C96.6952 68.2432 97.3068 67.7738 97.8189 67.1764C98.3594 66.5789 98.772 65.8677 99.0564 65.0427C99.3694 64.2177 99.5258 63.3073 99.5258 62.3116C99.5258 61.3444 99.3694 60.4483 99.0564 59.6232C98.772 58.7982 98.3594 58.087 97.8189 57.4896C97.3068 56.8922 96.6952 56.437 95.984 56.1241C95.2728 55.7827 94.5047 55.612 93.6797 55.612C92.8546 55.612 92.0865 55.7827 91.3753 56.1241C90.6641 56.4655 90.0382 56.9349 89.4977 57.5323C88.9856 58.1297 88.5731 58.8409 88.2602 59.6659C87.9757 60.4909 87.8335 61.3871 87.8335 62.3543ZM117.852 73.9187C116.031 73.9187 114.395 73.6057 112.944 72.9799C111.493 72.354 110.256 71.5148 109.232 70.4622C108.236 69.3811 107.468 68.1436 106.927 66.7496C106.387 65.3556 106.116 63.8905 106.116 62.3543C106.116 60.7896 106.387 59.3103 106.927 57.9163C107.468 56.5224 108.236 55.2991 109.232 54.2465C110.256 53.1654 111.493 52.312 112.944 51.6861C114.395 51.0602 116.031 50.7473 117.852 50.7473C119.672 50.7473 121.294 51.0602 122.716 51.6861C124.167 52.312 125.39 53.1654 126.386 54.2465C127.41 55.2991 128.193 56.5224 128.733 57.9163C129.274 59.3103 129.544 60.7896 129.544 62.3543C129.544 63.8905 129.274 65.3556 128.733 66.7496C128.193 68.1436 127.424 69.3811 126.429 70.4622C125.433 71.5148 124.21 72.354 122.759 72.9799C121.308 73.6057 119.672 73.9187 117.852 73.9187ZM112.005 62.3543C112.005 63.35 112.148 64.2604 112.432 65.0854C112.745 65.8819 113.157 66.5789 113.67 67.1764C114.21 67.7738 114.836 68.2432 115.547 68.5846C116.258 68.8975 117.027 69.054 117.852 69.054C118.677 69.054 119.445 68.8975 120.156 68.5846C120.867 68.2432 121.479 67.7738 121.991 67.1764C122.531 66.5789 122.944 65.8677 123.228 65.0427C123.541 64.2177 123.698 63.3073 123.698 62.3116C123.698 61.3444 123.541 60.4483 123.228 59.6232C122.944 58.7982 122.531 58.087 121.991 57.4896C121.479 56.8922 120.867 56.437 120.156 56.1241C119.445 55.7827 118.677 55.612 117.852 55.612C117.027 55.612 116.258 55.7827 115.547 56.1241C114.836 56.4655 114.21 56.9349 113.67 57.5323C113.157 58.1297 112.745 58.8409 112.432 59.6659C112.148 60.4909 112.005 61.3871 112.005 62.3543ZM131.654 42.3407H137.372V66.3229C137.372 67.1479 137.571 67.788 137.969 68.2432C138.368 68.6984 138.937 68.9259 139.676 68.9259C140.018 68.9259 140.388 68.869 140.786 68.7553C141.213 68.6415 141.611 68.4992 141.981 68.3285L142.749 72.6812C141.981 73.051 141.085 73.3355 140.06 73.5346C139.036 73.7338 138.112 73.8333 137.287 73.8333C135.494 73.8333 134.1 73.3639 133.105 72.4251C132.137 71.4579 131.654 70.0923 131.654 68.3285V42.3407ZM153.903 73.9187C152.111 73.9187 150.489 73.62 149.038 73.0225C147.587 72.3967 146.35 71.5574 145.326 70.5048C144.301 69.4522 143.505 68.229 142.936 66.835C142.395 65.441 142.125 63.9759 142.125 62.4397C142.125 60.8465 142.395 59.353 142.936 57.959C143.476 56.5366 144.259 55.2991 145.283 54.2465C146.307 53.1654 147.545 52.312 148.995 51.6861C150.475 51.0602 152.125 50.7473 153.945 50.7473C155.766 50.7473 157.388 51.0602 158.81 51.6861C160.261 52.312 161.484 53.1512 162.48 54.2038C163.504 55.2564 164.272 56.4797 164.784 57.8737C165.325 59.2676 165.595 60.7185 165.595 62.2263C165.595 62.5961 165.581 62.9517 165.552 63.2931C165.552 63.6345 165.524 63.919 165.467 64.1466H148.185C148.27 65.0285 148.483 65.8108 148.825 66.4936C149.166 67.1764 149.607 67.7595 150.148 68.2432C150.688 68.7268 151.3 69.0966 151.983 69.3527C152.665 69.6087 153.376 69.7367 154.116 69.7367C155.254 69.7367 156.321 69.4665 157.317 68.9259C158.341 68.357 159.038 67.6173 159.408 66.707L164.315 68.0725C163.49 69.7794 162.167 71.1876 160.346 72.2971C158.554 73.3781 156.406 73.9187 153.903 73.9187ZM159.706 60.434C159.564 58.7556 158.938 57.4185 157.829 56.4228C156.748 55.3986 155.425 54.8866 153.86 54.8866C153.092 54.8866 152.367 55.0288 151.684 55.3133C151.029 55.5693 150.446 55.9392 149.934 56.4228C149.422 56.9064 148.995 57.4896 148.654 58.1724C148.341 58.8551 148.156 59.609 148.099 60.434H159.706ZM177.741 73.9187C175.949 73.9187 174.327 73.62 172.877 73.0225C171.426 72.3967 170.188 71.5574 169.164 70.5048C168.14 69.4522 167.343 68.229 166.774 66.835C166.234 65.441 165.964 63.9759 165.964 62.4397C165.964 60.8465 166.234 59.353 166.774 57.959C167.315 56.5366 168.097 55.2991 169.121 54.2465C170.145 53.1654 171.383 52.312 172.834 51.6861C174.313 51.0602 175.963 50.7473 177.784 50.7473C179.605 50.7473 181.226 51.0602 182.649 51.6861C184.1 52.312 185.323 53.1512 186.319 54.2038C187.343 55.2564 188.111 56.4797 188.623 57.8737C189.163 59.2676 189.434 60.7185 189.434 62.2263C189.434 62.5961 189.419 62.9517 189.391 63.2931C189.391 63.6345 189.363 63.919 189.306 64.1466H172.023C172.108 65.0285 172.322 65.8108 172.663 66.4936C173.005 67.1764 173.446 67.7595 173.986 68.2432C174.527 68.7268 175.138 69.0966 175.821 69.3527C176.504 69.6087 177.215 69.7367 177.955 69.7367C179.093 69.7367 180.159 69.4665 181.155 68.9259C182.179 68.357 182.876 67.6173 183.246 66.707L188.153 68.0725C187.328 69.7794 186.006 71.1876 184.185 72.2971C182.393 73.3781 180.245 73.9187 177.741 73.9187ZM183.545 60.434C183.403 58.7556 182.777 57.4185 181.667 56.4228C180.586 55.3986 179.263 54.8866 177.699 54.8866C176.93 54.8866 176.205 55.0288 175.522 55.3133C174.868 55.5693 174.285 55.9392 173.773 56.4228C173.261 56.9064 172.834 57.4896 172.493 58.1724C172.18 58.8551 171.995 59.609 171.938 60.434H183.545Z" fill="#4338CA"/>
<path d="M0 56.6901C0 36.0834 4.41662 31.6667 25.0233 31.6667C45.63 31.6667 50.0466 36.0834 50.0466 56.6901C50.0466 77.2968 45.63 81.7134 25.0233 81.7134C4.41662 81.7134 0 77.2968 0 56.6901Z" fill="#4338CA"/>
<path d="M37.8134 43.6468V55.0914C37.8134 55.4405 37.3448 55.5546 37.1843 55.2447C35.9535 52.8681 33.958 50.9754 31.5197 49.8718L30.4963 49.4086C30.2854 49.3132 30.2236 49.0429 30.372 48.8653L35.4495 42.7891C36.2511 41.8298 37.8134 42.3967 37.8134 43.6468Z" fill="white"/>
<path d="M12.2318 44.223V55.2784C12.2318 55.5797 12.6363 55.6783 12.7749 55.4107C14.0614 52.9266 16.1472 50.9482 18.6958 49.7948L19.5489 49.4086C19.7598 49.3132 19.8216 49.0429 19.6732 48.8653L14.9652 43.2312C14.0383 42.122 12.2318 42.7775 12.2318 44.223Z" fill="white"/>
<path fill-rule="evenodd" clip-rule="evenodd" d="M27.916 52.4598C28.2245 51.9043 28.376 51.2632 28.2418 50.6421C28.0926 49.9514 27.6306 49.3501 26.9496 49.1618C25.6916 48.8139 24.3619 48.8136 23.1039 49.161C22.421 49.3496 21.9578 49.9525 21.8082 50.645C21.6725 51.2731 21.8288 51.9209 22.1415 52.4823C22.2707 52.7142 22.3886 52.9533 22.4953 53.1995C22.9469 54.2419 23.1727 55.3481 23.1727 56.5181C23.1727 57.6669 22.9469 58.7624 22.4953 59.8048C22.0437 60.8472 21.4019 61.7726 20.57 62.581C19.6485 63.4529 18.8209 64.4718 18.5529 65.7119L18.4502 66.1874C17.932 68.586 19.0353 71.0425 21.1724 72.2485L21.7953 72.6C23.8001 73.7313 26.2506 73.7313 28.2553 72.6L28.8704 72.2529C31.0122 71.0443 32.1179 68.5824 31.5985 66.1786L31.4918 65.6848C31.2254 64.4514 30.4058 63.4352 29.4771 62.581C28.6452 61.7726 28.0035 60.8472 27.5519 59.8048C27.1003 58.7624 26.8744 57.6668 26.8744 56.518C26.8744 55.348 27.1003 54.2418 27.5519 53.1994C27.6619 52.9453 27.7833 52.6988 27.916 52.4598Z" fill="white"/>
<path d="M21.158 68.6256C21.158 67.2027 22.3114 66.0493 23.7342 66.0493H26.2985C27.7213 66.0493 28.8748 67.2027 28.8748 68.6256C28.8748 69.3386 28.5793 70.0197 28.0587 70.5068L27.6525 70.8868C26.1691 72.2747 23.8636 72.2747 22.3802 70.8868L21.9741 70.5068C21.4534 70.0197 21.158 69.3386 21.158 68.6256Z" fill="#818CF8"/>
<path d="M0.726229 106.713V100.105H3.08165C3.59575 100.105 4.02166 100.199 4.35938 100.386C4.6971 100.573 4.94985 100.829 5.11763 101.154C5.28542 101.477 5.36931 101.84 5.36931 102.245C5.36931 102.651 5.28434 103.017 5.11441 103.342C4.94662 103.664 4.6928 103.92 4.35293 104.11C4.01521 104.297 3.59038 104.39 3.07842 104.39H1.45867V103.545H2.98808C3.31289 103.545 3.57639 103.489 3.77859 103.377C3.98079 103.263 4.12922 103.108 4.22386 102.912C4.31851 102.717 4.36583 102.494 4.36583 102.245C4.36583 101.995 4.31851 101.773 4.22386 101.58C4.12922 101.386 3.97972 101.235 3.77537 101.125C3.57317 101.015 3.30643 100.96 2.97517 100.96H1.72325V106.713H0.726229ZM6.09726 106.713V101.757H7.02975V102.545H7.08137C7.17172 102.278 7.3309 102.068 7.55891 101.915C7.78908 101.761 8.04935 101.683 8.33975 101.683C8.39998 101.683 8.47096 101.685 8.5527 101.69C8.6366 101.694 8.7022 101.699 8.74953 101.706V102.629C8.71081 102.618 8.64197 102.606 8.54302 102.593C8.44408 102.578 8.34513 102.57 8.24618 102.57C8.01816 102.57 7.81489 102.619 7.63635 102.716C7.45996 102.81 7.32014 102.943 7.21689 103.112C7.11364 103.28 7.06201 103.472 7.06201 103.687V106.713H6.09726ZM11.1311 106.813C10.6665 106.813 10.261 106.707 9.91468 106.494C9.56836 106.281 9.29948 105.983 9.10803 105.6C8.91659 105.217 8.82087 104.77 8.82087 104.258C8.82087 103.744 8.91659 103.294 9.10803 102.909C9.29948 102.524 9.56836 102.225 9.91468 102.012C10.261 101.799 10.6665 101.693 11.1311 101.693C11.5957 101.693 12.0012 101.799 12.3475 102.012C12.6939 102.225 12.9627 102.524 13.1542 102.909C13.3456 103.294 13.4414 103.744 13.4414 104.258C13.4414 104.77 13.3456 105.217 13.1542 105.6C12.9627 105.983 12.6939 106.281 12.3475 106.494C12.0012 106.707 11.5957 106.813 11.1311 106.813ZM11.1343 106.004C11.4355 106.004 11.685 105.924 11.8829 105.765C12.0808 105.606 12.2271 105.394 12.3217 105.129C12.4185 104.865 12.4669 104.573 12.4669 104.255C12.4669 103.939 12.4185 103.648 12.3217 103.384C12.2271 103.117 12.0808 102.903 11.8829 102.741C11.685 102.58 11.4355 102.499 11.1343 102.499C10.831 102.499 10.5794 102.58 10.3793 102.741C10.1814 102.903 10.0341 103.117 9.93727 103.384C9.84262 103.648 9.7953 103.939 9.7953 104.255C9.7953 104.573 9.84262 104.865 9.93727 105.129C10.0341 105.394 10.1814 105.606 10.3793 105.765C10.5794 105.924 10.831 106.004 11.1343 106.004ZM14.1548 108.572V101.757H15.097V102.561H15.1776C15.2336 102.457 15.3142 102.338 15.4196 102.203C15.525 102.067 15.6713 101.949 15.8584 101.848C16.0456 101.744 16.293 101.693 16.6006 101.693C17.0007 101.693 17.3577 101.794 17.6718 101.996C17.9858 102.198 18.2321 102.49 18.4107 102.87C18.5914 103.251 18.6817 103.709 18.6817 104.245C18.6817 104.781 18.5924 105.24 18.4139 105.623C18.2354 106.004 17.9901 106.297 17.6782 106.504C17.3663 106.708 17.0103 106.81 16.6102 106.81C16.3091 106.81 16.0628 106.76 15.8713 106.659C15.682 106.557 15.5336 106.439 15.4261 106.304C15.3185 106.168 15.2357 106.048 15.1776 105.942H15.1195V108.572H14.1548ZM15.1002 104.235C15.1002 104.584 15.1507 104.889 15.2518 105.152C15.3529 105.414 15.4992 105.62 15.6907 105.768C15.8821 105.914 16.1166 105.987 16.3941 105.987C16.6823 105.987 16.9232 105.911 17.1168 105.758C17.3104 105.603 17.4567 105.394 17.5556 105.129C17.6567 104.865 17.7073 104.567 17.7073 104.235C17.7073 103.908 17.6578 103.615 17.5589 103.354C17.4621 103.094 17.3158 102.889 17.12 102.738C16.9264 102.588 16.6844 102.512 16.3941 102.512C16.1144 102.512 15.8778 102.584 15.6842 102.729C15.4928 102.873 15.3476 103.074 15.2486 103.332C15.1497 103.59 15.1002 103.891 15.1002 104.235ZM21.4868 106.813C21.0222 106.813 20.6167 106.707 20.2704 106.494C19.924 106.281 19.6552 105.983 19.4637 105.6C19.2723 105.217 19.1765 104.77 19.1765 104.258C19.1765 103.744 19.2723 103.294 19.4637 102.909C19.6552 102.524 19.924 102.225 20.2704 102.012C20.6167 101.799 21.0222 101.693 21.4868 101.693C21.9514 101.693 22.3569 101.799 22.7032 102.012C23.0495 102.225 23.3184 102.524 23.5099 102.909C23.7013 103.294 23.797 103.744 23.797 104.258C23.797 104.77 23.7013 105.217 23.5099 105.6C23.3184 105.983 23.0495 106.281 22.7032 106.494C22.3569 106.707 21.9514 106.813 21.4868 106.813ZM21.49 106.004C21.7912 106.004 22.0407 105.924 22.2386 105.765C22.4365 105.606 22.5828 105.394 22.6774 105.129C22.7742 104.865 22.8226 104.573 22.8226 104.255C22.8226 103.939 22.7742 103.648 22.6774 103.384C22.5828 103.117 22.4365 102.903 22.2386 102.741C22.0407 102.58 21.7912 102.499 21.49 102.499C21.1867 102.499 20.935 102.58 20.735 102.741C20.5371 102.903 20.3897 103.117 20.2929 103.384C20.1983 103.648 20.151 103.939 20.151 104.255C20.151 104.573 20.1983 104.865 20.2929 105.129C20.3897 105.394 20.5371 105.606 20.735 105.765C20.935 105.924 21.1867 106.004 21.49 106.004ZM28.2243 102.967L27.3499 103.122C27.3133 103.01 27.2552 102.904 27.1756 102.803C27.0982 102.702 26.9928 102.619 26.8594 102.554C26.7261 102.49 26.5594 102.457 26.3593 102.457C26.0861 102.457 25.8581 102.519 25.6753 102.641C25.4924 102.762 25.401 102.918 25.401 103.109C25.401 103.275 25.4623 103.408 25.5849 103.509C25.7075 103.61 25.9054 103.693 26.1786 103.758L26.9659 103.939C27.4219 104.044 27.7618 104.206 27.9855 104.426C28.2092 104.645 28.3211 104.93 28.3211 105.281C28.3211 105.578 28.235 105.842 28.063 106.075C27.893 106.305 27.6553 106.485 27.3499 106.617C27.0466 106.748 26.6949 106.813 26.2948 106.813C25.7398 106.813 25.287 106.695 24.9364 106.458C24.5858 106.22 24.3707 105.881 24.2911 105.442L25.2235 105.3C25.2816 105.543 25.401 105.727 25.5817 105.852C25.7624 105.974 25.9979 106.036 26.2883 106.036C26.6045 106.036 26.8573 105.97 27.0466 105.839C27.2359 105.706 27.3305 105.543 27.3305 105.352C27.3305 105.197 27.2724 105.067 27.1563 104.961C27.0423 104.856 26.867 104.776 26.6303 104.723L25.7914 104.539C25.329 104.433 24.9869 104.265 24.7654 104.035C24.546 103.805 24.4363 103.514 24.4363 103.161C24.4363 102.868 24.518 102.612 24.6815 102.393C24.845 102.174 25.0708 102.003 25.3591 101.88C25.6473 101.755 25.9775 101.693 26.3496 101.693C26.8852 101.693 27.3069 101.809 27.6145 102.041C27.9221 102.271 28.1253 102.58 28.2243 102.967ZM30.4607 106.823C30.1466 106.823 29.8627 106.765 29.6089 106.649C29.355 106.531 29.1539 106.36 29.0055 106.136C28.8592 105.912 28.7861 105.638 28.7861 105.313C28.7861 105.033 28.8398 104.803 28.9474 104.623C29.055 104.442 29.2002 104.299 29.383 104.193C29.5658 104.088 29.7702 104.008 29.996 103.955C30.2219 103.901 30.4521 103.86 30.6865 103.832C30.9834 103.798 31.2243 103.77 31.4093 103.748C31.5943 103.724 31.7287 103.687 31.8126 103.635C31.8965 103.584 31.9385 103.5 31.9385 103.384V103.361C31.9385 103.079 31.8589 102.861 31.6997 102.706C31.5427 102.551 31.3082 102.474 30.9963 102.474C30.6715 102.474 30.4155 102.546 30.2284 102.69C30.0434 102.832 29.9154 102.99 29.8444 103.164L28.9377 102.958C29.0453 102.656 29.2023 102.413 29.4088 102.228C29.6175 102.041 29.8573 101.906 30.1283 101.822C30.3994 101.736 30.6844 101.693 30.9834 101.693C31.1813 101.693 31.391 101.716 31.6126 101.764C31.8363 101.809 32.0449 101.893 32.2385 102.015C32.4343 102.138 32.5945 102.313 32.7193 102.541C32.8441 102.767 32.9064 103.061 32.9064 103.422V106.713H31.9643V106.036H31.9256C31.8632 106.161 31.7696 106.283 31.6448 106.404C31.5201 106.524 31.3598 106.624 31.1641 106.704C30.9683 106.783 30.7339 106.823 30.4607 106.823ZM30.6704 106.049C30.9371 106.049 31.1652 105.996 31.3544 105.891C31.5459 105.785 31.6911 105.648 31.79 105.478C31.8911 105.306 31.9417 105.122 31.9417 104.926V104.287C31.9073 104.321 31.8406 104.354 31.7416 104.384C31.6448 104.412 31.5341 104.436 31.4093 104.458C31.2845 104.477 31.163 104.496 31.0447 104.513C30.9264 104.528 30.8274 104.541 30.7478 104.552C30.5607 104.575 30.3897 104.615 30.2348 104.671C30.0821 104.727 29.9595 104.808 29.867 104.913C29.7766 105.016 29.7315 105.154 29.7315 105.326C29.7315 105.565 29.8197 105.745 29.996 105.868C30.1724 105.988 30.3972 106.049 30.6704 106.049ZM34.7927 100.105V106.713H33.828V100.105H34.7927ZM37.5199 100.964V100.105H42.6341V100.964H40.5723V106.713H39.5785V100.964H37.5199ZM43.8299 106.713L42.3715 101.757H43.3685L44.3397 105.397H44.3881L45.3625 101.757H46.3596L47.3275 105.381H47.3759L48.3407 101.757H49.3377L47.8825 106.713H46.8984L45.8917 103.135H45.8175L44.8108 106.713H43.8299ZM51.8266 106.813C51.362 106.813 50.9565 106.707 50.6102 106.494C50.2638 106.281 49.9949 105.983 49.8035 105.6C49.6121 105.217 49.5163 104.77 49.5163 104.258C49.5163 103.744 49.6121 103.294 49.8035 102.909C49.9949 102.524 50.2638 102.225 50.6102 102.012C50.9565 101.799 51.362 101.693 51.8266 101.693C52.2912 101.693 52.6967 101.799 53.043 102.012C53.3893 102.225 53.6582 102.524 53.8497 102.909C54.0411 103.294 54.1368 103.744 54.1368 104.258C54.1368 104.77 54.0411 105.217 53.8497 105.6C53.6582 105.983 53.3893 106.281 53.043 106.494C52.6967 106.707 52.2912 106.813 51.8266 106.813ZM51.8298 106.004C52.131 106.004 52.3805 105.924 52.5784 105.765C52.7763 105.606 52.9225 105.394 53.0172 105.129C53.114 104.865 53.1624 104.573 53.1624 104.255C53.1624 103.939 53.114 103.648 53.0172 103.384C52.9225 103.117 52.7763 102.903 52.5784 102.741C52.3805 102.58 52.131 102.499 51.8298 102.499C51.5265 102.499 51.2748 102.58 51.0748 102.741C50.8769 102.903 50.7295 103.117 50.6327 103.384C50.5381 103.648 50.4908 103.939 50.4908 104.255C50.4908 104.573 50.5381 104.865 50.6327 105.129C50.7295 105.394 50.8769 105.606 51.0748 105.765C51.2748 105.924 51.5265 106.004 51.8298 106.004Z" fill="#1F2937"/>
<path d="M88.7246 166.405C89.1288 166.836 89.3309 167.308 89.3309 167.82C89.3309 168.358 89.1153 168.817 88.6842 169.194C88.2801 169.544 87.849 169.719 87.3909 169.719C86.7982 169.719 86.3267 169.504 85.9764 169.072L78.0147 160.626L75.5898 162.808V167.82C75.5898 168.358 75.4012 168.817 75.024 169.194C74.6737 169.571 74.2292 169.76 73.6903 169.76C73.1245 169.76 72.653 169.571 72.2758 169.194C71.9255 168.817 71.7504 168.358 71.7504 167.82V141.792C71.7504 141.254 71.9255 140.796 72.2758 140.418C72.653 140.041 73.1245 139.853 73.6903 139.853C74.2292 139.853 74.6737 140.041 75.024 140.418C75.4012 140.796 75.5898 141.254 75.5898 141.792V158.201L85.4914 149.108C85.9495 148.703 86.421 148.501 86.906 148.501C87.364 148.501 87.7816 148.703 88.1588 149.108C88.536 149.485 88.7246 149.889 88.7246 150.32C88.7246 150.859 88.4687 151.344 87.9568 151.775L80.965 157.999L88.7246 166.405ZM112.983 159.171C112.983 161.272 112.511 163.158 111.568 164.829C110.625 166.499 109.332 167.806 107.688 168.749C106.072 169.692 104.28 170.164 102.313 170.164C100.346 170.164 98.5411 169.692 96.8976 168.749C95.281 167.806 94.0012 166.499 93.0582 164.829C92.1152 163.158 91.6437 161.272 91.6437 159.171C91.6437 157.069 92.1152 155.17 93.0582 153.472C94.0012 151.775 95.281 150.455 96.8976 149.512C98.5411 148.569 100.346 148.097 102.313 148.097C104.28 148.097 106.072 148.569 107.688 149.512C109.332 150.455 110.625 151.775 111.568 153.472C112.511 155.17 112.983 157.069 112.983 159.171ZM109.143 159.171C109.143 157.716 108.833 156.423 108.214 155.291C107.621 154.132 106.799 153.243 105.748 152.624C104.725 151.977 103.58 151.654 102.313 151.654C101.047 151.654 99.8883 151.977 98.8375 152.624C97.8137 153.243 96.9919 154.132 96.3722 155.291C95.7794 156.423 95.4831 157.716 95.4831 159.171C95.4831 160.599 95.7794 161.879 96.3722 163.01C96.9919 164.142 97.8137 165.031 98.8375 165.678C99.8883 166.297 101.047 166.607 102.313 166.607C103.58 166.607 104.725 166.297 105.748 165.678C106.799 165.031 107.621 164.142 108.214 163.01C108.833 161.879 109.143 160.599 109.143 159.171ZM137.492 159.171C137.492 161.272 137.021 163.158 136.078 164.829C135.135 166.499 133.841 167.806 132.198 168.749C130.581 169.692 128.789 170.164 126.823 170.164C124.856 170.164 123.051 169.692 121.407 168.749C119.79 167.806 118.511 166.499 117.568 164.829C116.625 163.158 116.153 161.272 116.153 159.171C116.153 157.069 116.625 155.17 117.568 153.472C118.511 151.775 119.79 150.455 121.407 149.512C123.051 148.569 124.856 148.097 126.823 148.097C128.789 148.097 130.581 148.569 132.198 149.512C133.841 150.455 135.135 151.775 136.078 153.472C137.021 155.17 137.492 157.069 137.492 159.171ZM133.653 159.171C133.653 157.716 133.343 156.423 132.723 155.291C132.13 154.132 131.309 153.243 130.258 152.624C129.234 151.977 128.089 151.654 126.823 151.654C125.556 151.654 124.398 151.977 123.347 152.624C122.323 153.243 121.501 154.132 120.882 155.291C120.289 156.423 119.992 157.716 119.992 159.171C119.992 160.599 120.289 161.879 120.882 163.01C121.501 164.142 122.323 165.031 123.347 165.678C124.398 166.297 125.556 166.607 126.823 166.607C128.089 166.607 129.234 166.297 130.258 165.678C131.309 165.031 132.13 164.142 132.723 163.01C133.343 161.879 133.653 160.599 133.653 159.171ZM146.118 167.82C146.118 168.358 145.93 168.817 145.553 169.194C145.175 169.571 144.717 169.76 144.179 169.76C143.64 169.76 143.182 169.571 142.804 169.194C142.454 168.817 142.279 168.358 142.279 167.82V141.792C142.279 141.254 142.468 140.796 142.845 140.418C143.222 140.041 143.68 139.853 144.219 139.853C144.758 139.853 145.202 140.041 145.553 140.418C145.93 140.796 146.118 141.254 146.118 141.792V167.82ZM170.374 158.363C170.347 158.848 170.145 159.265 169.768 159.615C169.391 159.939 168.946 160.1 168.434 160.1H154.208C154.397 162.067 155.138 163.643 156.431 164.829C157.751 166.014 159.354 166.607 161.24 166.607C162.534 166.607 163.584 166.419 164.393 166.041C165.201 165.664 165.915 165.179 166.535 164.586C166.939 164.344 167.329 164.223 167.707 164.223C168.165 164.223 168.542 164.384 168.838 164.708C169.162 165.031 169.323 165.408 169.323 165.839C169.323 166.405 169.054 166.917 168.515 167.375C167.734 168.156 166.696 168.817 165.403 169.355C164.11 169.894 162.789 170.164 161.442 170.164C159.26 170.164 157.333 169.706 155.663 168.79C154.019 167.873 152.74 166.594 151.824 164.95C150.934 163.307 150.49 161.448 150.49 159.373C150.49 157.11 150.948 155.129 151.864 153.432C152.807 151.708 154.033 150.387 155.542 149.471C157.078 148.555 158.721 148.097 160.472 148.097C162.197 148.097 163.813 148.542 165.322 149.431C166.831 150.32 168.043 151.546 168.959 153.109C169.876 154.671 170.347 156.423 170.374 158.363ZM160.472 151.654C158.964 151.654 157.657 152.085 156.552 152.947C155.447 153.782 154.72 155.089 154.37 156.867H166.292V156.544C166.157 155.116 165.511 153.944 164.352 153.028C163.221 152.112 161.927 151.654 160.472 151.654ZM193.423 158.363C193.396 158.848 193.194 159.265 192.817 159.615C192.44 159.939 191.995 160.1 191.483 160.1H177.257C177.446 162.067 178.187 163.643 179.48 164.829C180.8 166.014 182.403 166.607 184.289 166.607C185.583 166.607 186.633 166.419 187.442 166.041C188.25 165.664 188.964 165.179 189.584 164.586C189.988 164.344 190.379 164.223 190.756 164.223C191.214 164.223 191.591 164.384 191.887 164.708C192.211 165.031 192.372 165.408 192.372 165.839C192.372 166.405 192.103 166.917 191.564 167.375C190.783 168.156 189.745 168.817 188.452 169.355C187.159 169.894 185.839 170.164 184.491 170.164C182.309 170.164 180.383 169.706 178.712 168.79C177.069 167.873 175.789 166.594 174.873 164.95C173.984 163.307 173.539 161.448 173.539 159.373C173.539 157.11 173.997 155.129 174.913 153.432C175.856 151.708 177.082 150.387 178.591 149.471C180.127 148.555 181.77 148.097 183.521 148.097C185.246 148.097 186.862 148.542 188.371 149.431C189.88 150.32 191.093 151.546 192.009 153.109C192.925 154.671 193.396 156.423 193.423 158.363ZM183.521 151.654C182.013 151.654 180.706 152.085 179.601 152.947C178.497 153.782 177.769 155.089 177.419 156.867H189.341V156.544C189.206 155.116 188.56 153.944 187.401 153.028C186.27 152.112 184.976 151.654 183.521 151.654Z" fill="#374151"/>
<circle cx="29.8805" cy="157.809" r="24.6205" fill="#06B6D4"/>
<path d="M4.00288 150.94L1.13829 148.075C0.510208 147.447 0.511803 146.428 1.14185 145.802L13.3173 133.703C13.6204 133.401 13.7908 132.992 13.7908 132.564V128.159C13.7908 126.729 15.5194 126.013 16.5303 127.024L36.3593 146.853C36.4149 146.909 36.4664 146.968 36.5132 147.032L36.9963 147.683C37.4704 148.321 37.4049 149.211 36.8424 149.774L25.2406 161.375C24.6139 162.002 23.5978 162.002 22.9711 161.375L15.3318 153.736L13.4753 151.88C13.1743 151.579 12.7661 151.41 12.3405 151.41H5.13762C4.71201 151.41 4.30383 151.241 4.00288 150.94Z" stroke="#374151" stroke-width="3.53049"/>
<path fill-rule="evenodd" clip-rule="evenodd" d="M25.7102 182.078C24.501 181.871 23.3219 181.577 22.1797 181.201V163.672H25.7102L25.7102 182.078ZM53.0928 166.036L39.2538 152.197L41.7503 149.7L54.1315 162.081C53.8936 163.441 53.5441 164.762 53.0928 166.036Z" fill="#374151"/>
<path fill-rule="evenodd" clip-rule="evenodd" d="M40.5679 148.274L26.5123 162.33L19.192 155.01L16.6855 157.517L26.5124 167.343L43.0745 150.78L40.5679 148.274Z" fill="white"/>
<path fill-rule="evenodd" clip-rule="evenodd" d="M40.5678 143.261L26.5124 157.317L19.1922 149.997L11.6727 157.517L26.5127 172.357L48.0876 150.78L40.5678 143.261ZM24.006 159.824L26.5081 162.326L24.006 159.824ZM24.006 159.824L19.1922 155.01L16.6857 157.517L26.5126 167.344L29.019 164.837L43.0746 150.78L40.568 148.274L26.5125 162.33" fill="#06B6D4"/>
<path d="M0.725985 207.429V200.821H3.0814C3.59551 200.821 4.02142 200.915 4.35914 201.102C4.69686 201.289 4.94961 201.545 5.11739 201.87C5.28517 202.193 5.36906 202.556 5.36906 202.961C5.36906 203.367 5.2841 203.733 5.11416 204.058C4.94638 204.38 4.69255 204.636 4.35268 204.826C4.01497 205.013 3.59013 205.106 3.07818 205.106H1.45842V204.261H2.98783C3.31264 204.261 3.57615 204.205 3.77835 204.093C3.98055 203.979 4.12897 203.824 4.22362 203.629C4.31827 203.433 4.36559 203.21 4.36559 202.961C4.36559 202.711 4.31827 202.49 4.22362 202.296C4.12897 202.102 3.97947 201.951 3.77512 201.841C3.57292 201.731 3.30619 201.676 2.97493 201.676H1.723V207.429H0.725985ZM6.09702 207.429V202.473H7.0295V203.261H7.08113C7.17147 202.994 7.33065 202.784 7.55867 202.631C7.78883 202.477 8.04911 202.399 8.3395 202.399C8.39973 202.399 8.47072 202.401 8.55246 202.406C8.63635 202.41 8.70196 202.415 8.74928 202.422V203.345C8.71056 203.334 8.64173 203.322 8.54278 203.309C8.44383 203.294 8.34488 203.286 8.24593 203.286C8.01792 203.286 7.81464 203.335 7.63611 203.432C7.45972 203.526 7.3199 203.659 7.21665 203.829C7.1134 203.996 7.06177 204.188 7.06177 204.403V207.429H6.09702ZM11.1309 207.529C10.6662 207.529 10.2608 207.423 9.91444 207.21C9.56812 206.997 9.29924 206.699 9.10779 206.316C8.91635 205.933 8.82062 205.486 8.82062 204.974C8.82062 204.46 8.91635 204.01 9.10779 203.625C9.29924 203.24 9.56812 202.941 9.91444 202.728C10.2608 202.515 10.6662 202.409 11.1309 202.409C11.5955 202.409 12.001 202.515 12.3473 202.728C12.6936 202.941 12.9625 203.24 13.1539 203.625C13.3454 204.01 13.4411 204.46 13.4411 204.974C13.4411 205.486 13.3454 205.933 13.1539 206.316C12.9625 206.699 12.6936 206.997 12.3473 207.21C12.001 207.423 11.5955 207.529 11.1309 207.529ZM11.1341 206.72C11.4352 206.72 11.6848 206.64 11.8827 206.481C12.0806 206.322 12.2268 206.11 12.3215 205.845C12.4183 205.581 12.4667 205.289 12.4667 204.971C12.4667 204.655 12.4183 204.364 12.3215 204.1C12.2268 203.833 12.0806 203.619 11.8827 203.457C11.6848 203.296 11.4352 203.216 11.1341 203.216C10.8308 203.216 10.5791 203.296 10.3791 203.457C10.1812 203.619 10.0338 203.833 9.93703 204.1C9.84238 204.364 9.79506 204.655 9.79506 204.971C9.79506 205.289 9.84238 205.581 9.93703 205.845C10.0338 206.11 10.1812 206.322 10.3791 206.481C10.5791 206.64 10.8308 206.72 11.1341 206.72ZM14.1545 209.288V202.473H15.0967V203.277H15.1774C15.2333 203.174 15.314 203.054 15.4194 202.919C15.5248 202.783 15.6711 202.665 15.8582 202.564C16.0453 202.46 16.2927 202.409 16.6003 202.409C17.0004 202.409 17.3575 202.51 17.6715 202.712C17.9856 202.914 18.2319 203.206 18.4104 203.587C18.5911 203.967 18.6815 204.425 18.6815 204.961C18.6815 205.497 18.5922 205.956 18.4137 206.339C18.2351 206.72 17.9899 207.013 17.678 207.22C17.3661 207.424 17.0101 207.526 16.61 207.526C16.3088 207.526 16.0625 207.476 15.8711 207.375C15.6818 207.273 15.5334 207.155 15.4258 207.02C15.3183 206.884 15.2355 206.764 15.1774 206.658H15.1193V209.288H14.1545ZM15.0999 204.951C15.0999 205.3 15.1505 205.605 15.2516 205.868C15.3527 206.13 15.499 206.336 15.6904 206.484C15.8819 206.63 16.1163 206.703 16.3938 206.703C16.6821 206.703 16.923 206.627 17.1166 206.474C17.3102 206.319 17.4564 206.11 17.5554 205.845C17.6565 205.581 17.707 205.283 17.707 204.951C17.707 204.624 17.6576 204.331 17.5586 204.071C17.4618 203.81 17.3155 203.605 17.1198 203.454C16.9262 203.304 16.6842 203.228 16.3938 203.228C16.1142 203.228 15.8776 203.3 15.684 203.445C15.4925 203.589 15.3473 203.79 15.2484 204.048C15.1494 204.306 15.0999 204.607 15.0999 204.951ZM21.4865 207.529C21.0219 207.529 20.6164 207.423 20.2701 207.21C19.9238 206.997 19.6549 206.699 19.4635 206.316C19.272 205.933 19.1763 205.486 19.1763 204.974C19.1763 204.46 19.272 204.01 19.4635 203.625C19.6549 203.24 19.9238 202.941 20.2701 202.728C20.6164 202.515 21.0219 202.409 21.4865 202.409C21.9512 202.409 22.3567 202.515 22.703 202.728C23.0493 202.941 23.3182 203.24 23.5096 203.625C23.7011 204.01 23.7968 204.46 23.7968 204.974C23.7968 205.486 23.7011 205.933 23.5096 206.316C23.3182 206.699 23.0493 206.997 22.703 207.21C22.3567 207.423 21.9512 207.529 21.4865 207.529ZM21.4898 206.72C21.7909 206.72 22.0404 206.64 22.2383 206.481C22.4362 206.322 22.5825 206.11 22.6772 205.845C22.774 205.581 22.8224 205.289 22.8224 204.971C22.8224 204.655 22.774 204.364 22.6772 204.1C22.5825 203.833 22.4362 203.619 22.2383 203.457C22.0404 203.296 21.7909 203.216 21.4898 203.216C21.1865 203.216 20.9348 203.296 20.7347 203.457C20.5369 203.619 20.3895 203.833 20.2927 204.1C20.1981 204.364 20.1507 204.655 20.1507 204.971C20.1507 205.289 20.1981 205.581 20.2927 205.845C20.3895 206.11 20.5369 206.322 20.7347 206.481C20.9348 206.64 21.1865 206.72 21.4898 206.72ZM28.224 203.683L27.3496 203.838C27.3131 203.726 27.255 203.62 27.1754 203.519C27.098 203.418 26.9926 203.335 26.8592 203.27C26.7258 203.206 26.5591 203.174 26.3591 203.174C26.0859 203.174 25.8579 203.235 25.675 203.357C25.4922 203.478 25.4008 203.634 25.4008 203.825C25.4008 203.991 25.4621 204.124 25.5847 204.225C25.7073 204.327 25.9052 204.409 26.1784 204.474L26.9657 204.655C27.4217 204.76 27.7616 204.922 27.9853 205.142C28.209 205.361 28.3208 205.646 28.3208 205.997C28.3208 206.294 28.2348 206.558 28.0627 206.791C27.8928 207.021 27.6551 207.201 27.3496 207.333C27.0463 207.464 26.6946 207.529 26.2945 207.529C25.7396 207.529 25.2868 207.411 24.9361 207.175C24.5855 206.936 24.3704 206.597 24.2908 206.158L25.2233 206.016C25.2814 206.259 25.4008 206.443 25.5815 206.568C25.7621 206.691 25.9977 206.752 26.2881 206.752C26.6043 206.752 26.857 206.686 27.0463 206.555C27.2356 206.422 27.3303 206.259 27.3303 206.068C27.3303 205.913 27.2722 205.783 27.156 205.677C27.042 205.572 26.8667 205.492 26.6301 205.439L25.7912 205.255C25.3287 205.149 24.9867 204.982 24.7651 204.751C24.5457 204.521 24.436 204.23 24.436 203.877C24.436 203.584 24.5178 203.328 24.6812 203.109C24.8447 202.89 25.0706 202.719 25.3588 202.596C25.6471 202.471 25.9773 202.409 26.3494 202.409C26.885 202.409 27.3066 202.525 27.6142 202.757C27.9218 202.987 28.1251 203.296 28.224 203.683ZM30.4604 207.539C30.1464 207.539 29.8624 207.481 29.6086 207.365C29.3548 207.247 29.1537 207.076 29.0052 206.852C28.859 206.628 28.7858 206.354 28.7858 206.029C28.7858 205.749 28.8396 205.519 28.9472 205.339C29.0547 205.158 29.1999 205.015 29.3827 204.909C29.5656 204.804 29.7699 204.724 29.9958 204.671C30.2217 204.617 30.4518 204.576 30.6863 204.548C30.9831 204.514 31.2241 204.486 31.4091 204.464C31.594 204.441 31.7285 204.403 31.8124 204.351C31.8963 204.3 31.9382 204.216 31.9382 204.1V204.077C31.9382 203.795 31.8586 203.577 31.6994 203.422C31.5424 203.267 31.308 203.19 30.996 203.19C30.6712 203.19 30.4153 203.262 30.2281 203.406C30.0431 203.548 29.9151 203.706 29.8442 203.88L28.9375 203.674C29.045 203.373 29.2021 203.129 29.4086 202.944C29.6172 202.757 29.8571 202.622 30.1281 202.538C30.3991 202.452 30.6841 202.409 30.9831 202.409C31.181 202.409 31.3908 202.433 31.6123 202.48C31.836 202.525 32.0447 202.609 32.2383 202.732C32.434 202.854 32.5943 203.029 32.7191 203.257C32.8438 203.483 32.9062 203.777 32.9062 204.138V207.429H31.964V206.752H31.9253C31.8629 206.877 31.7694 206.999 31.6446 207.12C31.5198 207.24 31.3596 207.34 31.1638 207.42C30.9681 207.499 30.7336 207.539 30.4604 207.539ZM30.6702 206.765C30.9369 206.765 31.1649 206.712 31.3542 206.607C31.5456 206.501 31.6908 206.364 31.7898 206.194C31.8909 206.022 31.9414 205.838 31.9414 205.642V205.003C31.907 205.037 31.8403 205.07 31.7414 205.1C31.6446 205.128 31.5338 205.153 31.4091 205.174C31.2843 205.193 31.1628 205.212 31.0444 205.229C30.9261 205.244 30.8272 205.257 30.7476 205.268C30.5605 205.291 30.3894 205.331 30.2346 205.387C30.0818 205.443 29.9592 205.524 29.8667 205.629C29.7764 205.732 29.7312 205.87 29.7312 206.042C29.7312 206.281 29.8194 206.461 29.9958 206.584C30.1722 206.705 30.397 206.765 30.6702 206.765ZM34.7925 200.821V207.429H33.8277V200.821H34.7925ZM37.5197 201.68V200.821H42.6338V201.68H40.572V207.429H39.5783V201.68H37.5197ZM44.2878 204.487V207.429H43.3231V200.821H44.2749V203.28H44.3362C44.4524 203.013 44.6299 202.801 44.8686 202.644C45.1074 202.487 45.4193 202.409 45.8043 202.409C46.1442 202.409 46.4411 202.479 46.6949 202.619C46.9509 202.758 47.1488 202.967 47.2886 203.245C47.4305 203.52 47.5015 203.864 47.5015 204.277V207.429H46.5368V204.393C46.5368 204.03 46.4432 203.748 46.2561 203.548C46.0689 203.346 45.8086 203.245 45.4752 203.245C45.2472 203.245 45.0429 203.293 44.8622 203.39C44.6836 203.487 44.5427 203.629 44.4395 203.816C44.3384 204.001 44.2878 204.224 44.2878 204.487ZM48.4255 207.429V202.473H49.358V203.261H49.4096C49.5 202.994 49.6591 202.784 49.8872 202.631C50.1173 202.477 50.3776 202.399 50.668 202.399C50.7282 202.399 50.7992 202.401 50.8809 202.406C50.9648 202.41 51.0304 202.415 51.0778 202.422V203.345C51.039 203.334 50.9702 203.322 50.8713 203.309C50.7723 203.294 50.6734 203.286 50.5744 203.286C50.3464 203.286 50.1431 203.335 49.9646 203.432C49.7882 203.526 49.6484 203.659 49.5451 203.829C49.4419 203.996 49.3903 204.188 49.3903 204.403V207.429H48.4255ZM53.5078 207.529C53.0195 207.529 52.5989 207.425 52.2461 207.216C51.8955 207.006 51.6245 206.71 51.433 206.329C51.2438 205.946 51.1491 205.498 51.1491 204.984C51.1491 204.476 51.2438 204.029 51.433 203.641C51.6245 203.254 51.8912 202.952 52.2332 202.735C52.5774 202.517 52.9797 202.409 53.44 202.409C53.7196 202.409 53.9907 202.455 54.2531 202.548C54.5155 202.64 54.7511 202.785 54.9597 202.983C55.1684 203.181 55.3329 203.438 55.4534 203.754C55.5739 204.068 55.6341 204.45 55.6341 204.9V205.242H51.6944V204.519H54.6887C54.6887 204.265 54.6371 204.04 54.5338 203.845C54.4306 203.647 54.2854 203.491 54.0982 203.377C53.9132 203.263 53.696 203.206 53.4464 203.206C53.1754 203.206 52.9388 203.273 52.7366 203.406C52.5365 203.537 52.3817 203.709 52.272 203.922C52.1644 204.133 52.1106 204.362 52.1106 204.609V205.174C52.1106 205.505 52.1687 205.787 52.2849 206.019C52.4032 206.252 52.5677 206.429 52.7785 206.552C52.9893 206.672 53.2356 206.732 53.5174 206.732C53.7003 206.732 53.867 206.707 54.0176 206.655C54.1681 206.601 54.2983 206.522 54.408 206.416C54.5177 206.311 54.6016 206.181 54.6596 206.026L55.5728 206.19C55.4996 206.459 55.3684 206.695 55.1791 206.897C54.992 207.097 54.7564 207.253 54.4725 207.365C54.1907 207.475 53.8691 207.529 53.5078 207.529ZM58.4771 207.529C57.9888 207.529 57.5682 207.425 57.2155 207.216C56.8648 207.006 56.5938 206.71 56.4024 206.329C56.2131 205.946 56.1184 205.498 56.1184 204.984C56.1184 204.476 56.2131 204.029 56.4024 203.641C56.5938 203.254 56.8605 202.952 57.2026 202.735C57.5467 202.517 57.949 202.409 58.4093 202.409C58.6889 202.409 58.96 202.455 59.2224 202.548C59.4848 202.64 59.7204 202.785 59.929 202.983C60.1377 203.181 60.3022 203.438 60.4227 203.754C60.5432 204.068 60.6034 204.45 60.6034 204.9V205.242H56.6637V204.519H59.658C59.658 204.265 59.6064 204.04 59.5031 203.845C59.3999 203.647 59.2547 203.491 59.0675 203.377C58.8825 203.263 58.6653 203.206 58.4158 203.206C58.1447 203.206 57.9081 203.273 57.7059 203.406C57.5059 203.537 57.351 203.709 57.2413 203.922C57.1337 204.133 57.08 204.362 57.08 204.609V205.174C57.08 205.505 57.138 205.787 57.2542 206.019C57.3725 206.252 57.5371 206.429 57.7479 206.552C57.9587 206.672 58.205 206.732 58.4867 206.732C58.6696 206.732 58.8363 206.707 58.9869 206.655C59.1374 206.601 59.2676 206.522 59.3773 206.416C59.487 206.311 59.5709 206.181 59.629 206.026L60.5421 206.19C60.469 206.459 60.3377 206.695 60.1484 206.897C59.9613 207.097 59.7258 207.253 59.4418 207.365C59.16 207.475 58.8384 207.529 58.4771 207.529Z" fill="#1F2937"/>
<path d="M79.2188 259.988L76.5351 262.636V267.538H70.9529V240.987H76.5351V256.016L84.6937 248.286H91.3494L83.3339 256.445L92.0651 267.538H85.302L79.2188 259.988ZM101.466 267.824C99.4383 267.824 97.6134 267.407 95.9912 266.572C94.3929 265.713 93.1404 264.532 92.2339 263.029C91.3274 261.526 90.8742 259.821 90.8742 257.912C90.8742 256.004 91.3274 254.298 92.2339 252.795C93.1404 251.292 94.3929 250.123 95.9912 249.288C97.6134 248.43 99.4383 248 101.466 248C103.494 248 105.307 248.43 106.905 249.288C108.503 250.123 109.756 251.292 110.662 252.795C111.569 254.298 112.022 256.004 112.022 257.912C112.022 259.821 111.569 261.526 110.662 263.029C109.756 264.532 108.503 265.713 106.905 266.572C105.307 267.407 103.494 267.824 101.466 267.824ZM101.466 263.244C102.897 263.244 104.066 262.767 104.973 261.812C105.903 260.834 106.368 259.534 106.368 257.912C106.368 256.29 105.903 255.002 104.973 254.047C104.066 253.069 102.897 252.58 101.466 252.58C100.035 252.58 98.8539 253.069 97.9235 254.047C96.9931 255.002 96.5279 256.29 96.5279 257.912C96.5279 259.534 96.9931 260.834 97.9235 261.812C98.8539 262.767 100.035 263.244 101.466 263.244ZM123.483 267.824C121.455 267.824 119.63 267.407 118.008 266.572C116.409 265.713 115.157 264.532 114.251 263.029C113.344 261.526 112.891 259.821 112.891 257.912C112.891 256.004 113.344 254.298 114.251 252.795C115.157 251.292 116.409 250.123 118.008 249.288C119.63 248.43 121.455 248 123.483 248C125.51 248 127.323 248.43 128.922 249.288C130.52 250.123 131.772 251.292 132.679 252.795C133.585 254.298 134.039 256.004 134.039 257.912C134.039 259.821 133.585 261.526 132.679 263.029C131.772 264.532 130.52 265.713 128.922 266.572C127.323 267.407 125.51 267.824 123.483 267.824ZM123.483 263.244C124.914 263.244 126.083 262.767 126.989 261.812C127.92 260.834 128.385 259.534 128.385 257.912C128.385 256.29 127.92 255.002 126.989 254.047C126.083 253.069 124.914 252.58 123.483 252.58C122.051 252.58 120.87 253.069 119.94 254.047C119.01 255.002 118.545 256.29 118.545 257.912C118.545 259.534 119.01 260.834 119.94 261.812C120.87 262.767 122.051 263.244 123.483 263.244ZM136.339 240.987H141.921V267.538H136.339V240.987ZM164.528 257.984C164.528 258.055 164.492 258.556 164.421 259.487H149.857C150.119 260.679 150.74 261.622 151.718 262.313C152.696 263.005 153.912 263.351 155.368 263.351C156.37 263.351 157.252 263.208 158.016 262.922C158.803 262.612 159.53 262.135 160.198 261.49L163.168 264.711C161.355 266.786 158.707 267.824 155.224 267.824C153.054 267.824 151.133 267.407 149.463 266.572C147.793 265.713 146.505 264.532 145.599 263.029C144.692 261.526 144.239 259.821 144.239 257.912C144.239 256.028 144.68 254.334 145.563 252.831C146.469 251.304 147.698 250.123 149.249 249.288C150.823 248.43 152.576 248 154.509 248C156.393 248 158.099 248.406 159.626 249.217C161.153 250.028 162.345 251.197 163.204 252.724C164.087 254.226 164.528 255.98 164.528 257.984ZM154.545 252.223C153.28 252.223 152.219 252.58 151.36 253.296C150.501 254.012 149.976 254.99 149.785 256.23H159.268C159.077 255.014 158.552 254.047 157.694 253.332C156.835 252.592 155.785 252.223 154.545 252.223ZM185.671 257.984C185.671 258.055 185.635 258.556 185.564 259.487H171C171.262 260.679 171.883 261.622 172.861 262.313C173.839 263.005 175.055 263.351 176.511 263.351C177.512 263.351 178.395 263.208 179.159 262.922C179.946 262.612 180.673 262.135 181.341 261.49L184.311 264.711C182.498 266.786 179.85 267.824 176.367 267.824C174.197 267.824 172.276 267.407 170.606 266.572C168.936 265.713 167.648 264.532 166.742 263.029C165.835 261.526 165.382 259.821 165.382 257.912C165.382 256.028 165.823 254.334 166.706 252.831C167.612 251.304 168.841 250.123 170.392 249.288C171.966 248.43 173.719 248 175.652 248C177.536 248 179.242 248.406 180.769 249.217C182.296 250.028 183.488 251.197 184.347 252.724C185.23 254.226 185.671 255.98 185.671 257.984ZM175.688 252.223C174.423 252.223 173.362 252.58 172.503 253.296C171.644 254.012 171.119 254.99 170.928 256.23H180.411C180.22 255.014 179.695 254.047 178.836 253.332C177.978 252.592 176.928 252.223 175.688 252.223Z" fill="#4338CA"/>
<path fill-rule="evenodd" clip-rule="evenodd" d="M26.5281 230.338C4.68221 230.338 0 235.02 0 256.866C0 278.712 4.68221 283.394 26.5281 283.394C48.374 283.394 53.0562 278.712 53.0562 256.866C53.0562 235.02 48.374 230.338 26.5281 230.338ZM26.5279 240.709C13.2222 240.709 10.3703 243.56 10.3703 256.866C10.3703 270.172 13.2222 273.024 26.5279 273.024C39.8337 273.024 42.6855 270.172 42.6855 256.866C42.6855 243.56 39.8337 240.709 26.5279 240.709Z" fill="#4338CA"/>
<mask id="mask0_5260_4102" style="mask-type:alpha" maskUnits="userSpaceOnUse" x="0" y="230" width="54" height="54">
<path fill-rule="evenodd" clip-rule="evenodd" d="M26.5281 230.338C4.68221 230.338 0 235.02 0 256.866C0 278.712 4.68221 283.394 26.5281 283.394C48.374 283.394 53.0562 278.712 53.0562 256.866C53.0562 235.02 48.374 230.338 26.5281 230.338ZM26.5279 240.709C13.2222 240.709 10.3703 243.56 10.3703 256.866C10.3703 270.172 13.2222 273.024 26.5279 273.024C39.8337 273.024 42.6855 270.172 42.6855 256.866C42.6855 243.56 39.8337 240.709 26.5279 240.709Z" fill="#4338CA"/>
</mask>
<g mask="url(#mask0_5260_4102)">
<path d="M-32.9319 227.022C-32.9319 205.177 -23.2457 200.494 21.9473 200.494C67.1404 200.494 76.8265 205.177 76.8265 227.022C76.8265 248.868 67.1404 253.551 21.9473 253.551C-23.2457 253.551 -32.9319 248.868 -32.9319 227.022Z" fill="#818CF8"/>
</g>
<path fill-rule="evenodd" clip-rule="evenodd" d="M26.4169 264.055L36.6555 253.833L36.6572 253.831C37.8174 252.684 37.7955 250.823 36.6612 249.68C35.5162 248.525 33.6508 248.529 32.5005 249.677L24.3331 257.824L20.5618 254.062L20.5603 254.061C19.4117 252.904 17.5495 252.926 16.4039 254.056C15.2456 255.2 15.2497 257.063 16.4011 258.212L22.2559 264.052L22.2573 264.054C23.4024 265.207 25.267 265.202 26.4169 264.055Z" fill="#4338CA"/>
<path d="M15.1735 238.988L15.4041 238.988L15.5069 238.782L17.6926 234.396L17.7318 234.317L17.7317 234.229L17.7241 228.155C17.7241 228.155 17.7241 228.155 17.7241 228.154C17.7293 226.736 16.5689 225.597 15.1606 225.588C13.7433 225.578 12.5958 226.729 12.5976 228.149L12.608 236.42C12.608 236.421 12.608 236.421 12.608 236.421C12.6027 237.837 13.7547 238.986 15.1735 238.988Z" fill="#818CF8" stroke="#818CF8" stroke-width="0.744042"/>
<path d="M37.2272 238.988L37.4578 238.988L37.5606 238.782L39.7463 234.396L39.7855 234.317L39.7854 234.229L39.7778 228.155C39.7778 228.155 39.7778 228.155 39.7778 228.154C39.783 226.736 38.6226 225.597 37.2143 225.588C35.7971 225.578 34.6495 226.729 34.6513 228.149L34.6617 236.42C34.6617 236.421 34.6617 236.421 34.6617 236.421C34.6565 237.837 35.8084 238.986 37.2272 238.988Z" fill="#818CF8" stroke="#818CF8" stroke-width="0.744042"/>
<path d="M0.725985 308.395V301.786H3.0814C3.59551 301.786 4.02142 301.88 4.35914 302.067C4.69686 302.254 4.94961 302.51 5.11739 302.835C5.28517 303.158 5.36906 303.521 5.36906 303.926C5.36906 304.332 5.2841 304.698 5.11416 305.023C4.94638 305.345 4.69255 305.601 4.35268 305.791C4.01497 305.978 3.59013 306.071 3.07818 306.071H1.45842V305.226H2.98783C3.31264 305.226 3.57615 305.17 3.77835 305.058C3.98055 304.944 4.12897 304.789 4.22362 304.594C4.31827 304.398 4.36559 304.175 4.36559 303.926C4.36559 303.676 4.31827 303.455 4.22362 303.261C4.12897 303.067 3.97947 302.916 3.77512 302.806C3.57292 302.696 3.30619 302.642 2.97493 302.642H1.723V308.395H0.725985ZM6.09702 308.395V303.438H7.0295V304.226H7.08113C7.17147 303.959 7.33065 303.749 7.55867 303.597C7.78883 303.442 8.04911 303.364 8.3395 303.364C8.39973 303.364 8.47072 303.366 8.55246 303.371C8.63635 303.375 8.70196 303.38 8.74928 303.387V304.31C8.71056 304.299 8.64173 304.287 8.54278 304.274C8.44383 304.259 8.34488 304.252 8.24593 304.252C8.01792 304.252 7.81464 304.3 7.63611 304.397C7.45972 304.491 7.3199 304.624 7.21665 304.794C7.1134 304.961 7.06177 305.153 7.06177 305.368V308.395H6.09702ZM11.1309 308.495C10.6662 308.495 10.2608 308.388 9.91444 308.175C9.56812 307.962 9.29924 307.664 9.10779 307.281C8.91635 306.898 8.82062 306.451 8.82062 305.939C8.82062 305.425 8.91635 304.975 9.10779 304.59C9.29924 304.205 9.56812 303.906 9.91444 303.693C10.2608 303.48 10.6662 303.374 11.1309 303.374C11.5955 303.374 12.001 303.48 12.3473 303.693C12.6936 303.906 12.9625 304.205 13.1539 304.59C13.3454 304.975 13.4411 305.425 13.4411 305.939C13.4411 306.451 13.3454 306.898 13.1539 307.281C12.9625 307.664 12.6936 307.962 12.3473 308.175C12.001 308.388 11.5955 308.495 11.1309 308.495ZM11.1341 307.685C11.4352 307.685 11.6848 307.605 11.8827 307.446C12.0806 307.287 12.2268 307.075 12.3215 306.81C12.4183 306.546 12.4667 306.254 12.4667 305.936C12.4667 305.62 12.4183 305.329 12.3215 305.065C12.2268 304.798 12.0806 304.584 11.8827 304.423C11.6848 304.261 11.4352 304.181 11.1341 304.181C10.8308 304.181 10.5791 304.261 10.3791 304.423C10.1812 304.584 10.0338 304.798 9.93703 305.065C9.84238 305.329 9.79506 305.62 9.79506 305.936C9.79506 306.254 9.84238 306.546 9.93703 306.81C10.0338 307.075 10.1812 307.287 10.3791 307.446C10.5791 307.605 10.8308 307.685 11.1341 307.685ZM14.1545 310.253V303.438H15.0967V304.242H15.1774C15.2333 304.139 15.314 304.019 15.4194 303.884C15.5248 303.748 15.6711 303.63 15.8582 303.529C16.0453 303.426 16.2927 303.374 16.6003 303.374C17.0004 303.374 17.3575 303.475 17.6715 303.677C17.9856 303.879 18.2319 304.171 18.4104 304.552C18.5911 304.932 18.6815 305.391 18.6815 305.926C18.6815 306.462 18.5922 306.921 18.4137 307.304C18.2351 307.685 17.9899 307.978 17.678 308.185C17.3661 308.389 17.0101 308.491 16.61 308.491C16.3088 308.491 16.0625 308.441 15.8711 308.34C15.6818 308.239 15.5334 308.12 15.4258 307.985C15.3183 307.849 15.2355 307.729 15.1774 307.623H15.1193V310.253H14.1545ZM15.0999 305.917C15.0999 306.265 15.1505 306.57 15.2516 306.833C15.3527 307.095 15.499 307.301 15.6904 307.449C15.8819 307.595 16.1163 307.669 16.3938 307.669C16.6821 307.669 16.923 307.592 17.1166 307.439C17.3102 307.285 17.4564 307.075 17.5554 306.81C17.6565 306.546 17.707 306.248 17.707 305.917C17.707 305.59 17.6576 305.296 17.5586 305.036C17.4618 304.775 17.3155 304.57 17.1198 304.419C16.9262 304.269 16.6842 304.193 16.3938 304.193C16.1142 304.193 15.8776 304.266 15.684 304.41C15.4925 304.554 15.3473 304.755 15.2484 305.013C15.1494 305.271 15.0999 305.572 15.0999 305.917ZM21.4865 308.495C21.0219 308.495 20.6164 308.388 20.2701 308.175C19.9238 307.962 19.6549 307.664 19.4635 307.281C19.272 306.898 19.1763 306.451 19.1763 305.939C19.1763 305.425 19.272 304.975 19.4635 304.59C19.6549 304.205 19.9238 303.906 20.2701 303.693C20.6164 303.48 21.0219 303.374 21.4865 303.374C21.9512 303.374 22.3567 303.48 22.703 303.693C23.0493 303.906 23.3182 304.205 23.5096 304.59C23.7011 304.975 23.7968 305.425 23.7968 305.939C23.7968 306.451 23.7011 306.898 23.5096 307.281C23.3182 307.664 23.0493 307.962 22.703 308.175C22.3567 308.388 21.9512 308.495 21.4865 308.495ZM21.4898 307.685C21.7909 307.685 22.0404 307.605 22.2383 307.446C22.4362 307.287 22.5825 307.075 22.6772 306.81C22.774 306.546 22.8224 306.254 22.8224 305.936C22.8224 305.62 22.774 305.329 22.6772 305.065C22.5825 304.798 22.4362 304.584 22.2383 304.423C22.0404 304.261 21.7909 304.181 21.4898 304.181C21.1865 304.181 20.9348 304.261 20.7347 304.423C20.5369 304.584 20.3895 304.798 20.2927 305.065C20.1981 305.329 20.1507 305.62 20.1507 305.936C20.1507 306.254 20.1981 306.546 20.2927 306.81C20.3895 307.075 20.5369 307.287 20.7347 307.446C20.9348 307.605 21.1865 307.685 21.4898 307.685ZM28.224 304.648L27.3496 304.803C27.3131 304.691 27.255 304.585 27.1754 304.484C27.098 304.383 26.9926 304.3 26.8592 304.235C26.7258 304.171 26.5591 304.139 26.3591 304.139C26.0859 304.139 25.8579 304.2 25.675 304.323C25.4922 304.443 25.4008 304.599 25.4008 304.79C25.4008 304.956 25.4621 305.089 25.5847 305.191C25.7073 305.292 25.9052 305.374 26.1784 305.439L26.9657 305.62C27.4217 305.725 27.7616 305.887 27.9853 306.107C28.209 306.326 28.3208 306.611 28.3208 306.962C28.3208 307.259 28.2348 307.523 28.0627 307.756C27.8928 307.986 27.6551 308.167 27.3496 308.298C27.0463 308.429 26.6946 308.495 26.2945 308.495C25.7396 308.495 25.2868 308.376 24.9361 308.14C24.5855 307.901 24.3704 307.562 24.2908 307.123L25.2233 306.981C25.2814 307.224 25.4008 307.408 25.5815 307.533C25.7621 307.656 25.9977 307.717 26.2881 307.717C26.6043 307.717 26.857 307.651 27.0463 307.52C27.2356 307.387 27.3303 307.224 27.3303 307.033C27.3303 306.878 27.2722 306.748 27.156 306.642C27.042 306.537 26.8667 306.457 26.6301 306.404L25.7912 306.22C25.3287 306.114 24.9867 305.947 24.7651 305.716C24.5457 305.486 24.436 305.195 24.436 304.842C24.436 304.549 24.5178 304.294 24.6812 304.074C24.8447 303.855 25.0706 303.684 25.3588 303.561C25.6471 303.436 25.9773 303.374 26.3494 303.374C26.885 303.374 27.3066 303.49 27.6142 303.722C27.9218 303.953 28.1251 304.261 28.224 304.648ZM30.4604 308.504C30.1464 308.504 29.8624 308.446 29.6086 308.33C29.3548 308.212 29.1537 308.041 29.0052 307.817C28.859 307.593 28.7858 307.319 28.7858 306.994C28.7858 306.715 28.8396 306.484 28.9472 306.304C29.0547 306.123 29.1999 305.98 29.3827 305.875C29.5656 305.769 29.7699 305.69 29.9958 305.636C30.2217 305.582 30.4518 305.541 30.6863 305.513C30.9831 305.479 31.2241 305.451 31.4091 305.429C31.594 305.406 31.7285 305.368 31.8124 305.316C31.8963 305.265 31.9382 305.181 31.9382 305.065V305.042C31.9382 304.76 31.8586 304.542 31.6994 304.387C31.5424 304.232 31.308 304.155 30.996 304.155C30.6712 304.155 30.4153 304.227 30.2281 304.371C30.0431 304.513 29.9151 304.671 29.8442 304.845L28.9375 304.639C29.045 304.338 29.2021 304.095 29.4086 303.91C29.6172 303.722 29.8571 303.587 30.1281 303.503C30.3991 303.417 30.6841 303.374 30.9831 303.374C31.181 303.374 31.3908 303.398 31.6123 303.445C31.836 303.49 32.0447 303.574 32.2383 303.697C32.434 303.819 32.5943 303.995 32.7191 304.223C32.8438 304.448 32.9062 304.742 32.9062 305.103V308.395H31.964V307.717H31.9253C31.8629 307.842 31.7694 307.964 31.6446 308.085C31.5198 308.205 31.3596 308.305 31.1638 308.385C30.9681 308.464 30.7336 308.504 30.4604 308.504ZM30.6702 307.73C30.9369 307.73 31.1649 307.677 31.3542 307.572C31.5456 307.466 31.6908 307.329 31.7898 307.159C31.8909 306.987 31.9414 306.803 31.9414 306.607V305.968C31.907 306.003 31.8403 306.035 31.7414 306.065C31.6446 306.093 31.5338 306.118 31.4091 306.139C31.2843 306.158 31.1628 306.177 31.0444 306.194C30.9261 306.209 30.8272 306.222 30.7476 306.233C30.5605 306.256 30.3894 306.296 30.2346 306.352C30.0818 306.408 29.9592 306.489 29.8667 306.594C29.7764 306.697 29.7312 306.835 29.7312 307.007C29.7312 307.246 29.8194 307.427 29.9958 307.549C30.1722 307.67 30.397 307.73 30.6702 307.73ZM34.7925 301.786V308.395H33.8277V301.786H34.7925ZM37.8456 308.395V301.786H41.9434V302.645H38.8426V304.658H41.6497V305.513H38.8426V308.395H37.8456ZM44.4524 308.495C43.9878 308.495 43.5823 308.388 43.236 308.175C42.8896 307.962 42.6208 307.664 42.4293 307.281C42.2379 306.898 42.1421 306.451 42.1421 305.939C42.1421 305.425 42.2379 304.975 42.4293 304.59C42.6208 304.205 42.8896 303.906 43.236 303.693C43.5823 303.48 43.9878 303.374 44.4524 303.374C44.917 303.374 45.3225 303.48 45.6688 303.693C46.0151 303.906 46.284 304.205 46.4755 304.59C46.6669 304.975 46.7626 305.425 46.7626 305.939C46.7626 306.451 46.6669 306.898 46.4755 307.281C46.284 307.664 46.0151 307.962 45.6688 308.175C45.3225 308.388 44.917 308.495 44.4524 308.495ZM44.4556 307.685C44.7568 307.685 45.0063 307.605 45.2042 307.446C45.4021 307.287 45.5484 307.075 45.643 306.81C45.7398 306.546 45.7882 306.254 45.7882 305.936C45.7882 305.62 45.7398 305.329 45.643 305.065C45.5484 304.798 45.4021 304.584 45.2042 304.423C45.0063 304.261 44.7568 304.181 44.4556 304.181C44.1523 304.181 43.9006 304.261 43.7006 304.423C43.5027 304.584 43.3553 304.798 43.2586 305.065C43.1639 305.329 43.1166 305.62 43.1166 305.936C43.1166 306.254 43.1639 306.546 43.2586 306.81C43.3553 307.075 43.5027 307.287 43.7006 307.446C43.9006 307.605 44.1523 307.685 44.4556 307.685ZM50.6156 306.339V303.438H51.5835V308.395H50.6349V307.536H50.5833C50.4693 307.801 50.2864 308.021 50.0348 308.198C49.7852 308.372 49.4744 308.459 49.1023 308.459C48.7839 308.459 48.5021 308.389 48.2569 308.249C48.0138 308.107 47.8224 307.898 47.6826 307.62C47.5449 307.343 47.4761 307 47.4761 306.591V303.438H48.4408V306.475C48.4408 306.812 48.5344 307.081 48.7215 307.281C48.9087 307.481 49.1518 307.581 49.4508 307.581C49.6314 307.581 49.8111 307.536 49.9896 307.446C50.1703 307.356 50.3198 307.219 50.4381 307.036C50.5586 306.853 50.6177 306.621 50.6156 306.339ZM52.5164 308.395V303.438H53.4489V304.226H53.5005C53.5908 303.959 53.75 303.749 53.978 303.597C54.2082 303.442 54.4685 303.364 54.7589 303.364C54.8191 303.364 54.8901 303.366 54.9718 303.371C55.0557 303.375 55.1213 303.38 55.1686 303.387V304.31C55.1299 304.299 55.0611 304.287 54.9621 304.274C54.8632 304.259 54.7642 304.252 54.6653 304.252C54.4373 304.252 54.234 304.3 54.0555 304.397C53.8791 304.491 53.7393 304.624 53.636 304.794C53.5328 304.961 53.4811 305.153 53.4811 305.368V308.395H52.5164Z" fill="#1F2937"/>
<path fill-rule="evenodd" clip-rule="evenodd" d="M10.3925 359.589C9.73724 360.12 9.64913 361.088 10.1975 361.729L26.689 381.024C27.2883 381.725 28.3721 381.725 28.9713 381.024L58.0961 346.949C58.6447 346.307 58.5562 345.339 57.9003 344.807L50.6163 338.903C49.9797 338.387 49.0471 338.477 48.5206 339.105L28.9806 362.41C28.3806 363.126 27.2799 363.126 26.6799 362.41L19.6254 353.996C19.0987 353.368 18.1654 353.278 17.5289 353.795L10.3925 359.589Z" fill="#4F46E5"/>
<path d="M11.5056 344.977C13.6701 348.726 13.1482 353.079 10.3399 354.701C7.53166 356.322 3.50042 354.597 1.33591 350.848C-0.828601 347.099 -0.30673 342.746 2.50154 341.124C5.30982 339.503 9.34106 341.228 11.5056 344.977Z" fill="#1F2937"/>
<path d="M25.337 335.372C26.4574 339.553 24.8265 343.623 21.6943 344.463C18.5621 345.302 15.1146 342.592 13.9942 338.411C12.8738 334.229 14.5046 330.159 17.6369 329.32C20.7691 328.481 24.2165 331.19 25.337 335.372Z" fill="#1F2937"/>
<path d="M30.3243 335.372C29.2038 339.553 30.8347 343.623 33.9669 344.463C37.0992 345.302 40.5466 342.592 41.6671 338.411C42.7875 334.229 41.1566 330.159 38.0244 329.32C34.8922 328.481 31.4447 331.19 30.3243 335.372Z" fill="#1F2937"/>
<path d="M91.5991 366.52C92.3417 367.552 92.0942 368.996 91.0628 369.738C90.0315 370.481 88.5875 370.233 87.8862 369.202L82.2756 361.198L79.3878 363.674V367.758C79.3878 369.078 78.3151 370.109 76.995 370.109C75.7161 370.109 74.6435 369.078 74.6435 367.758V343.376C74.6435 342.056 75.7161 340.984 76.995 340.984C78.3151 340.984 79.3878 342.056 79.3878 343.376V357.733L87.5562 350.596C88.5463 349.771 90.0315 349.895 90.8565 350.885C91.6404 351.875 91.5579 353.319 90.5678 354.144L85.7822 358.228L91.5991 366.52ZM103.724 370.357C98.1135 370.357 93.5755 366.108 93.5755 360.126C93.5755 354.144 98.1135 349.895 103.724 349.895C109.294 349.895 113.832 354.144 113.832 360.126C113.832 366.108 109.294 370.357 103.724 370.357ZM103.724 366.066C106.653 366.066 109.005 363.591 109.005 360.126C109.005 356.66 106.653 354.185 103.724 354.185C100.754 354.185 98.4023 356.66 98.4023 360.126C98.4023 363.591 100.754 366.066 103.724 366.066ZM126.659 370.357C121.048 370.357 116.51 366.108 116.51 360.126C116.51 354.144 121.048 349.895 126.659 349.895C132.228 349.895 136.767 354.144 136.767 360.126C136.767 366.108 132.228 370.357 126.659 370.357ZM126.659 366.066C129.588 366.066 131.94 363.591 131.94 360.126C131.94 356.66 129.588 354.185 126.659 354.185C123.689 354.185 121.337 356.66 121.337 360.126C121.337 363.591 123.689 366.066 126.659 366.066ZM142.581 370.109C141.261 370.109 140.188 369.078 140.188 367.758V343.376C140.188 342.056 141.261 340.984 142.581 340.984C143.86 340.984 144.932 342.056 144.932 343.376V367.758C144.932 369.078 143.86 370.109 142.581 370.109ZM158.016 370.316C152.281 370.357 148.28 366.19 148.28 360.25C148.28 354.226 152.488 349.895 157.645 349.895C163.173 349.895 167.009 354.515 166.968 360.291C166.968 361.363 166.102 362.271 164.988 362.271H153.189C153.767 364.54 155.458 366.025 158.016 366.025C159.625 366.025 161.11 365.613 162.678 364.911C162.925 364.788 163.214 364.746 163.503 364.746C164.699 364.746 165.648 365.695 165.648 366.892C165.648 367.799 165.07 368.583 164.287 368.913C162.224 369.779 160.202 370.274 158.016 370.316ZM153.189 358.269H161.976C161.646 355.877 159.666 354.226 157.645 354.226C155.582 354.226 153.56 355.835 153.189 358.269ZM179.259 370.316C173.524 370.357 169.523 366.19 169.523 360.25C169.523 354.226 173.731 349.895 178.887 349.895C184.416 349.895 188.252 354.515 188.211 360.291C188.211 361.363 187.345 362.271 186.231 362.271H174.432C175.01 364.54 176.701 366.025 179.259 366.025C180.868 366.025 182.353 365.613 183.921 364.911C184.168 364.788 184.457 364.746 184.746 364.746C185.942 364.746 186.891 365.695 186.891 366.892C186.891 367.799 186.313 368.583 185.529 368.913C183.467 369.779 181.445 370.274 179.259 370.316ZM174.432 358.269H183.219C182.889 355.877 180.909 354.226 178.887 354.226C176.825 354.226 174.803 355.835 174.432 358.269Z" fill="#1F2937"/>
</g>
<defs>
<clipPath id="clip0_5260_4102">
<rect width="310" height="384.762" fill="white" transform="translate(0 0.941895)"/>
</clipPath>
</defs>
</svg>
