<svg width="748" height="230" viewBox="0 0 748 230" fill="none" xmlns="http://www.w3.org/2000/svg">
<path d="M636.672 94.9703C618.252 94.9703 605.131 115.176 606.934 137.133C607.685 146.271 599.044 144.017 597.82 141.888H570.542C570.542 141.888 570.542 148.597 571.264 153.071C575.084 176.767 630.685 186.402 630.685 146.684C630.685 130.802 626.227 112.167 648.39 108.929C670.553 105.69 691 84.0652 686.589 68.0973C681.2 48.5925 660.324 32.6693 637.146 47.5639C637.124 47.5778 637.117 47.6071 637.13 47.6292C640.822 53.6825 648.222 56.3236 654.431 59.7466C659.345 62.4558 662.542 67.1746 662.15 71.8896C661.089 84.6636 657.124 94.9703 636.672 94.9703Z" fill="#0588CB"/>
<path d="M585.515 89.7905H585.515C580.125 89.7905 576.908 84.9827 576.908 77.1901C576.908 69.3974 580.125 64.5896 585.515 64.5896C585.545 64.5896 585.575 64.5898 585.605 64.5902L608.861 63.0808L602.02 66.2404L596.812 77.0842L602.02 88.1493L608.861 91.3005L585.515 89.7911V89.7905Z" fill="#343A40"/>
<path d="M589.2 90.219H589.2C583.81 90.219 579.441 85.2475 579.441 77.1896C579.441 69.1316 583.81 64.1601 589.2 64.1601C589.23 64.1601 589.26 64.1603 589.29 64.1607L612.162 62.6L605.321 65.8671L600.113 77.0801L605.321 88.5219L612.162 91.7804L589.2 90.2196V90.219Z" fill="#FAB005"/>
<path d="M608.894 92.7037H608.893C602.257 92.7037 598.296 86.7841 598.296 77.1894C598.296 67.5946 602.257 61.675 608.893 61.675C608.93 61.675 608.968 61.6752 609.005 61.6757L637.639 59.8173L629.215 63.7075L622.803 77.059L629.215 90.683L637.639 94.5629L608.894 92.7045V92.7037Z" fill="#343A40"/>
<path d="M613.431 93.2314H613.431C606.795 93.2314 601.415 87.1103 601.415 77.1889C601.415 67.2675 606.795 61.1463 613.431 61.1463C613.468 61.1463 613.505 61.1466 613.542 61.1471L641.703 59.2253L633.28 63.248L626.868 77.0541L633.28 91.1419L641.703 95.1539L613.431 93.2322V93.2314Z" fill="#FAB005"/>
<path d="M640.556 97.456H640.556C631.887 97.456 626.712 89.7229 626.712 77.1887C626.712 64.6546 631.887 56.9215 640.556 56.9215C640.604 56.9215 640.653 56.9218 640.701 56.9224L678.107 54.4946L667.103 59.5766L658.727 77.0184L667.103 94.8162L678.107 99.8848L640.556 97.457V97.456Z" fill="#343A40"/>
<path d="M646.482 98.146H646.482C637.813 98.146 630.786 90.1496 630.786 77.1888C630.786 64.2279 637.813 56.2315 646.482 56.2315C646.531 56.2315 646.579 56.2318 646.627 56.2325L683.416 53.722L672.412 58.9771L664.036 77.0127L672.412 95.4163L683.416 100.657L646.482 98.147V98.146Z" fill="#FAB005"/>
<path d="M675.359 102.969H675.359C666.69 102.969 659.663 93.1323 659.663 77.1887C659.663 61.2451 666.69 51.4085 675.359 51.4085C675.407 51.4085 675.456 51.4089 675.504 51.4097L712.293 48.3215L701.289 54.7859L692.912 76.9721L701.289 99.611L712.293 106.058L675.359 102.97V102.969Z" fill="#343A40"/>
<ellipse cx="20.1355" cy="28.8743" rx="20.1355" ry="28.8743" transform="matrix(-1 0 0 1 732.426 48.3158)" fill="#C9E8FF"/>
<path d="M694.785 77.1847C694.785 84.6866 696.91 91.3653 700.21 96.0978C703.517 100.839 707.83 103.431 712.294 103.431C716.758 103.431 721.071 100.839 724.378 96.0978C727.678 91.3653 729.803 84.6866 729.803 77.1847C729.803 69.6829 727.678 63.0042 724.378 58.2717C721.071 53.5302 716.758 50.9388 712.294 50.9388C707.83 50.9388 703.517 53.5302 700.21 58.2717C696.91 63.0042 694.785 69.6829 694.785 77.1847Z" stroke="#343A40" stroke-width="5.24579"/>
<path opacity="0.3" d="M701.075 77.7506C699.537 77.7506 698.279 76.5023 698.402 74.9698C698.578 72.7685 698.964 70.6089 699.55 68.5532C700.382 65.6373 701.6 62.9878 703.136 60.756C704.672 58.5243 706.496 56.754 708.503 55.5461C709.501 54.9457 710.534 54.4901 711.588 54.1837C713.333 53.6766 714.834 55.1896 714.834 57.0066C714.834 58.8236 713.296 60.2255 711.636 60.9644C706.912 63.067 704.63 69.7219 704.026 74.9753C703.851 76.5026 702.612 77.7506 701.075 77.7506Z" fill="white"/>
<path d="M623.049 65.9526L611.668 66.805" stroke="#FCC419" stroke-width="6.99438" stroke-linecap="round"/>
<path d="M594.018 69.3672L587.471 69.8362" stroke="#FCC419" stroke-width="6.99438" stroke-linecap="round"/>
<path opacity="0.3" d="M693.436 56.1827L673.398 57.6906" stroke="white" stroke-width="6.99438" stroke-linecap="round"/>
<path d="M656.686 61.5604L642.712 62.4128" stroke="#FCC419" stroke-width="6.99438" stroke-linecap="round"/>
<path d="M641.226 85.8518C641.879 86.3332 642.672 86.5559 643.484 86.5559C647.224 86.5559 649.217 81.887 647.196 78.7396C638.36 64.9799 645.276 55.3531 652.168 55.0992C654.911 54.1129 651.328 48.2871 651.421 46.0821C651.146 42.8605 642.24 41.5826 633.307 50.9549C620.782 64.095 633.75 80.3425 641.226 85.8518Z" fill="#0588CB"/>
<path d="M26.7671 68.6877C25.9683 71.1725 27.9087 73.622 30.5187 73.6219C32.1072 73.6219 33.5247 72.6806 34.3344 71.314C40.9293 60.1831 55.1451 56.1 64.4575 69.071C81.9254 93.4015 33.3001 137.337 70.409 168.495C97.4283 191.181 151.928 177.069 151.928 141.888H124.65C114.322 157.117 87.8605 154.965 79.8612 143.289C70.409 129.492 83.9673 102.743 86.1627 85.1748C90.5627 49.966 40.2848 26.6392 26.7671 68.6877Z" fill="#0588CB"/>
<path d="M211.542 190.626C211.429 193.055 209.472 195.046 207.04 195.046C205.007 195.046 203.223 193.631 202.803 191.641C193.331 146.759 220.701 140.619 248.024 128.509C268.18 119.576 273.282 85.4554 273.282 59.7042H300.559C303.008 90.4795 297.576 136.106 259.628 148.485C236.467 156.04 213.24 154.062 211.542 190.626Z" fill="#0588CB"/>
<path d="M485.858 170.879C486.581 168.376 484.586 166.009 481.98 166.009C480.327 166.009 478.859 167.002 477.948 168.382C470.408 179.804 448.796 185.193 443.244 168.641C437.313 150.959 462.806 135.943 462.806 115.135C462.806 92.0531 449.189 78.239 449.189 57.6072H421.911C417.015 91.0038 430.981 100.175 433.102 111.812C435.397 124.402 426.807 131.571 422.96 146.938C409.253 201.691 474.176 211.334 485.858 170.879Z" fill="#0588CB"/>
</svg>
