<svg width="400" height="400" viewBox="0 0 400 400" fill="none" xmlns="http://www.w3.org/2000/svg">
<path fill-rule="evenodd" clip-rule="evenodd" d="M128.239 177.487C72.4222 236.359 127.214 296.756 152.423 310.585C162.079 315.882 177.064 316.242 186.359 313.553C195.655 310.863 203.687 305.64 211.281 300.145C253.663 269.477 375.385 254.005 289.665 170.112C210.332 54.2465 167.306 142.14 128.239 177.487Z" fill="url(#paint0_linear_7326_16609)"/>
<path d="M179.779 191.956C185.229 187.792 189.861 185.463 192.753 181.891C197.086 176.538 195.693 169.211 195.693 169.211C195.621 167.604 195.802 164.53 194.648 163.254C193.829 162.346 195.775 159.594 195.024 158.621C194.7 158.198 194.353 157.824 193.883 157.527C192.628 156.737 192.382 156.031 192.767 154.563C192.983 153.739 193.248 152.939 193.62 152.164C193.996 151.384 194.062 150.646 193.682 149.745C192.946 148.003 193.094 146.336 194.447 144.771C195.294 143.791 195.828 142.532 196.565 141.431C197.25 140.408 198.11 139.637 199.108 139.062C200.532 138.247 201.999 137.494 203.55 136.914C204.688 136.491 205.829 136.05 206.913 135.499C208.636 134.623 211.157 134.867 212.632 136.185C213.187 136.677 213.85 136.82 214.539 136.885C217.488 137.154 219.877 138.512 221.906 140.604C222.681 141.403 223.629 141.985 224.392 142.833C226.211 144.86 226.561 147.288 226.59 149.819C226.598 150.448 226.823 151.207 226.161 151.857C223.915 150.327 222.322 148.085 219.893 146.972C216.779 145.552 214.677 145.293 211.658 147.448C209.468 149.011 208.73 151.059 208.764 153.618C208.8 156.322 208.414 160.629 208.871 163.254C209.614 167.528 211.257 171.617 211.929 175.903C212.745 181.103 209.896 186.407 207.284 189.869C196.624 204.002 189.27 200.714 192.367 206.236" fill="#0588CB"/>
<g opacity="0.100006">
<path d="M179.779 191.956C185.229 187.793 189.861 185.463 192.752 181.891C197.086 176.538 195.693 169.211 195.693 169.211C195.621 167.604 195.801 164.53 194.648 163.254C193.829 162.346 195.775 159.594 195.024 158.621C194.7 158.198 194.353 157.824 193.883 157.527C192.628 156.738 192.382 156.031 192.767 154.563C192.983 153.739 193.248 152.939 193.62 152.164C193.996 151.385 194.062 150.646 193.682 149.745C192.945 148.003 193.094 146.336 194.447 144.772C195.294 143.791 195.828 142.532 196.565 141.432C197.031 140.735 197.579 140.155 198.196 139.674C198.196 139.674 199.407 140.158 198.196 142.861C192.622 155.299 200.608 166.967 198.801 175.08C196.994 183.193 194.313 190.511 186.813 191.943C179.314 193.374 179.779 191.956 179.779 191.956Z" fill="black"/>
</g>
<path d="M204.395 247.557C202.201 248.324 201.823 248.538 198.16 250.29C189.695 254.338 185.919 258.105 183.155 261.145C179.757 264.883 176.576 273.757 176.666 278.033C176.854 287.114 178.842 295.536 182.057 300.803C189.597 311.339 196.975 314.108 200.277 313.802C205.177 313.345 211.089 309.973 212.107 303.45C212.332 302.009 212.149 300.764 211.069 299.709C210.133 298.794 209.39 297.703 208.092 297.637C207.213 297.596 206.012 297.437 205.184 297.703C202.612 298.53 201.593 297 204.488 294.541C205.462 293.714 206.486 292.902 207.718 292.81C208.859 292.721 211.187 292.325 212.681 293.177C213.004 293.361 215.132 294.636 216.509 294.962C217.877 295.281 218.963 296.084 220.034 296.902C222.376 298.683 223.101 301.374 223.927 304C224.166 304.76 224.057 305.489 223.85 306.245C223.389 307.919 223.008 309.606 222.761 311.342C222.56 312.762 222.054 314.257 221.264 315.439C220.455 316.652 220.638 317.231 219.711 318.376C218.617 319.722 216.023 319.777 214.975 321.47C213.318 324.146 211.381 325.002 209.737 325.837C207.739 326.851 204.322 326.329 202.74 325.294C201.368 324.389 200.174 324.224 198.815 324.714C197.322 325.246 197.769 326.858 195.855 326.787C193.369 326.693 191.015 325.567 188.848 325.166C186.681 324.765 184.7 325.091 182.815 324.019C176.992 320.708 173.713 318.287 171.698 316.032C168.01 312.054 160.487 304.432 159.235 288.848C158.551 280.325 156.47 269.029 162.224 256.837C166.519 247.736 172.804 241.451 178.781 238.248C180.703 237.218 185.009 235.388 186.959 234.433C188.886 233.489 189.933 233.019 188.272 233.142C183.288 233.509 177.755 228.807 175.007 227.635C175.007 227.635 167.255 224.89 167.255 212.703C167.255 205.395 163.299 202.591 167.848 199.114" fill="#0588CB"/>
<path d="M309.082 267.919C308.895 266.407 306.997 265.661 306.695 264.544C306.33 263.196 307.488 261.515 306.279 260.006C304.996 257.407 303.126 258.596 301.968 256.97C301.103 255.755 299.61 255.065 298.649 254.034C291.535 248.236 278.799 244.914 273.262 253.773C269.941 258.757 268.8 260.126 268.12 266.243C267.781 273.04 269.387 272.6 269.941 272.6C274.37 264.847 284.337 256.542 292.089 264.847C293.75 266.509 294.304 268.17 294.857 270.385C295.411 274.814 294.38 278.136 292.165 282.012C285.521 292.533 270.569 293.222 262.188 291.578C257.901 290.738 254.436 288.41 250.561 286.194C247.238 283.98 244.947 281.689 242.178 278.919C237.749 273.382 239.07 274.906 236.018 269.432C235.294 267.973 231.495 260.242 230.802 258.686C228.724 254.017 228.153 249.277 228.722 246.697C229.256 244.276 228.124 242.05 229.789 240.064C230.877 238.759 232.064 237.679 233.384 236.67C236.098 234.592 239.241 233.738 242.571 233.494C246.669 233.191 250.72 233.838 254.778 234.267C259.801 234.804 264.719 234.422 269.638 233.173C271.85 232.612 273.991 231.833 276.035 230.979C277.756 230.259 279.599 229.585 281.154 228.453C282.661 227.357 284.117 226.182 285.7 225.212C288.151 223.711 289.949 221.499 291.869 219.481C293.535 217.736 294.887 215.633 296.169 213.538C298.681 209.441 300.314 205.01 301.341 200.337C302.387 195.575 302.488 190.768 301.985 185.929C301.545 181.713 300.55 177.597 298.953 173.711C298.127 171.701 297.483 169.506 295.95 167.788C295.47 167.248 295.14 166.575 294.793 165.93C284.875 153.405 267.089 145.871 245.541 152.253C235.068 155.355 226.248 165.298 217.362 179.94C214.933 183.94 211.851 189.708 209.149 192.074C209.149 192.074 209.149 192.065 209.15 192.048C209.144 192.057 209.138 192.067 209.131 192.074C205.823 195.76 191.925 195.983 188.409 192.493C186.893 190.988 185.113 190.91 182.978 187.072C182.267 185.792 179.713 181.794 179.404 180.164C178.607 173.559 176.342 170.97 176.684 161.563C176.795 158.483 176.903 158.458 177.214 155.414C177.37 153.891 179.106 150.523 179.353 149.017C180.252 143.737 182.801 140.646 183.821 135.548C184.841 131.469 185.545 129.485 185.545 128.465C187.585 124.386 188.095 119.798 186.225 115.647C185.823 114.927 185.806 114.42 185.938 113.5C186.249 111.325 184.693 106.326 182.379 105.55C180.404 104.884 178.737 103.761 177.673 101.891C177.581 101.73 177.439 101.059 177.279 100.971C174.715 99.5018 175.182 98.1575 172.052 98.7674C170.065 99.1558 169.264 100.505 169.987 102.398C169.987 102.398 170.892 102.568 171.076 102.902C173.769 107.791 173.881 115.224 173.768 120.166C173.743 121.332 173.692 122.511 173.538 123.681C173.376 128.465 168.425 136.799 166.911 140.374C165.468 143.783 162.09 151.898 161.946 154.324C158.672 179.735 167.255 193.129 167.255 213.856C167.255 217.173 169.395 224.543 175.007 227.635C177.624 229.076 183.288 233.509 188.272 233.142C189.933 233.02 188.844 233.043 186.918 233.987C184.968 234.942 180.703 237.219 178.781 238.248C172.804 241.451 166.519 247.737 162.224 256.837C156.47 269.029 158.551 280.326 159.235 288.848C160.487 304.432 168.01 312.055 171.698 316.033C173.713 318.288 176.992 320.708 182.815 324.02C184.7 325.091 186.681 324.766 188.848 325.167C191.015 325.567 193.369 326.694 195.855 326.787C197.769 326.859 197.322 325.247 198.815 324.714C200.174 324.225 201.368 324.39 202.74 325.294C204.322 326.329 207.739 326.852 209.737 325.837C211.381 325.002 213.318 324.147 214.975 321.471C216.023 319.777 218.617 319.722 219.711 318.376C220.638 317.232 220.455 316.652 221.264 315.44C222.054 314.257 222.56 312.762 222.761 311.343C223.008 309.607 223.389 307.92 223.85 306.245C224.057 305.489 224.166 304.761 223.927 304.001C223.101 301.374 222.376 298.683 220.034 296.902C218.963 296.085 217.877 295.281 216.509 294.963C215.132 294.637 213.004 293.361 212.681 293.177C211.187 292.325 208.859 292.722 207.718 292.811C206.486 292.903 205.462 293.714 204.488 294.541C201.593 297 202.612 298.53 205.184 297.704C206.012 297.437 207.213 297.596 208.092 297.638C209.39 297.704 210.133 298.794 211.069 299.709C212.149 300.765 212.332 302.009 212.107 303.45C211.089 309.974 205.177 313.345 200.277 313.802C196.975 314.108 189.597 311.34 182.057 300.804C178.842 295.536 176.854 287.115 176.666 278.033C176.576 273.757 179.757 264.884 183.155 261.146C185.919 258.106 191.183 253.466 198.16 250.29C201.592 248.728 204.395 247.558 204.395 247.558C204.395 247.558 204.276 247.682 204.476 249.046C205.074 253.139 205.053 254.94 206.224 258.163C207.53 261.758 209.668 267.427 210.31 268.956C211.204 271.09 213.962 275.639 216.612 279.867C221.233 287.239 231.665 296.084 235.249 298.228C253.742 309.286 263.267 307.612 267.419 307.517C276.915 307.299 288.147 303.985 291.285 301.84C295.253 299.128 298.418 296.18 300.79 293.044C301.977 291.476 303.033 289.893 303.762 288.206C306.865 281.027 306.669 277.569 307.034 275.929C307.39 274.336 309.452 270.893 309.082 267.919Z" fill="#0588CB"/>
<g opacity="0.100006">
<path d="M269.939 272.6C274.369 264.847 284.336 256.542 292.087 264.847C293.748 266.508 294.302 268.17 294.856 270.384C295.41 274.814 294.379 278.136 292.164 282.012C292.164 282.012 293.631 285.146 296.495 274.17C299.358 263.193 289.336 259.933 286.712 259.774C284.087 259.614 279.474 260.012 276.133 262.398C272.792 264.784 269.532 269.318 269.293 270.909C269.293 270.909 268.895 272.261 269.69 272.659" fill="black"/>
</g>
<path d="M282.282 155.333C271.575 149.264 257.524 147.434 243.576 152.921C242.187 153.468 240.897 154.086 239.643 154.806C236.875 156.394 238.591 163.587 249.426 159.433C291.363 143.353 303.28 193.559 301.467 182.307C300.392 175.637 296.87 163.604 282.282 155.333Z" fill="#2B95CB"/>
<g opacity="0.5">
<path d="M217.513 141.899C223.774 144.234 226.596 150.448 226.588 149.819C226.559 147.289 226.209 144.86 224.39 142.833C223.627 141.986 222.679 141.403 221.904 140.604C219.875 138.512 217.486 137.154 214.537 136.885C213.848 136.82 213.185 136.677 212.63 136.185C211.155 134.867 208.634 134.623 206.911 135.499C205.827 136.05 207.953 138.333 217.513 141.899Z" fill="#2B95CB"/>
</g>
<g opacity="0.100006">
<path d="M234.576 235.715C237.29 233.637 239.24 233.737 242.57 233.494C246.668 233.19 250.719 233.837 254.777 234.267C259.8 234.804 264.717 234.422 269.637 233.173C271.849 232.612 264.253 232.921 260.352 232.834C246.181 232.517 230.737 223.77 224.911 212.449C221.703 206.216 218.849 195.812 217.195 197.893C215.164 200.449 216.292 213.682 219.285 219.852C223.113 227.741 233.256 236.725 234.576 235.715Z" fill="black"/>
</g>
<g opacity="0.100006">
<path d="M167.254 209.762C166.613 214.285 167.087 223.678 175.006 227.635C177.678 228.971 183.89 233.53 188.874 233.163C188.874 233.163 191.24 231.487 198.202 229.259C201.295 228.269 200.119 228.019 198.982 228.277C192.911 229.652 174.051 225.303 173.892 208.622C173.887 208.178 174.041 206.294 173.681 206.099C171.555 204.945 170.199 204.069 167.723 201.855C163.333 197.928 167.254 209.762 167.254 209.762Z" fill="black"/>
</g>
<g opacity="0.100006">
<path d="M214.974 321.47C213.317 324.146 211.38 325.002 209.737 325.837C207.738 326.851 204.322 326.329 202.739 325.294C201.367 324.389 200.173 324.225 198.814 324.714C197.321 325.246 197.768 326.858 195.855 326.787C193.369 326.693 191.015 325.567 188.847 325.166C186.68 324.765 184.7 325.091 182.815 324.019C176.991 320.708 173.712 318.287 171.698 316.032C168.01 312.055 160.486 304.432 159.234 288.848C158.55 280.325 155.454 268.495 162.223 256.837C167.963 246.952 169.958 242.045 186.398 234.113C186.398 234.113 181.316 238.759 176.996 242.034C165.499 250.747 158.974 272.977 166.292 293.02C173.835 313.682 185.471 320.02 195.88 321.972C206.061 323.881 216.022 319.777 214.974 321.47Z" fill="black"/>
</g>
<g opacity="0.5">
<path d="M282.575 254.444C272.18 254.444 269.939 258.757 273.261 253.773C278.798 244.913 291.533 248.236 298.647 254.034C299.609 255.065 301.102 255.755 301.967 256.969C303.125 258.596 304.995 257.407 306.278 260.005C307.487 261.514 306.329 263.196 306.693 264.543C306.693 264.543 300.997 258.251 297.051 256.512C293.313 254.865 291.643 254.444 282.575 254.444Z" fill="#2B95CB"/>
</g>
<g opacity="0.100006">
<path d="M305.844 282.426C302.286 292.7 288.335 309.869 256.01 302.724C240.899 299.383 225.107 287.958 215.764 268.681C211.927 260.763 209.967 255.294 208.924 250.547C208.045 246.547 212.874 245.279 210.505 245.477C208.982 245.604 204.395 247.557 204.395 247.557C204.395 249.78 204.629 253.908 205.921 257.458C206.957 260.304 207.364 262.634 209.359 267.016C211.254 271.176 214.396 275.874 216.612 279.867C220.602 287.058 231.664 296.084 235.249 298.227C253.742 309.285 261.682 307.767 267.419 307.516C278.654 307.026 287.95 303.666 291.285 301.84C304.091 294.824 306.352 280.958 305.844 282.426Z" fill="black"/>
</g>
<path fill-rule="evenodd" clip-rule="evenodd" d="M283.877 212.507C293.536 205.446 295.642 191.892 288.581 182.233C281.521 172.574 267.967 170.469 258.308 177.529C248.649 184.59 246.543 198.143 253.604 207.803C260.664 217.461 274.218 219.567 283.877 212.507Z" fill="white"/>
<path fill-rule="evenodd" clip-rule="evenodd" d="M273.452 216.489C251.067 209.116 253.161 180.123 268.755 173.417C255.142 175.477 248.27 185.407 249.567 197.301C250.864 209.195 261.558 217.785 273.452 216.489Z" fill="#F5F5F5"/>
<path d="M286.18 190.868C284.32 188.324 280.747 187.77 278.206 189.627C275.662 191.487 275.104 195.06 276.965 197.604C278.824 200.148 282.397 200.701 284.941 198.841C287.482 196.983 288.04 193.411 286.18 190.868Z" fill="black"/>
<g opacity="0.100006">
<path d="M161.946 154.324C162.09 151.898 165.468 143.783 166.911 140.375C168.426 136.799 173.376 128.465 173.538 123.681C173.692 122.511 173.743 121.332 173.768 120.166C173.881 115.224 173.849 108.706 171.264 103.218C170.921 102.49 169.987 102.398 169.987 102.398C169.264 100.506 170.065 99.1558 172.052 98.7673C172.052 98.7673 170.154 103.163 174.724 106.902C185.223 115.492 179.019 127.9 174.246 140.785C169.474 153.67 167.725 165.674 167.725 173.237C167.725 180.322 169.709 189.561 172.974 195.826C176.474 202.541 172.974 208.53 172.974 208.53C172.974 208.53 173.409 207.08 164.342 190.916C157.867 177.871 161.921 154.771 161.921 154.771" fill="black"/>
</g>
<path d="M214.26 254.064C216.899 256.737 224.389 247.61 224.389 247.61C226.129 254.134 231.412 259.342 238.233 260.813C237.929 261.768 237.042 264.802 238.068 264.758C238.974 264.718 239.782 262.34 240.136 261.129C240.181 261.134 240.224 261.143 240.27 261.147C240.806 261.202 241.34 261.227 241.871 261.234C241.487 262.59 240.914 265.04 241.796 265.002C243.012 264.949 244.172 261.169 244.172 261.169L244.082 261.133C244.221 261.118 244.358 261.098 244.495 261.08C244.555 261.075 244.617 261.063 244.677 261.057C244.86 261.031 245.042 261.001 245.223 260.97C245.258 260.962 245.29 260.962 245.324 260.954C245.332 260.952 245.34 260.949 245.349 260.947C246.804 260.685 248.205 260.25 249.53 259.661C257.246 256.707 259.244 252.177 260.099 250.133C261.092 247.757 259.328 249.205 259.328 249.205L259.327 249.205C259.843 247.797 260.193 246.301 260.35 244.741C261.363 234.682 254.003 225.675 243.944 224.662C243.566 224.623 243.191 224.601 242.816 224.586L242.841 224.577C242.841 224.577 227.526 221.068 230.517 224.09C231.956 225.544 231.809 227.009 231.369 228.057C227.413 230.924 224.609 235.345 223.933 240.526C223.933 240.526 216.997 233.369 214.85 236.228C214.85 236.228 217.916 241.637 218.087 244.808C218.262 248.046 214.26 254.064 214.26 254.064Z" fill="#DB9814"/>
<path d="M214.26 254.064C216.899 256.737 224.389 247.61 224.389 247.61C226.129 254.134 231.412 259.342 238.233 260.813C237.929 261.768 237.042 264.802 238.068 264.758C238.974 264.718 239.782 262.34 240.136 261.129C240.181 261.134 240.224 261.143 240.27 261.147C240.806 261.202 241.34 261.227 241.871 261.234C241.487 262.59 240.914 265.04 241.796 265.002C243.012 264.949 244.172 261.169 244.172 261.169L244.082 261.133C244.221 261.118 244.358 261.098 244.495 261.08C244.555 261.075 244.617 261.063 244.677 261.057C244.86 261.031 245.042 261.001 245.223 260.97C245.258 260.962 245.29 260.962 245.324 260.954C245.332 260.952 245.34 260.949 245.349 260.947C253.612 259.036 257.124 255.554 259.091 252.208C242.932 265.982 227.457 256.403 226.205 245.084C225.366 237.501 227.184 231.659 225.795 234.474C224.857 236.376 224.206 238.437 223.933 240.526C223.933 240.526 216.997 233.369 214.85 236.228C214.85 236.228 217.916 241.637 218.087 244.808C218.262 248.046 214.26 254.064 214.26 254.064Z" fill="#BF8512"/>
<path d="M248.368 233.696C253.318 234.194 256.939 238.626 256.441 243.576C255.942 248.526 251.51 252.148 246.56 251.649C241.61 251.151 237.989 246.718 238.487 241.768C238.986 236.819 243.418 233.197 248.368 233.696Z" fill="#F5F5F5"/>
<path d="M249.162 234.67C253.624 235.119 256.888 239.114 256.439 243.576C255.99 248.038 251.994 251.302 247.532 250.853C243.071 250.404 239.807 246.408 240.256 241.946C240.706 237.485 244.701 234.221 249.162 234.67Z" fill="white"/>
<path d="M254.578 240.381C254.736 238.816 253.595 237.419 252.029 237.261C250.463 237.104 249.067 238.245 248.909 239.811C248.751 241.376 249.893 242.773 251.458 242.931C253.024 243.088 254.421 241.947 254.578 240.381Z" fill="black"/>
<path d="M224.389 247.61C224.389 247.61 219.202 232.743 214.85 236.228C214.85 236.228 217.916 241.637 218.087 244.808C218.262 248.046 214.26 254.064 214.26 254.064C216.899 256.737 224.389 247.61 224.389 247.61Z" fill="#A67310"/>
<path d="M314.18 230.811C315.916 232.571 320.845 226.565 320.845 226.565C321.99 230.857 325.466 234.284 329.955 235.253C329.755 235.881 329.171 237.878 329.846 237.848C330.442 237.822 330.974 236.257 331.207 235.46C331.237 235.463 331.265 235.47 331.295 235.473C331.649 235.508 332 235.525 332.349 235.53C332.096 236.422 331.719 238.034 332.3 238.008C333.1 237.974 333.863 235.487 333.863 235.487L333.804 235.463C333.895 235.453 333.985 235.44 334.076 235.429C334.115 235.425 334.156 235.417 334.195 235.413C334.316 235.396 334.436 235.376 334.555 235.356C334.577 235.351 334.598 235.351 334.621 235.345C334.626 235.344 334.632 235.342 334.637 235.341C335.595 235.169 336.517 234.882 337.389 234.494C342.466 232.551 343.781 229.569 344.343 228.224C344.997 226.661 343.836 227.614 343.836 227.614L343.835 227.614C344.175 226.687 344.405 225.704 344.508 224.677C345.175 218.058 340.332 212.13 333.713 211.464C333.464 211.438 333.217 211.424 332.97 211.414L332.987 211.408C332.987 211.408 322.909 209.1 324.878 211.088C325.824 212.045 325.728 213.009 325.438 213.698C322.835 215.585 320.99 218.494 320.545 221.903C320.545 221.903 315.981 217.193 314.568 219.075C314.568 219.075 316.586 222.634 316.698 224.721C316.814 226.851 314.18 230.811 314.18 230.811Z" fill="#DB831B"/>
<path d="M314.18 230.811C315.916 232.571 320.845 226.565 320.845 226.565C321.99 230.857 325.466 234.284 329.955 235.253C329.755 235.881 329.171 237.878 329.846 237.848C330.442 237.822 330.974 236.257 331.207 235.46C331.237 235.463 331.265 235.47 331.295 235.473C331.649 235.508 332 235.525 332.349 235.53C332.096 236.422 331.719 238.034 332.3 238.008C333.1 237.974 333.863 235.487 333.863 235.487L333.804 235.463C333.895 235.453 333.985 235.44 334.076 235.429C334.115 235.425 334.156 235.417 334.195 235.413C334.316 235.396 334.436 235.376 334.555 235.356C334.577 235.351 334.598 235.351 334.621 235.345C334.626 235.344 334.632 235.342 334.637 235.341C340.075 234.083 342.386 231.792 343.68 229.59C333.047 238.654 322.864 232.351 322.04 224.902C321.488 219.913 322.684 216.068 321.77 217.921C321.152 219.172 320.724 220.528 320.545 221.903C320.545 221.903 315.981 217.193 314.568 219.075C314.568 219.075 316.586 222.634 316.698 224.721C316.814 226.851 314.18 230.811 314.18 230.811Z" fill="#D9811A"/>
<path d="M336.624 217.408C339.881 217.736 342.264 220.653 341.936 223.91C341.608 227.167 338.692 229.55 335.434 229.222C332.177 228.894 329.794 225.978 330.122 222.72C330.45 219.463 333.367 217.08 336.624 217.408Z" fill="#F5F5F5"/>
<path d="M337.147 218.049C340.083 218.345 342.231 220.974 341.936 223.91C341.64 226.846 339.011 228.994 336.075 228.698C333.14 228.402 330.992 225.774 331.287 222.837C331.582 219.902 334.212 217.754 337.147 218.049Z" fill="white"/>
<path d="M340.711 221.808C340.814 220.778 340.064 219.858 339.033 219.755C338.003 219.651 337.084 220.402 336.98 221.432C336.876 222.462 337.627 223.382 338.658 223.486C339.688 223.589 340.607 222.838 340.711 221.808Z" fill="black"/>
<path d="M320.845 226.565C320.845 226.565 317.432 216.781 314.568 219.075C314.568 219.075 316.586 222.635 316.698 224.721C316.814 226.852 314.18 230.811 314.18 230.811C315.916 232.571 320.845 226.565 320.845 226.565Z" fill="#B36A16"/>
<path d="M179.779 191.956C185.229 187.792 189.861 185.463 192.753 181.891C197.086 176.538 195.693 169.211 195.693 169.211C195.621 167.604 195.802 164.53 194.648 163.254C193.829 162.346 195.775 159.594 195.024 158.621C194.7 158.198 194.353 157.824 193.883 157.527C192.628 156.737 192.382 156.031 192.767 154.563C192.983 153.739 193.248 152.939 193.62 152.164C193.996 151.384 194.062 150.646 193.682 149.745C192.946 148.003 193.094 146.336 194.447 144.771C195.294 143.791 195.828 142.532 196.565 141.431C197.25 140.408 198.11 139.637 199.108 139.062C200.532 138.247 201.999 137.494 203.55 136.914C204.688 136.491 205.829 136.05 206.913 135.499C208.636 134.623 211.157 134.867 212.632 136.185C213.187 136.677 213.85 136.82 214.539 136.885C217.488 137.154 219.877 138.512 221.906 140.604C222.681 141.403 223.629 141.985 224.392 142.833C226.211 144.86 226.561 147.288 226.59 149.819C226.598 150.448 226.823 151.207 226.161 151.857C223.915 150.327 222.322 148.085 219.893 146.972C216.779 145.552 214.677 145.293 211.658 147.448C209.468 149.011 208.73 151.059 208.764 153.618C208.8 156.322 208.414 160.629 208.871 163.254C209.614 167.528 211.257 171.617 211.929 175.903C212.745 181.103 209.896 186.407 207.284 189.869C196.624 204.002 189.27 200.714 192.367 206.236" fill="#0588CB"/>
<g opacity="0.100006">
<path d="M179.779 191.956C185.229 187.793 189.861 185.463 192.752 181.891C197.086 176.538 195.693 169.211 195.693 169.211C195.621 167.604 195.801 164.53 194.648 163.254C193.829 162.346 195.775 159.594 195.024 158.621C194.7 158.198 194.353 157.824 193.883 157.527C192.628 156.738 192.382 156.031 192.767 154.563C192.983 153.739 193.248 152.939 193.62 152.164C193.996 151.385 194.062 150.646 193.682 149.745C192.945 148.003 193.094 146.336 194.447 144.772C195.294 143.791 195.828 142.532 196.565 141.432C197.031 140.735 197.579 140.155 198.196 139.674C198.196 139.674 199.407 140.158 198.196 142.861C192.622 155.299 200.608 166.967 198.801 175.08C196.994 183.193 194.313 190.511 186.813 191.943C179.314 193.374 179.779 191.956 179.779 191.956Z" fill="black"/>
</g>
<path d="M204.395 247.557C202.201 248.324 201.823 248.538 198.16 250.29C189.695 254.338 185.919 258.105 183.155 261.145C179.757 264.883 176.576 273.757 176.666 278.033C176.854 287.114 178.842 295.536 182.057 300.803C189.597 311.339 196.975 314.108 200.277 313.802C205.177 313.345 211.089 309.973 212.107 303.45C212.332 302.009 212.149 300.764 211.069 299.709C210.133 298.794 209.39 297.703 208.092 297.637C207.213 297.596 206.012 297.437 205.184 297.703C202.612 298.53 201.593 297 204.488 294.541C205.462 293.714 206.486 292.902 207.718 292.81C208.859 292.721 211.187 292.325 212.681 293.177C213.004 293.361 215.132 294.636 216.509 294.962C217.877 295.281 218.963 296.084 220.034 296.902C222.376 298.683 223.101 301.374 223.927 304C224.166 304.76 224.057 305.489 223.85 306.245C223.389 307.919 223.008 309.606 222.761 311.342C222.56 312.762 222.054 314.257 221.264 315.439C220.455 316.652 220.638 317.231 219.711 318.376C218.617 319.722 216.023 319.777 214.975 321.47C213.318 324.146 211.381 325.002 209.737 325.837C207.739 326.851 204.322 326.329 202.74 325.294C201.368 324.389 200.174 324.224 198.815 324.714C197.322 325.246 197.769 326.858 195.855 326.787C193.369 326.693 191.015 325.567 188.848 325.166C186.681 324.765 184.7 325.091 182.815 324.019C176.992 320.708 173.713 318.287 171.698 316.032C168.01 312.054 160.487 304.432 159.235 288.848C158.551 280.325 156.47 269.029 162.224 256.837C166.519 247.736 172.804 241.451 178.781 238.248C180.703 237.218 185.009 235.388 186.959 234.433C188.886 233.489 189.933 233.019 188.272 233.142C183.288 233.509 177.755 228.807 175.007 227.635C175.007 227.635 167.255 224.89 167.255 212.703C167.255 205.395 163.299 202.591 167.848 199.114" fill="#0588CB"/>
<path d="M309.082 267.919C308.895 266.407 306.997 265.661 306.695 264.544C306.33 263.196 307.488 261.515 306.279 260.006C304.996 257.407 303.126 258.596 301.968 256.97C301.103 255.755 299.61 255.065 298.649 254.034C291.535 248.236 278.799 244.914 273.262 253.773C269.941 258.757 268.8 260.126 268.12 266.243C267.781 273.04 269.387 272.6 269.941 272.6C274.37 264.847 284.337 256.542 292.089 264.847C293.75 266.509 294.304 268.17 294.857 270.385C295.411 274.814 294.38 278.136 292.165 282.012C285.521 292.533 270.569 293.222 262.188 291.578C257.901 290.738 254.436 288.41 250.561 286.194C247.238 283.98 244.947 281.689 242.178 278.919C237.749 273.382 239.07 274.906 236.018 269.432C235.294 267.973 231.495 260.242 230.802 258.686C228.724 254.017 228.153 249.277 228.722 246.697C229.256 244.276 228.124 242.05 229.789 240.064C230.877 238.759 232.064 237.679 233.384 236.67C236.098 234.592 239.241 233.738 242.571 233.494C246.669 233.191 250.72 233.838 254.778 234.267C259.801 234.804 264.719 234.422 269.638 233.173C271.85 232.612 273.991 231.833 276.035 230.979C277.756 230.259 279.599 229.585 281.154 228.453C282.661 227.357 284.117 226.182 285.7 225.212C288.151 223.711 289.949 221.499 291.869 219.481C293.535 217.736 294.887 215.633 296.169 213.538C298.681 209.441 300.314 205.01 301.341 200.337C302.387 195.575 302.488 190.768 301.985 185.929C301.545 181.713 300.55 177.597 298.953 173.711C298.127 171.701 297.483 169.506 295.95 167.788C295.47 167.248 295.14 166.575 294.793 165.93C284.875 153.405 267.089 145.871 245.541 152.253C235.068 155.355 226.248 165.298 217.362 179.94C214.933 183.94 211.851 189.708 209.149 192.074C209.149 192.074 209.149 192.065 209.15 192.048C209.144 192.057 209.138 192.067 209.131 192.074C205.823 195.76 191.925 195.983 188.409 192.493C186.893 190.988 185.113 190.91 182.978 187.072C182.267 185.792 179.713 181.794 179.404 180.164C178.607 173.559 176.342 170.97 176.684 161.563C176.795 158.483 176.903 158.458 177.214 155.414C177.37 153.891 179.106 150.523 179.353 149.017C180.252 143.737 182.801 140.646 183.821 135.548C184.841 131.469 185.545 129.485 185.545 128.465C187.585 124.386 188.095 119.798 186.225 115.647C185.823 114.927 185.806 114.42 185.938 113.5C186.249 111.325 184.693 106.326 182.379 105.55C180.404 104.884 178.737 103.761 177.673 101.891C177.581 101.73 177.439 101.059 177.279 100.971C174.715 99.5018 175.182 98.1575 172.052 98.7674C170.065 99.1558 169.264 100.505 169.987 102.398C169.987 102.398 170.892 102.568 171.076 102.902C173.769 107.791 173.881 115.224 173.768 120.166C173.743 121.332 173.692 122.511 173.538 123.681C173.376 128.465 168.425 136.799 166.911 140.374C165.468 143.783 162.09 151.898 161.946 154.324C158.919 177.822 167.255 192.614 167.255 213.856C167.255 217.173 169.395 224.543 175.007 227.635C177.624 229.076 183.288 233.509 188.272 233.142C189.933 233.02 188.844 233.043 186.918 233.987C184.968 234.942 180.703 237.219 178.781 238.248C172.804 241.451 166.519 247.737 162.224 256.837C156.47 269.029 158.551 280.326 159.235 288.848C160.487 304.432 168.01 312.055 171.698 316.033C173.713 318.288 176.992 320.708 182.815 324.02C184.7 325.091 186.681 324.766 188.848 325.167C191.015 325.567 193.369 326.694 195.855 326.787C197.769 326.859 197.322 325.247 198.815 324.714C200.174 324.225 201.368 324.39 202.74 325.294C204.322 326.329 207.739 326.852 209.737 325.837C211.381 325.002 213.318 324.147 214.975 321.471C216.023 319.777 218.617 319.722 219.711 318.376C220.638 317.232 220.455 316.652 221.264 315.44C222.054 314.257 222.56 312.762 222.761 311.343C223.008 309.607 223.389 307.92 223.85 306.245C224.057 305.489 224.166 304.761 223.927 304.001C223.101 301.374 222.376 298.683 220.034 296.902C218.963 296.085 217.877 295.281 216.509 294.963C215.132 294.637 213.004 293.361 212.681 293.177C211.187 292.325 208.859 292.722 207.718 292.811C206.486 292.903 205.462 293.714 204.488 294.541C201.593 297 202.612 298.53 205.184 297.704C206.012 297.437 207.213 297.596 208.092 297.638C209.39 297.704 210.133 298.794 211.069 299.709C212.149 300.765 212.332 302.009 212.107 303.45C211.089 309.974 205.177 313.345 200.277 313.802C196.975 314.108 189.597 311.34 182.057 300.804C178.842 295.536 176.854 287.115 176.666 278.033C176.576 273.757 179.757 264.884 183.155 261.146C185.919 258.106 191.183 253.466 198.16 250.29C201.592 248.728 204.395 247.558 204.395 247.558C204.395 247.558 204.276 247.682 204.476 249.046C205.074 253.139 205.053 254.94 206.224 258.163C207.53 261.758 209.668 267.427 210.31 268.956C211.204 271.09 213.962 275.639 216.612 279.867C221.233 287.239 231.665 296.084 235.249 298.228C253.742 309.286 263.267 307.612 267.419 307.517C276.915 307.299 288.147 303.985 291.285 301.84C295.253 299.128 298.418 296.18 300.79 293.044C301.977 291.476 303.033 289.893 303.762 288.206C306.865 281.027 306.669 277.569 307.034 275.929C307.39 274.336 309.452 270.893 309.082 267.919Z" fill="#0588CB"/>
<g opacity="0.100006">
<path d="M269.939 272.6C274.369 264.847 284.336 256.542 292.087 264.847C293.748 266.508 294.302 268.17 294.856 270.384C295.41 274.814 294.379 278.136 292.164 282.012C292.164 282.012 293.631 285.146 296.495 274.17C299.358 263.193 289.336 259.933 286.712 259.774C284.087 259.614 279.474 260.012 276.133 262.398C272.792 264.784 269.532 269.318 269.293 270.909C269.293 270.909 268.895 272.261 269.69 272.659" fill="black"/>
</g>
<path d="M282.282 155.333C271.575 149.264 257.524 147.434 243.576 152.921C242.187 153.468 240.897 154.086 239.643 154.806C236.875 156.394 238.591 163.587 249.426 159.433C291.363 143.353 303.28 193.559 301.467 182.307C300.392 175.637 296.87 163.604 282.282 155.333Z" fill="#2B95CB"/>
<g opacity="0.100006">
<path d="M309.082 267.919C308.895 266.407 306.997 265.661 306.695 264.544C306.33 263.196 307.488 261.515 306.279 260.006C304.996 257.407 303.126 258.596 301.968 256.97C301.103 255.755 299.61 255.065 298.649 254.034C291.535 248.236 278.799 244.914 273.262 253.773C269.941 258.757 268.8 260.126 268.12 266.243C267.781 273.04 269.387 272.6 269.941 272.6C274.37 264.847 284.337 256.542 292.089 264.847C293.75 266.509 294.304 268.17 294.857 270.385C295.411 274.814 294.38 278.136 292.165 282.012C285.521 292.533 272.97 293.005 262.666 291.578C258.278 290.971 254.436 288.41 250.561 286.194C247.238 283.98 244.947 281.689 242.178 278.919C237.749 273.382 239.07 274.906 236.018 269.432C235.294 267.973 231.495 260.242 230.802 258.686C228.724 254.017 228.153 249.277 228.722 246.697C229.256 244.276 228.124 242.05 229.789 240.064C230.867 238.773 232.042 237.702 233.346 236.7C233.544 236.754 233.705 236.751 233.811 236.67C236.526 234.592 239.669 233.738 242.998 233.494C243.504 233.457 244.008 233.435 244.512 233.424C247.95 233.396 251.362 233.906 254.778 234.267C256.157 234.414 257.528 234.486 258.894 234.496C262.647 234.563 266.356 234.115 270.066 233.173C272.277 232.612 274.418 231.833 276.462 230.979C278.183 230.259 280.026 229.585 281.581 228.453C283.089 227.357 284.545 226.182 286.127 225.212C288.578 223.711 290.377 221.499 292.296 219.481C293.962 217.736 295.314 215.633 296.596 213.538C296.596 213.538 299.15 206.086 295.332 210.62C291.514 215.153 287.109 221.18 273.38 225.414C259.71 229.629 242.692 224.989 234.29 213.722C231.441 209.9 228.213 204.032 226.633 198.385C225.476 194.251 224.063 187.833 224.063 183.107C224.063 178.688 224.063 172.701 224.39 169.406C221.169 173.582 218.74 177.455 218.11 178.717C217.346 180.248 212.876 187.211 211.993 188.721C211.264 189.968 209.749 191.553 208.668 192.498C207.254 193.732 205.723 193.973 203.556 194.508C202.966 194.653 206.064 191.967 207.444 189.651C210.01 186.187 212.728 180.997 211.929 175.904C211.257 171.617 209.614 167.528 208.87 163.255C208.414 160.629 208.8 156.322 208.764 153.618C208.73 151.06 209.468 149.011 211.657 147.448C214.677 145.293 216.778 145.552 219.893 146.973C222.321 148.085 223.915 150.326 226.161 151.857C226.823 151.207 226.597 150.448 226.59 149.819C226.561 147.289 226.211 144.86 224.392 142.834C223.629 141.985 222.681 141.403 221.906 140.604C219.877 138.512 217.488 137.154 214.539 136.885C213.85 136.82 213.186 136.677 212.632 136.186C211.157 134.867 208.636 134.624 206.913 135.499C205.829 136.05 204.688 136.491 203.55 136.914C201.999 137.494 200.532 138.247 199.108 139.062C198.109 139.638 197.249 140.409 196.565 141.431C195.828 142.531 195.294 143.791 194.447 144.772C193.094 146.336 192.945 148.003 193.682 149.745C194.062 150.646 193.996 151.385 193.62 152.164C193.248 152.939 192.982 153.739 192.767 154.563C192.382 156.032 192.628 156.738 193.883 157.527C194.353 157.824 194.7 158.198 195.024 158.622C195.775 159.594 193.829 162.346 194.648 163.255C195.801 164.53 195.621 167.604 195.693 169.211C195.693 169.211 198.187 178.819 188.484 185.739L184.314 188.681C184.314 188.681 179.492 180.204 179.247 179.032C177.869 172.432 176.62 169.743 176.684 161.563C176.708 158.48 176.903 158.458 177.214 155.414C177.37 153.891 179.106 150.523 179.353 149.017C180.252 143.737 182.801 140.646 183.821 135.548C184.841 131.469 185.545 129.485 185.545 128.465C187.585 124.386 188.095 119.798 186.225 115.647C185.823 114.927 185.806 114.42 185.938 113.5C186.249 111.325 184.693 106.326 182.379 105.55C180.404 104.884 178.737 103.761 177.673 101.891C177.581 101.73 177.439 101.059 177.279 100.971C174.715 99.5018 175.182 98.1575 172.052 98.7674C170.065 99.1558 169.264 100.505 169.987 102.398C169.987 102.398 171.052 102.713 171.246 103.218C173.433 108.905 173.881 115.224 173.768 120.166C173.743 121.332 173.692 122.511 173.538 123.681C173.376 128.465 168.425 136.799 166.911 140.374C165.468 143.783 162.09 151.898 161.946 154.324C159.685 171.869 165.32 185.235 165.32 202.481C165.32 214.669 168.404 222.952 173.058 226.464C176.058 228.729 183.288 233.509 188.272 233.142C189.933 233.02 188.325 233.17 186.399 234.113C184.449 235.068 180.703 237.219 178.781 238.248C172.804 241.451 166.519 247.737 162.224 256.837C156.47 269.029 158.551 280.326 159.235 288.848C160.487 304.432 168.01 312.055 171.698 316.033C173.713 318.288 176.992 320.708 182.815 324.02C184.7 325.091 186.681 324.766 188.848 325.167C191.015 325.567 193.37 326.694 195.855 326.787C197.769 326.859 197.322 325.247 198.815 324.714C200.174 324.225 201.368 324.39 202.74 325.294C204.322 326.329 207.739 326.852 209.737 325.837C211.381 325.002 213.318 324.147 214.975 321.471C216.023 319.777 218.617 319.722 219.711 318.376C220.638 317.232 220.455 316.652 221.264 315.44C222.054 314.257 222.56 312.762 222.761 311.343C223.008 309.607 223.389 307.92 223.85 306.245C224.057 305.489 224.166 304.761 223.927 304.001C223.101 301.374 222.376 298.683 220.034 296.902C218.963 296.085 217.877 295.281 216.509 294.963C215.132 294.637 213.004 293.361 212.681 293.177C211.187 292.325 208.859 292.722 207.718 292.811C206.486 292.903 205.462 293.714 204.488 294.541C201.593 297 202.612 298.53 205.184 297.704C206.012 297.437 207.213 297.596 208.092 297.638C209.39 297.704 210.133 298.794 211.069 299.709C212.149 300.765 212.332 302.009 212.107 303.45C211.089 309.974 205.177 313.345 200.277 313.802C196.975 314.108 189.597 311.34 182.057 300.804C178.842 295.536 176.854 287.115 176.666 278.033C176.576 273.757 179.757 264.884 183.155 261.146C185.919 258.106 192.975 252.711 198.16 250.29C202.246 248.382 202.201 248.324 204.395 247.558C204.395 247.558 204.356 247.964 204.462 248.922C204.921 253.089 205.304 255.957 206.32 258.497C207.675 261.886 209.35 267.144 210.106 268.62C211.285 270.921 214.037 275.593 216.612 279.867C220.783 286.789 231.665 296.084 235.249 298.228C253.742 309.286 260.792 307.726 267.419 307.517C276.912 307.217 288.147 303.985 291.285 301.84C295.253 299.128 298.418 296.18 300.79 293.044C301.977 291.476 303.033 289.893 303.762 288.206C306.865 281.027 306.669 277.569 307.034 275.929C307.39 274.336 309.452 270.893 309.082 267.919Z" fill="black"/>
</g>
<g opacity="0.5">
<path d="M217.513 141.899C223.774 144.234 226.596 150.448 226.588 149.819C226.559 147.289 226.209 144.86 224.39 142.833C223.627 141.986 222.679 141.403 221.904 140.604C219.875 138.512 217.486 137.154 214.537 136.885C213.848 136.82 213.185 136.677 212.63 136.185C211.155 134.867 208.634 134.623 206.911 135.499C205.827 136.05 207.953 138.333 217.513 141.899Z" fill="#2B95CB"/>
</g>
<g opacity="0.100006">
<path d="M234.576 235.715C237.29 233.637 239.24 233.737 242.57 233.494C246.668 233.19 250.719 233.837 254.777 234.267C259.8 234.804 264.717 234.422 269.637 233.173C271.849 232.612 264.253 232.921 260.352 232.834C246.181 232.517 230.737 223.77 224.911 212.449C221.703 206.216 218.849 195.812 217.195 197.893C215.164 200.449 216.292 213.682 219.285 219.852C223.113 227.741 233.256 236.725 234.576 235.715Z" fill="black"/>
</g>
<g opacity="0.100006">
<path d="M214.974 321.47C213.317 324.146 211.38 325.002 209.737 325.837C207.738 326.851 204.322 326.329 202.739 325.294C201.367 324.389 200.173 324.225 198.814 324.714C197.321 325.246 197.768 326.858 195.855 326.787C193.369 326.693 191.015 325.567 188.847 325.166C186.68 324.765 184.7 325.091 182.815 324.019C176.991 320.708 173.712 318.287 171.698 316.032C168.01 312.055 160.486 304.432 159.234 288.848C158.55 280.325 155.454 268.495 162.223 256.837C167.963 246.952 169.958 242.045 186.398 234.113C186.398 234.113 181.316 238.759 176.996 242.034C165.499 250.747 158.974 272.977 166.292 293.02C173.835 313.682 185.471 320.02 195.88 321.972C206.061 323.881 216.022 319.777 214.974 321.47Z" fill="black"/>
</g>
<g opacity="0.5">
<path d="M282.575 254.444C272.18 254.444 269.939 258.757 273.261 253.773C278.798 244.913 291.533 248.236 298.647 254.034C299.609 255.065 301.102 255.755 301.967 256.969C303.125 258.596 304.995 257.407 306.278 260.005C307.487 261.514 306.329 263.196 306.693 264.543C306.693 264.543 300.997 258.251 297.051 256.512C293.313 254.865 291.643 254.444 282.575 254.444Z" fill="#2B95CB"/>
</g>
<g opacity="0.100006">
<path d="M305.844 282.426C302.286 292.7 288.335 309.869 256.01 302.724C240.899 299.383 225.107 287.958 215.764 268.681C211.927 260.763 209.967 255.294 208.924 250.547C208.045 246.547 212.874 245.279 210.505 245.477C208.982 245.604 204.395 247.557 204.395 247.557C204.395 249.78 204.629 253.908 205.921 257.458C206.957 260.304 207.364 262.634 209.359 267.016C211.254 271.176 214.396 275.874 216.612 279.867C220.602 287.058 231.664 296.084 235.249 298.227C253.742 309.285 261.682 307.767 267.419 307.516C278.654 307.026 287.95 303.666 291.285 301.84C304.091 294.824 306.352 280.958 305.844 282.426Z" fill="black"/>
</g>
<path fill-rule="evenodd" clip-rule="evenodd" d="M283.877 212.507C293.536 205.446 295.642 191.892 288.581 182.233C281.521 172.574 267.967 170.469 258.308 177.529C248.649 184.59 246.543 198.143 253.604 207.803C260.664 217.461 274.218 219.567 283.877 212.507Z" fill="white"/>
<path fill-rule="evenodd" clip-rule="evenodd" d="M273.452 216.489C251.067 209.116 253.161 180.123 268.755 173.417C255.142 175.477 248.27 185.407 249.567 197.301C250.864 209.195 261.558 217.785 273.452 216.489Z" fill="#F5F5F5"/>
<path d="M286.18 190.868C284.32 188.324 280.747 187.77 278.206 189.627C275.662 191.487 275.104 195.06 276.965 197.604C278.824 200.148 282.397 200.701 284.941 198.841C287.482 196.983 288.04 193.411 286.18 190.868Z" fill="black"/>
<path d="M175.007 227.635C159.704 219.988 169.841 200.719 164.342 190.915C157.867 177.871 161.921 154.771 161.921 154.771L161.946 154.324C162.09 151.898 165.468 143.783 166.911 140.375C167.304 139.446 167.929 138.197 168.641 136.773C170.673 132.711 173.418 127.223 173.538 123.681C173.692 122.511 173.743 121.331 173.768 120.165C173.881 115.223 173.849 108.706 171.264 103.218C170.921 102.489 169.987 102.397 169.987 102.397C169.264 100.506 170.065 99.1556 172.053 98.7671C172.053 98.7671 170.154 103.163 174.724 106.902C184.217 114.669 180.054 125.559 175.641 137.1C175.173 138.322 174.703 139.551 174.246 140.785C169.474 153.67 167.725 165.674 167.725 173.236C167.725 180.322 169.709 189.561 172.974 195.825C175.209 200.113 174.589 204.105 173.85 206.431C173.951 206.893 173.921 207.713 173.903 208.235C173.897 208.401 173.892 208.538 173.893 208.622C174.053 225.303 192.912 229.652 198.983 228.277C200.12 228.019 201.296 228.269 198.203 229.259C191.241 231.487 188.875 233.163 188.875 233.163C184.951 233.452 180.266 230.687 177.146 228.846C176.303 228.349 175.575 227.919 175.007 227.635Z" fill="black" fill-opacity="0.1"/>
<path d="M214.26 254.064C216.899 256.737 224.389 247.61 224.389 247.61C226.129 254.134 231.412 259.342 238.233 260.813C237.929 261.768 237.042 264.802 238.068 264.758C238.974 264.718 239.782 262.34 240.136 261.129C240.181 261.134 240.224 261.143 240.27 261.147C240.806 261.202 241.34 261.227 241.871 261.234C241.487 262.59 240.914 265.04 241.796 265.002C243.012 264.949 244.172 261.169 244.172 261.169L244.082 261.133C244.221 261.118 244.358 261.098 244.495 261.08C244.555 261.075 244.617 261.063 244.677 261.057C244.86 261.031 245.042 261.001 245.223 260.97C245.258 260.962 245.29 260.962 245.324 260.954C245.332 260.952 245.34 260.949 245.349 260.947C246.804 260.685 248.205 260.25 249.53 259.661C257.246 256.707 259.244 252.177 260.099 250.133C261.092 247.757 259.328 249.205 259.328 249.205L259.327 249.205C259.843 247.797 260.193 246.301 260.35 244.741C261.363 234.682 254.003 225.675 243.944 224.662C243.566 224.623 243.191 224.601 242.816 224.586L242.841 224.577C242.841 224.577 227.526 221.068 230.517 224.09C231.956 225.544 231.809 227.009 231.369 228.057C227.413 230.924 224.609 235.345 223.933 240.526C223.933 240.526 216.997 233.369 214.85 236.228C214.85 236.228 217.916 241.637 218.087 244.808C218.262 248.046 214.26 254.064 214.26 254.064Z" fill="#DB9814"/>
<path d="M214.26 254.064C216.899 256.737 224.389 247.61 224.389 247.61C226.129 254.134 231.412 259.342 238.233 260.813C237.929 261.768 237.042 264.802 238.068 264.758C238.974 264.718 239.782 262.34 240.136 261.129C240.181 261.134 240.224 261.143 240.27 261.147C240.806 261.202 241.34 261.227 241.871 261.234C241.487 262.59 240.914 265.04 241.796 265.002C243.012 264.949 244.172 261.169 244.172 261.169L244.082 261.133C244.221 261.118 244.358 261.098 244.495 261.08C244.555 261.075 244.617 261.063 244.677 261.057C244.86 261.031 245.042 261.001 245.223 260.97C245.258 260.962 245.29 260.962 245.324 260.954C245.332 260.952 245.34 260.949 245.349 260.947C253.612 259.036 257.124 255.554 259.091 252.208C242.932 265.982 227.457 256.403 226.205 245.084C225.366 237.501 227.184 231.659 225.795 234.474C224.857 236.376 224.206 238.437 223.933 240.526C223.933 240.526 216.997 233.369 214.85 236.228C214.85 236.228 217.916 241.637 218.087 244.808C218.262 248.046 214.26 254.064 214.26 254.064Z" fill="#BF8512"/>
<path d="M248.368 233.696C253.318 234.194 256.939 238.626 256.441 243.576C255.942 248.526 251.51 252.148 246.56 251.649C241.61 251.151 237.989 246.718 238.487 241.768C238.986 236.819 243.418 233.197 248.368 233.696Z" fill="#F5F5F5"/>
<path d="M249.164 234.67C253.626 235.119 256.89 239.114 256.441 243.576C255.992 248.038 251.996 251.302 247.534 250.853C243.073 250.404 239.809 246.408 240.258 241.946C240.708 237.485 244.703 234.221 249.164 234.67Z" fill="white"/>
<path d="M254.578 240.381C254.736 238.816 253.595 237.419 252.029 237.261C250.463 237.104 249.067 238.245 248.909 239.811C248.751 241.376 249.893 242.773 251.458 242.931C253.024 243.088 254.421 241.947 254.578 240.381Z" fill="black"/>
<path d="M224.389 247.61C224.389 247.61 219.202 232.743 214.85 236.228C214.85 236.228 217.916 241.637 218.087 244.808C218.262 248.046 214.26 254.064 214.26 254.064C216.899 256.737 224.389 247.61 224.389 247.61Z" fill="#A67310"/>
<path d="M73.9524 116.835C71.6381 121.52 70.5634 126.759 70.8307 132.055C71.0981 137.351 72.6985 142.527 75.4796 147.089C78.2908 152.096 82.4214 156.233 87.3946 159.024C92.3679 161.815 97.9807 163.146 103.585 162.863C108.091 162.253 112.438 160.858 116.434 158.737C121.857 156.338 126.675 152.772 130.562 148.281C133.14 144.728 134.983 140.675 135.985 136.354C136.988 132.032 137.13 127.529 136.402 123.105C135.974 119.42 134.871 115.83 133.149 112.52C118.988 86.5071 86.7558 93.4608 73.9524 116.835Z" fill="url(#paint1_linear_7326_16609)"/>
<path d="M72.6407 181.96C70.3148 181.797 67.9694 182.24 65.8279 183.246C63.6863 184.253 61.82 185.789 60.4067 187.709C58.8151 189.717 57.8056 192.123 57.4945 194.648C57.1834 197.174 57.5835 199.717 58.6487 201.983C59.6626 203.741 60.9742 205.299 62.5259 206.591C64.434 208.424 66.7215 209.81 69.2337 210.655C71.1366 211.119 73.1223 211.194 75.0761 210.877C77.0299 210.56 78.9132 209.856 80.6173 208.808C82.0664 208.007 83.362 206.944 84.4373 205.674C92.7827 195.425 84.4583 183.293 72.6407 181.96Z" fill="url(#paint2_linear_7326_16609)"/>
<path d="M131.148 206.199C134.106 209.196 142.502 198.966 142.502 198.966C144.452 206.277 150.373 212.114 158.019 213.763C157.678 214.833 156.684 218.235 157.833 218.184C158.849 218.14 159.755 215.474 160.152 214.117C160.202 214.122 160.251 214.133 160.301 214.139C160.904 214.199 161.502 214.227 162.096 214.235C161.666 215.755 161.024 218.501 162.012 218.458C163.376 218.399 164.675 214.162 164.675 214.162L164.575 214.122C164.731 214.105 164.883 214.083 165.038 214.063C165.105 214.057 165.175 214.044 165.241 214.037C165.447 214.007 165.651 213.974 165.854 213.939C165.892 213.931 165.928 213.931 165.966 213.921C165.976 213.918 165.985 213.916 165.995 213.914C167.625 213.62 169.197 213.132 170.681 212.472C179.33 209.161 181.569 204.083 182.527 201.792C183.641 199.13 181.663 200.752 181.663 200.752L181.662 200.753C182.24 199.174 182.633 197.498 182.808 195.75C183.944 184.475 175.695 174.378 164.42 173.243C163.997 173.2 163.576 173.176 163.155 173.159L163.184 173.148C163.184 173.148 146.018 169.216 149.371 172.603C150.983 174.232 150.819 175.874 150.325 177.049C145.892 180.262 142.749 185.217 141.991 191.025C141.991 191.025 134.216 183.002 131.809 186.208C131.809 186.208 135.247 192.27 135.438 195.824C135.635 199.453 131.148 206.199 131.148 206.199Z" fill="#DB831B"/>
<path d="M131.148 206.199C134.106 209.196 142.502 198.966 142.502 198.966C144.452 206.277 150.373 212.114 158.019 213.763C157.678 214.833 156.684 218.235 157.833 218.184C158.849 218.14 159.755 215.474 160.152 214.117C160.202 214.122 160.251 214.133 160.301 214.139C160.904 214.199 161.502 214.227 162.096 214.235C161.666 215.755 161.024 218.501 162.012 218.458C163.376 218.399 164.675 214.162 164.675 214.162L164.575 214.122C164.731 214.105 164.884 214.083 165.038 214.063C165.105 214.057 165.175 214.044 165.241 214.037C165.447 214.007 165.651 213.974 165.854 213.939C165.892 213.931 165.928 213.931 165.966 213.921C165.976 213.918 165.985 213.916 165.995 213.914C175.257 211.772 179.193 207.869 181.397 204.118C163.285 219.557 145.941 208.822 144.537 196.133C143.598 187.634 145.635 181.086 144.078 184.241C143.025 186.373 142.296 188.683 141.991 191.025C141.991 191.025 134.216 183.002 131.809 186.208C131.809 186.208 135.247 192.27 135.438 195.824C135.635 199.453 131.148 206.199 131.148 206.199Z" fill="#D9811A"/>
<path d="M169.376 183.368C174.925 183.927 178.983 188.895 178.425 194.443C177.866 199.991 172.898 204.05 167.349 203.492C161.802 202.932 157.743 197.965 158.301 192.416C158.86 186.869 163.828 182.81 169.376 183.368Z" fill="#F5F5F5"/>
<path d="M170.269 184.46C175.269 184.964 178.928 189.442 178.425 194.442C177.921 199.444 173.443 203.103 168.442 202.598C163.442 202.095 159.783 197.618 160.287 192.616C160.79 187.616 165.269 183.957 170.269 184.46Z" fill="white"/>
<path d="M176.337 190.862C176.514 189.107 175.235 187.541 173.48 187.365C171.725 187.187 170.16 188.468 169.983 190.222C169.806 191.977 171.085 193.543 172.84 193.72C174.595 193.895 176.161 192.617 176.337 190.862Z" fill="black"/>
<path d="M142.502 198.965C142.502 198.965 136.689 182.3 131.81 186.208C131.81 186.208 135.247 192.27 135.439 195.824C135.635 199.454 131.148 206.198 131.148 206.198C134.106 209.195 142.502 198.965 142.502 198.965Z" fill="#B36A16"/>
<path d="M106.525 56V44.3636H111.116C111.999 44.3636 112.75 44.5322 113.372 44.8693C113.993 45.2027 114.466 45.6667 114.792 46.2614C115.122 46.8523 115.286 47.5341 115.286 48.3068C115.286 49.0795 115.12 49.7614 114.786 50.3523C114.453 50.9432 113.97 51.4034 113.338 51.733C112.709 52.0625 111.947 52.2273 111.053 52.2273H108.127V50.2557H110.656C111.129 50.2557 111.519 50.1742 111.826 50.0114C112.137 49.8447 112.368 49.6155 112.519 49.3239C112.675 49.0284 112.752 48.6894 112.752 48.3068C112.752 47.9205 112.675 47.5833 112.519 47.2955C112.368 47.0038 112.137 46.7784 111.826 46.6193C111.516 46.4564 111.122 46.375 110.644 46.375H108.985V56H106.525ZM116.839 56V47.2727H119.186V48.7955H119.276C119.436 48.2538 119.703 47.8447 120.078 47.5682C120.453 47.2879 120.884 47.1477 121.373 47.1477C121.494 47.1477 121.625 47.1553 121.765 47.1705C121.905 47.1856 122.028 47.2064 122.134 47.233V49.3807C122.021 49.3466 121.864 49.3163 121.663 49.2898C121.462 49.2633 121.278 49.25 121.112 49.25C120.756 49.25 120.437 49.3277 120.157 49.483C119.881 49.6345 119.661 49.8466 119.498 50.1193C119.339 50.392 119.259 50.7064 119.259 51.0625V56H116.839ZM126.957 56.1705C126.059 56.1705 125.286 55.9886 124.639 55.625C123.995 55.2576 123.499 54.7386 123.15 54.0682C122.802 53.3939 122.627 52.5966 122.627 51.6761C122.627 50.7784 122.802 49.9905 123.15 49.3125C123.499 48.6345 123.989 48.1061 124.622 47.7273C125.258 47.3485 126.004 47.1591 126.86 47.1591C127.436 47.1591 127.972 47.2519 128.468 47.4375C128.968 47.6193 129.404 47.8939 129.775 48.2614C130.15 48.6288 130.442 49.0909 130.65 49.6477C130.858 50.2008 130.963 50.8485 130.963 51.5909V52.2557H123.593V50.7557H128.684C128.684 50.4072 128.608 50.0985 128.457 49.8295C128.305 49.5606 128.095 49.3504 127.826 49.1989C127.561 49.0436 127.252 48.9659 126.9 48.9659C126.533 48.9659 126.207 49.0511 125.923 49.2216C125.642 49.3883 125.423 49.6136 125.264 49.8977C125.105 50.178 125.023 50.4905 125.019 50.8352V52.2614C125.019 52.6932 125.099 53.0663 125.258 53.3807C125.421 53.6951 125.65 53.9375 125.945 54.108C126.241 54.2784 126.591 54.3636 126.997 54.3636C127.266 54.3636 127.512 54.3258 127.735 54.25C127.959 54.1742 128.15 54.0606 128.309 53.9091C128.468 53.7576 128.589 53.572 128.673 53.3523L130.911 53.5C130.798 54.0379 130.565 54.5076 130.213 54.9091C129.864 55.3068 129.413 55.6174 128.86 55.8409C128.311 56.0606 127.677 56.1705 126.957 56.1705ZM140.444 47.2727L137.393 56H134.666L131.615 47.2727H134.171L135.984 53.517H136.075L137.882 47.2727H140.444ZM141.683 56V47.2727H144.103V56H141.683ZM142.899 46.1477C142.539 46.1477 142.23 46.0284 141.972 45.7898C141.719 45.5473 141.592 45.2576 141.592 44.9205C141.592 44.5871 141.719 44.3011 141.972 44.0625C142.23 43.8201 142.539 43.6989 142.899 43.6989C143.258 43.6989 143.565 43.8201 143.819 44.0625C144.077 44.3011 144.205 44.5871 144.205 44.9205C144.205 45.2576 144.077 45.5473 143.819 45.7898C143.565 46.0284 143.258 46.1477 142.899 46.1477ZM149.985 56.1705C149.103 56.1705 148.339 55.983 147.695 55.608C147.055 55.2292 146.561 54.7027 146.213 54.0284C145.864 53.3504 145.69 52.5644 145.69 51.6705C145.69 50.7689 145.864 49.9811 146.213 49.3068C146.561 48.6288 147.055 48.1023 147.695 47.7273C148.339 47.3485 149.103 47.1591 149.985 47.1591C150.868 47.1591 151.629 47.3485 152.269 47.7273C152.913 48.1023 153.41 48.6288 153.758 49.3068C154.106 49.9811 154.281 50.7689 154.281 51.6705C154.281 52.5644 154.106 53.3504 153.758 54.0284C153.41 54.7027 152.913 55.2292 152.269 55.608C151.629 55.983 150.868 56.1705 149.985 56.1705ZM149.997 54.2955C150.398 54.2955 150.733 54.1818 151.002 53.9545C151.271 53.7235 151.474 53.4091 151.61 53.0114C151.75 52.6136 151.82 52.161 151.82 51.6534C151.82 51.1458 151.75 50.6932 151.61 50.2955C151.474 49.8977 151.271 49.5833 151.002 49.3523C150.733 49.1212 150.398 49.0057 149.997 49.0057C149.591 49.0057 149.25 49.1212 148.974 49.3523C148.701 49.5833 148.495 49.8977 148.355 50.2955C148.218 50.6932 148.15 51.1458 148.15 51.6534C148.15 52.161 148.218 52.6136 148.355 53.0114C148.495 53.4091 148.701 53.7235 148.974 53.9545C149.25 54.1818 149.591 54.2955 149.997 54.2955ZM161.451 52.2841V47.2727H163.872V56H161.548V54.4148H161.457C161.26 54.9261 160.932 55.3371 160.474 55.6477C160.019 55.9583 159.464 56.1136 158.809 56.1136C158.226 56.1136 157.713 55.9811 157.269 55.7159C156.826 55.4508 156.48 55.0739 156.23 54.5852C155.983 54.0966 155.858 53.5114 155.855 52.8295V47.2727H158.275V52.3977C158.279 52.9129 158.417 53.3201 158.69 53.6193C158.963 53.9186 159.328 54.0682 159.786 54.0682C160.078 54.0682 160.351 54.0019 160.605 53.8693C160.858 53.733 161.063 53.5322 161.218 53.267C161.377 53.0019 161.455 52.6742 161.451 52.2841ZM173.069 49.7614L170.853 49.8977C170.815 49.7083 170.734 49.5379 170.609 49.3864C170.484 49.2311 170.319 49.108 170.115 49.017C169.914 48.9223 169.673 48.875 169.393 48.875C169.018 48.875 168.702 48.9545 168.444 49.1136C168.186 49.2689 168.058 49.4773 168.058 49.7386C168.058 49.947 168.141 50.1231 168.308 50.267C168.474 50.411 168.76 50.5265 169.166 50.6136L170.745 50.9318C171.594 51.1061 172.226 51.3864 172.643 51.7727C173.06 52.1591 173.268 52.6667 173.268 53.2955C173.268 53.8674 173.099 54.3693 172.762 54.8011C172.429 55.233 171.971 55.5701 171.387 55.8125C170.808 56.0511 170.139 56.1705 169.382 56.1705C168.226 56.1705 167.306 55.9299 166.62 55.4489C165.938 54.964 165.539 54.3049 165.421 53.4716L167.802 53.3466C167.874 53.6989 168.048 53.9678 168.325 54.1534C168.601 54.3352 168.955 54.4261 169.387 54.4261C169.811 54.4261 170.152 54.3447 170.41 54.1818C170.671 54.0152 170.804 53.8011 170.808 53.5398C170.804 53.3201 170.711 53.1402 170.529 53C170.347 52.8561 170.067 52.7462 169.688 52.6705L168.177 52.3693C167.325 52.1989 166.69 51.9034 166.274 51.483C165.861 51.0625 165.654 50.5265 165.654 49.875C165.654 49.3144 165.806 48.8314 166.109 48.4261C166.416 48.0208 166.846 47.7083 167.399 47.4886C167.955 47.2689 168.607 47.1591 169.353 47.1591C170.455 47.1591 171.323 47.392 171.955 47.858C172.592 48.3239 172.963 48.9583 173.069 49.7614ZM178.541 44.3636H181.575L184.779 52.1818H184.916L188.12 44.3636H191.154V56H188.768V48.4261H188.671L185.66 55.9432H184.035L181.024 48.3977H180.927V56H178.541V44.3636ZM195.624 56.1648C195.068 56.1648 194.571 56.0682 194.136 55.875C193.7 55.678 193.356 55.3883 193.102 55.0057C192.852 54.6193 192.727 54.1383 192.727 53.5625C192.727 53.0777 192.816 52.6705 192.994 52.3409C193.172 52.0114 193.414 51.7462 193.721 51.5455C194.028 51.3447 194.376 51.1932 194.767 51.0909C195.16 50.9886 195.573 50.9167 196.005 50.875C196.513 50.822 196.922 50.7727 197.232 50.7273C197.543 50.678 197.768 50.6061 197.909 50.5114C198.049 50.4167 198.119 50.2765 198.119 50.0909V50.0568C198.119 49.697 198.005 49.4186 197.778 49.2216C197.554 49.0246 197.236 48.9261 196.823 48.9261C196.388 48.9261 196.041 49.0227 195.784 49.2159C195.526 49.4053 195.356 49.6439 195.272 49.9318L193.034 49.75C193.147 49.2197 193.371 48.7614 193.704 48.375C194.037 47.9848 194.467 47.6856 194.994 47.4773C195.524 47.2652 196.138 47.1591 196.835 47.1591C197.32 47.1591 197.784 47.2159 198.227 47.3295C198.674 47.4432 199.07 47.6193 199.414 47.858C199.763 48.0966 200.037 48.4034 200.238 48.7784C200.439 49.1496 200.539 49.5947 200.539 50.1136V56H198.244V54.7898H198.176C198.035 55.0625 197.848 55.303 197.613 55.5114C197.378 55.7159 197.096 55.8769 196.767 55.9943C196.437 56.108 196.056 56.1648 195.624 56.1648ZM196.318 54.4943C196.674 54.4943 196.988 54.4242 197.261 54.2841C197.534 54.1402 197.748 53.947 197.903 53.7045C198.058 53.4621 198.136 53.1875 198.136 52.8807V51.9545C198.06 52.0038 197.956 52.0492 197.823 52.0909C197.695 52.1288 197.549 52.1648 197.386 52.1989C197.223 52.2292 197.06 52.2576 196.897 52.2841C196.734 52.3068 196.587 52.3277 196.454 52.3466C196.17 52.3883 195.922 52.4545 195.71 52.5455C195.498 52.6364 195.333 52.7595 195.215 52.9148C195.098 53.0663 195.039 53.2557 195.039 53.483C195.039 53.8125 195.159 54.0644 195.397 54.2386C195.64 54.4091 195.946 54.4943 196.318 54.4943ZM209.678 49.7614L207.463 49.8977C207.425 49.7083 207.343 49.5379 207.218 49.3864C207.093 49.2311 206.928 49.108 206.724 49.017C206.523 48.9223 206.283 48.875 206.002 48.875C205.627 48.875 205.311 48.9545 205.053 49.1136C204.796 49.2689 204.667 49.4773 204.667 49.7386C204.667 49.947 204.75 50.1231 204.917 50.267C205.084 50.411 205.37 50.5265 205.775 50.6136L207.355 50.9318C208.203 51.1061 208.836 51.3864 209.252 51.7727C209.669 52.1591 209.877 52.6667 209.877 53.2955C209.877 53.8674 209.709 54.3693 209.372 54.8011C209.038 55.233 208.58 55.5701 207.997 55.8125C207.417 56.0511 206.749 56.1705 205.991 56.1705C204.836 56.1705 203.915 55.9299 203.23 55.4489C202.548 54.964 202.148 54.3049 202.031 53.4716L204.411 53.3466C204.483 53.6989 204.658 53.9678 204.934 54.1534C205.211 54.3352 205.565 54.4261 205.997 54.4261C206.421 54.4261 206.762 54.3447 207.019 54.1818C207.281 54.0152 207.413 53.8011 207.417 53.5398C207.413 53.3201 207.32 53.1402 207.139 53C206.957 52.8561 206.677 52.7462 206.298 52.6705L204.786 52.3693C203.934 52.1989 203.3 51.9034 202.883 51.483C202.47 51.0625 202.264 50.5265 202.264 49.875C202.264 49.3144 202.415 48.8314 202.718 48.4261C203.025 48.0208 203.455 47.7083 204.008 47.4886C204.565 47.2689 205.216 47.1591 205.963 47.1591C207.065 47.1591 207.932 47.392 208.565 47.858C209.201 48.3239 209.572 48.9583 209.678 49.7614ZM215.345 56.1705C214.451 56.1705 213.682 55.9811 213.038 55.6023C212.398 55.2197 211.905 54.6894 211.561 54.0114C211.22 53.3333 211.049 52.553 211.049 51.6705C211.049 50.7765 211.222 49.9924 211.566 49.3182C211.915 48.6402 212.409 48.1117 213.049 47.733C213.689 47.3504 214.451 47.1591 215.333 47.1591C216.095 47.1591 216.761 47.2973 217.333 47.5739C217.905 47.8504 218.358 48.2386 218.691 48.7386C219.025 49.2386 219.208 49.8258 219.242 50.5H216.958C216.894 50.0644 216.723 49.714 216.447 49.4489C216.174 49.1799 215.816 49.0455 215.373 49.0455C214.998 49.0455 214.67 49.1477 214.39 49.3523C214.114 49.553 213.898 49.8466 213.742 50.233C213.587 50.6193 213.509 51.0871 213.509 51.6364C213.509 52.1932 213.585 52.6667 213.737 53.0568C213.892 53.447 214.11 53.7443 214.39 53.9489C214.67 54.1534 214.998 54.2557 215.373 54.2557C215.65 54.2557 215.898 54.1989 216.117 54.0852C216.341 53.9716 216.525 53.8068 216.669 53.5909C216.816 53.3712 216.913 53.108 216.958 52.8011H219.242C219.204 53.4678 219.023 54.0549 218.697 54.5625C218.375 55.0663 217.93 55.4602 217.362 55.7443C216.794 56.0284 216.121 56.1705 215.345 56.1705ZM224.735 56.1705C223.853 56.1705 223.089 55.983 222.445 55.608C221.805 55.2292 221.311 54.7027 220.963 54.0284C220.614 53.3504 220.44 52.5644 220.44 51.6705C220.44 50.7689 220.614 49.9811 220.963 49.3068C221.311 48.6288 221.805 48.1023 222.445 47.7273C223.089 47.3485 223.853 47.1591 224.735 47.1591C225.618 47.1591 226.379 47.3485 227.019 47.7273C227.663 48.1023 228.16 48.6288 228.508 49.3068C228.856 49.9811 229.031 50.7689 229.031 51.6705C229.031 52.5644 228.856 53.3504 228.508 54.0284C228.16 54.7027 227.663 55.2292 227.019 55.608C226.379 55.983 225.618 56.1705 224.735 56.1705ZM224.747 54.2955C225.148 54.2955 225.483 54.1818 225.752 53.9545C226.021 53.7235 226.224 53.4091 226.36 53.0114C226.5 52.6136 226.57 52.161 226.57 51.6534C226.57 51.1458 226.5 50.6932 226.36 50.2955C226.224 49.8977 226.021 49.5833 225.752 49.3523C225.483 49.1212 225.148 49.0057 224.747 49.0057C224.341 49.0057 224 49.1212 223.724 49.3523C223.451 49.5833 223.245 49.8977 223.105 50.2955C222.968 50.6932 222.9 51.1458 222.9 51.6534C222.9 52.161 222.968 52.6136 223.105 53.0114C223.245 53.4091 223.451 53.7235 223.724 53.9545C224 54.1818 224.341 54.2955 224.747 54.2955ZM235.247 47.2727V49.0909H229.991V47.2727H235.247ZM231.184 45.1818H233.605V53.3182C233.605 53.5417 233.639 53.7159 233.707 53.8409C233.775 53.9621 233.87 54.0473 233.991 54.0966C234.116 54.1458 234.26 54.1705 234.423 54.1705C234.536 54.1705 234.65 54.161 234.764 54.142C234.877 54.1193 234.964 54.1023 235.025 54.0909L235.406 55.892C235.285 55.9299 235.114 55.9735 234.894 56.0227C234.675 56.0758 234.408 56.108 234.093 56.1193C233.51 56.142 232.999 56.0644 232.559 55.8864C232.124 55.7083 231.785 55.4318 231.542 55.0568C231.3 54.6818 231.18 54.2083 231.184 53.6364V45.1818ZM244.697 56H240.572V44.3636H244.731C245.901 44.3636 246.909 44.5966 247.754 45.0625C248.598 45.5246 249.248 46.1894 249.703 47.0568C250.161 47.9242 250.39 48.9621 250.39 50.1705C250.39 51.3826 250.161 52.4242 249.703 53.2955C249.248 54.1667 248.595 54.8352 247.742 55.3011C246.894 55.767 245.879 56 244.697 56ZM243.032 53.892H244.595C245.322 53.892 245.934 53.7633 246.43 53.5057C246.93 53.2443 247.305 52.8409 247.555 52.2955C247.809 51.7462 247.936 51.0379 247.936 50.1705C247.936 49.3106 247.809 48.608 247.555 48.0625C247.305 47.517 246.932 47.1155 246.436 46.858C245.939 46.6004 245.328 46.4716 244.6 46.4716H243.032V53.892ZM256.144 56.1705C255.247 56.1705 254.474 55.9886 253.826 55.625C253.182 55.2576 252.686 54.7386 252.338 54.0682C251.989 53.3939 251.815 52.5966 251.815 51.6761C251.815 50.7784 251.989 49.9905 252.338 49.3125C252.686 48.6345 253.177 48.1061 253.809 47.7273C254.445 47.3485 255.192 47.1591 256.048 47.1591C256.624 47.1591 257.16 47.2519 257.656 47.4375C258.156 47.6193 258.591 47.8939 258.963 48.2614C259.338 48.6288 259.629 49.0909 259.838 49.6477C260.046 50.2008 260.15 50.8485 260.15 51.5909V52.2557H252.781V50.7557H257.872C257.872 50.4072 257.796 50.0985 257.644 49.8295C257.493 49.5606 257.283 49.3504 257.014 49.1989C256.749 49.0436 256.44 48.9659 256.088 48.9659C255.72 48.9659 255.394 49.0511 255.11 49.2216C254.83 49.3883 254.61 49.6136 254.451 49.8977C254.292 50.178 254.211 50.4905 254.207 50.8352V52.2614C254.207 52.6932 254.286 53.0663 254.445 53.3807C254.608 53.6951 254.838 53.9375 255.133 54.108C255.428 54.2784 255.779 54.3636 256.184 54.3636C256.453 54.3636 256.699 54.3258 256.923 54.25C257.146 54.1742 257.338 54.0606 257.497 53.9091C257.656 53.7576 257.777 53.572 257.86 53.3523L260.099 53.5C259.985 54.0379 259.752 54.5076 259.4 54.9091C259.052 55.3068 258.601 55.6174 258.048 55.8409C257.499 56.0606 256.864 56.1705 256.144 56.1705ZM268.991 49.7614L266.775 49.8977C266.737 49.7083 266.656 49.5379 266.531 49.3864C266.406 49.2311 266.241 49.108 266.036 49.017C265.836 48.9223 265.595 48.875 265.315 48.875C264.94 48.875 264.624 48.9545 264.366 49.1136C264.108 49.2689 263.98 49.4773 263.98 49.7386C263.98 49.947 264.063 50.1231 264.23 50.267C264.396 50.411 264.682 50.5265 265.088 50.6136L266.667 50.9318C267.516 51.1061 268.148 51.3864 268.565 51.7727C268.981 52.1591 269.19 52.6667 269.19 53.2955C269.19 53.8674 269.021 54.3693 268.684 54.8011C268.351 55.233 267.892 55.5701 267.309 55.8125C266.73 56.0511 266.061 56.1705 265.303 56.1705C264.148 56.1705 263.228 55.9299 262.542 55.4489C261.86 54.964 261.461 54.3049 261.343 53.4716L263.724 53.3466C263.796 53.6989 263.97 53.9678 264.247 54.1534C264.523 54.3352 264.877 54.4261 265.309 54.4261C265.733 54.4261 266.074 54.3447 266.332 54.1818C266.593 54.0152 266.726 53.8011 266.73 53.5398C266.726 53.3201 266.633 53.1402 266.451 53C266.269 52.8561 265.989 52.7462 265.61 52.6705L264.099 52.3693C263.247 52.1989 262.612 51.9034 262.195 51.483C261.783 51.0625 261.576 50.5265 261.576 49.875C261.576 49.3144 261.728 48.8314 262.031 48.4261C262.338 48.0208 262.767 47.7083 263.32 47.4886C263.877 47.2689 264.529 47.1591 265.275 47.1591C266.377 47.1591 267.245 47.392 267.877 47.858C268.514 48.3239 268.885 48.9583 268.991 49.7614ZM270.714 56V47.2727H273.134V56H270.714ZM271.93 46.1477C271.57 46.1477 271.261 46.0284 271.004 45.7898C270.75 45.5473 270.623 45.2576 270.623 44.9205C270.623 44.5871 270.75 44.3011 271.004 44.0625C271.261 43.8201 271.57 43.6989 271.93 43.6989C272.29 43.6989 272.597 43.8201 272.85 44.0625C273.108 44.3011 273.237 44.5871 273.237 44.9205C273.237 45.2576 273.108 45.5473 272.85 45.7898C272.597 46.0284 272.29 46.1477 271.93 46.1477ZM279.005 59.4545C278.221 59.4545 277.549 59.3466 276.988 59.1307C276.431 58.9186 275.988 58.6288 275.659 58.2614C275.329 57.8939 275.115 57.4811 275.017 57.0227L277.255 56.7216C277.323 56.8958 277.431 57.0587 277.579 57.2102C277.727 57.3617 277.922 57.483 278.164 57.5739C278.41 57.6686 278.71 57.7159 279.062 57.7159C279.588 57.7159 280.022 57.5871 280.363 57.3295C280.708 57.0758 280.88 56.6496 280.88 56.0511V54.4545H280.778C280.672 54.697 280.513 54.9261 280.301 55.142C280.088 55.358 279.816 55.5341 279.482 55.6705C279.149 55.8068 278.751 55.875 278.289 55.875C277.634 55.875 277.037 55.7235 276.499 55.4205C275.965 55.1136 275.539 54.6458 275.221 54.017C274.907 53.3845 274.749 52.5852 274.749 51.6193C274.749 50.6307 274.91 49.8049 275.232 49.142C275.554 48.4792 275.982 47.983 276.517 47.6534C277.054 47.3239 277.643 47.1591 278.284 47.1591C278.772 47.1591 279.181 47.2424 279.511 47.4091C279.84 47.572 280.106 47.7765 280.306 48.0227C280.511 48.2652 280.668 48.5038 280.778 48.7386H280.869V47.2727H283.272V56.0852C283.272 56.8277 283.09 57.4489 282.727 57.9489C282.363 58.4489 281.859 58.8239 281.215 59.0739C280.575 59.3277 279.838 59.4545 279.005 59.4545ZM279.056 54.0568C279.446 54.0568 279.776 53.9602 280.045 53.767C280.318 53.5701 280.526 53.2898 280.67 52.9261C280.818 52.5587 280.892 52.1193 280.892 51.608C280.892 51.0966 280.82 50.6534 280.676 50.2784C280.532 49.8996 280.323 49.6061 280.051 49.3977C279.778 49.1894 279.446 49.0852 279.056 49.0852C278.659 49.0852 278.323 49.1932 278.051 49.4091C277.778 49.6212 277.571 49.9167 277.431 50.2955C277.291 50.6742 277.221 51.1117 277.221 51.608C277.221 52.1117 277.291 52.5473 277.431 52.9148C277.575 53.2784 277.782 53.5606 278.051 53.7614C278.323 53.9583 278.659 54.0568 279.056 54.0568ZM287.619 50.9545V56H285.198V47.2727H287.505V48.8125H287.607C287.801 48.3049 288.124 47.9034 288.579 47.608C289.034 47.3087 289.585 47.1591 290.232 47.1591C290.838 47.1591 291.367 47.2917 291.818 47.5568C292.268 47.822 292.619 48.2008 292.869 48.6932C293.119 49.1818 293.244 49.7652 293.244 50.4432V56H290.823V50.875C290.827 50.3409 290.691 49.9242 290.414 49.625C290.138 49.322 289.757 49.1705 289.272 49.1705C288.946 49.1705 288.659 49.2405 288.409 49.3807C288.162 49.5208 287.969 49.7254 287.829 49.9943C287.693 50.2595 287.623 50.5795 287.619 50.9545Z" fill="#212529"/>
<defs>
<linearGradient id="paint0_linear_7326_16609" x1="206.745" y1="48.3898" x2="152.942" y2="237.254" gradientUnits="userSpaceOnUse">
<stop stop-color="#C9E8FF"/>
<stop offset="1" stop-color="#5DB8FE"/>
</linearGradient>
<linearGradient id="paint1_linear_7326_16609" x1="88.5991" y1="101.274" x2="119.178" y2="157.397" gradientUnits="userSpaceOnUse">
<stop stop-color="#A4D8FF"/>
<stop offset="1" stop-color="#5EB8FE"/>
</linearGradient>
<linearGradient id="paint2_linear_7326_16609" x1="81.5438" y1="185.376" x2="63.5433" y2="207.497" gradientUnits="userSpaceOnUse">
<stop stop-color="#A4D8FF"/>
<stop offset="1" stop-color="#5EB8FE"/>
</linearGradient>
</defs>
</svg>
