<svg width="400" height="400" viewBox="0 0 400 400" fill="none" xmlns="http://www.w3.org/2000/svg">
<path fill-rule="evenodd" clip-rule="evenodd" d="M88.9635 138.83C129.498 113.737 181.877 124.042 211.497 161.941C225.148 179.406 238.768 196.952 255.657 203.208C278.736 211.754 305.786 204.697 327.761 215.92C345.011 224.738 355.982 244.217 357.116 264.048C364.662 395.996 230.271 348.006 168.595 324.698C141.122 320.641 111.95 319.314 88.5631 303.936C85.9639 302.227 83.4242 300.376 80.9578 298.397C29.6942 257.271 31.9896 175.957 86.9625 140.101C87.6207 139.672 88.2877 139.248 88.9635 138.83Z" fill="#C9E8FF"/>
<path d="M252.222 99.6085C255.89 98.054 265.968 110.081 267.867 113.702C272.271 122.237 274.894 131.864 275.456 141.689C276.018 136.628 276.486 131.566 276.768 126.504C274.144 115.786 271.615 104.769 272.552 93.753C272.905 89.3309 273.847 84.9089 275.336 80.7433C276.114 78.5653 278.609 77.9006 279.645 79.9544C280.141 80.9379 280.513 82.0046 280.796 83.0343C285.18 97.8717 282.903 117.466 279.325 126.505C278.95 133.055 278.548 136.826 277.798 143.377C279.953 136.925 282.763 130.772 286.23 124.817C290.959 116.71 297.82 109.271 306.377 106.339C307.593 105.922 308.806 106.882 308.637 108.224C308.252 111.286 306.883 114.234 305.342 116.878C297.472 129.978 284.262 138.91 276.674 152.11C275.737 158.164 274.613 164.218 273.301 170.272C278.173 163.424 283.7 156.973 289.696 151.118C295.374 145.545 301.871 140.366 309.319 138.393C310.974 137.954 312.783 138.875 312.775 140.682C312.74 148.007 301.565 158.371 297.566 161.142C294.287 163.424 290.633 164.913 287.073 166.7C282.201 169.181 277.142 170.868 272.458 173.845C270.303 182.976 267.774 192.008 264.776 200.841C267.867 195.977 271.427 191.412 275.362 187.045C281.725 180.214 289.824 174.553 298.789 173.668C300.065 173.542 301.053 174.765 300.609 176.038C299.596 178.948 297.655 181.493 295.598 183.671C285.574 194.29 271.427 199.947 261.403 210.368C258.686 217.713 255.595 224.858 252.222 231.905C258.03 225.553 264.307 219.698 271.053 214.537C277.495 209.623 284.804 205.209 292.618 204.357C293.787 204.229 294.77 205.247 294.563 206.472C292.992 215.753 282.203 223.17 277.704 225.553C274.238 227.439 270.397 228.431 266.649 229.721C261.497 231.607 256.25 232.699 251.191 234.982C251.004 235.081 250.723 235.18 250.536 235.279C246.882 242.822 242.853 250.166 238.45 257.312C241.916 253.442 245.664 249.869 249.786 246.494C257.143 240.556 266.139 236.179 275.24 236.851C276.251 236.925 276.902 237.99 276.465 238.959C275.124 241.929 272.699 244.318 270.21 246.296C258.311 255.724 242.666 258.999 231.143 268.726C226.552 275.574 225.441 276.972 220.288 283.324C228.626 277.27 233.766 277.36 243.134 273.489C250.751 270.3 259.12 267.819 267.135 269.234C267.978 269.383 268.662 270.116 268.54 271.012C268.15 273.873 265.389 276.143 262.902 277.757C257.937 281.131 252.784 284.506 247.069 285.796C243.228 286.689 239.293 286.689 235.358 286.987C229.925 287.483 224.585 287.186 219.151 288.178C218.12 288.377 217.09 288.575 216.059 288.873C213.436 292.049 210.719 295.225 208.002 298.301C206.878 299.591 204.817 297.904 206.035 296.614C208.355 294.044 210.548 291.354 212.835 288.752C216.582 274.56 209.501 260.786 208.471 246.097C208.19 242.127 208.283 238.058 209.97 234.485C210.251 233.791 210.907 233.096 211.562 233.294C211.843 233.394 212.124 233.592 212.312 233.89C218.495 241.135 221.68 250.861 221.868 260.587C222.055 268.527 220.181 276.368 216.902 283.613C221.493 277.757 225.896 271.703 230.018 265.55C231.424 250.067 224.772 234.882 224.116 219.301C224.022 216.621 224.116 213.743 225.24 211.361C225.428 210.865 225.803 210.368 226.365 210.269C226.739 210.17 227.114 210.468 227.489 210.666C233.016 214.735 235.265 222.179 236.202 229.324C237.607 239.944 236.389 250.96 233.016 261.084C238.169 253.045 242.853 244.708 247.163 236.173C246.975 221.98 238.263 209.574 233.953 195.977C232.829 192.206 231.986 188.236 232.735 184.366C232.923 183.671 233.297 182.778 234.047 182.778C234.328 182.778 234.609 182.976 234.89 183.175C242.479 188.534 247.912 197.168 250.254 206.597C252.034 213.445 252.222 220.69 251.191 227.637C254.096 221.285 256.719 214.834 259.155 208.284C256.719 193.397 247.069 180.495 242.947 165.906C242.198 163.325 241.635 160.546 242.198 157.867C242.291 157.37 242.479 156.775 243.041 156.576C243.415 156.378 243.79 156.576 244.165 156.676C250.442 159.256 254.377 165.906 256.906 172.456C260.466 181.984 261.965 192.305 261.216 202.528C264.12 194.29 267.352 183.585 269.507 175.049C268.102 160.559 256.906 152.11 251.004 138.116C249.411 134.544 248.193 130.673 248.568 126.703C248.662 125.909 248.943 125.016 249.692 124.917C257.708 123.855 271.053 144.756 271.053 170.272C271.99 165.608 273.488 154.591 274.144 149.927C270.209 134.941 258.874 123.229 253.065 108.839C252.453 107.364 249.748 100.657 252.222 99.6085Z" fill="#94D1FF"/>
<path d="M132.04 98.6398C128.542 97.1574 118.931 108.626 117.12 112.079C112.921 120.219 110.42 129.4 109.884 138.77C109.348 133.943 108.901 129.116 108.633 124.289C111.134 114.067 113.547 103.561 112.653 93.0557C112.316 88.8387 111.418 84.6217 109.998 80.6493C109.256 78.5723 106.877 77.9384 105.889 79.8969C105.415 80.8349 105.061 81.8521 104.791 82.834C100.611 96.9835 102.782 115.669 106.194 124.289C106.551 130.535 106.935 134.132 107.65 140.378C105.595 134.227 102.915 128.359 99.6093 122.68C95.0991 114.948 88.5565 107.854 80.3961 105.058C79.2368 104.661 78.0797 105.576 78.2408 106.856C78.6084 109.776 79.9137 112.587 81.3836 115.108C88.8883 127.601 101.485 136.119 108.722 148.707C109.616 154.481 110.688 160.254 111.938 166.027C107.293 159.497 102.022 153.345 96.3037 147.761C90.8889 142.446 84.6933 137.508 77.5906 135.626C76.0126 135.208 74.2869 136.086 74.295 137.809C74.328 144.795 84.9849 154.678 88.799 157.32C91.9259 159.497 95.4102 160.917 98.8052 162.62C103.451 164.986 108.275 166.595 112.743 169.435C114.797 178.142 117.21 186.755 120.069 195.178C117.12 190.541 113.725 186.187 109.973 182.022C103.905 175.508 96.1821 170.109 87.6321 169.265C86.4157 169.145 85.4734 170.312 85.8964 171.526C86.8632 174.301 88.7143 176.727 90.6751 178.805C100.235 188.932 113.725 194.326 123.285 204.264C125.876 211.268 128.824 218.082 132.04 224.802C126.501 218.745 120.515 213.161 114.083 208.239C107.939 203.553 100.969 199.344 93.5171 198.531C92.4023 198.41 91.4646 199.38 91.6624 200.549C93.1604 209.399 103.449 216.472 107.739 218.745C111.045 220.543 114.708 221.49 118.282 222.72C123.196 224.518 128.199 225.559 133.023 227.736C133.202 227.831 133.47 227.926 133.649 228.02C137.133 235.213 140.975 242.217 145.174 249.031C141.868 245.34 138.294 241.933 134.363 238.715C127.347 233.052 118.769 228.878 110.089 229.519C109.125 229.59 108.504 230.605 108.921 231.529C110.2 234.361 112.512 236.639 114.887 238.526C126.233 247.517 141.153 250.64 152.142 259.916C156.52 266.446 157.58 267.78 162.494 273.838C154.542 268.064 149.641 268.15 140.707 264.459C133.443 261.417 125.462 259.051 117.818 260.401C117.015 260.543 116.363 261.241 116.479 262.096C116.851 264.825 119.484 266.989 121.855 268.528C126.591 271.746 131.504 274.964 136.954 276.195C140.617 277.047 144.37 277.047 148.122 277.33C153.304 277.804 158.396 277.52 163.578 278.466C164.561 278.656 165.544 278.845 166.526 279.129C169.028 282.157 171.619 285.186 174.21 288.12C175.282 289.35 177.247 287.741 176.086 286.511C173.873 284.06 171.782 281.495 169.602 279.014C166.028 265.479 172.78 252.344 173.763 238.337C174.031 234.551 173.942 230.67 172.334 227.263C172.066 226.6 171.44 225.938 170.815 226.127C170.547 226.222 170.279 226.411 170.1 226.695C164.203 233.604 161.166 242.88 160.987 252.155C160.808 259.726 162.595 267.203 165.722 274.113C161.345 268.528 157.145 262.755 153.214 256.887C151.874 242.122 158.218 227.642 158.843 212.782C158.932 210.227 158.843 207.482 157.771 205.211C157.592 204.737 157.235 204.264 156.699 204.17C156.341 204.075 155.984 204.359 155.627 204.548C150.355 208.429 148.211 215.527 147.318 222.341C145.978 232.469 147.139 242.974 150.355 252.628C145.442 244.962 140.975 237.011 136.865 228.872C137.044 215.338 145.352 203.507 149.462 190.541C150.534 186.944 151.338 183.158 150.624 179.467C150.445 178.805 150.087 177.953 149.373 177.953C149.105 177.953 148.837 178.142 148.569 178.331C141.332 183.442 136.15 191.676 133.917 200.668C132.219 207.198 132.04 214.107 133.023 220.732C130.254 214.675 127.752 208.523 125.429 202.277C127.752 188.08 136.954 175.776 140.885 161.863C141.6 159.402 142.136 156.752 141.6 154.197C141.511 153.724 141.332 153.156 140.796 152.966C140.439 152.777 140.081 152.966 139.724 153.061C133.738 155.522 129.986 161.863 127.573 168.11C124.178 177.196 122.749 187.039 123.464 196.787C120.694 188.932 117.611 178.722 115.556 170.583C116.897 156.765 127.573 148.707 133.202 135.362C134.721 131.955 135.882 128.264 135.525 124.478C135.435 123.721 135.167 122.869 134.453 122.774C126.809 121.762 114.083 141.694 114.083 166.027C113.189 161.579 111.76 151.073 111.134 146.625C114.887 132.334 125.697 121.165 131.236 107.442C131.82 106.036 134.4 99.6395 132.04 98.6398Z" fill="#94D1FF"/>
<path d="M224.901 226.803L162.438 226.803L163.243 227.899C168.302 234.789 168.926 244.218 164.806 251.771L187.41 256.037C191.546 256.818 195.792 256.818 199.928 256.037L222.532 251.771C218.412 244.218 219.036 234.789 224.095 227.899L224.901 226.803Z" fill="#0588CB"/>
<path fill-rule="evenodd" clip-rule="evenodd" d="M220.978 233.934C212.839 243.72 200.893 249.899 187.578 249.899C180.241 249.899 173.321 248.023 167.223 244.702C168.171 238.87 166.808 232.755 163.243 227.9L162.438 226.803L224.901 226.803L224.095 227.9C222.732 229.756 221.691 231.796 220.978 233.934Z" fill="#0F77B8"/>
<path d="M238.074 193.72C238.074 219.576 218.193 240.535 193.669 240.535C169.144 240.535 149.264 219.576 149.264 193.72C149.264 167.865 169.144 146.905 193.669 146.905C218.193 146.905 238.074 167.865 238.074 193.72Z" fill="#0588CB"/>
<ellipse cx="193.668" cy="193.72" rx="23.9787" ry="25.2801" fill="white"/>
<path fill-rule="evenodd" clip-rule="evenodd" d="M187.023 183.154C184.729 184.91 184.245 188.189 185.959 190.532C187.695 192.908 191.031 193.424 193.407 191.687C194.063 191.207 194.577 190.605 194.942 189.934C196.537 194.283 195.146 199.337 191.224 202.204C186.473 205.678 179.8 204.646 176.328 199.895C172.855 195.144 173.895 188.471 178.647 184.996C181.153 183.165 184.197 182.589 187.023 183.154Z" fill="#343A40"/>
<path d="M233.633 193.72C236.086 193.72 238.095 191.728 237.874 189.286C237.456 184.659 236.387 180.114 234.694 175.805C232.462 170.125 229.191 164.964 225.068 160.617C220.944 156.27 216.049 152.822 210.662 150.469C206.719 148.747 202.569 147.637 198.341 147.165C195.771 146.878 193.669 149.001 193.669 151.587V151.587C193.669 154.172 195.775 156.235 198.335 156.593C201.396 157.02 204.398 157.868 207.263 159.119C211.573 161.001 215.489 163.76 218.788 167.238C222.087 170.715 224.703 174.844 226.489 179.388C227.735 182.561 228.559 185.893 228.943 189.289C229.219 191.726 231.181 193.72 233.633 193.72V193.72Z" fill="#37A6ED"/>
<path d="M262.445 222.962C262.409 201.093 279.924 187.464 289.865 182.738C290.383 182.492 290.386 181.744 289.867 181.5L275.027 174.534C274.792 174.423 274.521 174.454 274.323 174.622C264.084 183.318 244.912 201.833 246.568 219.798C248.34 239.028 247.696 256.732 238.016 265.778C237.7 266.073 237.725 266.589 238.079 266.837L249.173 274.626C249.455 274.824 249.841 274.776 250.051 274.503C254.35 268.902 262.491 250.74 262.445 222.962Z" fill="#FAB005"/>
<mask id="mask0_7326_16610" style="mask-type:alpha" maskUnits="userSpaceOnUse" x="237" y="174" width="54" height="101">
<path d="M262.446 222.962C262.409 200.568 280.776 186.813 290.568 182.413C290.818 182.3 290.818 181.946 290.569 181.829L274.826 174.439C274.713 174.387 274.585 174.401 274.49 174.481C264.294 183.116 244.904 201.735 246.568 219.798C248.36 239.243 247.681 257.128 237.688 266.078C237.534 266.216 237.546 266.463 237.715 266.581L249.434 274.809C249.569 274.904 249.748 274.887 249.851 274.758C254.091 269.474 262.492 251.179 262.446 222.962Z" fill="#FCC419"/>
</mask>
<g mask="url(#mask0_7326_16610)">
<path fill-rule="evenodd" clip-rule="evenodd" d="M288.693 190.431L263.275 178.499L264.121 176.698L289.539 188.629L288.693 190.431Z" fill="#343A40"/>
<path fill-rule="evenodd" clip-rule="evenodd" d="M293.93 201.576L268.512 189.645L269.357 187.843L294.776 199.774L293.93 201.576Z" fill="#343A40"/>
<path fill-rule="evenodd" clip-rule="evenodd" d="M283.443 214.487L258.024 202.555L258.87 200.753L284.288 212.685L283.443 214.487Z" fill="#343A40"/>
<path fill-rule="evenodd" clip-rule="evenodd" d="M277.221 202.467L251.803 190.535L252.648 188.733L278.067 200.665L277.221 202.467Z" fill="#343A40"/>
<path fill-rule="evenodd" clip-rule="evenodd" d="M279.332 231.009L253.914 219.078L254.76 217.276L280.178 229.208L279.332 231.009Z" fill="#343A40"/>
<path fill-rule="evenodd" clip-rule="evenodd" d="M268.27 217.058L242.852 205.126L243.697 203.324L269.115 215.256L268.27 217.058Z" fill="#343A40"/>
<path fill-rule="evenodd" clip-rule="evenodd" d="M278.824 248.258L253.406 236.327L254.252 234.525L279.67 246.457L278.824 248.258Z" fill="#343A40"/>
<path fill-rule="evenodd" clip-rule="evenodd" d="M265.67 233.213L240.252 221.281L241.098 219.479L266.516 231.411L265.67 233.213Z" fill="#343A40"/>
<path fill-rule="evenodd" clip-rule="evenodd" d="M269.221 252.548L243.803 240.616L244.648 238.814L270.067 250.746L269.221 252.548Z" fill="#343A40"/>
<path fill-rule="evenodd" clip-rule="evenodd" d="M276.766 265.038L251.348 253.106L252.193 251.304L277.612 263.236L276.766 265.038Z" fill="#343A40"/>
<path fill-rule="evenodd" clip-rule="evenodd" d="M262.338 267.211L236.92 255.28L237.766 253.478L263.184 265.41L262.338 267.211Z" fill="#343A40"/>
</g>
<path d="M220.869 309.671C225.11 288.218 244.952 278.276 255.625 275.586C256.181 275.446 256.331 274.713 255.869 274.372L242.678 264.638C242.469 264.484 242.198 264.462 241.971 264.588C230.228 271.113 207.807 285.521 205.917 303.463C203.894 322.669 199.8 339.905 188.538 346.883C188.171 347.111 188.094 347.621 188.393 347.934L197.75 357.742C197.987 357.992 198.376 358.02 198.635 357.793C203.946 353.141 215.482 336.922 220.869 309.671Z" fill="#FAB005"/>
<mask id="mask1_7326_16610" style="mask-type:alpha" maskUnits="userSpaceOnUse" x="187" y="264" width="70" height="95">
<path d="M220.869 309.671C225.212 287.702 245.915 277.805 256.378 275.404C256.645 275.343 256.714 274.995 256.493 274.832L242.499 264.506C242.399 264.433 242.27 264.421 242.162 264.481C230.473 270.956 207.816 285.423 205.916 303.463C203.871 322.883 199.708 340.29 188.157 347.113C187.979 347.218 187.943 347.462 188.085 347.612L197.969 357.972C198.082 358.091 198.261 358.11 198.387 358.004C203.579 353.651 215.396 337.352 220.869 309.671Z" fill="#FCC419"/>
</mask>
<g mask="url(#mask1_7326_16610)">
<path fill-rule="evenodd" clip-rule="evenodd" d="M252.971 282.901L230.377 266.229L231.559 264.627L254.153 281.3L252.971 282.901Z" fill="#343A40"/>
<path fill-rule="evenodd" clip-rule="evenodd" d="M255.926 294.855L233.332 278.183L234.514 276.582L257.108 293.254L255.926 294.855Z" fill="#343A40"/>
<path fill-rule="evenodd" clip-rule="evenodd" d="M243.117 305.466L220.523 288.793L221.705 287.192L244.299 303.864L243.117 305.466Z" fill="#343A40"/>
<path fill-rule="evenodd" clip-rule="evenodd" d="M239.365 292.461L216.771 275.789L217.953 274.188L240.547 290.86L239.365 292.461Z" fill="#343A40"/>
<path fill-rule="evenodd" clip-rule="evenodd" d="M235.856 320.865L213.262 304.193L214.443 302.591L237.037 319.263L235.856 320.865Z" fill="#343A40"/>
<path fill-rule="evenodd" clip-rule="evenodd" d="M227.734 305.02L205.14 288.348L206.322 286.746L228.916 303.418L227.734 305.02Z" fill="#343A40"/>
<path fill-rule="evenodd" clip-rule="evenodd" d="M231.984 337.682L209.39 321.01L210.572 319.409L233.166 336.081L231.984 337.682Z" fill="#343A40"/>
<path fill-rule="evenodd" clip-rule="evenodd" d="M222.026 320.354L199.432 303.682L200.613 302.081L223.207 318.753L222.026 320.354Z" fill="#343A40"/>
<path fill-rule="evenodd" clip-rule="evenodd" d="M221.727 340.011L199.133 323.339L200.314 321.737L222.908 338.409L221.727 340.011Z" fill="#343A40"/>
<path fill-rule="evenodd" clip-rule="evenodd" d="M226.684 353.735L204.09 337.062L205.271 335.461L227.865 352.133L226.684 353.735Z" fill="#343A40"/>
<path fill-rule="evenodd" clip-rule="evenodd" d="M212.109 353.045L189.515 336.373L190.697 334.771L213.291 351.444L212.109 353.045Z" fill="#343A40"/>
</g>
<path d="M305.34 186.665C305.969 188.767 304.328 190.806 302.134 190.806V190.806C300.764 190.806 299.546 189.982 298.878 188.786C293.305 178.823 281.25 175.154 273.356 186.745C258.57 208.458 299.731 247.668 268.319 275.474C245.447 295.719 199.443 283.125 199.443 251.729L222.534 251.729C231.276 265.32 253.546 263.399 260.317 252.979C268.319 240.666 256.842 216.795 254.983 201.116C251.25 169.622 294.017 148.781 305.34 186.665Z" fill="#0588CB"/>
<path d="M284.25 241.459C293.594 269.469 276.942 294.384 266.212 304.666C265.653 305.202 265.966 306.162 266.736 306.254L288.716 308.872C289.064 308.913 289.398 308.758 289.58 308.459C299.005 292.961 315.703 261.083 305.943 238.763C295.475 214.823 288.7 192.357 297.336 176.666C297.655 176.088 297.726 175.399 297.333 174.869C296.447 173.675 294.176 171.52 288.69 169.879C285.164 168.824 281.564 169 279.736 169.197C278.965 169.28 278.33 169.791 278.089 170.528C275.019 179.898 272.549 206.381 284.25 241.459Z" fill="#FCC419"/>
<mask id="mask2_7326_16610" style="mask-type:alpha" maskUnits="userSpaceOnUse" x="265" y="171" width="44" height="138">
<path d="M284.249 241.46C293.593 269.47 276.941 294.384 266.211 304.667C265.652 305.203 265.965 306.163 266.735 306.254L288.715 308.873C289.063 308.914 289.397 308.759 289.579 308.46C299.004 292.962 315.702 261.084 305.942 238.764C297.234 218.849 291.128 199.579 294.294 184.619C295.36 179.586 293.141 173.765 288.214 172.285C282.723 170.636 277.01 173.542 276.278 179.229C274.62 192.107 275.151 214.185 284.249 241.46Z" fill="#EACF4D"/>
</mask>
<g mask="url(#mask2_7326_16610)">
<path fill-rule="evenodd" clip-rule="evenodd" d="M264.438 294.308L302.085 298.793L301.768 301.461L264.12 296.977L264.438 294.308Z" fill="#343A40"/>
<path fill-rule="evenodd" clip-rule="evenodd" d="M252.989 282.253L290.637 286.737L290.319 289.406L252.671 284.921L252.989 282.253Z" fill="#343A40"/>
<path fill-rule="evenodd" clip-rule="evenodd" d="M260.939 261.246L298.587 265.731L298.27 268.399L260.622 263.915L260.939 261.246Z" fill="#343A40"/>
<path fill-rule="evenodd" clip-rule="evenodd" d="M274.024 274.006L311.672 278.491L311.354 281.159L273.707 276.675L274.024 274.006Z" fill="#343A40"/>
<path fill-rule="evenodd" clip-rule="evenodd" d="M259.184 238.326L296.832 242.81L296.514 245.479L258.866 240.994L259.184 238.326Z" fill="#343A40"/>
<path fill-rule="evenodd" clip-rule="evenodd" d="M279.291 251.501L316.939 255.986L316.621 258.654L278.973 254.17L279.291 251.501Z" fill="#343A40"/>
<path fill-rule="evenodd" clip-rule="evenodd" d="M252.501 216.003L290.149 220.488L289.831 223.156L252.183 218.672L252.501 216.003Z" fill="#343A40"/>
<path fill-rule="evenodd" clip-rule="evenodd" d="M275.755 229.694L313.403 234.179L313.085 236.847L275.437 232.363L275.755 229.694Z" fill="#343A40"/>
<path fill-rule="evenodd" clip-rule="evenodd" d="M262.983 206.423L300.631 210.908L300.313 213.576L262.666 209.092L262.983 206.423Z" fill="#343A40"/>
<path fill-rule="evenodd" clip-rule="evenodd" d="M248.002 193.625L285.65 198.11L285.332 200.778L247.684 196.294L248.002 193.625Z" fill="#343A40"/>
<path fill-rule="evenodd" clip-rule="evenodd" d="M265.57 184.705L303.218 189.189L302.9 191.858L265.252 187.374L265.57 184.705Z" fill="#343A40"/>
</g>
<path d="M290.095 337.725C290.35 339.689 291.93 341.302 293.909 341.302V341.302C295.679 341.302 297.201 340.003 297.359 338.241C299.604 313.281 280.786 300.702 272.711 298.076C254.949 292.302 237.927 303.538 227.566 297.452C217.424 291.495 212.895 276.853 210.97 251.729L187.88 251.729C185.66 283.875 196.623 306.543 208.768 314.617C225.197 325.541 239.111 317.894 254.949 314.617C272.117 311.065 288.016 321.728 290.095 337.725Z" fill="#0588CB"/>
<path d="M197.571 339.193C198.554 337.146 196.978 334.876 194.707 334.876V334.876C193.559 334.876 192.51 335.491 191.824 336.412C182.959 348.323 162.039 347.756 160.048 332.507C157.454 312.629 199.443 298.207 199.443 251.729L176.352 251.729C176.352 273.082 159.562 290.127 148.059 309.9C126.207 347.463 179.739 376.343 197.571 339.193Z" fill="#0588CB"/>
<path d="M150.908 236.225C150.889 237.741 149.991 239.083 148.698 239.875V239.875C146.328 241.328 143.273 240.442 141.193 238.598C126.695 225.75 93.6152 246.968 111.235 269.592C123.176 284.925 149.856 279.393 164.806 251.73L187.896 251.73C187.896 282.08 139.21 311.008 106.942 289.351C87.2561 276.139 84.8878 246.987 99.3934 233.392C107.857 225.46 151.208 212.31 150.908 236.225Z" fill="#0588CB"/>
<path d="M137.57 249.232L137.57 218.646" stroke="#343A40" stroke-width="9.76911" stroke-linecap="round"/>
<path d="M148.155 227.689L148.155 227.689C154.133 227.689 157.701 222.384 157.701 213.786C157.701 205.187 154.133 199.883 148.155 199.883C148.121 199.883 148.088 199.883 148.055 199.883L122.26 198.218L129.848 201.704L135.624 213.669L129.848 225.878L122.26 229.355L148.155 227.69L148.155 227.689Z" fill="#343A40"/>
<path d="M141.377 229.489C147.445 229.489 152.365 223.633 152.365 214.142C152.365 204.651 147.446 198.795 141.377 198.795C141.343 198.795 141.309 198.795 141.275 198.796L120.522 197.876L87.9551 180.48L87.9551 247.805L120.573 230.409L141.377 229.49L141.377 229.489Z" fill="#FAB005"/>
<path d="M135.951 204.527L143.322 205.084" stroke="#FCC419" stroke-width="6.51274" stroke-linecap="round"/>
<path d="M98.4999 214.094C98.4999 223.199 96.9735 231.327 94.5975 237.089C93.4071 239.975 92.0516 242.151 90.6713 243.566C89.2987 244.974 88.0552 245.488 86.9887 245.488C85.9221 245.488 84.6786 244.974 83.306 243.566C81.9257 242.151 80.5702 239.975 79.3799 237.089C77.0038 231.327 75.4774 223.199 75.4774 214.094C75.4774 204.99 77.0038 196.861 79.3799 191.1C80.5702 188.213 81.9257 186.038 83.306 184.622C84.6786 183.214 85.9222 182.701 86.9887 182.701C88.0552 182.701 89.2987 183.214 90.6713 184.622C92.0516 186.038 93.4071 188.213 94.5975 191.1C96.9735 196.861 98.4999 204.99 98.4999 214.094Z" fill="white" stroke="#343A40" stroke-width="4.88455"/>
<path d="M96.0561 223.031C95.2099 223.031 94.3719 222.797 93.5901 222.341C92.8083 221.886 92.098 221.219 91.4996 220.378C90.9012 219.537 90.4266 218.538 90.1027 217.439C89.7789 216.34 89.6122 215.162 89.6122 213.973C89.6122 212.783 89.7789 211.605 90.1027 210.506C90.4266 209.407 90.9012 208.409 91.4996 207.568C92.098 206.726 92.8083 206.059 93.5901 205.604C94.3719 205.149 95.2099 204.915 96.0561 204.915L96.0561 213.973L96.0561 223.031Z" fill="#343A40"/>
<path d="M128.919 246.697C128.478 246.447 128.155 246.041 127.952 245.568V245.568C126.983 243.305 129.304 240.785 131.72 241.091C141.593 242.342 144.808 235.215 144.685 233.582C144.539 231.636 145.968 233.85 147.221 233.186C149.159 232.465 152.555 234.93 149.973 241.649C145.648 250.855 133.959 249.55 128.919 246.697Z" fill="#0588CB"/>
<path d="M53.9551 186.804L58.4954 182.017L74.3178 186.441L68.5046 192.57L77.2071 198.118L57.4977 195.544L63.2077 189.524L53.9551 186.804Z" fill="#FA5252"/>
<path d="M53.9551 241.327L58.4954 246.113L74.3178 241.69L68.5046 235.561L77.2071 230.013L57.4977 232.587L63.2077 238.607L53.9551 241.327Z" fill="#FA5252"/>
<path d="M48.7617 207.896L48.7617 214.561L62.8685 223.095L62.8685 214.561L72.7095 217.086L57.0997 204.412L57.0997 212.794L48.7617 207.896Z" fill="#FA5252"/>
<path d="M142.27 308.722C142.27 306.673 140.669 304.966 138.79 305.486C138.188 305.652 137.596 305.862 137.019 306.114C135.354 306.841 133.841 307.907 132.567 309.25C131.293 310.593 130.282 312.188 129.593 313.943C128.903 315.698 128.548 317.579 128.548 319.479C128.548 321.379 128.903 323.26 129.593 325.015C130.282 326.77 131.293 328.365 132.567 329.708C133.841 331.051 135.354 332.117 137.019 332.844C137.596 333.096 138.188 333.306 138.79 333.472C140.669 333.992 142.27 332.284 142.27 330.236V308.722Z" fill="#FAB005"/>
<path d="M136.013 332.37C137.661 328.4 138.576 324.014 138.576 319.403C138.576 314.851 137.685 310.518 136.076 306.588C134.781 307.278 133.597 308.182 132.568 309.267C131.294 310.61 130.283 312.205 129.593 313.96C128.904 315.715 128.549 317.596 128.549 319.496C128.549 321.396 128.904 323.277 129.593 325.032C130.283 326.787 131.294 328.382 132.568 329.725C133.58 330.792 134.743 331.684 136.013 332.37Z" fill="#F59F00"/>
<path d="M122.432 287.196C122.432 285.147 120.849 283.46 118.924 283.739C116.746 284.055 114.61 284.664 112.569 285.555C109.443 286.92 106.601 288.921 104.208 291.444C101.815 293.967 99.9169 296.963 98.6218 300.259C97.3266 303.556 96.66 307.089 96.66 310.657C96.66 314.225 97.3266 317.758 98.6218 321.054C99.9169 324.351 101.815 327.346 104.208 329.869C106.601 332.392 109.443 334.393 112.569 335.759C114.61 336.65 116.746 337.259 118.924 337.574C120.849 337.853 122.432 336.166 122.432 334.118L122.432 287.196Z" fill="#FAB005"/>
<path d="M110.499 286.575C108.183 287.85 106.062 289.491 104.208 291.445C101.815 293.968 99.9169 296.963 98.6218 300.259C97.3266 303.556 96.66 307.089 96.66 310.657C96.66 314.225 97.3266 317.758 98.6218 321.055C99.9169 324.351 101.815 327.346 104.208 329.869C106.601 332.392 109.443 334.394 112.569 335.759C114.61 336.65 116.746 337.259 118.924 337.575C120.849 337.853 122.432 336.167 122.432 334.118L122.432 290.342C118.828 288.284 114.789 286.964 110.499 286.575Z" fill="#F59F00"/>
<path fill-rule="evenodd" clip-rule="evenodd" d="M83.11 330.82C81.6415 327.356 80.8249 323.518 80.8249 319.479C80.8249 304.114 92.639 291.659 107.212 291.659C121.786 291.659 133.6 304.114 133.6 319.479C133.6 334.843 121.786 347.298 107.212 347.298C106.933 347.298 106.655 347.294 106.378 347.284C106.275 347.285 106.172 347.286 106.069 347.286C97.6871 347.286 84.0715 343.365 81.3191 334.068C80.8906 332.62 81.7804 331.325 83.11 330.82Z" fill="#FAB005"/>
<path d="M130.962 319.479C132.419 319.479 133.613 318.295 133.482 316.843C133.234 314.094 132.598 311.393 131.592 308.833C130.266 305.457 128.322 302.391 125.872 299.807C123.422 297.224 120.513 295.175 117.311 293.777C114.968 292.754 112.502 292.094 109.99 291.814C108.463 291.643 107.214 292.905 107.214 294.441V294.441C107.214 295.978 108.465 297.203 109.987 297.416C111.806 297.67 113.589 298.174 115.292 298.917C117.853 300.036 120.18 301.675 122.14 303.742C124.101 305.808 125.656 308.262 126.716 310.962C127.457 312.847 127.947 314.827 128.175 316.845C128.339 318.294 129.505 319.479 130.962 319.479V319.479Z" fill="#FCC419"/>
<ellipse cx="104.224" cy="318.91" rx="14.2492" ry="15.0225" fill="white"/>
<path fill-rule="evenodd" clip-rule="evenodd" d="M105.205 314.356C104.221 315.11 104.013 316.517 104.749 317.522C105.494 318.542 106.926 318.763 107.945 318.018C108.227 317.812 108.448 317.554 108.604 317.266C109.289 319.132 108.691 321.301 107.008 322.532C104.969 324.023 102.106 323.58 100.615 321.541C99.1246 319.502 99.5713 316.638 101.611 315.146C102.686 314.361 103.992 314.114 105.205 314.356Z" fill="#343A40"/>
<path d="M355.881 293.086C355.881 292.021 355.05 291.134 354.073 291.404C353.76 291.491 353.453 291.6 353.153 291.731C352.288 292.108 351.502 292.662 350.841 293.36C350.179 294.058 349.654 294.886 349.295 295.798C348.937 296.71 348.753 297.687 348.753 298.674C348.753 299.661 348.937 300.638 349.295 301.55C349.654 302.461 350.179 303.29 350.841 303.988C351.502 304.685 352.288 305.239 353.153 305.617C353.453 305.748 353.76 305.857 354.073 305.943C355.05 306.213 355.881 305.326 355.881 304.262V293.086Z" fill="#FD7E14"/>
<path d="M352.63 305.371C353.487 303.308 353.962 301.03 353.962 298.634C353.962 296.269 353.499 294.019 352.663 291.977C351.99 292.336 351.375 292.805 350.841 293.369C350.179 294.066 349.654 294.895 349.295 295.807C348.937 296.718 348.753 297.696 348.753 298.683C348.753 299.669 348.937 300.647 349.295 301.558C349.654 302.47 350.179 303.299 350.841 303.996C351.367 304.551 351.971 305.014 352.63 305.371Z" fill="#F76707"/>
<path d="M345.573 281.903C345.573 280.839 344.751 279.963 343.751 280.108C342.619 280.271 341.51 280.588 340.45 281.051C338.826 281.76 337.35 282.8 336.106 284.11C334.863 285.421 333.877 286.977 333.204 288.689C332.531 290.402 332.185 292.237 332.185 294.091C332.185 295.944 332.531 297.78 333.204 299.492C333.877 301.205 334.863 302.761 336.106 304.071C337.35 305.382 338.826 306.422 340.45 307.131C341.51 307.594 342.619 307.91 343.751 308.074C344.751 308.219 345.573 307.343 345.573 306.279L345.573 281.903Z" fill="#FD7E14"/>
<path d="M339.374 281.581C338.171 282.243 337.069 283.095 336.106 284.11C334.863 285.421 333.877 286.977 333.204 288.69C332.531 290.402 332.185 292.237 332.185 294.091C332.185 295.945 332.531 297.78 333.204 299.493C333.877 301.205 334.863 302.761 336.106 304.072C337.35 305.382 338.826 306.422 340.45 307.131C341.51 307.594 342.619 307.911 343.751 308.074C344.751 308.219 345.573 307.343 345.573 306.279L345.573 283.538C343.701 282.469 341.603 281.783 339.374 281.581Z" fill="#F76707"/>
<path fill-rule="evenodd" clip-rule="evenodd" d="M325.148 304.565C324.385 302.766 323.961 300.772 323.961 298.674C323.961 290.692 330.098 284.222 337.669 284.222C345.24 284.222 351.377 290.692 351.377 298.674C351.377 306.655 345.24 313.126 337.669 313.126C337.524 313.126 337.38 313.123 337.236 313.118C337.182 313.119 337.129 313.119 337.075 313.119C332.721 313.119 325.648 311.082 324.218 306.253C323.995 305.501 324.457 304.828 325.148 304.565Z" fill="#FD7E14"/>
<path d="M350.006 298.674C350.763 298.674 351.383 298.059 351.315 297.305C351.186 295.876 350.856 294.473 350.333 293.143C349.644 291.39 348.635 289.797 347.362 288.455C346.089 287.113 344.578 286.048 342.915 285.322C341.697 284.79 340.416 284.447 339.111 284.302C338.318 284.213 337.669 284.869 337.669 285.667V285.667C337.669 286.465 338.319 287.102 339.109 287.212C340.054 287.344 340.981 287.606 341.866 287.992C343.196 288.573 344.405 289.425 345.423 290.498C346.442 291.572 347.249 292.846 347.8 294.249C348.185 295.229 348.44 296.257 348.558 297.306C348.643 298.058 349.249 298.674 350.006 298.674V298.674Z" fill="#FF922B"/>
<ellipse cx="336.115" cy="298.378" rx="7.40229" ry="7.80403" fill="white"/>
<path fill-rule="evenodd" clip-rule="evenodd" d="M336.626 296.012C336.114 296.404 336.007 297.135 336.389 297.657C336.776 298.187 337.52 298.302 338.049 297.915C338.196 297.807 338.31 297.673 338.392 297.524C338.748 298.493 338.437 299.62 337.563 300.259C336.504 301.034 335.016 300.804 334.242 299.745C333.467 298.685 333.699 297.198 334.759 296.423C335.317 296.015 335.996 295.886 336.626 296.012Z" fill="#343A40"/>
<path d="M261.284 121.249C261.284 119.892 260.225 118.762 258.98 119.106C258.582 119.216 258.19 119.355 257.807 119.522C256.705 120.003 255.704 120.709 254.86 121.598C254.016 122.488 253.347 123.543 252.89 124.706C252.434 125.868 252.199 127.113 252.199 128.371C252.199 129.629 252.434 130.874 252.89 132.036C253.347 133.199 254.016 134.254 254.86 135.144C255.704 136.033 256.705 136.739 257.807 137.22C258.19 137.387 258.582 137.526 258.98 137.636C260.225 137.98 261.284 136.85 261.284 135.493V121.249Z" fill="#F03E3E"/>
<path d="M257.141 136.906C258.232 134.278 258.838 131.374 258.838 128.321C258.838 125.306 258.248 122.437 257.182 119.835C256.325 120.293 255.541 120.891 254.86 121.609C254.016 122.499 253.347 123.554 252.89 124.717C252.434 125.879 252.199 127.124 252.199 128.382C252.199 129.64 252.434 130.885 252.89 132.048C253.347 133.21 254.016 134.266 254.86 135.155C255.53 135.862 256.3 136.452 257.141 136.906Z" fill="#E03131"/>
<path d="M248.148 106.996C248.148 105.639 247.101 104.522 245.826 104.707C244.384 104.916 242.969 105.319 241.618 105.909C239.548 106.813 237.667 108.138 236.082 109.809C234.498 111.479 233.241 113.463 232.383 115.645C231.526 117.828 231.084 120.167 231.084 122.53C231.084 124.892 231.526 127.232 232.383 129.414C233.241 131.597 234.498 133.58 236.082 135.251C237.667 136.921 239.548 138.246 241.618 139.151C242.969 139.74 244.384 140.144 245.826 140.353C247.101 140.537 248.148 139.42 248.148 138.064L248.148 106.996Z" fill="#F03E3E"/>
<path d="M240.247 106.584C238.714 107.429 237.309 108.515 236.082 109.809C234.498 111.48 233.241 113.463 232.383 115.645C231.526 117.828 231.084 120.167 231.084 122.53C231.084 124.892 231.526 127.232 232.383 129.414C233.241 131.597 234.498 133.58 236.082 135.251C237.667 136.921 239.548 138.247 241.618 139.151C242.969 139.741 244.384 140.144 245.826 140.353C247.101 140.537 248.148 139.42 248.148 138.064L248.148 109.079C245.762 107.716 243.088 106.842 240.247 106.584Z" fill="#E03131"/>
<path fill-rule="evenodd" clip-rule="evenodd" d="M222.115 135.88C221.142 133.586 220.602 131.045 220.602 128.371C220.602 118.198 228.424 109.951 238.073 109.951C247.723 109.951 255.545 118.198 255.545 128.371C255.545 138.544 247.723 146.791 238.073 146.791C237.888 146.791 237.704 146.788 237.521 146.782C237.453 146.782 237.385 146.782 237.316 146.782C231.766 146.782 222.751 144.186 220.929 138.031C220.645 137.072 221.234 136.215 222.115 135.88Z" fill="#F03E3E"/>
<path d="M253.798 128.371C254.763 128.371 255.553 127.587 255.466 126.626C255.302 124.805 254.881 123.017 254.215 121.322C253.337 119.087 252.05 117.056 250.428 115.346C248.805 113.635 246.879 112.279 244.759 111.353C243.208 110.675 241.575 110.238 239.911 110.053C238.9 109.94 238.073 110.775 238.073 111.793V111.793C238.073 112.81 238.902 113.622 239.909 113.762C241.114 113.931 242.295 114.264 243.422 114.756C245.118 115.497 246.659 116.582 247.957 117.951C249.255 119.319 250.284 120.944 250.987 122.731C251.477 123.98 251.801 125.291 251.952 126.627C252.061 127.586 252.833 128.371 253.798 128.371V128.371Z" fill="#FA5252"/>
<ellipse cx="236.093" cy="127.994" rx="9.43471" ry="9.94676" fill="white"/>
<path fill-rule="evenodd" clip-rule="evenodd" d="M236.743 124.979C236.092 125.478 235.954 126.409 236.441 127.075C236.935 127.75 237.883 127.897 238.558 127.403C238.744 127.267 238.89 127.096 238.994 126.905C239.447 128.141 239.052 129.577 237.937 130.392C236.587 131.379 234.691 131.086 233.704 129.736C232.717 128.386 233.013 126.489 234.363 125.502C235.076 124.982 235.94 124.818 236.743 124.979Z" fill="#343A40"/>
<path d="M133.615 44.3636V56H131.49L126.428 48.6761H126.343V56H123.882V44.3636H126.042L131.064 51.6818H131.167V44.3636H133.615ZM139.58 56.1705C138.682 56.1705 137.909 55.9886 137.262 55.625C136.618 55.2576 136.122 54.7386 135.773 54.0682C135.425 53.3939 135.25 52.5966 135.25 51.6761C135.25 50.7784 135.425 49.9905 135.773 49.3125C136.122 48.6345 136.612 48.1061 137.245 47.7273C137.881 47.3485 138.627 47.1591 139.483 47.1591C140.059 47.1591 140.595 47.2519 141.091 47.4375C141.591 47.6193 142.027 47.8939 142.398 48.2614C142.773 48.6288 143.065 49.0909 143.273 49.6477C143.481 50.2008 143.586 50.8485 143.586 51.5909V52.2557H136.216V50.7557H141.307C141.307 50.4072 141.231 50.0985 141.08 49.8295C140.928 49.5606 140.718 49.3504 140.449 49.1989C140.184 49.0436 139.875 48.9659 139.523 48.9659C139.156 48.9659 138.83 49.0511 138.546 49.2216C138.266 49.3883 138.046 49.6136 137.887 49.8977C137.728 50.178 137.646 50.4905 137.642 50.8352V52.2614C137.642 52.6932 137.722 53.0663 137.881 53.3807C138.044 53.6951 138.273 53.9375 138.569 54.108C138.864 54.2784 139.214 54.3636 139.62 54.3636C139.889 54.3636 140.135 54.3258 140.358 54.25C140.582 54.1742 140.773 54.0606 140.932 53.9091C141.091 53.7576 141.212 53.572 141.296 53.3523L143.534 53.5C143.421 54.0379 143.188 54.5076 142.836 54.9091C142.487 55.3068 142.036 55.6174 141.483 55.8409C140.934 56.0606 140.3 56.1705 139.58 56.1705ZM146.824 56L144.449 47.2727H146.898L148.25 53.1364H148.33L149.739 47.2727H152.142L153.574 53.1023H153.648L154.978 47.2727H157.421L155.051 56H152.489L150.989 50.5114H150.881L149.381 56H146.824ZM162.461 44.3636H165.495L168.699 52.1818H168.836L172.04 44.3636H175.074V56H172.688V48.4261H172.591L169.58 55.9432H167.955L164.944 48.3977H164.847V56H162.461V44.3636ZM179.544 56.1648C178.988 56.1648 178.491 56.0682 178.056 55.875C177.62 55.678 177.275 55.3883 177.022 55.0057C176.772 54.6193 176.647 54.1383 176.647 53.5625C176.647 53.0777 176.736 52.6705 176.914 52.3409C177.092 52.0114 177.334 51.7462 177.641 51.5455C177.948 51.3447 178.296 51.1932 178.686 51.0909C179.08 50.9886 179.493 50.9167 179.925 50.875C180.433 50.822 180.842 50.7727 181.152 50.7273C181.463 50.678 181.688 50.6061 181.828 50.5114C181.969 50.4167 182.039 50.2765 182.039 50.0909V50.0568C182.039 49.697 181.925 49.4186 181.698 49.2216C181.474 49.0246 181.156 48.9261 180.743 48.9261C180.308 48.9261 179.961 49.0227 179.703 49.2159C179.446 49.4053 179.275 49.6439 179.192 49.9318L176.953 49.75C177.067 49.2197 177.291 48.7614 177.624 48.375C177.957 47.9848 178.387 47.6856 178.914 47.4773C179.444 47.2652 180.058 47.1591 180.755 47.1591C181.239 47.1591 181.703 47.2159 182.147 47.3295C182.594 47.4432 182.989 47.6193 183.334 47.858C183.683 48.0966 183.957 48.4034 184.158 48.7784C184.359 49.1496 184.459 49.5947 184.459 50.1136V56H182.164V54.7898H182.096C181.955 55.0625 181.768 55.303 181.533 55.5114C181.298 55.7159 181.016 55.8769 180.686 55.9943C180.357 56.108 179.976 56.1648 179.544 56.1648ZM180.238 54.4943C180.594 54.4943 180.908 54.4242 181.181 54.2841C181.453 54.1402 181.667 53.947 181.823 53.7045C181.978 53.4621 182.056 53.1875 182.056 52.8807V51.9545C181.98 52.0038 181.876 52.0492 181.743 52.0909C181.614 52.1288 181.469 52.1648 181.306 52.1989C181.143 52.2292 180.98 52.2576 180.817 52.2841C180.654 52.3068 180.507 52.3277 180.374 52.3466C180.09 52.3883 179.842 52.4545 179.63 52.5455C179.417 52.6364 179.253 52.7595 179.135 52.9148C179.018 53.0663 178.959 53.2557 178.959 53.483C178.959 53.8125 179.078 54.0644 179.317 54.2386C179.56 54.4091 179.866 54.4943 180.238 54.4943ZM193.598 49.7614L191.382 49.8977C191.345 49.7083 191.263 49.5379 191.138 49.3864C191.013 49.2311 190.848 49.108 190.644 49.017C190.443 48.9223 190.203 48.875 189.922 48.875C189.547 48.875 189.231 48.9545 188.973 49.1136C188.716 49.2689 188.587 49.4773 188.587 49.7386C188.587 49.947 188.67 50.1231 188.837 50.267C189.004 50.411 189.29 50.5265 189.695 50.6136L191.275 50.9318C192.123 51.1061 192.756 51.3864 193.172 51.7727C193.589 52.1591 193.797 52.6667 193.797 53.2955C193.797 53.8674 193.629 54.3693 193.292 54.8011C192.958 55.233 192.5 55.5701 191.917 55.8125C191.337 56.0511 190.668 56.1705 189.911 56.1705C188.756 56.1705 187.835 55.9299 187.15 55.4489C186.468 54.964 186.068 54.3049 185.951 53.4716L188.331 53.3466C188.403 53.6989 188.578 53.9678 188.854 54.1534C189.131 54.3352 189.485 54.4261 189.917 54.4261C190.341 54.4261 190.682 54.3447 190.939 54.1818C191.201 54.0152 191.333 53.8011 191.337 53.5398C191.333 53.3201 191.24 53.1402 191.059 53C190.877 52.8561 190.596 52.7462 190.218 52.6705L188.706 52.3693C187.854 52.1989 187.22 51.9034 186.803 51.483C186.39 51.0625 186.184 50.5265 186.184 49.875C186.184 49.3144 186.335 48.8314 186.638 48.4261C186.945 48.0208 187.375 47.7083 187.928 47.4886C188.485 47.2689 189.136 47.1591 189.882 47.1591C190.985 47.1591 191.852 47.392 192.485 47.858C193.121 48.3239 193.492 48.9583 193.598 49.7614ZM199.265 56.1705C198.371 56.1705 197.602 55.9811 196.958 55.6023C196.318 55.2197 195.825 54.6894 195.48 54.0114C195.14 53.3333 194.969 52.553 194.969 51.6705C194.969 50.7765 195.141 49.9924 195.486 49.3182C195.835 48.6402 196.329 48.1117 196.969 47.733C197.609 47.3504 198.371 47.1591 199.253 47.1591C200.015 47.1591 200.681 47.2973 201.253 47.5739C201.825 47.8504 202.278 48.2386 202.611 48.7386C202.944 49.2386 203.128 49.8258 203.162 50.5H200.878C200.814 50.0644 200.643 49.714 200.367 49.4489C200.094 49.1799 199.736 49.0455 199.293 49.0455C198.918 49.0455 198.59 49.1477 198.31 49.3523C198.033 49.553 197.818 49.8466 197.662 50.233C197.507 50.6193 197.429 51.0871 197.429 51.6364C197.429 52.1932 197.505 52.6667 197.657 53.0568C197.812 53.447 198.03 53.7443 198.31 53.9489C198.59 54.1534 198.918 54.2557 199.293 54.2557C199.569 54.2557 199.818 54.1989 200.037 54.0852C200.261 53.9716 200.444 53.8068 200.588 53.5909C200.736 53.3712 200.833 53.108 200.878 52.8011H203.162C203.124 53.4678 202.943 54.0549 202.617 54.5625C202.295 55.0663 201.85 55.4602 201.282 55.7443C200.713 56.0284 200.041 56.1705 199.265 56.1705ZM208.655 56.1705C207.773 56.1705 207.009 55.983 206.365 55.608C205.725 55.2292 205.231 54.7027 204.882 54.0284C204.534 53.3504 204.36 52.5644 204.36 51.6705C204.36 50.7689 204.534 49.9811 204.882 49.3068C205.231 48.6288 205.725 48.1023 206.365 47.7273C207.009 47.3485 207.773 47.1591 208.655 47.1591C209.538 47.1591 210.299 47.3485 210.939 47.7273C211.583 48.1023 212.079 48.6288 212.428 49.3068C212.776 49.9811 212.951 50.7689 212.951 51.6705C212.951 52.5644 212.776 53.3504 212.428 54.0284C212.079 54.7027 211.583 55.2292 210.939 55.608C210.299 55.983 209.538 56.1705 208.655 56.1705ZM208.667 54.2955C209.068 54.2955 209.403 54.1818 209.672 53.9545C209.941 53.7235 210.144 53.4091 210.28 53.0114C210.42 52.6136 210.49 52.161 210.49 51.6534C210.49 51.1458 210.42 50.6932 210.28 50.2955C210.144 49.8977 209.941 49.5833 209.672 49.3523C209.403 49.1212 209.068 49.0057 208.667 49.0057C208.261 49.0057 207.92 49.1212 207.644 49.3523C207.371 49.5833 207.165 49.8977 207.025 50.2955C206.888 50.6932 206.82 51.1458 206.82 51.6534C206.82 52.161 206.888 52.6136 207.025 53.0114C207.165 53.4091 207.371 53.7235 207.644 53.9545C207.92 54.1818 208.261 54.2955 208.667 54.2955ZM219.167 47.2727V49.0909H213.911V47.2727H219.167ZM215.104 45.1818H217.525V53.3182C217.525 53.5417 217.559 53.7159 217.627 53.8409C217.695 53.9621 217.79 54.0473 217.911 54.0966C218.036 54.1458 218.18 54.1705 218.343 54.1705C218.456 54.1705 218.57 54.161 218.684 54.142C218.797 54.1193 218.884 54.1023 218.945 54.0909L219.326 55.892C219.204 55.9299 219.034 55.9735 218.814 56.0227C218.595 56.0758 218.328 56.108 218.013 56.1193C217.43 56.142 216.918 56.0644 216.479 55.8864C216.043 55.7083 215.704 55.4318 215.462 55.0568C215.22 54.6818 215.1 54.2083 215.104 53.6364V45.1818ZM228.617 56H224.492V44.3636H228.651C229.821 44.3636 230.829 44.5966 231.674 45.0625C232.518 45.5246 233.168 46.1894 233.623 47.0568C234.081 47.9242 234.31 48.9621 234.31 50.1705C234.31 51.3826 234.081 52.4242 233.623 53.2955C233.168 54.1667 232.515 54.8352 231.662 55.3011C230.814 55.767 229.799 56 228.617 56ZM226.952 53.892H228.515C229.242 53.892 229.854 53.7633 230.35 53.5057C230.85 53.2443 231.225 52.8409 231.475 52.2955C231.729 51.7462 231.855 51.0379 231.855 50.1705C231.855 49.3106 231.729 48.608 231.475 48.0625C231.225 47.517 230.852 47.1155 230.355 46.858C229.859 46.6004 229.248 46.4716 228.52 46.4716H226.952V53.892ZM240.064 56.1705C239.167 56.1705 238.394 55.9886 237.746 55.625C237.102 55.2576 236.606 54.7386 236.257 54.0682C235.909 53.3939 235.735 52.5966 235.735 51.6761C235.735 50.7784 235.909 49.9905 236.257 49.3125C236.606 48.6345 237.096 48.1061 237.729 47.7273C238.365 47.3485 239.112 47.1591 239.968 47.1591C240.543 47.1591 241.079 47.2519 241.576 47.4375C242.076 47.6193 242.511 47.8939 242.882 48.2614C243.257 48.6288 243.549 49.0909 243.757 49.6477C243.966 50.2008 244.07 50.8485 244.07 51.5909V52.2557H236.701V50.7557H241.792C241.792 50.4072 241.716 50.0985 241.564 49.8295C241.413 49.5606 241.203 49.3504 240.934 49.1989C240.668 49.0436 240.36 48.9659 240.007 48.9659C239.64 48.9659 239.314 49.0511 239.03 49.2216C238.75 49.3883 238.53 49.6136 238.371 49.8977C238.212 50.178 238.131 50.4905 238.127 50.8352V52.2614C238.127 52.6932 238.206 53.0663 238.365 53.3807C238.528 53.6951 238.757 53.9375 239.053 54.108C239.348 54.2784 239.699 54.3636 240.104 54.3636C240.373 54.3636 240.619 54.3258 240.843 54.25C241.066 54.1742 241.257 54.0606 241.417 53.9091C241.576 53.7576 241.697 53.572 241.78 53.3523L244.019 53.5C243.905 54.0379 243.672 54.5076 243.32 54.9091C242.971 55.3068 242.521 55.6174 241.968 55.8409C241.418 56.0606 240.784 56.1705 240.064 56.1705ZM252.911 49.7614L250.695 49.8977C250.657 49.7083 250.576 49.5379 250.451 49.3864C250.326 49.2311 250.161 49.108 249.956 49.017C249.756 48.9223 249.515 48.875 249.235 48.875C248.86 48.875 248.543 48.9545 248.286 49.1136C248.028 49.2689 247.9 49.4773 247.9 49.7386C247.9 49.947 247.983 50.1231 248.15 50.267C248.316 50.411 248.602 50.5265 249.007 50.6136L250.587 50.9318C251.435 51.1061 252.068 51.3864 252.485 51.7727C252.901 52.1591 253.11 52.6667 253.11 53.2955C253.11 53.8674 252.941 54.3693 252.604 54.8011C252.271 55.233 251.812 55.5701 251.229 55.8125C250.65 56.0511 249.981 56.1705 249.223 56.1705C248.068 56.1705 247.148 55.9299 246.462 55.4489C245.78 54.964 245.381 54.3049 245.263 53.4716L247.644 53.3466C247.716 53.6989 247.89 53.9678 248.167 54.1534C248.443 54.3352 248.797 54.4261 249.229 54.4261C249.653 54.4261 249.994 54.3447 250.252 54.1818C250.513 54.0152 250.646 53.8011 250.65 53.5398C250.646 53.3201 250.553 53.1402 250.371 53C250.189 52.8561 249.909 52.7462 249.53 52.6705L248.019 52.3693C247.167 52.1989 246.532 51.9034 246.115 51.483C245.703 51.0625 245.496 50.5265 245.496 49.875C245.496 49.3144 245.648 48.8314 245.951 48.4261C246.257 48.0208 246.687 47.7083 247.24 47.4886C247.797 47.2689 248.449 47.1591 249.195 47.1591C250.297 47.1591 251.165 47.392 251.797 47.858C252.434 48.3239 252.805 48.9583 252.911 49.7614ZM254.634 56V47.2727H257.054V56H254.634ZM255.85 46.1477C255.49 46.1477 255.181 46.0284 254.924 45.7898C254.67 45.5473 254.543 45.2576 254.543 44.9205C254.543 44.5871 254.67 44.3011 254.924 44.0625C255.181 43.8201 255.49 43.6989 255.85 43.6989C256.21 43.6989 256.516 43.8201 256.77 44.0625C257.028 44.3011 257.157 44.5871 257.157 44.9205C257.157 45.2576 257.028 45.5473 256.77 45.7898C256.516 46.0284 256.21 46.1477 255.85 46.1477ZM262.925 59.4545C262.141 59.4545 261.469 59.3466 260.908 59.1307C260.351 58.9186 259.908 58.6288 259.578 58.2614C259.249 57.8939 259.035 57.4811 258.936 57.0227L261.175 56.7216C261.243 56.8958 261.351 57.0587 261.499 57.2102C261.647 57.3617 261.842 57.483 262.084 57.5739C262.33 57.6686 262.63 57.7159 262.982 57.7159C263.508 57.7159 263.942 57.5871 264.283 57.3295C264.628 57.0758 264.8 56.6496 264.8 56.0511V54.4545H264.698C264.592 54.697 264.433 54.9261 264.221 55.142C264.008 55.358 263.736 55.5341 263.402 55.6705C263.069 55.8068 262.671 55.875 262.209 55.875C261.554 55.875 260.957 55.7235 260.419 55.4205C259.885 55.1136 259.459 54.6458 259.141 54.017C258.827 53.3845 258.669 52.5852 258.669 51.6193C258.669 50.6307 258.83 49.8049 259.152 49.142C259.474 48.4792 259.902 47.983 260.436 47.6534C260.974 47.3239 261.563 47.1591 262.203 47.1591C262.692 47.1591 263.101 47.2424 263.431 47.4091C263.76 47.572 264.025 47.7765 264.226 48.0227C264.431 48.2652 264.588 48.5038 264.698 48.7386H264.789V47.2727H267.192V56.0852C267.192 56.8277 267.01 57.4489 266.647 57.9489C266.283 58.4489 265.779 58.8239 265.135 59.0739C264.495 59.3277 263.758 59.4545 262.925 59.4545ZM262.976 54.0568C263.366 54.0568 263.696 53.9602 263.965 53.767C264.238 53.5701 264.446 53.2898 264.59 52.9261C264.738 52.5587 264.811 52.1193 264.811 51.608C264.811 51.0966 264.739 50.6534 264.596 50.2784C264.452 49.8996 264.243 49.6061 263.971 49.3977C263.698 49.1894 263.366 49.0852 262.976 49.0852C262.578 49.0852 262.243 49.1932 261.971 49.4091C261.698 49.6212 261.491 49.9167 261.351 50.2955C261.211 50.6742 261.141 51.1117 261.141 51.608C261.141 52.1117 261.211 52.5473 261.351 52.9148C261.495 53.2784 261.702 53.5606 261.971 53.7614C262.243 53.9583 262.578 54.0568 262.976 54.0568ZM271.539 50.9545V56H269.118V47.2727H271.425V48.8125H271.527C271.721 48.3049 272.044 47.9034 272.499 47.608C272.953 47.3087 273.505 47.1591 274.152 47.1591C274.758 47.1591 275.287 47.2917 275.738 47.5568C276.188 47.822 276.539 48.2008 276.789 48.6932C277.039 49.1818 277.164 49.7652 277.164 50.4432V56H274.743V50.875C274.747 50.3409 274.611 49.9242 274.334 49.625C274.058 49.322 273.677 49.1705 273.192 49.1705C272.866 49.1705 272.578 49.2405 272.328 49.3807C272.082 49.5208 271.889 49.7254 271.749 49.9943C271.613 50.2595 271.542 50.5795 271.539 50.9545Z" fill="white"/>
</svg>
