<svg width="800" height="450" viewBox="0 0 800 450" fill="none" xmlns="http://www.w3.org/2000/svg">
<rect width="800" height="450" fill="#0F77B8"/>
<path d="M314.424 228.83C314.424 215.538 318.704 204.949 327.491 196.839C336.277 188.728 347.767 184.673 362.186 184.673C367.761 184.673 373.304 185.509 378.632 187.151C384.337 188.826 389.63 191.675 394.169 195.516C398.709 199.357 402.395 204.105 404.991 209.455C407.988 215.632 409.529 222.414 409.497 229.28C409.689 235.406 408.584 241.503 406.254 247.172C403.925 252.84 400.423 257.952 395.979 262.173C386.968 270.734 375.478 275.014 361.059 275.014C347.091 275.014 335.601 270.734 327.265 262.398C318.704 253.837 314.424 242.798 314.424 228.83ZM361.96 194.36C358.656 194.323 355.407 195.21 352.58 196.922C349.754 198.634 347.462 201.102 345.965 204.048C341.909 210.581 340.107 219.368 340.107 230.632C340.107 241.221 342.135 249.557 346.19 256.09C350.245 262.623 355.652 265.777 362.186 265.777C368.719 265.777 373.901 262.398 377.731 255.865C381.786 249.331 383.588 240.32 383.588 229.28C383.588 218.692 381.561 210.131 377.505 203.823C373.675 197.514 368.494 194.36 361.96 194.36ZM419.184 228.83C419.184 215.538 423.465 204.949 432.251 196.839C441.038 188.728 452.527 184.673 466.946 184.673C472.521 184.673 478.065 185.509 483.392 187.151C489.098 188.826 494.39 191.675 498.93 195.516C503.469 199.357 507.155 204.105 509.751 209.455C512.748 215.632 514.29 222.414 514.257 229.28C514.449 235.406 513.344 241.503 511.015 247.172C508.685 252.84 505.184 257.952 500.74 262.173C491.728 270.734 480.238 275.014 465.82 275.014C451.852 275.014 440.362 270.734 432.026 262.398C423.465 253.837 419.184 242.798 419.184 228.83ZM466.721 194.36C463.416 194.323 460.167 195.21 457.341 196.922C454.514 198.634 452.223 201.102 450.725 204.048C446.67 210.581 444.867 219.368 444.867 230.632C444.867 241.221 446.895 249.557 450.95 256.09C455.006 262.623 460.413 265.777 466.946 265.777C473.479 265.777 478.661 262.398 482.491 255.865C486.546 249.331 488.349 240.32 488.349 229.28C488.349 218.692 486.321 210.131 482.266 203.823C478.436 197.514 473.254 194.36 466.721 194.36ZM521.692 272.762V265.552L529.577 264.876L532.055 262.398V196.388L530.253 194.586L521.692 193.684V186.7H558.189V190.08L595.137 247.304V197.064L592.884 194.586L584.548 193.684V186.7H617.215V193.684L609.555 194.586L607.077 197.064V272.987H586.576L543.77 207.202V262.398L545.573 264.876L554.134 265.552V272.762H521.692ZM622.622 272.762V265.327L631.859 264.876L633.887 262.398V196.388L631.859 194.586L622.622 194.135V186.7H668.582V194.135L659.12 194.586L657.092 196.388V262.398L659.12 264.876L668.582 265.327V272.762H622.622Z" fill="white"/>
<path d="M208.92 147.5C224.248 147.5 239.232 152.045 251.977 160.561C264.722 169.077 274.655 181.181 280.521 195.342C286.387 209.503 287.922 225.086 284.931 240.119C281.941 255.153 274.56 268.962 263.721 279.801C252.882 290.639 239.073 298.02 224.04 301.011C209.006 304.001 193.423 302.466 179.262 296.601C165.101 290.735 152.997 280.801 144.481 268.057C135.965 255.312 131.42 240.328 131.42 225C131.42 204.446 139.585 184.733 154.119 170.199C168.653 155.665 188.366 147.5 208.92 147.5Z" fill="white"/>
<path d="M187.743 207.426C193.15 212.833 194.502 217.79 192.249 222.07C189.771 226.801 184.364 229.505 175.127 229.505C167.242 229.505 164.989 225.675 163.412 223.422C160.258 219.141 161.835 213.96 164.763 210.58C168.368 206.525 170.846 206.075 173.775 207.652C174.939 208.241 175.914 209.144 176.591 210.259C177.268 211.373 177.619 212.656 177.605 213.96C177.342 215.877 176.889 217.764 176.253 219.592C176.253 220.043 176.479 220.268 176.929 220.043C178.779 219.145 180.397 217.835 181.66 216.213C183.169 213.265 184.087 210.05 184.364 206.75C184.138 205.849 181.886 204.047 181.66 203.146C181.645 202.519 181.491 201.904 181.21 201.343C180.984 200.893 180.534 200.442 180.309 200.442C179.633 199.992 177.83 200.668 177.154 199.766C176.479 199.091 176.253 197.288 175.577 197.288C174.982 197.175 174.37 197.175 173.775 197.288C173.048 197.586 172.293 197.812 171.522 197.964C170.396 197.739 169.72 196.162 168.368 196.387C167.016 196.387 165.214 198.865 163.412 200.893C160.496 203.485 157.922 206.437 155.752 209.679C153.523 213.151 152.642 217.318 153.274 221.394C153.646 226.085 155.827 230.448 159.356 233.56C162.206 236.312 165.687 238.323 169.494 239.418C171.721 240.359 174.074 240.967 176.479 241.22H180.083C181.66 240.995 181.435 240.319 183.012 240.094C187.94 239.377 192.473 236.991 195.854 233.335C196.82 232.421 197.723 231.442 198.557 230.406V232.659C198.107 235.362 196.529 236.714 193.826 238.291C189.327 240.591 184.964 243.148 180.759 245.951C177.38 248.429 174.226 250.682 173.099 254.737C172.015 257.582 172.096 260.739 173.324 263.524C174.708 266.412 176.899 268.838 179.633 270.508C182.336 272.085 184.814 273.437 187.518 274.788C189.32 275.689 192.474 277.266 192.249 280.646C192.18 281.872 191.789 283.059 191.117 284.087C190.445 285.115 189.515 285.948 188.419 286.503C186.428 287.163 184.396 287.69 182.336 288.08C183.035 288.916 183.893 289.605 184.859 290.108C185.826 290.611 186.883 290.917 187.968 291.009C190.128 291.094 192.28 290.71 194.277 289.883C196.529 289.207 197.431 287.179 197.881 287.179C198.126 287.21 198.374 287.185 198.608 287.107C198.842 287.029 199.055 286.9 199.233 286.729C199.684 286.278 201.261 285.152 201.486 284.476C201.711 283.8 201.711 282.673 201.936 281.998C202.394 280.763 202.696 279.477 202.838 278.168C203.032 276.411 202.801 274.634 202.162 272.986C201.261 271.859 201.711 271.184 201.035 270.508C200.81 270.508 200.359 269.607 199.909 269.381C199.233 269.156 198.782 269.381 198.332 269.156C197.656 268.705 196.529 265.777 195.403 265.777H194.051C192.105 266.002 190.14 266.002 188.194 265.777C187.067 265.326 183.237 263.073 183.688 259.468C183.854 258.056 184.434 256.724 185.356 255.641C186.279 254.559 187.501 253.774 188.87 253.386C191.348 252.484 192.249 252.484 194.051 251.809C195.854 250.907 196.98 250.006 198.332 249.33C199.885 248.646 201.327 247.735 202.612 246.627C203.419 245.933 204.172 245.18 204.865 244.374C205.541 243.698 206.668 241.445 208.019 240.544C209.41 242.78 210.993 244.891 212.75 246.852C215.545 249.693 218.732 252.121 222.213 254.062C225.389 256.142 228.269 258.643 230.774 261.496C231.558 262.786 231.972 264.267 231.972 265.777C231.972 267.286 231.558 268.767 230.774 270.057C230.013 271.048 229.017 271.835 227.877 272.346C226.736 272.857 225.487 273.077 224.24 272.986C222.603 272.981 220.987 272.614 219.507 271.914C218.028 271.213 216.721 270.194 215.679 268.931C213.652 266.452 212.976 261.496 214.553 260.37C215.978 259.527 217.68 259.284 219.284 259.694C220.185 259.694 221.086 259.243 221.086 258.567C221.199 258.119 221.147 257.646 220.94 257.232C220.734 256.819 220.386 256.493 219.96 256.314C219.218 255.635 218.261 255.236 217.256 255.188C215.993 255.415 214.707 255.491 213.426 255.413C212.415 255.328 211.397 255.444 210.43 255.753C209.464 256.062 208.568 256.559 207.794 257.216C206.552 258.354 205.556 259.734 204.865 261.271C204.752 262.244 204.752 263.227 204.865 264.2C204.764 264.885 204.614 265.563 204.415 266.227C204.47 267.29 204.62 268.346 204.865 269.381C205.11 270.793 205.566 272.16 206.217 273.437C206.401 273.979 206.627 274.506 206.893 275.014C207.452 275.517 208.055 275.97 208.695 276.365C209.797 277.612 211.09 278.677 212.525 279.519C213.877 279.97 216.806 279.069 217.482 279.294C218.383 279.519 219.284 280.871 220.41 280.646C224.2 280.564 227.973 280.111 231.675 279.294C234.829 277.942 240.461 274.563 241.588 269.607C242.141 267.248 242.08 264.788 241.409 262.46C240.738 260.133 239.481 258.017 237.758 256.314C233.62 251.936 229.096 247.94 224.24 244.374C222.327 243.149 220.772 241.439 219.734 239.418C218.76 237.794 218.363 235.888 218.608 234.011C220.595 235.368 222.345 237.043 223.79 238.967C224.601 240.06 225.69 240.916 226.944 241.445C227.814 241.735 228.741 241.812 229.647 241.671C230.548 241.896 229.873 242.572 231.45 243.022C234.544 243.857 237.714 244.386 240.912 244.599C241.79 244.466 242.632 244.16 243.39 243.698C245.863 243.191 248.278 242.436 250.599 241.445C253.149 240.485 255.458 238.98 257.365 237.034C259.272 235.088 260.73 232.749 261.639 230.181C263.119 225.691 262.959 220.821 261.188 216.438C259.334 212.838 257.226 209.375 254.88 206.075C252.402 202.245 249.248 198.189 250.599 190.304C251.951 182.419 258.034 179.941 258.935 178.589C259.611 177.463 257.583 176.336 257.133 176.111C256.183 175.783 255.201 175.556 254.204 175.435H253.979C252.987 175.537 252.046 175.929 251.275 176.562C250.599 176.787 247.896 176.562 247.445 176.787C246.995 176.787 246.319 177.688 246.094 177.913C245.868 178.364 246.094 178.364 245.643 179.265C245.192 180.166 242.489 182.419 241.588 183.996C241.137 184.672 241.588 186.474 241.137 187.601C240.687 188.727 239.11 188.727 238.884 189.854C238.912 191.509 238.837 193.164 238.659 194.81C238.208 196.162 237.532 195.486 237.307 197.063C237.307 199.091 240.912 202.245 241.362 203.371C242.023 204.349 242.553 205.41 242.939 206.525C243.693 208.025 244.682 209.394 245.868 210.58C247.251 211.664 248.533 212.87 249.698 214.185C249.923 214.861 249.698 215.762 249.923 216.663C250.441 217.617 251.044 218.522 251.726 219.367C252.548 221.715 252.468 224.284 251.501 226.576C250.81 228.116 249.785 229.481 248.498 230.573C247.212 231.664 245.697 232.454 244.066 232.884C240.225 233.683 236.224 233.046 232.82 231.095C229.416 229.144 226.845 226.014 225.592 222.296C224.596 219.691 224.386 216.852 224.986 214.129C225.587 211.407 226.972 208.92 228.971 206.976C233.877 201.896 236.623 195.113 236.631 188.051C236.631 180.463 233.617 173.185 228.251 167.82C222.885 162.454 215.608 159.439 208.019 159.439C200.431 159.439 193.153 162.454 187.788 167.82C182.422 173.185 179.407 180.463 179.407 188.051C179.507 195.359 182.506 202.329 187.743 207.426Z" fill="#0588CB"/>
<path d="M203.515 175.887C206.278 175.887 208.978 176.707 211.275 178.241C213.572 179.776 215.362 181.958 216.42 184.51C217.477 187.062 217.754 189.871 217.215 192.58C216.676 195.29 215.345 197.779 213.392 199.732C211.438 201.686 208.949 203.016 206.24 203.555C203.53 204.094 200.722 203.817 198.17 202.76C195.617 201.703 193.436 199.913 191.901 197.616C190.366 195.319 189.547 192.618 189.547 189.855C189.565 186.157 191.043 182.614 193.658 179.999C196.274 177.383 199.816 175.906 203.515 175.887Z" fill="white"/>
<path d="M201.712 188.729C202.335 188.729 202.945 188.914 203.464 189.261C203.983 189.607 204.387 190.1 204.626 190.676C204.864 191.253 204.927 191.887 204.805 192.499C204.683 193.11 204.383 193.672 203.942 194.114C203.501 194.555 202.939 194.855 202.327 194.977C201.715 195.098 201.081 195.036 200.505 194.797C199.928 194.559 199.436 194.154 199.089 193.636C198.743 193.117 198.558 192.507 198.558 191.883C198.547 191.466 198.622 191.052 198.777 190.664C198.932 190.277 199.164 189.925 199.459 189.63C199.754 189.335 200.105 189.103 200.493 188.949C200.88 188.794 201.295 188.719 201.712 188.729Z" fill="#0588CB"/>
</svg>
