<svg width="748" height="255" viewBox="0 0 748 255" fill="none" xmlns="http://www.w3.org/2000/svg">
<g clip-path="url(#clip0_5631_11022)">
<rect x="0.5" y="0.43335" width="747" height="254.518" rx="43.4543" fill="#005F9C"/>
<path d="M520.954 -40.189H229.119L232.881 -35.33C256.52 -4.79747 259.436 36.9868 240.184 70.4592L347.25 89.627C365.628 92.9172 384.445 92.9172 402.823 89.627L509.889 70.4592C490.636 36.9868 493.553 -4.79747 517.192 -35.33L520.954 -40.189Z" fill="#0588CB"/>
<path fill-rule="evenodd" clip-rule="evenodd" d="M502.627 -8.59345C464.602 34.7775 408.785 62.1607 346.573 62.1607C312.297 62.1607 279.963 53.8489 251.476 39.1309C255.904 13.2871 249.537 -13.8149 232.879 -35.3299L229.117 -40.1888H520.952L517.19 -35.3299C510.823 -27.1066 505.959 -18.067 502.627 -8.59345Z" fill="#0F77B8"/>
<path d="M582.501 -186.798C582.501 -72.2178 489.615 20.6676 375.036 20.6676C260.456 20.6676 167.57 -72.2178 167.57 -186.798C167.57 -301.378 260.456 -394.263 375.036 -394.263C489.615 -394.263 582.501 -301.378 582.501 -186.798Z" fill="#0588CB"/>
<path d="M896.398 -219.225C899.557 -209.397 891.883 -199.71 881.56 -199.71V-199.71C875.278 -199.711 869.672 -203.433 866.47 -208.838C840.388 -252.859 784.166 -269.008 747.336 -217.709C678.253 -121.484 870.56 52.277 723.799 175.501C616.94 265.222 402.006 209.411 402.006 70.2755L509.887 70.2756C550.731 130.504 654.78 121.992 686.416 75.8143C723.799 21.2486 670.177 -84.5405 661.494 -154.02C644.093 -293.267 842.937 -385.522 896.398 -219.225Z" fill="#37A6ED"/>
<path d="M356.809 478.915C352.218 469.351 359.583 458.745 370.191 458.745V458.745C375.557 458.745 380.457 461.62 383.661 465.924C425.081 521.574 522.823 518.924 532.121 447.68C544.243 354.807 348.066 287.423 348.066 70.2756H455.948C455.948 170.036 534.392 249.673 588.136 342.056C690.231 517.553 440.126 652.487 356.809 478.915Z" fill="#0588CB"/>
<path d="M-73.9599 450.46C-75.2948 459.648 -82.6883 467.226 -91.9727 467.226V467.226C-100.22 467.226 -107.338 461.204 -108.089 452.991C-118.162 342.823 -30.5208 287.277 7.13281 275.666C90.1185 250.078 169.647 299.869 218.055 272.899C265.439 246.499 285.136 181.614 294.126 70.2743H402.009C412.381 212.734 362.624 313.185 305.881 348.969C229.12 397.376 164.114 363.492 90.1185 348.969C10.2518 333.295 -63.7334 380.073 -73.9599 450.46Z" fill="#37A6ED"/>
<path d="M-146.931 -219.225C-150.09 -209.397 -142.416 -199.71 -132.093 -199.71V-199.71C-125.811 -199.711 -120.205 -203.433 -117.003 -208.838C-90.9205 -252.859 -34.6984 -269.008 2.13107 -217.709C71.2146 -121.484 -121.093 52.277 25.6683 175.501C132.527 265.222 348.066 209.411 348.066 70.2755H240.184C199.34 130.504 94.6874 121.992 63.051 75.8143C25.6683 21.2486 79.2902 -84.5405 87.9728 -154.02C105.374 -293.267 -93.4695 -385.522 -146.931 -219.225Z" fill="#0588CB"/>
<path d="M510.578 70.4438L510.578 190.444" stroke="#FCC419" stroke-width="1.3831" stroke-dasharray="2.77 2.77"/>
<path d="M402.695 70.4438L402.695 190.444" stroke="#FCC419" stroke-width="1.3831" stroke-dasharray="2.77 2.77"/>
<path d="M347.373 70.4438L347.373 190.444" stroke="#FCC419" stroke-width="1.3831" stroke-dasharray="2.77 2.77"/>
<path d="M456.637 70.4438L456.637 190.444" stroke="#FCC419" stroke-width="1.3831" stroke-dasharray="2.77 2.77"/>
<path d="M293.432 70.4438L293.432 190.444" stroke="#FCC419" stroke-width="1.3831" stroke-dasharray="2.77 2.77"/>
<path d="M239.49 70.4438L239.49 190.444" stroke="#FCC419" stroke-width="1.3831" stroke-dasharray="2.77 2.77"/>
<path d="M261.388 88.8597V90.1889H257.196V88.8597H261.388ZM258.231 87.1127H259.949V93.9582C259.949 94.1892 259.984 94.3664 260.054 94.4898C260.127 94.6101 260.222 94.6924 260.339 94.7367C260.456 94.781 260.585 94.8032 260.728 94.8032C260.835 94.8032 260.934 94.7952 261.022 94.7794C261.114 94.7636 261.184 94.7494 261.231 94.7367L261.521 96.0802C261.429 96.1118 261.298 96.1466 261.127 96.1846C260.959 96.2226 260.753 96.2447 260.51 96.2511C260.079 96.2637 259.691 96.1988 259.346 96.0564C259.001 95.9108 258.728 95.6861 258.525 95.3823C258.326 95.0785 258.228 94.6987 258.231 94.243V87.1127ZM265.975 96.2938C265.244 96.2938 264.612 96.1419 264.081 95.8381C263.552 95.5311 263.145 95.0975 262.861 94.5373C262.576 93.974 262.433 93.311 262.433 92.5482C262.433 91.7982 262.576 91.1399 262.861 90.5734C263.149 90.0037 263.55 89.5607 264.066 89.2442C264.582 88.9245 265.188 88.7647 265.885 88.7647C266.334 88.7647 266.758 88.8375 267.157 88.9831C267.559 89.1255 267.913 89.347 268.22 89.6477C268.53 89.9484 268.774 90.3313 268.951 90.7965C269.128 91.2586 269.217 91.8093 269.217 92.4485V92.9755H263.24V91.8172H267.57C267.567 91.488 267.495 91.1953 267.356 90.9389C267.217 90.6794 267.022 90.4753 266.772 90.3265C266.525 90.1778 266.237 90.1034 265.908 90.1034C265.557 90.1034 265.248 90.1889 264.983 90.3598C264.717 90.5275 264.509 90.749 264.361 91.0244C264.215 91.2966 264.141 91.5956 264.138 91.9216V92.9328C264.138 93.3568 264.215 93.7208 264.37 94.0246C264.525 94.3253 264.742 94.5563 265.021 94.7177C265.299 94.876 265.625 94.9551 265.998 94.9551C266.248 94.9551 266.475 94.9203 266.677 94.8506C266.88 94.7778 267.056 94.6718 267.204 94.5326C267.353 94.3933 267.465 94.2208 267.541 94.0151L269.146 94.1955C269.045 94.6196 268.852 94.9899 268.567 95.3064C268.285 95.6197 267.924 95.8634 267.484 96.0374C267.044 96.2083 266.541 96.2938 265.975 96.2938ZM272.389 91.8789V96.1514H270.671V88.8597H272.313V90.0987H272.399C272.567 89.6904 272.834 89.366 273.201 89.1255C273.571 88.885 274.029 88.7647 274.573 88.7647C275.076 88.7647 275.515 88.8723 275.888 89.0875C276.265 89.3027 276.556 89.6145 276.762 90.0227C276.97 90.431 277.073 90.9263 277.07 91.5086V96.1514H275.352V91.7744C275.352 91.2871 275.225 90.9057 274.972 90.6304C274.722 90.355 274.375 90.2174 273.932 90.2174C273.632 90.2174 273.364 90.2838 273.13 90.4167C272.899 90.5465 272.717 90.7348 272.584 90.9817C272.454 91.2285 272.389 91.5276 272.389 91.8789ZM282.458 88.8597V90.1889H278.266V88.8597H282.458ZM279.301 87.1127H281.02V93.9582C281.02 94.1892 281.055 94.3664 281.124 94.4898C281.197 94.6101 281.292 94.6924 281.409 94.7367C281.526 94.781 281.656 94.8032 281.798 94.8032C281.906 94.8032 282.004 94.7952 282.093 94.7794C282.184 94.7636 282.254 94.7494 282.302 94.7367L282.591 96.0802C282.499 96.1118 282.368 96.1466 282.197 96.1846C282.029 96.2226 281.824 96.2447 281.58 96.2511C281.15 96.2637 280.762 96.1988 280.417 96.0564C280.072 95.9108 279.798 95.6861 279.596 95.3823C279.396 95.0785 279.298 94.6987 279.301 94.243V87.1127ZM285.994 96.2985C285.532 96.2985 285.115 96.2162 284.745 96.0517C284.378 95.8839 284.087 95.6371 283.872 95.3111C283.66 94.9851 283.554 94.5832 283.554 94.1053C283.554 93.6939 283.63 93.3537 283.782 93.0847C283.933 92.8157 284.141 92.6005 284.403 92.4391C284.666 92.2776 284.962 92.1558 285.291 92.0735C285.623 91.9881 285.967 91.9264 286.321 91.8884C286.749 91.8441 287.095 91.8045 287.361 91.7697C287.627 91.7317 287.82 91.6748 287.94 91.5988C288.063 91.5197 288.125 91.3978 288.125 91.2333V91.2048C288.125 90.8472 288.019 90.5702 287.807 90.374C287.595 90.1778 287.29 90.0797 286.891 90.0797C286.47 90.0797 286.136 90.1715 285.889 90.355C285.646 90.5386 285.481 90.7554 285.396 91.0054L283.791 90.7775C283.918 90.3345 284.126 89.9642 284.418 89.6667C284.709 89.366 285.065 89.1413 285.486 88.9926C285.907 88.8407 286.372 88.7647 286.881 88.7647C287.233 88.7647 287.582 88.8059 287.931 88.8881C288.279 88.9704 288.597 89.1065 288.885 89.2964C289.173 89.4831 289.404 89.7379 289.578 90.0607C289.755 90.3835 289.844 90.787 289.844 91.2712V96.1514H288.192V95.1497H288.135C288.03 95.3523 287.883 95.5421 287.693 95.7194C287.506 95.8934 287.271 96.0343 286.986 96.1419C286.704 96.2463 286.373 96.2985 285.994 96.2985ZM286.44 95.0358C286.785 95.0358 287.084 94.9677 287.337 94.8316C287.59 94.6924 287.785 94.5088 287.921 94.281C288.06 94.0531 288.13 93.8047 288.13 93.5357V92.6764C288.076 92.7207 287.984 92.7619 287.855 92.7998C287.728 92.8378 287.586 92.871 287.427 92.8995C287.269 92.928 287.112 92.9533 286.957 92.9755C286.802 92.9976 286.668 93.0166 286.554 93.0325C286.298 93.0673 286.068 93.1242 285.866 93.2034C285.663 93.2825 285.503 93.3932 285.386 93.5357C285.269 93.6749 285.21 93.8553 285.21 94.0768C285.21 94.3933 285.326 94.6323 285.557 94.7937C285.788 94.9551 286.082 95.0358 286.44 95.0358ZM294.752 96.2938C294.024 96.2938 293.399 96.134 292.877 95.8143C292.358 95.4947 291.958 95.0532 291.676 94.4898C291.398 93.9233 291.258 93.2714 291.258 92.534C291.258 91.7934 291.401 91.1399 291.686 90.5734C291.97 90.0037 292.372 89.5607 292.891 89.2442C293.414 88.9245 294.031 88.7647 294.743 88.7647C295.335 88.7647 295.858 88.8739 296.314 89.0923C296.773 89.3075 297.139 89.6129 297.411 90.0085C297.683 90.4009 297.838 90.8598 297.876 91.3852H296.233C296.167 91.0339 296.009 90.7411 295.759 90.5069C295.512 90.2696 295.181 90.1509 294.767 90.1509C294.415 90.1509 294.107 90.2458 293.841 90.4357C293.575 90.6225 293.368 90.8915 293.219 91.2428C293.073 91.594 293.001 92.015 293.001 92.5055C293.001 93.0024 293.073 93.4296 293.219 93.7873C293.365 94.1417 293.569 94.4155 293.831 94.6085C294.097 94.7984 294.409 94.8934 294.767 94.8934C295.02 94.8934 295.246 94.8459 295.445 94.7509C295.648 94.6528 295.817 94.512 295.953 94.3284C296.089 94.1449 296.183 93.9218 296.233 93.6591H297.876C297.835 94.1749 297.683 94.6323 297.42 95.031C297.158 95.4266 296.8 95.7368 296.347 95.9615C295.895 96.183 295.363 96.2938 294.752 96.2938ZM301.006 86.4291V96.1514H299.287V86.4291H301.006ZM306.001 96.2938C305.27 96.2938 304.638 96.1419 304.107 95.8381C303.578 95.5311 303.171 95.0975 302.887 94.5373C302.602 93.974 302.459 93.311 302.459 92.5482C302.459 91.7982 302.602 91.1399 302.887 90.5734C303.175 90.0037 303.577 89.5607 304.092 89.2442C304.608 88.9245 305.214 88.7647 305.911 88.7647C306.36 88.7647 306.784 88.8375 307.183 88.9831C307.585 89.1255 307.939 89.347 308.246 89.6477C308.556 89.9484 308.8 90.3313 308.977 90.7965C309.155 91.2586 309.243 91.8093 309.243 92.4485V92.9755H303.266V91.8172H307.596C307.593 91.488 307.521 91.1953 307.382 90.9389C307.243 90.6794 307.048 90.4753 306.798 90.3265C306.551 90.1778 306.263 90.1034 305.934 90.1034C305.583 90.1034 305.274 90.1889 305.009 90.3598C304.743 90.5275 304.535 90.749 304.387 91.0244C304.241 91.2966 304.167 91.5956 304.164 91.9216V92.9328C304.164 93.3568 304.241 93.7208 304.396 94.0246C304.551 94.3253 304.768 94.5563 305.047 94.7177C305.325 94.876 305.651 94.9551 306.025 94.9551C306.275 94.9551 306.501 94.9203 306.703 94.8506C306.906 94.7778 307.082 94.6718 307.23 94.5326C307.379 94.3933 307.491 94.2208 307.567 94.0151L309.172 94.1955C309.071 94.6196 308.878 94.9899 308.593 95.3064C308.311 95.6197 307.95 95.8634 307.51 96.0374C307.071 96.2083 306.567 96.2938 306.001 96.2938ZM315.117 91.3947V92.8093H310.74V91.3947H315.117ZM320.499 96.3365C319.717 96.3365 319.046 96.1387 318.486 95.7431C317.929 95.3443 317.5 94.7699 317.199 94.0199C316.902 93.2666 316.753 92.3599 316.753 91.2997C316.756 90.2395 316.907 89.3375 317.204 88.5938C317.505 87.8469 317.934 87.2773 318.491 86.8848C319.051 86.4924 319.72 86.2962 320.499 86.2962C321.277 86.2962 321.947 86.4924 322.507 86.8848C323.067 87.2773 323.496 87.8469 323.793 88.5938C324.094 89.3407 324.244 90.2427 324.244 91.2997C324.244 92.3631 324.094 93.2714 323.793 94.0246C323.496 94.7747 323.067 95.3475 322.507 95.7431C321.95 96.1387 321.28 96.3365 320.499 96.3365ZM320.499 94.8506C321.106 94.8506 321.586 94.5516 321.937 93.9534C322.292 93.3521 322.469 92.4675 322.469 91.2997C322.469 90.5275 322.388 89.8787 322.227 89.3534C322.065 88.828 321.837 88.4324 321.543 88.1666C321.249 87.8976 320.901 87.7631 320.499 87.7631C319.894 87.7631 319.416 88.0637 319.065 88.665C318.714 89.2632 318.537 90.1414 318.533 91.2997C318.53 92.0751 318.608 92.727 318.766 93.2556C318.927 93.7841 319.155 94.1829 319.45 94.4519C319.744 94.7177 320.094 94.8506 320.499 94.8506ZM329.776 86.4291V96.1514H328.015V88.1428H327.958L325.684 89.5955V87.9814L328.1 86.4291H329.776Z" fill="white"/>
<path d="M239.49 77.3748L246.174 81.2338V73.5157L239.49 77.3748ZM347.911 77.3748L341.227 73.5157V81.2338L347.911 77.3748ZM245.506 78.0432H341.895V76.7063H245.506V78.0432Z" fill="white"/>
<path d="M315.069 123.886V125.216H310.877V123.886H315.069ZM311.912 122.139H313.63V128.985C313.63 129.216 313.665 129.393 313.735 129.517C313.808 129.637 313.903 129.719 314.02 129.763C314.137 129.808 314.267 129.83 314.409 129.83C314.517 129.83 314.615 129.822 314.703 129.806C314.795 129.79 314.865 129.776 314.912 129.763L315.202 131.107C315.11 131.139 314.979 131.173 314.808 131.211C314.64 131.249 314.434 131.271 314.191 131.278C313.76 131.29 313.373 131.226 313.028 131.083C312.683 130.938 312.409 130.713 312.206 130.409C312.007 130.105 311.909 129.725 311.912 129.27V122.139ZM319.656 131.321C318.925 131.321 318.293 131.169 317.762 130.865C317.233 130.558 316.827 130.124 316.542 129.564C316.257 129.001 316.114 128.338 316.114 127.575C316.114 126.825 316.257 126.167 316.542 125.6C316.83 125.03 317.232 124.587 317.748 124.271C318.263 123.951 318.869 123.791 319.566 123.791C320.015 123.791 320.439 123.864 320.838 124.01C321.24 124.152 321.594 124.374 321.901 124.674C322.211 124.975 322.455 125.358 322.632 125.823C322.81 126.285 322.898 126.836 322.898 127.475V128.002H316.921V126.844H321.251C321.248 126.515 321.177 126.222 321.037 125.966C320.898 125.706 320.703 125.502 320.453 125.353C320.207 125.205 319.919 125.13 319.589 125.13C319.238 125.13 318.93 125.216 318.664 125.387C318.398 125.554 318.191 125.776 318.042 126.051C317.896 126.323 317.822 126.622 317.819 126.948V127.959C317.819 128.384 317.896 128.748 318.051 129.051C318.206 129.352 318.423 129.583 318.702 129.744C318.98 129.903 319.306 129.982 319.68 129.982C319.93 129.982 320.156 129.947 320.358 129.877C320.561 129.805 320.737 129.699 320.885 129.559C321.034 129.42 321.147 129.248 321.222 129.042L322.827 129.222C322.726 129.646 322.533 130.017 322.248 130.333C321.966 130.646 321.605 130.89 321.165 131.064C320.726 131.235 320.222 131.321 319.656 131.321ZM326.071 126.906V131.178H324.352V123.886H325.995V125.125H326.08C326.248 124.717 326.515 124.393 326.882 124.152C327.253 123.912 327.71 123.791 328.254 123.791C328.757 123.791 329.196 123.899 329.569 124.114C329.946 124.329 330.237 124.641 330.443 125.049C330.652 125.458 330.754 125.953 330.751 126.535V131.178H329.033V126.801C329.033 126.314 328.906 125.932 328.653 125.657C328.403 125.382 328.056 125.244 327.613 125.244C327.313 125.244 327.045 125.311 326.811 125.443C326.58 125.573 326.398 125.762 326.265 126.008C326.135 126.255 326.071 126.554 326.071 126.906ZM336.139 123.886V125.216H331.948V123.886H336.139ZM332.982 122.139H334.701V128.985C334.701 129.216 334.736 129.393 334.805 129.517C334.878 129.637 334.973 129.719 335.09 129.763C335.207 129.808 335.337 129.83 335.48 129.83C335.587 129.83 335.685 129.822 335.774 129.806C335.866 129.79 335.935 129.776 335.983 129.763L336.272 131.107C336.181 131.139 336.049 131.173 335.878 131.211C335.711 131.249 335.505 131.271 335.261 131.278C334.831 131.29 334.443 131.226 334.098 131.083C333.753 130.938 333.479 130.713 333.277 130.409C333.077 130.105 332.979 129.725 332.982 129.27V122.139ZM339.675 131.325C339.213 131.325 338.797 131.243 338.426 131.078C338.059 130.911 337.768 130.664 337.553 130.338C337.341 130.012 337.235 129.61 337.235 129.132C337.235 128.721 337.311 128.38 337.463 128.111C337.615 127.842 337.822 127.627 338.085 127.466C338.347 127.304 338.643 127.183 338.972 127.1C339.305 127.015 339.648 126.953 340.002 126.915C340.43 126.871 340.776 126.831 341.042 126.796C341.308 126.758 341.501 126.701 341.621 126.626C341.745 126.546 341.806 126.425 341.806 126.26V126.232C341.806 125.874 341.7 125.597 341.488 125.401C341.276 125.205 340.971 125.106 340.572 125.106C340.151 125.106 339.817 125.198 339.57 125.382C339.327 125.565 339.162 125.782 339.077 126.032L337.472 125.804C337.599 125.361 337.808 124.991 338.099 124.693C338.39 124.393 338.746 124.168 339.167 124.019C339.588 123.867 340.053 123.791 340.563 123.791C340.914 123.791 341.264 123.833 341.612 123.915C341.96 123.997 342.278 124.133 342.566 124.323C342.854 124.51 343.085 124.765 343.259 125.087C343.436 125.41 343.525 125.814 343.525 126.298V131.178H341.873V130.176H341.816C341.711 130.379 341.564 130.569 341.374 130.746C341.188 130.92 340.952 131.061 340.667 131.169C340.385 131.273 340.055 131.325 339.675 131.325ZM340.121 130.063C340.466 130.063 340.765 129.994 341.018 129.858C341.271 129.719 341.466 129.536 341.602 129.308C341.741 129.08 341.811 128.831 341.811 128.562V127.703C341.757 127.747 341.666 127.789 341.536 127.827C341.409 127.865 341.267 127.898 341.109 127.926C340.95 127.955 340.794 127.98 340.639 128.002C340.483 128.024 340.349 128.043 340.235 128.059C339.979 128.094 339.749 128.151 339.547 128.23C339.344 128.309 339.184 128.42 339.067 128.562C338.95 128.702 338.892 128.882 338.892 129.104C338.892 129.42 339.007 129.659 339.238 129.82C339.469 129.982 339.763 130.063 340.121 130.063ZM348.433 131.321C347.706 131.321 347.08 131.161 346.558 130.841C346.039 130.521 345.639 130.08 345.357 129.517C345.079 128.95 344.939 128.298 344.939 127.561C344.939 126.82 345.082 126.167 345.367 125.6C345.652 125.03 346.054 124.587 346.573 124.271C347.095 123.951 347.712 123.791 348.424 123.791C349.016 123.791 349.54 123.901 349.995 124.119C350.454 124.334 350.82 124.64 351.092 125.035C351.364 125.428 351.519 125.887 351.557 126.412H349.915C349.848 126.061 349.69 125.768 349.44 125.534C349.193 125.296 348.862 125.178 348.448 125.178C348.096 125.178 347.788 125.273 347.522 125.462C347.256 125.649 347.049 125.918 346.9 126.269C346.755 126.621 346.682 127.042 346.682 127.532C346.682 128.029 346.755 128.456 346.9 128.814C347.046 129.168 347.25 129.442 347.512 129.635C347.778 129.825 348.09 129.92 348.448 129.92C348.701 129.92 348.927 129.873 349.127 129.778C349.329 129.68 349.498 129.539 349.634 129.355C349.771 129.172 349.864 128.948 349.915 128.686H351.557C351.516 129.202 351.364 129.659 351.101 130.058C350.839 130.453 350.481 130.764 350.029 130.988C349.576 131.21 349.044 131.321 348.433 131.321ZM354.687 121.456V131.178H352.968V121.456H354.687ZM359.682 131.321C358.951 131.321 358.32 131.169 357.788 130.865C357.259 130.558 356.853 130.124 356.568 129.564C356.283 129.001 356.141 128.338 356.141 127.575C356.141 126.825 356.283 126.167 356.568 125.6C356.856 125.03 357.258 124.587 357.774 124.271C358.289 123.951 358.895 123.791 359.592 123.791C360.041 123.791 360.465 123.864 360.864 124.01C361.266 124.152 361.62 124.374 361.927 124.674C362.238 124.975 362.481 125.358 362.658 125.823C362.836 126.285 362.924 126.836 362.924 127.475V128.002H356.948V126.844H361.277C361.274 126.515 361.203 126.222 361.063 125.966C360.924 125.706 360.729 125.502 360.479 125.353C360.233 125.205 359.945 125.13 359.615 125.13C359.264 125.13 358.956 125.216 358.69 125.387C358.424 125.554 358.217 125.776 358.068 126.051C357.922 126.323 357.848 126.622 357.845 126.948V127.959C357.845 128.384 357.922 128.748 358.077 129.051C358.232 129.352 358.449 129.583 358.728 129.744C359.006 129.903 359.332 129.982 359.706 129.982C359.956 129.982 360.182 129.947 360.385 129.877C360.587 129.805 360.763 129.699 360.911 129.559C361.06 129.42 361.173 129.248 361.249 129.042L362.853 129.222C362.752 129.646 362.559 130.017 362.274 130.333C361.992 130.646 361.631 130.89 361.192 131.064C360.752 131.235 360.248 131.321 359.682 131.321ZM368.798 126.421V127.836H364.421V126.421H368.798ZM374.18 131.363C373.398 131.363 372.727 131.165 372.167 130.77C371.61 130.371 371.181 129.797 370.881 129.047C370.583 128.293 370.434 127.387 370.434 126.326C370.438 125.266 370.588 124.364 370.885 123.621C371.186 122.874 371.615 122.304 372.172 121.912C372.732 121.519 373.401 121.323 374.18 121.323C374.958 121.323 375.628 121.519 376.188 121.912C376.748 122.304 377.177 122.874 377.474 123.621C377.775 124.367 377.925 125.269 377.925 126.326C377.925 127.39 377.775 128.298 377.474 129.051C377.177 129.801 376.748 130.374 376.188 130.77C375.631 131.165 374.962 131.363 374.18 131.363ZM374.18 129.877C374.788 129.877 375.267 129.578 375.618 128.98C375.973 128.379 376.15 127.494 376.15 126.326C376.15 125.554 376.069 124.905 375.908 124.38C375.746 123.855 375.519 123.459 375.224 123.193C374.93 122.924 374.582 122.79 374.18 122.79C373.575 122.79 373.098 123.09 372.746 123.692C372.395 124.29 372.218 125.168 372.215 126.326C372.211 127.102 372.289 127.754 372.447 128.282C372.609 128.811 372.836 129.21 373.131 129.479C373.425 129.744 373.775 129.877 374.18 129.877ZM379.503 131.178V129.906L382.878 126.597C383.201 126.271 383.47 125.981 383.685 125.728C383.9 125.475 384.062 125.23 384.169 124.992C384.277 124.755 384.331 124.502 384.331 124.233C384.331 123.926 384.261 123.663 384.122 123.445C383.982 123.223 383.791 123.052 383.547 122.932C383.304 122.812 383.027 122.752 382.717 122.752C382.397 122.752 382.117 122.818 381.876 122.951C381.636 123.081 381.449 123.266 381.316 123.507C381.186 123.747 381.122 124.034 381.122 124.366H379.446C379.446 123.749 379.587 123.212 379.868 122.757C380.15 122.301 380.538 121.948 381.031 121.698C381.528 121.448 382.098 121.323 382.74 121.323C383.392 121.323 383.965 121.445 384.459 121.688C384.953 121.932 385.335 122.266 385.608 122.69C385.883 123.114 386.021 123.598 386.021 124.143C386.021 124.507 385.951 124.864 385.812 125.216C385.673 125.567 385.427 125.956 385.076 126.383C384.728 126.811 384.239 127.328 383.609 127.936L381.933 129.64V129.706H386.168V131.178H379.503Z" fill="white"/>
<path d="M294.111 112.401L300.795 116.26V108.542L294.111 112.401ZM402.532 112.401L395.848 108.542V116.26L402.532 112.401ZM300.127 113.07H396.516V111.733H300.127V113.07Z" fill="white"/>
<path d="M369.677 161.317V162.646H365.485V161.317H369.677ZM366.52 159.57H368.239V166.416C368.239 166.647 368.274 166.824 368.343 166.947C368.416 167.068 368.511 167.15 368.628 167.194C368.745 167.239 368.875 167.261 369.017 167.261C369.125 167.261 369.223 167.253 369.312 167.237C369.403 167.221 369.473 167.207 369.52 167.194L369.81 168.538C369.718 168.569 369.587 168.604 369.416 168.642C369.248 168.68 369.043 168.702 368.799 168.709C368.368 168.721 367.981 168.656 367.636 168.514C367.291 168.368 367.017 168.144 366.815 167.84C366.615 167.536 366.517 167.156 366.52 166.701V159.57ZM374.264 168.751C373.533 168.751 372.902 168.599 372.37 168.296C371.841 167.989 371.435 167.555 371.15 166.995C370.865 166.432 370.723 165.768 370.723 165.006C370.723 164.256 370.865 163.597 371.15 163.031C371.438 162.461 371.84 162.018 372.356 161.702C372.872 161.382 373.478 161.222 374.174 161.222C374.623 161.222 375.047 161.295 375.446 161.441C375.848 161.583 376.203 161.805 376.51 162.105C376.82 162.406 377.063 162.789 377.241 163.254C377.418 163.716 377.506 164.267 377.506 164.906V165.433H371.53V164.275H375.859C375.856 163.946 375.785 163.653 375.646 163.396C375.506 163.137 375.312 162.933 375.062 162.784C374.815 162.635 374.527 162.561 374.198 162.561C373.846 162.561 373.538 162.646 373.272 162.817C373.006 162.985 372.799 163.207 372.65 163.482C372.504 163.754 372.43 164.053 372.427 164.379V165.39C372.427 165.814 372.504 166.178 372.66 166.482C372.815 166.783 373.031 167.014 373.31 167.175C373.588 167.333 373.914 167.413 374.288 167.413C374.538 167.413 374.764 167.378 374.967 167.308C375.169 167.235 375.345 167.129 375.494 166.99C375.642 166.851 375.755 166.678 375.831 166.473L377.435 166.653C377.334 167.077 377.141 167.447 376.856 167.764C376.574 168.077 376.214 168.321 375.774 168.495C375.334 168.666 374.831 168.751 374.264 168.751ZM380.679 164.336V168.609H378.96V161.317H380.603V162.556H380.688C380.856 162.148 381.123 161.824 381.491 161.583C381.861 161.342 382.318 161.222 382.862 161.222C383.366 161.222 383.804 161.33 384.177 161.545C384.554 161.76 384.845 162.072 385.051 162.48C385.26 162.889 385.363 163.384 385.359 163.966V168.609H383.641V164.232C383.641 163.745 383.514 163.363 383.261 163.088C383.011 162.813 382.665 162.675 382.222 162.675C381.921 162.675 381.654 162.741 381.419 162.874C381.188 163.004 381.006 163.192 380.873 163.439C380.744 163.686 380.679 163.985 380.679 164.336ZM390.748 161.317V162.646H386.556V161.317H390.748ZM387.591 159.57H389.309V166.416C389.309 166.647 389.344 166.824 389.414 166.947C389.486 167.068 389.581 167.15 389.698 167.194C389.816 167.239 389.945 167.261 390.088 167.261C390.195 167.261 390.293 167.253 390.382 167.237C390.474 167.221 390.543 167.207 390.591 167.194L390.88 168.538C390.789 168.569 390.657 168.604 390.486 168.642C390.319 168.68 390.113 168.702 389.869 168.709C389.439 168.721 389.051 168.656 388.706 168.514C388.361 168.368 388.088 168.144 387.885 167.84C387.686 167.536 387.588 167.156 387.591 166.701V159.57ZM394.283 168.756C393.821 168.756 393.405 168.674 393.035 168.509C392.667 168.341 392.376 168.095 392.161 167.769C391.949 167.443 391.843 167.041 391.843 166.563C391.843 166.151 391.919 165.811 392.071 165.542C392.223 165.273 392.43 165.058 392.693 164.897C392.955 164.735 393.251 164.613 393.58 164.531C393.913 164.446 394.256 164.384 394.611 164.346C395.038 164.302 395.384 164.262 395.65 164.227C395.916 164.189 396.109 164.132 396.229 164.056C396.353 163.977 396.415 163.855 396.415 163.691V163.662C396.415 163.305 396.309 163.028 396.096 162.832C395.884 162.635 395.579 162.537 395.18 162.537C394.759 162.537 394.425 162.629 394.179 162.813C393.935 162.996 393.77 163.213 393.685 163.463L392.08 163.235C392.207 162.792 392.416 162.422 392.707 162.124C392.998 161.824 393.354 161.599 393.775 161.45C394.196 161.298 394.661 161.222 395.171 161.222C395.522 161.222 395.872 161.263 396.22 161.346C396.568 161.428 396.886 161.564 397.174 161.754C397.462 161.941 397.693 162.195 397.867 162.518C398.044 162.841 398.133 163.245 398.133 163.729V168.609H396.481V167.607H396.424C396.32 167.81 396.172 168 395.983 168.177C395.796 168.351 395.56 168.492 395.275 168.599C394.994 168.704 394.663 168.756 394.283 168.756ZM394.729 167.493C395.074 167.493 395.373 167.425 395.627 167.289C395.88 167.15 396.074 166.966 396.21 166.738C396.35 166.511 396.419 166.262 396.419 165.993V165.134C396.365 165.178 396.274 165.219 396.144 165.257C396.017 165.295 395.875 165.329 395.717 165.357C395.558 165.386 395.402 165.411 395.247 165.433C395.092 165.455 394.957 165.474 394.843 165.49C394.587 165.525 394.357 165.582 394.155 165.661C393.952 165.74 393.793 165.851 393.675 165.993C393.558 166.132 393.5 166.313 393.5 166.534C393.5 166.851 393.615 167.09 393.846 167.251C394.077 167.413 394.372 167.493 394.729 167.493ZM403.042 168.751C402.314 168.751 401.689 168.591 401.166 168.272C400.647 167.952 400.247 167.511 399.965 166.947C399.687 166.381 399.548 165.729 399.548 164.992C399.548 164.251 399.69 163.597 399.975 163.031C400.26 162.461 400.662 162.018 401.181 161.702C401.703 161.382 402.32 161.222 403.032 161.222C403.624 161.222 404.148 161.331 404.603 161.55C405.062 161.765 405.428 162.07 405.7 162.466C405.972 162.858 406.127 163.317 406.165 163.843H404.523C404.456 163.491 404.298 163.199 404.048 162.964C403.801 162.727 403.47 162.608 403.056 162.608C402.705 162.608 402.396 162.703 402.13 162.893C401.864 163.08 401.657 163.349 401.508 163.7C401.363 164.052 401.29 164.472 401.29 164.963C401.29 165.46 401.363 165.887 401.508 166.245C401.654 166.599 401.858 166.873 402.121 167.066C402.387 167.256 402.698 167.351 403.056 167.351C403.309 167.351 403.535 167.303 403.735 167.208C403.937 167.11 404.107 166.97 404.243 166.786C404.379 166.602 404.472 166.379 404.523 166.117H406.165C406.124 166.632 405.972 167.09 405.71 167.489C405.447 167.884 405.089 168.194 404.637 168.419C404.184 168.641 403.652 168.751 403.042 168.751ZM409.295 158.887V168.609H407.576V158.887H409.295ZM414.29 168.751C413.559 168.751 412.928 168.599 412.396 168.296C411.867 167.989 411.461 167.555 411.176 166.995C410.891 166.432 410.749 165.768 410.749 165.006C410.749 164.256 410.891 163.597 411.176 163.031C411.464 162.461 411.866 162.018 412.382 161.702C412.898 161.382 413.504 161.222 414.2 161.222C414.649 161.222 415.073 161.295 415.472 161.441C415.874 161.583 416.229 161.805 416.536 162.105C416.846 162.406 417.089 162.789 417.267 163.254C417.444 163.716 417.532 164.267 417.532 164.906V165.433H411.556V164.275H415.885C415.882 163.946 415.811 163.653 415.672 163.396C415.532 163.137 415.338 162.933 415.088 162.784C414.841 162.635 414.553 162.561 414.224 162.561C413.872 162.561 413.564 162.646 413.298 162.817C413.032 162.985 412.825 163.207 412.676 163.482C412.531 163.754 412.456 164.053 412.453 164.379V165.39C412.453 165.814 412.531 166.178 412.686 166.482C412.841 166.783 413.057 167.014 413.336 167.175C413.614 167.333 413.94 167.413 414.314 167.413C414.564 167.413 414.79 167.378 414.993 167.308C415.195 167.235 415.371 167.129 415.52 166.99C415.668 166.851 415.781 166.678 415.857 166.473L417.461 166.653C417.36 167.077 417.167 167.447 416.882 167.764C416.6 168.077 416.24 168.321 415.8 168.495C415.36 168.666 414.857 168.751 414.29 168.751ZM423.406 163.852V165.267H419.029V163.852H423.406ZM428.788 168.794C428.006 168.794 427.335 168.596 426.775 168.201C426.218 167.802 425.789 167.227 425.489 166.477C425.191 165.724 425.043 164.817 425.043 163.757C425.046 162.697 425.196 161.795 425.494 161.051C425.794 160.304 426.223 159.735 426.78 159.342C427.34 158.95 428.01 158.754 428.788 158.754C429.567 158.754 430.236 158.95 430.796 159.342C431.356 159.735 431.785 160.304 432.083 161.051C432.383 161.798 432.534 162.7 432.534 163.757C432.534 164.821 432.383 165.729 432.083 166.482C431.785 167.232 431.356 167.805 430.796 168.201C430.239 168.596 429.57 168.794 428.788 168.794ZM428.788 167.308C429.396 167.308 429.875 167.009 430.227 166.411C430.581 165.81 430.758 164.925 430.758 163.757C430.758 162.985 430.678 162.336 430.516 161.811C430.355 161.286 430.127 160.89 429.832 160.624C429.538 160.355 429.19 160.221 428.788 160.221C428.184 160.221 427.706 160.521 427.354 161.123C427.003 161.721 426.826 162.599 426.823 163.757C426.82 164.533 426.897 165.185 427.055 165.713C427.217 166.242 427.445 166.64 427.739 166.909C428.033 167.175 428.383 167.308 428.788 167.308ZM437.6 168.742C436.917 168.742 436.309 168.625 435.777 168.391C435.249 168.156 434.831 167.83 434.524 167.413C434.217 166.995 434.054 166.512 434.035 165.965H435.82C435.836 166.227 435.923 166.457 436.081 166.653C436.239 166.846 436.45 166.996 436.712 167.104C436.975 167.212 437.269 167.265 437.595 167.265C437.943 167.265 438.252 167.205 438.521 167.085C438.79 166.962 439.001 166.791 439.152 166.572C439.304 166.354 439.379 166.102 439.376 165.818C439.379 165.523 439.303 165.264 439.148 165.039C438.993 164.814 438.768 164.639 438.474 164.512C438.182 164.385 437.831 164.322 437.42 164.322H436.56V162.964H437.42C437.758 162.964 438.054 162.906 438.307 162.789C438.564 162.672 438.765 162.507 438.91 162.295C439.056 162.08 439.127 161.831 439.124 161.55C439.127 161.274 439.065 161.036 438.939 160.833C438.815 160.627 438.64 160.467 438.412 160.353C438.187 160.24 437.923 160.183 437.619 160.183C437.322 160.183 437.046 160.236 436.793 160.344C436.54 160.452 436.336 160.605 436.181 160.804C436.026 161.001 435.943 161.235 435.934 161.507H434.239C434.252 160.963 434.408 160.485 434.709 160.073C435.013 159.659 435.418 159.336 435.924 159.105C436.431 158.871 436.999 158.754 437.629 158.754C438.277 158.754 438.841 158.876 439.319 159.119C439.8 159.36 440.172 159.684 440.434 160.092C440.697 160.501 440.828 160.952 440.828 161.445C440.831 161.993 440.67 162.452 440.344 162.822C440.021 163.192 439.597 163.434 439.072 163.548V163.624C439.755 163.719 440.279 163.972 440.643 164.384C441.01 164.792 441.192 165.3 441.189 165.908C441.189 166.452 441.034 166.939 440.724 167.37C440.417 167.797 439.993 168.133 439.452 168.376C438.913 168.62 438.296 168.742 437.6 168.742Z" fill="white"/>
<path d="M348.92 149.832L355.604 153.691V145.973L348.92 149.832ZM457.34 149.832L450.656 145.973V153.691L457.34 149.832ZM354.936 150.501H451.325V149.164H354.936V150.501Z" fill="white"/>
<path d="M424.388 194.737V196.067H420.196V194.737H424.388ZM421.231 192.99H422.949V199.836C422.949 200.067 422.984 200.244 423.054 200.368C423.127 200.488 423.222 200.57 423.339 200.615C423.456 200.659 423.585 200.681 423.728 200.681C423.836 200.681 423.934 200.673 424.022 200.657C424.114 200.641 424.184 200.627 424.231 200.615L424.521 201.958C424.429 201.99 424.298 202.024 424.127 202.062C423.959 202.1 423.753 202.123 423.51 202.129C423.079 202.142 422.691 202.077 422.346 201.934C422.002 201.789 421.728 201.564 421.525 201.26C421.326 200.956 421.228 200.577 421.231 200.121V192.99ZM428.975 202.172C428.244 202.172 427.612 202.02 427.081 201.716C426.552 201.409 426.145 200.975 425.861 200.415C425.576 199.852 425.433 199.189 425.433 198.426C425.433 197.676 425.576 197.018 425.861 196.451C426.149 195.882 426.551 195.438 427.066 195.122C427.582 194.802 428.188 194.643 428.885 194.643C429.334 194.643 429.758 194.715 430.157 194.861C430.559 195.003 430.913 195.225 431.22 195.526C431.53 195.826 431.774 196.209 431.951 196.674C432.128 197.136 432.217 197.687 432.217 198.326V198.853H426.24V197.695H430.57C430.567 197.366 430.495 197.073 430.356 196.817C430.217 196.557 430.022 196.353 429.772 196.204C429.525 196.056 429.237 195.981 428.908 195.981C428.557 195.981 428.248 196.067 427.983 196.238C427.717 196.405 427.509 196.627 427.361 196.902C427.215 197.174 427.141 197.473 427.138 197.799V198.811C427.138 199.235 427.215 199.599 427.37 199.902C427.525 200.203 427.742 200.434 428.021 200.596C428.299 200.754 428.625 200.833 428.998 200.833C429.249 200.833 429.475 200.798 429.677 200.728C429.88 200.656 430.056 200.55 430.204 200.41C430.353 200.271 430.465 200.099 430.541 199.893L432.146 200.073C432.045 200.497 431.852 200.868 431.567 201.184C431.285 201.497 430.924 201.741 430.484 201.915C430.044 202.086 429.541 202.172 428.975 202.172ZM435.389 197.757V202.029H433.671V194.737H435.313V195.976H435.399C435.567 195.568 435.834 195.244 436.201 195.003C436.571 194.763 437.029 194.643 437.573 194.643C438.076 194.643 438.515 194.75 438.888 194.965C439.265 195.181 439.556 195.492 439.762 195.901C439.97 196.309 440.073 196.804 440.07 197.386V202.029H438.352V197.652C438.352 197.165 438.225 196.784 437.972 196.508C437.722 196.233 437.375 196.095 436.932 196.095C436.632 196.095 436.364 196.162 436.13 196.295C435.899 196.424 435.717 196.613 435.584 196.859C435.454 197.106 435.389 197.405 435.389 197.757ZM445.458 194.737V196.067H441.266V194.737H445.458ZM442.301 192.99H444.02V199.836C444.02 200.067 444.055 200.244 444.124 200.368C444.197 200.488 444.292 200.57 444.409 200.615C444.526 200.659 444.656 200.681 444.798 200.681C444.906 200.681 445.004 200.673 445.093 200.657C445.184 200.641 445.254 200.627 445.302 200.615L445.591 201.958C445.499 201.99 445.368 202.024 445.197 202.062C445.029 202.1 444.824 202.123 444.58 202.129C444.15 202.142 443.762 202.077 443.417 201.934C443.072 201.789 442.798 201.564 442.596 201.26C442.396 200.956 442.298 200.577 442.301 200.121V192.99ZM448.994 202.176C448.532 202.176 448.115 202.094 447.745 201.929C447.378 201.762 447.087 201.515 446.872 201.189C446.66 200.863 446.554 200.461 446.554 199.983C446.554 199.572 446.63 199.231 446.782 198.962C446.933 198.693 447.141 198.478 447.403 198.317C447.666 198.155 447.962 198.034 448.291 197.951C448.623 197.866 448.967 197.804 449.321 197.766C449.749 197.722 450.095 197.682 450.361 197.648C450.627 197.61 450.82 197.553 450.94 197.477C451.064 197.397 451.125 197.276 451.125 197.111V197.083C451.125 196.725 451.019 196.448 450.807 196.252C450.595 196.056 450.29 195.957 449.891 195.957C449.47 195.957 449.136 196.049 448.889 196.233C448.646 196.416 448.481 196.633 448.396 196.883L446.791 196.655C446.918 196.212 447.126 195.842 447.418 195.544C447.709 195.244 448.065 195.019 448.486 194.87C448.907 194.718 449.372 194.643 449.881 194.643C450.233 194.643 450.582 194.684 450.931 194.766C451.279 194.848 451.597 194.984 451.885 195.174C452.173 195.361 452.404 195.616 452.578 195.939C452.755 196.261 452.844 196.665 452.844 197.149V202.029H451.192V201.028H451.135C451.03 201.23 450.883 201.42 450.693 201.597C450.507 201.771 450.271 201.912 449.986 202.02C449.704 202.124 449.374 202.176 448.994 202.176ZM449.44 200.914C449.785 200.914 450.084 200.846 450.337 200.709C450.59 200.57 450.785 200.387 450.921 200.159C451.06 199.931 451.13 199.682 451.13 199.413V198.554C451.076 198.599 450.984 198.64 450.855 198.678C450.728 198.716 450.586 198.749 450.427 198.777C450.269 198.806 450.112 198.831 449.957 198.853C449.802 198.875 449.668 198.894 449.554 198.91C449.298 198.945 449.068 199.002 448.866 199.081C448.663 199.16 448.503 199.271 448.386 199.413C448.269 199.553 448.21 199.733 448.21 199.955C448.21 200.271 448.326 200.51 448.557 200.671C448.788 200.833 449.082 200.914 449.44 200.914ZM457.752 202.172C457.024 202.172 456.399 202.012 455.877 201.692C455.358 201.372 454.958 200.931 454.676 200.368C454.398 199.801 454.258 199.149 454.258 198.412C454.258 197.671 454.401 197.018 454.686 196.451C454.97 195.882 455.372 195.438 455.891 195.122C456.414 194.802 457.031 194.643 457.743 194.643C458.335 194.643 458.858 194.752 459.314 194.97C459.773 195.185 460.139 195.491 460.411 195.886C460.683 196.279 460.838 196.738 460.876 197.263H459.233C459.167 196.912 459.009 196.619 458.759 196.385C458.512 196.147 458.181 196.029 457.767 196.029C457.415 196.029 457.107 196.124 456.841 196.314C456.575 196.5 456.368 196.769 456.219 197.121C456.073 197.472 456.001 197.893 456.001 198.383C456.001 198.88 456.073 199.307 456.219 199.665C456.365 200.02 456.569 200.293 456.831 200.486C457.097 200.676 457.409 200.771 457.767 200.771C458.02 200.771 458.246 200.724 458.445 200.629C458.648 200.531 458.817 200.39 458.953 200.206C459.089 200.023 459.183 199.8 459.233 199.537H460.876C460.835 200.053 460.683 200.51 460.42 200.909C460.158 201.304 459.8 201.615 459.347 201.839C458.895 202.061 458.363 202.172 457.752 202.172ZM464.006 192.307V202.029H462.287V192.307H464.006ZM469.001 202.172C468.27 202.172 467.638 202.02 467.107 201.716C466.578 201.409 466.171 200.975 465.887 200.415C465.602 199.852 465.459 199.189 465.459 198.426C465.459 197.676 465.602 197.018 465.887 196.451C466.175 195.882 466.577 195.438 467.092 195.122C467.608 194.802 468.214 194.643 468.911 194.643C469.36 194.643 469.784 194.715 470.183 194.861C470.585 195.003 470.939 195.225 471.246 195.526C471.556 195.826 471.8 196.209 471.977 196.674C472.155 197.136 472.243 197.687 472.243 198.326V198.853H466.266V197.695H470.596C470.593 197.366 470.522 197.073 470.382 196.817C470.243 196.557 470.048 196.353 469.798 196.204C469.552 196.056 469.264 195.981 468.934 195.981C468.583 195.981 468.275 196.067 468.009 196.238C467.743 196.405 467.536 196.627 467.387 196.902C467.241 197.174 467.167 197.473 467.164 197.799V198.811C467.164 199.235 467.241 199.599 467.396 199.902C467.551 200.203 467.768 200.434 468.047 200.596C468.325 200.754 468.651 200.833 469.025 200.833C469.275 200.833 469.501 200.798 469.703 200.728C469.906 200.656 470.082 200.55 470.23 200.41C470.379 200.271 470.491 200.099 470.567 199.893L472.172 200.073C472.071 200.497 471.878 200.868 471.593 201.184C471.311 201.497 470.95 201.741 470.51 201.915C470.071 202.086 469.567 202.172 469.001 202.172ZM478.117 197.272V198.687H473.74V197.272H478.117ZM483.499 202.214C482.717 202.214 482.046 202.017 481.486 201.621C480.929 201.222 480.5 200.648 480.199 199.898C479.902 199.144 479.753 198.238 479.753 197.178C479.756 196.117 479.907 195.215 480.204 194.472C480.505 193.725 480.934 193.155 481.491 192.763C482.051 192.37 482.72 192.174 483.499 192.174C484.277 192.174 484.947 192.37 485.507 192.763C486.067 193.155 486.496 193.725 486.793 194.472C487.094 195.219 487.244 196.12 487.244 197.178C487.244 198.241 487.094 199.149 486.793 199.902C486.496 200.652 486.067 201.225 485.507 201.621C484.95 202.017 484.281 202.214 483.499 202.214ZM483.499 200.728C484.106 200.728 484.586 200.429 484.937 199.831C485.292 199.23 485.469 198.345 485.469 197.178C485.469 196.405 485.388 195.757 485.227 195.231C485.065 194.706 484.838 194.31 484.543 194.044C484.249 193.775 483.901 193.641 483.499 193.641C482.894 193.641 482.416 193.942 482.065 194.543C481.714 195.141 481.537 196.019 481.533 197.178C481.53 197.953 481.608 198.605 481.766 199.133C481.927 199.662 482.155 200.061 482.45 200.33C482.744 200.596 483.094 200.728 483.499 200.728ZM488.646 200.225V198.825L492.771 192.307H493.939V194.301H493.227L490.45 198.701V198.777H496.208V200.225H488.646ZM493.284 202.029V199.798L493.303 199.171V192.307H494.964V202.029H493.284Z" fill="white"/>
<path d="M403.73 183.252L410.415 187.111V179.393L403.73 183.252ZM512.151 183.252L505.467 179.393V187.111L512.151 183.252ZM409.746 183.921H506.135V182.584H409.746V183.921Z" fill="white"/>
</g>
<defs>
<clipPath id="clip0_5631_11022">
<rect x="0.5" y="0.43335" width="747" height="254.518" rx="43.4543" fill="white"/>
</clipPath>
</defs>
</svg>
