<svg width="752" height="757" viewBox="0 0 752 757" fill="none" xmlns="http://www.w3.org/2000/svg">
<rect x="1.09766" y="188.597" width="187.73" height="550.705" transform="rotate(-90 1.09766 188.597)" fill="#E4F7F6"/>
<path d="M82.5488 71.5556C82.5488 81.0885 89.1089 86.973 97.7777 86.973C106.446 86.973 113.007 81.0885 113.007 71.5556C113.007 62.0226 106.446 56.1381 97.7777 56.1381C89.1089 56.1381 82.5488 62.0226 82.5488 71.5556ZM89.929 71.5556C89.929 65.9064 93.209 62.6111 97.7777 62.6111C102.346 62.6111 105.626 65.9064 105.626 71.5556C105.626 77.2047 102.346 80.5001 97.7777 80.5001C93.209 80.5001 89.929 77.2047 89.929 71.5556Z" fill="#25A29E"/>
<path d="M117.825 97.9183H125.205V82.3831H125.791C127.431 84.7369 130.242 86.973 135.28 86.973C142.191 86.973 148.4 81.0885 148.4 71.5556C148.4 62.0226 142.191 56.1381 135.28 56.1381C130.242 56.1381 127.431 58.3742 125.674 60.9046H125.088V56.962H117.825V97.9183ZM133.054 80.6178C128.485 80.6178 125.088 77.3224 125.088 71.5556C125.088 65.7887 128.485 62.4934 133.054 62.4934C137.623 62.4934 141.02 65.7887 141.02 71.5556C141.02 77.3224 137.623 80.6178 133.054 80.6178Z" fill="#25A29E"/>
<path d="M149.843 62.9642H157.106V79.5585C157.106 83.56 159.683 86.1492 163.549 86.1492H171.749V80.147H166.126C165.072 80.147 164.486 79.5585 164.486 78.3816V62.9642H172.452V56.962H164.486V47.8998H157.106V56.962H149.843V62.9642Z" fill="#25A29E"/>
<path d="M196.04 106.84V136.028H203.421V118.609C203.421 114.608 205.295 112.372 208.692 112.372C211.621 112.372 213.378 114.019 213.378 117.197V136.028H220.758V118.609C220.758 114.608 222.632 112.372 226.03 112.372C228.958 112.372 230.715 114.019 230.715 117.197V136.028H238.095V116.844C238.095 109.783 233.761 106.37 228.372 106.37C223.628 106.37 221.461 108.488 220.055 110.96H219.469C218.122 108.194 215.721 106.37 211.504 106.37C207.286 106.37 205.002 108.253 203.889 110.489H203.303V106.84H196.04Z" fill="#25A29E"/>
<path d="M243.966 114.255L250.76 116.55C251.287 113.902 253.044 111.901 256.734 111.901C260.483 111.901 262.123 114.019 262.123 116.726V118.374H254.157C247.597 118.374 242.911 121.493 242.911 127.495C242.911 133.497 247.597 136.851 253.571 136.851C258.96 136.851 260.893 133.909 261.42 132.615H262.24V136.028H269.269V117.256C269.269 109.959 264.466 106.016 256.851 106.016C249.296 106.016 245.371 109.841 243.966 114.255ZM250.291 127.318C250.291 125.318 251.931 123.905 254.684 123.905H262.123V124.376C262.123 128.26 259.194 130.849 255.094 130.849C251.931 130.849 250.291 129.378 250.291 127.318Z" fill="#25A29E"/>
<path d="M82.6994 106.885H171.953V136.028H82.6994V106.885Z" fill="#25A29E"/>
<path d="M181.994 57.0068H307.506V86.1492H181.994V57.0068Z" fill="#25A29E"/>
<path d="M278.499 106.885H307.506V136.028H278.499V106.885Z" fill="#25A29E"/>
<path d="M181.994 106.885H189.246V136.028H181.994V106.885Z" fill="#25A29E"/>
<path d="M181.994 95.6765H189.246V102.962H181.994V95.6765Z" fill="#25A29E"/>
<g filter="url(#filter0_d_2933_2083)">
<rect x="748.712" y="163.911" width="277.961" height="104.533" transform="rotate(-180 748.712 163.911)" fill="#E4F7F6"/>
<rect x="747.927" y="163.126" width="276.391" height="102.962" transform="rotate(-180 747.927 163.126)" stroke="#024A51" stroke-width="1.57068"/>
</g>
<g filter="url(#filter1_d_2933_2083)">
<rect x="734.458" y="147.281" width="277.961" height="104.533" transform="rotate(-180 734.458 147.281)" fill="#E4F7F6"/>
<rect x="733.673" y="146.496" width="276.391" height="102.962" transform="rotate(-180 733.673 146.496)" stroke="#024A51" stroke-width="1.57068"/>
</g>
<g filter="url(#filter2_d_2933_2083)">
<rect x="717.827" y="130.653" width="277.961" height="104.533" transform="rotate(-180 717.827 130.653)" fill="#E4F7F6"/>
<rect x="717.042" y="129.867" width="276.391" height="102.962" transform="rotate(-180 717.042 129.867)" stroke="#024A51" stroke-width="1.57068"/>
</g>
<rect x="456.634" y="42.8868" width="123.212" height="20.4138" fill="#25A29E"/>
<rect x="518.604" y="72.7786" width="123.212" height="20.4138" fill="#EA6ED8"/>
<line x1="703.957" y1="39.4921" x2="689.453" y2="53.9961" stroke="#024A51" stroke-width="1.57068"/>
<line x1="703.538" y1="53.9953" x2="689.034" y2="39.4912" stroke="#024A51" stroke-width="1.57068"/>
<path d="M20.954 240.952V254.823H25.7098C29.4352 254.823 31.4168 252.921 31.4168 249.195V246.58C31.4168 242.854 29.4352 240.952 25.7098 240.952H20.954ZM23.5697 243.33H25.7495C27.8499 243.33 28.8011 244.479 28.8011 246.5V249.275C28.8011 251.296 27.8499 252.445 25.7495 252.445H23.5697V243.33ZM34.1556 240.952V254.823H43.3897V252.445H36.7713V249.017H42.716V246.639H36.7713V243.33H43.2709V240.952H34.1556ZM46.0799 240.952V254.823H48.6956V249.057H54.5215V246.679H48.6956V243.33H54.9178V240.952H46.0799ZM57.4624 240.952V254.823H66.6966V252.445H60.0781V249.017H66.0228V246.639H60.0781V243.33H66.5777V240.952H57.4624ZM69.3867 240.952V254.823H72.0024V243.607H72.2006L75.5495 254.823H80.0477V240.952H77.432V252.168H77.2338L73.8849 240.952H69.3867ZM83.343 240.952V254.823H88.0988C91.8242 254.823 93.8058 252.921 93.8058 249.195V246.58C93.8058 242.854 91.8242 240.952 88.0988 240.952H83.343ZM85.9587 243.33H88.1384C90.2389 243.33 91.1901 244.479 91.1901 246.5V249.275C91.1901 251.296 90.2389 252.445 88.1384 252.445H85.9587V243.33ZM96.5445 240.952V254.823H99.1602V240.952H96.5445ZM102.451 240.952V254.823H105.066V243.607H105.264L108.613 254.823H113.111V240.952H110.496V252.168H110.298L106.949 240.952H102.451ZM115.852 249.552C115.852 253.119 118.111 255.1 121.599 255.1C125.086 255.1 127.068 253.119 127.068 249.829V247.808H121.123V250.028H124.492V250.146C124.492 251.732 123.501 252.762 121.599 252.762C119.696 252.762 118.468 251.534 118.468 249.592V246.183C118.468 244.241 119.696 243.013 121.599 243.013C123.501 243.013 124.373 244.122 124.373 245.549V245.827H126.988V245.589C126.988 242.656 125.086 240.674 121.599 240.674C118.111 240.674 115.852 242.656 115.852 246.223V249.552ZM135.143 240.952V243.33H139.344V254.823H141.959V243.33H146.16V240.952H135.143ZM148.464 240.952V254.823H151.08V249.057H156.311V254.823H158.927V240.952H156.311V246.679H151.08V240.952H148.464ZM162.208 240.952V254.823H171.442V252.445H164.823V249.017H170.768V246.639H164.823V243.33H171.323V240.952H162.208ZM180.464 240.952V254.823H183.08V240.952H180.464ZM186.37 240.952V254.823H188.986V243.607H189.184L192.533 254.823H197.031V240.952H194.415V252.168H194.217L190.868 240.952H186.37ZM199.335 240.952V243.33H203.536V254.823H206.152V243.33H210.353V240.952H199.335ZM212.657 240.952V254.823H221.891V252.445H215.273V249.017H221.217V246.639H215.273V243.33H221.772V240.952H212.657ZM235.123 245.311C235.123 242.676 233.3 240.952 230.684 240.952H224.581V254.823H227.197V249.671H229.476L232.012 254.823H234.965L232.111 249.473C233.914 248.958 235.123 247.432 235.123 245.311ZM227.197 243.33H230.427C231.675 243.33 232.508 244.103 232.508 245.311C232.508 246.52 231.675 247.313 230.427 247.313H227.197V243.33ZM237.783 240.952V254.823H240.398V243.607H240.597L243.945 254.823H248.444V240.952H245.828V252.168H245.63L242.281 240.952H237.783ZM251.739 240.952V254.823H260.973V252.445H254.355V249.017H260.299V246.639H254.355V243.33H260.854V240.952H251.739ZM262.673 240.952V243.33H266.873V254.823H269.489V243.33H273.69V240.952H262.673Z" fill="#E4F7F6"/>
<rect x="5.19727" y="228.823" width="284.255" height="40.9983" stroke="#024A51" stroke-width="1.57068"/>
<rect x="1.09766" y="224.723" width="8.19966" height="8.19966" fill="white" stroke="#024A51" stroke-width="1.57068"/>
<rect x="285.353" y="224.723" width="8.19966" height="8.19966" fill="white" stroke="#024A51" stroke-width="1.57068"/>
<rect x="285.353" y="265.721" width="8.19966" height="8.19966" fill="white" stroke="#024A51" stroke-width="1.57068"/>
<rect x="1.09766" y="265.721" width="8.19966" height="8.19966" fill="white" stroke="#024A51" stroke-width="1.57068"/>
<path d="M24.0691 307.232L26.2884 321.103H30.5092L32.6493 309.768H32.8475L34.9876 321.103H39.2084L41.4278 307.232H38.8121L37.1277 318.566H36.9296L34.7894 307.232H30.7074L28.5673 318.566H28.3691L26.6848 307.232H24.0691ZM43.7756 307.232V321.103H46.3913V307.232H43.7756ZM48.6909 307.232V309.61H52.8918V321.103H55.5075V309.61H59.7085V307.232H48.6909ZM62.0124 307.232V321.103H64.6281V315.336H69.8595V321.103H72.4752V307.232H69.8595V312.958H64.6281V307.232H62.0124ZM82.0875 307.232V321.103H86.8433C90.5687 321.103 92.5503 319.2 92.5503 315.475V312.859C92.5503 309.134 90.5687 307.232 86.8433 307.232H82.0875ZM84.7032 309.61H86.883C88.9835 309.61 89.9346 310.759 89.9346 312.78V315.554C89.9346 317.576 88.9835 318.725 86.883 318.725H84.7032V309.61ZM97.773 307.232L93.8891 321.103H96.5643L97.3965 318.012H102.232L103.064 321.103H105.739L101.855 307.232H97.773ZM98.0306 315.634L99.715 309.372H99.9131L101.597 315.634H98.0306ZM105.739 307.232V309.61H109.94V321.103H112.555V309.61H116.756V307.232H105.739ZM120.654 307.232L116.77 321.103H119.445L120.278 318.012H125.113L125.945 321.103H128.62L124.736 307.232H120.654ZM120.912 315.634L122.596 309.372H122.794L124.479 315.634H120.912Z" fill="#E4F7F6"/>
<rect x="5.19727" y="295.103" width="142.127" height="40.9983" stroke="#024A51" stroke-width="1.57068"/>
<rect x="1.09766" y="291.003" width="8.19966" height="8.19966" fill="white" stroke="#024A51" stroke-width="1.57068"/>
<rect x="143.225" y="291.003" width="8.19966" height="8.19966" fill="white" stroke="#024A51" stroke-width="1.57068"/>
<rect x="143.225" y="332.001" width="8.19966" height="8.19966" fill="white" stroke="#024A51" stroke-width="1.57068"/>
<rect x="1.09766" y="332.001" width="8.19966" height="8.19966" fill="white" stroke="#024A51" stroke-width="1.57068"/>
<g filter="url(#filter3_d_2933_2083)">
<rect x="277.364" y="338.693" width="17.0939" height="17.0939" transform="rotate(45 277.364 338.693)" fill="#E4F7F6"/>
<rect x="277.364" y="339.804" width="15.5232" height="15.5232" transform="rotate(45 277.364 339.804)" stroke="#024A51" stroke-width="1.57068"/>
</g>
<rect x="632.611" y="336.1" width="108.622" height="52.2971" transform="rotate(-180 632.611 336.1)" fill="#E4F7F6"/>
<rect x="406.318" y="224.723" width="108.622" height="52.2971" fill="#EA6ED8"/>
<rect x="641.654" y="283.804" width="108.622" height="52.2971" fill="#7C196E"/>
<rect x="523.992" y="224.723" width="108.622" height="52.2971" fill="#FFD2F9"/>
<rect x="406.325" y="283.804" width="108.622" height="52.2971" fill="#024A51"/>
<rect x="750.288" y="277.02" width="108.622" height="51.9882" transform="rotate(-180 750.288 277.02)" fill="#25A29E"/>
<rect x="703.217" y="751.782" width="296.897" height="381.719" transform="rotate(-180 703.217 751.782)" fill="#FFD2F9"/>
<rect x="466.833" y="381.938" width="116.384" height="40.9983" stroke="#024A51" stroke-width="1.57068"/>
<rect x="463.476" y="377.838" width="6.71461" height="8.19966" fill="white" stroke="#024A51" stroke-width="1.57068"/>
<rect x="579.859" y="377.838" width="6.71461" height="8.19966" fill="white" stroke="#024A51" stroke-width="1.57068"/>
<rect x="579.859" y="418.836" width="6.71461" height="8.19966" fill="white" stroke="#024A51" stroke-width="1.57068"/>
<rect x="463.476" y="418.836" width="6.71461" height="8.19966" fill="white" stroke="#024A51" stroke-width="1.57068"/>
<path fill-rule="evenodd" clip-rule="evenodd" d="M742.639 523.61L742.639 496.435L715.465 496.435L715.465 523.61L742.639 523.61ZM744.15 494.924L713.954 494.924L713.954 525.121L744.15 525.121L744.15 494.924Z" fill="#024A51"/>
<path fill-rule="evenodd" clip-rule="evenodd" d="M627.929 523.611L627.929 496.436L600.754 496.436L600.754 523.611L627.929 523.611ZM629.439 494.925L599.243 494.925L599.243 525.122L629.439 525.122L629.439 494.925Z" fill="#024A51"/>
<path fill-rule="evenodd" clip-rule="evenodd" d="M685.284 523.609L685.284 496.435L658.109 496.435L658.109 523.609L685.284 523.609ZM686.795 494.924L656.598 494.924L656.598 525.12L686.795 525.12L686.795 494.924Z" fill="#024A51"/>
<path fill-rule="evenodd" clip-rule="evenodd" d="M570.574 523.61L570.574 496.436L543.399 496.436L543.399 523.61L570.574 523.61ZM572.085 494.925L541.889 494.925L541.889 525.121L572.085 525.121L572.085 494.925Z" fill="#024A51"/>
<path fill-rule="evenodd" clip-rule="evenodd" d="M713.962 523.611L713.962 496.436L686.787 496.436L686.787 523.611L713.962 523.611ZM715.473 494.925L685.276 494.925L685.276 525.122L715.473 525.122L715.473 494.925Z" fill="#024A51"/>
<path fill-rule="evenodd" clip-rule="evenodd" d="M599.251 523.61L599.251 496.435L572.076 496.435L572.076 523.61L599.251 523.61ZM600.762 494.924L570.565 494.924L570.565 525.121L600.762 525.121L600.762 494.924Z" fill="#024A51"/>
<path fill-rule="evenodd" clip-rule="evenodd" d="M656.606 523.61L656.606 496.436L629.432 496.436L629.432 523.61L656.606 523.61ZM658.117 494.925L627.921 494.925L627.921 525.121L658.117 525.121L658.117 494.925Z" fill="#024A51"/>
<path fill-rule="evenodd" clip-rule="evenodd" d="M541.895 523.611L541.895 496.436L514.721 496.436L514.721 523.611L541.895 523.611ZM543.406 494.925L513.21 494.925L513.21 525.122L543.406 525.122L543.406 494.925Z" fill="#024A51"/>
<path fill-rule="evenodd" clip-rule="evenodd" d="M742.642 638.222L742.642 611.047L715.468 611.047L715.468 638.222L742.642 638.222ZM744.153 609.536L713.957 609.536L713.957 639.733L744.153 639.733L744.153 609.536Z" fill="#024A51"/>
<path fill-rule="evenodd" clip-rule="evenodd" d="M627.931 638.221L627.931 611.046L600.757 611.046L600.757 638.221L627.931 638.221ZM629.442 609.535L599.246 609.535L599.246 639.732L629.442 639.732L629.442 609.535Z" fill="#024A51"/>
<path fill-rule="evenodd" clip-rule="evenodd" d="M685.287 638.221L685.287 611.047L658.112 611.047L658.112 638.221L685.287 638.221ZM686.798 609.536L656.601 609.536L656.601 639.732L686.798 639.732L686.798 609.536Z" fill="#024A51"/>
<path fill-rule="evenodd" clip-rule="evenodd" d="M570.577 638.222L570.577 611.047L543.402 611.047L543.402 638.222L570.577 638.222ZM572.088 609.536L541.891 609.536L541.891 639.733L572.088 639.733L572.088 609.536Z" fill="#024A51"/>
<path fill-rule="evenodd" clip-rule="evenodd" d="M713.965 638.22L713.965 611.046L686.79 611.046L686.79 638.22L713.965 638.22ZM715.476 609.535L685.279 609.535L685.279 639.731L715.476 639.731L715.476 609.535Z" fill="#024A51"/>
<path fill-rule="evenodd" clip-rule="evenodd" d="M599.254 638.221L599.254 611.047L572.079 611.047L572.079 638.221L599.254 638.221ZM600.765 609.536L570.568 609.536L570.568 639.732L600.765 639.732L600.765 609.536Z" fill="#024A51"/>
<path fill-rule="evenodd" clip-rule="evenodd" d="M656.609 638.222L656.609 611.047L629.435 611.047L629.435 638.222L656.609 638.222ZM658.12 609.536L627.924 609.536L627.924 639.733L658.12 639.733L658.12 609.536Z" fill="#024A51"/>
<path fill-rule="evenodd" clip-rule="evenodd" d="M541.898 638.221L541.898 611.046L514.724 611.046L514.724 638.221L541.898 638.221ZM543.409 609.535L513.213 609.535L513.213 639.732L543.409 639.732L543.409 609.535Z" fill="#024A51"/>
<path fill-rule="evenodd" clip-rule="evenodd" d="M742.642 580.915L742.642 553.74L715.468 553.74L715.468 580.915L742.642 580.915ZM744.153 552.229L713.957 552.229L713.957 582.426L744.153 582.426L744.153 552.229Z" fill="#024A51"/>
<path fill-rule="evenodd" clip-rule="evenodd" d="M627.931 580.916L627.931 553.741L600.757 553.741L600.757 580.916L627.931 580.916ZM629.442 552.23L599.246 552.23L599.246 582.427L629.442 582.427L629.442 552.23Z" fill="#024A51"/>
<path fill-rule="evenodd" clip-rule="evenodd" d="M685.287 580.916L685.287 553.742L658.112 553.742L658.112 580.916L685.287 580.916ZM686.798 552.231L656.601 552.231L656.601 582.427L686.798 582.427L686.798 552.231Z" fill="#024A51"/>
<path fill-rule="evenodd" clip-rule="evenodd" d="M570.577 580.915L570.577 553.741L543.402 553.741L543.402 580.915L570.577 580.915ZM572.088 552.23L541.891 552.23L541.891 582.426L572.088 582.426L572.088 552.23Z" fill="#024A51"/>
<path fill-rule="evenodd" clip-rule="evenodd" d="M713.965 580.916L713.965 553.741L686.79 553.741L686.79 580.916L713.965 580.916ZM715.476 552.23L685.279 552.23L685.279 582.427L715.476 582.427L715.476 552.23Z" fill="#024A51"/>
<path fill-rule="evenodd" clip-rule="evenodd" d="M599.254 580.916L599.254 553.742L572.079 553.742L572.079 580.916L599.254 580.916ZM600.765 552.231L570.568 552.231L570.568 582.427L600.765 582.427L600.765 552.231Z" fill="#024A51"/>
<path fill-rule="evenodd" clip-rule="evenodd" d="M656.609 580.915L656.609 553.741L629.435 553.741L629.435 580.915L656.609 580.915ZM658.12 552.23L627.924 552.23L627.924 582.426L658.12 582.426L658.12 552.23Z" fill="#024A51"/>
<path fill-rule="evenodd" clip-rule="evenodd" d="M541.898 580.916L541.898 553.741L514.724 553.741L514.724 580.916L541.898 580.916ZM543.409 552.23L513.213 552.23L513.213 582.427L543.409 582.427L543.409 552.23Z" fill="#024A51"/>
<path fill-rule="evenodd" clip-rule="evenodd" d="M742.642 695.526L742.642 668.352L715.468 668.352L715.468 695.526L742.642 695.526ZM744.153 666.841L713.957 666.841L713.957 697.037L744.153 697.037L744.153 666.841Z" fill="#024A51"/>
<path fill-rule="evenodd" clip-rule="evenodd" d="M627.931 695.527L627.931 668.352L600.757 668.352L600.757 695.527L627.931 695.527ZM629.442 666.842L599.246 666.842L599.246 697.038L629.442 697.038L629.442 666.842Z" fill="#024A51"/>
<path fill-rule="evenodd" clip-rule="evenodd" d="M685.287 695.526L685.287 668.351L658.112 668.351L658.112 695.526L685.287 695.526ZM686.798 666.84L656.601 666.84L656.601 697.037L686.798 697.037L686.798 666.84Z" fill="#024A51"/>
<path fill-rule="evenodd" clip-rule="evenodd" d="M570.577 695.526L570.577 668.352L543.402 668.352L543.402 695.526L570.577 695.526ZM572.088 666.841L541.891 666.841L541.891 697.037L572.088 697.037L572.088 666.841Z" fill="#024A51"/>
<path fill-rule="evenodd" clip-rule="evenodd" d="M713.965 695.527L713.965 668.352L686.79 668.352L686.79 695.527L713.965 695.527ZM715.476 666.842L685.279 666.842L685.279 697.038L715.476 697.038L715.476 666.842Z" fill="#024A51"/>
<path fill-rule="evenodd" clip-rule="evenodd" d="M599.254 695.526L599.254 668.351L572.079 668.351L572.079 695.526L599.254 695.526ZM600.765 666.84L570.568 666.84L570.568 697.037L600.765 697.037L600.765 666.84Z" fill="#024A51"/>
<path fill-rule="evenodd" clip-rule="evenodd" d="M656.609 695.526L656.609 668.352L629.435 668.352L629.435 695.526L656.609 695.526ZM658.12 666.841L627.924 666.841L627.924 697.037L658.12 697.037L658.12 666.841Z" fill="#024A51"/>
<path fill-rule="evenodd" clip-rule="evenodd" d="M541.898 695.527L541.898 668.352L514.724 668.352L514.724 695.527L541.898 695.527ZM543.409 666.842L513.213 666.842L513.213 697.038L543.409 697.038L543.409 666.842Z" fill="#024A51"/>
<path fill-rule="evenodd" clip-rule="evenodd" d="M742.642 552.263L742.642 525.089L715.468 525.089L715.468 552.263L742.642 552.263ZM744.153 523.578L713.957 523.578L713.957 553.774L744.153 553.774L744.153 523.578Z" fill="#024A51"/>
<path fill-rule="evenodd" clip-rule="evenodd" d="M627.931 552.262L627.931 525.087L600.757 525.087L600.757 552.262L627.931 552.262ZM629.442 523.576L599.246 523.576L599.246 553.773L629.442 553.773L629.442 523.576Z" fill="#024A51"/>
<path fill-rule="evenodd" clip-rule="evenodd" d="M685.287 552.263L685.287 525.088L658.112 525.088L658.112 552.263L685.287 552.263ZM686.798 523.577L656.601 523.577L656.601 553.774L686.798 553.774L686.798 523.577Z" fill="#024A51"/>
<path fill-rule="evenodd" clip-rule="evenodd" d="M570.577 552.264L570.577 525.089L543.402 525.089L543.402 552.264L570.577 552.264ZM572.088 523.578L541.891 523.578L541.891 553.775L572.088 553.775L572.088 523.578Z" fill="#024A51"/>
<path fill-rule="evenodd" clip-rule="evenodd" d="M713.965 552.262L713.965 525.087L686.79 525.087L686.79 552.262L713.965 552.262ZM715.476 523.576L685.279 523.576L685.279 553.773L715.476 553.773L715.476 523.576Z" fill="#024A51"/>
<path fill-rule="evenodd" clip-rule="evenodd" d="M599.254 552.263L599.254 525.088L572.079 525.088L572.079 552.263L599.254 552.263ZM600.765 523.577L570.568 523.577L570.568 553.774L600.765 553.774L600.765 523.577Z" fill="#024A51"/>
<path fill-rule="evenodd" clip-rule="evenodd" d="M656.609 552.264L656.609 525.089L629.435 525.089L629.435 552.264L656.609 552.264ZM658.12 523.578L627.924 523.578L627.924 553.775L658.12 553.775L658.12 523.578Z" fill="#024A51"/>
<path fill-rule="evenodd" clip-rule="evenodd" d="M541.898 552.262L541.898 525.088L514.724 525.088L514.724 552.262L541.898 552.262ZM543.409 523.577L513.213 523.577L513.213 553.773L543.409 553.773L543.409 523.577Z" fill="#024A51"/>
<path fill-rule="evenodd" clip-rule="evenodd" d="M742.642 666.873L742.642 639.699L715.468 639.699L715.468 666.873L742.642 666.873ZM744.153 638.188L713.957 638.188L713.957 668.384L744.153 668.384L744.153 638.188Z" fill="#024A51"/>
<path fill-rule="evenodd" clip-rule="evenodd" d="M627.931 666.874L627.931 639.699L600.757 639.699L600.757 666.874L627.931 666.874ZM629.442 638.188L599.246 638.188L599.246 668.385L629.442 668.385L629.442 638.188Z" fill="#024A51"/>
<path fill-rule="evenodd" clip-rule="evenodd" d="M685.287 666.875L685.287 639.7L658.112 639.7L658.112 666.875L685.287 666.875ZM686.798 638.189L656.601 638.189L656.601 668.385L686.798 668.385L686.798 638.189Z" fill="#024A51"/>
<path fill-rule="evenodd" clip-rule="evenodd" d="M570.577 666.873L570.577 639.699L543.402 639.699L543.402 666.873L570.577 666.873ZM572.088 638.188L541.891 638.188L541.891 668.384L572.088 668.384L572.088 638.188Z" fill="#024A51"/>
<path fill-rule="evenodd" clip-rule="evenodd" d="M713.965 666.874L713.965 639.699L686.79 639.699L686.79 666.874L713.965 666.874ZM715.476 638.188L685.279 638.188L685.279 668.385L715.476 668.385L715.476 638.188Z" fill="#024A51"/>
<path fill-rule="evenodd" clip-rule="evenodd" d="M599.254 666.875L599.254 639.7L572.079 639.7L572.079 666.875L599.254 666.875ZM600.765 638.189L570.568 638.189L570.568 668.386L600.765 668.386L600.765 638.189Z" fill="#024A51"/>
<path fill-rule="evenodd" clip-rule="evenodd" d="M656.609 666.873L656.609 639.699L629.435 639.699L629.435 666.873L656.609 666.873ZM658.12 638.188L627.924 638.188L627.924 668.384L658.12 668.384L658.12 638.188Z" fill="#024A51"/>
<path fill-rule="evenodd" clip-rule="evenodd" d="M541.898 666.874L541.898 639.7L514.724 639.7L514.724 666.874L541.898 666.874ZM543.409 638.189L513.213 638.189L513.213 668.385L543.409 668.385L543.409 638.189Z" fill="#024A51"/>
<path fill-rule="evenodd" clip-rule="evenodd" d="M742.642 609.568L742.642 582.394L715.468 582.394L715.468 609.568L742.642 609.568ZM744.153 580.883L713.957 580.883L713.957 611.079L744.153 611.079L744.153 580.883Z" fill="#024A51"/>
<path fill-rule="evenodd" clip-rule="evenodd" d="M627.931 609.569L627.931 582.395L600.757 582.395L600.757 609.569L627.931 609.569ZM629.442 580.884L599.246 580.884L599.246 611.08L629.442 611.08L629.442 580.884Z" fill="#024A51"/>
<path fill-rule="evenodd" clip-rule="evenodd" d="M685.287 609.568L685.287 582.393L658.112 582.393L658.112 609.568L685.287 609.568ZM686.798 580.882L656.601 580.882L656.601 611.079L686.798 611.079L686.798 580.882Z" fill="#024A51"/>
<path fill-rule="evenodd" clip-rule="evenodd" d="M570.577 609.568L570.577 582.394L543.402 582.394L543.402 609.568L570.577 609.568ZM572.088 580.883L541.891 580.883L541.891 611.079L572.088 611.079L572.088 580.883Z" fill="#024A51"/>
<path fill-rule="evenodd" clip-rule="evenodd" d="M713.965 609.569L713.965 582.395L686.79 582.395L686.79 609.569L713.965 609.569ZM715.476 580.884L685.279 580.884L685.279 611.08L715.476 611.08L715.476 580.884Z" fill="#024A51"/>
<path fill-rule="evenodd" clip-rule="evenodd" d="M599.254 609.568L599.254 582.393L572.079 582.393L572.079 609.568L599.254 609.568ZM600.765 580.882L570.568 580.882L570.568 611.079L600.765 611.079L600.765 580.882Z" fill="#024A51"/>
<path fill-rule="evenodd" clip-rule="evenodd" d="M656.609 609.568L656.609 582.394L629.435 582.394L629.435 609.568L656.609 609.568ZM658.12 580.883L627.924 580.883L627.924 611.079L658.12 611.079L658.12 580.883Z" fill="#024A51"/>
<path fill-rule="evenodd" clip-rule="evenodd" d="M541.898 609.569L541.898 582.395L514.724 582.395L514.724 609.569L541.898 609.569ZM543.409 580.884L513.213 580.884L513.213 611.08L543.409 611.08L543.409 580.884Z" fill="#024A51"/>
<path fill-rule="evenodd" clip-rule="evenodd" d="M742.642 724.18L742.642 697.005L715.468 697.005L715.468 724.18L742.642 724.18ZM744.153 695.494L713.957 695.494L713.957 725.691L744.153 725.691L744.153 695.494Z" fill="#024A51"/>
<path fill-rule="evenodd" clip-rule="evenodd" d="M627.931 724.178L627.931 697.004L600.757 697.004L600.757 724.178L627.931 724.178ZM629.442 695.493L599.246 695.493L599.246 725.689L629.442 725.689L629.442 695.493Z" fill="#024A51"/>
<path fill-rule="evenodd" clip-rule="evenodd" d="M685.287 724.179L685.287 697.005L658.112 697.005L658.112 724.179L685.287 724.179ZM686.798 695.494L656.601 695.494L656.601 725.69L686.798 725.69L686.798 695.494Z" fill="#024A51"/>
<path fill-rule="evenodd" clip-rule="evenodd" d="M570.577 724.18L570.577 697.005L543.402 697.005L543.402 724.18L570.577 724.18ZM572.088 695.494L541.891 695.494L541.891 725.691L572.088 725.691L572.088 695.494Z" fill="#024A51"/>
<path fill-rule="evenodd" clip-rule="evenodd" d="M713.965 724.178L713.965 697.004L686.79 697.004L686.79 724.178L713.965 724.178ZM715.476 695.493L685.279 695.493L685.279 725.689L715.476 725.689L715.476 695.493Z" fill="#024A51"/>
<path fill-rule="evenodd" clip-rule="evenodd" d="M599.254 724.179L599.254 697.005L572.079 697.005L572.079 724.179L599.254 724.179ZM600.765 695.494L570.568 695.494L570.568 725.69L600.765 725.69L600.765 695.494Z" fill="#024A51"/>
<path fill-rule="evenodd" clip-rule="evenodd" d="M656.609 724.18L656.609 697.005L629.435 697.005L629.435 724.18L656.609 724.18ZM658.12 695.494L627.924 695.494L627.924 725.691L658.12 725.691L658.12 695.494Z" fill="#024A51"/>
<path fill-rule="evenodd" clip-rule="evenodd" d="M541.898 724.179L541.898 697.004L514.724 697.004L514.724 724.179L541.898 724.179ZM543.409 695.493L513.213 695.493L513.213 725.69L543.409 725.69L543.409 695.493Z" fill="#024A51"/>
<g filter="url(#filter4_d_2933_2083)">
<rect x="446.309" y="421.006" width="57.4135" height="38.1795" fill="#FFD2F9" stroke="#024A51" stroke-width="1.57068"/>
<path d="M478.043 420.717H446.309V412.671H469.245C473.858 412.671 477.645 416.208 478.043 420.717Z" fill="#FFD2F9" stroke="#024A51" stroke-width="1.57068"/>
<rect x="461.055" y="444.728" width="57.4135" height="38.1795" fill="#E4F7F6" stroke="#024A51" stroke-width="1.57068"/>
<path d="M492.789 444.439H461.055V436.393H483.991C488.604 436.393 492.391 439.93 492.789 444.439Z" fill="#E4F7F6" stroke="#024A51" stroke-width="1.57068"/>
</g>
<g filter="url(#filter5_d_2933_2083)">
<rect x="445.523" y="595.744" width="186.596" height="52.1261" fill="#25A29E"/>
<rect x="446.309" y="596.529" width="185.026" height="50.5554" stroke="#024A51" stroke-width="1.57068"/>
</g>
<g filter="url(#filter6_d_2933_2083)">
<circle cx="538.821" cy="622.452" r="64.9599" fill="#E4F7F6"/>
<circle cx="538.821" cy="622.452" r="64.1746" stroke="#024A51" stroke-width="1.57068"/>
</g>
<line x1="737.784" y1="624.756" x2="726.641" y2="635.899" stroke="#024A51" stroke-width="1.57068"/>
<line x1="737.202" y1="635.899" x2="726.06" y2="624.756" stroke="#024A51" stroke-width="1.57068"/>
<g filter="url(#filter7_d_2933_2083)">
<rect x="580.025" y="670.531" width="161.474" height="52.4789" fill="#EA6ED8"/>
<rect x="580.811" y="671.316" width="159.903" height="50.9082" stroke="#024A51" stroke-width="1.57068"/>
</g>
<line x1="472.426" y1="522.266" x2="448.064" y2="546.628" stroke="#024A51" stroke-width="1.57068"/>
<line x1="472.474" y1="546.627" x2="448.111" y2="522.265" stroke="#024A51" stroke-width="1.57068"/>
<g filter="url(#filter8_d_2933_2083)">
<rect x="472.748" y="696.367" width="14.9289" height="14.9289" transform="rotate(45 472.748 696.367)" fill="#EA6ED8"/>
<rect x="472.748" y="697.478" width="13.3582" height="13.3582" transform="rotate(45 472.748 697.478)" stroke="#024A51" stroke-width="1.57068"/>
</g>
<g filter="url(#filter9_d_2933_2083)">
<rect x="453.998" y="704.936" width="8.86952" height="8.86952" transform="rotate(45 453.998 704.936)" fill="#E4F7F6"/>
<rect x="453.998" y="706.047" width="7.29884" height="7.29884" transform="rotate(45 453.998 706.047)" stroke="#024A51" stroke-width="1.57068"/>
</g>
<g filter="url(#filter10_d_2933_2083)">
<rect x="544.487" y="515.011" width="17.0939" height="17.0939" transform="rotate(45 544.487 515.011)" fill="#25A29E"/>
<rect x="544.487" y="516.121" width="15.5232" height="15.5232" transform="rotate(45 544.487 516.121)" stroke="#024A51" stroke-width="1.57068"/>
</g>
<g filter="url(#filter11_d_2933_2083)">
<rect x="522.649" y="396.049" width="8.0067" height="8.0067" transform="rotate(45 522.649 396.049)" fill="#EA6ED8"/>
<rect x="522.649" y="397.16" width="6.43602" height="6.43602" transform="rotate(45 522.649 397.16)" stroke="#024A51" stroke-width="1.57068"/>
</g>
<g filter="url(#filter12_d_2933_2083)">
<rect x="733.791" y="448.766" width="13.5907" height="13.5907" transform="rotate(45 733.791 448.766)" fill="#E4F7F6"/>
<rect x="733.791" y="449.877" width="12.0201" height="12.0201" transform="rotate(45 733.791 449.877)" stroke="#024A51" stroke-width="1.57068"/>
</g>
<g filter="url(#filter13_d_2933_2083)">
<path fill-rule="evenodd" clip-rule="evenodd" d="M642.19 500.358C646.206 492.566 644.929 482.779 638.357 476.256C630.2 468.159 616.974 468.159 608.816 476.256C600.659 484.352 600.659 497.48 608.816 505.576C615.801 512.509 626.5 513.506 634.553 508.567L645.174 519.109C646.429 520.355 648.464 520.355 649.719 519.109L653.128 515.726C654.383 514.48 654.383 512.461 653.128 511.215L642.19 500.358ZM634.568 480.011C640.215 485.617 640.215 496.216 634.568 501.821C628.92 507.426 618.253 507.426 612.606 501.821C606.958 496.216 606.958 485.617 612.606 480.011C618.253 474.406 628.92 474.406 634.568 480.011Z" fill="#EA6ED8"/>
</g>
<g filter="url(#filter14_d_2933_2083)">
<circle cx="689.146" cy="428.093" r="34.0146" fill="#25A29E"/>
<circle cx="689.146" cy="428.093" r="33.2293" stroke="#024A51" stroke-width="1.57068"/>
</g>
<g filter="url(#filter15_d_2933_2083)">
<path d="M662.542 615.729L635.918 556.681L696.215 584.541L685.425 594.679L707.111 615.836L698.436 625.342L675.377 603.444L662.542 615.729Z" fill="#E4F7F6" stroke="#024A51" stroke-width="1.57068"/>
</g>
<g filter="url(#filter16_d_2933_2083)">
<rect x="735.451" y="718.182" width="2.59056" height="13.0515" transform="rotate(-45 735.451 718.182)" fill="#E4F7F6"/>
<rect width="2.34109" height="5.88967" transform="matrix(0.879667 0.47559 0.0556207 0.998452 734.208 715.293)" fill="#E4F7F6"/>
<rect width="2.34109" height="5.88967" transform="matrix(-0.47559 -0.879667 -0.998452 -0.0556207 741.263 717.618)" fill="#E4F7F6"/>
<rect width="2.34109" height="5.88967" transform="matrix(-0.879667 -0.47559 -0.0556206 -0.998452 747.504 728.467)" fill="#E4F7F6"/>
<rect width="2.34109" height="5.88967" transform="matrix(0.47559 0.879667 0.998452 0.0556208 740.45 726.141)" fill="#E4F7F6"/>
</g>
<g filter="url(#filter17_d_2933_2083)">
<path d="M55.0758 423.985H54.4803L54.3196 424.559L3.09146 607.33L2.81193 608.327H3.84766H39.1323H39.734L39.8906 607.746L50.7115 567.595H113.282L124.103 607.746L124.259 608.327H124.861H160.146H161.181L160.902 607.33L109.674 424.559L109.513 423.985H108.918H55.0758ZM172.875 510.695L172.638 511.432L173.372 511.679L203.691 521.862L204.536 522.145L204.711 521.271C205.862 515.522 208.342 510.54 212.489 506.994C216.63 503.453 222.513 501.276 230.601 501.276C238.819 501.276 244.61 503.582 248.346 507.252C252.083 510.922 253.861 516.053 253.861 521.9V528.426H219.101C204.353 528.426 191.62 531.91 182.555 538.835C173.463 545.781 168.133 556.135 168.133 569.682C168.133 583.224 173.458 593.828 182.206 601.033C190.937 608.223 203.019 611.983 216.487 611.983C228.661 611.983 236.994 608.675 242.597 604.586C247.894 600.72 250.71 596.185 252.03 593.183H254.384V607.542V608.327H255.169H286.533H287.319V607.542V524.25C287.319 507.879 281.893 495.179 272.088 486.583C262.297 478.001 248.239 473.595 231.123 473.595C214.13 473.595 201.157 477.873 191.625 484.674C182.095 491.475 176.056 500.762 172.875 510.695ZM82.7017 453.755L104.495 534.692H59.4983L81.2917 453.755H82.7017ZM202.636 568.899C202.636 564.695 204.359 561.137 207.534 558.612C210.724 556.075 215.437 554.54 221.453 554.54H253.861V555.844C253.861 564.25 250.68 571.215 245.298 576.084C239.911 580.96 232.267 583.78 223.282 583.78C216.336 583.78 211.167 582.172 207.754 579.537C204.362 576.919 202.636 573.238 202.636 568.899Z" fill="#E4F7F6" stroke="#024A51" stroke-width="1.57068"/>
<rect x="-0.78534" y="0.78534" width="284.257" height="18.0713" transform="matrix(1 0 0 -1 3.84766 711.489)" fill="#E4F7F6" stroke="#024A51" stroke-width="1.57068"/>
<rect x="3.07111" y="734.5" width="122.115" height="18.0713" fill="#FFD2F9" stroke="#024A51" stroke-width="1.57068"/>
<rect x="-0.78534" y="0.78534" width="216.082" height="18.0713" transform="matrix(1 0 0 -1 3.86133 669.622)" fill="#25A29E" stroke="#024A51" stroke-width="1.57068"/>
</g>
<g filter="url(#filter18_d_2933_2083)">
<rect x="256.445" y="303.708" width="12.4898" height="12.4898" transform="rotate(45 256.445 303.708)" fill="#FFD2F9"/>
<rect x="256.445" y="304.819" width="10.9191" height="10.9191" transform="rotate(45 256.445 304.819)" stroke="#024A51" stroke-width="1.57068"/>
</g>
<g filter="url(#filter19_d_2933_2083)">
<circle cx="239.723" cy="392.004" r="21.3506" fill="#EA6ED8"/>
<circle cx="239.723" cy="392.004" r="20.5653" stroke="#024A51" stroke-width="1.57068"/>
</g>
<defs>
<filter id="filter0_d_2933_2083" x="470.75" y="59.3787" width="280.984" height="107.554" filterUnits="userSpaceOnUse" color-interpolation-filters="sRGB">
<feFlood flood-opacity="0" result="BackgroundImageFix"/>
<feColorMatrix in="SourceAlpha" type="matrix" values="0 0 0 0 0 0 0 0 0 0 0 0 0 0 0 0 0 0 127 0" result="hardAlpha"/>
<feOffset dx="3.0218" dy="3.0218"/>
<feColorMatrix type="matrix" values="0 0 0 0 0.00784314 0 0 0 0 0.290196 0 0 0 0 0.317647 0 0 0 1 0"/>
<feBlend mode="normal" in2="BackgroundImageFix" result="effect1_dropShadow_2933_2083"/>
<feBlend mode="normal" in="SourceGraphic" in2="effect1_dropShadow_2933_2083" result="shape"/>
</filter>
<filter id="filter1_d_2933_2083" x="456.496" y="42.7483" width="280.984" height="107.554" filterUnits="userSpaceOnUse" color-interpolation-filters="sRGB">
<feFlood flood-opacity="0" result="BackgroundImageFix"/>
<feColorMatrix in="SourceAlpha" type="matrix" values="0 0 0 0 0 0 0 0 0 0 0 0 0 0 0 0 0 0 127 0" result="hardAlpha"/>
<feOffset dx="3.0218" dy="3.0218"/>
<feColorMatrix type="matrix" values="0 0 0 0 0.00784314 0 0 0 0 0.290196 0 0 0 0 0.317647 0 0 0 1 0"/>
<feBlend mode="normal" in2="BackgroundImageFix" result="effect1_dropShadow_2933_2083"/>
<feBlend mode="normal" in="SourceGraphic" in2="effect1_dropShadow_2933_2083" result="shape"/>
</filter>
<filter id="filter2_d_2933_2083" x="439.865" y="26.1202" width="280.984" height="107.554" filterUnits="userSpaceOnUse" color-interpolation-filters="sRGB">
<feFlood flood-opacity="0" result="BackgroundImageFix"/>
<feColorMatrix in="SourceAlpha" type="matrix" values="0 0 0 0 0 0 0 0 0 0 0 0 0 0 0 0 0 0 127 0" result="hardAlpha"/>
<feOffset dx="3.0218" dy="3.0218"/>
<feColorMatrix type="matrix" values="0 0 0 0 0.00784314 0 0 0 0 0.290196 0 0 0 0 0.317647 0 0 0 1 0"/>
<feBlend mode="normal" in2="BackgroundImageFix" result="effect1_dropShadow_2933_2083"/>
<feBlend mode="normal" in="SourceGraphic" in2="effect1_dropShadow_2933_2083" result="shape"/>
</filter>
<filter id="filter3_d_2933_2083" x="265.277" y="338.693" width="27.1956" height="27.1961" filterUnits="userSpaceOnUse" color-interpolation-filters="sRGB">
<feFlood flood-opacity="0" result="BackgroundImageFix"/>
<feColorMatrix in="SourceAlpha" type="matrix" values="0 0 0 0 0 0 0 0 0 0 0 0 0 0 0 0 0 0 127 0" result="hardAlpha"/>
<feOffset dx="3.0218" dy="3.0218"/>
<feColorMatrix type="matrix" values="0 0 0 0 0.00784314 0 0 0 0 0.290196 0 0 0 0 0.317647 0 0 0 1 0"/>
<feBlend mode="normal" in2="BackgroundImageFix" result="effect1_dropShadow_2933_2083"/>
<feBlend mode="normal" in="SourceGraphic" in2="effect1_dropShadow_2933_2083" result="shape"/>
</filter>
<filter id="filter4_d_2933_2083" x="445.523" y="411.886" width="76.7523" height="74.8287" filterUnits="userSpaceOnUse" color-interpolation-filters="sRGB">
<feFlood flood-opacity="0" result="BackgroundImageFix"/>
<feColorMatrix in="SourceAlpha" type="matrix" values="0 0 0 0 0 0 0 0 0 0 0 0 0 0 0 0 0 0 127 0" result="hardAlpha"/>
<feOffset dx="3.0218" dy="3.0218"/>
<feColorMatrix type="matrix" values="0 0 0 0 0.00784314 0 0 0 0 0.290196 0 0 0 0 0.317647 0 0 0 1 0"/>
<feBlend mode="normal" in2="BackgroundImageFix" result="effect1_dropShadow_2933_2083"/>
<feBlend mode="normal" in="SourceGraphic" in2="effect1_dropShadow_2933_2083" result="shape"/>
</filter>
<filter id="filter5_d_2933_2083" x="445.523" y="595.744" width="189.618" height="55.148" filterUnits="userSpaceOnUse" color-interpolation-filters="sRGB">
<feFlood flood-opacity="0" result="BackgroundImageFix"/>
<feColorMatrix in="SourceAlpha" type="matrix" values="0 0 0 0 0 0 0 0 0 0 0 0 0 0 0 0 0 0 127 0" result="hardAlpha"/>
<feOffset dx="3.0218" dy="3.0218"/>
<feColorMatrix type="matrix" values="0 0 0 0 0.00784314 0 0 0 0 0.290196 0 0 0 0 0.317647 0 0 0 1 0"/>
<feBlend mode="normal" in2="BackgroundImageFix" result="effect1_dropShadow_2933_2083"/>
<feBlend mode="normal" in="SourceGraphic" in2="effect1_dropShadow_2933_2083" result="shape"/>
</filter>
<filter id="filter6_d_2933_2083" x="473.861" y="557.492" width="132.942" height="132.942" filterUnits="userSpaceOnUse" color-interpolation-filters="sRGB">
<feFlood flood-opacity="0" result="BackgroundImageFix"/>
<feColorMatrix in="SourceAlpha" type="matrix" values="0 0 0 0 0 0 0 0 0 0 0 0 0 0 0 0 0 0 127 0" result="hardAlpha"/>
<feOffset dx="3.0218" dy="3.0218"/>
<feColorMatrix type="matrix" values="0 0 0 0 0.00784314 0 0 0 0 0.290196 0 0 0 0 0.317647 0 0 0 1 0"/>
<feBlend mode="normal" in2="BackgroundImageFix" result="effect1_dropShadow_2933_2083"/>
<feBlend mode="normal" in="SourceGraphic" in2="effect1_dropShadow_2933_2083" result="shape"/>
</filter>
<filter id="filter7_d_2933_2083" x="580.025" y="670.531" width="164.495" height="55.5008" filterUnits="userSpaceOnUse" color-interpolation-filters="sRGB">
<feFlood flood-opacity="0" result="BackgroundImageFix"/>
<feColorMatrix in="SourceAlpha" type="matrix" values="0 0 0 0 0 0 0 0 0 0 0 0 0 0 0 0 0 0 127 0" result="hardAlpha"/>
<feOffset dx="3.0218" dy="3.0218"/>
<feColorMatrix type="matrix" values="0 0 0 0 0.00784314 0 0 0 0 0.290196 0 0 0 0 0.317647 0 0 0 1 0"/>
<feBlend mode="normal" in2="BackgroundImageFix" result="effect1_dropShadow_2933_2083"/>
<feBlend mode="normal" in="SourceGraphic" in2="effect1_dropShadow_2933_2083" result="shape"/>
</filter>
<filter id="filter8_d_2933_2083" x="462.191" y="696.367" width="24.1351" height="24.1346" filterUnits="userSpaceOnUse" color-interpolation-filters="sRGB">
<feFlood flood-opacity="0" result="BackgroundImageFix"/>
<feColorMatrix in="SourceAlpha" type="matrix" values="0 0 0 0 0 0 0 0 0 0 0 0 0 0 0 0 0 0 127 0" result="hardAlpha"/>
<feOffset dx="3.0218" dy="3.0218"/>
<feColorMatrix type="matrix" values="0 0 0 0 0.00784314 0 0 0 0 0.290196 0 0 0 0 0.317647 0 0 0 1 0"/>
<feBlend mode="normal" in2="BackgroundImageFix" result="effect1_dropShadow_2933_2083"/>
<feBlend mode="normal" in="SourceGraphic" in2="effect1_dropShadow_2933_2083" result="shape"/>
</filter>
<filter id="filter9_d_2933_2083" x="447.727" y="704.936" width="15.5648" height="15.5653" filterUnits="userSpaceOnUse" color-interpolation-filters="sRGB">
<feFlood flood-opacity="0" result="BackgroundImageFix"/>
<feColorMatrix in="SourceAlpha" type="matrix" values="0 0 0 0 0 0 0 0 0 0 0 0 0 0 0 0 0 0 127 0" result="hardAlpha"/>
<feOffset dx="3.0218" dy="3.0218"/>
<feColorMatrix type="matrix" values="0 0 0 0 0.00784314 0 0 0 0 0.290196 0 0 0 0 0.317647 0 0 0 1 0"/>
<feBlend mode="normal" in2="BackgroundImageFix" result="effect1_dropShadow_2933_2083"/>
<feBlend mode="normal" in="SourceGraphic" in2="effect1_dropShadow_2933_2083" result="shape"/>
</filter>
<filter id="filter10_d_2933_2083" x="532.4" y="515.011" width="27.1956" height="27.1961" filterUnits="userSpaceOnUse" color-interpolation-filters="sRGB">
<feFlood flood-opacity="0" result="BackgroundImageFix"/>
<feColorMatrix in="SourceAlpha" type="matrix" values="0 0 0 0 0 0 0 0 0 0 0 0 0 0 0 0 0 0 127 0" result="hardAlpha"/>
<feOffset dx="3.0218" dy="3.0218"/>
<feColorMatrix type="matrix" values="0 0 0 0 0.00784314 0 0 0 0 0.290196 0 0 0 0 0.317647 0 0 0 1 0"/>
<feBlend mode="normal" in2="BackgroundImageFix" result="effect1_dropShadow_2933_2083"/>
<feBlend mode="normal" in="SourceGraphic" in2="effect1_dropShadow_2933_2083" result="shape"/>
</filter>
<filter id="filter11_d_2933_2083" x="516.988" y="396.049" width="14.3441" height="14.345" filterUnits="userSpaceOnUse" color-interpolation-filters="sRGB">
<feFlood flood-opacity="0" result="BackgroundImageFix"/>
<feColorMatrix in="SourceAlpha" type="matrix" values="0 0 0 0 0 0 0 0 0 0 0 0 0 0 0 0 0 0 127 0" result="hardAlpha"/>
<feOffset dx="3.0218" dy="3.0218"/>
<feColorMatrix type="matrix" values="0 0 0 0 0.00784314 0 0 0 0 0.290196 0 0 0 0 0.317647 0 0 0 1 0"/>
<feBlend mode="normal" in2="BackgroundImageFix" result="effect1_dropShadow_2933_2083"/>
<feBlend mode="normal" in="SourceGraphic" in2="effect1_dropShadow_2933_2083" result="shape"/>
</filter>
<filter id="filter12_d_2933_2083" x="724.181" y="448.766" width="22.2425" height="22.242" filterUnits="userSpaceOnUse" color-interpolation-filters="sRGB">
<feFlood flood-opacity="0" result="BackgroundImageFix"/>
<feColorMatrix in="SourceAlpha" type="matrix" values="0 0 0 0 0 0 0 0 0 0 0 0 0 0 0 0 0 0 127 0" result="hardAlpha"/>
<feOffset dx="3.0218" dy="3.0218"/>
<feColorMatrix type="matrix" values="0 0 0 0 0.00784314 0 0 0 0 0.290196 0 0 0 0 0.317647 0 0 0 1 0"/>
<feBlend mode="normal" in2="BackgroundImageFix" result="effect1_dropShadow_2933_2083"/>
<feBlend mode="normal" in="SourceGraphic" in2="effect1_dropShadow_2933_2083" result="shape"/>
</filter>
<filter id="filter13_d_2933_2083" x="602.698" y="470.183" width="54.3929" height="52.8817" filterUnits="userSpaceOnUse" color-interpolation-filters="sRGB">
<feFlood flood-opacity="0" result="BackgroundImageFix"/>
<feColorMatrix in="SourceAlpha" type="matrix" values="0 0 0 0 0 0 0 0 0 0 0 0 0 0 0 0 0 0 127 0" result="hardAlpha"/>
<feOffset dx="3.0218" dy="3.0218"/>
<feColorMatrix type="matrix" values="0 0 0 0 0.00784314 0 0 0 0 0.290196 0 0 0 0 0.317647 0 0 0 1 0"/>
<feBlend mode="normal" in2="BackgroundImageFix" result="effect1_dropShadow_2933_2083"/>
<feBlend mode="normal" in="SourceGraphic" in2="effect1_dropShadow_2933_2083" result="shape"/>
</filter>
<filter id="filter14_d_2933_2083" x="655.132" y="394.078" width="71.0511" height="71.0511" filterUnits="userSpaceOnUse" color-interpolation-filters="sRGB">
<feFlood flood-opacity="0" result="BackgroundImageFix"/>
<feColorMatrix in="SourceAlpha" type="matrix" values="0 0 0 0 0 0 0 0 0 0 0 0 0 0 0 0 0 0 127 0" result="hardAlpha"/>
<feOffset dx="3.0218" dy="3.0218"/>
<feColorMatrix type="matrix" values="0 0 0 0 0.00784314 0 0 0 0 0.290196 0 0 0 0 0.317647 0 0 0 1 0"/>
<feBlend mode="normal" in2="BackgroundImageFix" result="effect1_dropShadow_2933_2083"/>
<feBlend mode="normal" in="SourceGraphic" in2="effect1_dropShadow_2933_2083" result="shape"/>
</filter>
<filter id="filter15_d_2933_2083" x="634.337" y="555.086" width="76.888" height="74.3992" filterUnits="userSpaceOnUse" color-interpolation-filters="sRGB">
<feFlood flood-opacity="0" result="BackgroundImageFix"/>
<feColorMatrix in="SourceAlpha" type="matrix" values="0 0 0 0 0 0 0 0 0 0 0 0 0 0 0 0 0 0 127 0" result="hardAlpha"/>
<feOffset dx="3.0218" dy="3.0218"/>
<feColorMatrix type="matrix" values="0 0 0 0 0.00784314 0 0 0 0 0.290196 0 0 0 0 0.317647 0 0 0 1 0"/>
<feBlend mode="normal" in2="BackgroundImageFix" result="effect1_dropShadow_2933_2083"/>
<feBlend mode="normal" in="SourceGraphic" in2="effect1_dropShadow_2933_2083" result="shape"/>
</filter>
<filter id="filter16_d_2933_2083" x="734.208" y="715.231" width="16.3177" height="16.3187" filterUnits="userSpaceOnUse" color-interpolation-filters="sRGB">
<feFlood flood-opacity="0" result="BackgroundImageFix"/>
<feColorMatrix in="SourceAlpha" type="matrix" values="0 0 0 0 0 0 0 0 0 0 0 0 0 0 0 0 0 0 127 0" result="hardAlpha"/>
<feOffset dx="3.0218" dy="3.0218"/>
<feColorMatrix type="matrix" values="0 0 0 0 0.00784314 0 0 0 0 0.290196 0 0 0 0 0.317647 0 0 0 1 0"/>
<feBlend mode="normal" in2="BackgroundImageFix" result="effect1_dropShadow_2933_2083"/>
<feBlend mode="normal" in="SourceGraphic" in2="effect1_dropShadow_2933_2083" result="shape"/>
</filter>
<filter id="filter17_d_2933_2083" x="1.77637" y="423.2" width="289.35" height="333.178" filterUnits="userSpaceOnUse" color-interpolation-filters="sRGB">
<feFlood flood-opacity="0" result="BackgroundImageFix"/>
<feColorMatrix in="SourceAlpha" type="matrix" values="0 0 0 0 0 0 0 0 0 0 0 0 0 0 0 0 0 0 127 0" result="hardAlpha"/>
<feOffset dx="3.0218" dy="3.0218"/>
<feColorMatrix type="matrix" values="0 0 0 0 0.00784314 0 0 0 0 0.290196 0 0 0 0 0.317647 0 0 0 1 0"/>
<feBlend mode="normal" in2="BackgroundImageFix" result="effect1_dropShadow_2933_2083"/>
<feBlend mode="normal" in="SourceGraphic" in2="effect1_dropShadow_2933_2083" result="shape"/>
</filter>
<filter id="filter18_d_2933_2083" x="247.613" y="303.708" width="20.6859" height="20.6851" filterUnits="userSpaceOnUse" color-interpolation-filters="sRGB">
<feFlood flood-opacity="0" result="BackgroundImageFix"/>
<feColorMatrix in="SourceAlpha" type="matrix" values="0 0 0 0 0 0 0 0 0 0 0 0 0 0 0 0 0 0 127 0" result="hardAlpha"/>
<feOffset dx="3.0218" dy="3.0218"/>
<feColorMatrix type="matrix" values="0 0 0 0 0.00784314 0 0 0 0 0.290196 0 0 0 0 0.317647 0 0 0 1 0"/>
<feBlend mode="normal" in2="BackgroundImageFix" result="effect1_dropShadow_2933_2083"/>
<feBlend mode="normal" in="SourceGraphic" in2="effect1_dropShadow_2933_2083" result="shape"/>
</filter>
<filter id="filter19_d_2933_2083" x="218.372" y="370.654" width="45.723" height="45.723" filterUnits="userSpaceOnUse" color-interpolation-filters="sRGB">
<feFlood flood-opacity="0" result="BackgroundImageFix"/>
<feColorMatrix in="SourceAlpha" type="matrix" values="0 0 0 0 0 0 0 0 0 0 0 0 0 0 0 0 0 0 127 0" result="hardAlpha"/>
<feOffset dx="3.0218" dy="3.0218"/>
<feColorMatrix type="matrix" values="0 0 0 0 0.00784314 0 0 0 0 0.290196 0 0 0 0 0.317647 0 0 0 1 0"/>
<feBlend mode="normal" in2="BackgroundImageFix" result="effect1_dropShadow_2933_2083"/>
<feBlend mode="normal" in="SourceGraphic" in2="effect1_dropShadow_2933_2083" result="shape"/>
</filter>
</defs>
</svg>
