<svg width="751" height="87" viewBox="0 0 751 87" fill="none" xmlns="http://www.w3.org/2000/svg">
<g filter="url(#filter0_d_2933_2084)">
<circle cx="31.5173" cy="47.4939" r="21.0305" transform="rotate(-180 31.5173 47.4939)" fill="#FFD2F9"/>
<circle cx="31.5173" cy="47.4939" r="20.2452" transform="rotate(-180 31.5173 47.4939)" stroke="#024A51" stroke-width="1.57068"/>
</g>
<g filter="url(#filter1_d_2933_2084)">
<rect x="293.409" y="23.0085" width="34.6275" height="34.6275" transform="rotate(45 293.409 23.0085)" fill="#FFD2F9"/>
<rect x="293.409" y="24.1192" width="33.0568" height="33.0568" transform="rotate(45 293.409 24.1192)" stroke="#024A51" stroke-width="1.57068"/>
</g>
<g filter="url(#filter2_d_2933_2084)">
<rect x="140.869" y="39.4641" width="11.3555" height="11.3555" transform="rotate(45 140.869 39.4641)" fill="#EA6ED8"/>
<rect x="140.869" y="40.5748" width="9.78483" height="9.78483" transform="rotate(45 140.869 40.5748)" stroke="#024A51" stroke-width="1.57068"/>
</g>
<g filter="url(#filter3_d_2933_2084)">
<rect x="171.983" y="35.5874" width="73.8558" height="23.8133" fill="#E4F7F6"/>
<rect x="172.769" y="36.3727" width="72.2851" height="22.2426" stroke="#024A51" stroke-width="1.57068"/>
</g>
<g filter="url(#filter4_d_2933_2084)">
<path fill-rule="evenodd" clip-rule="evenodd" d="M99.8325 50.9795C101.91 46.9504 101.249 41.8893 97.8508 38.5164C93.6327 34.3298 86.7938 34.3298 82.5757 38.5164C78.3576 42.7031 78.3576 49.491 82.5757 53.6776C86.1872 57.2622 91.7199 57.7777 95.8839 55.2241L101.376 60.6751C102.025 61.3192 103.077 61.3192 103.726 60.6751L105.488 58.9257C106.137 58.2816 106.137 57.2373 105.488 56.5932L99.8325 50.9795ZM95.8914 40.4583C98.8117 43.3568 98.8117 48.8373 95.8914 51.7358C92.9712 54.6342 87.4553 54.6342 84.5351 51.7358C81.6148 48.8373 81.6148 43.3568 84.5351 40.4583C87.4553 37.5599 92.9712 37.5599 95.8914 40.4583Z" fill="#E4F7F6"/>
</g>
<g filter="url(#filter5_d_2933_2084)">
<circle cx="676.742" cy="47.4935" r="10.037" fill="#FFD2F9"/>
<circle cx="676.742" cy="47.4935" r="9.25161" stroke="#024A51" stroke-width="1.57068"/>
</g>
<g filter="url(#filter6_d_2933_2084)">
<rect x="619.134" y="71.9788" width="34.6275" height="34.6275" transform="rotate(-135 619.134 71.9788)" fill="#EA6ED8"/>
<rect x="619.134" y="70.8681" width="33.0568" height="33.0568" transform="rotate(-135 619.134 70.8681)" stroke="#024A51" stroke-width="1.57068"/>
</g>
<g filter="url(#filter7_d_2933_2084)">
<rect x="502.306" y="59.4001" width="73.8558" height="23.8133" transform="rotate(-180 502.306 59.4001)" fill="#EA6ED8"/>
<rect x="501.52" y="58.6148" width="72.2851" height="22.2426" transform="rotate(-180 501.52 58.6148)" stroke="#024A51" stroke-width="1.57068"/>
</g>
<line x1="560.028" y1="32.2619" x2="536.941" y2="55.3488" stroke="#024A51" stroke-width="1.57068"/>
<line x1="560.015" y1="55.3478" x2="536.928" y2="32.2609" stroke="#024A51" stroke-width="1.57068"/>
<g filter="url(#filter8_d_2933_2084)">
<mask id="path-18-outside-1_2933_2084" maskUnits="userSpaceOnUse" x="709.365" y="33.1418" width="32" height="32" fill="black">
<rect fill="white" x="709.365" y="33.1418" width="32" height="32"/>
<path fill-rule="evenodd" clip-rule="evenodd" d="M723.948 35.8358L726.306 40.1972L719.669 39.8275L734.84 54.9977L734.47 48.3581L738.831 50.7161L739.525 63.17L739.245 63.0188L739.398 63.3018L726.944 62.6081L724.586 58.2467L730.668 58.5855L716.082 43.9986L716.42 50.0817L712.059 47.7237L711.365 35.2698L711.645 35.4208L711.494 35.142L723.948 35.8358Z"/>
</mask>
<path fill-rule="evenodd" clip-rule="evenodd" d="M723.948 35.8358L726.306 40.1972L719.669 39.8275L734.84 54.9977L734.47 48.3581L738.831 50.7161L739.525 63.17L739.245 63.0188L739.398 63.3018L726.944 62.6081L724.586 58.2467L730.668 58.5855L716.082 43.9986L716.42 50.0817L712.059 47.7237L711.365 35.2698L711.645 35.4208L711.494 35.142L723.948 35.8358Z" fill="#E4F7F6"/>
<path d="M726.306 40.1972L726.219 41.7655C726.787 41.7971 727.327 41.5191 727.632 41.0387C727.937 40.5583 727.958 39.9507 727.688 39.4502L726.306 40.1972ZM723.948 35.8358L725.33 35.0888C725.07 34.6088 724.58 34.2979 724.035 34.2676L723.948 35.8358ZM719.669 39.8275L719.757 38.2592C719.106 38.223 718.501 38.5918 718.235 39.1863C717.97 39.7808 718.098 40.4777 718.559 40.9381L719.669 39.8275ZM734.84 54.9977L733.729 56.1083C734.189 56.5688 734.886 56.6974 735.481 56.4315C736.075 56.1657 736.444 55.5605 736.408 54.9103L734.84 54.9977ZM734.47 48.3581L735.217 46.9764C734.716 46.7059 734.109 46.7271 733.628 47.0319C733.148 47.3367 732.87 47.8774 732.901 48.4455L734.47 48.3581ZM738.831 50.7161L740.399 50.6287C740.369 50.0839 740.058 49.5939 739.578 49.3344L738.831 50.7161ZM739.525 63.17L738.778 64.5517C739.278 64.8223 739.886 64.8011 740.366 64.4963C740.847 64.1915 741.125 63.6507 741.093 63.0827L739.525 63.17ZM739.245 63.0188L739.992 61.6371C739.381 61.3067 738.626 61.417 738.134 61.9081C737.643 62.3993 737.533 63.1547 737.863 63.7658L739.245 63.0188ZM739.398 63.3018L739.311 64.8701C739.879 64.9017 740.419 64.6237 740.724 64.1433C741.029 63.663 741.05 63.0553 740.78 62.5548L739.398 63.3018ZM726.944 62.6081L725.562 63.3551C725.822 63.835 726.312 64.146 726.857 64.1763L726.944 62.6081ZM724.586 58.2467L724.673 56.6784C724.105 56.6468 723.565 56.9248 723.26 57.4052C722.955 57.8855 722.934 58.4932 723.204 58.9937L724.586 58.2467ZM730.668 58.5855L730.581 60.1537C731.231 60.19 731.836 59.8212 732.102 59.2267C732.368 58.6322 732.24 57.9353 731.779 57.4749L730.668 58.5855ZM716.082 43.9986L717.192 42.888C716.732 42.4275 716.035 42.299 715.44 42.5648C714.846 42.8307 714.477 43.4358 714.513 44.086L716.082 43.9986ZM716.42 50.0817L715.673 51.4634C716.174 51.734 716.782 51.7128 717.262 51.408C717.742 51.1032 718.02 50.5624 717.989 49.9944L716.42 50.0817ZM712.059 47.7237L710.491 47.8111C710.521 48.3559 710.832 48.8459 711.312 49.1054L712.059 47.7237ZM711.365 35.2698L712.112 33.8881C711.612 33.6175 711.004 33.6387 710.524 33.9435C710.043 34.2484 709.765 34.7891 709.797 35.3571L711.365 35.2698ZM711.645 35.4208L710.898 36.8025C711.509 37.1329 712.264 37.0226 712.755 36.5315C713.246 36.0403 713.357 35.2849 713.026 34.6738L711.645 35.4208ZM711.494 35.142L711.581 33.5738C711.013 33.5421 710.473 33.8201 710.168 34.3005C709.863 34.7809 709.842 35.3886 710.112 35.889L711.494 35.142ZM727.688 39.4502L725.33 35.0888L722.566 36.5828L724.924 40.9442L727.688 39.4502ZM719.582 41.3957L726.219 41.7655L726.393 38.629L719.757 38.2592L719.582 41.3957ZM735.95 53.887L720.78 38.7169L718.559 40.9381L733.729 56.1083L735.95 53.887ZM732.901 48.4455L733.271 55.085L736.408 54.9103L736.038 48.2707L732.901 48.4455ZM739.578 49.3344L735.217 46.9764L733.723 49.7398L738.084 52.0978L739.578 49.3344ZM741.093 63.0827L740.399 50.6287L737.263 50.8034L737.957 63.2574L741.093 63.0827ZM738.498 64.4004L738.778 64.5517L740.272 61.7884L739.992 61.6371L738.498 64.4004ZM740.78 62.5548L740.627 62.2718L737.863 63.7658L738.016 64.0488L740.78 62.5548ZM726.857 64.1763L739.311 64.8701L739.485 61.7336L727.031 61.0398L726.857 64.1763ZM723.204 58.9937L725.562 63.3551L728.326 61.8611L725.968 57.4997L723.204 58.9937ZM730.756 57.0172L724.673 56.6784L724.499 59.8149L730.581 60.1537L730.756 57.0172ZM714.971 45.1093L729.558 59.6961L731.779 57.4749L717.192 42.888L714.971 45.1093ZM717.989 49.9944L717.65 43.9113L714.513 44.086L714.852 50.1691L717.989 49.9944ZM711.312 49.1054L715.673 51.4634L717.167 48.7L712.806 46.3421L711.312 49.1054ZM709.797 35.3571L710.491 47.8111L713.627 47.6364L712.934 35.1824L709.797 35.3571ZM712.392 34.0392L712.112 33.8881L710.618 36.6515L710.898 36.8025L712.392 34.0392ZM710.112 35.889L710.263 36.1678L713.026 34.6738L712.876 34.395L710.112 35.889ZM724.035 34.2676L711.581 33.5738L711.407 36.7103L723.861 37.4041L724.035 34.2676Z" fill="#024A51" mask="url(#path-18-outside-1_2933_2084)"/>
</g>
<g filter="url(#filter9_d_2933_2084)">
<path d="M364.434 66.6157L340.98 14.6008L394.096 39.1425L384.591 48.073L403.694 66.7103L396.052 75.0836L375.74 55.7936L364.434 66.6157Z" fill="#E4F7F6"/>
<path d="M364.434 66.6157L340.98 14.6008L394.096 39.1425L384.591 48.073L403.694 66.7103L396.052 75.0836L375.74 55.7936L364.434 66.6157Z" stroke="#024A51" stroke-width="1.57068"/>
</g>
<defs>
<filter id="filter0_d_2933_2084" x="10.4863" y="26.4634" width="45.0833" height="45.0828" filterUnits="userSpaceOnUse" color-interpolation-filters="sRGB">
<feFlood flood-opacity="0" result="BackgroundImageFix"/>
<feColorMatrix in="SourceAlpha" type="matrix" values="0 0 0 0 0 0 0 0 0 0 0 0 0 0 0 0 0 0 127 0" result="hardAlpha"/>
<feOffset dx="3.0218" dy="3.0218"/>
<feColorMatrix type="matrix" values="0 0 0 0 0.00784314 0 0 0 0 0.290196 0 0 0 0 0.317647 0 0 0 1 0"/>
<feBlend mode="normal" in2="BackgroundImageFix" result="effect1_dropShadow_2933_2084"/>
<feBlend mode="normal" in="SourceGraphic" in2="effect1_dropShadow_2933_2084" result="shape"/>
</filter>
<filter id="filter1_d_2933_2084" x="268.924" y="23.0085" width="51.9925" height="51.9925" filterUnits="userSpaceOnUse" color-interpolation-filters="sRGB">
<feFlood flood-opacity="0" result="BackgroundImageFix"/>
<feColorMatrix in="SourceAlpha" type="matrix" values="0 0 0 0 0 0 0 0 0 0 0 0 0 0 0 0 0 0 127 0" result="hardAlpha"/>
<feOffset dx="3.0218" dy="3.0218"/>
<feColorMatrix type="matrix" values="0 0 0 0 0.00784314 0 0 0 0 0.290196 0 0 0 0 0.317647 0 0 0 1 0"/>
<feBlend mode="normal" in2="BackgroundImageFix" result="effect1_dropShadow_2933_2084"/>
<feBlend mode="normal" in="SourceGraphic" in2="effect1_dropShadow_2933_2084" result="shape"/>
</filter>
<filter id="filter2_d_2933_2084" x="132.84" y="39.4641" width="19.0804" height="19.0809" filterUnits="userSpaceOnUse" color-interpolation-filters="sRGB">
<feFlood flood-opacity="0" result="BackgroundImageFix"/>
<feColorMatrix in="SourceAlpha" type="matrix" values="0 0 0 0 0 0 0 0 0 0 0 0 0 0 0 0 0 0 127 0" result="hardAlpha"/>
<feOffset dx="3.0218" dy="3.0218"/>
<feColorMatrix type="matrix" values="0 0 0 0 0.00784314 0 0 0 0 0.290196 0 0 0 0 0.317647 0 0 0 1 0"/>
<feBlend mode="normal" in2="BackgroundImageFix" result="effect1_dropShadow_2933_2084"/>
<feBlend mode="normal" in="SourceGraphic" in2="effect1_dropShadow_2933_2084" result="shape"/>
</filter>
<filter id="filter3_d_2933_2084" x="171.983" y="35.5874" width="76.8773" height="26.835" filterUnits="userSpaceOnUse" color-interpolation-filters="sRGB">
<feFlood flood-opacity="0" result="BackgroundImageFix"/>
<feColorMatrix in="SourceAlpha" type="matrix" values="0 0 0 0 0 0 0 0 0 0 0 0 0 0 0 0 0 0 127 0" result="hardAlpha"/>
<feOffset dx="3.0218" dy="3.0218"/>
<feColorMatrix type="matrix" values="0 0 0 0 0.00784314 0 0 0 0 0.290196 0 0 0 0 0.317647 0 0 0 1 0"/>
<feBlend mode="normal" in2="BackgroundImageFix" result="effect1_dropShadow_2933_2084"/>
<feBlend mode="normal" in="SourceGraphic" in2="effect1_dropShadow_2933_2084" result="shape"/>
</filter>
<filter id="filter4_d_2933_2084" x="79.4121" y="35.3765" width="29.5843" height="28.8035" filterUnits="userSpaceOnUse" color-interpolation-filters="sRGB">
<feFlood flood-opacity="0" result="BackgroundImageFix"/>
<feColorMatrix in="SourceAlpha" type="matrix" values="0 0 0 0 0 0 0 0 0 0 0 0 0 0 0 0 0 0 127 0" result="hardAlpha"/>
<feOffset dx="3.0218" dy="3.0218"/>
<feColorMatrix type="matrix" values="0 0 0 0 0.00784314 0 0 0 0 0.290196 0 0 0 0 0.317647 0 0 0 1 0"/>
<feBlend mode="normal" in2="BackgroundImageFix" result="effect1_dropShadow_2933_2084"/>
<feBlend mode="normal" in="SourceGraphic" in2="effect1_dropShadow_2933_2084" result="shape"/>
</filter>
<filter id="filter5_d_2933_2084" x="666.705" y="37.4565" width="23.096" height="23.0958" filterUnits="userSpaceOnUse" color-interpolation-filters="sRGB">
<feFlood flood-opacity="0" result="BackgroundImageFix"/>
<feColorMatrix in="SourceAlpha" type="matrix" values="0 0 0 0 0 0 0 0 0 0 0 0 0 0 0 0 0 0 127 0" result="hardAlpha"/>
<feOffset dx="3.0218" dy="3.0218"/>
<feColorMatrix type="matrix" values="0 0 0 0 0.00784314 0 0 0 0 0.290196 0 0 0 0 0.317647 0 0 0 1 0"/>
<feBlend mode="normal" in2="BackgroundImageFix" result="effect1_dropShadow_2933_2084"/>
<feBlend mode="normal" in="SourceGraphic" in2="effect1_dropShadow_2933_2084" result="shape"/>
</filter>
<filter id="filter6_d_2933_2084" x="594.648" y="23.0081" width="51.9925" height="51.9925" filterUnits="userSpaceOnUse" color-interpolation-filters="sRGB">
<feFlood flood-opacity="0" result="BackgroundImageFix"/>
<feColorMatrix in="SourceAlpha" type="matrix" values="0 0 0 0 0 0 0 0 0 0 0 0 0 0 0 0 0 0 127 0" result="hardAlpha"/>
<feOffset dx="3.0218" dy="3.0218"/>
<feColorMatrix type="matrix" values="0 0 0 0 0.00784314 0 0 0 0 0.290196 0 0 0 0 0.317647 0 0 0 1 0"/>
<feBlend mode="normal" in2="BackgroundImageFix" result="effect1_dropShadow_2933_2084"/>
<feBlend mode="normal" in="SourceGraphic" in2="effect1_dropShadow_2933_2084" result="shape"/>
</filter>
<filter id="filter7_d_2933_2084" x="428.45" y="35.5869" width="76.8773" height="26.835" filterUnits="userSpaceOnUse" color-interpolation-filters="sRGB">
<feFlood flood-opacity="0" result="BackgroundImageFix"/>
<feColorMatrix in="SourceAlpha" type="matrix" values="0 0 0 0 0 0 0 0 0 0 0 0 0 0 0 0 0 0 127 0" result="hardAlpha"/>
<feOffset dx="3.0218" dy="3.0218"/>
<feColorMatrix type="matrix" values="0 0 0 0 0.00784314 0 0 0 0 0.290196 0 0 0 0 0.317647 0 0 0 1 0"/>
<feBlend mode="normal" in2="BackgroundImageFix" result="effect1_dropShadow_2933_2084"/>
<feBlend mode="normal" in="SourceGraphic" in2="effect1_dropShadow_2933_2084" result="shape"/>
</filter>
<filter id="filter8_d_2933_2084" x="709.795" y="33.5713" width="34.3226" height="34.3231" filterUnits="userSpaceOnUse" color-interpolation-filters="sRGB">
<feFlood flood-opacity="0" result="BackgroundImageFix"/>
<feColorMatrix in="SourceAlpha" type="matrix" values="0 0 0 0 0 0 0 0 0 0 0 0 0 0 0 0 0 0 127 0" result="hardAlpha"/>
<feOffset dx="3.0218" dy="3.0218"/>
<feColorMatrix type="matrix" values="0 0 0 0 0.00784314 0 0 0 0 0.290196 0 0 0 0 0.317647 0 0 0 1 0"/>
<feBlend mode="normal" in2="BackgroundImageFix" result="effect1_dropShadow_2933_2084"/>
<feBlend mode="normal" in="SourceGraphic" in2="effect1_dropShadow_2933_2084" result="shape"/>
</filter>
<filter id="filter9_d_2933_2084" x="339.399" y="13.0054" width="68.4085" height="66.2213" filterUnits="userSpaceOnUse" color-interpolation-filters="sRGB">
<feFlood flood-opacity="0" result="BackgroundImageFix"/>
<feColorMatrix in="SourceAlpha" type="matrix" values="0 0 0 0 0 0 0 0 0 0 0 0 0 0 0 0 0 0 127 0" result="hardAlpha"/>
<feOffset dx="3.0218" dy="3.0218"/>
<feColorMatrix type="matrix" values="0 0 0 0 0.00784314 0 0 0 0 0.290196 0 0 0 0 0.317647 0 0 0 1 0"/>
<feBlend mode="normal" in2="BackgroundImageFix" result="effect1_dropShadow_2933_2084"/>
<feBlend mode="normal" in="SourceGraphic" in2="effect1_dropShadow_2933_2084" result="shape"/>
</filter>
</defs>
</svg>
