<svg width="800" height="450" viewBox="0 0 800 450" fill="none" xmlns="http://www.w3.org/2000/svg">
<rect width="800" height="450" fill="#1A7C83"/>
<path d="M217 191.295C217 206.728 227.644 216.254 241.709 216.254C255.775 216.254 266.419 206.728 266.419 191.295C266.419 175.863 255.775 166.337 241.709 166.337C227.644 166.337 217 175.863 217 191.295ZM228.974 191.295C228.974 182.15 234.296 176.816 241.709 176.816C249.122 176.816 254.444 182.15 254.444 191.295C254.444 200.441 249.122 205.775 241.709 205.775C234.296 205.775 228.974 200.441 228.974 191.295Z" fill="white"/>
<path d="M274.237 233.973H286.211V208.824H287.162C289.823 212.634 294.384 216.254 302.557 216.254C313.771 216.254 323.845 206.728 323.845 191.295C323.845 175.863 313.771 166.337 302.557 166.337C294.384 166.337 289.823 169.957 286.971 174.053H286.021V167.67H274.237V233.973ZM298.946 205.966C291.533 205.966 286.021 200.631 286.021 191.295C286.021 181.96 291.533 176.625 298.946 176.625C306.359 176.625 311.871 181.96 311.871 191.295C311.871 200.631 306.359 205.966 298.946 205.966Z" fill="white"/>
<path d="M326.186 177.387H337.971V204.251C337.971 210.729 342.152 214.92 348.425 214.92H361.73V205.204H352.606C350.896 205.204 349.945 204.251 349.945 202.346V177.387H362.87V167.67H349.945V153H337.971V167.67H326.186V177.387Z" fill="white"/>
<path d="M401.143 248.416V295.666H413.118V267.469C413.118 260.991 416.159 257.371 421.671 257.371C426.423 257.371 429.274 260.038 429.274 265.182V295.666H441.249V267.469C441.249 260.991 444.29 257.371 449.802 257.371C454.553 257.371 457.405 260.038 457.405 265.182V295.666H469.379V264.611C469.379 253.179 462.346 247.654 453.603 247.654C445.905 247.654 442.389 251.084 440.108 255.085H439.158C436.972 250.607 433.075 247.654 426.233 247.654C419.39 247.654 415.684 250.703 413.878 254.323H412.928V248.416H401.143Z" fill="white"/>
<path d="M478.903 260.419L489.928 264.135C490.783 259.848 493.634 256.609 499.621 256.609C505.703 256.609 508.364 260.038 508.364 264.42V267.088H495.44C484.796 267.088 477.193 272.137 477.193 281.853C477.193 291.57 484.796 297 494.489 297C503.233 297 506.369 292.237 507.224 290.141H508.554V295.666H519.959V265.278C519.959 253.465 512.166 247.083 499.811 247.083C487.552 247.083 481.184 253.275 478.903 260.419ZM489.167 281.568C489.167 278.329 491.828 276.042 496.295 276.042H508.364V276.804C508.364 283.092 503.613 287.283 496.96 287.283C491.828 287.283 489.167 284.902 489.167 281.568Z" fill="white"/>
<path d="M217.244 248.489H362.061V295.666H217.244V248.489Z" fill="white"/>
<path d="M378.352 167.743H582V214.92H378.352V167.743Z" fill="white"/>
<path d="M534.935 248.489H582V295.666H534.935V248.489Z" fill="white"/>
<path d="M378.352 248.489H390.119V295.666H378.352V248.489Z" fill="white"/>
<path d="M378.352 230.344H390.119V242.138H378.352V230.344Z" fill="white"/>
</svg>
