<svg width="310" height="298" viewBox="0 0 310 298" fill="none" xmlns="http://www.w3.org/2000/svg">
<circle cx="45.9818" cy="46.2684" r="45.7916" transform="rotate(90 45.9818 46.2684)" fill="url(#paint0_radial_4908_2847)"/>
<mask id="mask0_4908_2847" style="mask-type:alpha" maskUnits="userSpaceOnUse" x="0" y="0" width="92" height="93">
<circle cx="45.9808" cy="46.2685" r="45.9802" transform="rotate(90 45.9808 46.2685)" fill="url(#paint1_radial_4908_2847)"/>
</mask>
<g mask="url(#mask0_4908_2847)">
<path fill-rule="evenodd" clip-rule="evenodd" d="M54.176 63.7714L54.176 63.7703C62.1742 63.3186 64.754 60.0899 65.0441 58.5319L57.7271 22.1372C50.8096 18.4699 32.4419 16.6057 28.3463 33.3644C25.9895 43.008 31.0471 49.0598 34.5911 53.3006C35.8327 54.7862 36.8885 56.0495 37.3748 57.1672L33.6634 77.1558L30.3904 97.6452L59.8692 98.417L65.0441 91.8561L55.0128 76.1122L54.2438 64.771L50.8291 63.7714H54.176Z" fill="url(#paint2_linear_4908_2847)"/>
<path fill-rule="evenodd" clip-rule="evenodd" d="M61.0332 11.0652L65.8089 29.8694L53.6233 32.9641L51.8975 26.1686L37.5156 29.5982L41.8046 49.156L26.5163 74.8583L15.7109 68.4311L28.4601 46.9975L22.5905 20.2323L61.0332 11.0652Z" fill="url(#paint3_linear_4908_2847)"/>
</g>
<circle cx="45.7916" cy="45.7916" r="45.7916" transform="matrix(4.44093e-08 1 1 -4.44093e-08 110.078 103.118)" fill="url(#paint4_radial_4908_2847)"/>
<mask id="mask1_4908_2847" style="mask-type:alpha" maskUnits="userSpaceOnUse" x="109" y="102" width="93" height="93">
<circle cx="45.9802" cy="45.9802" r="45.9802" transform="matrix(4.44093e-08 1 1 -4.44093e-08 109.891 102.929)" fill="url(#paint5_radial_4908_2847)"/>
</mask>
<g mask="url(#mask1_4908_2847)">
<path fill-rule="evenodd" clip-rule="evenodd" d="M147.676 166.413L147.676 166.411C139.677 165.96 137.098 162.731 136.807 161.173L144.125 124.778C151.042 121.111 169.41 119.247 173.505 136.006C175.862 145.649 170.804 151.701 167.26 155.942C166.019 157.427 164.963 158.691 164.477 159.808L168.188 179.797L171.461 200.286L141.982 201.058L136.807 194.497L146.839 178.753L147.608 167.412L151.022 166.413H147.676Z" fill="url(#paint6_linear_4908_2847)"/>
<path fill-rule="evenodd" clip-rule="evenodd" d="M137.157 106.943L147.132 135.866L160.127 132.541V146.927L184.52 141.681L181.869 129.263L172.779 131.218V116.199L155.282 120.675L149.113 102.789L137.157 106.943Z" fill="url(#paint7_linear_4908_2847)"/>
</g>
<circle cx="263.939" cy="251.551" r="45.7916" transform="rotate(90 263.939 251.551)" fill="url(#paint8_radial_4908_2847)"/>
<mask id="mask2_4908_2847" style="mask-type:alpha" maskUnits="userSpaceOnUse" x="217" y="205" width="93" height="93">
<circle cx="263.942" cy="251.551" r="45.9802" transform="rotate(90 263.942 251.551)" fill="url(#paint9_radial_4908_2847)"/>
</mask>
<g mask="url(#mask2_4908_2847)">
<path fill-rule="evenodd" clip-rule="evenodd" d="M272.137 269.054L272.137 269.053C280.135 268.601 282.715 265.372 283.005 263.814L275.688 227.419C268.771 223.752 250.403 221.888 246.307 238.647C243.95 248.29 249.008 254.342 252.552 258.583C253.794 260.068 254.849 261.332 255.336 262.449L251.624 282.438L248.351 302.927L277.83 303.699L283.005 297.138L272.974 281.394L272.205 270.053L268.79 269.054H272.137Z" fill="url(#paint10_linear_4908_2847)"/>
<path d="M251.967 256.869L235.188 244.883L248.703 213.993H288.883L280.733 253.033L275.522 228.62L251.967 256.869Z" fill="url(#paint11_linear_4908_2847)"/>
</g>
<circle cx="154.13" cy="46.2684" r="45.7916" transform="rotate(90 154.13 46.2684)" fill="url(#paint12_radial_4908_2847)"/>
<mask id="mask3_4908_2847" style="mask-type:alpha" maskUnits="userSpaceOnUse" x="108" y="0" width="93" height="93">
<circle cx="154.129" cy="46.2685" r="45.9802" transform="rotate(90 154.129 46.2685)" fill="url(#paint13_radial_4908_2847)"/>
</mask>
<g mask="url(#mask3_4908_2847)">
<path fill-rule="evenodd" clip-rule="evenodd" d="M162.324 63.7714L162.324 63.7703C170.323 63.3186 172.902 60.0899 173.193 58.5319L165.875 22.1372C158.958 18.4699 140.59 16.6057 136.495 33.3644C134.138 43.008 139.196 49.0598 142.74 53.3006C143.981 54.7862 145.037 56.0495 145.523 57.1672L141.812 77.1558L138.539 97.6452L168.018 98.417L173.193 91.8561L163.161 76.1122L162.392 64.771L158.978 63.7714H162.324Z" fill="url(#paint14_linear_4908_2847)"/>
<path fill-rule="evenodd" clip-rule="evenodd" d="M173.937 11.0691L166.83 25.0554L155.559 19.2855L162.666 5.2992L173.937 11.0691Z" fill="url(#paint15_linear_4908_2847)"/>
<path fill-rule="evenodd" clip-rule="evenodd" d="M146.025 5.30955L153.217 19.2521L141.981 25.0909L134.789 11.1484L146.025 5.30955Z" fill="url(#paint16_linear_4908_2847)"/>
<path fill-rule="evenodd" clip-rule="evenodd" d="M124.933 24.1L140.389 26.5164L138.442 39.0643L122.986 36.6479L124.933 24.1Z" fill="url(#paint17_linear_4908_2847)"/>
</g>
<circle cx="45.7916" cy="45.7916" r="45.7916" transform="matrix(4.44093e-08 1 1 -4.44093e-08 218.129 103.118)" fill="url(#paint18_radial_4908_2847)"/>
<mask id="mask4_4908_2847" style="mask-type:alpha" maskUnits="userSpaceOnUse" x="217" y="102" width="93" height="93">
<circle cx="45.9802" cy="45.9802" r="45.9802" transform="matrix(4.44093e-08 1 1 -4.44093e-08 217.941 102.929)" fill="url(#paint19_radial_4908_2847)"/>
</mask>
<g mask="url(#mask4_4908_2847)">
<path fill-rule="evenodd" clip-rule="evenodd" d="M255.726 166.413L255.726 166.411C247.728 165.96 245.148 162.731 244.858 161.173L252.175 124.778C259.093 121.111 277.46 119.247 281.556 136.006C283.913 145.649 278.855 151.701 275.311 155.942C274.07 157.427 273.014 158.691 272.528 159.808L276.239 179.797L279.512 200.286L250.033 201.058L244.858 194.497L254.89 178.753L255.659 167.412L259.073 166.413H255.726Z" fill="url(#paint20_linear_4908_2847)"/>
<path d="M275.896 154.228L292.676 142.242L279.161 111.352H238.98L247.13 150.392L252.341 125.979L275.896 154.228Z" fill="url(#paint21_linear_4908_2847)"/>
</g>
<circle cx="45.9779" cy="251.551" r="45.7916" transform="rotate(90 45.9779 251.551)" fill="url(#paint22_radial_4908_2847)"/>
<mask id="mask5_4908_2847" style="mask-type:alpha" maskUnits="userSpaceOnUse" x="0" y="205" width="92" height="93">
<circle cx="45.9808" cy="251.55" r="45.9802" transform="rotate(90 45.9808 251.55)" fill="url(#paint23_radial_4908_2847)"/>
</mask>
<g mask="url(#mask5_4908_2847)">
<path fill-rule="evenodd" clip-rule="evenodd" d="M54.176 269.053L54.176 269.052C62.1742 268.601 64.754 265.372 65.0441 263.814L57.7271 227.419C50.8096 223.752 32.4419 221.888 28.3463 238.646C25.9895 248.29 31.0471 254.342 34.5911 258.583C35.8327 260.068 36.8885 261.332 37.3748 262.449L33.6634 282.438L30.3904 302.927L59.8692 303.699L65.0441 297.138L55.0128 281.394L54.2438 270.053L50.8291 269.053H54.176Z" fill="url(#paint24_linear_4908_2847)"/>
<path fill-rule="evenodd" clip-rule="evenodd" d="M64.6942 209.584L54.7197 238.507L41.7246 235.182V249.568L17.332 244.322L19.983 231.904L29.0724 233.859V218.84L46.5697 223.317L52.7381 205.43L64.6942 209.584Z" fill="url(#paint25_linear_4908_2847)"/>
</g>
<circle cx="264.021" cy="46.2684" r="45.7916" transform="rotate(90 264.021 46.2684)" fill="url(#paint26_radial_4908_2847)"/>
<mask id="mask6_4908_2847" style="mask-type:alpha" maskUnits="userSpaceOnUse" x="218" y="0" width="93" height="93">
<circle cx="264.028" cy="46.2685" r="45.9802" transform="rotate(90 264.028 46.2685)" fill="url(#paint27_radial_4908_2847)"/>
</mask>
<g mask="url(#mask6_4908_2847)">
<path fill-rule="evenodd" clip-rule="evenodd" d="M272.223 63.7713L272.223 63.7704C280.221 63.3186 282.801 60.0899 283.091 58.5319L275.774 22.1372C268.856 18.4699 250.489 16.6057 246.393 33.3644C244.036 43.008 249.094 49.0598 252.638 53.3006C253.88 54.7862 254.935 56.0495 255.422 57.1672L251.71 77.1558L248.437 97.6452L277.916 98.417L283.091 91.8561L273.06 76.1122L272.291 64.7712L268.875 63.7713H272.223Z" fill="url(#paint28_linear_4908_2847)"/>
<path fill-rule="evenodd" clip-rule="evenodd" d="M272.844 54.571L270.967 46.7404L283.268 43.7693L289.547 69.96L251.619 64.1825L253.518 51.627L272.844 54.571Z" fill="url(#paint29_linear_4908_2847)"/>
</g>
<circle cx="45.7916" cy="45.7916" r="45.7916" transform="matrix(4.44093e-08 1 1 -4.44093e-08 0.191406 103.118)" fill="url(#paint30_radial_4908_2847)"/>
<mask id="mask7_4908_2847" style="mask-type:alpha" maskUnits="userSpaceOnUse" x="-1" y="102" width="93" height="93">
<circle cx="45.9802" cy="45.9802" r="45.9802" transform="matrix(4.44093e-08 1 1 -4.44093e-08 -0.00390625 102.929)" fill="url(#paint31_radial_4908_2847)"/>
</mask>
<g mask="url(#mask7_4908_2847)">
<path fill-rule="evenodd" clip-rule="evenodd" d="M37.781 166.412L37.7811 166.411C29.7828 165.96 27.2031 162.731 26.913 161.173L34.23 124.778C41.1475 121.111 59.5151 119.247 63.6107 136.006C65.9675 145.649 60.91 151.701 57.3659 155.942C56.1244 157.427 55.0685 158.691 54.5823 159.808L58.2936 179.797L61.5667 200.286L32.0879 201.058L26.913 194.497L36.9442 178.753L37.7132 167.412L41.1288 166.412H37.781Z" fill="url(#paint32_linear_4908_2847)"/>
<path fill-rule="evenodd" clip-rule="evenodd" d="M43.0981 161.54L39.04 149.382L26.739 146.41L23.8516 157.125L43.0981 161.54Z" fill="url(#paint33_linear_4908_2847)"/>
<path d="M57.8621 154.746L63.4205 149.818L71.0233 125.971L44.414 113.252L40.2959 125.971L50.4329 124.064L57.8621 154.746Z" fill="url(#paint34_linear_4908_2847)"/>
</g>
<circle cx="154.029" cy="251.551" r="45.7916" transform="rotate(90 154.029 251.551)" fill="url(#paint35_radial_4908_2847)"/>
<mask id="mask8_4908_2847" style="mask-type:alpha" maskUnits="userSpaceOnUse" x="108" y="205" width="93" height="93">
<circle cx="154.032" cy="251.551" r="45.9802" transform="rotate(90 154.032 251.551)" fill="url(#paint36_radial_4908_2847)"/>
</mask>
<g mask="url(#mask8_4908_2847)">
<path fill-rule="evenodd" clip-rule="evenodd" d="M162.465 269.054L162.465 269.053C170.463 268.601 173.043 265.372 173.333 263.814L166.016 227.419C159.099 223.752 140.731 221.888 136.635 238.647C134.279 248.29 139.336 254.342 142.88 258.583C144.122 260.068 145.178 261.332 145.664 262.449L141.952 282.438L138.679 302.927L168.158 303.699L173.333 297.138L163.302 281.394L162.533 270.053L159.118 269.054H162.465Z" fill="url(#paint37_linear_4908_2847)"/>
<path fill-rule="evenodd" clip-rule="evenodd" d="M169.322 216.347L174.098 235.152L161.912 238.246L160.187 231.451L145.805 234.88L150.094 254.438L134.805 280.141L124 273.713L136.749 252.28L130.88 225.514L169.322 216.347Z" fill="url(#paint38_linear_4908_2847)"/>
</g>
<defs>
<radialGradient id="paint0_radial_4908_2847" cx="0" cy="0" r="1" gradientUnits="userSpaceOnUse" gradientTransform="translate(29.952 22.8736) rotate(70.8359) scale(73.2455)">
<stop stop-color="#25AAE1"/>
<stop offset="1" stop-color="#00709E"/>
</radialGradient>
<radialGradient id="paint1_radial_4908_2847" cx="0" cy="0" r="1" gradientUnits="userSpaceOnUse" gradientTransform="translate(29.885 22.7774) rotate(70.8359) scale(73.5471)">
<stop stop-color="#B7E7FB"/>
<stop offset="1" stop-color="#27ABE2"/>
</radialGradient>
<linearGradient id="paint2_linear_4908_2847" x1="46.3932" y1="19.6589" x2="46.3932" y2="98.417" gradientUnits="userSpaceOnUse">
<stop stop-color="#B8E7FB"/>
<stop offset="1" stop-color="#7BD5FA"/>
</linearGradient>
<linearGradient id="paint3_linear_4908_2847" x1="15.7109" y1="74.8583" x2="68.5856" y2="72.4673" gradientUnits="userSpaceOnUse">
<stop stop-color="#F1E83B"/>
<stop offset="1" stop-color="#FEFCE8"/>
</linearGradient>
<radialGradient id="paint4_radial_4908_2847" cx="0" cy="0" r="1" gradientUnits="userSpaceOnUse" gradientTransform="translate(29.7618 22.3968) rotate(70.8359) scale(73.2455)">
<stop stop-color="#25AAE1"/>
<stop offset="1" stop-color="#00709E"/>
</radialGradient>
<radialGradient id="paint5_radial_4908_2847" cx="0" cy="0" r="1" gradientUnits="userSpaceOnUse" gradientTransform="translate(29.8844 22.4891) rotate(70.8359) scale(73.5471)">
<stop stop-color="#B7E7FB"/>
<stop offset="1" stop-color="#27ABE2"/>
</radialGradient>
<linearGradient id="paint6_linear_4908_2847" x1="155.458" y1="122.3" x2="155.458" y2="201.058" gradientUnits="userSpaceOnUse">
<stop stop-color="#B8E7FB"/>
<stop offset="1" stop-color="#7BD5FA"/>
</linearGradient>
<linearGradient id="paint7_linear_4908_2847" x1="184.52" y1="146.927" x2="134.621" y2="143.844" gradientUnits="userSpaceOnUse">
<stop stop-color="#F1E83B"/>
<stop offset="1" stop-color="#FEFCE8"/>
</linearGradient>
<radialGradient id="paint8_radial_4908_2847" cx="0" cy="0" r="1" gradientUnits="userSpaceOnUse" gradientTransform="translate(247.909 228.156) rotate(70.8359) scale(73.2455)">
<stop stop-color="#25AAE1"/>
<stop offset="1" stop-color="#00709E"/>
</radialGradient>
<radialGradient id="paint9_radial_4908_2847" cx="0" cy="0" r="1" gradientUnits="userSpaceOnUse" gradientTransform="translate(247.846 228.06) rotate(70.8359) scale(73.5471)">
<stop stop-color="#B7E7FB"/>
<stop offset="1" stop-color="#27ABE2"/>
</radialGradient>
<linearGradient id="paint10_linear_4908_2847" x1="264.354" y1="224.941" x2="264.354" y2="303.699" gradientUnits="userSpaceOnUse">
<stop stop-color="#B8E7FB"/>
<stop offset="1" stop-color="#7BD5FA"/>
</linearGradient>
<linearGradient id="paint11_linear_4908_2847" x1="235.188" y1="256.869" x2="291.681" y2="252.795" gradientUnits="userSpaceOnUse">
<stop stop-color="#F1E83B"/>
<stop offset="1" stop-color="#FEFCE8"/>
</linearGradient>
<radialGradient id="paint12_radial_4908_2847" cx="0" cy="0" r="1" gradientUnits="userSpaceOnUse" gradientTransform="translate(138.1 22.8736) rotate(70.8359) scale(73.2455)">
<stop stop-color="#B7E7FB"/>
<stop offset="1" stop-color="#27ABE2"/>
</radialGradient>
<radialGradient id="paint13_radial_4908_2847" cx="0" cy="0" r="1" gradientUnits="userSpaceOnUse" gradientTransform="translate(138.033 22.7774) rotate(70.8359) scale(73.5471)">
<stop stop-color="#FCFAC1"/>
<stop offset="1" stop-color="#F1E83B"/>
</radialGradient>
<linearGradient id="paint14_linear_4908_2847" x1="154.542" y1="19.6589" x2="154.542" y2="98.417" gradientUnits="userSpaceOnUse">
<stop stop-color="#B8E7FB"/>
<stop offset="1" stop-color="#7BD5FA"/>
</linearGradient>
<linearGradient id="paint15_linear_4908_2847" x1="157.429" y1="27.2725" x2="177.453" y2="21.3778" gradientUnits="userSpaceOnUse">
<stop stop-color="#008AC2"/>
<stop offset="1" stop-color="#035C81"/>
</linearGradient>
<linearGradient id="paint16_linear_4908_2847" x1="149.54" y1="28.2149" x2="156.428" y2="8.44359" gradientUnits="userSpaceOnUse">
<stop stop-color="#008AC2"/>
<stop offset="1" stop-color="#035C81"/>
</linearGradient>
<linearGradient id="paint17_linear_4908_2847" x1="145.419" y1="34.7905" x2="133.501" y2="17.5974" gradientUnits="userSpaceOnUse">
<stop stop-color="#008AC2"/>
<stop offset="1" stop-color="#035C81"/>
</linearGradient>
<radialGradient id="paint18_radial_4908_2847" cx="0" cy="0" r="1" gradientUnits="userSpaceOnUse" gradientTransform="translate(29.7618 22.3968) rotate(70.8359) scale(73.2455)">
<stop stop-color="#B7E7FB"/>
<stop offset="1" stop-color="#27ABE2"/>
</radialGradient>
<radialGradient id="paint19_radial_4908_2847" cx="0" cy="0" r="1" gradientUnits="userSpaceOnUse" gradientTransform="translate(29.8844 22.4891) rotate(70.8359) scale(73.5471)">
<stop stop-color="#FCFAC1"/>
<stop offset="1" stop-color="#F1E83B"/>
</radialGradient>
<linearGradient id="paint20_linear_4908_2847" x1="263.509" y1="122.3" x2="263.509" y2="201.058" gradientUnits="userSpaceOnUse">
<stop stop-color="#B8E7FB"/>
<stop offset="1" stop-color="#7BD5FA"/>
</linearGradient>
<linearGradient id="paint21_linear_4908_2847" x1="292.676" y1="154.228" x2="236.182" y2="150.154" gradientUnits="userSpaceOnUse">
<stop stop-color="#008AC2"/>
<stop offset="1" stop-color="#035C81"/>
</linearGradient>
<radialGradient id="paint22_radial_4908_2847" cx="0" cy="0" r="1" gradientUnits="userSpaceOnUse" gradientTransform="translate(29.9481 228.156) rotate(70.8359) scale(73.2455)">
<stop stop-color="#B7E7FB"/>
<stop offset="1" stop-color="#27ABE2"/>
</radialGradient>
<radialGradient id="paint23_radial_4908_2847" cx="0" cy="0" r="1" gradientUnits="userSpaceOnUse" gradientTransform="translate(29.885 228.059) rotate(70.8359) scale(73.5471)">
<stop stop-color="#FCFAC1"/>
<stop offset="1" stop-color="#F1E83B"/>
</radialGradient>
<linearGradient id="paint24_linear_4908_2847" x1="46.3932" y1="224.941" x2="46.3932" y2="303.699" gradientUnits="userSpaceOnUse">
<stop stop-color="#B8E7FB"/>
<stop offset="1" stop-color="#7BD5FA"/>
</linearGradient>
<linearGradient id="paint25_linear_4908_2847" x1="17.332" y1="249.568" x2="67.231" y2="246.485" gradientUnits="userSpaceOnUse">
<stop stop-color="#008AC2"/>
<stop offset="1" stop-color="#035C81"/>
</linearGradient>
<radialGradient id="paint26_radial_4908_2847" cx="0" cy="0" r="1" gradientUnits="userSpaceOnUse" gradientTransform="translate(247.991 22.8736) rotate(70.8359) scale(73.2455)">
<stop stop-color="#FCFAC1"/>
<stop offset="1" stop-color="#F1E83B"/>
</radialGradient>
<radialGradient id="paint27_radial_4908_2847" cx="0" cy="0" r="1" gradientUnits="userSpaceOnUse" gradientTransform="translate(247.932 22.7774) rotate(70.8359) scale(73.5471)">
<stop stop-color="#FCFAC1"/>
<stop offset="1" stop-color="#F1E83B"/>
</radialGradient>
<linearGradient id="paint28_linear_4908_2847" x1="264.44" y1="19.6589" x2="264.44" y2="98.417" gradientUnits="userSpaceOnUse">
<stop stop-color="#7BD5FA"/>
<stop offset="1" stop-color="#008AC2"/>
</linearGradient>
<linearGradient id="paint29_linear_4908_2847" x1="289.547" y1="69.96" x2="249.712" y2="66.6382" gradientUnits="userSpaceOnUse">
<stop stop-color="#008AC2"/>
<stop offset="1" stop-color="#035C81"/>
</linearGradient>
<radialGradient id="paint30_radial_4908_2847" cx="0" cy="0" r="1" gradientUnits="userSpaceOnUse" gradientTransform="translate(29.7618 22.3968) rotate(70.8359) scale(73.2455)">
<stop stop-color="#FCFAC1"/>
<stop offset="1" stop-color="#F1E83B"/>
</radialGradient>
<radialGradient id="paint31_radial_4908_2847" cx="0" cy="0" r="1" gradientUnits="userSpaceOnUse" gradientTransform="translate(29.8844 22.4891) rotate(70.8359) scale(73.5471)">
<stop stop-color="#FCFAC1"/>
<stop offset="1" stop-color="#F1E83B"/>
</radialGradient>
<linearGradient id="paint32_linear_4908_2847" x1="45.5639" y1="122.3" x2="45.5639" y2="201.058" gradientUnits="userSpaceOnUse">
<stop stop-color="#7BD5FA"/>
<stop offset="1" stop-color="#008AC2"/>
</linearGradient>
<linearGradient id="paint33_linear_4908_2847" x1="23.8516" y1="161.54" x2="44.0978" y2="160.057" gradientUnits="userSpaceOnUse">
<stop stop-color="#008AC2"/>
<stop offset="1" stop-color="#035C81"/>
</linearGradient>
<linearGradient id="paint34_linear_4908_2847" x1="71.0234" y1="154.746" x2="38.5855" y2="153.363" gradientUnits="userSpaceOnUse">
<stop stop-color="#008AC2"/>
<stop offset="1" stop-color="#035C81"/>
</linearGradient>
<radialGradient id="paint35_radial_4908_2847" cx="0" cy="0" r="1" gradientUnits="userSpaceOnUse" gradientTransform="translate(137.999 228.156) rotate(70.8359) scale(73.2455)">
<stop stop-color="#FCFAC1"/>
<stop offset="1" stop-color="#F1E83B"/>
</radialGradient>
<radialGradient id="paint36_radial_4908_2847" cx="0" cy="0" r="1" gradientUnits="userSpaceOnUse" gradientTransform="translate(137.936 228.06) rotate(70.8359) scale(73.5471)">
<stop stop-color="#FCFAC1"/>
<stop offset="1" stop-color="#F1E83B"/>
</radialGradient>
<linearGradient id="paint37_linear_4908_2847" x1="154.682" y1="224.941" x2="154.682" y2="303.699" gradientUnits="userSpaceOnUse">
<stop stop-color="#7BD5FA"/>
<stop offset="1" stop-color="#008AC2"/>
</linearGradient>
<linearGradient id="paint38_linear_4908_2847" x1="124" y1="280.141" x2="176.875" y2="277.749" gradientUnits="userSpaceOnUse">
<stop stop-color="#008AC2"/>
<stop offset="1" stop-color="#035C81"/>
</linearGradient>
</defs>
</svg>
