<svg width="741" height="138" viewBox="0 0 741 138" fill="none" xmlns="http://www.w3.org/2000/svg">
<rect x="388.424" y="36.4365" width="33.1585" height="32.8478" transform="rotate(90 388.424 36.4365)" fill="#25AAE1"/>
<rect x="355.576" y="36.4365" width="33.1585" height="32.8478" transform="rotate(90 355.576 36.4365)" fill="#A3E7FF"/>
<rect x="322.728" y="36.4365" width="33.1585" height="32.8478" transform="rotate(90 322.728 36.4365)" fill="#6FCFF7"/>
<rect x="289.88" y="36.4365" width="33.1585" height="32.8478" transform="rotate(90 289.88 36.4365)" fill="#25AAE1"/>
<rect x="257.033" y="36.4365" width="33.1585" height="32.8478" transform="rotate(90 257.033 36.4365)" fill="#A3E7FF"/>
<rect x="224.185" y="36.4365" width="33.1585" height="32.8478" transform="rotate(90 224.185 36.4365)" fill="#6FCFF7"/>
<rect x="191.337" y="36.4365" width="33.1585" height="32.8478" transform="rotate(90 191.337 36.4365)" fill="#A3E7FF"/>
<rect x="158.488" y="36.4365" width="33.1585" height="32.8478" transform="rotate(90 158.488 36.4365)" fill="#25AAE1"/>
<rect x="125.642" y="36.4365" width="33.1585" height="32.8478" transform="rotate(90 125.642 36.4365)" fill="#A3E7FF"/>
<rect x="388.424" y="102.753" width="33.1585" height="32.8478" transform="rotate(90 388.424 102.753)" fill="#D9F5FF"/>
<rect x="322.728" y="102.753" width="33.1585" height="32.8478" transform="rotate(90 322.728 102.753)" fill="#6FCFF7"/>
<rect x="257.033" y="102.753" width="33.1585" height="32.8478" transform="rotate(90 257.033 102.753)" fill="#25AAE1"/>
<rect x="224.185" y="102.753" width="33.1585" height="32.8478" transform="rotate(90 224.185 102.753)" fill="#6FCFF7"/>
<rect x="191.337" y="102.753" width="33.1585" height="32.8478" transform="rotate(90 191.337 102.753)" fill="#D9F5FF"/>
<rect x="158.488" y="102.753" width="33.1585" height="32.8478" transform="rotate(90 158.488 102.753)" fill="#A3E7FF"/>
<rect x="388.424" y="69.5967" width="33.1585" height="32.8478" transform="rotate(90 388.424 69.5967)" fill="#6FCFF7"/>
<rect x="355.576" y="69.5967" width="33.1585" height="32.8478" transform="rotate(90 355.576 69.5967)" fill="#25AAE1"/>
<rect x="322.728" y="69.5967" width="33.1585" height="32.8478" transform="rotate(90 322.728 69.5967)" fill="#A3E7FF"/>
<rect x="289.88" y="69.5967" width="33.1585" height="32.8478" transform="rotate(90 289.88 69.5967)" fill="#6FCFF7"/>
<rect x="257.033" y="69.5967" width="33.1585" height="32.8478" transform="rotate(90 257.033 69.5967)" fill="#D9F5FF"/>
<rect x="224.185" y="69.5967" width="33.1585" height="32.8478" transform="rotate(90 224.185 69.5967)" fill="#25AAE1"/>
<rect x="191.337" y="69.5967" width="33.1585" height="32.8478" transform="rotate(90 191.337 69.5967)" fill="#D9F5FF"/>
<rect x="158.488" y="69.5967" width="33.1585" height="32.8478" transform="rotate(90 158.488 69.5967)" fill="#6FCFF7"/>
<rect x="355.576" y="3.27734" width="33.1585" height="32.8478" transform="rotate(90 355.576 3.27734)" fill="#6FCFF7"/>
<rect x="388.424" y="102.755" width="33.1585" height="32.8478" transform="rotate(90 388.424 102.755)" fill="#25AAE1"/>
<rect x="322.728" y="3.27832" width="33.1585" height="32.8478" transform="rotate(90 322.728 3.27832)" fill="#A3E7FF"/>
<rect x="257.031" y="3.27832" width="33.1585" height="32.8478" transform="rotate(90 257.031 3.27832)" fill="#6FCFF7"/>
<rect width="33.1585" height="32.8478" transform="matrix(1.31544e-07 -1 -1 -1.30721e-07 585.51 102.753)" fill="#6FCFF7"/>
<rect width="33.1585" height="32.8478" transform="matrix(1.31544e-07 -1 -1 -1.30721e-07 552.662 102.753)" fill="#25AAE1"/>
<rect width="33.1585" height="32.8478" transform="matrix(1.31544e-07 -1 -1 -1.30721e-07 519.815 102.753)" fill="#A3E7FF"/>
<rect width="33.1585" height="32.8478" transform="matrix(1.31544e-07 -1 -1 -1.30721e-07 486.967 102.753)" fill="#6FCFF7"/>
<rect width="33.1585" height="32.8478" transform="matrix(1.31544e-07 -1 -1 -1.30721e-07 454.119 102.753)" fill="#A3E7FF"/>
<rect width="33.1585" height="32.8478" transform="matrix(1.31544e-07 -1 -1 -1.30721e-07 421.271 102.753)" fill="#25AAE1"/>
<rect width="33.1585" height="32.8478" transform="matrix(1.31544e-07 -1 -1 -1.30721e-07 388.424 102.753)" fill="#A3E7FF"/>
<rect width="33.1585" height="32.8478" transform="matrix(1.31544e-07 -1 -1 -1.30721e-07 651.206 36.4346)" fill="#D9F5FF"/>
<rect width="33.1585" height="32.8478" transform="matrix(1.31544e-07 -1 -1 -1.30721e-07 585.51 36.4346)" fill="#6FCFF7"/>
<rect width="33.1585" height="32.8478" transform="matrix(1.31544e-07 -1 -1 -1.30721e-07 519.815 36.4346)" fill="#25AAE1"/>
<rect width="33.1585" height="32.8478" transform="matrix(1.31544e-07 -1 -1 -1.30721e-07 486.967 36.4346)" fill="#6FCFF7"/>
<rect width="33.1585" height="32.8478" transform="matrix(1.31544e-07 -1 -1 -1.30721e-07 454.119 36.4346)" fill="#D9F5FF"/>
<rect width="33.1585" height="32.8478" transform="matrix(1.31544e-07 -1 -1 -1.30721e-07 421.271 36.4346)" fill="#A3E7FF"/>
<rect width="33.1585" height="32.8478" transform="matrix(1.31544e-07 -1 -1 -1.30721e-07 651.206 69.5928)" fill="#6FCFF7"/>
<rect width="33.1585" height="32.8478" transform="matrix(1.31544e-07 -1 -1 -1.30721e-07 618.357 69.5928)" fill="#25AAE1"/>
<rect width="33.1585" height="32.8478" transform="matrix(1.31544e-07 -1 -1 -1.30721e-07 585.51 69.5928)" fill="#A3E7FF"/>
<rect width="33.1585" height="32.8478" transform="matrix(1.31544e-07 -1 -1 -1.30721e-07 552.662 69.5928)" fill="#6FCFF7"/>
<rect width="33.1585" height="32.8478" transform="matrix(1.31544e-07 -1 -1 -1.30721e-07 519.815 69.5928)" fill="#D9F5FF"/>
<rect width="33.1585" height="32.8478" transform="matrix(1.31544e-07 -1 -1 -1.30721e-07 486.967 69.5928)" fill="#25AAE1"/>
<rect width="33.1585" height="32.8478" transform="matrix(1.31544e-07 -1 -1 -1.30721e-07 454.119 69.5928)" fill="#D9F5FF"/>
<rect width="33.1585" height="32.8478" transform="matrix(1.31544e-07 -1 -1 -1.30721e-07 421.271 69.5928)" fill="#6FCFF7"/>
<rect width="33.1585" height="32.8478" transform="matrix(1.31544e-07 -1 -1 -1.30721e-07 618.357 135.911)" fill="#6FCFF7"/>
<rect width="33.1585" height="32.8478" transform="matrix(1.31544e-07 -1 -1 -1.30721e-07 585.51 135.91)" fill="#A3E7FF"/>
<rect width="33.1585" height="32.8478" transform="matrix(1.31544e-07 -1 -1 -1.30721e-07 388.424 135.911)" fill="#6FCFF7"/>
<rect width="33.1585" height="32.8478" transform="matrix(1.31544e-07 -1 -1 -1.30721e-07 519.813 135.911)" fill="#6FCFF7"/>
</svg>
