<svg width="747" height="548" viewBox="0 0 747 548" fill="none" xmlns="http://www.w3.org/2000/svg">
<circle cx="197.32" cy="107.74" r="74" transform="rotate(90 197.32 107.74)" fill="url(#paint0_radial_4903_4755)"/>
<mask id="mask0_4903_4755" style="mask-type:alpha" maskUnits="userSpaceOnUse" x="123" y="33" width="149" height="150">
<circle cx="197.32" cy="107.74" r="74.3047" transform="rotate(90 197.32 107.74)" fill="url(#paint1_radial_4903_4755)"/>
</mask>
<g mask="url(#mask0_4903_4755)">
<path fill-rule="evenodd" clip-rule="evenodd" d="M210.565 136.025L210.565 136.023C223.49 135.293 227.659 130.076 228.128 127.558L216.304 68.7436C205.125 62.8172 175.442 59.8046 168.824 86.8869C165.015 102.471 173.188 112.251 178.916 119.104C180.922 121.505 182.628 123.546 183.414 125.353L177.416 157.655L172.127 190.766L219.765 192.013L228.128 181.41L211.917 155.968L210.675 137.641L205.156 136.025H210.565Z" fill="url(#paint2_linear_4903_4755)"/>
<path fill-rule="evenodd" clip-rule="evenodd" d="M221.648 50.8507L229.365 81.2386L209.673 86.2397L206.884 75.2581L183.643 80.8003L190.574 112.406L165.868 153.941L148.406 143.555L169.009 108.918L159.524 65.6649L221.648 50.8507Z" fill="url(#paint3_linear_4903_4755)"/>
</g>
<circle cx="74" cy="74" r="74" transform="matrix(4.44093e-08 1 1 -4.44093e-08 300.902 199.609)" fill="url(#paint4_radial_4903_4755)"/>
<mask id="mask1_4903_4755" style="mask-type:alpha" maskUnits="userSpaceOnUse" x="300" y="199" width="150" height="149">
<circle cx="74.3047" cy="74.3047" r="74.3047" transform="matrix(4.44093e-08 1 1 -4.44093e-08 300.598 199.305)" fill="url(#paint5_radial_4903_4755)"/>
</mask>
<g mask="url(#mask1_4903_4755)">
<path fill-rule="evenodd" clip-rule="evenodd" d="M361.657 301.895L361.658 301.893C348.732 301.163 344.563 295.945 344.095 293.428L355.919 234.613C367.098 228.687 396.78 225.674 403.399 252.756C407.207 268.341 399.034 278.12 393.307 284.974C391.301 287.374 389.594 289.416 388.809 291.222L394.806 323.524L400.096 356.635L352.457 357.882L344.095 347.28L360.305 321.837L361.548 303.51L367.066 301.895H361.657Z" fill="url(#paint6_linear_4903_4755)"/>
<path fill-rule="evenodd" clip-rule="evenodd" d="M344.657 205.791L360.776 252.531L381.777 247.158V270.406L421.195 261.927L416.911 241.861L402.223 245.02V220.748L373.947 227.983L363.978 199.078L344.657 205.791Z" fill="url(#paint7_linear_4903_4755)"/>
</g>
<circle cx="549.539" cy="439.479" r="74" transform="rotate(90 549.539 439.479)" fill="url(#paint8_radial_4903_4755)"/>
<mask id="mask2_4903_4755" style="mask-type:alpha" maskUnits="userSpaceOnUse" x="475" y="365" width="149" height="149">
<circle cx="549.539" cy="439.479" r="74.3047" transform="rotate(90 549.539 439.479)" fill="url(#paint9_radial_4903_4755)"/>
</mask>
<g mask="url(#mask2_4903_4755)">
<path fill-rule="evenodd" clip-rule="evenodd" d="M562.784 467.764L562.784 467.762C575.709 467.032 579.878 461.815 580.347 459.297L568.522 400.483C557.344 394.556 527.661 391.544 521.043 418.626C517.234 434.21 525.407 443.99 531.134 450.843C533.141 453.244 534.847 455.285 535.633 457.091L529.635 489.393L524.346 522.504L571.984 523.752L580.347 513.149L564.136 487.707L562.893 469.379L557.375 467.764H562.784Z" fill="url(#paint10_linear_4903_4755)"/>
<path d="M530.191 448.073L503.074 428.703L524.915 378.785H589.847L576.676 441.875L568.256 402.423L530.191 448.073Z" fill="url(#paint11_linear_4903_4755)"/>
</g>
<circle cx="372.094" cy="107.74" r="74" transform="rotate(90 372.094 107.74)" fill="url(#paint12_radial_4903_4755)"/>
<mask id="mask3_4903_4755" style="mask-type:alpha" maskUnits="userSpaceOnUse" x="297" y="33" width="150" height="150">
<circle cx="372.094" cy="107.74" r="74.3047" transform="rotate(90 372.094 107.74)" fill="url(#paint13_radial_4903_4755)"/>
</mask>
<g mask="url(#mask3_4903_4755)">
<path fill-rule="evenodd" clip-rule="evenodd" d="M385.339 136.025L385.339 136.024C398.264 135.293 402.433 130.076 402.902 127.558L391.077 68.7437C379.898 62.8173 350.216 59.8047 343.597 86.887C339.789 102.471 347.962 112.251 353.689 119.104C355.695 121.505 357.402 123.547 358.187 125.353L352.19 157.655L346.901 190.766L394.539 192.013L402.902 181.411L386.691 155.968L385.448 137.64L379.93 136.025H385.339Z" fill="url(#paint14_linear_4903_4755)"/>
<path fill-rule="evenodd" clip-rule="evenodd" d="M404.104 50.8571L392.619 73.4591L374.405 64.1348L385.891 41.5328L404.104 50.8571Z" fill="url(#paint15_linear_4903_4755)"/>
<path fill-rule="evenodd" clip-rule="evenodd" d="M359 41.5496L370.623 64.0809L352.466 73.5165L340.843 50.9852L359 41.5496Z" fill="url(#paint16_linear_4903_4755)"/>
<path fill-rule="evenodd" clip-rule="evenodd" d="M324.917 71.9152L349.894 75.8201L346.747 96.0977L321.77 92.1928L324.917 71.9152Z" fill="url(#paint17_linear_4903_4755)"/>
</g>
<circle cx="74" cy="74" r="74" transform="matrix(4.44093e-08 1 1 -4.44093e-08 475.512 199.609)" fill="url(#paint18_radial_4903_4755)"/>
<mask id="mask4_4903_4755" style="mask-type:alpha" maskUnits="userSpaceOnUse" x="475" y="199" width="149" height="149">
<circle cx="74.3047" cy="74.3047" r="74.3047" transform="matrix(4.44093e-08 1 1 -4.44093e-08 475.207 199.305)" fill="url(#paint19_radial_4903_4755)"/>
</mask>
<g mask="url(#mask4_4903_4755)">
<path fill-rule="evenodd" clip-rule="evenodd" d="M536.267 301.895L536.267 301.893C523.342 301.163 519.173 295.945 518.704 293.428L530.528 234.613C541.707 228.687 571.39 225.674 578.008 252.757C581.817 268.341 573.644 278.121 567.916 284.974C565.91 287.374 564.204 289.416 563.418 291.222L569.416 323.524L574.705 356.635L527.067 357.883L518.704 347.28L534.915 321.838L536.157 303.51L541.676 301.895H536.267Z" fill="url(#paint20_linear_4903_4755)"/>
<path d="M568.86 282.204L595.977 262.834L574.136 212.916H509.204L522.375 276.006L530.795 236.553L568.86 282.204Z" fill="url(#paint21_linear_4903_4755)"/>
</g>
<circle cx="197.32" cy="439.479" r="74" transform="rotate(90 197.32 439.479)" fill="url(#paint22_radial_4903_4755)"/>
<mask id="mask5_4903_4755" style="mask-type:alpha" maskUnits="userSpaceOnUse" x="123" y="365" width="149" height="149">
<circle cx="197.32" cy="439.479" r="74.3047" transform="rotate(90 197.32 439.479)" fill="url(#paint23_radial_4903_4755)"/>
</mask>
<g mask="url(#mask5_4903_4755)">
<path fill-rule="evenodd" clip-rule="evenodd" d="M210.565 467.764L210.565 467.762C223.49 467.032 227.659 461.815 228.128 459.297L216.304 400.483C205.125 394.556 175.442 391.544 168.824 418.626C165.015 434.21 173.188 443.99 178.916 450.843C180.922 453.244 182.628 455.285 183.414 457.091L177.416 489.393L172.127 522.504L219.765 523.752L228.128 513.149L211.917 487.707L210.675 469.379L205.156 467.764H210.565Z" fill="url(#paint24_linear_4903_4755)"/>
<path fill-rule="evenodd" clip-rule="evenodd" d="M227.565 371.661L211.446 418.4L190.446 413.027V436.275L151.027 427.797L155.311 407.73L170 410.889V386.618L198.276 393.852L208.244 364.948L227.565 371.661Z" fill="url(#paint25_linear_4903_4755)"/>
</g>
<circle cx="549.676" cy="107.74" r="74" transform="rotate(90 549.676 107.74)" fill="url(#paint26_radial_4903_4755)"/>
<mask id="mask6_4903_4755" style="mask-type:alpha" maskUnits="userSpaceOnUse" x="475" y="33" width="149" height="150">
<circle cx="549.676" cy="107.74" r="74.3047" transform="rotate(90 549.676 107.74)" fill="url(#paint27_radial_4903_4755)"/>
</mask>
<g mask="url(#mask6_4903_4755)">
<path fill-rule="evenodd" clip-rule="evenodd" d="M562.921 136.025L562.921 136.023C575.846 135.293 580.015 130.076 580.484 127.558L568.659 68.7436C557.48 62.8172 527.798 59.8046 521.179 86.8869C517.371 102.471 525.544 112.251 531.271 119.104C533.277 121.505 534.984 123.546 535.77 125.353L529.772 157.655L524.483 190.766L572.121 192.013L580.484 181.41L564.273 155.968L563.03 137.641L557.512 136.025H562.921Z" fill="url(#paint28_linear_4903_4755)"/>
<path fill-rule="evenodd" clip-rule="evenodd" d="M563.93 121.157L560.896 108.503L580.775 103.701L590.922 146.026L529.63 136.689L532.698 116.4L563.93 121.157Z" fill="url(#paint29_linear_4903_4755)"/>
</g>
<circle cx="74" cy="74" r="74" transform="matrix(4.44093e-08 1 1 -4.44093e-08 123.32 199.609)" fill="url(#paint30_radial_4903_4755)"/>
<mask id="mask7_4903_4755" style="mask-type:alpha" maskUnits="userSpaceOnUse" x="123" y="199" width="149" height="149">
<circle cx="74.3047" cy="74.3047" r="74.3047" transform="matrix(4.44093e-08 1 1 -4.44093e-08 123.016 199.305)" fill="url(#paint31_radial_4903_4755)"/>
</mask>
<g mask="url(#mask7_4903_4755)">
<path fill-rule="evenodd" clip-rule="evenodd" d="M184.075 301.895L184.076 301.893C171.15 301.163 166.981 295.945 166.513 293.428L178.337 234.613C189.516 228.687 219.198 225.674 225.817 252.756C229.625 268.341 221.452 278.12 215.725 284.974C213.719 287.374 212.012 289.416 211.227 291.222L217.224 323.524L222.513 356.635L174.875 357.882L166.513 347.28L182.723 321.837L183.966 303.51L189.484 301.895H184.075Z" fill="url(#paint32_linear_4903_4755)"/>
<path fill-rule="evenodd" clip-rule="evenodd" d="M192.661 294.02L186.103 274.372L166.225 269.571L161.559 286.886L192.661 294.02Z" fill="url(#paint33_linear_4903_4755)"/>
<path d="M216.524 283.041L225.506 275.077L237.793 236.54L194.792 215.987L188.137 236.54L204.518 233.458L216.524 283.041Z" fill="url(#paint34_linear_4903_4755)"/>
</g>
<circle cx="371.93" cy="439.479" r="74" transform="rotate(90 371.93 439.479)" fill="url(#paint35_radial_4903_4755)"/>
<mask id="mask8_4903_4755" style="mask-type:alpha" maskUnits="userSpaceOnUse" x="297" y="365" width="150" height="149">
<circle cx="371.93" cy="439.479" r="74.3047" transform="rotate(90 371.93 439.479)" fill="url(#paint36_radial_4903_4755)"/>
</mask>
<g mask="url(#mask8_4903_4755)">
<path fill-rule="evenodd" clip-rule="evenodd" d="M385.565 467.764L385.565 467.762C398.49 467.032 402.659 461.815 403.128 459.297L391.304 400.483C380.125 394.556 350.442 391.544 343.824 418.626C340.015 434.21 348.188 443.99 353.916 450.843C355.922 453.244 357.628 455.285 358.414 457.092L352.416 489.394L347.127 522.505L394.765 523.752L403.128 513.149L386.917 487.707L385.675 469.379L380.156 467.764H385.565Z" fill="url(#paint37_linear_4903_4755)"/>
<path fill-rule="evenodd" clip-rule="evenodd" d="M396.648 382.59L404.365 412.977L384.673 417.979L381.884 406.997L358.643 412.539L365.574 444.145L340.868 485.68L323.406 475.294L344.009 440.657L334.524 397.404L396.648 382.59Z" fill="url(#paint38_linear_4903_4755)"/>
</g>
<defs>
<radialGradient id="paint0_radial_4903_4755" cx="0" cy="0" r="1" gradientUnits="userSpaceOnUse" gradientTransform="translate(171.416 69.9335) rotate(70.8359) scale(118.366)">
<stop stop-color="#25AAE1"/>
<stop offset="1" stop-color="#00709E"/>
</radialGradient>
<radialGradient id="paint1_radial_4903_4755" cx="0" cy="0" r="1" gradientUnits="userSpaceOnUse" gradientTransform="translate(171.309 69.7778) rotate(70.8359) scale(118.853)">
<stop stop-color="#B7E7FB"/>
<stop offset="1" stop-color="#27ABE2"/>
</radialGradient>
<linearGradient id="paint2_linear_4903_4755" x1="197.988" y1="64.7386" x2="197.988" y2="192.013" gradientUnits="userSpaceOnUse">
<stop stop-color="#B8E7FB"/>
<stop offset="1" stop-color="#7BD5FA"/>
</linearGradient>
<linearGradient id="paint3_linear_4903_4755" x1="148.406" y1="153.941" x2="233.853" y2="150.077" gradientUnits="userSpaceOnUse">
<stop stop-color="#F1E83B"/>
<stop offset="1" stop-color="#FEFCE8"/>
</linearGradient>
<radialGradient id="paint4_radial_4903_4755" cx="0" cy="0" r="1" gradientUnits="userSpaceOnUse" gradientTransform="translate(48.0956 36.1936) rotate(70.8359) scale(118.366)">
<stop stop-color="#25AAE1"/>
<stop offset="1" stop-color="#00709E"/>
</radialGradient>
<radialGradient id="paint5_radial_4903_4755" cx="0" cy="0" r="1" gradientUnits="userSpaceOnUse" gradientTransform="translate(48.2936 36.3427) rotate(70.8359) scale(118.853)">
<stop stop-color="#B7E7FB"/>
<stop offset="1" stop-color="#27ABE2"/>
</radialGradient>
<linearGradient id="paint6_linear_4903_4755" x1="374.235" y1="230.608" x2="374.235" y2="357.882" gradientUnits="userSpaceOnUse">
<stop stop-color="#B8E7FB"/>
<stop offset="1" stop-color="#7BD5FA"/>
</linearGradient>
<linearGradient id="paint7_linear_4903_4755" x1="421.195" y1="270.406" x2="340.558" y2="265.423" gradientUnits="userSpaceOnUse">
<stop stop-color="#F1E83B"/>
<stop offset="1" stop-color="#FEFCE8"/>
</linearGradient>
<radialGradient id="paint8_radial_4903_4755" cx="0" cy="0" r="1" gradientUnits="userSpaceOnUse" gradientTransform="translate(523.635 401.672) rotate(70.8359) scale(118.366)">
<stop stop-color="#25AAE1"/>
<stop offset="1" stop-color="#00709E"/>
</radialGradient>
<radialGradient id="paint9_radial_4903_4755" cx="0" cy="0" r="1" gradientUnits="userSpaceOnUse" gradientTransform="translate(523.528 401.517) rotate(70.8359) scale(118.853)">
<stop stop-color="#B7E7FB"/>
<stop offset="1" stop-color="#27ABE2"/>
</radialGradient>
<linearGradient id="paint10_linear_4903_4755" x1="550.207" y1="396.478" x2="550.207" y2="523.752" gradientUnits="userSpaceOnUse">
<stop stop-color="#B8E7FB"/>
<stop offset="1" stop-color="#7BD5FA"/>
</linearGradient>
<linearGradient id="paint11_linear_4903_4755" x1="503.074" y1="448.073" x2="594.369" y2="441.489" gradientUnits="userSpaceOnUse">
<stop stop-color="#F1E83B"/>
<stop offset="1" stop-color="#FEFCE8"/>
</linearGradient>
<radialGradient id="paint12_radial_4903_4755" cx="0" cy="0" r="1" gradientUnits="userSpaceOnUse" gradientTransform="translate(346.189 69.9335) rotate(70.8359) scale(118.366)">
<stop stop-color="#B7E7FB"/>
<stop offset="1" stop-color="#27ABE2"/>
</radialGradient>
<radialGradient id="paint13_radial_4903_4755" cx="0" cy="0" r="1" gradientUnits="userSpaceOnUse" gradientTransform="translate(346.083 69.7778) rotate(70.8359) scale(118.853)">
<stop stop-color="#FCFAC1"/>
<stop offset="1" stop-color="#F1E83B"/>
</radialGradient>
<linearGradient id="paint14_linear_4903_4755" x1="372.761" y1="64.7388" x2="372.761" y2="192.013" gradientUnits="userSpaceOnUse">
<stop stop-color="#B8E7FB"/>
<stop offset="1" stop-color="#7BD5FA"/>
</linearGradient>
<linearGradient id="paint15_linear_4903_4755" x1="377.427" y1="77.042" x2="409.787" y2="67.5161" gradientUnits="userSpaceOnUse">
<stop stop-color="#008AC2"/>
<stop offset="1" stop-color="#035C81"/>
</linearGradient>
<linearGradient id="paint16_linear_4903_4755" x1="364.68" y1="78.565" x2="375.812" y2="46.6142" gradientUnits="userSpaceOnUse">
<stop stop-color="#008AC2"/>
<stop offset="1" stop-color="#035C81"/>
</linearGradient>
<linearGradient id="paint17_linear_4903_4755" x1="358.023" y1="89.1912" x2="338.763" y2="61.4069" gradientUnits="userSpaceOnUse">
<stop stop-color="#008AC2"/>
<stop offset="1" stop-color="#035C81"/>
</linearGradient>
<radialGradient id="paint18_radial_4903_4755" cx="0" cy="0" r="1" gradientUnits="userSpaceOnUse" gradientTransform="translate(48.0956 36.1936) rotate(70.8359) scale(118.366)">
<stop stop-color="#B7E7FB"/>
<stop offset="1" stop-color="#27ABE2"/>
</radialGradient>
<radialGradient id="paint19_radial_4903_4755" cx="0" cy="0" r="1" gradientUnits="userSpaceOnUse" gradientTransform="translate(48.2936 36.3427) rotate(70.8359) scale(118.853)">
<stop stop-color="#FCFAC1"/>
<stop offset="1" stop-color="#F1E83B"/>
</radialGradient>
<linearGradient id="paint20_linear_4903_4755" x1="548.844" y1="230.608" x2="548.844" y2="357.883" gradientUnits="userSpaceOnUse">
<stop stop-color="#B8E7FB"/>
<stop offset="1" stop-color="#7BD5FA"/>
</linearGradient>
<linearGradient id="paint21_linear_4903_4755" x1="595.977" y1="282.204" x2="504.682" y2="275.62" gradientUnits="userSpaceOnUse">
<stop stop-color="#008AC2"/>
<stop offset="1" stop-color="#035C81"/>
</linearGradient>
<radialGradient id="paint22_radial_4903_4755" cx="0" cy="0" r="1" gradientUnits="userSpaceOnUse" gradientTransform="translate(171.416 401.672) rotate(70.8359) scale(118.366)">
<stop stop-color="#B7E7FB"/>
<stop offset="1" stop-color="#27ABE2"/>
</radialGradient>
<radialGradient id="paint23_radial_4903_4755" cx="0" cy="0" r="1" gradientUnits="userSpaceOnUse" gradientTransform="translate(171.309 401.517) rotate(70.8359) scale(118.853)">
<stop stop-color="#FCFAC1"/>
<stop offset="1" stop-color="#F1E83B"/>
</radialGradient>
<linearGradient id="paint24_linear_4903_4755" x1="197.988" y1="396.478" x2="197.988" y2="523.752" gradientUnits="userSpaceOnUse">
<stop stop-color="#B8E7FB"/>
<stop offset="1" stop-color="#7BD5FA"/>
</linearGradient>
<linearGradient id="paint25_linear_4903_4755" x1="151.027" y1="436.275" x2="231.665" y2="431.292" gradientUnits="userSpaceOnUse">
<stop stop-color="#008AC2"/>
<stop offset="1" stop-color="#035C81"/>
</linearGradient>
<radialGradient id="paint26_radial_4903_4755" cx="0" cy="0" r="1" gradientUnits="userSpaceOnUse" gradientTransform="translate(523.771 69.9335) rotate(70.8359) scale(118.366)">
<stop stop-color="#FCFAC1"/>
<stop offset="1" stop-color="#F1E83B"/>
</radialGradient>
<radialGradient id="paint27_radial_4903_4755" cx="0" cy="0" r="1" gradientUnits="userSpaceOnUse" gradientTransform="translate(523.665 69.7778) rotate(70.8359) scale(118.853)">
<stop stop-color="#FCFAC1"/>
<stop offset="1" stop-color="#F1E83B"/>
</radialGradient>
<linearGradient id="paint28_linear_4903_4755" x1="550.343" y1="64.7386" x2="550.343" y2="192.013" gradientUnits="userSpaceOnUse">
<stop stop-color="#7BD5FA"/>
<stop offset="1" stop-color="#008AC2"/>
</linearGradient>
<linearGradient id="paint29_linear_4903_4755" x1="590.922" y1="146.026" x2="526.549" y2="140.658" gradientUnits="userSpaceOnUse">
<stop stop-color="#008AC2"/>
<stop offset="1" stop-color="#035C81"/>
</linearGradient>
<radialGradient id="paint30_radial_4903_4755" cx="0" cy="0" r="1" gradientUnits="userSpaceOnUse" gradientTransform="translate(48.0956 36.1936) rotate(70.8359) scale(118.366)">
<stop stop-color="#FCFAC1"/>
<stop offset="1" stop-color="#F1E83B"/>
</radialGradient>
<radialGradient id="paint31_radial_4903_4755" cx="0" cy="0" r="1" gradientUnits="userSpaceOnUse" gradientTransform="translate(48.2936 36.3427) rotate(70.8359) scale(118.853)">
<stop stop-color="#FCFAC1"/>
<stop offset="1" stop-color="#F1E83B"/>
</radialGradient>
<linearGradient id="paint32_linear_4903_4755" x1="196.653" y1="230.608" x2="196.653" y2="357.882" gradientUnits="userSpaceOnUse">
<stop stop-color="#7BD5FA"/>
<stop offset="1" stop-color="#008AC2"/>
</linearGradient>
<linearGradient id="paint33_linear_4903_4755" x1="161.559" y1="294.02" x2="194.277" y2="291.624" gradientUnits="userSpaceOnUse">
<stop stop-color="#008AC2"/>
<stop offset="1" stop-color="#035C81"/>
</linearGradient>
<linearGradient id="paint34_linear_4903_4755" x1="237.793" y1="283.041" x2="185.373" y2="280.806" gradientUnits="userSpaceOnUse">
<stop stop-color="#008AC2"/>
<stop offset="1" stop-color="#035C81"/>
</linearGradient>
<radialGradient id="paint35_radial_4903_4755" cx="0" cy="0" r="1" gradientUnits="userSpaceOnUse" gradientTransform="translate(346.025 401.672) rotate(70.8359) scale(118.366)">
<stop stop-color="#FCFAC1"/>
<stop offset="1" stop-color="#F1E83B"/>
</radialGradient>
<radialGradient id="paint36_radial_4903_4755" cx="0" cy="0" r="1" gradientUnits="userSpaceOnUse" gradientTransform="translate(345.919 401.517) rotate(70.8359) scale(118.853)">
<stop stop-color="#FCFAC1"/>
<stop offset="1" stop-color="#F1E83B"/>
</radialGradient>
<linearGradient id="paint37_linear_4903_4755" x1="372.988" y1="396.478" x2="372.988" y2="523.752" gradientUnits="userSpaceOnUse">
<stop stop-color="#7BD5FA"/>
<stop offset="1" stop-color="#008AC2"/>
</linearGradient>
<linearGradient id="paint38_linear_4903_4755" x1="323.406" y1="485.68" x2="408.853" y2="481.816" gradientUnits="userSpaceOnUse">
<stop stop-color="#008AC2"/>
<stop offset="1" stop-color="#035C81"/>
</linearGradient>
</defs>
</svg>
