<svg width="800" height="450" viewBox="0 0 800 450" fill="none" xmlns="http://www.w3.org/2000/svg">
<rect width="800" height="450" fill="#0D7DB0"/>
<g clip-path="url(#clip0_4902_3927)">
<mask id="mask0_4902_3927" style="mask-type:luminance" maskUnits="userSpaceOnUse" x="123" y="141" width="585" height="179">
<path d="M707.086 141.247H123.664V319.413H707.086V141.247Z" fill="white"/>
</mask>
<g mask="url(#mask0_4902_3927)">
<path d="M443.815 254.924H453.561C455.297 254.812 457.038 255.051 458.675 255.626C460.313 256.202 461.814 257.102 463.083 258.27C464.353 259.439 465.365 260.851 466.057 262.42C466.749 263.988 467.107 265.68 467.107 267.39C467.107 269.099 466.749 270.791 466.057 272.36C465.365 273.928 464.353 275.341 463.083 276.509C461.814 277.678 460.313 278.578 458.675 279.153C457.038 279.729 455.297 279.968 453.561 279.856H443.815V254.924ZM453.561 274.945C454.562 274.997 455.563 274.841 456.498 274.486C457.429 274.15 458.273 273.615 458.969 272.921C459.694 272.221 460.259 271.379 460.628 270.448C460.997 269.518 461.162 268.522 461.11 267.525C461.162 266.523 461.003 265.522 460.644 264.584C460.286 263.646 459.735 262.791 459.024 262.074C458.309 261.377 457.46 260.827 456.526 260.455C455.581 260.101 454.571 259.944 453.561 259.997H449.333V275.053L453.561 274.891V274.945ZM411.559 254.924H416.802L428.964 270.25V254.924H434.591V279.856H429.732L417.186 263.99V279.856H411.696L411.559 254.924ZM376.996 268.955V254.924H382.816V268.793C382.816 272.786 384.957 274.864 388.498 274.864C389.289 274.932 390.085 274.825 390.827 274.549C391.569 274.273 392.238 273.836 392.784 273.271C393.33 272.705 393.74 272.026 393.981 271.283C394.223 270.541 394.292 269.754 394.181 268.982V254.924H400.029V268.766C400.029 276.186 395.554 279.856 388.471 279.856C381.388 279.856 377.051 276.213 377.051 269.063L376.996 268.955ZM347.018 254.924H365.466V259.97H352.343V265.366H363.901V270.331H352.343V279.991H347.018V254.924ZM656.518 226.97L646.635 211.887H653.251L659.373 221.897L665.605 211.887H672.001L662.146 226.862V236.792H656.518V226.97ZM614.378 224.272C614.392 222.593 614.764 220.937 615.468 219.408C616.173 217.879 617.195 216.512 618.469 215.394C621.161 213.014 624.676 211.731 628.297 211.806C632.076 211.602 635.8 212.774 638.756 215.098L635.105 219.064C633.175 217.437 630.701 216.572 628.159 216.636C627.15 216.639 626.152 216.839 625.222 217.224C624.292 217.61 623.449 218.173 622.741 218.88C622.034 219.588 621.477 220.426 621.102 221.347C620.726 222.268 620.54 223.253 620.555 224.245C620.499 225.245 620.663 226.245 621.038 227.177C621.412 228.108 621.987 228.949 622.724 229.641C624.303 231.124 626.416 231.929 628.599 231.881C630.533 231.955 632.446 231.457 634.089 230.451V227.078H628.214V222.464H639.772V232.987C636.536 235.496 632.528 236.847 628.406 236.819C624.743 237.001 621.154 235.76 618.414 233.365C617.118 232.237 616.092 230.842 615.409 229.28C614.725 227.717 614.402 226.025 614.461 224.326L614.378 224.272ZM577.509 225.378C577.508 223.592 577.862 221.823 578.553 220.17C579.24 218.518 580.253 217.016 581.535 215.752C582.817 214.487 584.341 213.485 586.02 212.804C587.702 212.13 589.501 211.782 591.318 211.779C593.135 211.777 594.935 212.126 596.616 212.804C598.301 213.481 599.831 214.481 601.119 215.745C602.397 217.052 603.404 218.592 604.083 220.278C604.766 222.107 605.037 224.059 604.879 226C604.72 227.942 604.136 229.827 603.167 231.525C602.197 233.224 600.864 234.696 599.261 235.84C597.657 236.984 595.821 237.774 593.877 238.154C591.934 238.535 589.93 238.497 588.003 238.044C586.075 237.591 584.271 236.733 582.713 235.529C581.155 234.325 579.881 232.804 578.978 231.071C578.075 229.337 577.565 227.432 577.482 225.486M599.142 225.486C599.177 224.445 599 223.409 598.62 222.437C598.245 221.433 597.666 220.515 596.918 219.739C596.196 218.979 595.316 218.381 594.338 217.985C593.365 217.578 592.32 217.367 591.263 217.364C590.207 217.347 589.159 217.549 588.188 217.958C587.229 218.361 586.361 218.948 585.635 219.685C584.896 220.463 584.326 221.381 583.961 222.383C583.578 223.344 583.409 224.374 583.467 225.405C583.434 226.445 583.611 227.481 583.988 228.454C584.364 229.451 584.933 230.367 585.663 231.152C586.415 231.889 587.299 232.484 588.271 232.906C589.238 233.312 590.279 233.522 591.331 233.524C592.383 233.525 593.424 233.319 594.393 232.916C595.362 232.512 596.238 231.922 596.969 231.178C597.7 230.435 598.271 229.554 598.648 228.589C599.003 227.621 599.17 226.596 599.142 225.567M552.116 212.076H557.771V232.016H570.564V236.98H552.116V212.076ZM512.941 225.567C512.953 222.449 514.063 219.431 516.084 217.027C518.104 214.622 520.909 212.98 524.022 212.379C527.135 211.778 530.364 212.256 533.159 213.731C535.954 215.206 538.143 217.587 539.354 220.469C540.565 223.351 540.723 226.556 539.801 229.54C538.878 232.523 536.933 235.101 534.296 236.834C531.658 238.567 528.492 239.348 525.334 239.045C522.177 238.742 519.223 237.374 516.976 235.173C514.398 232.617 512.948 229.166 512.941 225.567ZM534.656 225.567C534.677 224.527 534.5 223.493 534.134 222.518C533.759 221.514 533.18 220.596 532.432 219.819C531.7 219.071 530.822 218.475 529.852 218.066C528.879 217.661 527.834 217.45 526.777 217.445C525.721 217.423 524.672 217.625 523.702 218.039C522.738 218.447 521.862 219.033 521.122 219.766C520.389 220.548 519.82 221.465 519.447 222.464C519.066 223.435 518.898 224.474 518.953 225.513C518.92 226.553 519.097 227.589 519.474 228.562C519.851 229.535 520.421 230.424 521.149 231.179C521.902 231.916 522.786 232.511 523.757 232.933C525.216 233.538 526.827 233.697 528.379 233.389C529.932 233.081 531.354 232.32 532.46 231.206C533.193 230.424 533.762 229.507 534.134 228.508C534.489 227.54 534.657 226.515 534.628 225.486L534.656 225.567ZM480.684 212.076H486.037L498.171 227.402V211.887H503.827V236.792H498.968L486.422 220.98V236.792H480.794L480.684 212.076ZM443.788 212.076H449.278V221.924H459.216V211.887H464.707V236.792H459.216V226.808H449.278V236.792H443.788V212.076ZM409.17 224.353C409.14 222.694 409.459 221.047 410.106 219.515C410.753 217.983 411.715 216.599 412.931 215.448C414.159 214.287 415.604 213.371 417.186 212.75C418.781 212.155 420.477 211.862 422.183 211.887C424 211.808 425.814 212.102 427.509 212.75C429.206 213.381 430.749 214.356 432.038 215.61L428.607 219.496C426.928 217.806 424.639 216.837 422.238 216.797C421.25 216.814 420.276 217.023 419.371 217.412C418.466 217.801 417.649 218.362 416.967 219.064C416.294 219.76 415.772 220.582 415.433 221.482C415.093 222.382 414.942 223.34 414.99 224.299C414.901 225.763 415.271 227.219 416.052 228.469C416.833 229.719 417.986 230.703 419.355 231.287C420.268 231.668 421.246 231.879 422.238 231.908C423.466 231.888 424.679 231.632 425.806 231.152C426.931 230.656 427.947 229.95 428.799 229.075L432.285 232.474C431.011 233.869 429.435 234.966 427.673 235.685C425.938 236.405 424.065 236.745 422.183 236.684C420.492 236.715 418.811 236.412 417.241 235.793C415.664 235.179 414.226 234.262 413.014 233.095C411.808 231.961 410.847 230.6 410.187 229.093C409.527 227.587 409.181 225.966 409.17 224.326V224.353ZM379.302 211.887H397.558V216.797H384.463V221.87H395.911V226.754H384.463V231.989H397.613V236.845H379.302V211.887ZM354.595 216.932H347.018V211.887H367.772V216.932H360.14V236.792H354.649L354.595 216.932ZM443.788 171.062H449.059L461.33 186.469V171.116H466.821V196.021H461.962L449.388 180.182V196.021H443.898L443.788 171.062ZM413.837 171.062H432.093V175.946H419.136V180.992H430.528V185.875H419.136V191.164H432.258V196.021H413.837V171.062ZM381.718 171.116H392.397C398.628 171.116 402.417 174.651 402.417 179.75C402.417 185.552 397.723 188.547 391.848 188.547H387.455V196.021H381.718V171.116ZM392.012 183.717C392.574 183.782 393.143 183.736 393.687 183.582C394.231 183.426 394.736 183.159 395.169 182.799C395.597 182.449 395.943 182.012 396.185 181.519C396.426 181.025 396.558 180.487 396.57 179.939C396.57 177.484 394.785 176.243 391.903 176.243H387.373V183.879L391.93 183.717H392.012ZM342.598 184.688C342.586 181.999 343.393 179.367 344.914 177.131C346.436 174.896 348.602 173.158 351.136 172.141C352.814 171.451 354.615 171.096 356.434 171.096C358.253 171.096 360.054 171.451 361.732 172.141C363.407 172.822 364.928 173.821 366.207 175.082C368.783 177.642 370.241 181.088 370.27 184.688C370.27 188.295 368.812 191.754 366.217 194.304C363.623 196.855 360.103 198.287 356.434 198.287C352.764 198.287 349.245 196.855 346.65 194.304C344.056 191.754 342.598 188.295 342.598 184.688ZM364.313 184.688C364.274 183.663 364.031 182.654 363.599 181.72C363.227 180.715 362.647 179.797 361.897 179.022C361.174 178.262 360.294 177.664 359.316 177.268C358.347 176.85 357.301 176.63 356.242 176.62C355.185 176.625 354.14 176.836 353.167 177.241C352.198 177.641 351.32 178.228 350.586 178.968C349.853 179.75 349.284 180.667 348.912 181.666C348.555 182.643 348.387 183.677 348.418 184.715C348.385 185.755 348.562 186.792 348.939 187.764C349.304 188.773 349.885 189.693 350.641 190.462C351.364 191.222 352.244 191.82 353.222 192.216C354.188 192.644 355.237 192.865 356.297 192.864C357.353 192.859 358.398 192.648 359.371 192.243C360.335 191.84 361.206 191.249 361.932 190.508C362.659 189.766 363.225 188.888 363.599 187.926C363.983 186.956 364.151 185.916 364.093 184.877L364.313 184.688Z" fill="white"/>
</g>
<path d="M128 183.988H148.864V265.988H128V183.988ZM148.864 265.988H169.7V286.495H148.864V265.988ZM148.864 163.454H169.7V183.961H148.864V163.454ZM169.7 286.468H190.564V306.974H169.7V286.468ZM169.7 142.974H190.564V163.481H169.7V142.974Z" fill="white"/>
<path d="M294.857 183.986H315.831V265.986H294.967L294.857 183.986ZM273.993 163.48H294.857V183.986H273.993V163.48ZM253.129 286.493H273.993V307H253.129V286.493ZM273.993 265.986H294.857V286.493H273.993V265.986ZM253.129 143H273.993V163.48H253.129V143Z" fill="white"/>
</g>
<defs>
<clipPath id="clip0_4902_3927">
<rect width="544" height="164" fill="white" transform="translate(128 143)"/>
</clipPath>
</defs>
</svg>
