<svg width="741" height="138" viewBox="0 0 741 138" fill="none" xmlns="http://www.w3.org/2000/svg">
<rect x="387.07" y="35.5723" width="33.4535" height="33.14" transform="rotate(90 387.07 35.5723)" fill="#25AAE1"/>
<rect x="353.928" y="35.5723" width="33.4535" height="33.14" transform="rotate(90 353.928 35.5723)" fill="#A3E7FF"/>
<rect x="320.788" y="35.5723" width="33.4535" height="33.14" transform="rotate(90 320.788 35.5723)" fill="#6FCFF7"/>
<rect x="287.648" y="35.5723" width="33.4535" height="33.14" transform="rotate(90 287.648 35.5723)" fill="#25AAE1"/>
<rect x="254.51" y="35.5723" width="33.4535" height="33.14" transform="rotate(90 254.51 35.5723)" fill="#A3E7FF"/>
<rect x="221.369" y="35.5723" width="33.4535" height="33.14" transform="rotate(90 221.369 35.5723)" fill="#6FCFF7"/>
<rect x="188.229" y="35.5723" width="33.4535" height="33.14" transform="rotate(90 188.229 35.5723)" fill="#A3E7FF"/>
<rect x="155.092" y="35.5723" width="33.4535" height="33.14" transform="rotate(90 155.092 35.5723)" fill="#25AAE1"/>
<rect x="121.952" y="35.5723" width="33.4535" height="33.14" transform="rotate(90 121.952 35.5723)" fill="#A3E7FF"/>
<rect x="387.07" y="102.478" width="33.4535" height="33.14" transform="rotate(90 387.07 102.478)" fill="#0D7DB0"/>
<rect x="320.788" y="102.478" width="33.4535" height="33.14" transform="rotate(90 320.788 102.478)" fill="#6FCFF7"/>
<rect x="254.51" y="102.478" width="33.4535" height="33.14" transform="rotate(90 254.51 102.478)" fill="#25AAE1"/>
<rect x="221.369" y="102.478" width="33.4535" height="33.14" transform="rotate(90 221.369 102.478)" fill="#6FCFF7"/>
<rect x="188.229" y="102.478" width="33.4535" height="33.14" transform="rotate(90 188.229 102.478)" fill="#0D7DB0"/>
<rect x="155.092" y="102.478" width="33.4535" height="33.14" transform="rotate(90 155.092 102.478)" fill="#A3E7FF"/>
<rect x="387.07" y="69.0273" width="33.4535" height="33.14" transform="rotate(90 387.07 69.0273)" fill="#6FCFF7"/>
<rect x="353.928" y="69.0273" width="33.4535" height="33.14" transform="rotate(90 353.928 69.0273)" fill="#25AAE1"/>
<rect x="320.788" y="69.0273" width="33.4535" height="33.14" transform="rotate(90 320.788 69.0273)" fill="#A3E7FF"/>
<rect x="287.648" y="69.0273" width="33.4535" height="33.14" transform="rotate(90 287.648 69.0273)" fill="#6FCFF7"/>
<rect x="254.51" y="69.0273" width="33.4535" height="33.14" transform="rotate(90 254.51 69.0273)" fill="#0D7DB0"/>
<rect x="221.369" y="69.0273" width="33.4535" height="33.14" transform="rotate(90 221.369 69.0273)" fill="#25AAE1"/>
<rect x="188.229" y="69.0273" width="33.4535" height="33.14" transform="rotate(90 188.229 69.0273)" fill="#0D7DB0"/>
<rect x="155.092" y="69.0273" width="33.4535" height="33.14" transform="rotate(90 155.092 69.0273)" fill="#6FCFF7"/>
<rect x="353.928" y="2.11914" width="33.4535" height="33.14" transform="rotate(90 353.928 2.11914)" fill="#6FCFF7"/>
<rect x="387.07" y="102.48" width="33.4535" height="33.14" transform="rotate(90 387.07 102.48)" fill="#25AAE1"/>
<rect x="320.788" y="2.12012" width="33.4535" height="33.14" transform="rotate(90 320.788 2.12012)" fill="#A3E7FF"/>
<rect x="254.51" y="2.12012" width="33.4535" height="33.14" transform="rotate(90 254.51 2.12012)" fill="#6FCFF7"/>
<rect width="33.4535" height="33.14" transform="matrix(1.31544e-07 -1 -1 -1.30721e-07 585.906 102.475)" fill="#6FCFF7"/>
<rect width="33.4535" height="33.14" transform="matrix(1.31544e-07 -1 -1 -1.30721e-07 552.766 102.475)" fill="#25AAE1"/>
<rect width="33.4535" height="33.14" transform="matrix(1.31544e-07 -1 -1 -1.30721e-07 519.626 102.475)" fill="#A3E7FF"/>
<rect width="33.4535" height="33.14" transform="matrix(1.31544e-07 -1 -1 -1.30721e-07 486.486 102.475)" fill="#6FCFF7"/>
<rect width="33.4535" height="33.14" transform="matrix(1.31544e-07 -1 -1 -1.30721e-07 453.348 102.475)" fill="#A3E7FF"/>
<rect width="33.4535" height="33.14" transform="matrix(1.31544e-07 -1 -1 -1.30721e-07 420.209 102.475)" fill="#25AAE1"/>
<rect width="33.4535" height="33.14" transform="matrix(1.31544e-07 -1 -1 -1.30721e-07 387.069 102.475)" fill="#A3E7FF"/>
<rect width="33.4535" height="33.14" transform="matrix(1.31544e-07 -1 -1 -1.30721e-07 652.188 35.5664)" fill="#0D7DB0"/>
<rect width="33.4535" height="33.14" transform="matrix(1.31544e-07 -1 -1 -1.30721e-07 585.906 35.5664)" fill="#6FCFF7"/>
<rect width="33.4535" height="33.14" transform="matrix(1.31544e-07 -1 -1 -1.30721e-07 519.626 35.5664)" fill="#25AAE1"/>
<rect width="33.4535" height="33.14" transform="matrix(1.31544e-07 -1 -1 -1.30721e-07 486.486 35.5664)" fill="#6FCFF7"/>
<rect width="33.4535" height="33.14" transform="matrix(1.31544e-07 -1 -1 -1.30721e-07 453.348 35.5664)" fill="#0D7DB0"/>
<rect width="33.4535" height="33.14" transform="matrix(1.31544e-07 -1 -1 -1.30721e-07 420.209 35.5664)" fill="#A3E7FF"/>
<rect width="33.4535" height="33.14" transform="matrix(1.31544e-07 -1 -1 -1.30721e-07 652.188 69.0186)" fill="#6FCFF7"/>
<rect width="33.4535" height="33.14" transform="matrix(1.31544e-07 -1 -1 -1.30721e-07 619.047 69.0186)" fill="#25AAE1"/>
<rect width="33.4535" height="33.14" transform="matrix(1.31544e-07 -1 -1 -1.30721e-07 585.906 69.0186)" fill="#A3E7FF"/>
<rect width="33.4535" height="33.14" transform="matrix(1.31544e-07 -1 -1 -1.30721e-07 552.766 69.0186)" fill="#6FCFF7"/>
<rect width="33.4535" height="33.14" transform="matrix(1.31544e-07 -1 -1 -1.30721e-07 519.626 69.0186)" fill="#0D7DB0"/>
<rect width="33.4535" height="33.14" transform="matrix(1.31544e-07 -1 -1 -1.30721e-07 486.486 69.0186)" fill="#25AAE1"/>
<rect width="33.4535" height="33.14" transform="matrix(1.31544e-07 -1 -1 -1.30721e-07 453.348 69.0186)" fill="#0D7DB0"/>
<rect width="33.4535" height="33.14" transform="matrix(1.31544e-07 -1 -1 -1.30721e-07 420.209 69.0186)" fill="#6FCFF7"/>
<rect width="33.4535" height="33.14" transform="matrix(1.31544e-07 -1 -1 -1.30721e-07 619.047 135.927)" fill="#6FCFF7"/>
<rect width="33.4535" height="33.14" transform="matrix(1.31544e-07 -1 -1 -1.30721e-07 585.906 135.925)" fill="#A3E7FF"/>
<rect width="33.4535" height="33.14" transform="matrix(1.31544e-07 -1 -1 -1.30721e-07 387.069 135.927)" fill="#6FCFF7"/>
<rect width="33.4535" height="33.14" transform="matrix(1.31544e-07 -1 -1 -1.30721e-07 519.626 135.927)" fill="#6FCFF7"/>
</svg>
