<svg width="750" height="195" viewBox="0 0 750 195" fill="none" xmlns="http://www.w3.org/2000/svg">
<rect y="0.243774" width="404.688" height="142.578" fill="#A758E4"/>
<rect y="0.243774" width="404.688" height="142.578" fill="url(#paint0_radial_2939_6105)"/>
<g clip-path="url(#clip0_2939_6105)">
<rect width="345.257" height="194.013" transform="translate(404.742 0.307861)" fill="white"/>
<path opacity="0.2" d="M772.46 45.5688C779.813 50.7063 785.463 57.7652 788.889 66.0249C790.8 70.7657 788.586 76.206 783.855 78.2213C779.113 80.1322 773.672 77.9185 771.656 73.1882C769.64 68.2491 766.215 63.9156 761.776 60.8979C748.982 51.9281 731.342 55.0503 722.371 67.7479C722.371 67.8523 722.267 67.8523 722.267 67.9463C719.342 72.1754 713.504 73.1882 709.264 70.16C705.034 67.2362 704.021 61.3991 706.945 57.264C706.945 57.1596 707.05 57.1596 707.05 57.0656C721.974 35.795 751.301 30.6574 772.46 45.5688Z" fill="#A758E4"/>
<path opacity="0.2" d="M775.28 6.97489C775.886 7.17329 776.586 7.47612 777.192 7.77894C781.63 9.68985 783.74 14.8274 781.933 19.2653C780.116 23.7032 775.082 25.7185 770.643 24.006C770.539 24.006 770.445 23.9016 770.445 23.9016C759.865 19.4637 748.074 18.2628 736.69 20.3722C731.948 21.2806 727.322 18.1584 726.413 13.4177C725.504 8.67696 728.627 4.05109 733.369 3.14263C747.468 0.427674 761.985 1.83736 775.28 6.97489Z" fill="#A758E4"/>
<path opacity="0.2" d="M706.046 18.5655C707.456 19.0668 708.667 19.9752 709.67 21.1865C712.688 24.9143 712.187 30.4591 708.364 33.5813C699.299 40.9326 692.343 50.6124 688.009 61.6915L687.904 61.9944C686.192 66.5262 681.053 68.74 676.52 67.0275C671.988 65.315 669.774 60.1774 671.486 55.6456L671.591 55.3427C676.928 41.4338 685.805 29.2478 697.294 19.9752C699.8 17.8555 703.226 17.4587 706.046 18.5655Z" fill="#A758E4"/>
<path opacity="0.2" d="M757.149 85.1655C756.439 91.6187 750.601 96.2446 744.147 95.545C737.692 94.8349 733.066 88.9978 733.765 82.5445C734.475 76.0913 740.314 71.4654 746.768 72.1651C753.212 72.9795 757.954 78.8167 757.149 85.1655Z" fill="#A758E4"/>
<path opacity="0.2" d="M393.448 176.357C392.039 175.855 390.827 174.947 389.824 173.736C386.806 170.008 387.307 164.463 391.13 161.341C400.195 153.99 407.151 144.31 411.485 133.231L411.59 132.928C413.303 128.396 418.441 126.182 422.974 127.895C427.506 129.607 429.72 134.745 428.008 139.277L427.903 139.579C422.566 153.478 413.699 165.674 402.211 174.947C399.59 177.056 396.268 177.463 393.448 176.357Z" fill="#A758E4"/>
<path opacity="0.2" d="M561.135 51.8133C553.783 46.6758 548.133 39.6169 544.707 31.3572C542.796 26.6165 545.01 21.1761 549.741 19.1608C554.483 17.2499 559.924 19.4636 561.94 24.1939C563.955 29.133 567.381 33.4665 571.82 36.4843C584.614 45.4541 602.253 42.3319 611.225 29.6343C611.225 29.5298 611.329 29.5298 611.329 29.4359C614.254 25.2068 620.092 24.1939 624.332 27.2221C628.562 30.1459 629.575 35.9831 626.651 40.1182C626.651 40.2226 626.546 40.2226 626.546 40.3166C611.622 61.5872 582.295 66.7247 561.135 51.8133Z" fill="#A758E4"/>
<path opacity="0.2" d="M558.317 90.4074C557.711 90.209 557.011 89.9062 556.405 89.6034C551.967 87.6925 549.857 82.5549 551.664 78.117C553.471 73.6791 558.515 71.6638 562.954 73.3763C563.058 73.3763 563.152 73.4807 563.152 73.4807C573.732 77.9186 585.523 79.1195 596.907 77.0102C601.649 76.1017 606.275 79.2239 607.184 83.9646C608.093 88.7054 604.97 93.3312 600.228 94.2397C586.129 96.9546 571.612 95.545 558.317 90.4074Z" fill="#A758E4"/>
<path opacity="0.2" d="M528.688 68.0404C527.174 67.4348 525.869 66.5263 524.855 65.1166C515.989 53.3274 510.443 39.2201 508.928 24.3088C508.427 19.4741 511.947 15.1406 516.793 14.7333C521.628 14.2321 525.963 17.7511 526.37 22.5963C527.581 34.3854 531.916 45.4645 538.861 54.6327C541.785 58.465 540.981 63.9993 537.148 66.9231C534.631 68.74 531.404 69.0429 528.688 68.0404Z" fill="#A758E4"/>
<path opacity="0.2" d="M627.55 78.8167C626.14 78.3155 624.929 77.407 623.926 76.1957C620.908 72.4679 621.409 66.9231 625.231 63.8009C634.297 56.4496 641.253 46.7698 645.587 35.6907L645.691 35.3878C647.404 30.856 652.543 28.6422 657.075 30.3547C661.608 32.0672 663.822 37.2048 662.109 41.7367L662.005 42.0395C656.668 55.9484 647.791 68.1344 636.302 77.407C633.796 79.5267 630.474 79.9235 627.55 78.8167Z" fill="#A758E4"/>
<path opacity="0.2" d="M576.457 12.2168C577.167 5.76354 583.005 1.13767 589.459 1.83729C595.914 2.53692 600.54 8.38451 599.841 14.8377C599.13 21.291 593.292 25.9168 586.838 25.2172C580.384 24.4132 575.746 18.67 576.457 12.2168Z" fill="#A758E4"/>
<path opacity="0.2" d="M445.345 45.5688C452.698 50.7063 458.348 57.7652 461.773 66.0249C463.685 70.7657 461.471 76.206 456.74 78.2213C451.998 80.1322 446.557 77.9185 444.541 73.1882C442.525 68.2491 439.1 63.9156 434.661 60.8979C421.867 51.9281 404.227 55.0503 395.256 67.7479C395.256 67.8523 395.151 67.8523 395.151 67.9463C392.227 72.1754 386.389 73.1882 382.149 70.16C377.919 67.2362 376.906 61.3991 379.83 57.264C379.83 57.1596 379.934 57.1596 379.934 57.0656C394.859 35.795 424.186 30.6574 445.345 45.5688Z" fill="#A758E4"/>
<path opacity="0.2" d="M448.163 6.97489C448.769 7.17329 449.469 7.47612 450.075 7.77894C454.513 9.68985 456.623 14.8274 454.816 19.2653C452.999 23.7032 447.965 25.7185 443.526 24.006C443.422 24.006 443.328 23.9016 443.328 23.9016C432.748 19.4637 420.957 18.2628 409.573 20.3722C404.831 21.2806 400.205 18.1584 399.296 13.4177C398.387 8.67696 401.51 4.05109 406.252 3.14263C420.351 0.427674 434.858 1.83736 448.163 6.97489Z" fill="#A758E4"/>
<path opacity="0.2" d="M477.896 29.3419C479.411 29.9475 480.716 30.856 481.729 32.2657C490.596 44.0548 496.142 58.1621 497.656 73.0735C498.158 77.9082 494.638 82.2417 489.792 82.6489C484.956 83.1502 480.622 79.6312 480.215 74.786C479.003 62.9968 474.669 51.9177 467.724 42.7496C464.8 38.9173 465.604 33.383 469.437 30.4592C471.943 28.6422 475.076 28.3394 477.896 29.3419Z" fill="#A758E4"/>
<path opacity="0.2" d="M430.128 85.1655C429.418 91.6187 423.58 96.2446 417.125 95.545C410.671 94.8349 406.044 88.9978 406.744 82.5445C407.454 76.0913 413.292 71.4654 419.747 72.1651C426.201 72.9795 430.838 78.8167 430.128 85.1655Z" fill="#A758E4"/>
<path opacity="0.2" d="M654.151 149.447C646.799 144.31 641.148 137.251 637.723 128.991C635.811 124.25 638.026 118.81 642.757 116.795C647.498 114.884 652.94 117.098 654.955 121.828C656.971 126.767 660.397 131.1 664.835 134.118C677.629 143.088 695.269 139.966 704.24 127.268C704.24 127.164 704.345 127.164 704.345 127.07C707.269 122.841 713.107 121.828 717.348 124.856C721.577 127.78 722.591 133.617 719.666 137.752C719.666 137.856 719.562 137.856 719.562 137.95C704.543 159.127 675.311 164.265 654.151 149.447Z" fill="#A758E4"/>
<path opacity="0.2" d="M651.33 188.042C650.724 187.843 650.025 187.54 649.419 187.238C644.98 185.327 642.871 180.189 644.677 175.751C646.495 171.313 651.529 169.298 655.967 171.01C656.072 171.01 656.166 171.115 656.166 171.115C666.746 175.553 678.537 176.754 689.921 174.644C694.662 173.736 699.289 176.858 700.198 181.599C701.106 186.339 697.983 190.965 693.242 191.874C679.143 194.484 664.636 193.179 651.33 188.042Z" fill="#A758E4"/>
<path opacity="0.2" d="M621.597 165.57C620.082 164.964 618.777 164.056 617.764 162.646C608.897 150.857 603.351 136.75 601.837 121.838C601.335 117.004 604.855 112.67 609.701 112.263C614.537 111.762 618.871 115.281 619.278 120.126C620.49 131.915 624.824 142.994 631.769 152.162C634.693 155.995 633.889 161.529 630.056 164.453C627.55 166.28 624.427 166.677 621.597 165.57Z" fill="#A758E4"/>
<path opacity="0.2" d="M720.564 176.357C719.154 175.855 717.942 174.947 716.94 173.736C713.921 170.008 714.423 164.463 718.245 161.341C727.311 153.99 734.266 144.31 738.6 133.231L738.705 132.928C740.418 128.396 745.556 126.182 750.089 127.895C754.622 129.607 756.836 134.745 755.123 139.277L755.018 139.579C749.682 153.488 740.804 165.674 729.316 174.947C726.715 177.056 723.384 177.463 720.564 176.357Z" fill="#A758E4"/>
<path opacity="0.2" d="M669.367 109.757C670.077 103.303 675.915 98.6776 682.37 99.3772C688.824 100.087 693.451 105.924 692.751 112.378C692.041 118.831 686.203 123.457 679.748 122.757C673.294 122.047 668.667 116.199 669.367 109.757Z" fill="#A758E4"/>
<path opacity="0.2" d="M538.359 143.098C545.711 148.236 551.362 155.295 554.787 163.555C556.698 168.295 554.484 173.736 549.753 175.751C545.012 177.662 539.57 175.448 537.555 170.718C535.539 165.779 532.113 161.445 527.675 158.427C514.881 149.458 497.241 152.58 488.269 165.278C488.269 165.382 488.165 165.382 488.165 165.476C485.241 169.705 479.402 170.718 475.162 167.69C470.932 164.766 469.919 158.929 472.844 154.794C472.844 154.689 472.948 154.689 472.948 154.595C487.873 133.429 517.199 128.291 538.359 143.098Z" fill="#A758E4"/>
<path opacity="0.2" d="M541.177 104.515C541.783 104.713 542.483 105.016 543.088 105.319C547.527 107.23 549.637 112.367 547.83 116.805C546.013 121.243 540.979 123.258 536.54 121.546C536.435 121.546 536.341 121.442 536.341 121.442C525.762 117.004 513.97 115.803 502.586 117.912C497.845 118.821 493.218 115.698 492.31 110.958C491.401 106.217 494.524 101.591 499.265 100.683C513.365 98.0615 527.882 99.3773 541.177 104.515Z" fill="#A758E4"/>
<path opacity="0.2" d="M570.808 126.986C572.323 127.592 573.628 128.5 574.641 129.91C583.508 141.699 589.054 155.806 590.568 170.718C591.07 175.553 587.55 179.886 582.704 180.293C577.869 180.794 573.534 177.276 573.127 172.43C571.916 160.641 567.581 149.562 560.636 140.394C557.712 136.562 558.516 131.027 562.349 128.104C564.866 126.276 568.093 125.869 570.808 126.986Z" fill="#A758E4"/>
<path opacity="0.2" d="M471.946 116.2C473.356 116.701 474.567 117.609 475.57 118.821C478.588 122.548 478.087 128.093 474.265 131.215C465.199 138.567 458.243 148.246 453.909 159.326L453.805 159.628C452.092 164.16 446.954 166.374 442.421 164.662C437.888 162.949 435.674 157.811 437.387 153.28L437.491 152.977C442.828 139.068 451.706 126.882 463.194 117.609C465.7 115.5 469.032 115.093 471.946 116.2Z" fill="#A758E4"/>
<path opacity="0.2" d="M523.048 182.799C522.338 189.253 516.499 193.879 510.045 193.179C503.591 192.469 498.964 186.632 499.664 180.178C500.374 173.725 506.212 169.099 512.666 169.799C519.11 170.509 523.748 176.357 523.048 182.799Z" fill="#A758E4"/>
</g>
<rect x="303.518" y="142.822" width="51.5625" height="101.563" transform="rotate(90 303.518 142.822)" fill="#A758E4"/>
<rect y="194.385" width="51.5625" height="101.172" transform="rotate(-90 0 194.385)" fill="#423CC6"/>
<rect x="303.518" y="194.384" width="51.5625" height="101.172" transform="rotate(-90 303.518 194.384)" fill="#D88DED"/>
<rect x="201.953" y="142.822" width="51.5625" height="100.781" transform="rotate(90 201.953 142.822)" fill="#949494"/>
<path d="M103.378 102.404C101.88 102.404 100.507 101.4 100.109 99.8874C99.6293 98.0794 100.707 96.2271 102.515 95.7474C106.485 94.6995 110.108 92.6185 113.001 89.7404C114.329 88.4194 116.47 88.4268 117.791 89.7478C119.111 91.0761 119.104 93.2162 117.783 94.5372C114.049 98.2565 109.37 100.935 104.249 102.286C103.961 102.367 103.666 102.404 103.378 102.404ZM89.5413 102.367C89.2462 102.367 88.951 102.33 88.6484 102.249C83.5565 100.861 78.8926 98.1532 75.1732 94.4191C73.8523 93.0981 73.8597 90.9507 75.1806 89.6297C76.5016 88.3088 78.649 88.3161 79.97 89.6371C82.8628 92.5373 86.4788 94.6405 90.4269 95.7179C92.2275 96.2123 93.2976 98.072 92.8031 99.8726C92.3973 101.378 91.032 102.367 89.5413 102.367ZM122.359 83.5637C122.063 83.5637 121.768 83.5268 121.466 83.4456C119.665 82.9512 118.602 81.0915 119.089 79.2909C119.635 77.2984 119.908 75.2468 119.908 73.1879C119.908 71.1807 119.643 69.166 119.126 67.2031L119.119 67.1735C118.632 65.3655 119.702 63.5132 121.51 63.0262C123.318 62.5391 125.17 63.6092 125.657 65.4172L125.672 65.4762C126.336 68 126.676 70.5903 126.676 73.1805C126.676 75.8372 126.321 78.4939 125.62 81.062C125.207 82.5674 123.842 83.5637 122.359 83.5637ZM70.6864 83.4013C69.1884 83.4013 67.8231 82.3977 67.4173 80.8849L67.4099 80.8627C66.7457 78.3315 66.4062 75.7413 66.4062 73.151C66.4062 70.5017 66.7605 67.8525 67.4542 65.2917C67.9412 63.4911 69.8009 62.4211 71.6089 62.9155C73.4095 63.4025 74.4796 65.2622 73.9851 67.0702C73.4464 69.0553 73.1734 71.0995 73.1734 73.151C73.1734 75.1583 73.439 77.1729 73.9556 79.1359C73.9556 79.1433 73.9556 79.1433 73.9556 79.1507C74.4353 80.9587 73.3578 82.8109 71.5498 83.2906C71.262 83.3644 70.9742 83.4013 70.6864 83.4013ZM115.495 57.676C114.625 57.676 113.761 57.3439 113.097 56.6797C110.204 53.7795 106.588 51.6837 102.633 50.6063C100.832 50.1192 99.7621 48.2596 100.249 46.4516C100.736 44.6509 102.596 43.5809 104.404 44.0679C109.496 45.4479 114.16 48.1563 117.886 51.8903C119.207 53.2113 119.207 55.3588 117.879 56.6797C117.222 57.3439 116.359 57.676 115.495 57.676ZM77.6749 57.5874C76.8041 57.5874 75.9407 57.2553 75.2766 56.5912C73.9556 55.2702 73.963 53.1227 75.2839 51.8018C79.018 48.0898 83.6893 45.4037 88.8108 44.0458C90.6188 43.5661 92.4711 44.6436 92.9507 46.4516C93.4304 48.2596 92.353 50.1119 90.545 50.5915C86.5747 51.6468 82.9514 53.7279 80.0585 56.6059C79.4018 57.2627 78.5383 57.5874 77.6749 57.5874Z" fill="white"/>
<path d="M89.0621 88.213C88.4422 88.213 87.8149 88.0432 87.2467 87.6816C87.2393 87.6743 87.2319 87.6743 87.2245 87.6669C82.2654 84.4789 79.2988 79.0549 79.2988 73.1512C79.2988 69.8525 80.2434 66.6424 82.0293 63.8602C83.3724 61.7644 85.114 60.0228 87.195 58.6797C88.7669 57.6687 90.8627 58.1189 91.8737 59.6908C92.8847 61.2626 92.4345 63.3584 90.8627 64.3694C89.6008 65.1812 88.5455 66.2365 87.7337 67.5131C86.6489 69.2031 86.0733 71.1513 86.0733 73.1512C86.0733 76.7377 87.8739 80.0364 90.8922 81.9698L90.8996 81.9772C92.4641 82.9882 92.9216 85.0693 91.9254 86.6411C91.2759 87.6595 90.1838 88.213 89.0621 88.213ZM104.043 88.1982C102.928 88.1982 101.844 87.6521 101.194 86.6411C100.183 85.0693 100.641 82.9734 102.213 81.9624C103.474 81.1507 104.53 80.088 105.349 78.8113C106.434 77.1214 107.009 75.1732 107.009 73.1733C107.009 69.5868 105.209 66.2881 102.19 64.3547C102.19 64.3547 102.183 64.3547 102.183 64.3473C100.611 63.3437 100.146 61.2552 101.15 59.676C102.154 58.0968 104.242 57.6318 105.821 58.6355L105.843 58.6502C110.81 61.8382 113.776 67.2622 113.776 73.1659C113.776 76.4646 112.832 79.6748 111.046 82.4569C109.695 84.5601 107.961 86.3016 105.873 87.6447C105.305 88.0211 104.67 88.1982 104.043 88.1982Z" fill="white"/>
<path d="M96.5128 77.3942C94.1735 77.3942 92.2695 75.4902 92.2695 73.1509C92.2695 70.8115 94.1735 68.9076 96.5128 68.9076C98.8521 68.9076 100.756 70.8115 100.756 73.1509C100.756 75.4902 98.8521 77.3942 96.5128 77.3942Z" fill="white"/>
<path d="M152.813 57.3292C154.968 57.3292 156.99 57.7351 158.872 58.5321C160.754 59.3365 162.4 60.4434 163.816 61.8603C165.226 63.2698 166.34 64.9228 167.145 66.8047C167.949 68.6865 168.347 70.7085 168.347 72.8633C168.347 75.0182 167.942 77.0402 167.145 78.922C166.34 80.8038 165.233 82.4494 163.816 83.8663C162.407 85.2758 160.754 86.3902 158.872 87.1945C156.99 87.9989 154.968 88.3974 152.813 88.3974C150.659 88.3974 148.637 87.9989 146.755 87.1945C144.873 86.3902 143.227 85.2832 141.81 83.8663C140.401 82.4568 139.287 80.8038 138.482 78.922C137.678 77.0402 137.279 75.0182 137.279 72.8633C137.279 70.7085 137.678 68.6865 138.482 66.8047C139.287 64.9228 140.393 63.2772 141.81 61.8603C143.227 60.4434 144.873 59.3365 146.755 58.5321C148.637 57.7277 150.659 57.3292 152.813 57.3292ZM152.843 82.3387C154.134 82.3387 155.352 82.0952 156.511 81.6008C157.662 81.1137 158.673 80.4348 159.529 79.5714C160.392 78.708 161.064 77.697 161.551 76.5384C162.038 75.3798 162.281 74.1548 162.281 72.8633C162.281 71.5719 162.038 70.3395 161.551 69.1883C161.064 68.0297 160.385 67.0187 159.529 66.1552C158.665 65.2918 157.662 64.6129 156.511 64.1259C155.359 63.6388 154.134 63.3879 152.843 63.3879C151.551 63.3879 150.326 63.6314 149.175 64.1259C148.024 64.6203 147.013 65.2918 146.157 66.1552C145.294 67.0187 144.615 68.0297 144.105 69.1883C143.596 70.3469 143.345 71.5719 143.345 72.8633C143.345 74.1548 143.596 75.3871 144.105 76.5384C144.615 77.697 145.301 78.708 146.157 79.5714C147.02 80.4348 148.024 81.1137 149.175 81.6008C150.334 82.0952 151.551 82.3387 152.843 82.3387Z" fill="white"/>
<path d="M187.903 72.3393C187.579 72.8264 187.579 73.616 187.903 74.0957L196.53 86.9584C197.061 87.748 196.714 88.3974 195.763 88.3974H190.951C190.575 88.3974 190.088 88.1391 189.874 87.8292L184.258 79.505C183.933 79.0253 183.402 79.0253 183.077 79.505L177.52 87.8218C177.306 88.1391 176.826 88.3974 176.443 88.3974H171.631C170.679 88.3974 170.332 87.748 170.864 86.9584L179.49 74.0957C179.815 73.616 179.815 72.819 179.49 72.3393L170.45 58.8273C169.919 58.0376 170.266 57.3882 171.218 57.3882H176.029C176.413 57.3882 176.9 57.6465 177.107 57.9638L183.077 66.9227C183.402 67.4098 183.926 67.4098 184.25 66.9227L190.279 57.9565C190.493 57.6391 190.973 57.3809 191.357 57.3809H196.168C197.12 57.3809 197.467 58.0303 196.936 58.8199L187.903 72.3393Z" fill="white"/>
<path d="M208.677 57.3295C209.393 57.3295 209.976 57.9125 209.976 58.6283V87.1063C209.976 87.8221 209.393 88.4051 208.677 88.4051H205.209C204.493 88.4051 203.91 87.8221 203.91 87.1063V58.621C203.91 57.9051 204.493 57.3221 205.209 57.3221H208.677V57.3295Z" fill="white"/>
<path d="M247.353 72.8338C247.353 72.8486 247.309 73.3356 247.25 73.9186C247.25 73.9186 246.947 77.0476 246.143 78.9294C245.338 80.8112 244.231 82.4568 242.814 83.8737C241.405 85.2832 239.752 86.3975 237.87 87.2019C235.988 88.0063 233.966 88.4048 231.811 88.4048C229.657 88.4048 227.635 88.0063 225.753 87.2019C223.871 86.3975 222.225 85.2906 220.808 83.8737C219.399 82.4642 218.285 80.8112 217.48 78.9294C216.676 77.0476 216.277 75.0256 216.277 72.8707C216.277 70.7159 216.676 68.6938 217.48 66.812C218.285 64.9302 219.392 63.2846 220.808 61.8677C222.225 60.4508 223.871 59.3439 225.753 58.5395C227.635 57.7351 229.657 57.3366 231.811 57.3366C233.612 57.3366 235.309 57.6244 236.903 58.1927C238.106 58.6207 239.479 59.4619 240.099 59.8088C240.748 60.1704 241.302 59.7866 241.287 59.2406V44.902C241.287 44.1861 241.87 43.6031 242.586 43.6031H246.054C246.77 43.6031 247.353 44.1861 247.353 44.902V71.749C247.353 72.3246 247.353 72.8191 247.353 72.8338ZM231.841 82.3388C233.132 82.3388 234.35 82.0952 235.509 81.6008C236.66 81.1137 237.671 80.4348 238.527 79.5714C239.39 78.708 240.062 77.697 240.549 76.5384C241.036 75.3798 241.184 73.9112 241.184 73.9112C241.243 73.3356 241.287 72.8486 241.287 72.8264C241.287 72.8117 241.243 72.3246 241.184 71.7416C241.184 71.7416 241.043 70.2805 240.549 69.144C240.062 68.0075 239.383 67.0039 238.527 66.1405C237.663 65.2771 236.66 64.5982 235.509 64.1111C234.357 63.6241 233.132 63.3731 231.841 63.3731C230.55 63.3731 229.325 63.6167 228.173 64.1111C227.022 64.6055 226.011 65.2771 225.155 66.1405C224.292 67.0039 223.613 68.0149 223.103 69.1735C222.594 70.3321 222.343 71.5571 222.343 72.8486C222.343 74.14 222.594 75.3724 223.103 76.5236C223.613 77.6822 224.299 78.6932 225.155 79.5566C226.018 80.4201 227.022 81.099 228.173 81.586C229.332 82.0952 230.557 82.3388 231.841 82.3388Z" fill="white"/>
<path d="M258.482 57.3294C259.198 57.3294 259.781 57.9124 259.781 58.6282V87.1062C259.781 87.822 259.198 88.405 258.482 88.405H255.014C254.298 88.405 253.715 87.822 253.715 87.1062V58.6208C253.715 57.905 254.298 57.322 255.014 57.322H258.482V57.3294Z" fill="white"/>
<path d="M323.851 68.8636C323.26 66.7456 322.323 64.9007 321.024 63.3289C319.615 61.4839 317.844 60.0228 315.726 58.9454C313.608 57.8679 311.313 57.3292 308.841 57.3292C306.686 57.3292 304.664 57.7351 302.782 58.5321C300.9 59.3365 299.255 60.4434 297.838 61.8603C296.428 63.2698 295.314 64.9228 294.51 66.8047C293.705 68.6865 293.307 70.7085 293.307 72.8633C293.307 75.0182 293.705 77.0402 294.51 78.922C295.314 80.8038 296.421 82.4494 297.838 83.8663C299.247 85.2758 300.9 86.3902 302.782 87.1945C304.664 87.9989 306.686 88.3974 308.841 88.3974C311.313 88.3974 313.608 87.8587 315.726 86.7813C317.844 85.7038 319.991 83.5121 319.991 83.5121C320.552 82.9365 321.349 82.014 321.77 81.4458C321.777 81.4311 321.785 81.4237 321.792 81.4089L322.117 80.8997C322.449 80.3684 322.464 80.3315 322.464 80.3315C322.751 79.6968 322.301 79.2245 321.489 79.2245H318.442C317.63 79.2245 316.818 79.2319 316.508 79.2245C315.866 79.2172 315.35 79.6673 314.744 80.206C314.744 80.206 313.896 80.9661 312.7 81.5196C311.505 82.0731 310.221 82.3461 308.848 82.3461C307.712 82.3461 306.634 82.1616 305.608 81.7853C304.59 81.4163 303.668 80.8923 302.841 80.2282C302.015 79.564 301.321 78.767 300.753 77.8446C300.184 76.9221 299.985 76.2801 299.985 76.2801C299.742 75.5052 300.214 74.8706 301.026 74.8706H309.896C310.708 74.8706 312.036 74.8706 312.848 74.8706H316.604C317.416 74.8706 318.744 74.8706 319.556 74.8706H322.722C323.224 74.8706 323.696 74.6492 324.013 74.3171C324.257 74.0514 324.382 73.6972 324.382 73.343V72.8707C324.382 71.4538 324.205 70.1181 323.851 68.8636ZM316.235 68.8045H308.988H301.742C300.93 68.8045 300.627 68.2511 301.077 67.5721C301.077 67.5721 302.199 65.8674 303.712 64.8786C305.225 63.8897 306.937 63.3953 308.863 63.3953C308.907 63.3953 308.951 63.3953 308.996 63.3953C309.04 63.3953 309.084 63.3953 309.129 63.3953C311.055 63.3953 312.767 63.8897 314.28 64.8786C315.792 65.8674 316.914 67.5721 316.914 67.5721C317.342 68.2437 317.047 68.8045 316.235 68.8045Z" fill="white"/>
<path d="M290.746 82.5234H278.333C277.359 82.5234 276.983 81.8445 277.492 81.018L282.495 72.8487L287.801 64.185C288.104 63.6906 288.606 62.8789 288.908 62.3844L290.657 59.558C291.425 58.3109 290.864 57.2925 289.395 57.2925H285.868C285.285 57.2925 284.333 57.2925 283.75 57.2925H267.035C266.319 57.2925 265.736 57.8755 265.736 58.5913V61.8752C265.736 62.591 266.319 63.174 267.035 63.174H279.448C280.422 63.174 280.798 63.853 280.289 64.6795L275.286 72.8487L269.98 81.5124C269.677 82.0068 269.175 82.8186 268.873 83.313L267.124 86.1394C266.356 87.3866 266.917 88.4049 268.386 88.4049H271.729C272.312 88.4049 273.264 88.4049 273.847 88.4049H290.746C291.462 88.4049 292.045 87.822 292.045 87.1061V83.8222C292.037 83.1064 291.454 82.5234 290.746 82.5234Z" fill="white"/>
<rect x="750" y="194.384" width="172.656" height="194.141" transform="rotate(-180 750 194.384)" fill="url(#paint1_linear_2939_6105)"/>
<path d="M665.28 145.983C665.28 147.778 664.691 149.247 663.521 150.386C662.346 151.524 661.001 152.094 659.48 152.094C658.238 152.094 657.115 151.711 656.112 150.955C655.109 150.195 654.333 149.16 653.783 147.85L648.397 135.318H617.533L612.147 147.953C611.662 149.267 610.921 150.282 609.922 151.007C608.919 151.731 607.832 152.094 606.658 152.094C604.862 152.094 603.501 151.608 602.565 150.645C601.638 149.677 601.172 148.367 601.172 146.707C601.172 146.086 601.275 145.43 601.482 144.741L627.271 82.8102C627.824 81.4288 628.652 80.3619 629.755 79.6016C630.857 78.8412 632.099 78.5307 633.485 78.6701C634.727 78.6701 635.881 79.0323 636.956 79.7568C638.027 80.4814 638.803 81.5005 639.285 82.8102L664.763 143.499C665.105 144.395 665.28 145.227 665.28 145.983ZM622.609 123.407H643.322L632.864 99.1716L622.609 123.407Z" fill="white"/>
<path d="M724.412 96.8944C725.587 98.0688 726.172 99.5855 726.172 101.453V145.262C726.172 147.058 725.583 148.558 724.412 149.769C723.238 150.979 721.753 151.58 719.958 151.58C718.162 151.58 716.697 150.995 715.555 149.82C714.416 148.646 713.811 147.165 713.743 145.366C712.016 147.368 709.687 149.076 706.753 150.493C703.819 151.906 700.73 152.615 697.485 152.615C692.72 152.615 688.405 151.389 684.54 148.937C680.67 146.488 677.617 143.085 675.376 138.734C673.13 134.382 672.008 129.45 672.008 123.925C672.008 118.403 673.111 113.447 675.324 109.064C677.533 104.681 680.555 101.261 684.384 98.8092C688.218 96.361 692.446 95.1309 697.071 95.1309C700.388 95.1309 703.493 95.736 706.391 96.9422C709.289 98.1524 711.741 99.685 713.743 101.552V101.449C713.743 99.6531 714.329 98.1524 715.503 96.9422C716.677 95.736 718.158 95.1309 719.958 95.1309C721.753 95.1309 723.238 95.72 724.412 96.8944ZM710.017 136.301C712.848 133.021 714.265 128.897 714.265 123.925C714.265 118.952 712.848 114.812 710.017 111.496C707.187 108.184 703.528 106.524 699.038 106.524C694.619 106.524 690.993 108.18 688.162 111.496C685.332 114.808 683.915 118.952 683.915 123.925C683.915 128.897 685.312 133.021 688.111 136.301C690.905 139.581 694.548 141.222 699.038 141.222C703.528 141.218 707.187 139.581 710.017 136.301Z" fill="white"/>
<path d="M665.28 126.078C665.28 127.874 664.691 129.343 663.521 130.481C662.346 131.62 661.001 132.189 659.48 132.189C658.238 132.189 657.115 131.807 656.112 131.05C655.109 130.29 654.333 129.255 653.783 127.945L648.397 115.414H617.533L612.147 128.049C611.662 129.363 610.921 130.378 609.922 131.102C608.919 131.827 607.832 132.189 606.658 132.189C604.862 132.189 603.501 131.703 602.565 130.74C601.638 129.773 601.172 128.463 601.172 126.803C601.172 126.182 601.275 125.525 601.482 124.836L627.271 62.9056C627.824 61.5243 628.652 60.4574 629.755 59.697C630.857 58.9367 632.099 58.6262 633.485 58.7655C634.727 58.7655 635.881 59.1278 636.956 59.8523C638.027 60.5768 638.803 61.5959 639.285 62.9056L664.763 123.594C665.105 124.49 665.28 125.322 665.28 126.078ZM622.609 103.503H643.322L632.864 79.2671L622.609 103.503Z" fill="white" fill-opacity="0.5"/>
<path d="M724.412 76.9901C725.587 78.1645 726.172 79.6812 726.172 81.5482V125.358C726.172 127.153 725.583 128.654 724.412 129.864C723.238 131.074 721.753 131.676 719.958 131.676C718.162 131.676 716.697 131.09 715.555 129.916C714.416 128.742 713.811 127.261 713.743 125.461C712.016 127.464 709.687 129.172 706.753 130.589C703.819 132.002 700.73 132.711 697.485 132.711C692.72 132.711 688.405 131.484 684.54 129.032C680.67 126.584 677.617 123.18 675.376 118.829C673.13 114.478 672.008 109.546 672.008 104.02C672.008 98.4988 673.111 93.5426 675.324 89.1597C677.533 84.7767 680.555 81.3571 684.384 78.9049C688.218 76.4567 692.446 75.2266 697.071 75.2266C700.388 75.2266 703.493 75.8317 706.391 77.0379C709.289 78.2481 711.741 79.7807 713.743 81.6477V81.5442C713.743 79.7489 714.329 78.2481 715.503 77.0379C716.677 75.8317 718.158 75.2266 719.958 75.2266C721.753 75.2266 723.238 75.8157 724.412 76.9901ZM710.017 116.397C712.848 113.117 714.265 108.992 714.265 104.02C714.265 99.0482 712.848 94.9081 710.017 91.592C707.187 88.2799 703.528 86.6199 699.038 86.6199C694.619 86.6199 690.993 88.2759 688.162 91.592C685.332 94.9041 683.915 99.0482 683.915 104.02C683.915 108.992 685.312 113.117 688.111 116.397C690.905 119.677 694.548 121.317 699.038 121.317C703.528 121.313 707.187 119.677 710.017 116.397Z" fill="white" fill-opacity="0.5"/>
<path d="M665.28 109.358C665.28 111.154 664.691 112.623 663.521 113.761C662.346 114.9 661.001 115.469 659.48 115.469C658.238 115.469 657.115 115.087 656.112 114.331C655.109 113.57 654.333 112.535 653.783 111.226L648.397 98.6937H617.533L612.147 111.329C611.662 112.643 610.921 113.658 609.922 114.382C608.919 115.107 607.832 115.469 606.658 115.469C604.862 115.469 603.501 114.983 602.565 114.02C601.638 113.053 601.172 111.743 601.172 110.083C601.172 109.462 601.275 108.805 601.482 108.116L627.271 46.1858C627.824 44.8044 628.652 43.7375 629.755 42.9772C630.857 42.2169 632.099 41.9063 633.485 42.0457C634.727 42.0457 635.881 42.4079 636.956 43.1325C638.027 43.857 638.803 44.8761 639.285 46.1858L664.763 106.874C665.105 107.77 665.28 108.602 665.28 109.358ZM622.609 86.7829H643.322L632.864 62.5472L622.609 86.7829Z" fill="white" fill-opacity="0.2"/>
<path d="M724.412 60.2702C725.587 61.4446 726.172 62.9613 726.172 64.8284V108.638C726.172 110.433 725.583 111.934 724.412 113.144C723.238 114.355 721.753 114.956 719.958 114.956C718.162 114.956 716.697 114.371 715.555 113.196C714.416 112.022 713.811 110.541 713.743 108.742C712.016 110.744 709.687 112.452 706.753 113.869C703.819 115.282 700.73 115.991 697.485 115.991C692.72 115.991 688.405 114.765 684.54 112.312C680.67 109.864 677.617 106.46 675.376 102.109C673.13 97.7583 672.008 92.8259 672.008 87.3005C672.008 81.779 673.111 76.8228 675.324 72.4398C677.533 68.0569 680.555 64.6373 684.384 62.1851C688.218 59.7368 692.446 58.5067 697.071 58.5067C700.388 58.5067 703.493 59.1118 706.391 60.318C709.289 61.5282 711.741 63.0608 713.743 64.9279V64.8244C713.743 63.029 714.329 61.5282 715.503 60.318C716.677 59.1118 718.158 58.5067 719.958 58.5067C721.753 58.5067 723.238 59.0959 724.412 60.2702ZM710.017 99.6771C712.848 96.3968 714.265 92.2726 714.265 87.3005C714.265 82.3283 712.848 78.1882 710.017 74.8721C707.187 71.56 703.528 69.9 699.038 69.9C694.619 69.9 690.993 71.5561 688.162 74.8721C685.332 78.1842 683.915 82.3283 683.915 87.3005C683.915 92.2726 685.312 96.3968 688.111 99.6771C690.905 102.957 694.548 104.597 699.038 104.597C703.528 104.593 707.187 102.957 710.017 99.6771Z" fill="white" fill-opacity="0.2"/>
<defs>
<radialGradient id="paint0_radial_2939_6105" cx="0" cy="0" r="1" gradientUnits="userSpaceOnUse" gradientTransform="translate(391.693 142.822) rotate(-152.417) scale(360.588 496.445)">
<stop stop-color="#A758E4"/>
<stop offset="0.952725" stop-color="#D38FE6"/>
</radialGradient>
<linearGradient id="paint1_linear_2939_6105" x1="836.328" y1="194.384" x2="836.328" y2="388.525" gradientUnits="userSpaceOnUse">
<stop stop-color="#A758E4"/>
<stop offset="1" stop-color="#423CC6"/>
</linearGradient>
<clipPath id="clip0_2939_6105">
<rect width="345.257" height="194.013" fill="white" transform="translate(404.742 0.307861)"/>
</clipPath>
</defs>
</svg>
