<svg width="800" height="450" viewBox="0 0 800 450" fill="none" xmlns="http://www.w3.org/2000/svg">
<rect width="800" height="450" fill="#E4F0FB"/>
<path d="M197.346 145.004C194.538 144.939 191.766 145.651 189.334 147.061L137.654 176.956C135.328 178.302 133.395 180.237 132.052 182.568C130.708 184.899 130.001 187.543 130 190.235V250.057C130.003 252.747 130.712 255.388 132.056 257.716C133.399 260.043 135.33 261.976 137.654 263.32L189.334 293.239C191.66 294.585 194.298 295.294 196.984 295.294C199.67 295.294 202.308 294.585 204.634 293.239L256.322 263.32C258.645 261.975 260.574 260.042 261.916 257.714C263.258 255.386 263.966 252.746 263.968 250.057V190.235C263.968 187.544 263.262 184.9 261.92 182.569C260.578 180.238 258.647 178.303 256.322 176.956L204.634 147.061C202.415 145.774 199.909 145.067 197.346 145.004ZM197.18 178.818C198.59 178.85 199.97 179.237 201.191 179.944L229.621 196.389C230.9 197.129 231.962 198.194 232.7 199.476C233.439 200.758 233.827 202.213 233.827 203.693V236.599C233.825 238.077 233.435 239.528 232.697 240.807C231.958 242.086 230.898 243.148 229.621 243.887L201.191 260.348C199.913 261.088 198.462 261.477 196.986 261.477C195.51 261.477 194.06 261.088 192.781 260.348L164.35 243.887C163.074 243.148 162.013 242.086 161.275 240.807C160.537 239.528 160.147 238.077 160.145 236.599V203.693C160.145 202.213 160.533 200.758 161.271 199.476C162.01 198.194 163.071 197.13 164.35 196.389L192.781 179.944C194.117 179.171 195.639 178.782 197.18 178.818Z" fill="#60A5FA"/>
<path d="M261.916 182.592L232.689 199.499C233.429 200.78 233.819 202.234 233.82 203.714V236.612C233.819 238.091 233.43 239.544 232.692 240.824C231.954 242.105 230.893 243.169 229.615 243.908L201.193 260.362C199.918 261.095 198.473 261.48 197.003 261.48V295.294C199.681 295.295 202.313 294.591 204.634 293.252L216.132 286.598L230.804 295.136C237.366 298.955 247.932 298.955 254.494 295.136L261.055 291.318C267.617 287.499 267.617 281.35 261.055 277.531L246.464 269.04L256.323 263.333C258.645 261.988 260.574 260.055 261.916 257.727C263.259 255.399 263.966 252.759 263.969 250.07V190.256C263.968 187.565 263.26 184.922 261.916 182.592Z" fill="#3B82F6"/>
<path d="M132.066 182.567L161.288 199.482C162.025 198.2 163.086 197.134 164.364 196.393L192.79 179.944C194.068 179.205 195.518 178.817 196.993 178.818C198.469 178.818 199.918 179.207 201.196 179.947L229.624 196.391C230.895 197.132 231.951 198.193 232.685 199.469L261.901 182.562C260.563 180.238 258.639 178.306 256.322 176.96L204.626 147.053C202.303 145.709 199.668 145.002 196.986 145.001C194.303 145 191.668 145.706 189.344 147.048L137.663 176.956C135.338 178.302 133.408 180.238 132.066 182.569V182.567Z" fill="#93C5FD"/>
<path d="M346.728 203.304V239.656C346.728 245.672 345.576 250.664 343.528 254.76L348.904 261.16C351.592 264.36 349.544 268.584 345.448 268.584H340.712C339.944 268.584 337.768 267.688 337.128 266.92L334.312 263.336C331.752 264.488 328.936 265 325.864 265C311.784 265 304.744 255.784 304.744 239.656V203.304C304.744 187.176 311.784 178.728 325.864 178.728C339.816 178.728 346.728 187.176 346.728 203.304ZM317.544 203.304V239.656C317.544 247.72 320.104 251.944 325.096 252.328L324.456 251.56C321.768 248.232 323.944 244.008 328.04 244.008H332.648C332.776 244.008 333.288 244.008 333.672 244.136C333.8 242.856 333.928 241.32 333.928 239.656V203.304C333.928 194.984 331.368 191.4 325.864 191.4C320.36 191.4 317.544 195.24 317.544 203.304ZM355.232 241.448V183.208C355.232 180.648 357.28 178.6 359.712 178.6H363.296C365.856 178.6 367.904 180.648 367.904 183.208V241.448C367.904 248.232 369.952 252.2 376.224 252.2C382.752 252.2 384.544 247.592 384.544 241.448V183.208C384.544 180.648 386.592 178.6 389.024 178.6H392.608C395.168 178.6 397.216 180.648 397.216 183.208V241.448C397.216 255.784 391.072 264.872 376.224 264.872C360.864 264.872 355.232 255.016 355.232 241.448ZM426.551 265H413.879C411.319 265 409.271 262.952 409.271 260.392V183.336C409.271 180.776 411.319 178.728 413.879 178.728H426.551C441.527 178.728 448.183 186.92 448.183 203.432C448.183 215.336 442.679 221.864 442.679 221.864C446.007 225.96 448.183 232.488 448.183 240.296C448.183 256.808 441.527 265 426.551 265ZM426.551 191.4H422.071V215.464H426.551C432.823 215.464 435.383 212.008 435.383 203.432C435.383 194.856 432.823 191.4 426.551 191.4ZM426.551 228.136H422.071V252.328H426.551C432.823 252.328 435.383 248.872 435.383 240.296C435.383 231.592 432.823 228.136 426.551 228.136ZM462.358 178.728H490.006C492.566 178.728 494.614 180.776 494.614 183.336V186.792C494.614 189.352 492.566 191.4 490.006 191.4H470.422V215.464H486.55C489.11 215.464 491.158 217.512 491.158 220.072V223.528C491.158 226.088 489.11 228.136 486.55 228.136H470.422V252.328H490.006C492.566 252.328 494.614 254.376 494.614 256.936V260.392C494.614 262.952 492.566 265 490.006 265H462.358C459.798 265 457.75 262.952 457.75 260.392V183.336C457.75 180.776 459.798 178.728 462.358 178.728ZM498.878 239.912V238.248C498.878 235.688 500.926 233.64 503.486 233.64H507.07C509.502 233.64 511.678 235.688 511.678 238.248V239.912C511.678 246.056 512.83 249 514.622 250.536C516.03 251.944 518.206 252.2 519.998 252.2C525.374 252.2 528.318 249.896 528.318 243.112C528.318 237.096 522.43 232.36 516.158 227.496V227.624C507.71 220.968 498.878 214.056 498.878 201.384C498.878 186.92 506.43 178.6 519.998 178.6C533.822 178.6 541.118 187.432 541.118 203.688V205.48C541.118 208.04 539.07 210.088 536.51 210.088H532.926C530.366 210.088 528.318 208.04 528.318 205.48V203.688C528.318 195.24 525.63 191.4 519.998 191.4C514.622 191.4 511.678 194.344 511.678 201C511.678 207.528 517.95 212.52 524.222 217.384H524.094C532.542 223.912 541.118 230.44 541.118 242.856C541.118 257.192 533.566 264.872 519.998 264.872C505.918 264.872 498.878 256.68 498.878 239.912ZM577.905 201.512C577.905 186.792 584.049 178.728 596.209 178.728C608.497 178.728 614.641 186.664 614.641 201.512V242.088C614.641 251.688 612.209 257.192 608.625 260.648C605.041 264.104 600.433 265 596.209 265C592.113 265 587.505 264.104 583.921 260.648C580.337 257.192 577.905 251.688 577.905 242.088V201.512ZM581.873 242.088C581.873 255.016 586.609 261.032 596.209 261.032C605.553 261.032 610.545 255.4 610.545 242.088V201.512C610.545 188.328 605.809 182.696 596.209 182.696C586.481 182.696 581.873 188.712 581.873 201.512V242.088ZM641.733 224.808L639.557 223.784C636.997 222.76 632.901 220.968 629.445 217.384C625.861 213.928 622.917 209.064 622.917 201.512C622.917 188.584 629.445 178.6 641.349 178.6C653.637 178.6 659.909 186.536 659.909 201.512C659.909 202.536 659.013 203.56 657.861 203.56C656.709 203.56 655.813 202.536 655.813 201.512C655.813 188.584 651.077 182.568 641.349 182.568C632.261 182.568 626.885 190.376 626.885 201.512C626.885 207.656 629.189 211.752 632.261 214.568C635.205 217.384 638.661 219.048 641.221 220.072L643.269 220.968C645.445 221.992 649.669 223.656 653.253 226.984C656.837 230.312 659.909 235.176 659.909 242.728C659.909 249 658.245 254.376 655.301 258.344C651.973 262.696 647.365 264.872 641.349 264.872C629.061 264.872 622.917 256.936 622.917 242.088C622.917 240.68 623.557 240.04 624.965 240.04C625.989 240.04 626.885 240.936 626.885 242.088C626.885 250.408 629.061 255.144 631.877 257.704C634.693 260.392 638.277 260.904 641.349 260.904C650.565 260.904 655.813 254.12 655.813 242.728C655.813 236.584 653.381 232.488 650.437 229.8C648.901 228.52 647.365 227.496 645.701 226.728L641.733 224.808Z" fill="#323232"/>
</svg>
