<svg width="420" height="80" viewBox="0 0 420 80" fill="none" xmlns="http://www.w3.org/2000/svg">
<g clip-path="url(#clip0_5794_1367)">
<mask id="mask0_5794_1367" style="mask-type:luminance" maskUnits="userSpaceOnUse" x="47" y="17" width="41" height="46">
<path d="M47.2646 17.0381H87.0937V62.6395H47.2646V17.0381Z" fill="white"/>
</mask>
<g mask="url(#mask0_5794_1367)">
<path fill-rule="evenodd" clip-rule="evenodd" d="M65.8598 17.5841L57.6368 22.3311L49.4148 27.0791C48.7878 27.4401 48.2798 27.9551 47.9278 28.5611C47.5768 29.1661 47.3808 29.8611 47.3758 30.5851L47.3198 39.9351L47.2647 49.2851C47.2598 50.0221 47.4548 50.7311 47.8108 51.3481C48.1668 51.9641 48.6838 52.4871 49.3238 52.8521L57.4488 57.4791L65.5738 62.1051C66.2028 62.4641 66.9038 62.6421 67.6038 62.6401C68.3038 62.6381 69.0028 62.4551 69.6298 62.0931L77.2858 57.5721L84.9428 53.0521C85.5688 52.6891 86.1048 52.0901 86.4848 51.4001C86.8648 50.7101 87.0888 49.9301 87.0938 49.2051L87.0928 39.8551L87.0918 30.5061C87.0958 29.7691 86.9578 28.9181 86.6588 28.1591C86.3598 27.4011 85.8998 26.7361 85.2588 26.3721L77.5878 21.9721L69.9158 17.5721C69.2868 17.2131 68.5858 17.0361 67.8858 17.0381C67.1858 17.0401 66.4868 17.2221 65.8598 17.5841Z" fill="#64120F"/>
</g>
<mask id="mask1_5794_1367" style="mask-type:luminance" maskUnits="userSpaceOnUse" x="45" y="17" width="41" height="46">
<path d="M45 17.001H85.96V62.602H45V17.001Z" fill="white"/>
</mask>
<g mask="url(#mask1_5794_1367)">
<path fill-rule="evenodd" clip-rule="evenodd" d="M63.5951 17.547L55.3721 22.295L47.1501 27.042C46.5231 27.404 46.0151 27.919 45.6641 28.523C45.3121 29.129 45.1161 29.824 45.1121 30.547L45.0561 39.898L45.0001 49.248C44.9961 49.985 45.1901 50.694 45.5461 51.31C45.9021 51.926 46.4191 52.45 47.0591 52.815L55.1841 57.441L63.3101 62.068C63.9391 62.426 64.6391 62.604 65.3391 62.602C66.0391 62.6 66.7391 62.418 67.3661 62.056L75.5881 57.308L83.8111 52.561C84.4381 52.2 84.9451 51.685 85.2971 51.08C85.6491 50.474 85.8451 49.779 85.8491 49.055L85.9051 39.705L85.9602 30.355C85.9651 29.618 85.7701 28.909 85.4141 28.293C85.0581 27.676 84.5411 27.153 83.9011 26.789L75.7761 22.162L67.6511 17.535C67.0221 17.176 66.3221 16.999 65.6211 17.001C64.9221 17.003 64.2221 17.185 63.5951 17.547Z" fill="#D62821"/>
</g>
<mask id="mask2_5794_1367" style="mask-type:luminance" maskUnits="userSpaceOnUse" x="45" y="28" width="21" height="35">
<path d="M45 28.665H65.6329V62.59H45V28.665Z" fill="white"/>
</mask>
<g mask="url(#mask2_5794_1367)">
<path fill-rule="evenodd" clip-rule="evenodd" d="M45.5986 28.674C45.9046 28.694 46.1976 28.746 46.4836 28.833C46.7696 28.92 47.0486 29.042 47.3236 29.198L55.4486 33.825L63.5736 38.452C64.2136 38.817 64.7306 39.34 65.0866 39.956C65.4426 40.572 65.6366 41.282 65.6327 42.019L65.5776 51.369L65.5216 60.719C65.5196 61.051 65.4766 61.376 65.3976 61.691C65.3186 62.004 65.2026 62.307 65.0536 62.59L64.9336 62.58L64.8146 62.57C64.5546 62.536 64.2956 62.479 64.0436 62.395C63.7906 62.311 63.5456 62.202 63.3096 62.068L55.1836 57.441L47.0586 52.815C46.4186 52.449 45.9016 51.926 45.5456 51.31C45.1896 50.694 44.9956 49.985 44.9996 49.247L45.0556 39.898L45.1116 30.547C45.1136 30.186 45.1446 29.866 45.2196 29.562C45.2946 29.257 45.4136 28.967 45.5896 28.665L45.5936 28.669L45.5986 28.674Z" fill="#64120F"/>
</g>
</g>
<g clip-path="url(#clip1_5794_1367)">
<path fill-rule="evenodd" clip-rule="evenodd" d="M129.253 17.4076L123.509 20.7236L117.766 24.0406C117.328 24.2936 116.973 24.6526 116.728 25.0746C116.482 25.4976 116.345 25.9836 116.342 26.4896L116.303 33.0196L116.264 39.5516C116.261 40.0656 116.397 40.5616 116.646 40.9916C116.894 41.4226 117.255 41.7886 117.703 42.0426L123.378 45.2746L129.053 48.5066C129.493 48.7566 129.982 48.8816 130.471 48.8796C130.96 48.8786 131.448 48.7506 131.886 48.4986L137.234 45.3406L142.582 42.1816C143.02 41.9296 143.394 41.5116 143.66 41.0286C143.925 40.5466 144.082 40.0016 144.085 39.4956L144.084 32.9656V26.4336C144.086 25.9196 143.99 25.3246 143.781 24.7956C143.572 24.2656 143.251 23.8016 142.803 23.5466L137.445 20.4726L132.086 17.3996C131.647 17.1486 131.157 17.0246 130.669 17.0266C130.179 17.0276 129.691 17.1546 129.253 17.4076Z" fill="#64120F"/>
<mask id="mask3_5794_1367" style="mask-type:luminance" maskUnits="userSpaceOnUse" x="115" y="17" width="29" height="32">
<path d="M115 17.0002H143.612V48.8532H115V17.0002Z" fill="white"/>
</mask>
<g mask="url(#mask3_5794_1367)">
<path fill-rule="evenodd" clip-rule="evenodd" d="M127.989 17.3812L122.245 20.6972L116.502 24.0142C116.064 24.2672 115.709 24.6262 115.464 25.0482C115.218 25.4712 115.081 25.9572 115.078 26.4632L115.039 32.9932L115 39.5252C114.997 40.0392 115.133 40.5352 115.382 40.9652C115.63 41.3962 115.991 41.7622 116.439 42.0162L122.114 45.2482L127.789 48.4802C128.229 48.7302 128.718 48.8552 129.207 48.8532C129.696 48.8522 130.185 48.7242 130.622 48.4722L136.366 45.1552L142.11 41.8392C142.548 41.5862 142.902 41.2272 143.148 40.8042C143.394 40.3822 143.531 39.8962 143.533 39.3902L143.572 32.8592L143.612 26.3282C143.614 25.8142 143.478 25.3182 143.23 24.8872C142.981 24.4572 142.62 24.0912 142.173 23.8362L136.497 20.6052L130.822 17.3732C130.383 17.1222 129.893 16.9982 129.405 17.0002C128.915 17.0012 128.427 17.1282 127.989 17.3812Z" fill="#D62821"/>
</g>
<mask id="mask4_5794_1367" style="mask-type:luminance" maskUnits="userSpaceOnUse" x="115" y="17" width="29" height="32">
<path d="M115 17.0002H143.612V48.8532H115V17.0002Z" fill="white"/>
</mask>
<g mask="url(#mask4_5794_1367)">
<path fill-rule="evenodd" clip-rule="evenodd" d="M115.419 25.1546C115.632 25.1676 115.837 25.2046 116.037 25.2646C116.237 25.3266 116.431 25.4116 116.623 25.5206L122.299 28.7526L127.974 31.9846C128.421 32.2386 128.783 32.6046 129.031 33.0356C129.28 33.4656 129.416 33.9616 129.413 34.4756L129.374 41.0076L129.335 47.5376C129.334 47.7696 129.304 47.9976 129.249 48.2166C129.193 48.4356 129.112 48.6466 129.008 48.8446L128.925 48.8386L128.841 48.8306C128.659 48.8076 128.479 48.7666 128.303 48.7086C128.127 48.6496 127.955 48.5736 127.79 48.4796L122.114 45.2486L116.439 42.0156C115.992 41.7616 115.63 41.3956 115.382 40.9656C115.133 40.5356 114.998 40.0396 115.001 39.5246L115.04 32.9936L115.078 26.4636C115.08 26.2106 115.102 25.9866 115.154 25.7736C115.207 25.5616 115.289 25.3586 115.412 25.1476L115.416 25.1506L115.419 25.1546Z" fill="#64120F"/>
</g>
<g style="mix-blend-mode:multiply" opacity="0.35">
<mask id="mask5_5794_1367" style="mask-type:luminance" maskUnits="userSpaceOnUse" x="134" y="31" width="29" height="33">
<g style="mix-blend-mode:multiply" opacity="0.35">
<path d="M134.201 31.7766H162.022V63.6295H134.201V31.7766Z" fill="white"/>
</g>
</mask>
<g mask="url(#mask5_5794_1367)">
<path fill-rule="evenodd" clip-rule="evenodd" d="M147.19 32.1576L141.446 35.4736L135.703 38.7906C135.265 39.0436 134.91 39.4026 134.665 39.8246C134.419 40.2476 134.282 40.7336 134.279 41.2396L134.24 47.7696L134.201 54.3016C134.198 54.8156 134.334 55.3116 134.583 55.7416C134.831 56.1726 135.192 56.5386 135.64 56.7926L141.315 60.0246L146.99 63.2566C147.43 63.5066 147.919 63.6316 148.408 63.6296C148.897 63.6286 149.385 63.5006 149.823 63.2486L155.171 60.0906L160.519 56.9316C160.957 56.6796 161.331 56.2616 161.597 55.7786C161.862 55.2966 162.019 54.7516 162.022 54.2456L162.021 47.7156V41.1836C162.023 40.6696 161.927 40.0746 161.718 39.5456C161.509 39.0156 161.188 38.5516 160.74 38.2966L155.382 35.2226L150.023 32.1496C149.584 31.8986 149.094 31.7746 148.606 31.7766C148.116 31.7776 147.628 31.9046 147.19 32.1576Z" fill="#64120F"/>
</g>
<path fill-rule="evenodd" clip-rule="evenodd" d="M140.182 35.4472L134.439 38.7642C134.001 39.0172 133.646 39.3762 133.401 39.7982C133.155 40.2212 133.018 40.7072 133.015 41.2132L132.976 47.7432L132.937 54.2752C132.934 54.7892 133.07 55.2852 133.319 55.7152C133.567 56.1462 133.928 56.5122 134.376 56.7662L140.051 59.9982L145.726 63.2302C146.166 63.4802 146.655 63.6052 147.144 63.6033C147.633 63.6022 148.122 63.4742 148.559 63.2222L154.303 59.9052L160.047 56.5892C160.485 56.3362 160.839 55.9772 161.085 55.5542C161.331 55.1322 161.468 54.6462 161.47 54.1402L161.509 47.6092L161.549 41.0782C161.551 40.5642 161.415 40.0682 161.167 39.6372C160.918 39.2072 160.557 38.8412 160.11 38.5862L154.434 35.3552L148.759 32.1232C148.32 31.8722 147.83 31.7482 147.342 31.7502C146.852 31.7512 146.364 31.8782 145.926 32.1312L140.182 35.4472Z" fill="#D62821"/>
<path fill-rule="evenodd" clip-rule="evenodd" d="M133.356 39.9046C133.569 39.9176 133.774 39.9546 133.974 40.0146C134.174 40.0766 134.368 40.1616 134.56 40.2706L140.236 43.5026L145.911 46.7346C146.358 46.9886 146.72 47.3546 146.968 47.7856C147.217 48.2156 147.353 48.7116 147.35 49.2256L147.311 55.7576L147.272 62.2876C147.271 62.5196 147.241 62.7476 147.186 62.9666C147.13 63.1856 147.049 63.3966 146.945 63.5946L146.862 63.5886L146.778 63.5806C146.596 63.5576 146.416 63.5166 146.24 63.4586C146.064 63.3996 145.892 63.3236 145.727 63.2296L140.051 59.9986L134.376 56.7656C133.929 56.5116 133.567 56.1456 133.319 55.7156C133.07 55.2856 132.935 54.7896 132.938 54.2746L132.977 47.7436L133.015 41.2136C133.017 40.9606 133.039 40.7366 133.091 40.5236C133.144 40.3116 133.226 40.1086 133.349 39.8976L133.353 39.9006L133.356 39.9046Z" fill="#64120F"/>
</g>
</g>
<g filter="url(#filter0_d_5794_1367)">
<path d="M226.898 25.8078C228.713 26.857 229.832 28.7951 229.832 30.8921V49.0239C229.832 51.1448 228.702 53.1026 226.865 54.163L211.22 63.1994C209.372 64.2669 207.713 59.7952 205.864 58.7277L195.483 52.8039C193.557 51.6928 197.794 49.6814 197.794 47.4578L194.476 33.85L190.971 30.7445C190.971 29.1454 187.981 28.4546 189.366 27.6543C189.366 27.6543 190.105 25.497 191.614 24.6264L205.096 16.8418C207.036 15.7194 209.428 15.7194 211.37 16.8418L226.898 25.8078Z" fill="black"/>
</g>
<path d="M226.898 25.8078C228.713 26.857 229.832 28.7951 229.832 30.8921V49.0239C229.832 51.1448 228.702 53.1026 226.865 54.163L211.22 63.1994C209.372 64.2669 207.713 59.7952 205.864 58.7277L195.483 52.8039C193.557 51.6928 197.794 49.6814 197.794 47.4578L194.476 33.85L190.971 30.7445C190.971 29.1454 187.981 28.4546 189.366 27.6543C189.366 27.6543 190.105 25.497 191.614 24.6264L205.096 16.8418C207.036 15.7194 209.428 15.7194 211.37 16.8418L226.898 25.8078Z" fill="#D42C27"/>
<mask id="mask6_5794_1367" style="mask-type:luminance" maskUnits="userSpaceOnUse" x="189" y="25" width="25" height="39">
<path d="M190.366 25.8048C190.026 26.4622 189.034 26.8711 189.032 29.0891V29.5962V48.3685C189.032 49.5534 189.349 50.692 189.92 51.6731C190.45 52.5834 191.199 53.3578 192.12 53.9083L207.499 63.1038C208.825 63.793 209.666 63.9895 210.306 63.9996H210.412C210.984 63.9909 211.4 63.8363 211.881 63.7771C212.789 63.0243 213.032 61.1054 213.032 60.0738V41.4474C213.032 40.2886 212.713 39.1789 212.137 38.2325L211.908 37.9493C211.411 37.1344 210.728 36.4393 209.893 35.9423L194.487 26.7281C193.718 26.2686 192.52 25.5982 191.375 25.5996C191.03 25.5996 190.688 25.6603 190.366 25.8048Z" fill="white"/>
</mask>
<g mask="url(#mask6_5794_1367)">
<path fill-rule="evenodd" clip-rule="evenodd" d="M190.366 25.8048C190.026 26.4622 189.034 26.8711 189.032 29.0891V29.5962V48.3685C189.032 49.5534 189.349 50.692 189.92 51.6731C190.45 52.5834 191.199 53.3578 192.12 53.9083L207.499 63.1038C208.825 63.793 209.666 63.9895 210.306 63.9996H210.412C210.984 63.9909 211.4 63.8363 211.881 63.7771C212.789 63.0243 213.032 61.1054 213.032 60.0738V41.4474C213.032 40.2886 212.713 39.1789 212.137 38.2325L211.908 37.9493C211.411 37.1344 210.728 36.4393 209.893 35.9423L194.487 26.7281C193.718 26.2686 192.52 25.5982 191.375 25.5996C191.03 25.5996 190.688 25.6603 190.366 25.8048Z" fill="url(#paint0_linear_5794_1367)"/>
</g>
<path fill-rule="evenodd" clip-rule="evenodd" d="M205.552 51.9132C205.09 51.9618 204.764 52.182 203.586 51.651L196.968 48.2345C196.556 48.0201 196.219 47.7188 195.981 47.3642C195.725 46.981 195.583 46.5377 195.583 46.0763L195.595 39.1566L195.485 38.1095C195.486 37.2459 195.931 37.0867 196.085 36.8302C196.71 36.5852 197.484 36.958 197.933 37.1906L204.674 41.4635C205.048 41.657 205.355 41.9277 205.578 42.2452L205.68 42.3558C205.938 42.7237 206.083 43.1565 206.083 43.6083L206.069 50.4699C206.069 50.8722 205.973 51.6186 205.565 51.9132" fill="#641312"/>
<g clip-path="url(#clip2_5794_1367)">
<path fill-rule="evenodd" clip-rule="evenodd" d="M281.253 25.0374L275.509 28.3534L269.766 31.6704C269.328 31.9234 268.973 32.2824 268.728 32.7044C268.482 33.1274 268.345 33.6134 268.342 34.1194L268.303 40.6494L268.264 47.1814C268.261 47.6954 268.397 48.1914 268.646 48.6214C268.894 49.0524 269.255 49.4184 269.703 49.6724L275.378 52.9044L281.053 56.1364C281.493 56.3864 281.982 56.5114 282.471 56.5094C282.96 56.5084 283.448 56.3804 283.886 56.1284L289.234 52.9704L294.582 49.8114C295.02 49.5594 295.394 49.1414 295.66 48.6584C295.925 48.1764 296.082 47.6314 296.085 47.1254L296.084 40.5954V34.0634C296.086 33.5494 295.99 32.9544 295.781 32.4254C295.572 31.8954 295.251 31.4314 294.803 31.1764L289.445 28.1024L284.086 25.0294C283.647 24.7784 283.157 24.6544 282.669 24.6563C282.179 24.6574 281.691 24.7844 281.253 25.0374Z" fill="#64120F"/>
<path fill-rule="evenodd" clip-rule="evenodd" d="M274.245 28.327L268.502 31.644C268.064 31.897 267.709 32.256 267.464 32.678C267.218 33.101 267.081 33.587 267.078 34.093L267.039 40.623L267 47.155C266.997 47.669 267.133 48.165 267.382 48.595C267.63 49.026 267.991 49.392 268.439 49.646L274.114 52.878L279.789 56.11C280.229 56.36 280.718 56.485 281.207 56.483C281.696 56.482 282.185 56.354 282.622 56.102L288.366 52.785L294.11 49.469C294.548 49.216 294.902 48.857 295.148 48.434C295.394 48.012 295.531 47.526 295.533 47.02L295.572 40.489L295.612 33.958C295.614 33.444 295.478 32.948 295.23 32.517C294.981 32.087 294.62 31.721 294.173 31.466L288.497 28.235L282.822 25.003C282.383 24.752 281.893 24.628 281.405 24.6299C280.915 24.631 280.427 24.758 279.989 25.011L274.245 28.327Z" fill="#D62821"/>
<path fill-rule="evenodd" clip-rule="evenodd" d="M267.419 32.7844C267.632 32.7974 267.837 32.8344 268.037 32.8944C268.237 32.9564 268.431 33.0414 268.623 33.1504L274.299 36.3824L279.974 39.6144C280.421 39.8684 280.783 40.2344 281.031 40.6654C281.28 41.0954 281.416 41.5914 281.413 42.1054L281.374 48.6374L281.335 55.1674C281.334 55.3994 281.304 55.6274 281.249 55.8464C281.193 56.0654 281.112 56.2764 281.008 56.4744L280.925 56.4684L280.841 56.4604C280.659 56.4374 280.479 56.3964 280.303 56.3384C280.127 56.2794 279.955 56.2034 279.79 56.1094L274.114 52.8784L268.439 49.6454C267.992 49.3914 267.63 49.0254 267.382 48.5954C267.133 48.1654 266.998 47.6694 267.001 47.1544L267.04 40.6234L267.078 34.0934C267.08 33.8404 267.102 33.6164 267.154 33.4034C267.207 33.1914 267.289 32.9884 267.412 32.7774L267.416 32.7804L267.419 32.7844Z" fill="#64120F"/>
<path d="M258.2 31L282 16.2L305.8 31V50L282 64L258.2 50V31Z" stroke="#D62821"/>
</g>
<g clip-path="url(#clip3_5794_1367)">
<g opacity="0.347982">
<path fill-rule="evenodd" clip-rule="evenodd" d="M345.253 17.4076L339.509 20.7236L333.766 24.0406C333.328 24.2936 332.973 24.6526 332.728 25.0746C332.482 25.4976 332.345 25.9836 332.342 26.4896L332.303 33.0196L332.264 39.5516C332.261 40.0656 332.397 40.5616 332.646 40.9916C332.894 41.4226 333.255 41.7886 333.703 42.0426L339.378 45.2746L345.053 48.5066C345.493 48.7566 345.982 48.8816 346.471 48.8796C346.96 48.8786 347.448 48.7506 347.886 48.4986L353.234 45.3406L358.582 42.1816C359.02 41.9296 359.394 41.5116 359.66 41.0286C359.925 40.5466 360.082 40.0016 360.085 39.4956L360.084 32.9656V26.4336C360.086 25.9196 359.99 25.3246 359.781 24.7956C359.572 24.2656 359.251 23.8016 358.803 23.5466L353.445 20.4726L348.086 17.3996C347.647 17.1486 347.157 17.0246 346.669 17.0266C346.179 17.0276 345.691 17.1546 345.253 17.4076Z" fill="#64120F"/>
<mask id="mask7_5794_1367" style="mask-type:luminance" maskUnits="userSpaceOnUse" x="331" y="17" width="29" height="32">
<g opacity="0.347982">
<path d="M331 17.0002H359.612V48.8532H331V17.0002Z" fill="white"/>
</g>
</mask>
<g mask="url(#mask7_5794_1367)">
<path fill-rule="evenodd" clip-rule="evenodd" d="M343.989 17.3812L338.245 20.6972L332.502 24.0142C332.064 24.2672 331.709 24.6262 331.464 25.0482C331.218 25.4712 331.081 25.9572 331.078 26.4632L331.039 32.9932L331 39.5252C330.997 40.0392 331.133 40.5352 331.382 40.9652C331.63 41.3962 331.991 41.7622 332.439 42.0162L338.114 45.2482L343.789 48.4802C344.229 48.7302 344.718 48.8552 345.207 48.8532C345.696 48.8522 346.185 48.7242 346.622 48.4722L352.366 45.1552L358.11 41.8392C358.548 41.5862 358.902 41.2272 359.148 40.8042C359.394 40.3822 359.531 39.8962 359.533 39.3902L359.572 32.8592L359.612 26.3282C359.614 25.8142 359.478 25.3182 359.23 24.8872C358.981 24.4572 358.62 24.0912 358.173 23.8362L352.497 20.6052L346.822 17.3732C346.383 17.1222 345.893 16.9982 345.405 17.0002C344.915 17.0012 344.427 17.1282 343.989 17.3812Z" fill="#D62821"/>
</g>
<mask id="mask8_5794_1367" style="mask-type:luminance" maskUnits="userSpaceOnUse" x="331" y="17" width="29" height="32">
<g opacity="0.347982">
<path d="M331 17.0002H359.612V48.8532H331V17.0002Z" fill="white"/>
</g>
</mask>
<g mask="url(#mask8_5794_1367)">
<path fill-rule="evenodd" clip-rule="evenodd" d="M331.419 25.1546C331.632 25.1676 331.837 25.2046 332.037 25.2646C332.237 25.3266 332.431 25.4116 332.623 25.5206L338.299 28.7526L343.974 31.9846C344.421 32.2386 344.783 32.6046 345.031 33.0356C345.28 33.4656 345.416 33.9616 345.413 34.4756L345.374 41.0076L345.335 47.5376C345.334 47.7696 345.304 47.9976 345.249 48.2166C345.193 48.4356 345.112 48.6466 345.008 48.8446L344.925 48.8386L344.841 48.8306C344.659 48.8076 344.479 48.7666 344.303 48.7086C344.127 48.6496 343.955 48.5736 343.79 48.4796L338.114 45.2486L332.439 42.0156C331.992 41.7616 331.63 41.3956 331.382 40.9656C331.133 40.5356 330.998 40.0396 331.001 39.5246L331.04 32.9936L331.078 26.4636C331.08 26.2106 331.102 25.9866 331.154 25.7736C331.207 25.5616 331.289 25.3586 331.412 25.1476L331.416 25.1506L331.419 25.1546Z" fill="#64120F"/>
</g>
</g>
<g style="mix-blend-mode:multiply">
<mask id="mask9_5794_1367" style="mask-type:luminance" maskUnits="userSpaceOnUse" x="350" y="31" width="29" height="33">
<g style="mix-blend-mode:multiply">
<path d="M350.201 31.7766H378.022V63.6295H350.201V31.7766Z" fill="white"/>
</g>
</mask>
<g mask="url(#mask9_5794_1367)">
<path fill-rule="evenodd" clip-rule="evenodd" d="M363.19 32.1576L357.446 35.4736L351.703 38.7906C351.265 39.0436 350.91 39.4026 350.665 39.8246C350.419 40.2476 350.282 40.7336 350.279 41.2396L350.24 47.7696L350.201 54.3016C350.198 54.8156 350.334 55.3116 350.583 55.7416C350.831 56.1726 351.192 56.5386 351.64 56.7926L357.315 60.0246L362.99 63.2566C363.43 63.5066 363.919 63.6316 364.408 63.6296C364.897 63.6286 365.385 63.5006 365.823 63.2486L371.171 60.0906L376.519 56.9316C376.957 56.6796 377.331 56.2616 377.597 55.7786C377.862 55.2966 378.019 54.7516 378.022 54.2456L378.021 47.7156V41.1836C378.023 40.6696 377.927 40.0746 377.718 39.5456C377.509 39.0156 377.188 38.5516 376.74 38.2966L371.382 35.2226L366.023 32.1496C365.584 31.8986 365.094 31.7746 364.606 31.7766C364.116 31.7776 363.628 31.9046 363.19 32.1576Z" fill="#64120F"/>
</g>
<path fill-rule="evenodd" clip-rule="evenodd" d="M356.182 35.4472L350.439 38.7642C350.001 39.0172 349.646 39.3762 349.401 39.7982C349.155 40.2212 349.018 40.7072 349.015 41.2132L348.976 47.7432L348.937 54.2752C348.934 54.7892 349.07 55.2852 349.319 55.7152C349.567 56.1462 349.928 56.5122 350.376 56.7662L356.051 59.9982L361.726 63.2302C362.166 63.4802 362.655 63.6052 363.144 63.6033C363.633 63.6022 364.122 63.4742 364.559 63.2222L370.303 59.9052L376.047 56.5892C376.485 56.3362 376.839 55.9772 377.085 55.5542C377.331 55.1322 377.468 54.6462 377.47 54.1402L377.509 47.6092L377.549 41.0782C377.551 40.5642 377.415 40.0682 377.167 39.6372C376.918 39.2072 376.557 38.8412 376.11 38.5862L370.434 35.3552L364.759 32.1232C364.32 31.8722 363.83 31.7482 363.342 31.7502C362.852 31.7512 362.364 31.8782 361.926 32.1312L356.182 35.4472Z" fill="#D62821"/>
<path fill-rule="evenodd" clip-rule="evenodd" d="M349.356 39.9046C349.569 39.9176 349.774 39.9546 349.974 40.0146C350.174 40.0766 350.368 40.1616 350.56 40.2706L356.236 43.5026L361.911 46.7346C362.358 46.9886 362.72 47.3546 362.968 47.7856C363.217 48.2156 363.353 48.7116 363.35 49.2256L363.311 55.7576L363.272 62.2876C363.271 62.5196 363.241 62.7476 363.186 62.9666C363.13 63.1856 363.049 63.3966 362.945 63.5946L362.862 63.5886L362.778 63.5806C362.596 63.5576 362.416 63.5166 362.24 63.4586C362.064 63.3996 361.892 63.3236 361.727 63.2296L356.051 59.9986L350.376 56.7656C349.929 56.5116 349.567 56.1456 349.319 55.7156C349.07 55.2856 348.935 54.7896 348.938 54.2746L348.977 47.7436L349.015 41.2136C349.017 40.9606 349.039 40.7366 349.091 40.5236C349.144 40.3116 349.226 40.1086 349.349 39.8976L349.353 39.9006L349.356 39.9046Z" fill="#64120F"/>
</g>
</g>
<defs>
<filter id="filter0_d_5794_1367" x="189" y="16" width="41.832" height="47.3628" filterUnits="userSpaceOnUse" color-interpolation-filters="sRGB">
<feFlood flood-opacity="0" result="BackgroundImageFix"/>
<feColorMatrix in="SourceAlpha" type="matrix" values="0 0 0 0 0 0 0 0 0 0 0 0 0 0 0 0 0 0 127 0" result="hardAlpha"/>
<feOffset dx="1"/>
<feColorMatrix type="matrix" values="0 0 0 0 0.392157 0 0 0 0 0.0745098 0 0 0 0 0.0705882 0 0 0 1 0"/>
<feBlend mode="normal" in2="BackgroundImageFix" result="effect1_dropShadow_5794_1367"/>
<feBlend mode="normal" in="SourceGraphic" in2="effect1_dropShadow_5794_1367" result="shape"/>
</filter>
<linearGradient id="paint0_linear_5794_1367" x1="951.919" y1="2619.29" x2="2180.18" y2="1884.84" gradientUnits="userSpaceOnUse">
<stop stop-color="#FBB6AA"/>
<stop offset="1" stop-color="#F6CFC6"/>
</linearGradient>
<clipPath id="clip0_5794_1367">
<rect width="48" height="48" fill="white" transform="translate(42 16)"/>
</clipPath>
<clipPath id="clip1_5794_1367">
<rect width="48" height="48" fill="white" transform="translate(114 16)"/>
</clipPath>
<clipPath id="clip2_5794_1367">
<rect width="48" height="48" fill="white" transform="translate(258 16)"/>
</clipPath>
<clipPath id="clip3_5794_1367">
<rect width="48" height="48" fill="white" transform="translate(330 16)"/>
</clipPath>
</defs>
</svg>
