<svg width="310" height="157" viewBox="0 0 310 157" fill="none" xmlns="http://www.w3.org/2000/svg">
<g clip-path="url(#clip0_4860_4349)">
<rect x="228.203" y="130.145" width="26.9443" height="64.6191" rx="13.4721" transform="rotate(90 228.203 130.145)" fill="#EA580C"/>
<path d="M13.4721 157.089C6.03169 157.089 -1.72477e-06 151.058 -3.85239e-06 143.617V143.617C-5.98e-06 136.177 6.03168 130.145 13.4721 130.145L50.3777 130.145C57.8182 130.145 63.8499 136.177 63.8499 143.617V143.617C63.8499 151.058 57.8182 157.089 50.3777 157.089L13.4721 157.089Z" fill="#2563EB"/>
<rect x="246.145" y="157.089" width="26.9443" height="63.8499" rx="13.4721" transform="rotate(-90 246.145 157.089)" fill="#FBBF24"/>
<rect x="145.641" y="130.145" width="26.9443" height="63.8499" rx="13.4721" transform="rotate(90 145.641 130.145)" fill="#172554"/>
<path d="M0 16.0755C0 7.57829 6.88833 0.689941 15.3855 0.689941H294.614C303.112 0.689941 310 7.57827 310 16.0755V94.5225C310 103.02 303.112 109.908 294.614 109.908H15.3855C6.88832 109.908 0 103.02 0 94.5226V16.0755Z" fill="#172554"/>
<path d="M55.6406 71.1047L55.6406 78.128C55.6406 80.969 57.97 83.2721 60.8435 83.2721H71.951C80.7761 83.2721 87.9303 76.1988 87.9303 67.4734L87.9301 65.9607C87.9301 68.8017 85.6007 71.1047 82.7273 71.1047H76.0351C76.1964 71.5629 76.2841 72.0551 76.2841 72.5676C76.2841 75.0241 74.2699 77.0155 71.7854 77.0155C69.3008 77.0155 67.2866 75.0241 67.2866 72.5676C67.2866 72.0551 67.3743 71.5629 67.5356 71.1047H55.6406Z" fill="white"/>
<path d="M71.9648 83.272H84.2589C93.084 83.272 100.238 76.1987 100.238 67.4733V44.324C100.238 41.483 97.9088 39.1799 95.0353 39.1799H87.9318V50.9405C87.4684 50.781 86.9705 50.6944 86.4521 50.6944C83.9675 50.6944 81.9534 52.6858 81.9534 55.1423C81.9534 57.5988 83.9675 59.5902 86.4521 59.5902C86.9705 59.5902 87.4684 59.5036 87.9318 59.3441V65.9606L87.9319 67.4733C87.9319 76.1947 80.7844 83.2655 71.9648 83.272Z" fill="white"/>
<path d="M87.9336 39.18L87.9336 32.1567C87.9336 29.3157 85.6042 27.0126 82.7307 27.0126L71.6232 27.0126C62.7981 27.0126 55.6439 34.0859 55.6439 42.8113L55.6441 44.324C55.6441 41.483 57.9735 39.18 60.847 39.18L67.5391 39.18C67.3778 38.7218 67.2901 38.2296 67.2901 37.7171C67.2901 35.2606 69.3043 33.2692 71.7889 33.2692C74.2735 33.2692 76.2876 35.2606 76.2876 37.7171C76.2876 38.2296 76.2 38.7218 76.0387 39.18L87.9336 39.18Z" fill="white"/>
<path d="M71.6033 27.0126C62.7884 27.0244 55.6462 34.0932 55.6462 42.8113L55.6464 44.2818C55.6462 44.2958 55.6462 44.3099 55.6462 44.324V50.9405C55.1828 50.781 54.6849 50.6943 54.1666 50.6943C51.682 50.6943 49.6678 52.6857 49.6678 55.1422C49.6678 57.5988 51.682 59.5902 54.1666 59.5902C54.6849 59.5902 55.1828 59.5035 55.6462 59.344V71.1047L48.5427 71.1047C45.6692 71.1047 43.3398 68.8016 43.3398 65.9606V42.8113C43.3398 34.0859 50.494 27.0126 59.3191 27.0126H71.6033Z" fill="white"/>
<path fill-rule="evenodd" clip-rule="evenodd" d="M73.7954 56.8942C75.2669 56.1654 76.277 54.6606 76.277 52.9226C76.277 50.4708 74.2668 48.4833 71.787 48.4833C69.3072 48.4833 67.2969 50.4708 67.2969 52.9226C67.2969 54.6606 68.307 56.1653 69.7785 56.8942L67.2969 61.8014H76.277L73.7954 56.8942Z" fill="white"/>
<path d="M122.413 52.6433C123.918 52.6433 125.264 52.909 126.452 53.4403C127.64 53.952 128.571 54.6998 129.244 55.6838C129.937 56.6677 130.284 57.8386 130.284 59.1965H128.264C128.224 58.1732 127.937 57.2975 127.403 56.5693C126.888 55.8412 126.195 55.2902 125.324 54.9163C124.472 54.5424 123.512 54.3554 122.443 54.3554C120.878 54.3554 119.601 54.6998 118.611 55.3886C117.641 56.0773 117.156 57.1302 117.156 58.5471C117.156 59.5114 117.443 60.2297 118.017 60.702C118.611 61.1743 119.314 61.5088 120.126 61.7056L125.294 62.9749C127.313 63.4669 128.769 64.1655 129.66 65.0708C130.571 65.976 131.026 67.1469 131.026 68.5835C131.026 69.4691 130.808 70.3645 130.373 71.2697C129.957 72.175 129.145 72.9621 127.937 73.6312C126.729 74.2807 125.056 74.6054 122.918 74.6054C121.175 74.6054 119.671 74.3495 118.403 73.8379C117.136 73.3065 116.156 72.5292 115.463 71.5059C114.79 70.4826 114.453 69.2329 114.453 67.757V67.2256H116.473V67.4028C116.473 69.2723 117.067 70.6597 118.255 71.5649C119.463 72.4505 121.156 72.8933 123.334 72.8933C124.205 72.8933 125.076 72.7358 125.947 72.421C126.818 72.1061 127.541 71.6338 128.115 71.0041C128.709 70.3546 129.006 69.5576 129.006 68.613C129.006 67.6684 128.65 66.8911 127.937 66.281C127.224 65.671 126.165 65.1888 124.759 64.8346L119.918 63.6539C118.294 63.2603 117.087 62.6601 116.295 61.8532C115.522 61.0464 115.136 59.9542 115.136 58.5766C115.136 57.6714 115.364 56.7661 115.819 55.8609C116.295 54.9556 117.077 54.198 118.166 53.5879C119.255 52.9582 120.67 52.6433 122.413 52.6433Z" fill="white"/>
<path d="M139.784 58.488C143.527 58.488 145.398 60.1214 145.398 63.3882V71.4764C145.398 72.2242 145.764 72.5981 146.497 72.5981C146.695 72.5981 146.893 72.5587 147.091 72.48V74.0445C146.695 74.1232 146.299 74.1626 145.903 74.1626C145.091 74.1626 144.517 73.9658 144.18 73.5722C143.843 73.1786 143.675 72.5194 143.675 71.5944V71.5059H143.616C143.101 72.293 142.576 72.9129 142.042 73.3656C141.507 73.8182 140.913 74.1331 140.259 74.3102C139.626 74.507 138.883 74.6054 138.032 74.6054C137.002 74.6054 136.101 74.4381 135.329 74.1035C134.557 73.7493 133.953 73.2377 133.517 72.5686C133.102 71.8995 132.894 71.0926 132.894 70.148C132.894 68.6917 133.399 67.5995 134.408 66.8714C134.943 66.4975 135.626 66.1925 136.458 65.9563C137.309 65.7202 138.606 65.5135 140.349 65.3364C141.24 65.238 141.883 65.1396 142.279 65.0412C142.675 64.9428 142.982 64.7559 143.2 64.4804C143.418 64.2049 143.527 63.7719 143.527 63.1816C143.527 62.0795 143.19 61.2825 142.517 60.7905C141.844 60.2985 140.844 60.0526 139.517 60.0526C138.25 60.0526 137.26 60.3576 136.547 60.9676C135.834 61.558 135.458 62.4337 135.418 63.5948H133.547C133.646 61.9221 134.23 60.6528 135.299 59.7869C136.369 58.921 137.864 58.488 139.784 58.488ZM143.467 65.8383C143.348 66.035 143.131 66.1925 142.814 66.3106C142.517 66.409 142.091 66.4975 141.537 66.5762L140.616 66.7238C139.329 66.8813 138.388 67.0387 137.794 67.1961C136.864 67.4323 136.121 67.757 135.567 68.1702C135.032 68.5835 134.765 69.2034 134.765 70.0299C134.765 70.6203 134.923 71.1517 135.24 71.624C135.557 72.0766 135.973 72.4308 136.488 72.6866C137.002 72.9228 137.567 73.0409 138.18 73.0409C139.19 73.0409 140.101 72.8441 140.913 72.4505C141.725 72.0372 142.358 71.4764 142.814 70.7679C143.289 70.0398 143.527 69.2132 143.527 68.2883V65.8383H143.467Z" fill="white"/>
<path d="M149.988 60.4953H147.374V58.9308H149.988V57.4549C149.988 55.9593 150.265 54.8572 150.82 54.1488C151.394 53.4403 152.364 53.0861 153.73 53.0861C154.245 53.0861 154.76 53.1255 155.275 53.2042V54.7982C154.74 54.6998 154.285 54.6506 153.909 54.6506C153.354 54.6506 152.928 54.749 152.631 54.9458C152.334 55.1229 152.127 55.3886 152.008 55.7428C151.909 56.097 151.859 56.5792 151.859 57.1892V58.9308H154.889V60.4953H151.859V74.1626H149.988V60.4953Z" fill="white"/>
<path d="M162.664 58.488C164.07 58.488 165.278 58.8324 166.287 59.5212C167.297 60.21 168.069 61.1743 168.604 62.4141C169.139 63.6342 169.406 65.0314 169.406 66.6057V67.0485H157.615C157.635 68.0915 157.833 69.0755 158.209 70.0004C158.585 70.9057 159.149 71.6436 159.902 72.2143C160.654 72.7654 161.575 73.0409 162.664 73.0409C163.911 73.0409 164.941 72.7162 165.753 72.0667C166.584 71.3976 167.159 70.4235 167.475 69.1444H169.347C168.911 70.9942 168.139 72.3718 167.03 73.277C165.941 74.1626 164.486 74.6054 162.664 74.6054C161.159 74.6054 159.892 74.2708 158.862 73.6017C157.833 72.9129 157.051 71.9585 156.516 70.7384C156.001 69.5183 155.744 68.121 155.744 66.5467C155.744 65.1101 155.991 63.7818 156.486 62.5617C157.001 61.3219 157.773 60.3379 158.803 59.6098C159.852 58.862 161.139 58.488 162.664 58.488ZM167.535 65.484C167.495 64.5197 167.277 63.6243 166.881 62.7978C166.485 61.9713 165.921 61.312 165.189 60.82C164.456 60.3084 163.604 60.0526 162.634 60.0526C161.743 60.0526 160.941 60.2789 160.229 60.7315C159.535 61.1644 158.961 61.7942 158.506 62.6207C158.05 63.4275 157.753 64.382 157.615 65.484H167.535Z" fill="white"/>
<path d="M179.045 60.5839C177.976 60.5839 177.026 60.8299 176.194 61.3219C175.382 61.7942 174.749 62.4534 174.293 63.2996C173.858 64.1262 173.64 65.0511 173.64 66.0744V74.1626H171.769V58.9308H173.491V62.5026H173.551C174.006 61.3022 174.709 60.3773 175.66 59.7278C176.61 59.0587 177.709 58.7242 178.956 58.7242H179.342V60.5839H179.045Z" fill="white"/>
<path d="M191.919 68.3474C191.919 69.8036 191.711 70.9942 191.295 71.9191C190.899 72.8244 190.245 73.5033 189.335 73.9559C188.444 74.3889 187.256 74.6054 185.771 74.6054C183.771 74.6054 182.276 74.015 181.286 72.8342C180.316 71.6535 179.83 69.8627 179.83 67.4618V67.4028H181.85C181.85 68.6032 181.959 69.597 182.177 70.3842C182.414 71.1713 182.83 71.7912 183.424 72.2439C184.038 72.6768 184.88 72.8933 185.949 72.8933C186.939 72.8933 187.711 72.726 188.265 72.3914C188.84 72.0569 189.255 71.5059 189.513 70.7384C189.77 69.9709 189.899 68.9181 189.899 67.5799V53.0861H191.919V68.3474Z" fill="white"/>
<path d="M202.165 58.488C203.67 58.488 204.967 58.8521 206.056 59.5802C207.145 60.2887 207.977 61.2628 208.551 62.5026C209.125 63.7227 209.412 65.0708 209.412 66.5467C209.412 68.0423 209.125 69.41 208.551 70.6498C207.977 71.8699 207.135 72.8342 206.026 73.5427C204.937 74.2511 203.65 74.6054 202.165 74.6054C200.68 74.6054 199.383 74.2511 198.275 73.5427C197.186 72.8145 196.354 71.8404 195.78 70.6203C195.205 69.4002 194.918 68.0423 194.918 66.5467C194.918 65.0511 195.205 63.6932 195.78 62.4731C196.354 61.253 197.186 60.2887 198.275 59.5802C199.383 58.8521 200.68 58.488 202.165 58.488ZM196.79 66.5467C196.79 67.6881 196.997 68.7606 197.413 69.7643C197.849 70.7482 198.473 71.5452 199.284 72.1553C200.096 72.7457 201.057 73.0409 202.165 73.0409C203.294 73.0409 204.264 72.7358 205.076 72.1258C205.888 71.5157 206.502 70.7187 206.917 69.7347C207.333 68.7311 207.541 67.6684 207.541 66.5467C207.541 65.4447 207.333 64.4017 206.917 63.4177C206.521 62.4141 205.908 61.6072 205.076 60.9972C204.264 60.3674 203.284 60.0526 202.136 60.0526C201.027 60.0526 200.066 60.3576 199.255 60.9676C198.463 61.558 197.849 62.355 197.413 63.3587C196.997 64.3426 196.79 65.4053 196.79 66.5467Z" fill="white"/>
<path d="M213.887 68.4654C213.887 69.4297 213.996 70.2464 214.214 70.9155C214.451 71.5846 214.867 72.1061 215.461 72.48C216.055 72.8539 216.887 73.0409 217.956 73.0409C218.986 73.0409 219.847 72.7654 220.54 72.2143C221.233 71.6436 221.748 70.8958 222.084 69.9709C222.421 69.0263 222.589 68.003 222.589 66.9009V58.9308H224.461V74.1626H222.738V71.4173H222.679C222.183 72.421 221.471 73.2081 220.54 73.7788C219.609 74.3299 218.56 74.6054 217.392 74.6054C215.531 74.6054 214.164 74.1134 213.293 73.1294C212.442 72.1258 212.016 70.6892 212.016 68.8197V58.9308H213.887V68.4654Z" fill="white"/>
<path d="M235.126 60.5839C234.057 60.5839 233.107 60.8299 232.275 61.3219C231.463 61.7942 230.83 62.4534 230.374 63.2996C229.939 64.1262 229.721 65.0511 229.721 66.0744V74.1626H227.85V58.9308H229.572V62.5026H229.632C230.087 61.3022 230.79 60.3773 231.74 59.7278C232.691 59.0587 233.79 58.7242 235.037 58.7242H235.423V60.5839H235.126Z" fill="white"/>
<path d="M243.901 58.488C245.841 58.488 247.257 58.9604 248.148 59.905C249.039 60.8496 249.484 62.3058 249.484 64.2738V74.1626H247.613V64.628C247.613 63.1127 247.297 61.9713 246.663 61.2038C246.029 60.4363 245.049 60.0526 243.723 60.0526C242.673 60.0526 241.782 60.3084 241.049 60.82C240.337 61.312 239.802 61.9713 239.446 62.7978C239.089 63.6047 238.911 64.4804 238.911 65.425V74.1626H237.04V58.9308H238.911V61.558H238.97C239.208 60.948 239.574 60.4166 240.069 59.964C240.564 59.4917 241.139 59.1276 241.792 58.8718C242.465 58.616 243.168 58.488 243.901 58.488Z" fill="white"/>
<path d="M259.348 58.488C260.853 58.488 262.15 58.8521 263.239 59.5802C264.328 60.2887 265.16 61.2628 265.734 62.5026C266.308 63.7227 266.595 65.0708 266.595 66.5467C266.595 68.0423 266.308 69.41 265.734 70.6498C265.16 71.8699 264.318 72.8342 263.209 73.5427C262.12 74.2511 260.833 74.6054 259.348 74.6054C257.863 74.6054 256.566 74.2511 255.458 73.5427C254.369 72.8145 253.537 71.8404 252.963 70.6203C252.388 69.4002 252.101 68.0423 252.101 66.5467C252.101 65.0511 252.388 63.6932 252.963 62.4731C253.537 61.253 254.369 60.2887 255.458 59.5802C256.566 58.8521 257.863 58.488 259.348 58.488ZM253.973 66.5467C253.973 67.6881 254.18 68.7606 254.596 69.7643C255.032 70.7482 255.656 71.5452 256.467 72.1553C257.279 72.7457 258.24 73.0409 259.348 73.0409C260.477 73.0409 261.447 72.7358 262.259 72.1258C263.071 71.5157 263.685 70.7187 264.1 69.7347C264.516 68.7311 264.724 67.6684 264.724 66.5467C264.724 65.4447 264.516 64.4017 264.1 63.4177C263.704 62.4141 263.091 61.6072 262.259 60.9972C261.447 60.3674 260.467 60.0526 259.319 60.0526C258.21 60.0526 257.249 60.3576 256.438 60.9676C255.646 61.558 255.032 62.355 254.596 63.3587C254.18 64.3426 253.973 65.4053 253.973 66.5467Z" fill="white"/>
<path d="M116.848 46.8113H114.441V35.9347H116.848V46.8113Z" fill="white"/>
<path d="M123.207 38.7224C124.209 38.7224 124.939 38.9763 125.399 39.4841C125.859 39.9918 126.089 40.7992 126.089 41.9061V46.8113H123.912V42.3479C123.912 41.6878 123.805 41.2054 123.59 40.9007C123.376 40.5859 123.018 40.4285 122.518 40.4285C122.078 40.4285 121.736 40.5199 121.491 40.7027C121.245 40.8855 121.072 41.1445 120.97 41.4796C120.878 41.8046 120.832 42.2159 120.832 42.7135V46.8113H118.655V38.9357H120.724V40.0325H120.77C121.026 39.6161 121.368 39.2962 121.797 39.0728C122.226 38.8392 122.696 38.7224 123.207 38.7224Z" fill="white"/>
<path d="M130.423 38.9357H132.017V40.3828H130.423V44.2825C130.423 44.5364 130.448 44.7294 130.5 44.8614C130.551 44.9833 130.637 45.0696 130.76 45.1204C130.893 45.1711 131.087 45.1965 131.343 45.1965C131.629 45.1965 131.853 45.1762 132.017 45.1356V46.8265C131.71 46.8773 131.281 46.9027 130.729 46.9027C129.871 46.9027 129.243 46.7605 128.844 46.4761C128.446 46.1816 128.246 45.6891 128.246 44.9985V40.3828H126.928V38.9357H128.246V36.5745H130.423V38.9357Z" fill="white"/>
<path d="M136.564 38.7224C137.371 38.7224 138.066 38.9153 138.649 39.3013C139.231 39.677 139.67 40.1899 139.967 40.8398C140.273 41.4898 140.427 42.2108 140.427 43.0029L140.411 43.399H134.694C134.725 44.0794 134.899 44.5821 135.215 44.9071C135.532 45.2321 136.002 45.3946 136.625 45.3946C136.891 45.3946 137.147 45.3489 137.392 45.2575C137.637 45.1661 137.847 45.0442 138.02 44.8919C138.194 44.7294 138.306 44.5567 138.357 44.3739H140.273C139.987 45.2676 139.532 45.9328 138.909 46.3695C138.296 46.8062 137.514 47.0245 136.564 47.0245C135.736 47.0245 135.016 46.8519 134.403 46.5066C133.8 46.1512 133.335 45.6586 133.008 45.029C132.681 44.3993 132.518 43.6834 132.518 42.8811C132.518 42.0991 132.686 41.3933 133.024 40.7636C133.371 40.1238 133.851 39.6262 134.464 39.2708C135.077 38.9052 135.777 38.7224 136.564 38.7224ZM138.235 42.028C138.133 41.439 137.944 41.0125 137.668 40.7484C137.392 40.4844 136.998 40.3523 136.488 40.3523C135.966 40.3523 135.547 40.4996 135.231 40.7941C134.924 41.0886 134.745 41.4999 134.694 42.028H138.235Z" fill="white"/>
<path d="M146.254 38.7224C146.387 38.7224 146.545 38.7478 146.729 38.7986V40.8093C146.494 40.7586 146.234 40.7332 145.948 40.7332C145.202 40.7332 144.655 40.9617 144.308 41.4187C143.97 41.8655 143.802 42.4799 143.802 43.2619V46.8113H141.625V38.9357H143.695V40.398H143.725C143.858 40.0731 144.052 39.7836 144.308 39.5298C144.573 39.2759 144.875 39.0778 145.212 38.9357C145.549 38.7935 145.897 38.7224 146.254 38.7224Z" fill="white"/>
<path d="M152.058 38.7224C153.06 38.7224 153.79 38.9763 154.25 39.4841C154.71 39.9918 154.94 40.7992 154.94 41.9061V46.8113H152.763V42.3479C152.763 41.6878 152.656 41.2054 152.441 40.9007C152.227 40.5859 151.869 40.4285 151.368 40.4285C150.929 40.4285 150.587 40.5199 150.342 40.7027C150.096 40.8855 149.923 41.1445 149.82 41.4796C149.728 41.8046 149.682 42.2159 149.682 42.7135V46.8113H147.506V38.9357H149.575V40.0325H149.621C149.877 39.6161 150.219 39.2962 150.648 39.0728C151.077 38.8392 151.547 38.7224 152.058 38.7224Z" fill="white"/>
<path d="M160.178 38.7224C160.985 38.7224 161.68 38.9153 162.263 39.3013C162.845 39.677 163.284 40.1899 163.581 40.8398C163.887 41.4898 164.04 42.2108 164.04 43.0029L164.025 43.399H158.308C158.339 44.0794 158.512 44.5821 158.829 44.9071C159.146 45.2321 159.616 45.3946 160.239 45.3946C160.505 45.3946 160.76 45.3489 161.006 45.2575C161.251 45.1661 161.46 45.0442 161.634 44.8919C161.808 44.7294 161.92 44.5567 161.971 44.3739H163.887C163.601 45.2676 163.146 45.9328 162.523 46.3695C161.91 46.8062 161.128 47.0245 160.178 47.0245C159.35 47.0245 158.63 46.8519 158.017 46.5066C157.414 46.1512 156.949 45.6586 156.622 45.029C156.295 44.3993 156.132 43.6834 156.132 42.8811C156.132 42.0991 156.3 41.3933 156.637 40.7636C156.985 40.1238 157.465 39.6262 158.078 39.2708C158.691 38.9052 159.391 38.7224 160.178 38.7224ZM161.849 42.028C161.747 41.439 161.557 41.0125 161.282 40.7484C161.006 40.4844 160.612 40.3523 160.101 40.3523C159.58 40.3523 159.161 40.4996 158.845 40.7941C158.538 41.0886 158.359 41.4999 158.308 42.028H161.849Z" fill="white"/>
<path d="M168.259 44.2825H168.289L169.608 38.9357H171.723L173.071 44.2673H173.102L174.558 38.9357H176.796L174.298 46.8113H172.06L170.65 41.5253H170.619L169.27 46.8113H167.017L164.504 38.9357H166.803L168.259 44.2825Z" fill="white"/>
<path d="M180.895 38.7224C181.968 38.7224 182.801 38.9407 183.394 39.3774C183.986 39.804 184.318 40.4234 184.39 41.2359H182.321C182.29 40.8601 182.147 40.591 181.891 40.4285C181.646 40.2559 181.294 40.1695 180.834 40.1695C180.027 40.1695 179.623 40.4133 179.623 40.9007C179.623 41.0734 179.679 41.2206 179.792 41.3425C179.904 41.4542 180.083 41.5558 180.328 41.6472C180.573 41.7386 180.905 41.8249 181.324 41.9061C182.101 42.0585 182.678 42.2057 183.056 42.3479C183.434 42.4901 183.746 42.6627 183.991 42.8658C184.4 43.2314 184.604 43.7037 184.604 44.2825C184.604 44.9223 184.436 45.4504 184.099 45.8668C183.772 46.273 183.337 46.5675 182.796 46.7503C182.254 46.9331 181.651 47.0245 180.987 47.0245C180.251 47.0245 179.608 46.923 179.056 46.7199C178.514 46.5066 178.085 46.1969 177.769 45.7906C177.452 45.3743 177.283 44.8614 177.263 44.2521H179.332C179.332 44.6786 179.49 45.0087 179.807 45.2422C180.124 45.4657 180.522 45.5774 181.003 45.5774C181.401 45.5774 181.738 45.491 182.014 45.3184C182.29 45.1458 182.428 44.8969 182.428 44.572C182.428 44.379 182.346 44.2165 182.183 44.0845C182.029 43.9525 181.784 43.8306 181.447 43.7189C181.11 43.6072 180.64 43.4904 180.037 43.3685C179.414 43.2365 178.913 43.0791 178.535 42.8963C178.167 42.7135 177.891 42.4901 177.707 42.226C177.533 41.9518 177.447 41.6269 177.447 41.2511C177.447 40.4184 177.738 39.7887 178.32 39.3622C178.913 38.9357 179.771 38.7224 180.895 38.7224Z" fill="white"/>
</g>
<defs>
<clipPath id="clip0_4860_4349">
<rect width="310" height="156" fill="white" transform="translate(0 0.689941)"/>
</clipPath>
</defs>
</svg>
