<svg width="800" height="450" viewBox="0 0 800 450" fill="none" xmlns="http://www.w3.org/2000/svg">
<rect width="800" height="450" fill="#172554"/>
<path d="M164.703 261.913L164.703 278.306C164.703 284.937 170.22 290.312 177.026 290.312H203.335C224.237 290.312 241.182 273.803 241.182 253.437L241.181 249.907C241.181 256.538 235.664 261.913 228.858 261.913H213.008C213.39 262.983 213.597 264.131 213.597 265.328C213.597 271.061 208.827 275.709 202.942 275.709C197.057 275.709 192.287 271.061 192.287 265.328C192.287 264.131 192.494 262.983 192.876 261.913H164.703Z" fill="white"/>
<path d="M203.363 290.312H232.482C253.384 290.312 270.329 273.803 270.329 253.437V199.406C270.329 192.775 264.812 187.399 258.006 187.399H241.181V214.849C240.084 214.477 238.904 214.274 237.677 214.274C231.792 214.274 227.021 218.922 227.021 224.656C227.021 230.39 231.792 235.038 237.677 235.038C238.904 235.038 240.084 234.836 241.181 234.463V249.907L241.182 253.437C241.182 273.794 224.252 290.297 203.363 290.312Z" fill="white"/>
<path d="M241.184 187.399L241.184 171.007C241.184 164.376 235.666 159 228.861 159L202.552 159C181.65 159 164.705 175.51 164.705 195.875L164.706 199.406C164.706 192.775 170.223 187.399 177.029 187.399L192.879 187.399C192.497 186.33 192.289 185.181 192.289 183.985C192.289 178.251 197.06 173.603 202.945 173.603C208.829 173.603 213.6 178.251 213.6 183.985C213.6 185.181 213.392 186.33 213.01 187.399L241.184 187.399Z" fill="white"/>
<path d="M202.505 159C181.627 159.028 164.71 175.526 164.71 195.875L164.711 199.307C164.71 199.34 164.71 199.373 164.71 199.406V214.849C163.613 214.477 162.434 214.274 161.206 214.274C155.321 214.274 150.55 218.922 150.55 224.656C150.55 230.39 155.321 235.038 161.206 235.038C162.434 235.038 163.613 234.835 164.71 234.463V261.913L147.885 261.913C141.08 261.913 135.562 256.538 135.562 249.907V195.875C135.562 175.51 152.507 159 173.41 159H202.505Z" fill="white"/>
<path fill-rule="evenodd" clip-rule="evenodd" d="M207.7 228.745C211.186 227.044 213.578 223.532 213.578 219.475C213.578 213.753 208.817 209.114 202.944 209.114C197.07 209.114 192.309 213.753 192.309 219.475C192.309 223.532 194.701 227.044 198.186 228.745L192.309 240.199H213.578L207.7 228.745Z" fill="white"/>
<path d="M322.849 218.823C326.413 218.823 329.602 219.444 332.416 220.684C335.23 221.878 337.434 223.623 339.029 225.92C340.67 228.217 341.491 230.95 341.491 234.119H336.707C336.613 231.73 335.933 229.686 334.667 227.987C333.448 226.287 331.806 225.001 329.743 224.129C327.726 223.256 325.452 222.82 322.919 222.82C319.214 222.82 316.189 223.623 313.845 225.231C311.547 226.839 310.398 229.296 310.398 232.603C310.398 234.854 311.078 236.53 312.438 237.633C313.845 238.735 315.509 239.516 317.432 239.975L329.672 242.938C334.456 244.086 337.903 245.717 340.013 247.83C342.171 249.943 343.249 252.676 343.249 256.029C343.249 258.096 342.733 260.186 341.702 262.298C340.717 264.411 338.794 266.249 335.933 267.81C333.073 269.326 329.11 270.084 324.045 270.084C319.918 270.084 316.354 269.487 313.352 268.293C310.351 267.052 308.029 265.238 306.388 262.85C304.793 260.461 303.996 257.544 303.996 254.1V252.859H308.78V253.273C308.78 257.636 310.187 260.875 313 262.987C315.861 265.054 319.871 266.088 325.03 266.088C327.093 266.088 329.157 265.72 331.22 264.986C333.284 264.251 334.995 263.148 336.355 261.678C337.762 260.163 338.466 258.302 338.466 256.098C338.466 253.893 337.622 252.079 335.933 250.655C334.245 249.231 331.736 248.105 328.406 247.279L316.94 244.523C313.094 243.604 310.233 242.203 308.358 240.32C306.529 238.437 305.614 235.887 305.614 232.672C305.614 230.559 306.153 228.446 307.232 226.333C308.358 224.221 310.21 222.452 312.789 221.028C315.369 219.558 318.722 218.823 322.849 218.823Z" fill="white"/>
<path d="M363.993 232.465C372.857 232.465 377.289 236.278 377.289 243.903V262.781C377.289 264.526 378.156 265.399 379.892 265.399C380.36 265.399 380.829 265.307 381.298 265.123V268.775C380.36 268.959 379.423 269.051 378.485 269.051C376.562 269.051 375.202 268.591 374.404 267.673C373.607 266.754 373.209 265.215 373.209 263.056V262.85H373.068C371.849 264.687 370.606 266.134 369.34 267.19C368.073 268.247 366.666 268.982 365.119 269.395C363.618 269.854 361.859 270.084 359.843 270.084C357.404 270.084 355.27 269.694 353.441 268.913C351.612 268.086 350.182 266.892 349.15 265.33C348.165 263.768 347.673 261.885 347.673 259.68C347.673 256.281 348.869 253.732 351.261 252.033C352.527 251.16 354.145 250.448 356.114 249.897C358.131 249.346 361.203 248.863 365.33 248.45C367.44 248.22 368.964 247.991 369.902 247.761C370.84 247.531 371.567 247.095 372.083 246.452C372.599 245.809 372.857 244.798 372.857 243.42C372.857 240.848 372.06 238.988 370.465 237.839C368.871 236.691 366.502 236.117 363.36 236.117C360.359 236.117 358.014 236.829 356.325 238.253C354.637 239.631 353.746 241.675 353.652 244.385H349.221C349.455 240.481 350.838 237.518 353.371 235.497C355.903 233.476 359.444 232.465 363.993 232.465ZM372.716 249.621C372.435 250.08 371.919 250.448 371.169 250.724C370.465 250.953 369.457 251.16 368.144 251.344L365.963 251.688C362.915 252.056 360.687 252.423 359.28 252.79C357.076 253.342 355.317 254.1 354.004 255.064C352.738 256.029 352.105 257.476 352.105 259.405C352.105 260.783 352.48 262.023 353.23 263.125C353.981 264.182 354.965 265.008 356.185 265.606C357.404 266.157 358.741 266.432 360.195 266.432C362.586 266.432 364.744 265.973 366.666 265.054C368.589 264.09 370.09 262.781 371.169 261.127C372.294 259.428 372.857 257.499 372.857 255.34V249.621H372.716Z" fill="white"/>
<path d="M388.161 237.151H381.971V233.499H388.161V230.054C388.161 226.563 388.818 223.991 390.131 222.337C391.491 220.684 393.789 219.857 397.025 219.857C398.244 219.857 399.463 219.949 400.683 220.133V223.853C399.416 223.623 398.338 223.509 397.447 223.509C396.134 223.509 395.125 223.738 394.422 224.198C393.718 224.611 393.226 225.231 392.945 226.058C392.71 226.885 392.593 228.01 392.593 229.434V233.499H399.768V237.151H392.593V269.051H388.161V237.151Z" fill="white"/>
<path d="M418.184 232.465C421.514 232.465 424.375 233.269 426.766 234.877C429.158 236.484 430.987 238.735 432.253 241.629C433.52 244.477 434.153 247.738 434.153 251.413V252.446H406.225C406.272 254.88 406.741 257.177 407.632 259.336C408.523 261.449 409.86 263.171 411.642 264.503C413.424 265.789 415.605 266.432 418.184 266.432C421.139 266.432 423.577 265.675 425.5 264.159C427.47 262.597 428.83 260.323 429.58 257.338H434.012C432.98 261.655 431.151 264.871 428.525 266.984C425.946 269.051 422.499 270.084 418.184 270.084C414.62 270.084 411.618 269.303 409.18 267.741C406.741 266.134 404.889 263.906 403.622 261.058C402.403 258.21 401.793 254.949 401.793 251.275C401.793 247.922 402.38 244.821 403.552 241.973C404.771 239.08 406.6 236.783 409.039 235.084C411.525 233.338 414.573 232.465 418.184 232.465ZM429.721 248.794C429.627 246.544 429.111 244.454 428.173 242.525C427.235 240.595 425.899 239.057 424.164 237.908C422.428 236.714 420.412 236.117 418.114 236.117C416.003 236.117 414.104 236.645 412.416 237.702C410.774 238.712 409.414 240.182 408.336 242.111C407.257 243.994 406.553 246.222 406.225 248.794H429.721Z" fill="white"/>
<path d="M456.984 237.357C454.451 237.357 452.2 237.931 450.231 239.08C448.308 240.182 446.807 241.721 445.729 243.696C444.697 245.625 444.181 247.784 444.181 250.172V269.051H439.749V233.499H443.829V241.836H443.97C445.048 239.034 446.713 236.875 448.964 235.359C451.216 233.797 453.818 233.017 456.773 233.017H457.687V237.357H456.984Z" fill="white"/>
<path d="M487.474 255.478C487.474 258.877 486.982 261.655 485.997 263.814C485.059 265.927 483.511 267.512 481.354 268.568C479.244 269.579 476.43 270.084 472.912 270.084C468.176 270.084 464.635 268.706 462.29 265.95C459.992 263.194 458.843 259.014 458.843 253.411V253.273H463.627C463.627 256.075 463.885 258.394 464.4 260.232C464.963 262.069 465.948 263.516 467.355 264.572C468.809 265.583 470.802 266.088 473.334 266.088C475.679 266.088 477.508 265.697 478.822 264.917C480.182 264.136 481.166 262.85 481.776 261.058C482.386 259.267 482.691 256.81 482.691 253.686V219.857H487.474V255.478Z" fill="white"/>
<path d="M511.744 232.465C515.308 232.465 518.38 233.315 520.959 235.015C523.538 236.668 525.508 238.942 526.868 241.836C528.228 244.683 528.908 247.83 528.908 251.275C528.908 254.766 528.228 257.958 526.868 260.852C525.508 263.699 523.515 265.95 520.889 267.604C518.309 269.257 515.261 270.084 511.744 270.084C508.226 270.084 505.154 269.257 502.528 267.604C499.949 265.904 497.979 263.631 496.619 260.783C495.259 257.935 494.579 254.766 494.579 251.275C494.579 247.784 495.259 244.615 496.619 241.767C497.979 238.919 499.949 236.668 502.528 235.015C505.154 233.315 508.226 232.465 511.744 232.465ZM499.011 251.275C499.011 253.939 499.503 256.442 500.488 258.785C501.52 261.081 502.997 262.942 504.92 264.365C506.843 265.743 509.117 266.432 511.744 266.432C514.417 266.432 516.715 265.72 518.637 264.297C520.56 262.873 522.014 261.012 522.999 258.716C523.984 256.373 524.476 253.893 524.476 251.275C524.476 248.702 523.984 246.268 522.999 243.971C522.061 241.629 520.607 239.746 518.637 238.322C516.715 236.852 514.393 236.117 511.673 236.117C509.047 236.117 506.772 236.829 504.85 238.253C502.974 239.631 501.52 241.491 500.488 243.834C499.503 246.13 499.011 248.611 499.011 251.275Z" fill="white"/>
<path d="M539.507 255.753C539.507 258.004 539.765 259.91 540.281 261.472C540.843 263.033 541.828 264.251 543.235 265.123C544.642 265.996 546.612 266.432 549.144 266.432C551.583 266.432 553.623 265.789 555.264 264.503C556.906 263.171 558.125 261.426 558.922 259.267C559.72 257.062 560.118 254.674 560.118 252.101V233.499H564.55V269.051H560.47V262.643H560.329C559.157 264.986 557.468 266.823 555.264 268.155C553.06 269.441 550.575 270.084 547.808 270.084C543.399 270.084 540.163 268.936 538.1 266.639C536.083 264.297 535.075 260.943 535.075 256.58V233.499H539.507V255.753Z" fill="white"/>
<path d="M589.812 237.357C587.28 237.357 585.028 237.931 583.059 239.08C581.136 240.182 579.635 241.721 578.557 243.696C577.525 245.625 577.009 247.784 577.009 250.172V269.051H572.577V233.499H576.657V241.836H576.798C577.877 239.034 579.541 236.875 581.793 235.359C584.044 233.797 586.646 233.017 589.601 233.017H590.516V237.357H589.812Z" fill="white"/>
<path d="M610.594 232.465C615.19 232.465 618.544 233.568 620.654 235.773C622.764 237.977 623.82 241.376 623.82 245.97V269.051H619.388V246.796C619.388 243.26 618.637 240.595 617.137 238.804C615.636 237.013 613.314 236.117 610.172 236.117C607.687 236.117 605.576 236.714 603.841 237.908C602.153 239.057 600.887 240.595 600.042 242.525C599.198 244.408 598.776 246.452 598.776 248.657V269.051H594.344V233.499H598.776V239.631H598.917C599.48 238.207 600.347 236.967 601.52 235.91C602.692 234.808 604.052 233.958 605.6 233.361C607.194 232.764 608.859 232.465 610.594 232.465Z" fill="white"/>
<path d="M647.182 232.465C650.746 232.465 653.818 233.315 656.398 235.015C658.977 236.668 660.947 238.942 662.307 241.836C663.667 244.683 664.347 247.83 664.347 251.275C664.347 254.766 663.667 257.958 662.307 260.852C660.947 263.699 658.953 265.95 656.327 267.604C653.748 269.257 650.699 270.084 647.182 270.084C643.665 270.084 640.593 269.257 637.967 267.604C635.387 265.904 633.418 263.631 632.058 260.783C630.698 257.935 630.018 254.766 630.018 251.275C630.018 247.784 630.698 244.615 632.058 241.767C633.418 238.919 635.387 236.668 637.967 235.015C640.593 233.315 643.665 232.465 647.182 232.465ZM634.449 251.275C634.449 253.939 634.942 256.442 635.927 258.785C636.958 261.081 638.436 262.942 640.359 264.365C642.281 265.743 644.556 266.432 647.182 266.432C649.855 266.432 652.153 265.72 654.076 264.297C655.999 262.873 657.453 261.012 658.438 258.716C659.422 256.373 659.915 253.893 659.915 251.275C659.915 248.702 659.422 246.268 658.438 243.971C657.5 241.629 656.046 239.746 654.076 238.322C652.153 236.852 649.832 236.117 647.112 236.117C644.486 236.117 642.211 236.829 640.288 238.253C638.412 239.631 636.958 241.491 635.927 243.834C634.942 246.13 634.449 248.611 634.449 251.275Z" fill="white"/>
<path d="M309.668 205.211H303.969V179.825H309.668V205.211Z" fill="white"/>
<path d="M324.731 186.331C327.103 186.331 328.833 186.924 329.922 188.109C331.011 189.294 331.556 191.179 331.556 193.762V205.211H326.401V194.793C326.401 193.253 326.147 192.127 325.638 191.416C325.13 190.681 324.283 190.314 323.097 190.314C322.057 190.314 321.246 190.527 320.665 190.954C320.084 191.38 319.673 191.985 319.431 192.767C319.213 193.525 319.104 194.485 319.104 195.647V205.211H313.949V186.829H318.85V189.389H318.959C319.564 188.417 320.375 187.671 321.391 187.149C322.408 186.604 323.521 186.331 324.731 186.331Z" fill="white"/>
<path d="M341.821 186.829H345.597V190.207H341.821V199.309C341.821 199.902 341.882 200.352 342.003 200.66C342.124 200.945 342.329 201.146 342.62 201.265C342.934 201.383 343.394 201.442 343.999 201.442C344.677 201.442 345.209 201.395 345.597 201.3V205.247C344.87 205.365 343.854 205.425 342.547 205.425C340.514 205.425 339.026 205.093 338.082 204.429C337.138 203.742 336.666 202.592 336.666 200.98V190.207H333.544V186.829H336.666V181.318H341.821V186.829Z" fill="white"/>
<path d="M356.367 186.331C358.279 186.331 359.924 186.782 361.304 187.682C362.683 188.559 363.724 189.756 364.426 191.274C365.152 192.791 365.515 194.473 365.515 196.322L365.479 197.247H351.938C352.01 198.835 352.422 200.008 353.172 200.767C353.922 201.525 355.036 201.905 356.512 201.905C357.141 201.905 357.746 201.798 358.327 201.585C358.908 201.371 359.404 201.087 359.815 200.731C360.227 200.352 360.493 199.949 360.614 199.522H365.152C364.474 201.608 363.397 203.161 361.921 204.18C360.469 205.199 358.617 205.709 356.367 205.709C354.406 205.709 352.7 205.306 351.248 204.5C349.82 203.67 348.719 202.521 347.945 201.051C347.17 199.582 346.783 197.91 346.783 196.038C346.783 194.213 347.182 192.565 347.981 191.096C348.804 189.602 349.941 188.441 351.393 187.611C352.845 186.758 354.503 186.331 356.367 186.331ZM360.324 194.047C360.082 192.672 359.634 191.676 358.98 191.06C358.327 190.444 357.395 190.136 356.185 190.136C354.951 190.136 353.959 190.479 353.208 191.167C352.482 191.854 352.059 192.814 351.938 194.047H360.324Z" fill="white"/>
<path d="M379.318 186.331C379.632 186.331 380.008 186.391 380.443 186.509V191.202C379.887 191.084 379.269 191.025 378.592 191.025C376.825 191.025 375.53 191.558 374.707 192.625C373.909 193.668 373.509 195.102 373.509 196.927V205.211H368.354V186.829H373.255V190.242H373.328C373.643 189.484 374.102 188.808 374.707 188.216C375.337 187.623 376.051 187.161 376.849 186.829C377.648 186.497 378.471 186.331 379.318 186.331Z" fill="white"/>
<path d="M393.064 186.331C395.436 186.331 397.167 186.924 398.256 188.109C399.345 189.294 399.889 191.179 399.889 193.762V205.211H394.734V194.793C394.734 193.253 394.48 192.127 393.972 191.416C393.464 190.681 392.617 190.314 391.431 190.314C390.39 190.314 389.579 190.527 388.999 190.954C388.418 191.38 388.006 191.985 387.764 192.767C387.547 193.525 387.438 194.485 387.438 195.647V205.211H382.283V186.829H387.183V189.389H387.292C387.897 188.417 388.708 187.671 389.725 187.149C390.741 186.604 391.854 186.331 393.064 186.331Z" fill="white"/>
<path d="M412.297 186.331C414.208 186.331 415.854 186.782 417.234 187.682C418.613 188.559 419.654 189.756 420.356 191.274C421.082 192.791 421.445 194.473 421.445 196.322L421.408 197.247H407.868C407.94 198.835 408.352 200.008 409.102 200.767C409.852 201.525 410.965 201.905 412.442 201.905C413.071 201.905 413.676 201.798 414.257 201.585C414.838 201.371 415.334 201.087 415.745 200.731C416.157 200.352 416.423 199.949 416.544 199.522H421.082C420.404 201.608 419.327 203.161 417.851 204.18C416.399 205.199 414.547 205.709 412.297 205.709C410.336 205.709 408.63 205.306 407.178 204.5C405.75 203.67 404.649 202.521 403.874 201.051C403.1 199.582 402.713 197.91 402.713 196.038C402.713 194.213 403.112 192.565 403.911 191.096C404.734 189.602 405.871 188.441 407.323 187.611C408.775 186.758 410.433 186.331 412.297 186.331ZM416.253 194.047C416.011 192.672 415.564 191.676 414.91 191.06C414.257 190.444 413.325 190.136 412.115 190.136C410.881 190.136 409.888 190.479 409.138 191.167C408.412 191.854 407.989 192.814 407.868 194.047H416.253Z" fill="white"/>
<path d="M431.436 199.309H431.508L434.63 186.829H439.64L442.835 199.273H442.907L446.356 186.829H451.656L445.739 205.211H440.439L437.099 192.873H437.026L433.832 205.211H428.495L422.542 186.829H427.987L431.436 199.309Z" fill="white"/>
<path d="M461.365 186.331C463.907 186.331 465.879 186.841 467.283 187.86C468.686 188.856 469.473 190.302 469.642 192.198H464.742C464.669 191.321 464.33 190.693 463.725 190.314C463.144 189.911 462.309 189.709 461.22 189.709C459.308 189.709 458.352 190.278 458.352 191.416C458.352 191.819 458.485 192.162 458.752 192.447C459.018 192.708 459.441 192.945 460.022 193.158C460.603 193.371 461.39 193.573 462.382 193.762C464.221 194.118 465.589 194.462 466.484 194.793C467.38 195.125 468.118 195.528 468.699 196.002C469.667 196.856 470.151 197.958 470.151 199.309C470.151 200.802 469.751 202.035 468.953 203.007C468.178 203.955 467.15 204.642 465.867 205.069C464.584 205.496 463.156 205.709 461.583 205.709C459.841 205.709 458.316 205.472 457.009 204.998C455.726 204.5 454.71 203.777 453.96 202.829C453.21 201.857 452.81 200.66 452.762 199.238H457.663C457.663 200.233 458.038 201.004 458.788 201.549C459.538 202.07 460.482 202.331 461.62 202.331C462.563 202.331 463.362 202.13 464.016 201.727C464.669 201.324 464.996 200.743 464.996 199.985C464.996 199.534 464.802 199.155 464.415 198.847C464.052 198.539 463.471 198.254 462.672 197.993C461.874 197.733 460.76 197.46 459.333 197.176C457.856 196.868 456.67 196.5 455.775 196.073C454.904 195.647 454.25 195.125 453.815 194.509C453.403 193.869 453.197 193.111 453.197 192.234C453.197 190.29 453.887 188.82 455.267 187.825C456.67 186.829 458.703 186.331 461.365 186.331Z" fill="white"/>
</svg>
