<svg width="751" height="509" viewBox="0 0 751 509" fill="none" xmlns="http://www.w3.org/2000/svg">
<mask id="mask0_2941_6243" style="mask-type:alpha" maskUnits="userSpaceOnUse" x="-125" y="14" width="1002" height="433">
<rect x="-124.861" y="14.7347" width="1001.06" height="432.025" fill="#C4C4C4"/>
</mask>
<g mask="url(#mask0_2941_6243)">
<path fill-rule="evenodd" clip-rule="evenodd" d="M447.716 202.101C453.594 199.174 458.815 194.665 462.164 189.263L462.164 189.366V249.952C462.164 258.187 457.509 265.712 450.145 269.379L340.448 324.014C316.865 335.759 289.174 318.584 289.174 292.212C289.174 285.333 293.063 279.046 299.214 275.983L352.874 249.257C353.711 248.893 354.544 248.505 355.373 248.092L447.716 202.101Z" fill="white"/>
<path fill-rule="evenodd" clip-rule="evenodd" d="M398.958 149.859C421.665 138.55 447.504 148.993 457.694 169.663C460.055 174.453 459.583 179.446 457.116 184.071C454.611 188.768 450.081 192.966 444.69 195.651L352.347 241.642C329.641 252.951 303.803 242.508 293.613 221.839C291.252 217.049 291.724 212.056 294.191 207.431C296.696 202.735 301.226 198.536 306.616 195.851L398.958 149.859Z" fill="white"/>
<path fill-rule="evenodd" clip-rule="evenodd" d="M303.61 189.4C297.732 192.328 292.512 196.836 289.162 202.238L289.162 202.135L289.162 141.549C289.162 133.315 293.817 125.79 301.181 122.122L410.878 67.4875C434.461 55.7422 462.152 72.9172 462.152 99.2895C462.152 106.169 458.263 112.455 452.112 115.519L398.452 142.244C397.616 142.608 396.782 142.996 395.953 143.409L303.61 189.4Z" fill="white"/>
<path opacity="0.1" fill-rule="evenodd" clip-rule="evenodd" d="M12.6875 273.369C5.19513 258.172 16.122 241.871 31.2777 234.322L149.436 175.472C180.766 159.868 216.364 174.309 230.396 202.773C237.889 217.971 226.962 234.272 211.806 241.82L93.6456 300.669C62.3164 316.273 26.7192 301.832 12.6875 273.369Z" fill="white"/>
<path opacity="0.1" fill-rule="evenodd" clip-rule="evenodd" d="M97.1933 150.522C93.0665 142.151 99.0851 133.173 107.433 129.015L172.515 96.6003C189.771 88.0054 209.379 95.9598 217.108 111.637C221.235 120.009 215.216 128.987 206.868 133.145L141.785 165.559C124.529 174.154 104.922 166.199 97.1933 150.522Z" fill="white"/>
<circle opacity="0.1" cx="70.2481" cy="170.949" r="14.9552" fill="white"/>
<circle opacity="0.2" cx="200.248" cy="296.543" r="14.9552" fill="white"/>
<path opacity="0.1" fill-rule="evenodd" clip-rule="evenodd" d="M589.213 328.64C585.086 320.269 591.105 311.29 599.452 307.132L664.534 274.718C681.791 266.123 701.399 274.077 709.127 289.755C713.254 298.126 707.236 307.105 698.888 311.262L633.805 343.677C616.549 352.271 596.942 344.317 589.213 328.64Z" fill="white"/>
<path opacity="0.1" fill-rule="evenodd" clip-rule="evenodd" d="M52.5761 352.651C48.4493 344.28 54.4679 335.302 62.8157 331.144L127.897 298.729C145.154 290.135 164.762 298.089 172.491 313.767C176.617 322.138 170.599 331.116 162.251 335.274L97.1681 367.688C79.9119 376.283 60.3048 368.329 52.5761 352.651Z" fill="white"/>
<path opacity="0.1" fill-rule="evenodd" clip-rule="evenodd" d="M573.299 152.392C569.172 144.021 575.191 135.043 583.538 130.885L648.62 98.4702C665.877 89.8753 685.484 97.8296 693.213 113.507C697.34 121.878 691.321 130.857 682.974 135.015L617.891 167.429C600.635 176.023 581.027 168.069 573.299 152.392Z" fill="white"/>
<path opacity="0.1" fill-rule="evenodd" clip-rule="evenodd" d="M520.937 260.559C513.445 245.361 524.372 229.061 539.528 221.512L657.686 162.662C689.016 147.058 724.614 161.499 738.646 189.963C746.139 205.16 735.212 221.461 720.056 229.01L601.896 287.859C570.566 303.462 534.969 289.021 520.937 260.559Z" fill="white"/>
<circle opacity="0.1" cx="550.186" cy="181.473" r="14.9552" fill="white"/>
<circle opacity="0.1" cx="699.65" cy="343.042" r="14.9552" fill="white"/>
<path d="M374.271 395.079V378.673H377.055V395.079H374.271ZM367.459 388.268V385.484H383.866V388.268H367.459Z" fill="white"/>
<path d="M277.396 380.125C277.396 387.251 283.356 390.055 290.998 391.419L293.596 391.874C298.563 392.784 301.085 393.997 301.085 396.877C301.085 399.757 298.41 401.88 293.596 401.88C288.705 401.88 284.732 399.909 283.662 393.769L275.867 395.664C277.166 404.002 283.891 408.323 293.596 408.323C303.072 408.323 309.559 403.926 309.559 396.271C309.559 388.615 302.996 386.417 294.742 384.901L292.144 384.446C288.018 383.688 285.496 382.475 285.496 379.595C285.496 376.866 287.941 375.199 292.068 375.199C296.194 375.199 299.175 376.942 300.092 381.49L307.733 379.216C306.052 372.925 300.55 368.831 292.068 368.831C283.203 368.831 277.396 372.925 277.396 380.125Z" fill="white"/>
<rect x="442.166" y="372.041" width="33.2969" height="8.39217" rx="4.19609" fill="white"/>
<rect x="442.166" y="384.381" width="33.2969" height="8.39217" rx="4.19609" fill="white"/>
<rect x="442.166" y="396.72" width="33.2969" height="8.39217" rx="4.19609" fill="white"/>
</g>
</svg>
