<svg width="695" height="314" viewBox="0 0 695 314" fill="none" xmlns="http://www.w3.org/2000/svg">
<path d="M389.455 128.885C382.325 128.885 377.715 132.497 377.715 138.58C377.715 144.664 381.66 146.993 388.647 148.514L389.74 148.752C394.017 149.702 396.251 150.653 396.251 153.409C396.251 156.071 394.112 157.972 389.835 157.972C385.557 157.972 382.943 155.976 382.943 151.984V151.508H376.764V151.984C376.764 159.208 382.135 163.485 389.835 163.485C397.534 163.485 402.43 159.303 402.43 153.219C402.43 147.136 397.915 144.664 390.833 143.143L389.74 142.906C385.652 142.002 383.894 140.862 383.894 138.39C383.894 135.919 385.652 134.398 389.455 134.398C393.257 134.398 395.586 135.919 395.586 139.721V140.482H401.764V139.721C401.764 132.497 396.584 128.885 389.455 128.885ZM406.229 172.326H412.218V159.778H412.693C414.024 161.679 416.305 163.485 420.393 163.485C426.001 163.485 431.039 158.733 431.039 151.033C431.039 143.333 426.001 138.58 420.393 138.58C416.305 138.58 414.024 140.387 412.598 142.43H412.123V139.246H406.229V172.326ZM418.587 158.352C414.879 158.352 412.123 155.691 412.123 151.033C412.123 146.375 414.879 143.714 418.587 143.714C422.294 143.714 425.051 146.375 425.051 151.033C425.051 155.691 422.294 158.352 418.587 158.352ZM434.628 145.234L440.142 147.088C440.569 144.949 441.995 143.333 444.99 143.333C448.031 143.333 449.362 145.044 449.362 147.231V148.561H442.898C437.575 148.561 433.773 151.08 433.773 155.928C433.773 160.776 437.575 163.485 442.423 163.485C446.796 163.485 448.364 161.109 448.792 160.063H449.457V162.82H455.161V147.658C455.161 141.765 451.263 138.58 445.085 138.58C438.954 138.58 435.769 141.67 434.628 145.234ZM439.761 155.786C439.761 154.17 441.092 153.029 443.326 153.029H449.362V153.409C449.362 156.546 446.986 158.638 443.659 158.638C441.092 158.638 439.761 157.449 439.761 155.786ZM458.784 151.033C458.784 158.352 464.202 163.485 471.046 163.485C477.653 163.485 481.502 159.636 482.833 154.455L477.035 153.077C476.512 156.119 474.753 158.257 471.141 158.257C467.529 158.257 464.772 155.596 464.772 151.033C464.772 146.47 467.529 143.809 471.141 143.809C474.753 143.809 476.512 146.09 476.845 148.942L482.643 147.706C481.598 142.43 477.605 138.58 471.046 138.58C464.202 138.58 458.784 143.714 458.784 151.033ZM485.101 151.033C485.101 158.542 489.996 163.485 497.031 163.485C503.495 163.485 506.299 159.826 507.63 157.307L502.734 154.74C501.926 156.546 500.548 158.352 497.221 158.352C493.894 158.352 491.375 156.023 491.232 152.792H508.39V150.748C508.39 143.523 503.875 138.58 496.936 138.58C489.996 138.58 485.101 143.523 485.101 151.033ZM491.28 148.324C491.66 145.71 493.656 143.714 496.888 143.714C499.977 143.714 502.021 145.615 502.306 148.324H491.28ZM523.676 150.177C523.676 158.733 529.094 163.485 537.459 163.485C545.824 163.485 550.577 158.733 550.577 150.843V145.995H536.319V151.318H544.399V151.603C544.399 155.406 542.022 157.877 537.459 157.877C532.897 157.877 529.95 154.93 529.95 150.272V142.098C529.95 137.44 532.897 134.493 537.459 134.493C542.022 134.493 544.113 137.155 544.113 140.577V141.242H550.387V140.672C550.387 133.637 545.824 128.885 537.459 128.885C529.094 128.885 523.676 133.637 523.676 142.193V150.177ZM560.557 139.246H554.664V162.82H560.652V149.132C560.652 145.805 562.839 144.189 565.88 144.189H569.398V139.151H566.926C563.932 139.151 561.936 140.054 561.033 142.573H560.557V139.246ZM570.318 151.033C570.318 158.733 575.642 163.485 582.676 163.485C589.71 163.485 595.033 158.733 595.033 151.033C595.033 143.333 589.71 138.58 582.676 138.58C575.642 138.58 570.318 143.333 570.318 151.033ZM576.307 151.033C576.307 146.47 578.969 143.809 582.676 143.809C586.383 143.809 589.045 146.47 589.045 151.033C589.045 155.596 586.383 158.257 582.676 158.257C578.969 158.257 576.307 155.596 576.307 151.033ZM596.24 144.094H602.133V157.497C602.133 160.729 604.225 162.82 607.362 162.82H614.016V157.972H609.453C608.597 157.972 608.122 157.497 608.122 156.546V144.094H614.586V139.246H608.122V131.926H602.133V139.246H596.24V144.094ZM616.687 151.033C616.687 158.542 621.582 163.485 628.617 163.485C635.08 163.485 637.885 159.826 639.215 157.307L634.32 154.74C633.512 156.546 632.134 158.352 628.807 158.352C625.48 158.352 622.961 156.023 622.818 152.792H639.976V150.748C639.976 143.523 635.461 138.58 628.521 138.58C621.582 138.58 616.687 143.523 616.687 151.033ZM622.866 148.324C623.246 145.71 625.242 143.714 628.474 143.714C631.563 143.714 633.607 145.615 633.892 148.324H622.866ZM643.307 145.852C643.307 150.51 647.204 152.221 652.147 153.172L653.383 153.409C656.33 153.98 657.661 154.693 657.661 156.214C657.661 157.734 656.33 158.923 653.573 158.923C650.817 158.923 648.583 157.782 647.965 154.36L642.451 155.786C643.259 160.729 647.394 163.485 653.573 163.485C659.562 163.485 663.459 160.681 663.459 155.738C663.459 150.795 659.467 149.464 654.144 148.419L652.908 148.181C650.436 147.706 649.106 147.041 649.106 145.472C649.106 144.046 650.341 143.143 652.623 143.143C654.904 143.143 656.52 144.094 657.09 146.66L662.509 144.997C661.368 141.194 657.898 138.58 652.623 138.58C647.014 138.58 643.307 141.194 643.307 145.852ZM692.072 139.246H683.231L673.44 147.896V129.55H667.452V162.82H673.44V155.168L676.72 152.364L684.514 162.82H691.881L680.997 148.704L692.072 139.246Z" fill="#7AE5EA"/>
<path d="M86.9092 0.0131836L0.9375 307.055H60.1527L78.5752 238.629H185.601L204.024 307.055H263.239L177.267 0.0131836H86.9092ZM92.6115 185.993L129.895 47.3854H134.281L171.565 185.993H92.6115Z" fill="#7AE5EA"/>
<path d="M377.48 178.621V195.282H379.408V188.546H383.811C386.763 188.546 389.048 186.666 389.048 183.571C389.048 180.477 386.787 178.621 383.811 178.621H377.48ZM379.408 180.358H383.597C385.787 180.358 387.096 181.572 387.096 183.571C387.096 185.595 385.787 186.785 383.597 186.785H379.408V180.358ZM393.188 183.667H391.403V195.282H393.236V188.141C393.236 186.142 394.33 185.214 396.044 185.214H397.925V183.619H396.33C394.783 183.619 393.878 184.071 393.426 185.19H393.188V183.667ZM399.477 180.025C399.477 180.906 400.12 181.548 401.001 181.548C401.881 181.548 402.548 180.906 402.548 180.025C402.548 179.168 401.881 178.525 401.001 178.525C400.12 178.525 399.477 179.168 399.477 180.025ZM401.929 183.667H400.096V195.282H401.929V183.667ZM405.373 183.667V195.282H407.205V188.26C407.205 186.142 408.443 185 410.133 185C411.799 185 412.751 185.999 412.751 187.546V195.282H414.584V188.26C414.584 186.142 415.822 185 417.535 185C419.178 185 420.154 185.999 420.154 187.546V195.282H421.963V187.404C421.963 184.952 420.32 183.429 418.035 183.429C416.155 183.429 415.06 184.262 414.394 185.547H414.155C413.656 184.357 412.537 183.429 410.728 183.429C408.99 183.429 407.943 184.166 407.396 185.19H407.158V183.667H405.373ZM424.936 186.88L426.65 187.404C427.007 185.928 428.078 184.88 429.982 184.88C431.91 184.88 432.886 185.928 432.886 187.594V188.451H428.911C426.435 188.451 424.579 189.617 424.579 191.973C424.579 194.306 426.435 195.615 428.863 195.615C431.148 195.615 432.148 194.544 432.671 193.616H432.933V195.282H434.695V187.689C434.695 184.952 432.933 183.333 429.982 183.333C427.054 183.333 425.483 184.928 424.936 186.88ZM426.388 191.95C426.388 190.641 427.483 189.95 428.982 189.95H432.886V190.236C432.886 192.64 431.362 194.092 429.125 194.092C427.483 194.092 426.388 193.259 426.388 191.95ZM439.816 183.667H438.031V195.282H439.863V188.141C439.863 186.142 440.958 185.214 442.672 185.214H444.552V183.619H442.958C441.41 183.619 440.506 184.071 440.054 185.19H439.816V183.667ZM456.227 183.667L452.348 193.14H452.11L448.23 183.667H446.231L451.253 195.591L449.277 200.042H451.277L458.251 183.667H456.227ZM466.497 178.621V180.358H472.066V195.282H473.994V180.358H479.54V178.621H466.497ZM489.048 183.667L485.168 193.14H484.93L481.051 183.667H479.051L484.074 195.591L482.098 200.042H484.097L491.071 183.667H489.048ZM493.305 200.042H495.138V193.33H495.376C496.042 194.473 497.304 195.615 499.708 195.615C502.755 195.615 505.206 193.211 505.206 189.474C505.206 185.714 502.755 183.333 499.708 183.333C497.304 183.333 496.042 184.476 495.328 185.666H495.09V183.667H493.305V200.042ZM499.256 193.997C496.852 193.997 495.114 192.259 495.114 189.474C495.114 186.689 496.852 184.928 499.256 184.928C501.684 184.928 503.35 186.666 503.35 189.474C503.35 192.283 501.684 193.997 499.256 193.997ZM507.164 189.379C507.164 192.949 509.544 195.615 513.162 195.615C516.328 195.615 517.661 193.83 518.399 192.45L516.828 191.64C516.209 192.926 515.185 193.997 513.162 193.997C510.83 193.997 509.211 192.426 509.045 190.046H518.589V189.07C518.589 185.523 516.28 183.333 512.996 183.333C509.616 183.333 507.164 185.88 507.164 189.379ZM509.068 188.522C509.33 186.332 510.806 184.952 512.996 184.952C515.138 184.952 516.59 186.213 516.709 188.522H509.068ZM519.844 183.667V185.19H523.462V195.282H525.295V185.19H528.984V183.667H525.295V180.858C525.295 180.382 525.533 180.144 525.961 180.144H528.437V178.621H525.366C524.2 178.621 523.462 179.358 523.462 180.572V183.667H519.844ZM530.999 186.88L532.713 187.404C533.07 185.928 534.141 184.88 536.045 184.88C537.973 184.88 538.949 185.928 538.949 187.594V188.451H534.974C532.498 188.451 530.642 189.617 530.642 191.973C530.642 194.306 532.498 195.615 534.926 195.615C537.211 195.615 538.211 194.544 538.735 193.616H538.996V195.282H540.758V187.689C540.758 184.952 538.996 183.333 536.045 183.333C533.117 183.333 531.546 184.928 530.999 186.88ZM532.451 191.95C532.451 190.641 533.546 189.95 535.045 189.95H538.949V190.236C538.949 192.64 537.425 194.092 535.188 194.092C533.546 194.092 532.451 193.259 532.451 191.95ZM543.356 189.474C543.356 193.068 545.998 195.615 549.378 195.615C552.543 195.615 554.424 193.663 554.947 191.188L553.162 190.783C552.853 192.64 551.639 193.997 549.402 193.997C547.021 193.997 545.212 192.14 545.212 189.474C545.212 186.808 546.998 184.952 549.378 184.952C551.496 184.952 552.853 186.261 553.091 188.141L554.876 187.761C554.471 185.309 552.472 183.333 549.354 183.333C545.998 183.333 543.356 185.856 543.356 189.474ZM556.837 189.379C556.837 192.949 559.217 195.615 562.835 195.615C566.001 195.615 567.334 193.83 568.072 192.45L566.501 191.64C565.882 192.926 564.858 193.997 562.835 193.997C560.502 193.997 558.884 192.426 558.717 190.046H568.262V189.07C568.262 185.523 565.953 183.333 562.668 183.333C559.289 183.333 556.837 185.88 556.837 189.379ZM558.741 188.522C559.003 186.332 560.479 184.952 562.668 184.952C564.811 184.952 566.263 186.213 566.382 188.522H558.741Z" fill="#7AE5EA"/>
<path d="M378.475 239.739V273.009H384.749V239.739H378.475ZM390.17 249.435V273.009H396.158V260.842C396.158 256.469 398.297 253.902 401.957 253.902C405.189 253.902 406.995 255.661 406.995 259.226V273.009H412.984V258.941C412.984 253.094 409.324 249.055 403.81 249.055C399.485 249.055 397.489 250.956 396.539 252.952H396.063V249.435H390.17ZM415.083 254.283H420.977V267.686C420.977 270.918 423.068 273.009 426.205 273.009H432.859V268.161H428.296C427.44 268.161 426.965 267.686 426.965 266.735V254.283H433.429V249.435H426.965V242.115H420.977V249.435H415.083V254.283ZM435.53 261.222C435.53 268.731 440.425 273.674 447.46 273.674C453.924 273.674 456.728 270.015 458.059 267.496L453.163 264.929C452.355 266.735 450.977 268.541 447.65 268.541C444.323 268.541 441.804 266.212 441.661 262.98H458.819V260.937C458.819 253.712 454.304 248.769 447.365 248.769C440.425 248.769 435.53 253.712 435.53 261.222ZM441.709 258.513C442.089 255.899 444.085 253.902 447.317 253.902C450.406 253.902 452.45 255.804 452.735 258.513H441.709ZM468.424 249.435H462.53V273.009H468.519V259.321C468.519 255.994 470.705 254.378 473.747 254.378H477.264V249.34H474.793C471.798 249.34 469.802 250.243 468.899 252.762H468.424V249.435Z" fill="#D6FDFF"/>
<path d="M169.603 169.365L213.14 184.002C216.518 167.113 227.778 154.352 251.423 154.352C275.443 154.352 285.952 167.863 285.952 185.128V195.637H234.909C192.873 195.637 162.848 215.529 162.848 253.812C162.848 292.094 192.873 313.487 231.156 313.487C265.685 313.487 278.071 294.721 281.448 286.464H286.703V308.233H331.741V188.506C331.741 141.966 300.965 116.82 252.174 116.82C203.757 116.82 178.611 141.216 169.603 169.365ZM210.138 252.686C210.138 239.925 220.647 230.917 238.287 230.917H285.952V233.92C285.952 258.691 267.186 275.205 240.914 275.205C220.647 275.205 210.138 265.822 210.138 252.686Z" fill="#D6FDFF"/>
<path d="M382.931 284.661C379.575 284.661 377.266 286.398 377.266 289.183C377.266 291.992 379.194 293.134 382.121 293.825L383.383 294.134C385.62 294.658 387.096 295.324 387.096 297.157C387.096 298.99 385.597 300.275 382.978 300.275C380.384 300.275 378.599 298.966 378.599 296.062V295.895H376.671V296.062C376.671 300.037 379.36 301.989 382.978 301.989C386.62 301.989 389 300.037 389 297.133C389 294.205 386.834 293.111 383.954 292.444L382.669 292.135C380.455 291.611 379.194 290.992 379.194 289.159C379.194 287.374 380.67 286.375 382.931 286.375C385.24 286.375 386.93 287.374 386.93 289.802V290.588H388.857V289.802C388.857 286.398 386.287 284.661 382.931 284.661ZM391.06 295.753C391.06 299.323 393.44 301.989 397.058 301.989C400.223 301.989 401.556 300.204 402.294 298.823L400.723 298.014C400.104 299.299 399.081 300.37 397.058 300.37C394.725 300.37 393.107 298.799 392.94 296.419H402.485V295.443C402.485 291.897 400.176 289.707 396.891 289.707C393.511 289.707 391.06 292.254 391.06 295.753ZM392.964 294.896C393.226 292.706 394.701 291.325 396.891 291.325C399.033 291.325 400.485 292.587 400.604 294.896H392.964ZM404.356 295.848C404.356 299.442 406.998 301.989 410.378 301.989C413.543 301.989 415.424 300.037 415.947 297.562L414.162 297.157C413.853 299.013 412.639 300.37 410.401 300.37C408.021 300.37 406.212 298.514 406.212 295.848C406.212 293.182 407.997 291.325 410.378 291.325C412.496 291.325 413.853 292.635 414.091 294.515L415.876 294.134C415.471 291.682 413.472 289.707 410.354 289.707C406.998 289.707 404.356 292.23 404.356 295.848ZM417.861 295.848C417.861 299.49 420.265 301.989 423.787 301.989C427.31 301.989 429.738 299.49 429.738 295.848C429.738 292.182 427.31 289.707 423.787 289.707C420.265 289.707 417.861 292.182 417.861 295.848ZM419.67 295.848C419.67 293.206 421.312 291.325 423.787 291.325C426.263 291.325 427.905 293.134 427.905 295.848C427.905 298.537 426.263 300.37 423.787 300.37C421.312 300.37 419.67 298.609 419.67 295.848ZM432.452 290.04V301.656H434.285V295.776C434.285 292.873 435.879 291.373 438.117 291.373C440.116 291.373 441.378 292.397 441.378 294.729V301.656H443.187V294.61C443.187 291.492 441.14 289.802 438.593 289.802C436.189 289.802 435.023 290.897 434.475 291.992H434.237V290.04H432.452ZM457.678 284.994H455.845V291.968H455.607C454.941 290.849 453.679 289.707 451.251 289.707C448.205 289.707 445.777 292.087 445.777 295.848C445.777 299.585 448.205 301.989 451.251 301.989C453.679 301.989 454.941 300.846 455.655 299.632H455.893V301.656H457.678V284.994ZM451.704 291.302C454.131 291.302 455.869 293.063 455.869 295.848C455.869 298.633 454.131 300.37 451.704 300.37C449.3 300.37 447.633 298.656 447.633 295.848C447.633 293.039 449.3 291.302 451.704 291.302ZM460.778 293.253L462.492 293.777C462.849 292.301 463.92 291.254 465.824 291.254C467.752 291.254 468.728 292.301 468.728 293.967V294.824H464.753C462.278 294.824 460.421 295.991 460.421 298.347C460.421 300.68 462.278 301.989 464.706 301.989C466.991 301.989 467.99 300.918 468.514 299.989H468.776V301.656H470.537V294.063C470.537 291.325 468.776 289.707 465.824 289.707C462.897 289.707 461.326 291.302 460.778 293.253ZM462.23 298.323C462.23 297.014 463.325 296.324 464.825 296.324H468.728V296.609C468.728 299.013 467.205 300.465 464.967 300.465C463.325 300.465 462.23 299.632 462.23 298.323ZM482.005 290.04L478.126 299.513H477.887L474.008 290.04H472.008L477.031 301.965L475.055 306.416H477.054L484.028 290.04H482.005ZM492.275 284.994V286.732H497.844V301.656H499.772V286.732H505.318V284.994H492.275ZM514.826 290.04L510.946 299.513H510.708L506.829 290.04H504.829L509.851 301.965L507.876 306.416H509.875L516.849 290.04H514.826ZM519.083 306.416H520.916V299.704H521.154C521.82 300.846 523.082 301.989 525.486 301.989C528.532 301.989 530.984 299.585 530.984 295.848C530.984 292.087 528.532 289.707 525.486 289.707C523.082 289.707 521.82 290.849 521.106 292.039H520.868V290.04H519.083V306.416ZM525.034 300.37C522.63 300.37 520.892 298.633 520.892 295.848C520.892 293.063 522.63 291.302 525.034 291.302C527.461 291.302 529.127 293.039 529.127 295.848C529.127 298.656 527.461 300.37 525.034 300.37ZM532.942 295.753C532.942 299.323 535.322 301.989 538.94 301.989C542.106 301.989 543.439 300.204 544.177 298.823L542.606 298.014C541.987 299.299 540.963 300.37 538.94 300.37C536.607 300.37 534.989 298.799 534.822 296.419H544.367V295.443C544.367 291.897 542.058 289.707 538.773 289.707C535.394 289.707 532.942 292.254 532.942 295.753ZM534.846 294.896C535.108 292.706 536.584 291.325 538.773 291.325C540.916 291.325 542.368 292.587 542.487 294.896H534.846ZM545.622 290.04V291.563H549.24V301.656H551.073V291.563H554.762V290.04H551.073V287.231C551.073 286.755 551.311 286.517 551.739 286.517H554.215V284.994H551.144C549.978 284.994 549.24 285.732 549.24 286.946V290.04H545.622ZM556.777 293.253L558.49 293.777C558.847 292.301 559.919 291.254 561.823 291.254C563.751 291.254 564.727 292.301 564.727 293.967V294.824H560.752C558.276 294.824 556.42 295.991 556.42 298.347C556.42 300.68 558.276 301.989 560.704 301.989C562.989 301.989 563.989 300.918 564.512 299.989H564.774V301.656H566.536V294.063C566.536 291.325 564.774 289.707 561.823 289.707C558.895 289.707 557.324 291.302 556.777 293.253ZM558.229 298.323C558.229 297.014 559.324 296.324 560.823 296.324H564.727V296.609C564.727 299.013 563.203 300.465 560.966 300.465C559.324 300.465 558.229 299.632 558.229 298.323ZM569.134 295.848C569.134 299.442 571.776 301.989 575.156 301.989C578.321 301.989 580.202 300.037 580.725 297.562L578.94 297.157C578.631 299.013 577.417 300.37 575.179 300.37C572.799 300.37 570.99 298.514 570.99 295.848C570.99 293.182 572.775 291.325 575.156 291.325C577.274 291.325 578.631 292.635 578.869 294.515L580.654 294.134C580.249 291.682 578.25 289.707 575.132 289.707C571.776 289.707 569.134 292.23 569.134 295.848ZM582.615 295.753C582.615 299.323 584.995 301.989 588.613 301.989C591.779 301.989 593.111 300.204 593.849 298.823L592.278 298.014C591.66 299.299 590.636 300.37 588.613 300.37C586.28 300.37 584.662 298.799 584.495 296.419H594.04V295.443C594.04 291.897 591.731 289.707 588.446 289.707C585.066 289.707 582.615 292.254 582.615 295.753ZM584.519 294.896C584.781 292.706 586.256 291.325 588.446 291.325C590.588 291.325 592.04 292.587 592.159 294.896H584.519Z" fill="#D6FDFF"/>
</svg>
