<svg width="751" height="352" viewBox="0 0 751 352" fill="none" xmlns="http://www.w3.org/2000/svg">
<rect x="76.793" y="286.19" width="673.999" height="41.534" rx="20.767" fill="url(#paint0_linear_2941_6186)"/>
<rect x="0.792969" y="18.7827" width="444.792" height="41.534" rx="20.767" fill="url(#paint1_linear_2941_6186)"/>
<rect x="0.449219" y="87.2773" width="750" height="171.953" rx="85.9766" fill="white"/>
<path d="M504.203 180.23C504.203 217.981 543.891 242.566 577.691 225.753L698.249 165.785C698.249 128.033 658.56 103.447 624.759 120.261L504.203 180.23Z" fill="#D6FDFF"/>
<path d="M534.321 165.249C515.869 174.427 502.174 195.254 514.883 211.477C528.978 229.469 554.697 237.191 577.691 225.753L698.249 165.785C698.249 128.033 658.56 103.447 624.759 120.261L534.321 165.249Z" fill="#24929C"/>
<path d="M504.203 276.593C504.203 307.736 536.945 328.018 564.828 314.148L683.25 255.242C692.439 250.671 698.249 241.292 698.249 231.029V165.701L517.066 255.828C509.185 259.748 504.203 267.792 504.203 276.593Z" fill="#24929C"/>
<path d="M534.321 165.248C515.869 174.427 502.174 195.254 514.883 211.477C528.978 229.469 554.697 237.191 577.691 225.753L668.131 180.766C686.583 171.588 700.278 150.76 687.569 134.537C673.474 116.544 647.754 108.823 624.759 120.261L534.321 165.248Z" fill="#7AE5EA"/>
<path d="M504.203 180.254L686.687 89.4816C693.771 85.9581 698.249 78.7285 698.249 70.8172C698.249 39.0048 664.804 18.2871 636.321 32.4556L521.868 89.3889C511.046 94.7725 504.203 105.818 504.203 117.906V180.254Z" fill="#D6FDFF"/>
<path d="M159.835 165.362C159.835 171.949 165.345 174.541 172.409 175.803L174.811 176.223C179.403 177.064 181.734 178.185 181.734 180.848C181.734 183.51 179.261 185.472 174.811 185.472C170.29 185.472 166.616 183.651 165.627 177.975L158.422 179.727C159.623 187.434 165.839 191.428 174.811 191.428C183.57 191.428 189.567 187.364 189.567 180.287C189.567 173.21 183.5 171.178 175.87 169.777L173.469 169.356C169.654 168.656 167.323 167.535 167.323 164.872C167.323 162.349 169.583 160.808 173.398 160.808C177.213 160.808 179.968 162.419 180.815 166.624L187.88 164.522C186.326 158.706 181.239 154.922 173.398 154.922C165.204 154.922 159.835 158.706 159.835 165.362Z" fill="#565656"/>
<path d="M193.184 162.139V183.3C193.184 187.645 196.01 190.447 200.248 190.447H210.068V184.141H202.933C201.661 184.141 200.955 183.44 200.955 182.039V162.139H211.127V155.903H200.955V144.279H193.184V155.903V162.139Z" fill="#565656"/>
<path d="M247.976 190.447V155.903H240.347V160.948H239.641C237.521 157.795 233.989 154.922 227.561 154.922C219.013 154.922 211.596 161.929 211.596 173.14C211.596 184.421 219.013 191.428 227.561 191.428C233.989 191.428 237.521 188.555 239.641 185.332H240.347V190.447H247.976ZM229.821 184.772C223.746 184.772 219.366 180.497 219.366 173.14C219.366 165.853 223.746 161.509 229.821 161.509C235.896 161.509 240.347 165.853 240.347 173.14C240.347 180.427 235.896 184.772 229.821 184.772Z" fill="#565656"/>
<path d="M251.365 173.14C251.365 183.861 259.347 191.428 269.52 191.428C279.127 191.428 284.849 185.753 286.686 178.185L279.127 176.433C278.35 181.268 275.383 184.702 269.59 184.702C263.656 184.702 259.135 180.287 259.135 173.14C259.135 166.063 263.656 161.649 269.59 161.649C275.242 161.649 278.35 165.152 278.915 169.777L286.403 168.235C284.99 160.598 279.056 154.922 269.449 154.922C259.347 154.922 251.365 162.419 251.365 173.14Z" fill="#565656"/>
<path d="M325.472 155.903H313.957L297.851 169.917V144.279H290.151V190.447H297.851V179.306L303.502 174.471L315.653 190.447H325.189L309.083 169.777L325.472 155.903Z" fill="#565656"/>
<path d="M326.38 165.363C326.38 171.95 331.89 174.542 338.954 175.804L341.356 176.224C345.948 177.065 348.279 178.186 348.279 180.849C348.279 183.511 345.806 185.473 341.356 185.473C336.835 185.473 333.161 183.651 332.172 177.976L324.967 179.727C326.168 187.435 332.384 191.429 341.356 191.429C350.115 191.429 355.767 187.365 355.767 180.288C355.767 173.211 350.045 171.179 342.415 169.778L340.014 169.357C336.199 168.656 333.868 167.535 333.868 164.873C333.868 162.35 336.128 160.809 339.943 160.809C343.758 160.809 346.513 162.42 347.36 166.624L354.425 164.522C352.87 158.707 347.784 154.923 339.943 154.923C331.748 154.923 326.38 158.707 326.38 165.363Z" fill="#157983"/>
<path d="M359.265 202.063H366.965V185.543H367.671C369.649 188.556 373.181 191.429 379.61 191.429C388.158 191.429 395.575 184.422 395.575 173.141C395.575 161.93 388.158 154.923 379.61 154.923C373.181 154.923 369.649 157.796 367.53 160.949H366.824V155.904H359.265V202.063ZM377.349 184.772C371.345 184.772 366.894 180.428 366.894 173.141C366.894 165.854 371.345 161.509 377.349 161.509C383.425 161.509 387.804 165.854 387.804 173.141C387.804 180.498 383.425 184.772 377.349 184.772Z" fill="#157983"/>
<path d="M406.734 155.904H399.034V190.448H406.734V155.904Z" fill="#157983"/>
<path d="M412.381 155.904V190.448H420.081V172.72C420.081 165.573 423.825 161.579 429.618 161.579C434.775 161.579 437.812 164.312 437.812 170.128V190.448H445.583V169.707C445.583 160.879 439.932 155.273 431.949 155.273C425.309 155.273 422.201 158.216 420.646 161.229H419.94V155.904H412.381Z" fill="#157983"/>
<rect x="399.037" y="144.284" width="7.71178" height="7.64881" fill="#157983"/>
<path d="M76.793 204.365C76.793 213.74 86.7305 219.846 95.1936 215.671L131.136 197.937C133.925 196.561 135.689 193.737 135.689 190.647V170.98L80.697 198.113C78.3052 199.293 76.793 201.715 76.793 204.365Z" fill="#135D66"/>
<path d="M76.793 175.354C76.793 186.719 88.8389 194.12 99.0976 189.059L135.689 171.005C135.689 159.64 123.642 152.238 113.383 157.3L76.793 175.354Z" fill="#55C6CC"/>
<path d="M85.934 170.844C80.3336 173.607 76.177 179.877 80.0344 184.761C84.3123 190.178 92.1185 192.502 99.0975 189.059L135.689 171.005C135.689 159.64 123.642 152.238 113.383 157.3L85.934 170.844Z" fill="#135D66"/>
<path d="M85.934 170.844C80.3336 173.607 76.177 179.877 80.0344 184.761C84.3123 190.178 92.1185 192.502 99.0975 189.059L126.547 175.515C132.148 172.752 136.305 166.482 132.447 161.598C128.169 156.181 120.363 153.856 113.383 157.3L85.934 170.844Z" fill="#157983"/>
<path d="M76.793 175.361L132.18 148.034C134.33 146.973 135.689 144.796 135.689 142.415C135.689 132.837 125.538 126.6 116.893 130.866L82.1546 148.006C78.8698 149.626 76.793 152.952 76.793 156.591V175.361Z" fill="#55C6CC"/>
<defs>
<linearGradient id="paint0_linear_2941_6186" x1="750.793" y1="306.958" x2="76.793" y2="306.958" gradientUnits="userSpaceOnUse">
<stop stop-color="white"/>
<stop offset="1" stop-color="#D6FDFF"/>
</linearGradient>
<linearGradient id="paint1_linear_2941_6186" x1="445.587" y1="39.5497" x2="0.792972" y2="39.5498" gradientUnits="userSpaceOnUse">
<stop stop-color="#D6FDFF"/>
<stop offset="1" stop-color="white"/>
</linearGradient>
</defs>
</svg>
