<svg width="1004" height="377" viewBox="0 0 1004 377" fill="none" xmlns="http://www.w3.org/2000/svg">
<path d="M894.028 123.141C913.654 144.649 923.458 173.387 921.076 202.235L950.56 202.638C958.702 173.405 956.375 151.643 943.638 137.876C930.694 123.949 909.076 120.139 890.854 119.809C891.942 120.891 892.995 122.006 894.028 123.141Z" fill="#059669"/>
<path d="M898.759 275.16C903.06 285.961 907.031 299.249 910.485 315.543L943.697 315.982C951.838 286.767 949.513 265.001 936.773 251.238C930.811 244.81 923.019 240.567 914.546 237.802C910.668 251.601 905.315 264.16 898.759 275.16Z" fill="#059669"/>
<path d="M812.668 323.521L822.711 356.27L822.711 324.293C819.316 324.253 815.956 323.997 812.668 323.521Z" fill="#10B981"/>
<path d="M822.711 324.29L822.711 356.27L832.773 323.539C829.486 323.998 826.145 324.252 822.768 324.29L822.711 324.29Z" fill="#059669"/>
<path d="M743.138 67.6108C747.622 71.2908 758.81 73.8179 786.542 64.9015L790.787 72.8834L781.444 80.0229C792.652 78.868 803.306 79.8211 805.595 86.851C806.148 88.6061 806.59 90.2526 806.904 91.7914C811.206 91.0049 815.546 90.5289 819.883 90.4006L819.883 11.6536C819.182 11.4353 818.48 11.2345 817.778 11.0493L817.742 11.0493C817.021 10.8651 816.302 10.7026 815.564 10.5556C812.296 9.87883 808.826 9.55078 805.095 9.55078C774.596 9.55078 755.45 9.74947 746.848 12.5684C741.402 14.3639 740.588 16.2463 740.588 26.9924C740.588 30.6558 740.072 34.7911 739.535 39.1644C738.171 50.0026 736.639 62.303 743.138 67.6108Z" fill="#10B981"/>
<path d="M819.849 26.7361L819.886 90.4019C820.828 90.3636 821.788 90.346 822.729 90.346L822.913 90.346C832.865 90.346 842.779 92.0649 852.306 95.361C853.653 78.0829 854.041 42.6264 837.297 23.1492C836.707 22.4549 836.077 21.7956 835.45 21.153L834.674 20.3862C834.268 19.9836 833.862 19.5976 833.439 19.2509C833.123 18.9746 832.827 18.719 832.514 18.4644C831.498 17.6034 830.426 16.8159 829.321 16.0842C828.968 15.8628 828.636 15.6444 828.269 15.425C827.806 15.1322 827.307 14.8579 826.828 14.5837C826.552 14.4378 826.274 14.2898 825.998 14.1449C825.222 13.7403 824.445 13.375 823.634 13.0283C823.228 12.8617 822.821 12.6982 822.414 12.5315C821.992 12.367 821.584 12.2221 821.16 12.0772C820.736 11.9293 820.31 11.7823 819.886 11.654C819.184 11.4346 818.482 11.2328 817.781 11.0517L817.744 11.0517C817.024 10.8675 816.304 10.7029 815.566 10.555C811.943 8.02977 819.254 13.0283 819.849 26.7361Z" fill="#059669"/>
<path d="M775.176 30.6666C775.582 37.091 778.278 42.0325 781.546 42.0325C785.09 42.0325 787.969 36.1959 787.969 28.9829C787.969 21.773 785.09 15.9136 781.546 15.9136C778.536 15.9136 776.007 20.1244 775.324 25.8172L780.456 31.7284L775.176 30.6666Z" fill="black"/>
<path d="M755.344 46.7464C754.236 49.6305 754.341 52.9493 754.353 55.9701C754.373 61.8606 745.143 61.8678 745.121 55.9701C745.111 52.2291 745.071 47.8806 746.443 44.3134C747.332 42.0057 749.553 40.4171 752.122 41.1167C754.35 41.7262 756.237 44.4241 755.344 46.7464Z" fill="black"/>
<path d="M694.878 202.637L724.546 202.235C722.184 173.387 731.967 144.649 751.593 123.141C752.628 122.006 753.698 120.891 754.77 119.809C736.51 120.121 714.783 123.892 701.803 137.876C689.064 151.643 686.736 173.405 694.878 202.637Z" fill="#10B981"/>
<path d="M738.765 230.98C738.819 231.164 738.859 231.366 738.913 231.547L740.703 230.579C740.055 230.706 739.41 230.832 738.765 230.98Z" fill="#059669"/>
<path d="M701.75 315.982L734.964 315.542C738.436 299.158 742.423 285.815 746.762 274.977C740.262 264.013 734.945 251.492 731.05 237.747C722.521 240.511 714.673 244.777 708.674 251.239C695.936 265.002 693.608 286.766 701.75 315.982Z" fill="#10B981"/>
<path d="M898.798 227.276L906.737 231.539C909.026 222.645 910.724 213.236 911.722 203.37C912.257 198.117 912.349 192.846 912.016 187.629L903.265 187.024C903.708 192.295 903.672 197.622 903.137 202.95C902.27 211.462 900.81 219.588 898.798 227.276Z" fill="#059669"/>
<path d="M901.954 177.743L910.965 178.364C907.992 160.242 899.832 143.129 887.185 129.272C885.801 127.752 884.38 126.288 882.921 124.88L874.613 130.113C876.884 132.108 879.062 134.269 881.148 136.556C891.82 148.237 898.947 162.529 901.954 177.743Z" fill="#059669"/>
<path d="M896.137 236.262C890.266 253.963 881.385 268.846 870.345 279.828L876.806 289.494C888.456 276.953 897.853 260.26 904.129 240.566L904.129 240.547L896.137 236.262Z" fill="#059669"/>
<path d="M852.732 176.206L867.889 196.322L894.27 197.696C894.899 184.169 892.037 171.061 885.945 159.328L863.715 165.315L852.732 176.206Z" fill="#059669"/>
<path d="M849.147 221.75L858.914 236.886L885.943 237.453C889.395 228.118 891.925 217.831 893.383 206.812L867.184 205.458L849.147 221.75Z" fill="#059669"/>
<path d="M846.583 137.819L862.883 156.033L881.051 151.163C879.02 148.237 876.768 145.398 874.294 142.689C867.74 135.512 860.096 129.765 851.826 125.739L846.583 137.819Z" fill="#059669"/>
<path d="M858.531 246.039L844.185 263.536L857.164 279.317C867.226 271.517 875.793 260.313 882.199 246.533L858.531 246.039Z" fill="#059669"/>
<path d="M866.984 124.073L875.699 118.563C870.307 114.301 864.527 110.691 858.508 107.801C848.669 103.078 838.166 100.259 827.53 99.6357L827.53 109.851C841.431 110.766 855.094 115.726 866.984 124.073Z" fill="#059669"/>
<path d="M863.418 286.035C852.803 294.454 840.599 299.6 827.435 300.678L827.435 314.919C830.944 314.646 834.378 314.113 837.754 313.289C839.528 312.887 841.302 312.394 843.036 311.808C852.784 308.658 861.886 303.275 870.102 296.027L863.418 286.035Z" fill="#059669"/>
<path d="M822.715 118.857L822.715 132.274C829.214 132.348 834.882 133.024 838.389 133.556L843.301 122.244C836.636 120.012 829.731 118.857 822.752 118.857L822.715 118.857Z" fill="#059669"/>
<path d="M838.794 142.891C836.097 142.434 829.932 141.536 822.712 141.445L822.712 168.189C832.756 168.297 841.118 169.817 845.2 170.713L854.984 161.011L838.794 142.891Z" fill="#059669"/>
<path d="M843.925 179.831C840.713 179.097 832.571 177.469 822.712 177.359L822.712 213.784C831.168 213.877 838.276 215.175 841.877 215.964L859.285 200.204L843.925 179.831Z" fill="#059669"/>
<path d="M840.29 224.987C837.318 224.328 830.651 223.046 822.714 222.955L822.714 257.331C828.473 257.388 833.44 258.044 836.393 258.538L850.684 241.094L840.29 224.987Z" fill="#059669"/>
<path d="M835.712 267.71C833.349 267.289 828.437 266.558 822.714 266.485L822.714 291.781L822.771 291.781C832.261 291.672 841.269 289.111 849.484 284.461L835.712 267.71Z" fill="#059669"/>
<path d="M802.328 122.225L807.184 133.429C812.463 132.494 817.819 132.22 822.711 132.273L822.711 118.857C815.825 118.857 808.938 120.01 802.328 122.225Z" fill="#10B981"/>
<path d="M796.145 284.478C804.324 289.127 813.276 291.653 822.711 291.782L822.711 266.484C818.686 266.412 814.238 266.685 809.974 267.638L796.145 284.478Z" fill="#10B981"/>
<path d="M794.945 241.095L809.162 258.449C813.774 257.552 818.465 257.277 822.711 257.33L822.711 222.954C817.266 222.864 811.228 223.34 805.375 224.914L794.945 241.095Z" fill="#10B981"/>
<path d="M790.643 161.011L800.354 170.639C808.035 168.682 815.771 168.097 822.711 168.187L822.711 141.445C817.689 141.372 812.168 141.701 806.906 142.817L790.643 161.011Z" fill="#10B981"/>
<path d="M786.341 200.202L803.659 215.873C810.174 214.208 816.784 213.713 822.711 213.785L822.711 177.359C816.158 177.268 808.846 177.835 801.739 179.775L786.341 200.202Z" fill="#10B981"/>
<path d="M775.545 296.046C783.706 303.258 792.753 308.602 802.427 311.752C804.217 312.354 806.007 312.867 807.835 313.287C811.232 314.113 814.685 314.662 818.211 314.936L818.211 300.693C805.047 299.615 792.844 294.47 782.21 286.05L775.545 296.046Z" fill="#10B981"/>
<path d="M769.93 118.564L777.537 123.379L778.643 124.074C779.364 123.561 780.102 123.066 780.842 122.611C782.948 121.218 785.088 119.937 787.285 118.783C788.318 118.234 789.352 117.704 790.406 117.209C799.248 112.998 808.7 110.473 818.301 109.851L818.301 99.6182C811.988 99.9845 805.672 101.119 799.561 102.969C792.603 105.053 785.863 108.074 779.494 111.937C777.445 113.181 775.431 114.501 773.475 115.91C772.275 116.752 771.094 117.648 769.93 118.564Z" fill="#10B981"/>
<path d="M764.598 151.164L782.745 156.033L799.047 137.819L793.803 125.72C785.55 129.766 777.888 135.496 771.334 142.689C768.88 145.399 766.629 148.217 764.598 151.164Z" fill="#10B981"/>
<path d="M763.446 246.533C764.095 247.924 764.759 249.276 765.46 250.613C766.216 252.113 767.011 253.561 767.844 254.987C773.567 264.947 780.543 273.202 788.463 279.333L801.441 263.536L787.098 246.039L776.187 246.259L769.189 246.403L763.446 246.533Z" fill="#10B981"/>
<path d="M752.241 206.811C753.036 212.814 754.143 218.617 755.566 224.146C755.954 225.684 756.377 227.201 756.8 228.705C757.245 230.239 757.726 231.762 758.224 233.26C758.685 234.67 759.164 236.081 759.682 237.452L772.957 237.179L783.702 236.957L786.709 236.886L787.246 236.043L790.771 230.57L793.485 226.377L796.477 221.747L778.439 205.457L752.241 206.811Z" fill="#10B981"/>
<path d="M751.282 194.033C751.282 195.262 751.301 196.469 751.355 197.696L777.738 196.322L792.895 176.206L781.91 165.315L759.701 159.328C754.162 169.999 751.282 181.808 751.282 194.033Z" fill="#10B981"/>
<path d="M741.518 240.547C744.25 249.11 747.573 257.149 751.413 264.488C752.299 266.172 753.203 267.82 754.147 269.432C755.071 271.042 756.029 272.615 757.028 274.171C760.645 279.792 764.597 284.917 768.843 289.494L775.285 279.845C773.217 277.778 771.224 275.582 769.304 273.239C766.83 270.2 764.485 266.958 762.289 263.519C761.364 262.072 760.478 260.591 759.591 259.088C758.726 257.549 757.896 255.994 757.082 254.402C754.183 248.763 751.654 242.687 749.511 236.262L741.518 240.547Z" fill="#10B981"/>
<path d="M734.688 178.366L739.026 178.074L743.697 177.743C746.705 162.551 753.814 148.255 764.486 136.557C766.571 134.269 768.751 132.109 771.02 130.114L767.975 128.193L763.785 125.539L762.73 124.877C761.253 126.289 759.834 127.752 758.447 129.272C746.966 141.866 739.174 157.169 735.629 173.459C735.259 175.091 734.964 176.718 734.688 178.366Z" fill="#10B981"/>
<path d="M733.429 193.759C733.429 195.462 733.465 197.164 733.558 198.848C733.632 200.367 733.76 201.87 733.908 203.37C734.112 205.292 734.335 207.213 734.593 209.098C735.368 215.086 736.4 220.867 737.675 226.469L737.695 226.469C738.024 227.989 738.378 229.491 738.763 230.972C738.82 231.155 738.855 231.357 738.91 231.539L740.703 230.569L746.852 227.276C746.648 226.524 746.463 225.79 746.296 225.024C744.56 218.015 743.287 210.637 742.512 202.948C741.957 197.621 741.939 192.295 742.381 187.023L741.201 187.098L736.328 187.445L733.632 187.628C733.504 189.658 733.429 191.709 733.429 193.759Z" fill="#10B981"/>
<path d="M751.582 123.141C752.616 122.005 753.687 120.89 754.758 119.808C736.499 120.12 714.77 123.891 701.792 137.875C689.051 151.642 686.723 173.404 694.866 202.637L724.534 202.234C722.172 173.386 731.955 144.648 751.582 123.141ZM708.656 251.238C695.919 265.001 693.591 286.766 701.733 315.982L734.947 315.542C738.419 299.157 742.407 285.816 746.746 274.979C740.246 264.014 734.93 251.494 731.034 237.745C722.506 240.51 714.658 244.775 708.656 251.238ZM754.129 269.433C755.054 271.042 756.011 272.616 757.01 274.172C760.628 279.791 764.58 284.917 768.825 289.495L775.269 279.845C773.202 277.778 771.206 275.583 769.289 273.239C766.812 270.2 764.469 266.958 762.272 263.52C761.348 262.072 760.462 260.591 759.576 259.087C758.708 257.552 757.877 255.994 757.065 254.403C754.167 248.766 751.637 242.688 749.497 236.264L741.501 240.548C744.233 249.112 747.556 257.149 751.398 264.489C752.284 266.173 753.187 267.822 754.129 269.433ZM802.409 311.754C804.2 312.355 805.99 312.867 807.817 313.288C811.214 314.112 814.667 314.663 818.193 314.938L818.193 300.695C805.029 299.615 792.827 294.469 782.192 286.05L775.527 296.046C783.689 303.26 792.735 308.603 802.409 311.754ZM822.697 356.269L832.76 323.541C829.473 323.997 826.131 324.253 822.755 324.29L822.697 324.29C819.302 324.253 815.942 323.997 812.654 323.521L822.697 356.269ZM910.468 315.542L943.681 315.982C951.82 286.766 949.497 265.001 936.756 251.238C930.793 244.81 923.002 240.568 914.53 237.799C910.652 251.602 905.298 264.159 898.743 275.158C903.044 285.961 907.014 299.248 910.468 315.542ZM921.065 202.234L950.549 202.637C958.691 173.404 956.364 151.642 943.624 137.875C930.683 123.948 909.065 120.138 890.842 119.808C891.931 120.89 892.984 122.005 894.016 123.141C913.642 144.648 923.446 173.386 921.065 202.234ZM837.283 23.1427C836.691 22.4462 836.065 21.787 835.437 21.1464L834.662 20.3786C834.256 19.9739 833.849 19.59 833.426 19.2433C833.111 18.9681 832.815 18.7114 832.503 18.4558C831.487 17.5958 830.415 16.8093 829.307 16.0756C828.956 15.8552 828.625 15.6368 828.255 15.4174C827.795 15.1235 827.295 14.8493 826.815 14.5751C826.538 14.4291 826.262 14.2822 825.985 14.1363C825.208 13.7337 824.434 13.3674 823.621 13.0207C823.215 12.8541 822.809 12.6895 822.402 12.525C821.978 12.3594 821.572 12.2125 821.146 12.0665C820.723 11.9196 820.299 11.7747 819.873 11.6464C819.172 11.427 818.472 11.2262 817.768 11.041L817.732 11.041C817.012 10.8578 816.292 10.6943 815.554 10.5484C812.287 9.8716 808.813 9.54148 805.084 9.54148C774.586 9.54148 755.441 9.74121 746.838 12.5612C741.391 14.3546 740.58 16.2391 740.58 26.9851C740.58 30.6465 740.062 34.7818 739.526 39.1572C738.159 49.9953 736.628 62.2957 743.125 67.6035C747.613 71.2835 758.8 73.8096 786.532 64.8932L790.777 72.8762L781.434 80.0157C792.642 78.8608 803.297 79.8139 805.586 86.8427C806.136 88.5988 806.58 90.2453 806.895 91.7831C811.197 90.9977 815.535 90.5216 819.873 90.3923C820.815 90.355 821.774 90.3385 822.717 90.3385L822.901 90.3385C832.853 90.3385 842.767 92.0574 852.293 95.3544C853.642 78.0743 854.029 42.6178 837.283 23.1427ZM779.478 111.937C777.429 113.182 775.416 114.503 773.46 115.909C772.259 116.751 771.078 117.649 769.914 118.563L777.521 123.376L778.627 124.073C779.349 123.562 780.087 123.067 780.827 122.611C782.932 121.218 785.073 119.937 787.27 118.783C788.302 118.234 789.336 117.702 790.391 117.21C799.232 113 808.685 110.475 818.285 109.851L818.285 99.6191C811.973 99.9823 805.657 101.12 799.544 102.969C792.588 105.054 785.847 108.074 779.478 111.937ZM777.725 196.322L792.881 176.205L781.898 165.313L759.686 159.327C754.148 169.999 751.27 181.807 751.27 194.035C751.27 195.26 751.287 196.467 751.342 197.695L777.725 196.322ZM772.943 237.179L783.689 236.957L786.696 236.888L787.231 236.043L790.757 230.57L793.472 226.377L796.463 221.747L778.426 205.457L752.228 206.811C753.023 212.816 754.129 218.617 755.553 224.146C755.938 225.684 756.364 227.201 756.787 228.705C757.231 230.239 757.711 231.762 758.21 233.259C758.672 234.671 759.151 236.081 759.667 237.453L772.943 237.179ZM789.264 241.424L789.264 241.406L789.246 241.406L789.264 241.424ZM801.429 263.535L787.083 246.04L776.175 246.258L769.177 246.402L763.434 246.531C764.08 247.924 764.745 249.276 765.447 250.613C766.205 252.114 766.999 253.562 767.829 254.987C773.552 264.947 780.531 273.201 788.45 279.334L801.429 263.535ZM822.755 291.78C832.242 291.671 841.253 289.11 849.467 284.46L835.695 267.709C833.333 267.289 828.42 266.557 822.697 266.485C818.673 266.411 814.224 266.684 809.958 267.635L796.13 284.478C804.31 289.125 813.265 291.652 822.697 291.78L822.755 291.78ZM904.116 240.568L904.116 240.548L896.122 236.264C890.253 253.964 881.37 268.847 870.329 279.829L876.791 289.495C888.443 276.955 897.839 260.26 904.116 240.568ZM903.119 202.949C902.252 211.461 900.793 219.588 898.78 227.276L906.719 231.538C909.008 222.645 910.706 213.236 911.704 203.369C912.238 198.116 912.332 192.845 911.998 187.628L903.247 187.024C903.692 192.294 903.655 197.622 903.119 202.949ZM882.902 124.88L874.594 130.113C876.867 132.109 879.045 134.27 881.13 136.557C891.802 148.237 898.929 162.532 901.937 177.743L910.947 178.364C907.975 160.242 899.814 143.129 887.168 129.272C885.782 127.752 884.361 126.289 882.902 124.88ZM807.172 133.427C812.451 132.494 817.805 132.219 822.697 132.275C829.196 132.348 834.864 133.023 838.372 133.555L843.282 122.244C836.619 120.011 829.714 118.856 822.736 118.856L822.697 118.856C815.811 118.856 808.925 120.011 802.317 122.225L807.172 133.427ZM822.697 213.784C831.152 213.876 838.261 215.175 841.861 215.964L859.273 200.201L843.911 179.83C840.698 179.098 832.558 177.468 822.697 177.359C816.143 177.268 808.833 177.834 801.726 179.776L786.328 200.201L803.643 215.873C810.162 214.206 816.772 213.712 822.697 213.784ZM850.668 241.095L840.274 224.987C837.302 224.328 830.636 223.046 822.697 222.955C817.252 222.863 811.214 223.342 805.362 224.914L794.931 241.095L809.147 258.448C813.76 257.552 818.452 257.277 822.697 257.331C828.459 257.388 833.426 258.045 836.379 258.538L850.668 241.095ZM856.337 241.406L856.337 241.424L856.353 241.406L856.337 241.406ZM867.173 205.457L849.136 221.748L858.902 236.888L885.931 237.453C889.382 228.117 891.913 217.831 893.371 206.811L867.173 205.457ZM863.701 165.313L852.718 176.205L867.874 196.322L894.257 197.695C894.885 184.167 892.023 171.062 885.931 159.327L863.701 165.313ZM875.685 118.563C870.292 114.301 864.515 110.691 858.496 107.801C848.656 103.078 838.151 100.261 827.517 99.6357L827.517 109.851C841.418 110.766 855.082 115.726 866.969 124.073L875.685 118.563ZM851.812 125.74L846.57 137.819L862.871 156.033L881.038 151.165C879.007 148.237 876.756 145.399 874.282 142.691C867.728 135.514 860.083 129.767 851.812 125.74ZM827.425 300.68L827.425 314.918C830.931 314.645 834.366 314.112 837.745 313.288C839.516 312.887 841.291 312.393 843.024 311.808C852.773 308.657 861.876 303.276 870.088 296.027L863.407 286.034C852.791 294.454 840.587 299.599 827.425 300.68ZM882.183 246.531L858.514 246.04L844.169 263.535L857.148 279.317C867.211 271.517 875.777 260.314 882.183 246.531ZM799.03 137.819L793.786 125.72C785.533 129.767 777.871 135.495 771.317 142.691C768.863 145.399 766.612 148.217 764.58 151.165L782.728 156.033L799.03 137.819ZM790.63 161.011L800.34 170.641C808.022 168.682 815.756 168.096 822.697 168.187C832.741 168.298 841.105 169.818 845.184 170.713L854.97 161.011L838.776 142.892C836.083 142.434 829.918 141.535 822.697 141.445C817.677 141.373 812.155 141.701 806.895 142.817L790.63 161.011ZM742.368 187.024L741.187 187.096L736.315 187.446L733.618 187.628C733.491 189.658 733.417 191.71 733.417 193.76C733.417 195.462 733.452 197.164 733.544 198.848C733.618 200.367 733.748 201.869 733.895 203.369C734.102 205.292 734.322 207.215 734.577 209.099C735.355 215.086 736.386 220.867 737.662 226.47L737.681 226.47C738.011 227.989 738.364 229.49 738.75 230.971C738.807 231.156 738.842 231.356 738.898 231.538L740.69 230.57L746.838 227.276C746.634 226.523 746.45 225.793 746.284 225.026C744.549 218.015 743.274 210.637 742.499 202.949C741.944 197.622 741.926 192.294 742.368 187.024ZM763.766 125.538L762.713 124.88C761.238 126.289 759.817 127.752 758.431 129.272C746.948 141.866 739.156 157.168 735.612 173.459C735.242 175.09 734.947 176.717 734.671 178.364L739.01 178.073L743.68 177.743C746.688 162.55 753.797 148.255 764.469 136.557C766.554 134.27 768.733 132.109 771.005 130.113L767.957 128.193L763.766 125.538ZM691.469 211.825L686.983 208.55C676.717 174.338 679.432 148.473 695.015 131.67C712.977 112.324 743.68 109.74 765.06 110.711C775.066 102.969 786.236 97.2741 797.904 93.8891C797.644 92.6638 797.313 91.3102 796.85 89.8614C794.1 87.7037 778.907 88.8545 764.635 92.3513L760.72 84.2783L767.422 79.1536C753.484 81.4241 743.68 79.9225 737.237 74.651C726.862 66.1568 728.798 50.5614 730.349 38.0406C730.867 33.9425 731.348 30.0794 731.348 26.9851C731.348 0.389138 741.169 0.389141 805.084 0.389146C821.499 0.389148 834.7 6.04571 844.319 17.2295C864.44 40.6412 862.947 81.7905 861.266 98.9775C868.023 102.107 874.502 106.026 880.558 110.711C901.919 109.759 932.493 112.377 950.399 131.67C965.983 148.473 968.697 174.338 958.431 208.55L953.945 211.825L920.029 211.369C919.218 217.371 918.147 223.213 916.836 228.867C926.843 232.07 936.239 237.179 943.533 245.032C959.133 261.836 961.829 287.698 951.582 321.912L947.077 325.187L906.626 324.637L902.177 320.96C899.26 306.462 895.992 294.508 892.522 284.678C879.265 303.057 862.28 315.924 843.062 321.362L827.13 373.33L818.285 373.33L802.317 321.304C785.238 316.42 769.934 305.673 757.454 290.409C755.904 288.506 754.406 286.546 752.949 284.515C749.459 294.38 746.173 306.389 743.237 320.96L738.788 324.637L698.337 325.187L693.833 321.912C683.585 287.698 686.283 261.836 701.883 245.032C709.212 237.126 718.681 232.015 728.763 228.815C727.452 223.175 726.4 217.351 725.57 211.369L691.469 211.825Z" fill="black"/>
<path d="M675.087 0.389305L644.823 0.389302C641.791 0.389302 639.336 2.8488 639.336 5.87662L639.336 36.1401C639.336 39.1729 641.796 41.6274 644.823 41.6274L675.087 41.6274C678.12 41.6274 680.574 39.168 680.574 36.1402L680.574 5.87663C680.574 2.8488 678.12 0.389305 675.087 0.389305Z" fill="#10B981"/>
<path d="M998.513 43.8659L968.249 43.8659C965.216 43.8659 962.762 46.3254 962.762 49.3532L962.762 79.6167C962.762 82.6494 965.221 85.104 968.249 85.104L998.513 85.104C1001.55 85.104 1004 82.6445 1004 79.6167L1004 49.3532C1004 46.3254 1001.54 43.8659 998.513 43.8659Z" fill="#059669"/>
<path d="M998.513 335.651L968.249 335.651C965.216 335.651 962.762 338.11 962.762 341.138L962.762 371.401C962.762 374.434 965.221 376.889 968.249 376.889L998.513 376.889C1001.55 376.889 1004 374.429 1004 371.401L1004 341.138C1004 338.11 1001.55 335.651 998.513 335.651Z" fill="black"/>
<path d="M714.06 145.649L709.395 139.799L706.661 146.764L714.06 145.649ZM655.973 51.1558C655.973 73.401 659.037 92.4259 667.136 108.006C675.245 123.606 688.371 135.697 708.384 144.117L708.886 142.922C689.119 134.606 676.239 122.709 668.286 107.409C660.322 92.089 657.269 73.3003 657.269 51.1558H655.973Z" fill="#4F4F4F"/>
<path d="M932.422 146.318L930.907 138.991L925.319 143.966L932.422 146.318ZM952.404 63.7383C934.906 63.7383 923.042 76.2098 918.452 92.1881C913.865 108.16 916.486 127.775 928.038 142.366L929.054 141.562C917.788 127.331 915.214 108.158 919.698 92.5459C924.18 76.9407 935.654 65.0342 952.404 65.0342L952.404 63.7383Z" fill="#4F4F4F"/>
<path d="M944.922 253.912L947.521 260.928L952.297 255.168L944.922 253.912ZM983.159 328.822C982.588 310.066 980.288 297.209 975.087 286.491C969.884 275.772 961.81 267.259 949.827 257.138L948.991 258.128C960.93 268.212 968.838 276.584 973.921 287.057C979.005 297.534 981.295 310.178 981.864 328.861L983.159 328.822Z" fill="#4F4F4F"/>
<line x1="518.973" y1="126.085" x2="0.000915527" y2="126.085" stroke="#059669" stroke-width="1.27238" stroke-dasharray="2.54 2.54"/>
<line x1="518.973" y1="221.439" x2="0.000915527" y2="221.439" stroke="#059669" stroke-width="1.27238" stroke-dasharray="2.54 2.54"/>
<line x1="518.973" y1="270.099" x2="0.000915527" y2="270.099" stroke="#059669" stroke-width="1.27238" stroke-dasharray="2.54 2.54"/>
<line x1="518.973" y1="77.4257" x2="0.000915527" y2="77.4257" stroke="#059669" stroke-width="1.27238" stroke-dasharray="2.54 2.54"/>
<line x1="67.6333" y1="291.62" x2="67.6333" y2="54.6323" stroke="#059669" stroke-width="1.27238" stroke-dasharray="2.54 2.54"/>
<line x1="497.821" y1="291.62" x2="497.821" y2="54.6323" stroke="#059669" stroke-width="1.27238" stroke-dasharray="2.54 2.54"/>
<line x1="18.9673" y1="291.62" x2="18.9673" y2="54.6323" stroke="#059669" stroke-width="1.27238" stroke-dasharray="2.54 2.54"/>
<line x1="449.161" y1="291.62" x2="449.161" y2="54.6323" stroke="#059669" stroke-width="1.27238" stroke-dasharray="2.54 2.54"/>
<rect x="449.062" y="222.021" width="48.5779" height="48.5779" fill="#10B981"/>
<path d="M473.356 270.827C468.714 270.827 464.619 269.828 461.073 267.829C457.592 265.83 454.884 262.993 452.949 259.318C451.079 255.578 450.145 251.259 450.145 246.358C450.145 241.394 451.079 237.074 452.949 233.399C454.884 229.659 457.592 226.79 461.073 224.791C464.619 222.792 468.714 221.793 473.356 221.793C477.998 221.793 482.06 222.792 485.542 224.791C489.088 226.79 491.796 229.659 493.666 233.399C495.6 237.074 496.567 241.394 496.567 246.358C496.567 251.259 495.6 255.578 493.666 259.318C491.796 262.993 489.088 265.83 485.542 267.829C482.06 269.828 477.998 270.827 473.356 270.827ZM473.356 263.09C477.676 263.09 480.964 261.671 483.221 258.834C485.542 255.998 486.702 251.839 486.702 246.358C486.702 240.942 485.542 236.816 483.221 233.979C480.9 231.078 477.611 229.627 473.356 229.627C469.101 229.627 465.812 231.078 463.491 233.979C461.17 236.816 460.009 240.942 460.009 246.358C460.009 251.839 461.138 255.998 463.394 258.834C465.716 261.671 469.036 263.09 473.356 263.09Z" fill="white"/>
<path d="M106.889 214.683L98.5872 214.698C89.0245 215.26 78.211 218.194 69.3616 222.441L68.2378 214.106C66.7266 198.65 65.3834 161.646 83.4782 140.593C92.1276 130.535 103.999 125.449 118.761 125.449C176.237 125.449 185.069 125.449 185.069 149.366C185.069 152.148 185.502 155.622 185.967 159.307L185.969 159.32C187.363 170.577 189.1 184.594 179.773 192.23C173.979 196.971 165.163 198.321 152.629 196.279L158.656 200.887L155.135 208.147C143.958 205.409 132.153 204.27 127.657 205.303C126.609 205.544 125.829 206.353 125.418 207.347C124.121 210.486 124.028 214.87 123.742 217.695C118.246 216.032 112.566 215.01 106.889 214.683Z" fill="black"/>
<path d="M174.477 185.878C170.445 189.188 160.384 191.46 135.445 183.442L131.628 190.62L140.03 197.04C129.951 196.002 120.37 196.859 118.312 203.181C117.814 204.759 117.416 206.239 117.135 207.623C113.266 206.916 109.363 206.488 105.463 206.373L105.463 135.558C106.093 135.362 106.724 135.181 107.356 135.015L107.388 135.015C108.037 134.849 108.683 134.703 109.347 134.571C112.286 133.962 115.406 133.667 118.761 133.667C146.188 133.667 163.405 133.846 171.141 136.381C176.038 137.995 176.77 139.688 176.77 149.352C176.77 152.646 177.234 156.365 177.717 160.298C178.944 170.044 180.322 181.105 174.477 185.878Z" fill="#10B981"/>
<path d="M105.493 149.12L105.459 206.373C104.613 206.338 103.749 206.322 102.903 206.322L102.737 206.322C93.7877 206.322 84.8726 207.868 76.3058 210.832C75.0941 195.295 74.7449 163.41 89.8023 145.894C90.3335 145.27 90.8995 144.677 91.4636 144.099L92.161 143.41C92.5262 143.048 92.8913 142.701 93.2723 142.389C93.5558 142.14 93.8224 141.911 94.104 141.682C95.0172 140.907 95.9812 140.199 96.9752 139.541C97.2925 139.342 97.5909 139.146 97.9213 138.948C98.3371 138.685 98.7858 138.438 99.2166 138.192C99.4654 138.061 99.7151 137.927 99.9638 137.797C100.661 137.433 101.36 137.105 102.089 136.793C102.454 136.643 102.82 136.496 103.186 136.346C103.566 136.198 103.932 136.068 104.314 135.938C104.695 135.805 105.078 135.673 105.459 135.557C106.091 135.36 106.722 135.178 107.353 135.016L107.385 135.016C108.033 134.85 108.681 134.702 109.344 134.569C109.344 134.569 106.028 136.793 105.493 149.12Z" fill="#059669"/>
<path d="M145.668 152.655C145.303 158.432 142.878 162.876 139.939 162.876C136.753 162.876 134.164 157.627 134.164 151.14C134.164 144.657 136.753 139.388 139.939 139.388C142.646 139.388 144.921 143.174 145.535 148.294L140.92 153.609L145.668 152.655Z" fill="black"/>
<path d="M163.499 167.115C164.495 169.709 164.401 172.693 164.39 175.41C164.372 180.707 172.672 180.713 172.692 175.41C172.701 172.046 172.737 168.135 171.502 164.927C170.704 162.852 168.706 161.423 166.396 162.053C164.392 162.601 162.695 165.027 163.499 167.115Z" fill="black"/>
<path d="M231.359 197.511C232.773 197.639 233.769 198.025 234.347 198.667C234.99 199.245 235.311 200.081 235.311 201.173C235.311 202.458 234.797 203.454 233.769 204.161C232.805 204.803 231.359 205.06 229.432 204.932L226.83 204.739C221.625 204.354 217.738 202.779 215.168 200.016C212.598 197.189 211.312 193.045 211.312 187.584C211.312 170.691 211.312 161.56 211.312 147.49C211.312 146.012 211.73 144.855 212.565 144.02C213.465 143.185 214.654 142.767 216.131 142.767C217.609 142.767 218.798 143.185 219.698 144.02C220.597 144.855 221.047 146.012 221.047 147.49V157.417H230.588C231.938 157.417 232.966 157.77 233.673 158.477C234.444 159.119 234.829 160.019 234.829 161.176C234.829 162.396 234.444 163.328 233.673 163.971C232.966 164.613 231.938 164.934 230.588 164.934H221.047V188.258C221.047 191.278 221.657 193.495 222.878 194.908C224.163 196.322 226.091 197.125 228.661 197.318L231.359 197.511Z" fill="black"/>
<path d="M264.047 205.125C259.421 205.125 255.341 204.129 251.807 202.137C248.338 200.145 245.639 197.318 243.711 193.655C241.848 189.929 240.916 185.624 240.916 180.741C240.916 175.793 241.848 171.488 243.711 167.826C245.639 164.099 248.338 161.24 251.807 159.248C255.341 157.256 259.421 156.26 264.047 156.26C268.674 156.26 272.722 157.256 276.191 159.248C279.725 161.24 282.424 164.099 284.287 167.826C286.215 171.488 287.179 175.793 287.179 180.741C287.179 185.624 286.215 189.929 284.287 193.655C282.424 197.318 279.725 200.145 276.191 202.137C272.722 204.129 268.674 205.125 264.047 205.125ZM264.047 197.414C268.352 197.414 271.629 196.001 273.878 193.174C276.191 190.346 277.348 186.202 277.348 180.741C277.348 175.343 276.191 171.231 273.878 168.404C271.565 165.513 268.288 164.067 264.047 164.067C259.807 164.067 256.53 165.513 254.217 168.404C251.904 171.231 250.747 175.343 250.747 180.741C250.747 186.202 251.872 190.346 254.12 193.174C256.433 196.001 259.743 197.414 264.047 197.414Z" fill="black"/>
<path d="M317.357 197.511C318.77 197.639 319.766 198.025 320.345 198.667C320.987 199.245 321.308 200.081 321.308 201.173C321.308 202.458 320.794 203.454 319.766 204.161C318.803 204.803 317.357 205.06 315.429 204.932L312.827 204.739C307.623 204.354 303.735 202.779 301.165 200.016C298.595 197.189 297.31 193.045 297.31 187.584C297.31 170.691 297.31 161.56 297.31 147.49C297.31 146.012 297.728 144.855 298.563 144.02C299.462 143.185 300.651 142.767 302.129 142.767C303.607 142.767 304.795 143.185 305.695 144.02C306.595 144.855 307.044 146.012 307.044 147.49V157.417H316.586C317.935 157.417 318.963 157.77 319.67 158.477C320.441 159.119 320.827 160.019 320.827 161.176C320.827 162.396 320.441 163.328 319.67 163.971C318.963 164.613 317.935 164.934 316.586 164.934H307.044V188.258C307.044 191.278 307.655 193.495 308.876 194.908C310.161 196.322 312.088 197.125 314.658 197.318L317.357 197.511Z" fill="black"/>
<path d="M365.331 192.595C366.23 192.595 366.969 192.949 367.548 193.655C368.126 194.362 368.415 195.262 368.415 196.354C368.415 198.217 367.258 199.792 364.945 201.077C362.696 202.362 360.223 203.358 357.524 204.064C354.89 204.771 352.352 205.125 349.91 205.125C342.457 205.125 336.578 202.972 332.273 198.667C327.968 194.298 325.815 188.355 325.815 180.837C325.815 176.018 326.747 171.745 328.61 168.019C330.538 164.292 333.204 161.4 336.61 159.344C340.079 157.288 343.999 156.26 348.368 156.26C354.665 156.26 359.644 158.284 363.307 162.332C366.969 166.38 368.8 171.842 368.8 178.717C368.8 181.287 367.644 182.572 365.331 182.572H335.55C336.192 192.531 340.979 197.511 349.91 197.511C352.287 197.511 354.344 197.189 356.078 196.547C357.813 195.904 359.644 195.069 361.572 194.041C361.765 193.912 362.279 193.655 363.114 193.27C364.014 192.82 364.753 192.595 365.331 192.595ZM348.561 163.392C344.834 163.392 341.846 164.581 339.597 166.958C337.349 169.336 335.999 172.677 335.55 176.982H360.415C360.223 172.613 359.098 169.271 357.042 166.958C355.05 164.581 352.223 163.392 348.561 163.392Z" fill="black"/>
<path d="M433.198 156.26C443.736 156.26 449.005 162.589 449.005 175.247V200.306C449.005 201.783 448.555 202.94 447.655 203.775C446.756 204.546 445.567 204.932 444.089 204.932C442.676 204.932 441.519 204.546 440.62 203.775C439.72 202.94 439.27 201.783 439.27 200.306V175.343C439.27 171.424 438.564 168.597 437.15 166.862C435.736 165.063 433.52 164.163 430.5 164.163C426.966 164.163 424.171 165.384 422.115 167.826C420.059 170.203 419.031 173.48 419.031 177.656V200.306C419.031 201.783 418.581 202.94 417.681 203.775C416.782 204.546 415.593 204.932 414.115 204.932C412.702 204.932 411.545 204.546 410.646 203.775C409.746 202.94 409.296 201.783 409.296 200.306V175.343C409.296 171.424 408.59 168.597 407.176 166.862C405.762 165.063 403.546 164.163 400.526 164.163C396.992 164.163 394.165 165.384 392.044 167.826C389.988 170.203 388.96 173.48 388.96 177.656V200.306C388.96 201.783 388.51 202.94 387.611 203.775C386.711 204.546 385.555 204.932 384.141 204.932C382.728 204.932 381.539 204.546 380.575 203.775C379.676 202.94 379.226 201.783 379.226 200.306V161.079C379.226 159.666 379.708 158.541 380.672 157.706C381.635 156.871 382.792 156.453 384.141 156.453C385.491 156.453 386.583 156.871 387.418 157.706C388.318 158.477 388.767 159.569 388.767 160.983V164.549C390.181 161.85 392.141 159.794 394.647 158.381C397.152 156.967 400.044 156.26 403.321 156.26C406.919 156.26 409.875 156.999 412.188 158.477C414.565 159.955 416.332 162.236 417.489 165.32C418.902 162.557 420.99 160.372 423.753 158.766C426.516 157.096 429.665 156.26 433.198 156.26Z" fill="black"/>
<rect x="18.8672" y="77.8862" width="48.5779" height="48.5779" fill="#10B981"/>
<path d="M43.1606 126.693C38.5183 126.693 34.4241 125.693 30.8779 123.695C27.3962 121.696 24.6882 118.859 22.7539 115.184C20.8841 111.444 19.9492 107.124 19.9492 102.224C19.9492 97.2594 20.8841 92.9395 22.7539 89.2644C24.6882 85.5248 27.3962 82.6556 30.8779 80.6568C34.4241 78.6581 38.5183 77.6587 43.1606 77.6587C47.8029 77.6587 51.8649 78.6581 55.3466 80.6568C58.8928 82.6556 61.6008 85.5248 63.4706 89.2644C65.4049 92.9395 66.372 97.2594 66.372 102.224C66.372 107.124 65.4049 111.444 63.4706 115.184C61.6008 118.859 58.8928 121.696 55.3466 123.695C51.8649 125.693 47.8029 126.693 43.1606 126.693ZM43.1606 118.956C47.4805 118.956 50.7688 117.537 53.0255 114.7C55.3466 111.863 56.5072 107.705 56.5072 102.224C56.5072 96.8081 55.3466 92.6816 53.0255 89.8447C50.7043 86.9432 47.416 85.4925 43.1606 85.4925C38.9052 85.4925 35.6169 86.9432 33.2958 89.8447C30.9746 92.6816 29.8141 96.8081 29.8141 102.224C29.8141 107.705 30.9424 111.863 33.1991 114.7C35.5202 117.537 38.8407 118.956 43.1606 118.956Z" fill="white"/>
</svg>
