<svg width="763" height="218" viewBox="0 0 763 218" fill="none" xmlns="http://www.w3.org/2000/svg">
<g filter="url(#filter0_dd_4952_6059)">
<path d="M20.5938 31.8749C20.5938 23.3965 27.4668 16.5234 35.9452 16.5234H343.897V188.905H35.9452C27.4668 188.905 20.5938 182.032 20.5938 173.553V31.8749Z" fill="#F5EDFF"/>
<path d="M20.5938 102.714C20.5938 55.1123 59.1826 16.5234 106.784 16.5234H343.897V188.905H106.784C59.1827 188.905 20.5938 150.316 20.5938 102.714Z" fill="#F5EDFF"/>
<path d="M162.286 115.121C162.764 115.121 163.191 115.36 163.566 115.839C163.976 116.283 164.181 116.881 164.181 117.634C164.181 118.557 163.669 119.343 162.645 119.992C161.655 120.608 160.528 120.916 159.265 120.916C157.149 120.916 155.357 120.471 153.889 119.582C152.455 118.659 151.738 116.728 151.738 113.788V99.6341H149.383C148.564 99.6341 147.881 99.3606 147.335 98.8136C146.789 98.2666 146.516 97.5829 146.516 96.7624C146.516 95.9761 146.789 95.3265 147.335 94.8137C147.881 94.2668 148.564 93.9933 149.383 93.9933H151.738V90.7113C151.738 89.8224 152.029 89.0874 152.609 88.5062C153.223 87.8909 153.974 87.5832 154.862 87.5832C155.715 87.5832 156.432 87.8909 157.012 88.5062C157.593 89.0874 157.883 89.8224 157.883 90.7113V93.9933H161.518C162.337 93.9933 163.02 94.2668 163.566 94.8137C164.113 95.3607 164.386 96.0445 164.386 96.865C164.386 97.6513 164.113 98.3179 163.566 98.8649C163.02 99.3777 162.337 99.6341 161.518 99.6341H157.883V113.531C157.883 114.249 158.071 114.779 158.446 115.121C158.821 115.429 159.334 115.582 159.982 115.582C160.255 115.582 160.631 115.514 161.109 115.377C161.518 115.206 161.911 115.121 162.286 115.121Z" fill="#54298B"/>
<path d="M188.819 93.4805C189.706 93.4805 190.44 93.7881 191.021 94.4035C191.601 94.9847 191.891 95.7197 191.891 96.6086V109.634C191.891 113.326 190.867 116.215 188.819 118.3C186.805 120.386 183.92 121.428 180.165 121.428C176.411 121.428 173.526 120.386 171.512 118.3C169.498 116.215 168.491 113.326 168.491 109.634V96.6086C168.491 95.7197 168.781 94.9847 169.362 94.4035C169.942 93.7881 170.676 93.4805 171.563 93.4805C172.451 93.4805 173.185 93.7881 173.765 94.4035C174.345 94.9847 174.635 95.7197 174.635 96.6086V109.634C174.635 111.719 175.096 113.275 176.018 114.3C176.94 115.292 178.322 115.787 180.165 115.787C182.043 115.787 183.442 115.292 184.364 114.3C185.286 113.275 185.747 111.719 185.747 109.634V96.6086C185.747 95.7197 186.037 94.9847 186.617 94.4035C187.197 93.7881 187.931 93.4805 188.819 93.4805Z" fill="#54298B"/>
<path d="M228.599 92.9676C231.979 92.9676 234.317 94.0103 235.614 96.0958C236.911 98.147 237.56 101.002 237.56 104.66V117.787C237.56 118.676 237.27 119.428 236.69 120.044C236.109 120.625 235.375 120.916 234.488 120.916C233.6 120.916 232.866 120.625 232.286 120.044C231.706 119.428 231.416 118.676 231.416 117.787V104.66C231.416 102.779 231.04 101.309 230.289 100.249C229.572 99.1555 228.292 98.6085 226.449 98.6085C224.537 98.6085 223.035 99.1897 221.943 100.352C220.885 101.48 220.356 102.916 220.356 104.66V117.787C220.356 118.676 220.066 119.428 219.485 120.044C218.905 120.625 218.171 120.916 217.283 120.916C216.396 120.916 215.662 120.625 215.082 120.044C214.501 119.428 214.211 118.676 214.211 117.787V104.66C214.211 102.779 213.836 101.309 213.085 100.249C212.368 99.1555 211.088 98.6085 209.245 98.6085C207.333 98.6085 205.831 99.1897 204.739 100.352C203.68 101.48 203.151 102.916 203.151 104.66V117.787C203.151 118.676 202.861 119.428 202.281 120.044C201.701 120.625 200.967 120.916 200.079 120.916C199.192 120.916 198.458 120.625 197.877 120.044C197.297 119.428 197.007 118.676 197.007 117.787V96.6086C197.007 95.7197 197.297 94.9847 197.877 94.4035C198.458 93.7881 199.192 93.4805 200.079 93.4805C200.967 93.4805 201.701 93.7881 202.281 94.4035C202.861 94.9847 203.151 95.7197 203.151 96.6086V97.429C204.073 96.1983 205.234 95.1556 206.633 94.3009C208.067 93.4121 209.654 92.9676 211.395 92.9676C215.696 92.9676 218.444 94.8479 219.639 98.6085C220.424 97.1726 221.602 95.8735 223.172 94.7112C224.776 93.5488 226.585 92.9676 228.599 92.9676Z" fill="#54298B"/>
<path d="M256.345 92.9676C258.701 92.9676 260.834 93.583 262.746 94.8137C264.657 96.0103 266.159 97.6855 267.252 99.8392C268.378 101.993 268.941 104.437 268.941 107.172C268.941 109.907 268.395 112.369 267.303 114.557C266.21 116.711 264.708 118.403 262.797 119.634C260.919 120.83 258.837 121.428 256.55 121.428C254.912 121.428 253.358 121.104 251.891 120.454C250.457 119.77 249.262 118.95 248.306 117.993V128.044C248.306 128.932 248.016 129.667 247.436 130.249C246.856 130.864 246.122 131.172 245.234 131.172C244.347 131.172 243.613 130.881 243.032 130.3C242.452 129.719 242.162 128.967 242.162 128.044V96.6086C242.162 95.7197 242.452 94.9847 243.032 94.4035C243.613 93.7881 244.347 93.4805 245.234 93.4805C246.122 93.4805 246.856 93.7881 247.436 94.4035C248.016 94.9847 248.306 95.7197 248.306 96.6086V96.8137C249.126 95.7881 250.269 94.8992 251.737 94.1471C253.205 93.3608 254.741 92.9676 256.345 92.9676ZM255.577 115.787C257.762 115.787 259.554 114.967 260.954 113.326C262.353 111.685 263.053 109.634 263.053 107.172C263.053 104.711 262.353 102.677 260.954 101.07C259.588 99.429 257.796 98.6085 255.577 98.6085C253.358 98.6085 251.549 99.429 250.15 101.07C248.75 102.677 248.05 104.711 248.05 107.172C248.05 109.634 248.75 111.685 250.15 113.326C251.549 114.967 253.358 115.787 255.577 115.787Z" fill="#54298B"/>
<path d="M294.699 92.9676C295.586 92.9676 296.32 93.2582 296.901 93.8394C297.481 94.4206 297.771 95.1727 297.771 96.0958V117.787C297.771 118.676 297.481 119.428 296.901 120.044C296.32 120.625 295.586 120.916 294.699 120.916C293.811 120.916 293.077 120.625 292.497 120.044C291.951 119.463 291.661 118.728 291.627 117.839C290.773 118.83 289.613 119.685 288.145 120.403C286.711 121.086 285.192 121.428 283.588 121.428C281.232 121.428 279.099 120.83 277.187 119.634C275.276 118.403 273.757 116.711 272.63 114.557C271.538 112.403 270.992 109.959 270.992 107.224C270.992 104.489 271.538 102.044 272.63 99.8905C273.723 97.7025 275.208 96.0103 277.085 94.8137C278.997 93.583 281.096 92.9676 283.383 92.9676C285.021 92.9676 286.558 93.2753 287.991 93.8907C289.425 94.4719 290.637 95.224 291.627 96.147V96.0958C291.627 95.2069 291.917 94.4719 292.497 93.8907C293.077 93.2753 293.811 92.9676 294.699 92.9676ZM284.356 115.787C286.575 115.787 288.384 114.984 289.783 113.377C291.183 111.736 291.883 109.685 291.883 107.224C291.883 104.762 291.183 102.711 289.783 101.07C288.384 99.429 286.575 98.6085 284.356 98.6085C282.171 98.6085 280.379 99.429 278.979 101.07C277.58 102.711 276.88 104.762 276.88 107.224C276.88 109.685 277.563 111.736 278.928 113.377C280.328 114.984 282.137 115.787 284.356 115.787Z" fill="#54298B"/>
<g clip-path="url(#clip0_4952_6059)">
<path d="M98.8831 72.4717C82.173 72.4717 68.4065 86.0945 68.4065 102.899V119.759C68.4063 119.78 68.4062 119.802 68.4062 119.824C68.4062 119.846 68.4063 119.868 68.4065 119.89V120.322H68.422C68.6812 124.398 72.1016 127.625 76.2829 127.625C77.1743 127.625 78.0312 127.478 78.8302 127.208C80.4893 129.683 83.3288 131.314 86.553 131.314C88.1524 131.314 89.6571 130.913 90.97 130.206C92.8952 132.389 95.7264 133.768 98.8829 133.768C102.039 133.768 104.871 132.389 106.796 130.206C108.109 130.913 109.614 131.314 111.213 131.314C114.437 131.314 117.277 129.683 118.936 127.208C119.735 127.478 120.592 127.625 121.483 127.625C125.665 127.625 129.085 124.398 129.344 120.322H129.36V119.893C129.36 119.87 129.36 119.847 129.36 119.824L129.36 119.8C129.36 119.79 129.36 119.781 129.36 119.771L129.36 119.755V102.899C129.36 86.0945 115.593 72.4717 98.8831 72.4717Z" fill="#AE77F5"/>
<path d="M82.8737 91.6194C79.811 91.6194 77.3281 94.1163 77.3281 97.1963V102.926C77.3281 102.955 77.3284 102.985 77.3288 103.014C77.3284 103.044 77.3281 103.073 77.3281 103.103V108.832C77.3281 111.912 79.811 114.409 82.8737 114.409C85.9365 114.409 88.4194 111.912 88.4194 108.832V103.103C88.4194 103.073 88.4191 103.044 88.4187 103.014C88.4191 102.985 88.4194 102.955 88.4194 102.926V97.1963C88.4194 94.1163 85.9365 91.6194 82.8737 91.6194Z" fill="#CCA4FF"/>
<path d="M114.932 91.6194C111.87 91.6194 109.387 94.1163 109.387 97.1963V102.926C109.387 102.955 109.387 102.985 109.387 103.014C109.387 103.044 109.387 103.073 109.387 103.103V108.832C109.387 111.912 111.87 114.409 114.932 114.409C117.995 114.409 120.478 111.912 120.478 108.832V103.103C120.478 103.073 120.478 103.044 120.477 103.014C120.478 102.985 120.478 102.955 120.478 102.926V97.1963C120.478 94.1163 117.995 91.6194 114.932 91.6194Z" fill="#CCA4FF"/>
<path d="M77.3281 99.5156C77.3281 96.4355 79.811 93.9387 82.8737 93.9387C85.9365 93.9387 88.4194 96.4355 88.4194 99.5156V105.245C88.4194 108.325 85.9365 110.822 82.8737 110.822C79.811 110.822 77.3281 108.325 77.3281 105.245V99.5156Z" fill="#282828"/>
<path d="M82.875 99.0075C82.875 98.0055 83.6827 97.1933 84.679 97.1933C85.6753 97.1933 86.4829 98.0055 86.4829 99.0075V100.566C86.4829 101.568 85.6753 102.38 84.679 102.38C83.6827 102.38 82.875 101.568 82.875 100.566V99.0075Z" fill="white"/>
<path d="M109.344 99.5156C109.344 96.4355 111.827 93.9387 114.889 93.9387C117.952 93.9387 120.435 96.4355 120.435 99.5156V105.245C120.435 108.325 117.952 110.822 114.889 110.822C111.827 110.822 109.344 108.325 109.344 105.245V99.5156Z" fill="#282828"/>
<path d="M114.891 99.0075C114.891 98.0055 115.698 97.1933 116.695 97.1933C117.691 97.1933 118.499 98.0055 118.499 99.0075V100.566C118.499 101.568 117.691 102.38 116.695 102.38C115.698 102.38 114.891 101.568 114.891 100.566V99.0075Z" fill="white"/>
<path d="M105.402 104.88C103.666 103.411 101.109 103.692 99.4985 105.318L98.8987 105.943L98.2673 105.318C96.6888 103.692 94.1001 103.411 92.3638 104.88C90.3749 106.569 90.2802 109.57 92.0481 111.383L98.1726 117.637C98.5514 118.043 99.2144 118.043 99.5932 117.637L105.718 111.383C107.486 109.57 107.391 106.569 105.402 104.88Z" fill="#F1DC6D"/>
<path d="M97.1021 106.794C97.2919 107.248 96.8797 107.662 96.3902 107.662L93.5833 107.662C93.0938 107.662 92.6816 107.248 92.8714 106.794C92.9864 106.519 93.1551 106.269 93.3677 106.059C93.5803 105.848 93.8327 105.681 94.1105 105.567C94.3883 105.453 94.6861 105.394 94.9868 105.394C95.2874 105.394 95.5852 105.453 95.863 105.567C96.1408 105.681 96.3932 105.848 96.6058 106.059C96.8184 106.269 96.9871 106.519 97.1021 106.794Z" fill="white"/>
<path d="M104.892 106.794C105.082 107.248 104.67 107.662 104.18 107.662L101.373 107.662C100.884 107.662 100.472 107.248 100.662 106.794C100.777 106.519 100.945 106.269 101.158 106.059C101.371 105.848 101.623 105.681 101.901 105.567C102.179 105.453 102.476 105.394 102.777 105.394C103.078 105.394 103.375 105.453 103.653 105.567C103.931 105.681 104.183 105.848 104.396 106.059C104.609 106.269 104.777 106.519 104.892 106.794Z" fill="white"/>
</g>
<rect x="343.898" y="74.0179" width="187.536" height="57.4828" fill="#F1DC6D"/>
<rect x="343.898" y="16.5236" width="187.536" height="57.4828" fill="#54298B"/>
<rect x="343.895" y="131.422" width="187.536" height="57.4828" fill="#AE77F5"/>
<path d="M531.434 16.5236H727.059C735.537 16.5236 742.411 23.3967 742.411 31.875V173.553C742.411 182.032 735.538 188.905 727.059 188.905H531.434V16.5236Z" fill="#FFF9D9"/>
<mask id="mask0_4952_6059" style="mask-type:alpha" maskUnits="userSpaceOnUse" x="529" y="17" width="216" height="175">
<path d="M529.641 17.3099H744.41V175.054C744.41 184.24 736.964 191.686 727.779 191.686H529.641V17.3099Z" fill="#FFF9D9"/>
</mask>
<g mask="url(#mask0_4952_6059)">
<path d="M640.83 151.094C641.213 150.441 640.989 149.607 640.331 149.233L635.173 146.3C634.514 145.925 633.669 146.152 633.286 146.805L630.041 152.341L637.584 156.63L640.83 151.094Z" fill="#FFF9D9" stroke="#F5ECBC" stroke-width="0.958798"/>
<path d="M637.71 159.852C638.476 158.545 638.03 156.878 636.712 156.128L630.923 152.837C629.605 152.088 627.916 152.54 627.15 153.848L621.69 163.16C620.923 164.468 621.37 166.135 622.687 166.884L628.477 170.176C629.794 170.925 631.484 170.472 632.25 169.165L637.71 159.852Z" fill="#FFF9D9" stroke="#F5ECBC" stroke-width="0.958798"/>
<rect width="1.72976" height="1.19522" transform="matrix(-0.869314 -0.494259 -0.505763 0.862673 638.566 151.923)" fill="#F5ECBC"/>
<rect width="1.72976" height="1.19522" transform="matrix(-0.869314 -0.494259 -0.505763 0.862673 635.195 150.01)" fill="#F5ECBC"/>
<path d="M570.759 44.0324C571.142 43.3787 570.919 42.5452 570.26 42.1707L565.102 39.2381C564.444 38.8636 563.599 39.0899 563.216 39.7435L559.971 45.2789L567.514 49.5678L570.759 44.0324Z" fill="#FFF9D9" stroke="#F5ECBC" stroke-width="0.958798"/>
<path d="M567.64 52.79C568.406 51.4827 567.959 49.8156 566.642 49.0666L560.852 45.7749C559.535 45.0259 557.846 45.4785 557.079 46.7858L551.619 56.0986C550.853 57.406 551.3 59.073 552.617 59.822L558.406 63.1137C559.724 63.8627 561.413 63.4101 562.18 62.1028L567.64 52.79Z" fill="#FFF9D9" stroke="#F5ECBC" stroke-width="0.958798"/>
<rect width="1.72976" height="1.19522" transform="matrix(-0.869314 -0.494259 -0.505763 0.862673 568.488 44.8614)" fill="#F5ECBC"/>
<rect width="1.72976" height="1.19522" transform="matrix(-0.869314 -0.494259 -0.505763 0.862673 565.117 42.9481)" fill="#F5ECBC"/>
<path fill-rule="evenodd" clip-rule="evenodd" d="M709.232 166.979C709.232 166.979 709.232 166.979 709.232 166.979C709.225 166.956 709.219 166.933 709.213 166.91L709.211 166.905C709.211 166.905 709.211 166.905 709.211 166.905C709.211 166.905 709.211 166.905 709.211 166.905C708.912 165.802 708.948 164.643 709.314 163.569C709.439 163.202 709.601 162.85 709.796 162.519C709.797 162.518 709.796 162.517 709.795 162.516C709.794 162.516 709.794 162.515 709.794 162.514C710.386 161.513 711.272 160.709 712.342 160.204C712.573 160.095 712.81 160.002 713.052 159.923C713.553 159.759 714.079 159.66 714.615 159.629C715.809 159.562 717.002 159.84 718.045 160.428C718.046 160.428 718.046 160.43 718.045 160.431C718.045 160.432 718.045 160.433 718.046 160.434C718.391 160.629 718.717 160.857 719.02 161.116C719.927 161.89 720.581 162.905 720.899 164.03C720.9 164.031 720.899 164.031 720.899 164.031C720.899 164.031 720.899 164.031 720.899 164.032L722.726 170.465C722.908 171.106 722.532 171.758 721.886 171.921C721.24 172.085 720.569 171.697 720.387 171.056L718.559 164.623C718.559 164.622 718.557 164.621 718.556 164.621C718.555 164.621 718.553 164.621 718.553 164.619C718.362 163.947 717.971 163.341 717.429 162.878C716.887 162.415 716.218 162.116 715.507 162.018C714.95 161.942 714.386 161.993 713.86 162.164C713.492 162.284 713.146 162.463 712.835 162.693C712.271 163.113 711.85 163.687 711.626 164.344C711.402 165.001 711.385 165.709 711.576 166.382C711.576 166.383 711.575 166.385 711.574 166.385C711.572 166.386 711.571 166.387 711.572 166.389L713.399 172.822C713.581 173.463 713.205 174.115 712.559 174.278C711.913 174.441 711.242 174.054 711.06 173.413L709.232 166.98C709.232 166.979 709.232 166.979 709.232 166.979Z" fill="#FFF9D9"/>
<path d="M709.213 166.91L709.678 166.793L709.679 166.798L709.213 166.91ZM709.314 163.569L708.856 163.407L708.856 163.407L709.314 163.569ZM712.342 160.204L712.124 159.774L712.342 160.204ZM713.052 159.923L713.214 160.375L713.214 160.375L713.052 159.923ZM714.615 159.629L714.575 159.154L714.575 159.154L714.615 159.629ZM719.02 161.116L719.331 160.759L719.02 161.116ZM717.429 162.878L717.741 162.522L717.429 162.878ZM715.507 162.018L715.453 162.49L715.507 162.018ZM713.86 162.164L713.697 161.712L713.698 161.712L713.86 162.164ZM712.835 162.693L713.132 163.076L712.835 162.693ZM718.553 164.619L719.018 164.502L718.553 164.619ZM718.559 164.623L719.024 164.505L718.559 164.623ZM718.556 164.621L718.425 164.16L718.556 164.621ZM718.046 160.434L718.279 160.023L718.046 160.434ZM718.045 160.428L718.277 160.016L718.045 160.428ZM709.796 162.519L710.215 162.766L709.796 162.519ZM720.899 164.032L720.434 164.149L720.899 164.032ZM709.211 166.905L708.745 167.017L709.211 166.905ZM720.899 164.031L721.03 164.493L720.899 164.031ZM709.795 162.516L710.028 162.105L709.795 162.516ZM709.794 162.514L710.214 162.761L709.794 162.514ZM711.576 166.382L712.041 166.264L711.576 166.382ZM709.232 166.979L708.767 167.097L709.232 166.979ZM709.679 166.798C709.685 166.819 709.691 166.84 709.697 166.861L708.767 167.097C708.76 167.072 708.753 167.048 708.746 167.023L709.679 166.798ZM709.676 166.788L709.678 166.793L708.748 167.028L708.746 167.023L709.676 166.788ZM709.773 163.73C709.436 164.717 709.404 165.781 709.678 166.793L708.745 167.017C708.421 165.822 708.46 164.568 708.856 163.407L709.773 163.73ZM710.215 162.766C710.036 163.07 709.887 163.393 709.773 163.73L708.856 163.407C708.991 163.01 709.166 162.631 709.376 162.272L710.215 162.766ZM709.375 162.266C710.014 161.185 710.971 160.318 712.124 159.774L712.559 160.635C711.573 161.1 710.757 161.84 710.214 162.761L709.375 162.266ZM712.124 159.774C712.373 159.656 712.629 159.555 712.89 159.47L713.214 160.375C712.991 160.448 712.772 160.535 712.559 160.635L712.124 159.774ZM714.655 160.105C714.161 160.133 713.676 160.224 713.214 160.375L712.89 159.47C713.43 159.294 713.997 159.187 714.575 159.154L714.655 160.105ZM717.813 160.84C716.854 160.299 715.755 160.043 714.655 160.105L714.575 159.154C715.862 159.081 717.15 159.381 718.277 160.016L717.813 160.84ZM718.279 160.023C718.651 160.233 719.004 160.48 719.331 160.759L718.709 161.472C718.431 161.234 718.131 161.025 717.814 160.845L718.279 160.023ZM719.331 160.759C720.312 161.597 721.019 162.694 721.365 163.913L720.434 164.148C720.142 163.115 719.542 162.184 718.709 161.472L719.331 160.759ZM721.364 163.914L723.191 170.347L722.261 170.583L720.434 164.149L721.364 163.914ZM719.922 171.174L718.094 164.74L719.024 164.505L720.852 170.939L719.922 171.174ZM718.088 164.737C717.923 164.157 717.586 163.634 717.118 163.234L717.741 162.522C718.356 163.047 718.801 163.736 719.018 164.502L718.088 164.737ZM717.118 163.234C716.65 162.834 716.07 162.574 715.453 162.49L715.561 161.547C716.366 161.657 717.125 161.995 717.741 162.522L717.118 163.234ZM715.453 162.49C714.969 162.424 714.479 162.468 714.022 162.617L713.698 161.712C714.293 161.518 714.93 161.461 715.561 161.547L715.453 162.49ZM712.538 162.311C712.89 162.049 713.281 161.848 713.697 161.712L714.022 162.617C713.703 162.721 713.402 162.876 713.132 163.076L712.538 162.311ZM711.168 164.183C711.422 163.436 711.899 162.785 712.538 162.311L713.132 163.076C712.642 163.44 712.278 163.938 712.084 164.506L711.168 164.183ZM711.111 166.499C710.893 165.734 710.913 164.928 711.168 164.183L712.084 164.506C711.891 165.073 711.876 165.685 712.041 166.264L711.111 166.499ZM712.934 172.939L711.107 166.506L712.037 166.271L713.864 172.704L712.934 172.939ZM709.697 166.862L711.525 173.296L710.595 173.531L708.767 167.097L709.697 166.862ZM712.69 174.739C711.787 174.968 710.849 174.426 710.595 173.531L711.525 173.296C711.635 173.682 712.039 173.915 712.428 173.817L712.69 174.739ZM718.687 165.083C718.428 165.148 718.16 164.992 718.088 164.737L719.018 164.502C718.946 164.249 718.681 164.095 718.425 164.16L718.687 165.083ZM718.094 164.74C718.166 164.994 718.431 165.147 718.687 165.083L718.425 164.16C718.684 164.095 718.952 164.249 719.024 164.505L718.094 164.74ZM723.191 170.347C723.446 171.243 722.92 172.154 722.017 172.383L721.755 171.46C722.144 171.361 722.371 170.969 722.261 170.583L723.191 170.347ZM718.465 160.677C718.598 160.451 718.514 160.156 718.279 160.023L717.814 160.845C717.576 160.711 717.491 160.413 717.626 160.185L718.465 160.677ZM718.277 160.016C718.515 160.15 718.6 160.448 718.465 160.677L717.626 160.185C717.492 160.412 717.577 160.707 717.813 160.84L718.277 160.016ZM722.017 172.383C721.114 172.611 720.176 172.07 719.922 171.174L720.852 170.939C720.962 171.325 721.366 171.558 721.755 171.46L722.017 172.383ZM708.767 167.097C708.84 167.352 709.107 167.506 709.364 167.441L709.1 166.518C709.357 166.453 709.625 166.607 709.697 166.862L708.767 167.097ZM709.376 162.272C709.243 162.499 709.327 162.794 709.562 162.928L710.028 162.105C710.266 162.24 710.35 162.537 710.215 162.766L709.376 162.272ZM721.03 164.493C721.287 164.428 721.436 164.169 721.364 163.914L720.434 164.149C720.361 163.894 720.511 163.634 720.768 163.569L721.03 164.493ZM713.864 172.704C714.119 173.6 713.593 174.511 712.69 174.739L712.428 173.817C712.817 173.718 713.044 173.325 712.934 172.939L713.864 172.704ZM709.08 166.444C708.825 166.508 708.676 166.764 708.745 167.017L709.678 166.793C709.746 167.046 709.597 167.302 709.342 167.367L709.08 166.444ZM721.365 163.913C721.437 164.168 721.287 164.428 721.03 164.493L720.768 163.569C720.512 163.634 720.362 163.893 720.434 164.148L721.365 163.913ZM711.705 166.847C711.96 166.782 712.109 166.524 712.037 166.271L711.107 166.506C711.034 166.25 711.184 165.99 711.442 165.924L711.705 166.847ZM708.746 167.023C708.674 166.768 708.823 166.509 709.08 166.444L709.342 167.367C709.599 167.302 709.749 167.042 709.676 166.788L708.746 167.023ZM709.562 162.928C709.324 162.793 709.24 162.495 709.375 162.266L710.214 162.761C710.347 162.534 710.264 162.239 710.028 162.105L709.562 162.928ZM712.041 166.264C712.114 166.52 711.964 166.781 711.705 166.847L711.442 165.924C711.187 165.989 711.039 166.247 711.111 166.499L712.041 166.264ZM709.697 166.861C709.624 166.607 709.357 166.453 709.1 166.518L709.364 167.441C709.107 167.506 708.839 167.352 708.767 167.097L709.697 166.861Z" fill="#F5ECBC"/>
<path d="M726.812 175.104C727.701 178.201 725.892 181.359 722.771 182.157L717.267 183.564C714.146 184.362 710.895 182.498 710.006 179.401L709.426 177.383C708.537 174.286 710.346 171.129 713.467 170.331L718.971 168.924C722.092 168.126 725.343 169.99 726.232 173.087L726.812 175.104Z" fill="#FFF9D9" stroke="#F5ECBC" stroke-width="0.959334"/>
<mask id="path-29-inside-1_4952_6059" fill="white">
<path fill-rule="evenodd" clip-rule="evenodd" d="M719.83 177.551C719.644 177.167 719.74 176.725 719.934 176.354C720.186 175.873 720.26 175.3 720.098 174.732C719.754 173.52 718.467 172.792 717.224 173.106C715.981 173.42 715.252 174.658 715.596 175.87C715.758 176.438 716.126 176.899 716.599 177.197C716.963 177.427 717.281 177.765 717.323 178.184L717.363 178.58C717.426 179.199 718.04 179.627 718.646 179.473L719.367 179.291C719.974 179.138 720.279 178.478 720.005 177.912L719.83 177.551Z"/>
</mask>
<path fill-rule="evenodd" clip-rule="evenodd" d="M719.83 177.551C719.644 177.167 719.74 176.725 719.934 176.354C720.186 175.873 720.26 175.3 720.098 174.732C719.754 173.52 718.467 172.792 717.224 173.106C715.981 173.42 715.252 174.658 715.596 175.87C715.758 176.438 716.126 176.899 716.599 177.197C716.963 177.427 717.281 177.765 717.323 178.184L717.363 178.58C717.426 179.199 718.04 179.627 718.646 179.473L719.367 179.291C719.974 179.138 720.279 178.478 720.005 177.912L719.83 177.551Z" fill="#F5ECBC"/>
<path d="M718.646 179.473L718.908 180.396L718.646 179.473ZM719.367 179.291L719.63 180.214L719.367 179.291ZM720.005 177.912L719.135 178.305L720.005 177.912ZM719.934 176.354L719.073 175.901L719.934 176.354ZM719.83 177.551L718.96 177.943L719.83 177.551ZM719.168 174.967C719.261 175.292 719.22 175.62 719.073 175.901L720.795 176.808C721.152 176.126 721.259 175.308 721.029 174.497L719.168 174.967ZM717.486 174.029C718.231 173.841 718.973 174.28 719.168 174.967L721.029 174.497C720.535 172.76 718.703 171.743 716.962 172.183L717.486 174.029ZM716.526 175.635C716.331 174.947 716.741 174.217 717.486 174.029L716.962 172.183C715.22 172.623 714.173 174.368 714.666 176.105L716.526 175.635ZM717.104 176.399C716.828 176.225 716.619 175.96 716.526 175.635L714.666 176.105C714.896 176.916 715.423 177.574 716.094 177.996L717.104 176.399ZM718.325 178.509L718.285 178.114L716.362 178.255L716.402 178.65L718.325 178.509ZM719.105 178.368L718.384 178.551L718.908 180.396L719.63 180.214L719.105 178.368ZM718.96 177.943L719.135 178.305L720.875 177.52L720.7 177.158L718.96 177.943ZM716.402 178.65C716.524 179.86 717.723 180.696 718.908 180.396L718.384 178.551C718.374 178.553 718.368 178.553 718.364 178.552C718.359 178.551 718.352 178.548 718.345 178.543C718.338 178.538 718.333 178.533 718.331 178.528C718.328 178.525 718.326 178.519 718.325 178.509L716.402 178.65ZM716.094 177.996C716.204 178.066 716.28 178.135 716.324 178.191C716.344 178.217 716.354 178.235 716.358 178.245C716.36 178.25 716.361 178.253 716.362 178.254C716.362 178.254 716.362 178.255 716.362 178.255C716.362 178.255 716.362 178.255 716.362 178.255C716.362 178.255 716.362 178.255 716.362 178.255C716.362 178.255 716.362 178.255 716.362 178.255C716.362 178.255 716.362 178.255 716.362 178.255L718.285 178.114C718.199 177.26 717.578 176.697 717.104 176.399L716.094 177.996ZM719.63 180.214C720.815 179.914 721.411 178.625 720.875 177.52L719.135 178.305C719.139 178.314 719.14 178.32 719.14 178.324C719.14 178.329 719.139 178.336 719.135 178.344C719.132 178.351 719.127 178.356 719.123 178.36C719.12 178.363 719.115 178.366 719.105 178.368L719.63 180.214ZM719.073 175.901C718.821 176.382 718.582 177.163 718.96 177.943L720.7 177.158C720.7 177.158 720.7 177.158 720.7 177.158C720.7 177.158 720.7 177.158 720.7 177.158C720.7 177.158 720.7 177.158 720.7 177.158C720.7 177.158 720.7 177.158 720.7 177.158C720.7 177.158 720.7 177.158 720.699 177.157C720.699 177.156 720.698 177.153 720.698 177.148C720.696 177.138 720.695 177.117 720.699 177.085C720.707 177.016 720.736 176.92 720.795 176.808L719.073 175.901Z" fill="#F5ECBC" mask="url(#path-29-inside-1_4952_6059)"/>
<path fill-rule="evenodd" clip-rule="evenodd" d="M548.794 102.871C548.794 102.871 548.794 102.871 548.794 102.871C548.788 102.848 548.781 102.825 548.775 102.802L548.774 102.796C548.774 102.796 548.774 102.796 548.774 102.796C548.774 102.796 548.774 102.796 548.774 102.796C548.475 101.693 548.51 100.534 548.877 99.4598C549.002 99.0931 549.163 98.7418 549.358 98.4103C549.359 98.4094 549.359 98.4082 549.358 98.4076C549.357 98.4071 549.356 98.4058 549.357 98.4049C549.948 97.4039 550.834 96.6003 551.904 96.0957C552.135 95.9868 552.372 95.8928 552.614 95.8141C553.116 95.6504 553.641 95.5511 554.177 95.5207C555.371 95.4532 556.565 95.731 557.607 96.3191C557.608 96.3197 557.609 96.3211 557.608 96.3222C557.607 96.3232 557.608 96.3246 557.609 96.3253C557.954 96.5204 558.28 96.7484 558.583 97.0071C559.489 97.7817 560.143 98.7959 560.462 99.9217C560.462 99.922 560.462 99.9222 560.462 99.9223C560.461 99.9224 560.461 99.9226 560.461 99.9229L562.289 106.356C562.471 106.997 562.095 107.649 561.449 107.813C560.803 107.976 560.131 107.589 559.949 106.948L558.122 100.514C558.121 100.513 558.12 100.512 558.119 100.512C558.117 100.513 558.116 100.512 558.115 100.511C557.924 99.838 557.534 99.2321 556.992 98.7693C556.45 98.3059 555.781 98.0068 555.07 97.9098C554.512 97.8337 553.948 97.8845 553.422 98.0555C553.055 98.1758 552.708 98.3539 552.398 98.5847C551.833 99.0041 551.412 99.5786 551.188 100.236C550.965 100.892 550.947 101.601 551.138 102.273C551.139 102.275 551.138 102.276 551.136 102.277C551.135 102.277 551.134 102.279 551.134 102.28L552.962 108.713C553.144 109.354 552.768 110.006 552.122 110.169C551.476 110.333 550.804 109.945 550.622 109.304L548.795 102.871C548.795 102.871 548.795 102.871 548.794 102.871Z" fill="#FFF9D9"/>
<path d="M548.775 102.802L549.24 102.684L549.242 102.689L548.775 102.802ZM548.877 99.4598L548.418 99.298L548.418 99.298L548.877 99.4598ZM551.904 96.0957L551.687 95.6653L551.904 96.0957ZM552.614 95.8141L552.777 96.2665L552.776 96.2666L552.614 95.8141ZM554.177 95.5207L554.138 95.0454L554.138 95.0454L554.177 95.5207ZM558.583 97.0071L558.894 96.6508L558.583 97.0071ZM556.992 98.7693L557.303 98.413L556.992 98.7693ZM555.07 97.9098L555.015 98.3814L555.07 97.9098ZM553.422 98.0555L553.26 97.6032L553.261 97.603L553.422 98.0555ZM552.398 98.5847L552.695 98.9675L552.398 98.5847ZM550.622 109.304L550.157 109.422L550.622 109.304ZM558.115 100.511L558.58 100.393L558.115 100.511ZM558.122 100.514L558.587 100.397L558.122 100.514ZM558.119 100.512L558.249 100.974L558.119 100.512ZM557.609 96.3253L557.376 96.7367L557.609 96.3253ZM557.607 96.3191L557.839 95.9073L557.607 96.3191ZM548.795 102.871L548.33 102.988L548.795 102.871ZM549.358 98.4103L549.778 98.6569L549.358 98.4103ZM560.461 99.9229L560.926 99.8054L560.461 99.9229ZM548.774 102.796L548.307 102.908L548.774 102.796ZM560.462 99.9223L560.592 100.384L560.462 99.9223ZM548.774 102.796L549.239 102.679L548.774 102.796ZM549.358 98.4076L549.591 97.9963L549.358 98.4076ZM549.357 98.4049L549.776 98.6521L549.357 98.4049ZM551.138 102.273L551.603 102.156L551.138 102.273ZM548.794 102.871L548.329 102.988L548.794 102.871ZM549.242 102.689C549.247 102.711 549.253 102.732 549.259 102.753L548.329 102.988C548.322 102.964 548.315 102.939 548.309 102.914L549.242 102.689ZM549.239 102.679L549.24 102.684L548.31 102.919L548.309 102.914L549.239 102.679ZM549.335 99.6217C548.999 100.609 548.966 101.672 549.24 102.685L548.307 102.908C547.984 101.714 548.022 100.46 548.418 99.298L549.335 99.6217ZM549.778 98.6569C549.599 98.9617 549.45 99.2847 549.335 99.6217L548.418 99.298C548.553 98.9015 548.728 98.5218 548.939 98.1637L549.778 98.6569ZM548.938 98.1577C549.576 97.0763 550.533 96.2094 551.687 95.6653L552.122 96.5262C551.136 96.9913 550.32 97.7314 549.776 98.6521L548.938 98.1577ZM551.687 95.6653C551.936 95.5478 552.192 95.4465 552.453 95.3616L552.776 96.2666C552.553 96.3392 552.334 96.4258 552.122 96.5262L551.687 95.6653ZM554.217 95.9961C553.723 96.024 553.239 96.1156 552.777 96.2665L552.452 95.3617C552.993 95.1852 553.559 95.0781 554.138 95.0454L554.217 95.9961ZM557.375 96.7308C556.416 96.19 555.318 95.9339 554.217 95.9961L554.138 95.0454C555.425 94.9726 556.713 95.2721 557.839 95.9073L557.375 96.7308ZM557.841 95.9138C558.214 96.1246 558.567 96.3711 558.894 96.6508L558.272 97.3635C557.993 97.1258 557.693 96.9161 557.376 96.7367L557.841 95.9138ZM558.894 96.6508C559.874 97.4883 560.582 98.5857 560.927 99.8045L559.997 100.039C559.704 99.0062 559.104 98.0751 558.272 97.3635L558.894 96.6508ZM560.926 99.8054L562.754 106.239L561.824 106.474L559.996 100.04L560.926 99.8054ZM559.484 107.065L557.657 100.632L558.587 100.397L560.414 106.83L559.484 107.065ZM557.65 100.628C557.486 100.048 557.149 99.5256 556.681 99.1256L557.303 98.413C557.918 98.9386 558.363 99.6276 558.58 100.393L557.65 100.628ZM556.681 99.1257C556.212 98.7252 555.633 98.4657 555.015 98.3814L555.124 97.4382C555.929 97.548 556.687 97.8867 557.303 98.413L556.681 99.1257ZM555.015 98.3814C554.531 98.3153 554.041 98.3594 553.584 98.5081L553.261 97.603C553.855 97.4096 554.493 97.3521 555.124 97.4382L555.015 98.3814ZM552.101 98.2019C552.452 97.9407 552.844 97.7392 553.26 97.6032L553.585 98.5078C553.265 98.6124 552.964 98.7671 552.695 98.9675L552.101 98.2019ZM550.73 100.074C550.984 99.3276 551.462 98.6765 552.101 98.2019L552.695 98.9675C552.205 99.3316 551.84 99.8296 551.647 100.398L550.73 100.074ZM550.673 102.391C550.456 101.625 550.476 100.819 550.73 100.074L551.647 100.398C551.454 100.964 551.439 101.576 551.603 102.156L550.673 102.391ZM552.497 108.831L550.669 102.398L551.599 102.163L553.427 108.596L552.497 108.831ZM549.26 102.753L551.087 109.187L550.157 109.422L548.33 102.988L549.26 102.753ZM552.253 110.631C551.35 110.859 550.412 110.318 550.157 109.422L551.087 109.187C551.197 109.573 551.601 109.806 551.991 109.708L552.253 110.631ZM558.249 100.974C557.99 101.039 557.723 100.883 557.65 100.628L558.58 100.393C558.509 100.14 558.244 99.9864 557.988 100.051L558.249 100.974ZM557.657 100.632C557.729 100.885 557.994 101.038 558.249 100.974L557.988 100.051C558.246 99.9859 558.514 100.141 558.587 100.397L557.657 100.632ZM562.754 106.239C563.008 107.135 562.483 108.046 561.58 108.274L561.318 107.351C561.707 107.253 561.933 106.86 561.824 106.474L562.754 106.239ZM558.028 96.5685C558.161 96.3419 558.077 96.0471 557.841 95.9138L557.376 96.7367C557.139 96.6022 557.054 96.3046 557.188 96.0758L558.028 96.5685ZM557.839 95.9073C558.077 96.0415 558.162 96.3394 558.028 96.5685L557.188 96.0758C557.055 96.3028 557.139 96.5979 557.375 96.7308L557.839 95.9073ZM561.58 108.274C560.677 108.502 559.739 107.961 559.484 107.065L560.414 106.83C560.524 107.216 560.928 107.449 561.318 107.351L561.58 108.274ZM548.33 102.988C548.402 103.243 548.669 103.397 548.926 103.332L548.663 102.409C548.92 102.344 549.187 102.498 549.26 102.753L548.33 102.988ZM548.939 98.1637C548.806 98.3902 548.889 98.6854 549.125 98.8189L549.591 97.9963C549.828 98.131 549.912 98.4285 549.778 98.6569L548.939 98.1637ZM560.592 100.384C560.849 100.319 560.999 100.06 560.926 99.8054L559.996 100.04C559.924 99.7852 560.074 99.5256 560.331 99.4608L560.592 100.384ZM553.427 108.596C553.681 109.491 553.156 110.403 552.253 110.631L551.991 109.708C552.38 109.61 552.606 109.217 552.497 108.831L553.427 108.596ZM548.643 102.335C548.388 102.399 548.239 102.655 548.307 102.908L549.24 102.685C549.309 102.938 549.16 103.193 548.905 103.258L548.643 102.335ZM560.927 99.8045C560.999 100.059 560.85 100.319 560.592 100.384L560.331 99.4608C560.074 99.5255 559.925 99.7845 559.997 100.039L560.927 99.8045ZM551.268 102.738C551.523 102.673 551.671 102.416 551.599 102.163L550.669 102.398C550.597 102.141 550.747 101.881 551.005 101.815L551.268 102.738ZM548.309 102.914C548.236 102.659 548.386 102.4 548.643 102.335L548.905 103.258C549.162 103.193 549.311 102.934 549.239 102.679L548.309 102.914ZM549.125 98.8189C548.887 98.684 548.803 98.386 548.938 98.1577L549.776 98.6521C549.91 98.4256 549.827 98.1301 549.591 97.9963L549.125 98.8189ZM551.603 102.156C551.676 102.411 551.527 102.672 551.268 102.738L551.005 101.815C550.749 101.88 550.602 102.138 550.673 102.391L551.603 102.156ZM549.259 102.753C549.187 102.498 548.92 102.344 548.663 102.409L548.926 103.332C548.669 103.397 548.402 103.243 548.329 102.988L549.259 102.753Z" fill="#F5ECBC"/>
<path d="M566.374 110.996C567.264 114.093 565.454 117.25 562.333 118.048L556.829 119.455C553.708 120.253 550.457 118.389 549.568 115.292L548.989 113.275C548.1 110.178 549.909 107.02 553.03 106.222L558.534 104.815C561.655 104.017 564.906 105.881 565.795 108.978L566.374 110.996Z" fill="#FFF9D9" stroke="#F5ECBC" stroke-width="0.959334"/>
<mask id="path-34-inside-2_4952_6059" fill="white">
<path fill-rule="evenodd" clip-rule="evenodd" d="M559.392 113.442C559.206 113.058 559.303 112.616 559.496 112.246C559.748 111.764 559.822 111.191 559.661 110.623C559.317 109.411 558.03 108.683 556.786 108.997C555.543 109.311 554.814 110.549 555.159 111.761C555.32 112.329 555.688 112.791 556.161 113.089C556.526 113.318 556.844 113.656 556.886 114.076L556.926 114.471C556.988 115.09 557.602 115.518 558.209 115.365L558.93 115.182C559.537 115.029 559.842 114.369 559.567 113.803L559.392 113.442Z"/>
</mask>
<path fill-rule="evenodd" clip-rule="evenodd" d="M559.392 113.442C559.206 113.058 559.303 112.616 559.496 112.246C559.748 111.764 559.822 111.191 559.661 110.623C559.317 109.411 558.03 108.683 556.786 108.997C555.543 109.311 554.814 110.549 555.159 111.761C555.32 112.329 555.688 112.791 556.161 113.089C556.526 113.318 556.844 113.656 556.886 114.076L556.926 114.471C556.988 115.09 557.602 115.518 558.209 115.365L558.93 115.182C559.537 115.029 559.842 114.369 559.567 113.803L559.392 113.442Z" fill="#F5ECBC"/>
<path d="M556.926 114.471L555.964 114.541L556.926 114.471ZM556.886 114.076L555.924 114.146L556.886 114.076ZM558.93 115.182L559.192 116.105L558.93 115.182ZM559.567 113.803L558.697 114.196L559.567 113.803ZM559.496 112.246L558.635 111.792L559.496 112.246ZM559.392 113.442L558.522 113.834L559.392 113.442ZM558.731 110.859C558.823 111.183 558.782 111.511 558.635 111.792L560.357 112.699C560.714 112.017 560.821 111.199 560.591 110.388L558.731 110.859ZM557.048 109.92C557.793 109.732 558.536 110.171 558.731 110.859L560.591 110.388C560.098 108.651 558.266 107.634 556.524 108.074L557.048 109.92ZM556.089 111.526C555.893 110.839 556.304 110.108 557.048 109.92L556.524 108.074C554.782 108.515 553.735 110.259 554.229 111.996L556.089 111.526ZM556.667 112.29C556.391 112.116 556.181 111.851 556.089 111.526L554.229 111.996C554.459 112.807 554.985 113.465 555.656 113.888L556.667 112.29ZM557.887 114.401L557.847 114.005L555.924 114.146L555.964 114.541L557.887 114.401ZM558.668 114.26L557.947 114.442L558.471 116.287L559.192 116.105L558.668 114.26ZM558.522 113.834L558.697 114.196L560.437 113.411L560.262 113.049L558.522 113.834ZM555.964 114.541C556.086 115.752 557.286 116.587 558.471 116.287L557.947 114.442C557.937 114.444 557.931 114.444 557.927 114.443C557.921 114.442 557.914 114.439 557.908 114.435C557.901 114.43 557.896 114.424 557.893 114.42C557.891 114.416 557.888 114.411 557.887 114.401L555.964 114.541ZM555.656 113.888C555.767 113.957 555.843 114.027 555.886 114.082C555.907 114.108 555.917 114.127 555.921 114.136C555.923 114.141 555.924 114.144 555.924 114.145C555.924 114.146 555.924 114.146 555.924 114.146C555.924 114.146 555.924 114.146 555.924 114.146C555.924 114.146 555.924 114.146 555.924 114.146C555.924 114.146 555.924 114.146 555.924 114.146C555.924 114.146 555.924 114.146 555.924 114.146L557.847 114.005C557.761 113.152 557.14 112.588 556.667 112.29L555.656 113.888ZM559.192 116.105C560.377 115.806 560.973 114.517 560.437 113.411L558.697 114.196C558.702 114.205 558.702 114.211 558.702 114.215C558.702 114.221 558.701 114.227 558.698 114.235C558.694 114.242 558.69 114.248 558.686 114.251C558.683 114.254 558.678 114.257 558.668 114.26L559.192 116.105ZM558.635 111.792C558.383 112.274 558.144 113.055 558.522 113.834L560.262 113.049C560.262 113.049 560.262 113.049 560.262 113.049C560.262 113.049 560.262 113.049 560.262 113.049C560.262 113.049 560.262 113.049 560.262 113.049C560.262 113.049 560.262 113.049 560.262 113.049C560.262 113.049 560.262 113.049 560.262 113.048C560.262 113.047 560.261 113.044 560.26 113.039C560.259 113.029 560.257 113.008 560.261 112.976C560.27 112.908 560.299 112.811 560.357 112.699L558.635 111.792Z" fill="#F5ECBC" mask="url(#path-34-inside-2_4952_6059)"/>
<rect width="17.6101" height="24.9868" rx="5.21586" transform="matrix(-0.273428 0.961892 0.969553 0.244883 622.336 22.9048)" fill="#FFF9D9" stroke="#F5ECBC" stroke-width="0.958798"/>
<path d="M645.57 31.1196L634.979 35.1739M622.086 25.1882L629.108 33.6911M629.108 33.6911L631.449 36.5254L634.979 35.1739M629.108 33.6911L618.517 37.7455M634.979 35.1739L642.001 43.6769" stroke="#F5ECBC" stroke-width="0.958798"/>
<rect width="17.6101" height="24.9868" rx="5.21586" transform="matrix(-0.273428 0.961892 0.969553 0.244883 622.336 22.9048)" stroke="#F5ECBC" stroke-width="0.958798"/>
<rect width="17.6093" height="24.9859" rx="5.21586" transform="matrix(-0.278114 0.960548 0.970604 0.240682 708.059 94.7282)" fill="#FFF9D9" stroke="#F5ECBC" stroke-width="0.958798"/>
<path d="M731.305 102.836L720.674 106.92M707.796 97.0067L714.797 105.462M714.797 105.462L717.13 108.281L720.674 106.92M714.797 105.462L704.166 109.546M720.674 106.92L727.674 115.375" stroke="#F5ECBC" stroke-width="0.958798"/>
<rect width="17.6093" height="24.9859" rx="5.21586" transform="matrix(-0.278114 0.960548 0.970604 0.240682 708.059 94.7282)" stroke="#F5ECBC" stroke-width="0.958798"/>
<path d="M729.523 42.5764H728.774C726.32 42.5764 723.974 41.5666 722.288 39.7841V39.7841C719.631 36.9767 715.162 36.9767 712.506 39.7841V39.7841C710.819 41.5666 708.473 42.5764 706.019 42.5764H705.27" stroke="#F5ECBC" stroke-width="0.958798"/>
<path d="M729.523 46.5573H728.774C726.32 46.5573 723.974 45.5474 722.288 43.765V43.765C719.631 40.9576 715.162 40.9576 712.506 43.765V43.765C710.819 45.5474 708.473 46.5573 706.019 46.5573H705.27" stroke="#F5ECBC" stroke-width="0.958798"/>
<path d="M729.523 50.5376H728.774C726.32 50.5376 723.974 49.5278 722.288 47.7453V47.7453C719.631 44.9379 715.162 44.9379 712.506 47.7453V47.7453C710.819 49.5278 708.473 50.5376 706.019 50.5376H705.27" stroke="#F5ECBC" stroke-width="0.958798"/>
<path d="M729.523 54.5184H728.774C726.32 54.5184 723.974 53.5086 722.288 51.7262V51.7262C719.631 48.9187 715.162 48.9187 712.506 51.7262V51.7262C710.819 53.5086 708.473 54.5184 706.019 54.5184H705.27" stroke="#F5ECBC" stroke-width="0.958798"/>
<path d="M571.48 168.26H570.731C568.277 168.26 565.932 167.25 564.245 165.468V165.468C561.588 162.66 557.119 162.66 554.463 165.468V165.468C552.776 167.25 550.43 168.26 547.976 168.26H547.227" stroke="#F5ECBC" stroke-width="0.958798"/>
<path d="M571.48 172.241H570.731C568.277 172.241 565.932 171.231 564.245 169.448V169.448C561.588 166.641 557.119 166.641 554.463 169.448V169.448C552.776 171.231 550.43 172.241 547.976 172.241H547.227" stroke="#F5ECBC" stroke-width="0.958798"/>
<path d="M571.48 176.221H570.731C568.277 176.221 565.932 175.211 564.245 173.429V173.429C561.588 170.621 557.119 170.621 554.463 173.429V173.429C552.776 175.211 550.43 176.221 547.976 176.221H547.227" stroke="#F5ECBC" stroke-width="0.958798"/>
<path d="M571.48 180.202H570.731C568.277 180.202 565.932 179.192 564.245 177.41V177.41C561.588 174.602 557.119 174.602 554.463 177.41V177.41C552.776 179.192 550.43 180.202 547.976 180.202H547.227" stroke="#F5ECBC" stroke-width="0.958798"/>
<path d="M644.773 93.8746H644.024C641.57 93.8746 639.224 92.8647 637.538 91.0823V91.0823C634.881 88.2749 630.412 88.2749 627.756 91.0823V91.0823C626.069 92.8647 623.723 93.8746 621.269 93.8746H620.52" stroke="#F5ECBC" stroke-width="0.958798"/>
<path d="M644.773 97.8555H644.024C641.57 97.8555 639.224 96.8456 637.538 95.0632V95.0632C634.881 92.2558 630.412 92.2558 627.756 95.0632V95.0632C626.069 96.8456 623.723 97.8555 621.269 97.8555H620.52" stroke="#F5ECBC" stroke-width="0.958798"/>
<path d="M644.773 101.836H644.024C641.57 101.836 639.224 100.826 637.538 99.0435V99.0435C634.881 96.2361 630.412 96.2361 627.756 99.0435V99.0435C626.069 100.826 623.723 101.836 621.269 101.836H620.52" stroke="#F5ECBC" stroke-width="0.958798"/>
<path d="M644.773 105.817H644.024C641.57 105.817 639.224 104.807 637.538 103.024V103.024C634.881 100.217 630.412 100.217 627.756 103.024V103.024C626.069 104.807 623.723 105.817 621.269 105.817H620.52" stroke="#F5ECBC" stroke-width="0.958798"/>
</g>
<circle cx="642.215" cy="102.714" r="70.9967" fill="#54298B"/>
<path fill-rule="evenodd" clip-rule="evenodd" d="M717.934 60.2256C717.935 60.2262 717.937 60.2257 717.937 60.2245C719.006 57.9612 719.377 55.4307 719.003 52.9527C718.878 52.1241 718.672 51.3137 718.389 50.5326C718.389 50.5316 718.39 50.5305 718.391 50.5302C718.392 50.5298 718.392 50.5287 718.392 50.5277C717.801 48.8987 716.885 47.4146 715.708 46.1611C714.035 44.3764 711.881 43.1089 709.504 42.5129C707.068 41.9019 704.507 42.0242 702.145 42.8644C702.142 42.8652 702.141 42.8678 702.142 42.8701C702.143 42.8724 702.142 42.875 702.139 42.8758C701.356 43.1552 700.599 43.5121 699.88 43.9436C697.73 45.2329 696.015 47.1301 694.949 49.3953C694.949 49.3959 694.949 49.3966 694.95 49.3969C694.95 49.3972 694.951 49.398 694.95 49.3986L688.836 62.3724C688.236 63.6449 688.781 65.1627 690.054 65.7625C691.326 66.3622 692.844 65.8168 693.444 64.5443L699.559 51.5701C699.56 51.5675 699.563 51.5664 699.566 51.5676C699.568 51.5688 699.571 51.5677 699.573 51.5651C700.21 50.2119 701.236 49.0786 702.52 48.3082C703.806 47.5368 705.293 47.1638 706.794 47.2364C708.295 47.3089 709.743 47.8238 710.953 48.7158C711.327 48.9916 711.674 49.2997 711.989 49.6355C712.013 49.6619 712.038 49.6885 712.062 49.7152C713.074 50.8268 713.733 52.2115 713.956 53.6942C714.18 55.1757 713.958 56.6884 713.32 58.0417C713.319 58.0437 713.32 58.0461 713.322 58.047C713.324 58.048 713.325 58.0503 713.324 58.0523L707.208 71.0284C706.608 72.3009 707.153 73.8187 708.426 74.4185C709.699 75.0182 711.216 74.4728 711.816 73.2003L717.931 60.2268C717.931 60.2256 717.933 60.2251 717.934 60.2256Z" fill="#E1CAFF"/>
<path d="M678.363 72.2769C676.696 75.79 678.192 79.9898 681.705 81.6575L702.069 91.3244C705.582 92.992 709.782 91.496 711.45 87.9829L718.041 74.0989C719.709 70.5858 718.213 66.386 714.7 64.7184L694.335 55.0514C690.822 53.3838 686.622 54.8798 684.955 58.3929L678.363 72.2769Z" fill="#F1DC6D"/>
<mask id="path-57-inside-3_4952_6059" fill="white">
<path fill-rule="evenodd" clip-rule="evenodd" d="M694.536 74.8228C694.828 74.4073 694.817 73.8589 694.605 73.3972C694.023 72.133 693.982 70.6328 694.621 69.2786C695.77 66.8396 698.687 65.798 701.136 66.9522C703.585 68.1064 704.638 71.0193 703.489 73.4584C702.85 74.8132 701.666 75.7368 700.32 76.0925C699.829 76.2223 699.398 76.563 699.264 77.0534L698.567 79.5999C698.368 80.3272 697.56 80.6989 696.878 80.3774L693.489 78.7802C692.807 78.4587 692.58 77.5996 693.014 76.983L694.536 74.8228Z"/>
</mask>
<path fill-rule="evenodd" clip-rule="evenodd" d="M694.536 74.8228C694.828 74.4073 694.817 73.8589 694.605 73.3972C694.023 72.133 693.982 70.6328 694.621 69.2786C695.77 66.8396 698.687 65.798 701.136 66.9522C703.585 68.1064 704.638 71.0193 703.489 73.4584C702.85 74.8132 701.666 75.7368 700.32 76.0925C699.829 76.2223 699.398 76.563 699.264 77.0534L698.567 79.5999C698.368 80.3272 697.56 80.6989 696.878 80.3774L693.489 78.7802C692.807 78.4587 692.58 77.5996 693.014 76.983L694.536 74.8228Z" fill="#54298B"/>
<path d="M698.567 79.5999L699.684 79.9057L698.567 79.5999ZM693.014 76.983L693.961 77.6497L693.014 76.983ZM694.605 73.3972L693.553 73.8813L694.605 73.3972ZM695.668 69.7723C695.182 70.8034 695.211 71.9454 695.657 72.9132L693.553 73.8813C692.835 72.3206 692.783 70.4622 693.573 68.7849L695.668 69.7723ZM700.642 67.9997C698.768 67.1162 696.543 67.9157 695.668 69.7723L693.573 68.7849C694.997 65.7634 698.606 64.4797 701.63 65.9047L700.642 67.9997ZM702.441 72.9647C703.316 71.1081 702.517 68.8831 700.642 67.9997L701.63 65.9047C704.653 67.3297 705.96 70.9305 704.536 73.952L702.441 72.9647ZM700.024 74.9729C701.055 74.7007 701.955 73.9963 702.441 72.9647L704.536 73.952C703.745 75.6301 702.278 76.773 700.616 77.212L700.024 74.9729ZM697.45 79.294L698.147 76.7475L700.381 77.3593L699.684 79.9057L697.45 79.294ZM693.983 77.7327L697.372 79.3299L696.385 81.4248L692.996 79.8276L693.983 77.7327ZM695.482 75.4896L693.961 77.6497L692.068 76.3163L693.589 74.1561L695.482 75.4896ZM699.684 79.9057C699.294 81.3268 697.717 82.053 696.385 81.4248L697.372 79.3299C697.383 79.3351 697.39 79.3359 697.395 79.3358C697.402 79.3358 697.41 79.3343 697.419 79.3301C697.428 79.3259 697.435 79.3205 697.439 79.3156C697.443 79.3117 697.447 79.3059 697.45 79.294L699.684 79.9057ZM700.616 77.212C700.527 77.2356 700.46 77.2744 700.421 77.3089C700.385 77.3405 700.381 77.3587 700.381 77.3593L698.147 76.7475C698.418 75.7587 699.246 75.1787 700.024 74.9729L700.616 77.212ZM692.996 79.8276C691.663 79.1995 691.219 77.5209 692.068 76.3163L693.961 77.6497C693.954 77.6598 693.952 77.6666 693.951 77.6716C693.95 77.6781 693.95 77.6867 693.953 77.6963C693.955 77.7059 693.959 77.7134 693.964 77.7185C693.967 77.7225 693.972 77.7274 693.983 77.7327L692.996 79.8276ZM695.657 72.9132C695.993 73.6448 696.072 74.6517 695.482 75.4896L693.589 74.1561C693.589 74.1557 693.601 74.141 693.602 74.0932C693.604 74.0409 693.591 73.9649 693.553 73.8813L695.657 72.9132Z" fill="#54298B" mask="url(#path-57-inside-3_4952_6059)"/>
<path d="M558.626 96.3169C564.137 90.8123 572.87 90.6097 580.852 98.5837C587.778 105.501 586.225 103.951 588.407 106.13C593.734 111.451 594.608 119.419 594.014 124.735L578.293 109.031C577.742 108.48 576.848 108.48 576.298 109.031C575.747 109.581 575.747 110.474 576.298 111.024L599.161 133.865C599.988 134.69 599.988 136.029 599.161 136.855C598.335 137.68 596.994 137.68 596.168 136.855L590.344 131.037C585.737 132.421 575.202 132.638 568.598 126.197H577.249L564.248 121.868C559.844 117.469 561.043 118.68 560.168 117.739H568.783L557.194 113.881C553.19 107.321 554.171 100.768 558.626 96.3169Z" fill="#AE77F5"/>
<path d="M611.533 158.644H639.184C639.646 158.644 640.099 158.516 640.492 158.273C642.626 156.955 641.692 153.665 639.184 153.665H619.595C614.253 153.665 609.922 149.378 609.922 144.09C609.922 142.429 610.349 140.866 611.101 139.504C611.244 139.498 611.388 139.495 611.533 139.495H669.051H705.693C709.766 139.495 715.6 137.003 718.142 133.476C721.28 131.893 723.429 128.665 723.429 124.94C723.429 119.652 719.098 115.366 713.755 115.366H640.603C640.14 115.366 639.687 115.494 639.294 115.737C637.16 117.055 638.094 120.345 640.603 120.345H705.693C711.036 120.345 719.407 124.632 719.407 129.92C719.407 131.177 718.935 132.377 718.142 133.476C716.825 134.141 715.334 134.515 713.755 134.515H619.595C615.931 134.515 612.743 136.531 611.101 139.504C605.959 139.728 601.859 143.925 601.859 149.07C601.859 154.358 606.191 158.644 611.533 158.644Z" fill="#F1DC6D"/>
<path d="M596.373 85.936H629.139C629.601 85.936 630.054 85.8073 630.448 85.5645C632.582 84.2462 631.648 80.9562 629.139 80.9562H604.435C599.093 80.9562 594.761 76.6694 594.761 71.3814C594.761 69.7201 595.189 68.1577 595.941 66.7959C596.084 66.7896 596.228 66.7865 596.373 66.7865H624.967H661.609C665.682 66.7865 671.516 64.295 674.058 60.7679C677.196 59.185 679.345 55.9569 679.345 52.2319C679.345 46.944 675.014 42.6572 669.671 42.6572H601.381C600.919 42.6572 600.466 42.7858 600.073 43.0287C597.939 44.3469 598.873 47.637 601.381 47.637H661.609C666.952 47.637 675.324 51.9237 675.324 57.2117C675.324 58.4684 674.851 59.6684 674.058 60.7679C672.741 61.4321 671.251 61.8067 669.671 61.8067H604.435C600.771 61.8067 597.583 63.8231 595.941 66.7959C590.799 67.0196 586.699 71.2166 586.699 76.3612C586.699 81.6492 591.03 85.936 596.373 85.936Z" fill="#F1DC6D"/>
<path d="M654.35 43.4475C655.263 48.7842 651.152 53.6585 645.738 53.6585L601.425 53.6585C597.15 53.6585 593.503 50.5646 592.806 46.3465C591.926 41.0247 596.031 36.1851 601.425 36.1851L645.738 36.1851C649.994 36.1851 653.631 39.2523 654.35 43.4475Z" fill="#F1DC6D"/>
<path d="M604.064 49.1722L604.305 46.643L602.24 48.1886L601.035 46.0107L603.788 44.9217L601.035 43.8328L602.24 41.6548L604.305 43.2005L604.064 40.6713L606.507 40.6713L606.301 43.2005L608.366 41.6548L609.536 43.8328L606.817 44.9217L609.536 46.0107L608.366 48.1886L606.301 46.643L606.507 49.1722L604.064 49.1722Z" fill="#54298B"/>
<path d="M616.279 49.1722L616.52 46.643L614.455 48.1886L613.25 46.0107L616.003 44.9217L613.25 43.8328L614.455 41.6548L616.52 43.2005L616.279 40.6713L618.722 40.6713L618.516 43.2005L620.581 41.6548L621.751 43.8328L619.032 44.9217L621.751 46.0107L620.581 48.1886L618.516 46.643L618.722 49.1722L616.279 49.1722Z" fill="#54298B"/>
<path d="M628.505 49.1722L628.746 46.643L626.681 48.1886L625.477 46.0107L628.23 44.9217L625.477 43.8328L626.681 41.6548L628.746 43.2005L628.505 40.6713L630.949 40.6713L630.742 43.2005L632.807 41.6548L633.977 43.8328L631.259 44.9217L633.977 46.0107L632.807 48.1886L630.742 46.643L630.949 49.1722L628.505 49.1722Z" fill="#54298B"/>
<path d="M640.724 49.1722L640.965 46.643L638.9 48.1886L637.695 46.0107L640.449 44.9217L637.695 43.8328L638.9 41.6548L640.965 43.2005L640.724 40.6713L643.168 40.6713L642.961 43.2005L645.026 41.6548L646.196 43.8328L643.477 44.9217L646.196 46.0107L645.026 48.1886L642.961 46.643L643.168 49.1722L640.724 49.1722Z" fill="#54298B"/>
<path d="M612.266 67.8202C611.669 64.0815 614.557 60.6957 618.343 60.6957H659.537C662.561 60.6957 665.138 62.8937 665.614 65.8807L672.732 110.488C673.328 114.226 670.44 117.612 666.654 117.612H625.461C622.436 117.612 619.86 115.414 619.383 112.427L612.266 67.8202Z" fill="#AE77F5"/>
<path d="M616.059 65.1273C615.462 61.3886 618.35 58.0028 622.136 58.0028H663.329C666.354 58.0028 668.93 60.2007 669.407 63.1877L676.524 107.794C677.121 111.533 674.233 114.919 670.447 114.919H629.254C626.229 114.919 623.653 112.721 623.176 109.734L616.059 65.1273Z" fill="white"/>
<path d="M629.347 97.4878C628.796 93.7699 631.677 90.4306 635.435 90.4306H641.512C644.562 90.4306 647.152 92.6652 647.6 95.6828L648.265 100.173C648.816 103.891 645.936 107.23 642.177 107.23H636.101C633.05 107.23 630.46 104.996 630.013 101.978L629.347 97.4878Z" fill="white" stroke="#54298B" stroke-width="1.42031"/>
<path d="M633.851 98.5882L637.773 102.694L644.072 94.6134" stroke="#54298B" stroke-width="1.42031" stroke-linejoin="round"/>
<path d="M624.527 71.5984C623.976 67.8805 626.856 64.5411 630.615 64.5411H636.691C639.742 64.5411 642.332 66.7757 642.779 69.7933L643.445 74.2836C643.996 78.0014 641.115 81.3408 637.357 81.3408H631.28C628.23 81.3408 625.64 79.1062 625.192 76.0886L624.527 71.5984Z" fill="#54298B" stroke="#54298B" stroke-width="1.42031"/>
<path d="M639.591 77.3051L628.375 68.5771" stroke="white" stroke-width="1.42031" stroke-linejoin="round"/>
<path d="M629.737 77.6367L638.406 68.2067" stroke="white" stroke-width="1.42031" stroke-linejoin="round"/>
<path d="M651.23 72.9113H663.457" stroke="#54298B" stroke-width="1.42031" stroke-linecap="round" stroke-linejoin="round"/>
<path d="M656.102 98.5881H668.329" stroke="#54298B" stroke-width="1.42031" stroke-linecap="round" stroke-linejoin="round"/>
<path d="M652.516 79.7018H664.743" stroke="#54298B" stroke-width="1.42031" stroke-linecap="round" stroke-linejoin="round"/>
<path d="M657.383 105.379H669.61" stroke="#54298B" stroke-width="1.42031" stroke-linecap="round" stroke-linejoin="round"/>
<path d="M649.773 66.4352H662.17" stroke="#54298B" stroke-width="1.42031" stroke-linecap="round" stroke-linejoin="round"/>
<path d="M654.645 92.1119H667.041" stroke="#54298B" stroke-width="1.42031" stroke-linecap="round" stroke-linejoin="round"/>
<path d="M646.789 111.352L618.59 133.188C617.163 134.293 617.945 136.579 619.75 136.579H683.372C685.28 136.579 685.99 134.074 684.365 133.073L648.942 111.237C648.271 110.823 647.413 110.869 646.789 111.352Z" fill="#AE77F5"/>
<path d="M610.98 87.1884L647.687 110.912L677.1 86.8411C678.789 85.4595 681.339 86.4176 681.701 88.569L688.983 131.938C689.392 134.373 686.713 136.135 684.64 134.794L647.687 110.912L618.065 135.153C616.366 136.543 613.801 135.564 613.46 133.396L606.632 90.0157C606.25 87.5902 608.918 85.8556 610.98 87.1884Z" fill="#E1CAFF"/>
<path fill-rule="evenodd" clip-rule="evenodd" d="M689.293 167.088C689.503 168.411 688.482 169.608 687.143 169.608L647.195 169.608C646.124 169.608 645.213 168.83 645.045 167.774L644.302 163.119L640.919 163.119C639.849 163.119 638.938 162.341 638.769 161.285L637.696 154.553C637.485 153.231 638.507 152.033 639.846 152.033L642.535 152.033L641.902 148.063C641.691 146.741 642.713 145.543 644.052 145.543L684 145.543C685.07 145.543 685.982 146.321 686.15 147.378L689.293 167.088ZM677.572 162.989C680.902 162.989 683.442 160.011 682.917 156.723C682.498 154.097 680.233 152.164 677.572 152.164L677.062 152.164C673.733 152.164 671.193 155.141 671.717 158.429C672.136 161.056 674.402 162.989 677.062 162.989L677.572 162.989Z" fill="#AE77F5"/>
<path d="M646.125 158.195C646.336 159.517 645.314 160.715 643.975 160.715L633.193 160.715C632.123 160.715 631.212 159.937 631.043 158.88L630.423 154.993C630.212 153.671 631.234 152.473 632.573 152.473L643.355 152.473C644.425 152.473 645.336 153.251 645.505 154.308L646.125 158.195Z" fill="#E1CAFF"/>
<path fill-rule="evenodd" clip-rule="evenodd" d="M691.261 165.124C691.472 166.447 690.451 167.644 689.111 167.644L649.163 167.644C648.093 167.644 647.182 166.866 647.013 165.81L646.271 161.154L642.884 161.154C641.814 161.154 640.903 160.377 640.734 159.32L639.661 152.589C639.45 151.266 640.472 150.069 641.811 150.069L644.504 150.069L643.871 146.099C643.66 144.777 644.682 143.579 646.021 143.579L685.969 143.579C687.039 143.579 687.95 144.357 688.119 145.414L691.261 165.124ZM679.541 161.024C682.871 161.024 685.411 158.047 684.886 154.759C684.467 152.132 682.201 150.199 679.541 150.199L679.031 150.199C675.701 150.199 673.161 153.177 673.686 156.465C674.105 159.091 676.371 161.024 679.031 161.024L679.541 161.024Z" fill="white"/>
</g>
<defs>
<filter id="filter0_dd_4952_6059" x="-12.4062" y="-10.4766" width="789.816" height="247.163" filterUnits="userSpaceOnUse" color-interpolation-filters="sRGB">
<feFlood flood-opacity="0" result="BackgroundImageFix"/>
<feColorMatrix in="SourceAlpha" type="matrix" values="0 0 0 0 0 0 0 0 0 0 0 0 0 0 0 0 0 0 127 0" result="hardAlpha"/>
<feOffset dy="9"/>
<feGaussianBlur stdDeviation="10"/>
<feComposite in2="hardAlpha" operator="out"/>
<feColorMatrix type="matrix" values="0 0 0 0 0 0 0 0 0 0 0 0 0 0 0 0 0 0 0.1 0"/>
<feBlend mode="normal" in2="BackgroundImageFix" result="effect1_dropShadow_4952_6059"/>
<feColorMatrix in="SourceAlpha" type="matrix" values="0 0 0 0 0 0 0 0 0 0 0 0 0 0 0 0 0 0 127 0" result="hardAlpha"/>
<feOffset dy="4"/>
<feGaussianBlur stdDeviation="2"/>
<feComposite in2="hardAlpha" operator="out"/>
<feColorMatrix type="matrix" values="0 0 0 0 0 0 0 0 0 0 0 0 0 0 0 0 0 0 0.2 0"/>
<feBlend mode="normal" in2="effect1_dropShadow_4952_6059" result="effect2_dropShadow_4952_6059"/>
<feBlend mode="normal" in="SourceGraphic" in2="effect2_dropShadow_4952_6059" result="shape"/>
</filter>
<clipPath id="clip0_4952_6059">
<rect width="60.9537" height="61.2962" fill="white" transform="translate(68.4062 72.4717)"/>
</clipPath>
</defs>
</svg>
