<svg width="310" height="327" viewBox="0 0 310 327" fill="none" xmlns="http://www.w3.org/2000/svg">
<g filter="url(#filter0_dd_4904_19133)">
<path d="M145.637 182.31H296.999V298.018C296.999 302.436 293.417 306.018 288.999 306.018H145.637V182.31Z" fill="#FFF9D9"/>
<mask id="mask0_4904_19133" style="mask-type:alpha" maskUnits="userSpaceOnUse" x="145" y="182" width="152" height="124">
<path d="M145.637 182.31H296.999V293.483C296.999 299.957 291.751 305.204 285.278 305.204H145.637V182.31Z" fill="#FFF9D9"/>
</mask>
<g mask="url(#mask0_4904_19133)">
<path d="M223.999 276.597C224.269 276.136 224.112 275.549 223.648 275.285L220.013 273.218C219.548 272.954 218.953 273.113 218.683 273.574L216.396 277.475L221.712 280.498L223.999 276.597Z" fill="#FFF9D9" stroke="#F5ECBC" stroke-width="0.675729"/>
<path d="M221.799 282.769C222.339 281.847 222.025 280.673 221.096 280.145L217.016 277.825C216.087 277.297 214.897 277.616 214.357 278.537L210.509 285.101C209.969 286.022 210.283 287.197 211.212 287.725L215.292 290.045C216.221 290.572 217.411 290.254 217.951 289.332L221.799 282.769Z" fill="#FFF9D9" stroke="#F5ECBC" stroke-width="0.675729"/>
<rect width="1.21908" height="0.842355" transform="matrix(-0.869314 -0.494259 -0.505763 0.862673 222.402 277.181)" fill="#F5ECBC"/>
<rect width="1.21908" height="0.842355" transform="matrix(-0.869314 -0.494259 -0.505763 0.862673 220.027 275.832)" fill="#F5ECBC"/>
<path d="M174.616 201.143C174.887 200.682 174.729 200.095 174.265 199.831L170.63 197.764C170.166 197.5 169.57 197.66 169.3 198.12L167.013 202.022L172.329 205.044L174.616 201.143Z" fill="#FFF9D9" stroke="#F5ECBC" stroke-width="0.675729"/>
<path d="M172.416 207.315C172.957 206.394 172.642 205.219 171.713 204.691L167.633 202.371C166.705 201.843 165.514 202.162 164.974 203.084L161.126 209.647C160.586 210.568 160.901 211.743 161.829 212.271L165.909 214.591C166.838 215.119 168.028 214.8 168.569 213.878L172.416 207.315Z" fill="#FFF9D9" stroke="#F5ECBC" stroke-width="0.675729"/>
<rect width="1.21908" height="0.842355" transform="matrix(-0.869314 -0.494259 -0.505763 0.862673 173.016 201.727)" fill="#F5ECBC"/>
<rect width="1.21908" height="0.842355" transform="matrix(-0.869314 -0.494259 -0.505763 0.862673 170.641 200.379)" fill="#F5ECBC"/>
<path fill-rule="evenodd" clip-rule="evenodd" d="M272.207 287.792C272.207 287.792 272.207 287.792 272.207 287.792C272.203 287.776 272.198 287.76 272.194 287.743L272.193 287.74C272.193 287.74 272.193 287.74 272.193 287.74C272.193 287.74 272.193 287.74 272.193 287.74C271.982 286.962 272.007 286.145 272.265 285.388C272.353 285.13 272.467 284.882 272.604 284.649C272.605 284.648 272.605 284.647 272.604 284.647C272.603 284.646 272.603 284.645 272.603 284.644C273.02 283.939 273.644 283.373 274.398 283.017C274.607 282.919 274.823 282.838 275.045 282.774C275.354 282.685 275.675 282.63 276.001 282.612C276.842 282.564 277.683 282.76 278.418 283.175C278.419 283.175 278.419 283.176 278.419 283.177C278.418 283.178 278.419 283.179 278.419 283.179C278.662 283.317 278.892 283.477 279.105 283.66C279.744 284.205 280.205 284.92 280.429 285.714C280.43 285.714 280.429 285.714 280.429 285.714C280.429 285.714 280.429 285.714 280.429 285.715L281.717 290.249C281.845 290.7 281.58 291.16 281.125 291.275C280.67 291.39 280.196 291.117 280.068 290.665L278.78 286.131C278.78 286.13 278.779 286.13 278.778 286.13C278.777 286.13 278.776 286.13 278.776 286.129C278.641 285.655 278.366 285.228 277.984 284.902C277.602 284.575 277.13 284.364 276.629 284.296C276.267 284.246 275.901 284.273 275.556 284.372C275.264 284.456 274.99 284.591 274.747 284.771C274.349 285.067 274.052 285.472 273.894 285.935C273.737 286.397 273.725 286.897 273.859 287.371C273.86 287.372 273.859 287.373 273.858 287.373C273.857 287.374 273.856 287.375 273.856 287.376L275.144 291.91C275.273 292.361 275.008 292.821 274.552 292.936C274.097 293.051 273.624 292.778 273.495 292.326L272.207 287.792C272.207 287.792 272.207 287.792 272.207 287.792Z" fill="#FFF9D9"/>
<path d="M272.194 287.743L272.521 287.66L272.522 287.664L272.194 287.743ZM272.265 285.388L271.942 285.274L272.265 285.388ZM274.398 283.017L274.245 282.714L274.398 283.017ZM275.045 282.774L275.148 283.096L275.147 283.097L275.045 282.774ZM276.001 282.612L275.973 282.277L276.001 282.612ZM279.105 283.66L278.886 283.911L278.886 283.911L279.105 283.66ZM277.984 284.902L277.765 285.153L277.765 285.153L277.984 284.902ZM276.629 284.296L276.667 283.963L276.667 283.963L276.629 284.296ZM275.556 284.372L275.453 284.049L275.453 284.049L275.556 284.372ZM274.747 284.771L274.537 284.502L274.747 284.771ZM273.894 285.935L273.571 285.821L273.571 285.821L273.894 285.935ZM278.776 286.129L278.448 286.211L278.776 286.129ZM278.78 286.131L278.452 286.214L278.78 286.131ZM278.778 286.13L278.87 286.455L278.778 286.13ZM278.419 283.179L278.583 282.889L278.419 283.179ZM278.418 283.175L278.255 283.465L278.418 283.175ZM272.604 284.649L272.9 284.823L272.604 284.649ZM280.429 285.715L280.757 285.632L280.429 285.715ZM272.193 287.74L272.521 287.661L272.193 287.74ZM280.429 285.714L280.102 285.796L280.429 285.714ZM280.429 285.714L280.337 285.389L280.429 285.714ZM273.856 287.376L274.184 287.293L273.856 287.376ZM272.604 284.647L272.768 284.357L272.604 284.647ZM272.603 284.644L272.899 284.819L272.603 284.644ZM273.859 287.371L274.187 287.288L273.859 287.371ZM272.207 287.792L271.879 287.875L272.207 287.792ZM272.522 287.664C272.526 287.679 272.531 287.694 272.535 287.709L271.879 287.875C271.874 287.857 271.87 287.84 271.865 287.822L272.522 287.664ZM272.52 287.657L272.521 287.66L271.866 287.826L271.865 287.823L272.52 287.657ZM272.588 285.502C272.351 286.198 272.328 286.948 272.521 287.661L271.864 287.818C271.636 286.977 271.663 286.093 271.942 285.274L272.588 285.502ZM272.9 284.823C272.774 285.037 272.669 285.265 272.588 285.502L271.942 285.274C272.037 284.995 272.16 284.727 272.309 284.475L272.9 284.823ZM272.308 284.47C272.758 283.708 273.432 283.097 274.245 282.714L274.551 283.321C273.857 283.648 273.282 284.17 272.899 284.819L272.308 284.47ZM274.245 282.714C274.47 282.608 274.704 282.52 274.942 282.452L275.147 283.097C274.943 283.155 274.744 283.23 274.551 283.321L274.245 282.714ZM276.029 282.947C275.728 282.964 275.433 283.015 275.148 283.096L274.942 282.452C275.275 282.356 275.621 282.297 275.973 282.277L276.029 282.947ZM278.255 283.465C277.579 283.084 276.804 282.903 276.029 282.947L275.973 282.277C276.88 282.226 277.788 282.437 278.581 282.884L278.255 283.465ZM278.583 282.889C278.846 283.038 279.094 283.212 279.324 283.408L278.886 283.911C278.69 283.743 278.479 283.596 278.255 283.469L278.583 282.889ZM279.324 283.408C280.015 283.999 280.514 284.772 280.757 285.631L280.102 285.796C279.896 285.068 279.473 284.412 278.886 283.911L279.324 283.408ZM280.757 285.632L282.045 290.166L281.389 290.331L280.101 285.797L280.757 285.632ZM279.74 290.748L278.452 286.214L279.108 286.048L280.396 290.582L279.74 290.748ZM278.448 286.211C278.332 285.803 278.094 285.435 277.765 285.153L278.203 284.65C278.637 285.021 278.95 285.506 279.103 286.046L278.448 286.211ZM277.765 285.153C277.434 284.87 277.026 284.688 276.591 284.628L276.667 283.963C277.235 284.041 277.769 284.28 278.203 284.65L277.765 285.153ZM276.591 284.628C276.276 284.585 275.959 284.608 275.658 284.694L275.453 284.049C275.844 283.938 276.258 283.907 276.667 283.963L276.591 284.628ZM274.537 284.502C274.813 284.297 275.123 284.144 275.453 284.049L275.659 284.694C275.406 284.767 275.167 284.884 274.956 285.041L274.537 284.502ZM273.571 285.821C273.751 285.295 274.087 284.836 274.537 284.502L274.956 285.041C274.611 285.298 274.354 285.649 274.218 286.049L273.571 285.821ZM273.531 287.454C273.378 286.914 273.392 286.346 273.571 285.821L274.218 286.049C274.081 286.449 274.071 286.88 274.187 287.288L273.531 287.454ZM274.817 291.992L273.529 287.459L274.184 287.293L275.472 291.827L274.817 291.992ZM272.535 287.709L273.823 292.243L273.168 292.409L271.88 287.875L272.535 287.709ZM274.645 293.261C274.008 293.422 273.347 293.04 273.168 292.409L273.823 292.243C273.901 292.516 274.186 292.68 274.46 292.611L274.645 293.261ZM278.87 286.455C278.688 286.501 278.499 286.392 278.448 286.211L279.103 286.046C279.053 285.868 278.866 285.759 278.686 285.805L278.87 286.455ZM278.452 286.214C278.503 286.393 278.69 286.501 278.87 286.455L278.686 285.805C278.868 285.759 279.057 285.868 279.108 286.048L278.452 286.214ZM282.045 290.166C282.224 290.797 281.854 291.439 281.217 291.6L281.033 290.95C281.307 290.88 281.467 290.604 281.389 290.331L282.045 290.166ZM278.714 283.351C278.808 283.191 278.749 282.983 278.583 282.889L278.255 283.469C278.088 283.375 278.028 283.165 278.123 283.003L278.714 283.351ZM278.581 282.884C278.749 282.979 278.809 283.189 278.714 283.351L278.123 283.003C278.029 283.163 278.088 283.371 278.255 283.465L278.581 282.884ZM281.217 291.6C280.581 291.761 279.92 291.379 279.74 290.748L280.396 290.582C280.473 290.855 280.758 291.019 281.033 290.95L281.217 291.6ZM271.88 287.875C271.931 288.054 272.119 288.163 272.3 288.117L272.115 287.467C272.296 287.421 272.484 287.53 272.535 287.709L271.88 287.875ZM272.309 284.475C272.215 284.635 272.274 284.843 272.44 284.937L272.768 284.357C272.935 284.452 272.995 284.662 272.9 284.823L272.309 284.475ZM280.521 286.039C280.702 285.994 280.808 285.811 280.757 285.632L280.101 285.797C280.05 285.618 280.156 285.435 280.337 285.389L280.521 286.039ZM275.472 291.827C275.651 292.458 275.281 293.1 274.645 293.261L274.46 292.611C274.734 292.541 274.894 292.265 274.817 291.992L275.472 291.827ZM272.1 287.414C271.922 287.459 271.815 287.638 271.864 287.818L272.521 287.661C272.57 287.841 272.463 288.02 272.285 288.065L272.1 287.414ZM280.757 285.631C280.808 285.811 280.703 285.994 280.521 286.039L280.337 285.389C280.156 285.435 280.051 285.617 280.102 285.796L280.757 285.631ZM273.95 287.698C274.13 287.653 274.235 287.471 274.184 287.293L273.529 287.459C273.477 287.278 273.583 287.094 273.765 287.048L273.95 287.698ZM271.865 287.823C271.814 287.643 271.919 287.46 272.1 287.414L272.285 288.065C272.466 288.019 272.571 287.836 272.52 287.657L271.865 287.823ZM272.44 284.937C272.272 284.841 272.213 284.631 272.308 284.47L272.899 284.819C272.993 284.659 272.934 284.451 272.768 284.357L272.44 284.937ZM274.187 287.288C274.238 287.468 274.133 287.652 273.95 287.698L273.765 287.048C273.585 287.094 273.481 287.276 273.531 287.454L274.187 287.288ZM272.535 287.709C272.484 287.529 272.296 287.421 272.115 287.467L272.3 288.117C272.119 288.163 271.931 288.055 271.879 287.875L272.535 287.709Z" fill="#F5ECBC"/>
<path d="M284.596 293.518C285.222 295.701 283.947 297.926 281.748 298.488L277.869 299.48C275.669 300.042 273.378 298.729 272.751 296.546L272.343 295.124C271.716 292.942 272.991 290.717 275.191 290.154L279.07 289.163C281.27 288.6 283.561 289.914 284.187 292.096L284.596 293.518Z" fill="#FFF9D9" stroke="#F5ECBC" stroke-width="0.676107"/>
<mask id="path-14-inside-1_4904_19133" fill="white">
<path fill-rule="evenodd" clip-rule="evenodd" d="M279.681 295.242C279.55 294.972 279.618 294.66 279.754 294.399C279.932 294.06 279.984 293.656 279.87 293.256C279.628 292.401 278.721 291.888 277.844 292.11C276.968 292.331 276.455 293.203 276.697 294.058C276.811 294.458 277.07 294.783 277.404 294.993C277.661 295.155 277.885 295.393 277.915 295.689L277.943 295.968C277.987 296.404 278.419 296.705 278.847 296.597L279.355 296.469C279.783 296.361 279.998 295.896 279.804 295.497L279.681 295.242Z"/>
</mask>
<path fill-rule="evenodd" clip-rule="evenodd" d="M279.681 295.242C279.55 294.972 279.618 294.66 279.754 294.399C279.932 294.06 279.984 293.656 279.87 293.256C279.628 292.401 278.721 291.888 277.844 292.11C276.968 292.331 276.455 293.203 276.697 294.058C276.811 294.458 277.07 294.783 277.404 294.993C277.661 295.155 277.885 295.393 277.915 295.689L277.943 295.968C277.987 296.404 278.419 296.705 278.847 296.597L279.355 296.469C279.783 296.361 279.998 295.896 279.804 295.497L279.681 295.242Z" fill="#F5ECBC"/>
<path d="M277.404 294.993L277.048 295.556L277.404 294.993ZM279.355 296.469L279.54 297.119L279.355 296.469ZM279.804 295.497L279.191 295.774L279.804 295.497ZM279.681 295.242L280.294 294.966L279.681 295.242ZM279.215 293.422C279.28 293.65 279.251 293.882 279.147 294.08L280.361 294.719C280.613 294.238 280.688 293.662 280.526 293.09L279.215 293.422ZM278.029 292.76C278.554 292.628 279.077 292.937 279.215 293.422L280.526 293.09C280.178 291.866 278.887 291.149 277.66 291.459L278.029 292.76ZM277.353 293.892C277.215 293.408 277.504 292.893 278.029 292.76L277.66 291.459C276.432 291.77 275.694 292.999 276.042 294.224L277.353 293.892ZM277.76 294.43C277.565 294.308 277.418 294.121 277.353 293.892L276.042 294.224C276.204 294.795 276.575 295.259 277.048 295.556L277.76 294.43ZM278.62 295.918L278.592 295.639L277.237 295.739L277.265 296.017L278.62 295.918ZM279.17 295.819L278.662 295.947L279.032 297.248L279.54 297.119L279.17 295.819ZM279.068 295.519L279.191 295.774L280.418 295.22L280.294 294.966L279.068 295.519ZM277.265 296.017C277.351 296.87 278.196 297.459 279.032 297.248L278.662 295.947C278.655 295.949 278.651 295.948 278.648 295.948C278.644 295.947 278.639 295.945 278.635 295.942C278.63 295.938 278.626 295.935 278.624 295.931C278.623 295.929 278.621 295.925 278.62 295.918L277.265 296.017ZM277.048 295.556C277.126 295.605 277.179 295.654 277.21 295.694C277.225 295.712 277.231 295.725 277.234 295.732C277.236 295.735 277.236 295.737 277.237 295.738C277.237 295.738 277.237 295.738 277.237 295.739C277.237 295.739 277.237 295.739 277.237 295.739C277.237 295.739 277.237 295.739 277.237 295.739C277.237 295.739 277.237 295.739 277.237 295.739C277.237 295.739 277.237 295.739 277.237 295.739L278.592 295.639C278.532 295.038 278.094 294.64 277.76 294.43L277.048 295.556ZM279.54 297.119C280.375 296.908 280.795 296 280.418 295.22L279.191 295.774C279.194 295.78 279.195 295.784 279.195 295.787C279.195 295.791 279.194 295.796 279.191 295.801C279.189 295.806 279.186 295.81 279.183 295.813C279.181 295.814 279.177 295.817 279.17 295.819L279.54 297.119ZM279.147 294.08C278.97 294.419 278.801 294.969 279.068 295.519L280.294 294.966C280.294 294.966 280.294 294.966 280.294 294.966C280.294 294.966 280.294 294.966 280.294 294.966C280.294 294.966 280.294 294.966 280.294 294.966C280.294 294.966 280.294 294.966 280.294 294.966C280.294 294.966 280.294 294.965 280.294 294.965C280.294 294.964 280.293 294.962 280.293 294.959C280.292 294.951 280.291 294.937 280.293 294.914C280.299 294.866 280.32 294.798 280.361 294.719L279.147 294.08Z" fill="#F5ECBC" mask="url(#path-14-inside-1_4904_19133)"/>
<path fill-rule="evenodd" clip-rule="evenodd" d="M159.137 242.61C159.137 242.61 159.137 242.61 159.137 242.61C159.132 242.594 159.128 242.578 159.123 242.562L159.122 242.558C159.122 242.558 159.122 242.558 159.122 242.558C159.122 242.558 159.122 242.558 159.122 242.558C158.912 241.78 158.937 240.964 159.195 240.207C159.283 239.948 159.397 239.701 159.534 239.467C159.535 239.467 159.534 239.466 159.534 239.465C159.533 239.465 159.532 239.464 159.533 239.463C159.949 238.757 160.574 238.191 161.328 237.836C161.537 237.737 161.753 237.656 161.975 237.593C162.284 237.504 162.604 237.449 162.931 237.43C163.772 237.383 164.613 237.579 165.348 237.993C165.349 237.993 165.349 237.995 165.348 237.995C165.348 237.996 165.348 237.997 165.349 237.998C165.592 238.135 165.822 238.296 166.035 238.478C166.674 239.024 167.134 239.739 167.359 240.532C167.359 240.532 167.359 240.532 167.359 240.532C167.359 240.533 167.359 240.533 167.359 240.533L168.647 245.067C168.775 245.519 168.51 245.978 168.055 246.093C167.599 246.208 167.126 245.935 166.998 245.484L165.71 240.95C165.71 240.949 165.709 240.948 165.708 240.948C165.707 240.949 165.706 240.948 165.705 240.947C165.571 240.473 165.295 240.046 164.914 239.72C164.531 239.393 164.06 239.183 163.559 239.114C163.197 239.065 162.831 239.091 162.486 239.19C162.194 239.274 161.92 239.409 161.676 239.59C161.279 239.885 160.982 240.29 160.824 240.753C160.667 241.216 160.654 241.715 160.789 242.189C160.789 242.19 160.789 242.191 160.787 242.192C160.786 242.192 160.786 242.193 160.786 242.194L162.074 246.728C162.202 247.18 161.937 247.639 161.482 247.754C161.027 247.869 160.554 247.596 160.425 247.145L159.137 242.61C159.137 242.61 159.137 242.61 159.137 242.61Z" fill="#FFF9D9"/>
<path d="M159.123 242.562L159.451 242.479L159.452 242.483L159.123 242.562ZM159.195 240.207L158.872 240.092L159.195 240.207ZM161.328 237.836L161.175 237.532L161.328 237.836ZM161.975 237.593L162.077 237.915L162.077 237.915L161.975 237.593ZM162.931 237.43L162.903 237.095L162.931 237.43ZM166.035 238.478L165.815 238.729L165.815 238.729L166.035 238.478ZM164.914 239.72L164.694 239.971L164.694 239.971L164.914 239.72ZM163.559 239.114L163.597 238.782L163.597 238.782L163.559 239.114ZM162.486 239.19L162.382 238.868L162.383 238.868L162.486 239.19ZM161.676 239.59L161.467 239.32L161.676 239.59ZM160.824 240.753L160.501 240.639L160.501 240.639L160.824 240.753ZM165.705 240.947L165.378 241.03L165.705 240.947ZM165.71 240.95L165.382 241.032L165.71 240.95ZM165.708 240.948L165.616 240.623L165.708 240.948ZM165.349 237.998L165.185 238.288L165.349 237.998ZM165.348 237.993L165.511 237.703L165.348 237.993ZM166.998 245.484L167.326 245.401L166.998 245.484ZM159.534 239.467L159.238 239.294L159.534 239.467ZM167.359 240.533L167.686 240.45L167.359 240.533ZM162.074 246.728L162.402 246.645L162.074 246.728ZM159.122 242.558L159.451 242.479L159.122 242.558ZM167.359 240.532L167.031 240.615L167.359 240.532ZM167.359 240.532L167.267 240.207L167.359 240.532ZM160.786 242.194L161.114 242.111L160.786 242.194ZM159.534 239.465L159.698 239.175L159.534 239.465ZM159.533 239.463L159.828 239.637L159.533 239.463ZM160.789 242.189L161.117 242.106L160.789 242.189ZM159.137 242.61L158.809 242.693L159.137 242.61ZM159.452 242.483C159.456 242.497 159.46 242.512 159.465 242.527L158.809 242.693C158.804 242.676 158.799 242.658 158.795 242.641L159.452 242.483ZM159.45 242.475L159.451 242.479L158.796 242.644L158.795 242.641L159.45 242.475ZM159.518 240.321C159.281 241.016 159.258 241.766 159.451 242.479L158.793 242.637C158.566 241.795 158.593 240.911 158.872 240.092L159.518 240.321ZM159.83 239.641C159.704 239.856 159.599 240.083 159.518 240.321L158.872 240.092C158.967 239.813 159.09 239.546 159.238 239.294L159.83 239.641ZM159.237 239.289C159.687 238.527 160.362 237.916 161.175 237.532L161.481 238.139C160.786 238.467 160.211 238.988 159.828 239.637L159.237 239.289ZM161.175 237.532C161.4 237.426 161.633 237.338 161.872 237.27L162.077 237.915C161.873 237.973 161.674 238.048 161.481 238.139L161.175 237.532ZM162.959 237.765C162.658 237.782 162.362 237.833 162.077 237.915L161.872 237.27C162.205 237.174 162.551 237.115 162.903 237.095L162.959 237.765ZM165.184 238.283C164.509 237.902 163.734 237.722 162.959 237.765L162.903 237.095C163.81 237.044 164.718 237.255 165.511 237.703L165.184 238.283ZM165.513 237.708C165.775 237.856 166.024 238.03 166.254 238.227L165.815 238.729C165.62 238.562 165.408 238.414 165.185 238.288L165.513 237.708ZM166.254 238.227C166.945 238.817 167.444 239.59 167.687 240.449L167.031 240.615C166.825 239.887 166.402 239.231 165.815 238.729L166.254 238.227ZM167.686 240.45L168.974 244.984L168.319 245.15L167.031 240.616L167.686 240.45ZM166.67 245.566L165.382 241.032L166.038 240.867L167.326 245.401L166.67 245.566ZM165.378 241.03C165.262 240.621 165.024 240.253 164.694 239.971L165.133 239.469C165.567 239.839 165.88 240.325 166.033 240.864L165.378 241.03ZM164.694 239.971C164.364 239.689 163.956 239.506 163.52 239.447L163.597 238.782C164.164 238.859 164.699 239.098 165.133 239.469L164.694 239.971ZM163.52 239.447C163.206 239.404 162.888 239.427 162.588 239.513L162.383 238.868C162.774 238.756 163.187 238.726 163.597 238.782L163.52 239.447ZM161.467 239.32C161.742 239.115 162.053 238.963 162.382 238.868L162.589 239.512C162.335 239.585 162.097 239.703 161.886 239.86L161.467 239.32ZM160.501 240.639C160.68 240.113 161.017 239.654 161.467 239.32L161.886 239.86C161.54 240.116 161.284 240.467 161.147 240.867L160.501 240.639ZM160.461 242.272C160.308 241.733 160.322 241.165 160.501 240.639L161.147 240.867C161.011 241.267 161.001 241.698 161.117 242.106L160.461 242.272ZM161.746 246.811L160.458 242.277L161.114 242.111L162.402 246.645L161.746 246.811ZM159.465 242.528L160.753 247.062L160.097 247.227L158.809 242.693L159.465 242.528ZM161.574 248.079C160.938 248.24 160.277 247.859 160.097 247.227L160.753 247.062C160.83 247.334 161.115 247.498 161.39 247.429L161.574 248.079ZM165.8 241.274C165.617 241.32 165.429 241.21 165.378 241.03L166.033 240.864C165.983 240.686 165.796 240.578 165.616 240.623L165.8 241.274ZM165.382 241.032C165.433 241.211 165.62 241.319 165.8 241.274L165.616 240.623C165.797 240.577 165.986 240.686 166.038 240.867L165.382 241.032ZM168.974 244.984C169.154 245.615 168.783 246.258 168.147 246.418L167.962 245.768C168.237 245.699 168.396 245.422 168.319 245.15L168.974 244.984ZM165.644 238.169C165.738 238.009 165.679 237.802 165.513 237.708L165.185 238.288C165.018 238.193 164.958 237.983 165.053 237.822L165.644 238.169ZM165.511 237.703C165.679 237.797 165.739 238.007 165.644 238.169L165.053 237.822C164.959 237.982 165.018 238.189 165.184 238.283L165.511 237.703ZM168.147 246.418C167.511 246.579 166.849 246.198 166.67 245.566L167.326 245.401C167.403 245.673 167.688 245.837 167.962 245.768L168.147 246.418ZM158.809 242.693C158.86 242.873 159.048 242.981 159.229 242.936L159.045 242.285C159.226 242.239 159.414 242.348 159.465 242.528L158.809 242.693ZM159.238 239.294C159.145 239.453 159.203 239.661 159.369 239.755L159.698 239.175C159.865 239.27 159.925 239.48 159.83 239.641L159.238 239.294ZM167.451 240.858C167.632 240.812 167.737 240.63 167.686 240.45L167.031 240.616C166.98 240.436 167.085 240.253 167.267 240.207L167.451 240.858ZM162.402 246.645C162.581 247.276 162.211 247.919 161.574 248.079L161.39 247.429C161.664 247.36 161.824 247.083 161.746 246.811L162.402 246.645ZM159.03 242.233C158.852 242.278 158.745 242.457 158.793 242.637L159.451 242.479C159.5 242.659 159.393 242.838 159.215 242.883L159.03 242.233ZM167.687 240.449C167.738 240.629 167.632 240.812 167.451 240.858L167.267 240.207C167.086 240.253 166.981 240.435 167.031 240.615L167.687 240.449ZM160.88 242.517C161.06 242.471 161.165 242.29 161.114 242.111L160.458 242.277C160.407 242.096 160.513 241.913 160.695 241.867L160.88 242.517ZM158.795 242.641C158.744 242.461 158.849 242.279 159.03 242.233L159.215 242.883C159.396 242.837 159.501 242.655 159.45 242.475L158.795 242.641ZM159.369 239.755C159.202 239.66 159.142 239.45 159.237 239.289L159.828 239.637C159.922 239.478 159.864 239.269 159.698 239.175L159.369 239.755ZM161.117 242.106C161.168 242.287 161.063 242.471 160.88 242.517L160.695 241.867C160.515 241.912 160.411 242.094 160.461 242.272L161.117 242.106ZM159.465 242.527C159.413 242.348 159.225 242.239 159.045 242.285L159.229 242.936C159.048 242.981 158.86 242.873 158.809 242.693L159.465 242.527Z" fill="#F5ECBC"/>
<path d="M171.525 248.337C172.152 250.519 170.877 252.744 168.677 253.307L164.798 254.298C162.599 254.861 160.308 253.547 159.681 251.365L159.273 249.943C158.646 247.76 159.921 245.535 162.121 244.973L166 243.981C168.199 243.419 170.49 244.732 171.117 246.915L171.525 248.337Z" fill="#FFF9D9" stroke="#F5ECBC" stroke-width="0.676107"/>
<mask id="path-19-inside-2_4904_19133" fill="white">
<path fill-rule="evenodd" clip-rule="evenodd" d="M166.611 250.061C166.48 249.79 166.547 249.478 166.684 249.218C166.862 248.878 166.914 248.474 166.8 248.074C166.557 247.22 165.65 246.707 164.774 246.928C163.898 247.15 163.384 248.022 163.627 248.876C163.741 249.276 164 249.602 164.334 249.812C164.59 249.973 164.814 250.211 164.844 250.507L164.872 250.786C164.916 251.222 165.349 251.524 165.777 251.416L166.285 251.287C166.712 251.179 166.927 250.714 166.734 250.315L166.611 250.061Z"/>
</mask>
<path fill-rule="evenodd" clip-rule="evenodd" d="M166.611 250.061C166.48 249.79 166.547 249.478 166.684 249.218C166.862 248.878 166.914 248.474 166.8 248.074C166.557 247.22 165.65 246.707 164.774 246.928C163.898 247.15 163.384 248.022 163.627 248.876C163.741 249.276 164 249.602 164.334 249.812C164.59 249.973 164.814 250.211 164.844 250.507L164.872 250.786C164.916 251.222 165.349 251.524 165.777 251.416L166.285 251.287C166.712 251.179 166.927 250.714 166.734 250.315L166.611 250.061Z" fill="#F5ECBC"/>
<path d="M166.285 251.287L166.47 251.938L166.285 251.287ZM166.734 250.315L166.121 250.592L166.734 250.315ZM166.611 250.061L165.997 250.337L166.611 250.061ZM166.145 248.24C166.21 248.469 166.181 248.7 166.077 248.898L167.291 249.537C167.542 249.057 167.618 248.48 167.456 247.909L166.145 248.24ZM164.959 247.579C165.484 247.446 166.007 247.755 166.145 248.24L167.456 247.909C167.108 246.684 165.817 245.968 164.589 246.278L164.959 247.579ZM164.282 248.711C164.145 248.226 164.434 247.711 164.959 247.579L164.589 246.278C163.362 246.588 162.624 247.818 162.971 249.042L164.282 248.711ZM164.69 249.249C164.495 249.126 164.347 248.939 164.282 248.711L162.971 249.042C163.134 249.613 163.505 250.077 163.977 250.375L164.69 249.249ZM165.55 250.736L165.522 250.458L164.167 250.557L164.195 250.836L165.55 250.736ZM166.1 250.637L165.592 250.765L165.961 252.066L166.47 251.938L166.1 250.637ZM165.997 250.337L166.121 250.592L167.347 250.039L167.224 249.784L165.997 250.337ZM164.195 250.836C164.281 251.688 165.126 252.277 165.961 252.066L165.592 250.765C165.585 250.767 165.581 250.767 165.578 250.766C165.574 250.765 165.569 250.764 165.564 250.76C165.559 250.757 165.556 250.753 165.554 250.75C165.553 250.747 165.551 250.743 165.55 250.736L164.195 250.836ZM163.977 250.375C164.055 250.424 164.109 250.473 164.14 250.512C164.154 250.53 164.161 250.543 164.164 250.55C164.166 250.553 164.166 250.555 164.166 250.556C164.167 250.557 164.167 250.557 164.167 250.557C164.167 250.557 164.167 250.557 164.167 250.557C164.167 250.557 164.167 250.557 164.167 250.557C164.167 250.557 164.167 250.557 164.167 250.557C164.167 250.557 164.167 250.557 164.167 250.557L165.522 250.458C165.461 249.856 165.023 249.459 164.69 249.249L163.977 250.375ZM166.47 251.938C167.305 251.727 167.725 250.818 167.347 250.039L166.121 250.592C166.124 250.599 166.124 250.603 166.124 250.606C166.124 250.609 166.124 250.614 166.121 250.619C166.119 250.625 166.116 250.628 166.113 250.631C166.11 250.633 166.107 250.635 166.1 250.637L166.47 251.938ZM166.077 248.898C165.9 249.237 165.731 249.788 165.997 250.337L167.224 249.784C167.224 249.784 167.224 249.784 167.224 249.784C167.224 249.784 167.224 249.784 167.224 249.784C167.224 249.784 167.224 249.784 167.224 249.784C167.224 249.784 167.224 249.784 167.224 249.784C167.224 249.784 167.224 249.784 167.224 249.783C167.223 249.782 167.223 249.78 167.222 249.777C167.221 249.77 167.22 249.755 167.223 249.732C167.229 249.684 167.249 249.616 167.291 249.537L166.077 248.898Z" fill="#F5ECBC" mask="url(#path-19-inside-2_4904_19133)"/>
<rect width="12.411" height="17.6098" rx="3.67597" transform="matrix(-0.273428 0.961892 0.969553 0.244883 210.969 186.253)" fill="#FFF9D9" stroke="#F5ECBC" stroke-width="0.675729"/>
<path d="M227.344 192.043L219.879 194.9M210.793 187.862L215.742 193.855M215.742 193.855L217.391 195.852L219.879 194.9M215.742 193.855L208.277 196.712M219.879 194.9L224.828 200.893" stroke="#F5ECBC" stroke-width="0.675729"/>
<rect width="12.411" height="17.6098" rx="3.67597" transform="matrix(-0.273428 0.961892 0.969553 0.244883 210.969 186.253)" stroke="#F5ECBC" stroke-width="0.675729"/>
<rect width="12.4105" height="17.6092" rx="3.67597" transform="matrix(-0.278114 0.960548 0.970604 0.240682 271.379 236.872)" fill="#FFF9D9" stroke="#F5ECBC" stroke-width="0.675729"/>
<path d="M287.766 242.586L280.273 245.464M271.198 238.478L276.131 244.437M276.131 244.437L277.776 246.423L280.273 245.464M276.131 244.437L268.639 247.315M280.273 245.464L285.207 251.423" stroke="#F5ECBC" stroke-width="0.675729"/>
<rect width="12.4105" height="17.6092" rx="3.67597" transform="matrix(-0.278114 0.960548 0.970604 0.240682 271.379 236.872)" stroke="#F5ECBC" stroke-width="0.675729"/>
<path d="M286.508 200.117H285.98C284.25 200.117 282.597 199.405 281.408 198.149V198.149C279.536 196.17 276.386 196.17 274.514 198.149V198.149C273.326 199.405 271.672 200.117 269.943 200.117H269.415" stroke="#F5ECBC" stroke-width="0.675729"/>
<path d="M286.508 202.922H285.98C284.25 202.922 282.597 202.211 281.408 200.955V200.955C279.536 198.976 276.386 198.976 274.514 200.955V200.955C273.326 202.211 271.672 202.922 269.943 202.922H269.415" stroke="#F5ECBC" stroke-width="0.675729"/>
<path d="M286.508 205.728H285.98C284.25 205.728 282.597 205.016 281.408 203.76V203.76C279.536 201.781 276.386 201.781 274.514 203.76V203.76C273.326 205.016 271.672 205.728 269.943 205.728H269.415" stroke="#F5ECBC" stroke-width="0.675729"/>
<path d="M286.508 208.533H285.98C284.25 208.533 282.597 207.822 281.408 206.565V206.565C279.536 204.587 276.386 204.587 274.514 206.565V206.565C273.326 207.822 271.672 208.533 269.943 208.533H269.415" stroke="#F5ECBC" stroke-width="0.675729"/>
<path d="M175.125 288.694H174.597C172.868 288.694 171.214 287.983 170.026 286.727V286.727C168.153 284.748 165.004 284.748 163.131 286.727V286.727C161.943 287.983 160.29 288.694 158.56 288.694H158.032" stroke="#F5ECBC" stroke-width="0.675729"/>
<path d="M175.125 291.5H174.597C172.868 291.5 171.214 290.788 170.026 289.532V289.532C168.153 287.553 165.004 287.553 163.131 289.532V289.532C161.943 290.788 160.29 291.5 158.56 291.5H158.032" stroke="#F5ECBC" stroke-width="0.675729"/>
<path d="M175.125 294.305H174.597C172.868 294.305 171.214 293.593 170.026 292.337V292.337C168.153 290.359 165.004 290.359 163.131 292.337V292.337C161.943 293.593 160.29 294.305 158.56 294.305H158.032" stroke="#F5ECBC" stroke-width="0.675729"/>
<path d="M175.125 297.111H174.597C172.868 297.111 171.214 296.399 170.026 295.143V295.143C168.153 293.164 165.004 293.164 163.131 295.143V295.143C161.943 296.399 160.29 297.111 158.56 297.111H158.032" stroke="#F5ECBC" stroke-width="0.675729"/>
<path d="M226.781 236.27H226.253C224.524 236.27 222.871 235.558 221.682 234.302V234.302C219.81 232.324 216.66 232.324 214.788 234.302V234.302C213.599 235.558 211.946 236.27 210.216 236.27H209.688" stroke="#F5ECBC" stroke-width="0.675729"/>
<path d="M226.781 239.076H226.253C224.524 239.076 222.871 238.364 221.682 237.108V237.108C219.81 235.129 216.66 235.129 214.788 237.108V237.108C213.599 238.364 211.946 239.076 210.216 239.076H209.688" stroke="#F5ECBC" stroke-width="0.675729"/>
<path d="M226.781 241.881H226.253C224.524 241.881 222.871 241.169 221.682 239.913V239.913C219.81 237.934 216.66 237.934 214.788 239.913V239.913C213.599 241.169 211.946 241.881 210.216 241.881H209.688" stroke="#F5ECBC" stroke-width="0.675729"/>
<path d="M226.781 244.687H226.253C224.524 244.687 222.871 243.975 221.682 242.719V242.719C219.81 240.74 216.66 240.74 214.788 242.719V242.719C213.599 243.975 211.946 244.687 210.216 244.687H209.688" stroke="#F5ECBC" stroke-width="0.675729"/>
</g>
<ellipse cx="225.119" cy="244.164" rx="50.9355" ry="50.95" fill="#54298B"/>
<path fill-rule="evenodd" clip-rule="evenodd" d="M279.448 213.672C279.45 213.673 279.451 213.672 279.451 213.671C280.218 212.047 280.484 210.231 280.216 208.453C279.948 206.674 279.157 205.013 277.944 203.679C276.731 202.346 275.15 201.4 273.401 200.961C271.653 200.522 269.815 200.61 268.12 201.214C268.119 201.214 268.118 201.215 268.119 201.216C268.119 201.217 268.119 201.218 268.118 201.219C267.553 201.42 267.007 201.677 266.489 201.988C264.98 202.893 263.77 204.216 263.002 205.795C263.002 205.795 263.001 205.795 263.001 205.795C263.001 205.795 263 205.795 263 205.795L258.562 215.213C258.132 216.127 258.524 217.216 259.437 217.646C260.35 218.077 261.439 217.686 261.869 216.772L266.257 207.461C266.258 207.458 266.261 207.457 266.263 207.459C266.265 207.46 266.268 207.459 266.269 207.456C266.726 206.486 267.462 205.673 268.383 205.12C269.306 204.566 270.373 204.299 271.45 204.351C272.527 204.403 273.565 204.772 274.433 205.412C275.301 206.052 275.96 206.933 276.327 207.945C276.328 207.946 276.329 207.947 276.33 207.946C276.331 207.946 276.332 207.946 276.332 207.947C276.453 208.282 276.542 208.63 276.595 208.985C276.755 210.048 276.596 211.134 276.138 212.106C276.138 212.107 276.138 212.108 276.139 212.108C276.14 212.109 276.141 212.11 276.14 212.111L271.752 221.425C271.321 222.338 271.713 223.428 272.626 223.858C273.539 224.289 274.628 223.897 275.059 222.984L279.446 213.673C279.446 213.672 279.447 213.672 279.448 213.672Z" fill="#E1CAFF"/>
<path d="M251.188 222.029C249.915 224.711 251.057 227.918 253.739 229.192L267.764 235.851C270.446 237.124 273.652 235.982 274.925 233.3L279.377 223.921C280.65 221.238 279.507 218.031 276.825 216.757L262.801 210.098C260.119 208.825 256.912 209.967 255.639 212.649L251.188 222.029Z" fill="#F1DC6D"/>
<mask id="path-42-inside-3_4904_19133" fill="white">
<path fill-rule="evenodd" clip-rule="evenodd" d="M262.631 224.179C262.854 223.862 262.845 223.443 262.687 223.089C262.285 222.189 262.263 221.128 262.715 220.169C263.539 218.419 265.632 217.671 267.389 218.5C269.146 219.328 269.902 221.418 269.077 223.169C268.625 224.128 267.791 224.787 266.841 225.049C266.467 225.152 266.138 225.412 266.035 225.786L265.563 227.512C265.411 228.067 264.795 228.351 264.274 228.106L261.963 227.016C261.442 226.771 261.269 226.115 261.6 225.644L262.631 224.179Z"/>
</mask>
<path fill-rule="evenodd" clip-rule="evenodd" d="M262.631 224.179C262.854 223.862 262.845 223.443 262.687 223.089C262.285 222.189 262.263 221.128 262.715 220.169C263.539 218.419 265.632 217.671 267.389 218.5C269.146 219.328 269.902 221.418 269.077 223.169C268.625 224.128 267.791 224.787 266.841 225.049C266.467 225.152 266.138 225.412 266.035 225.786L265.563 227.512C265.411 228.067 264.795 228.351 264.274 228.106L261.963 227.016C261.442 226.771 261.269 226.115 261.6 225.644L262.631 224.179Z" fill="#54298B"/>
<path d="M265.563 227.512L266.415 227.746L265.563 227.512ZM261.6 225.644L262.323 226.153L261.6 225.644ZM262.631 224.179L261.908 223.67L262.631 224.179ZM263.514 220.546C263.177 221.262 263.193 222.053 263.494 222.729L261.88 223.45C261.378 222.325 261.348 220.995 261.915 219.792L263.514 220.546ZM267.012 219.299C265.694 218.678 264.13 219.24 263.514 220.546L261.915 219.792C262.949 217.597 265.57 216.665 267.766 217.7L267.012 219.299ZM268.277 222.792C268.893 221.486 268.33 219.921 267.012 219.299L267.766 217.7C269.962 218.735 270.911 221.351 269.877 223.546L268.277 222.792ZM266.606 224.197C267.319 224 267.94 223.508 268.277 222.792L269.877 223.546C269.31 224.749 268.264 225.574 267.076 225.901L266.606 224.197ZM264.71 227.278L265.183 225.552L266.888 226.02L266.415 227.746L264.71 227.278ZM262.34 226.216L264.651 227.306L263.897 228.905L261.586 227.816L262.34 226.216ZM263.354 224.688L262.323 226.153L260.877 225.135L261.908 223.67L263.354 224.688ZM266.415 227.746C266.118 228.831 264.914 229.385 263.897 228.905L264.651 227.306C264.659 227.31 264.664 227.31 264.668 227.31C264.673 227.31 264.68 227.309 264.687 227.306C264.694 227.303 264.699 227.299 264.702 227.295C264.705 227.292 264.708 227.287 264.71 227.278L266.415 227.746ZM267.076 225.901C267.005 225.921 266.951 225.953 266.92 225.98C266.905 225.993 266.897 226.004 266.893 226.01C266.889 226.015 266.888 226.018 266.888 226.02L265.183 225.552C265.39 224.797 266.022 224.358 266.606 224.197L267.076 225.901ZM261.586 227.816C260.568 227.336 260.23 226.055 260.877 225.135L262.323 226.153C262.317 226.161 262.316 226.166 262.315 226.17C262.315 226.175 262.315 226.181 262.316 226.189C262.318 226.196 262.322 226.202 262.325 226.205C262.327 226.209 262.331 226.212 262.34 226.216L261.586 227.816ZM263.494 222.729C263.741 223.282 263.805 224.048 263.354 224.688L261.908 223.67C261.909 223.669 261.911 223.666 261.913 223.66C261.915 223.653 261.918 223.64 261.919 223.62C261.92 223.579 261.91 223.518 261.88 223.45L263.494 222.729Z" fill="#54298B" mask="url(#path-42-inside-3_4904_19133)"/>
<path d="M165.154 239.573C169.107 235.623 175.372 235.477 181.099 241.2C186.068 246.164 184.954 245.051 186.519 246.615C190.341 250.434 190.969 256.152 190.542 259.967L179.263 248.697C178.868 248.302 178.227 248.302 177.832 248.697C177.437 249.092 177.437 249.732 177.832 250.128L194.235 266.519C194.828 267.111 194.828 268.072 194.235 268.664C193.642 269.257 192.68 269.257 192.087 268.664L187.909 264.49C184.604 265.483 177.045 265.638 172.308 261.016H178.514L169.187 257.909C166.027 254.752 166.887 255.622 166.26 254.947H172.44L164.126 252.177C161.254 247.47 161.957 242.767 165.154 239.573Z" fill="#AE77F5"/>
<path d="M203.108 284.302H222.945C223.277 284.302 223.602 284.209 223.885 284.035C225.416 283.089 224.745 280.728 222.945 280.728H208.892C205.059 280.728 201.952 277.651 201.952 273.857C201.952 272.664 202.259 271.543 202.798 270.566C202.901 270.561 203.004 270.559 203.108 270.559H244.374H270.662C273.584 270.559 277.769 268.771 279.593 266.24C281.844 265.104 283.386 262.787 283.386 260.114C283.386 256.319 280.279 253.243 276.446 253.243H223.964C223.632 253.243 223.307 253.335 223.025 253.51C221.493 254.456 222.164 256.817 223.964 256.817H270.662C274.495 256.817 280.501 259.893 280.501 263.688C280.501 264.59 280.162 265.451 279.593 266.24C278.648 266.717 277.579 266.985 276.446 266.985H208.892C206.264 266.985 203.976 268.432 202.798 270.566C199.109 270.726 196.168 273.738 196.168 277.43C196.168 281.225 199.275 284.302 203.108 284.302Z" fill="#F1DC6D"/>
<path d="M192.229 232.123H215.737C216.068 232.123 216.394 232.031 216.676 231.856C218.207 230.91 217.537 228.549 215.737 228.549H198.014C194.18 228.549 191.073 225.473 191.073 221.678C191.073 220.486 191.38 219.365 191.919 218.387C192.022 218.383 192.126 218.381 192.229 218.381H212.744H239.032C241.954 218.381 246.139 216.593 247.963 214.062C250.215 212.926 251.756 210.609 251.756 207.936C251.756 204.141 248.649 201.065 244.816 201.065H195.823C195.491 201.065 195.166 201.157 194.884 201.331C193.352 202.277 194.023 204.638 195.823 204.638H239.032C242.865 204.638 248.871 207.715 248.871 211.509C248.871 212.411 248.532 213.273 247.963 214.062C247.019 214.538 245.949 214.807 244.816 214.807H198.014C195.385 214.807 193.097 216.254 191.919 218.387C188.23 218.548 185.289 221.56 185.289 225.252C185.289 229.047 188.396 232.123 192.229 232.123Z" fill="#F1DC6D"/>
<path d="M233.828 201.632C234.483 205.462 231.533 208.96 227.648 208.96L195.86 208.96C192.792 208.96 190.174 206.739 189.674 203.712C189.043 199.893 191.989 196.42 195.86 196.42L227.648 196.42C230.703 196.42 233.313 198.621 233.828 201.632Z" fill="#F1DC6D"/>
<path d="M197.747 205.74L197.92 203.925L196.438 205.034L195.574 203.471L197.55 202.69L195.574 201.908L196.438 200.345L197.92 201.454L197.747 199.639L199.5 199.639L199.352 201.454L200.834 200.345L201.673 201.908L199.722 202.69L201.673 203.471L200.834 205.034L199.352 203.925L199.5 205.74L197.747 205.74Z" fill="#54298B"/>
<path d="M206.509 205.74L206.682 203.925L205.2 205.034L204.336 203.471L206.311 202.69L204.336 201.908L205.2 200.345L206.682 201.454L206.509 199.639L208.262 199.639L208.114 201.454L209.595 200.345L210.435 201.908L208.484 202.69L210.435 203.471L209.595 205.034L208.114 203.925L208.262 205.74L206.509 205.74Z" fill="#54298B"/>
<path d="M215.282 205.74L215.455 203.925L213.974 205.034L213.109 203.471L215.085 202.69L213.109 201.908L213.974 200.345L215.455 201.454L215.282 199.639L217.035 199.639L216.887 201.454L218.369 200.345L219.208 201.908L217.258 202.69L219.208 203.471L218.369 205.034L216.887 203.925L217.035 205.74L215.282 205.74Z" fill="#54298B"/>
<path d="M224.048 205.74L224.221 203.925L222.739 205.034L221.875 203.471L223.85 202.69L221.875 201.908L222.739 200.345L224.221 201.454L224.048 199.639L225.801 199.639L225.653 201.454L227.134 200.345L227.974 201.908L226.023 202.69L227.974 203.471L227.134 205.034L225.653 203.925L225.801 205.74L224.048 205.74Z" fill="#54298B"/>
<path d="M203.696 219.449C203.24 216.595 205.446 214.01 208.336 214.01H237.315C239.625 214.01 241.592 215.688 241.956 217.969L246.972 249.416C247.427 252.27 245.222 254.855 242.331 254.855H213.353C211.043 254.855 209.076 253.177 208.712 250.896L203.696 219.449Z" fill="#AE77F5"/>
<path d="M206.415 217.517C205.959 214.662 208.165 212.077 211.055 212.077H240.034C242.343 212.077 244.311 213.755 244.674 216.036L249.691 247.483C250.146 250.337 247.941 252.922 245.05 252.922H216.071C213.762 252.922 211.795 251.244 211.431 248.963L206.415 217.517Z" fill="white"/>
<path d="M215.943 240.737C215.522 237.898 217.722 235.349 220.592 235.349H224.377C226.707 235.349 228.684 237.055 229.026 239.359L229.42 242.016C229.84 244.855 227.641 247.405 224.771 247.405H220.985C218.656 247.405 216.678 245.698 216.337 243.394L215.943 240.737Z" fill="white" stroke="#54298B" stroke-width="1.08445"/>
<path d="M219.126 241.203L221.94 244.149L226.46 238.35" stroke="#54298B" stroke-width="1.08445" stroke-linejoin="round"/>
<path d="M212.486 222.158C212.065 219.319 214.265 216.769 217.135 216.769H220.92C223.25 216.769 225.227 218.476 225.569 220.78L225.963 223.437C226.383 226.276 224.184 228.825 221.314 228.825H217.528C215.199 228.825 213.221 227.119 212.88 224.815L212.486 222.158Z" fill="#54298B" stroke="#54298B" stroke-width="1.08445"/>
<path d="M223.25 225.929L215.203 219.666" stroke="white" stroke-width="1.08445" stroke-linejoin="round"/>
<path d="M216.179 226.167L222.398 219.4" stroke="white" stroke-width="1.08445" stroke-linejoin="round"/>
<path d="M231.594 222.776H240.366" stroke="#54298B" stroke-width="1.08445" stroke-linecap="round" stroke-linejoin="round"/>
<path d="M235.09 241.203H243.862" stroke="#54298B" stroke-width="1.08445" stroke-linecap="round" stroke-linejoin="round"/>
<path d="M232.516 227.649H241.288" stroke="#54298B" stroke-width="1.08445" stroke-linecap="round" stroke-linejoin="round"/>
<path d="M236.012 246.076H244.784" stroke="#54298B" stroke-width="1.08445" stroke-linecap="round" stroke-linejoin="round"/>
<path d="M230.551 218.129H239.445" stroke="#54298B" stroke-width="1.08445" stroke-linecap="round" stroke-linejoin="round"/>
<path d="M234.043 236.555H242.937" stroke="#54298B" stroke-width="1.08445" stroke-linecap="round" stroke-linejoin="round"/>
<path d="M228.36 250.4L208.378 265.877C207.288 266.721 207.885 268.466 209.263 268.466H254.347C255.804 268.466 256.346 266.554 255.106 265.79L230.004 250.312C229.492 249.996 228.836 250.031 228.36 250.4Z" fill="#AE77F5"/>
<path d="M202.965 233.181L229.053 250.047L249.98 232.916C251.269 231.861 253.218 232.592 253.493 234.235L258.631 264.844C258.944 266.703 256.898 268.048 255.315 267.025L229.053 250.047L207.978 267.298C206.682 268.36 204.722 267.612 204.462 265.957L199.645 235.34C199.353 233.487 201.39 232.163 202.965 233.181Z" fill="#E1CAFF"/>
<path fill-rule="evenodd" clip-rule="evenodd" d="M258.877 290.246C259.038 291.255 258.258 292.169 257.236 292.169L228.779 292.169C227.962 292.169 227.266 291.576 227.137 290.769L226.618 287.513L224.275 287.513C223.458 287.513 222.762 286.919 222.633 286.112L221.895 281.481C221.734 280.472 222.514 279.557 223.537 279.557L225.35 279.557L224.915 276.824C224.754 275.814 225.534 274.9 226.556 274.9L255.013 274.9C255.83 274.9 256.526 275.493 256.655 276.3L258.877 290.246ZM250.483 287.419C252.872 287.419 254.695 285.283 254.318 282.923C254.018 281.038 252.392 279.651 250.483 279.651L250.119 279.651C247.729 279.651 245.906 281.787 246.283 284.147C246.584 286.032 248.21 287.419 250.119 287.419L250.483 287.419Z" fill="#AE77F5"/>
<path d="M227.905 283.863C228.066 284.873 227.286 285.787 226.263 285.787L218.731 285.787C217.914 285.787 217.218 285.193 217.09 284.387L216.677 281.797C216.516 280.787 217.296 279.873 218.318 279.873L225.85 279.873C226.667 279.873 227.363 280.467 227.492 281.274L227.905 283.863Z" fill="#E1CAFF"/>
<path fill-rule="evenodd" clip-rule="evenodd" d="M260.287 288.836C260.448 289.846 259.668 290.76 258.646 290.76L230.189 290.76C229.372 290.76 228.676 290.166 228.547 289.359L228.028 286.103L225.689 286.103C224.872 286.103 224.176 285.509 224.047 284.702L223.309 280.071C223.148 279.062 223.928 278.147 224.951 278.147L226.76 278.147L226.325 275.414C226.164 274.404 226.944 273.49 227.966 273.49L256.423 273.49C257.24 273.49 257.936 274.084 258.065 274.891L260.287 288.836ZM251.901 286.009C254.29 286.009 256.113 283.873 255.736 281.513C255.436 279.628 253.81 278.241 251.901 278.241L251.537 278.241C249.147 278.241 247.324 280.378 247.701 282.737C248.002 284.622 249.628 286.009 251.537 286.009L251.901 286.009Z" fill="white"/>
<path d="M13 28.2897C13 23.8714 16.5817 20.2897 21 20.2897H288.998C293.417 20.2897 296.998 23.8714 296.998 28.2897V182.31H13V28.2897Z" fill="#F5EDFF"/>
<path d="M135.451 112.961C135.9 112.961 136.301 113.186 136.654 113.636C137.039 114.053 137.231 114.616 137.231 115.323C137.231 116.19 136.75 116.929 135.788 117.54C134.858 118.118 133.799 118.407 132.613 118.407C130.624 118.407 128.94 117.99 127.561 117.154C126.214 116.287 125.54 114.471 125.54 111.708V98.405H123.327C122.557 98.405 121.916 98.1479 121.403 97.6338C120.889 97.1197 120.633 96.477 120.633 95.7058C120.633 94.9668 120.889 94.3563 121.403 93.8743C121.916 93.3602 122.557 93.1031 123.327 93.1031H125.54V90.0184C125.54 89.183 125.813 88.4922 126.358 87.9459C126.935 87.3675 127.641 87.0784 128.475 87.0784C129.277 87.0784 129.951 87.3675 130.496 87.9459C131.041 88.4922 131.314 89.183 131.314 90.0184V93.1031H134.73C135.499 93.1031 136.141 93.3602 136.654 93.8743C137.167 94.3884 137.424 95.0311 137.424 95.8022C137.424 96.5413 137.167 97.1679 136.654 97.682C136.141 98.164 135.499 98.405 134.73 98.405H131.314V111.467C131.314 112.141 131.49 112.64 131.843 112.961C132.196 113.25 132.677 113.395 133.286 113.395C133.543 113.395 133.896 113.33 134.345 113.202C134.73 113.041 135.098 112.961 135.451 112.961Z" fill="#54298B"/>
<path d="M160.382 92.6212C161.216 92.6212 161.906 92.9103 162.451 93.4887C162.996 94.035 163.269 94.7258 163.269 95.5613V107.804C163.269 111.274 162.306 113.989 160.382 115.949C158.49 117.909 155.779 118.889 152.251 118.889C148.723 118.889 146.013 117.909 144.12 115.949C142.228 113.989 141.282 111.274 141.282 107.804V95.5613C141.282 94.7258 141.554 94.035 142.099 93.4887C142.645 92.9103 143.334 92.6212 144.168 92.6212C145.002 92.6212 145.692 92.9103 146.237 93.4887C146.782 94.035 147.055 94.7258 147.055 95.5613V107.804C147.055 109.764 147.488 111.226 148.354 112.19C149.22 113.121 150.519 113.587 152.251 113.587C154.015 113.587 155.33 113.121 156.196 112.19C157.062 111.226 157.495 109.764 157.495 107.804V95.5613C157.495 94.7258 157.768 94.035 158.313 93.4887C158.858 92.9103 159.548 92.6212 160.382 92.6212Z" fill="#54298B"/>
<path d="M197.761 92.1392C200.936 92.1392 203.133 93.1192 204.352 95.0793C205.571 97.0072 206.18 99.6902 206.18 103.128V115.467C206.18 116.303 205.908 117.009 205.363 117.588C204.817 118.134 204.128 118.407 203.294 118.407C202.46 118.407 201.77 118.134 201.225 117.588C200.68 117.009 200.407 116.303 200.407 115.467V103.128C200.407 101.361 200.054 99.9794 199.349 98.9833C198.675 97.9551 197.472 97.441 195.74 97.441C193.944 97.441 192.533 97.9872 191.506 99.0797C190.512 100.14 190.015 101.49 190.015 103.128V115.467C190.015 116.303 189.742 117.009 189.197 117.588C188.652 118.134 187.962 118.407 187.128 118.407C186.294 118.407 185.605 118.134 185.059 117.588C184.514 117.009 184.241 116.303 184.241 115.467V103.128C184.241 101.361 183.889 99.9794 183.183 98.9833C182.509 97.9551 181.307 97.441 179.575 97.441C177.778 97.441 176.367 97.9872 175.341 99.0797C174.346 100.14 173.849 101.49 173.849 103.128V115.467C173.849 116.303 173.577 117.009 173.031 117.588C172.486 118.134 171.796 118.407 170.962 118.407C170.129 118.407 169.439 118.134 168.894 117.588C168.348 117.009 168.076 116.303 168.076 115.467V95.5613C168.076 94.7258 168.348 94.035 168.894 93.4887C169.439 92.9103 170.129 92.6212 170.962 92.6212C171.796 92.6212 172.486 92.9103 173.031 93.4887C173.577 94.035 173.849 94.7258 173.849 95.5613V96.3324C174.715 95.1757 175.806 94.1956 177.121 93.3923C178.468 92.5569 179.959 92.1392 181.595 92.1392C185.637 92.1392 188.219 93.9064 189.341 97.441C190.079 96.0914 191.186 94.8704 192.661 93.7779C194.169 92.6854 195.868 92.1392 197.761 92.1392Z" fill="#54298B"/>
<path d="M223.832 92.1392C226.045 92.1392 228.049 92.7176 229.846 93.8743C231.642 94.9989 233.053 96.5734 234.079 98.5977C235.138 100.622 235.667 102.92 235.667 105.49C235.667 108.061 235.154 110.374 234.128 112.431C233.101 114.455 231.69 116.046 229.894 117.202C228.13 118.327 226.173 118.889 224.024 118.889C222.484 118.889 221.025 118.584 219.646 117.973C218.299 117.331 217.176 116.56 216.278 115.66V125.107C216.278 125.942 216.005 126.633 215.46 127.179C214.915 127.758 214.225 128.047 213.391 128.047C212.557 128.047 211.868 127.774 211.322 127.228C210.777 126.681 210.505 125.974 210.505 125.107V95.5613C210.505 94.7258 210.777 94.035 211.322 93.4887C211.868 92.9103 212.557 92.6212 213.391 92.6212C214.225 92.6212 214.915 92.9103 215.46 93.4887C216.005 94.035 216.278 94.7258 216.278 95.5613V95.754C217.048 94.7901 218.122 93.9546 219.502 93.2477C220.881 92.5087 222.324 92.1392 223.832 92.1392ZM223.11 113.587C225.163 113.587 226.847 112.816 228.162 111.274C229.477 109.732 230.134 107.804 230.134 105.49C230.134 103.177 229.477 101.265 228.162 99.7545C226.879 98.2122 225.195 97.441 223.11 97.441C221.025 97.441 219.325 98.2122 218.01 99.7545C216.695 101.265 216.037 103.177 216.037 105.49C216.037 107.804 216.695 109.732 218.01 111.274C219.325 112.816 221.025 113.587 223.11 113.587Z" fill="#54298B"/>
<path d="M259.87 92.1392C260.704 92.1392 261.393 92.4123 261.939 92.9585C262.484 93.5048 262.756 94.2117 262.756 95.0793V115.467C262.756 116.303 262.484 117.009 261.939 117.588C261.393 118.134 260.704 118.407 259.87 118.407C259.036 118.407 258.346 118.134 257.801 117.588C257.288 117.042 257.015 116.351 256.983 115.515C256.181 116.447 255.091 117.25 253.711 117.925C252.364 118.568 250.937 118.889 249.429 118.889C247.216 118.889 245.212 118.327 243.415 117.202C241.619 116.046 240.192 114.455 239.133 112.431C238.107 110.406 237.594 108.109 237.594 105.538C237.594 102.968 238.107 100.67 239.133 98.6459C240.16 96.5895 241.555 94.9989 243.319 93.8743C245.115 92.7176 247.088 92.1392 249.237 92.1392C250.777 92.1392 252.22 92.4284 253.567 93.0067C254.914 93.553 256.053 94.2599 256.983 95.1275V95.0793C256.983 94.2438 257.256 93.553 257.801 93.0067C258.346 92.4284 259.036 92.1392 259.87 92.1392ZM250.151 113.587C252.236 113.587 253.936 112.832 255.251 111.322C256.566 109.78 257.224 107.852 257.224 105.538C257.224 103.225 256.566 101.297 255.251 99.7545C253.936 98.2122 252.236 97.441 250.151 97.441C248.098 97.441 246.414 98.2122 245.099 99.7545C243.784 101.297 243.127 103.225 243.127 105.538C243.127 107.852 243.768 109.78 245.051 111.322C246.366 112.832 248.066 113.587 250.151 113.587Z" fill="#54298B"/>
<g clip-path="url(#clip0_4904_19133)">
<path d="M75.8751 72.8752C60.1739 72.8752 47.2385 85.6791 47.2385 101.474V117.32C47.2384 117.34 47.2383 117.361 47.2383 117.381C47.2383 117.402 47.2384 117.422 47.2385 117.443V117.849H47.2531C47.4967 121.681 50.7105 124.713 54.6394 124.713C55.477 124.713 56.2822 124.575 57.0329 124.321C58.5919 126.647 61.2599 128.181 64.2895 128.181C65.7923 128.181 67.2061 127.803 68.4398 127.139C70.2487 129.191 72.909 130.487 75.8749 130.487C78.8409 130.487 81.5012 129.191 83.3102 127.139C84.5439 127.803 85.9578 128.181 87.4607 128.181C90.4902 128.181 93.1583 126.647 94.7172 124.321C95.468 124.575 96.2732 124.713 97.1109 124.713C101.04 124.713 104.254 121.681 104.497 117.849H104.512V117.446C104.512 117.425 104.512 117.403 104.512 117.381L104.512 117.359C104.512 117.35 104.512 117.341 104.512 117.331L104.512 117.317V101.474C104.512 85.6791 91.5764 72.8752 75.8751 72.8752Z" fill="#AE77F5"/>
<path d="M60.8358 90.8719C57.958 90.8719 55.625 93.2188 55.625 96.1137V101.499C55.625 101.527 55.6252 101.554 55.6256 101.582C55.6252 101.61 55.625 101.637 55.625 101.665V107.05C55.625 109.945 57.958 112.292 60.8358 112.292C63.7137 112.292 66.0466 109.945 66.0466 107.05V101.665C66.0466 101.637 66.0464 101.61 66.046 101.582C66.0464 101.554 66.0466 101.527 66.0466 101.499V96.1137C66.0466 93.2188 63.7137 90.8719 60.8358 90.8719Z" fill="#CCA4FF"/>
<path d="M90.953 90.8719C88.0751 90.8719 85.7422 93.2188 85.7422 96.1137V101.499C85.7422 101.527 85.7424 101.554 85.7428 101.582C85.7424 101.61 85.7422 101.637 85.7422 101.665V107.05C85.7422 109.945 88.0751 112.292 90.953 112.292C93.8308 112.292 96.1638 109.945 96.1638 107.05V101.665C96.1638 101.637 96.1636 101.61 96.1632 101.582C96.1636 101.554 96.1638 101.527 96.1638 101.499V96.1137C96.1638 93.2188 93.8308 90.8719 90.953 90.8719Z" fill="#CCA4FF"/>
<path d="M55.625 98.2935C55.625 95.3986 57.958 93.0518 60.8358 93.0518C63.7137 93.0518 66.0466 95.3986 66.0466 98.2936V103.679C66.0466 106.574 63.7137 108.92 60.8358 108.92C57.958 108.92 55.625 106.574 55.625 103.679V98.2935Z" fill="#282828"/>
<path d="M60.8359 97.8159C60.8359 96.8742 61.5948 96.1108 62.531 96.1108C63.4671 96.1108 64.226 96.8742 64.226 97.8159V99.2809C64.226 100.223 63.4671 100.986 62.531 100.986C61.5948 100.986 60.8359 100.223 60.8359 99.2809V97.8159Z" fill="white"/>
<path d="M85.7031 98.2935C85.7031 95.3986 88.0361 93.0518 90.9139 93.0518C93.7918 93.0518 96.1247 95.3986 96.1247 98.2936V103.679C96.1247 106.574 93.7918 108.92 90.9139 108.92C88.0361 108.92 85.7031 106.574 85.7031 103.679V98.2935Z" fill="#282828"/>
<path d="M90.918 97.8159C90.918 96.8742 91.6769 96.1108 92.613 96.1108C93.5492 96.1108 94.3081 96.8742 94.3081 97.8159V99.281C94.3081 100.223 93.5492 100.986 92.613 100.986C91.6769 100.986 90.918 100.223 90.918 99.281V97.8159Z" fill="white"/>
<path d="M82.0044 103.336C80.3729 101.955 77.9701 102.219 76.4573 103.747L75.8937 104.335L75.3004 103.747C73.8173 102.219 71.3848 101.955 69.7533 103.336C67.8845 104.923 67.7956 107.744 69.4567 109.448L75.2114 115.325C75.5674 115.707 76.1903 115.707 76.5463 115.325L82.301 109.448C83.9622 107.744 83.8732 104.923 82.0044 103.336Z" fill="#F1DC6D"/>
<path d="M74.2071 105.135C74.3854 105.561 73.9981 105.95 73.5382 105.95L70.9007 105.95C70.4408 105.95 70.0535 105.561 70.2318 105.135C70.3399 104.876 70.4984 104.641 70.6982 104.443C70.898 104.245 71.1351 104.088 71.3962 103.981C71.6572 103.874 71.9369 103.819 72.2195 103.819C72.502 103.819 72.7818 103.874 73.0428 103.981C73.3038 104.088 73.541 104.245 73.7408 104.443C73.9405 104.641 74.099 104.876 74.2071 105.135Z" fill="white"/>
<path d="M81.527 105.135C81.7053 105.561 81.318 105.95 80.8581 105.95L78.2206 105.95C77.7607 105.95 77.3734 105.561 77.5517 105.135C77.6598 104.876 77.8183 104.641 78.0181 104.443C78.2178 104.245 78.455 104.088 78.716 103.981C78.9771 103.874 79.2568 103.819 79.5394 103.819C79.8219 103.819 80.1016 103.874 80.3627 103.981C80.6237 104.088 80.8609 104.245 81.0606 104.443C81.2604 104.641 81.4189 104.876 81.527 105.135Z" fill="white"/>
</g>
<rect x="13" y="223.546" width="132.638" height="41.2359" fill="#F1DC6D"/>
<rect x="13" y="182.31" width="132.638" height="41.2359" fill="#54298B"/>
<path d="M13 264.782H145.638V306.018H21C16.5817 306.018 13 302.436 13 298.018L13 264.782Z" fill="#AE77F5"/>
</g>
<defs>
<filter id="filter0_dd_4904_19133" x="9" y="20.2897" width="292" height="293.728" filterUnits="userSpaceOnUse" color-interpolation-filters="sRGB">
<feFlood flood-opacity="0" result="BackgroundImageFix"/>
<feColorMatrix in="SourceAlpha" type="matrix" values="0 0 0 0 0 0 0 0 0 0 0 0 0 0 0 0 0 0 127 0" result="hardAlpha"/>
<feOffset dy="4"/>
<feGaussianBlur stdDeviation="2"/>
<feComposite in2="hardAlpha" operator="out"/>
<feColorMatrix type="matrix" values="0 0 0 0 0 0 0 0 0 0 0 0 0 0 0 0 0 0 0.1 0"/>
<feBlend mode="normal" in2="BackgroundImageFix" result="effect1_dropShadow_4904_19133"/>
<feColorMatrix in="SourceAlpha" type="matrix" values="0 0 0 0 0 0 0 0 0 0 0 0 0 0 0 0 0 0 127 0" result="hardAlpha"/>
<feOffset dy="2"/>
<feGaussianBlur stdDeviation="1"/>
<feComposite in2="hardAlpha" operator="out"/>
<feColorMatrix type="matrix" values="0 0 0 0 0 0 0 0 0 0 0 0 0 0 0 0 0 0 0.2 0"/>
<feBlend mode="normal" in2="effect1_dropShadow_4904_19133" result="effect2_dropShadow_4904_19133"/>
<feBlend mode="normal" in="SourceGraphic" in2="effect2_dropShadow_4904_19133" result="shape"/>
</filter>
<clipPath id="clip0_4904_19133">
<rect width="57.2737" height="57.612" fill="white" transform="translate(47.2383 72.8752)"/>
</clipPath>
</defs>
</svg>
