<svg width="402" height="113" viewBox="0 0 402 113" fill="none" xmlns="http://www.w3.org/2000/svg">
<path d="M0.5 78.5487V24.9456H26.1125C29.7539 24.9456 32.7555 25.5338 35.1175 26.7103C37.5287 27.8377 39.3493 29.4309 40.5795 31.4897C41.8097 33.5485 42.4248 35.9505 42.4248 38.6956C42.4248 40.5583 42.105 42.2986 41.4653 43.9162C40.8256 45.5339 39.8906 46.9064 38.6604 48.0339C37.4302 49.1613 35.9048 49.9701 34.0841 50.4603V50.975C36.2493 51.3672 38.0453 52.176 39.4724 53.4015C40.8994 54.578 41.9819 56.0241 42.7201 57.7398C43.5074 59.4064 43.901 61.2692 43.901 63.328C43.901 66.6124 43.1383 69.4065 41.6129 71.7104C40.1367 73.9653 37.9961 75.681 35.1913 76.8575C32.3865 77.9849 28.9912 78.5487 25.0053 78.5487H0.5ZM9.94785 70.9751H23.972C27.4165 70.9751 29.9261 70.2153 31.5007 68.6957C33.1246 67.1761 33.9365 65.1908 33.9365 62.7398C33.9365 60.0927 33.1 58.1074 31.4269 56.7839C29.8031 55.4604 27.5395 54.7986 24.6363 54.7986H9.94785V70.9751ZM9.94785 47.5192H24.1934C26.1125 47.5192 27.6872 47.2005 28.9173 46.5633C30.1475 45.926 31.0579 45.0682 31.6484 43.9897C32.2881 42.8623 32.6079 41.5387 32.6079 40.0191C32.6079 37.5681 31.796 35.7054 30.1721 34.4309C28.5483 33.1073 26.3586 32.4456 23.6029 32.4456H9.94785V47.5192Z" fill="#18181B"/>
<path d="M48.6238 78.5487V39.4309H56.9645L57.4073 45.975H57.7026C58.5883 43.475 60.0153 41.6858 61.9836 40.6074C64.0012 39.4799 66.2893 38.9162 68.8481 38.9162C69.291 38.9162 69.6846 38.9162 70.0291 38.9162C70.4227 38.9162 70.7918 38.9162 71.1363 38.9162V47.5927C70.841 47.5927 70.4719 47.5927 70.0291 47.5927C69.6354 47.5437 69.1926 47.5192 68.7005 47.5192C66.3385 47.5192 64.3702 47.9113 62.7956 48.6956C61.2209 49.4309 60.0153 50.5094 59.1788 51.9309C58.3915 53.3525 57.9486 55.0927 57.8502 57.1515V78.5487H48.6238Z" fill="#18181B"/>
<path d="M74.2156 78.5487V39.4309H83.442V78.5487H74.2156Z" fill="#18181B"/>
<path d="M103.797 79.2104C101.435 79.2104 99.2695 78.7938 97.3012 77.9604C95.3821 77.0781 93.7091 75.779 92.282 74.0634C90.9042 72.3477 89.8463 70.2398 89.1081 67.7398C88.37 65.1908 88.001 62.2741 88.001 58.9898C88.001 54.529 88.6407 50.8035 89.9201 47.8133C91.2487 44.774 93.094 42.4946 95.4559 40.975C97.8671 39.4554 100.647 38.6956 103.797 38.6956C105.962 38.6956 107.881 39.0387 109.554 39.725C111.276 40.3623 112.752 41.2691 113.983 42.4456C115.213 43.6221 116.148 45.0192 116.787 46.6368H117.304V24.9456H126.53L126.457 78.5487H117.599L117.304 71.2692H116.787C115.852 73.6712 114.253 75.6075 111.99 77.0781C109.726 78.4996 106.995 79.2104 103.797 79.2104ZM107.266 71.7104C109.48 71.7104 111.301 71.1957 112.728 70.1663C114.204 69.1369 115.311 67.8133 116.049 66.1957C116.787 64.529 117.156 62.7888 117.156 60.9751V56.931C117.156 55.5094 116.935 54.1613 116.492 52.8868C116.098 51.6123 115.483 50.4849 114.647 49.5045C113.86 48.475 112.826 47.6662 111.547 47.078C110.317 46.4897 108.89 46.1956 107.266 46.1956C105.297 46.1956 103.575 46.6613 102.099 47.5927C100.623 48.5241 99.4663 49.9456 98.6298 51.8574C97.7933 53.7202 97.375 56.0976 97.375 58.9898C97.375 61.7839 97.7933 64.1369 98.6298 66.0486C99.4663 67.9604 100.623 69.382 102.099 70.3133C103.575 71.2447 105.297 71.7104 107.266 71.7104Z" fill="#18181B"/>
<path d="M149.489 91.5634C146.192 91.5634 143.338 91.0732 140.927 90.0928C138.516 89.1614 136.597 87.8134 135.17 86.0487C133.792 84.333 133.005 82.3232 132.808 80.0193H141.665C141.862 80.9997 142.305 81.8575 142.994 82.5928C143.732 83.3281 144.667 83.8918 145.799 84.284C146.93 84.7252 148.234 84.9457 149.711 84.9457C151.925 84.9457 153.746 84.6271 155.173 83.9899C156.649 83.3526 157.731 82.3722 158.42 81.0487C159.159 79.7251 159.528 78.0094 159.528 75.9016V68.6957H159.011C158.174 70.9506 156.649 72.7888 154.435 74.2104C152.22 75.583 149.612 76.2692 146.611 76.2692C144.249 76.2692 142.108 75.8526 140.189 75.0192C138.319 74.1859 136.695 72.9849 135.317 71.4163C133.94 69.7986 132.882 67.8378 132.144 65.5339C131.405 63.181 131.036 60.4849 131.036 57.4457C131.036 53.377 131.676 49.9701 132.956 47.225C134.284 44.4309 136.129 42.3231 138.491 40.9015C140.853 39.4309 143.609 38.6956 146.758 38.6956C149.711 38.6956 152.269 39.3819 154.435 40.7544C156.649 42.127 158.174 43.9162 159.011 46.1221H159.528L159.823 39.4309H168.754V74.431C168.754 77.5683 168.287 80.2153 167.352 82.3722C166.466 84.5781 165.162 86.3428 163.44 87.6663C161.717 89.0389 159.675 90.0193 157.313 90.6075C155 91.2448 152.392 91.5634 149.489 91.5634ZM149.932 69.1369C151.999 69.1369 153.721 68.6957 155.099 67.8133C156.526 66.882 157.608 65.7055 158.347 64.2839C159.085 62.8133 159.478 61.3182 159.528 59.7986V55.0927C159.478 53.5241 159.085 52.0535 158.347 50.6809C157.608 49.2594 156.551 48.1074 155.173 47.225C153.795 46.2937 152.073 45.828 150.006 45.828C148.087 45.828 146.389 46.2692 144.913 47.1515C143.486 48.0339 142.379 49.3329 141.591 51.0486C140.804 52.7643 140.41 54.8966 140.41 57.4457C140.41 60.0437 140.804 62.2251 141.591 63.9898C142.428 65.7055 143.56 67.0045 144.987 67.8869C146.414 68.7202 148.062 69.1369 149.932 69.1369Z" fill="#18181B"/>
<path d="M191.751 79.2104C187.716 79.2104 184.271 78.3771 181.417 76.7104C178.563 75.0438 176.349 72.7153 174.774 69.7251C173.249 66.7349 172.486 63.23 172.486 59.2104C172.486 55.0437 173.249 51.4407 174.774 48.4015C176.3 45.3133 178.489 42.9358 181.343 41.2691C184.197 39.5534 187.544 38.6956 191.382 38.6956C195.86 38.6956 199.526 39.676 202.38 41.6368C205.234 43.5976 207.276 46.2446 208.506 49.578C209.785 52.9113 210.204 56.7104 209.761 60.9751H181.565C181.565 63.328 181.983 65.3378 182.82 67.0045C183.705 68.6712 184.911 69.9457 186.436 70.8281C187.962 71.7104 189.733 72.1516 191.751 72.1516C194.113 72.1516 196.106 71.6369 197.73 70.6075C199.353 69.529 200.387 68.1075 200.83 66.3427H209.613C209.269 68.8918 208.285 71.1467 206.661 73.1075C205.037 75.0192 202.946 76.5143 200.387 77.5928C197.828 78.6712 194.949 79.2104 191.751 79.2104ZM181.565 55.9751L180.753 54.7986H201.642L200.756 55.9751C200.854 53.6221 200.485 51.7103 199.649 50.2398C198.861 48.7201 197.73 47.5927 196.253 46.8574C194.826 46.1221 193.202 45.7544 191.382 45.7544C189.413 45.7544 187.691 46.1711 186.215 47.0044C184.788 47.8378 183.656 49.0143 182.82 50.5339C182.032 52.0535 181.614 53.8672 181.565 55.9751Z" fill="#18181B"/>
<path d="M78.8384 1.5066C79.013 1.04051 79.7297 1.04051 79.9043 1.5066C80.7783 3.83862 82.6518 8.29279 84.9606 10.5928C87.2694 12.8928 91.7407 14.7592 94.0816 15.6298C94.5495 15.8038 94.5495 16.5177 94.0816 16.6917C91.7407 17.5623 87.2694 19.4287 84.9606 21.7287C82.6518 24.0287 80.7783 28.4829 79.9043 30.8149C79.7297 31.281 79.013 31.281 78.8384 30.8149C77.9644 28.4829 76.0909 24.0287 73.7821 21.7287C71.4732 19.4287 67.002 17.5623 64.6611 16.6917C64.1932 16.5177 64.1932 15.8038 64.6611 15.6298C67.002 14.7592 71.4732 12.8928 73.7821 10.5928C76.0909 8.29279 77.9644 3.83862 78.8384 1.5066Z" fill="#1F78D1"/>
<path d="M236.127 79.2102C233.962 79.2102 231.969 78.8671 230.148 78.1808C228.377 77.4945 226.876 76.5386 225.646 75.3131C224.416 74.0386 223.481 72.568 222.841 70.9013H222.398L222.103 78.5484H214.796V24.9453H222.398V47.2983H222.841C223.776 44.7983 225.4 42.7885 227.713 41.2689C230.025 39.7493 232.83 38.9895 236.127 38.9895C238.489 38.9895 240.63 39.4307 242.549 40.313C244.517 41.1954 246.215 42.4944 247.642 44.2101C249.069 45.9258 250.151 48.0336 250.889 50.5336C251.677 53.0336 252.07 55.9013 252.07 59.1366C252.07 63.4503 251.381 67.1023 250.004 70.0925C248.675 73.0827 246.805 75.3621 244.394 76.9308C242.032 78.4504 239.276 79.2102 236.127 79.2102ZM233.47 72.9602C235.635 72.9602 237.53 72.4455 239.153 71.416C240.777 70.3866 242.032 68.8425 242.918 66.7837C243.803 64.7249 244.246 62.1758 244.246 59.1366C244.246 56.8327 243.976 54.8229 243.434 53.1072C242.942 51.3425 242.229 49.8964 241.294 48.7689C240.359 47.5924 239.227 46.7101 237.899 46.1219C236.57 45.5336 235.094 45.2395 233.47 45.2395C231.059 45.2395 229.017 45.8032 227.344 46.9307C225.72 48.0091 224.49 49.4552 223.653 51.2689C222.866 53.0336 222.472 54.9209 222.472 56.9307V61.269C222.472 63.2788 222.866 65.1905 223.653 67.0043C224.49 68.769 225.72 70.2151 227.344 71.3425C229.017 72.421 231.059 72.9602 233.47 72.9602Z" fill="#1F78D1"/>
<path d="M274.07 79.2102C270.182 79.2102 266.811 78.4014 263.957 76.7837C261.153 75.117 258.987 72.7886 257.462 69.7984C255.937 66.7592 255.174 63.2543 255.174 59.2837C255.174 55.166 255.937 51.5876 257.462 48.5483C258.987 45.5091 261.128 43.1807 263.884 41.563C266.688 39.8963 269.985 39.063 273.774 39.063C278.055 39.063 281.574 40.0189 284.329 41.9307C287.134 43.7934 289.152 46.3669 290.382 49.6513C291.612 52.8866 292.03 56.5385 291.637 60.6072H262.703C262.752 63.2543 263.244 65.5337 264.179 67.4454C265.114 69.3082 266.418 70.7298 268.091 71.7102C269.813 72.6906 271.806 73.1808 274.07 73.1808C276.678 73.1808 278.892 72.5925 280.713 71.416C282.533 70.1906 283.69 68.5729 284.182 66.5631H291.415C291.071 69.1121 290.111 71.3425 288.537 73.2543C286.962 75.117 284.92 76.5876 282.41 77.6661C279.95 78.6955 277.17 79.2102 274.07 79.2102ZM262.776 56.3425L262.038 55.2395H284.92L284.182 56.4895C284.28 53.7934 283.862 51.6121 282.927 49.9454C282.041 48.2297 280.786 46.9797 279.163 46.1954C277.588 45.4111 275.767 45.0189 273.701 45.0189C271.535 45.0189 269.641 45.4846 268.017 46.416C266.393 47.2983 265.138 48.5973 264.253 50.313C263.367 52.0287 262.875 54.0385 262.776 56.3425Z" fill="#1F78D1"/>
<path d="M310.909 79.2102C308.547 79.2102 306.382 78.769 304.414 77.8867C302.494 77.0043 300.821 75.7298 299.394 74.0631C297.967 72.3474 296.86 70.2396 296.073 67.7396C295.335 65.2396 294.966 62.3474 294.966 59.0631C294.966 54.7493 295.63 51.0974 296.959 48.1071C298.336 45.1169 300.206 42.862 302.568 41.3424C304.979 39.7738 307.76 38.9895 310.909 38.9895C313.074 38.9895 315.042 39.3326 316.814 40.0189C318.634 40.7052 320.16 41.6856 321.39 42.9601C322.67 44.1856 323.604 45.6317 324.195 47.2983H324.638L324.933 39.6512H332.24V78.5484H324.638V70.8278H324.195C323.26 73.3278 321.636 75.3621 319.323 76.9308C317.011 78.4504 314.206 79.2102 310.909 79.2102ZM313.566 72.9602C315.977 72.9602 317.995 72.3964 319.619 71.269C321.242 70.1415 322.473 68.6955 323.309 66.9307C324.146 65.166 324.564 63.2788 324.564 61.269V56.8572C324.564 54.8474 324.146 52.9601 323.309 51.1954C322.473 49.4307 321.242 47.9846 319.619 46.8571C317.995 45.7297 315.977 45.166 313.566 45.166C311.401 45.166 309.506 45.7052 307.883 46.7836C306.259 47.813 305.004 49.3572 304.118 51.416C303.233 53.4258 302.79 55.9748 302.79 59.0631C302.79 62.1023 303.233 64.6513 304.118 66.7102C305.004 68.769 306.259 70.3376 307.883 71.416C309.506 72.4455 311.401 72.9602 313.566 72.9602Z" fill="#1F78D1"/>
<path d="M339.937 78.5484V39.6512H347.171L347.466 47.3719H347.909C348.992 44.6267 350.689 42.5679 353.002 41.1954C355.364 39.7738 357.972 39.063 360.826 39.063C363.68 39.063 366.239 39.7493 368.502 41.1218C370.815 42.4944 372.464 44.8473 373.448 48.1807H374.038C375.121 45.1415 376.892 42.862 379.353 41.3424C381.862 39.8228 384.667 39.063 387.767 39.063C390.326 39.063 392.614 39.6022 394.632 40.6807C396.698 41.7591 398.322 43.4993 399.503 45.9013C400.684 48.3032 401.275 51.4895 401.275 55.4601V78.5484H393.746V57.0042C393.746 54.3572 393.426 52.1758 392.786 50.4601C392.147 48.6954 391.187 47.3964 389.908 46.563C388.628 45.7297 386.955 45.313 384.889 45.313C382.773 45.313 380.927 45.8522 379.353 46.9307C377.778 48.0091 376.548 49.4552 375.662 51.2689C374.826 53.0336 374.407 55.0434 374.407 57.2984V78.5484H366.805V57.0042C366.805 54.3572 366.485 52.1758 365.845 50.4601C365.206 48.6954 364.246 47.3964 362.967 46.563C361.687 45.7297 360.039 45.313 358.021 45.313C355.856 45.313 353.986 45.8522 352.412 46.9307C350.837 48.0091 349.607 49.4552 348.721 51.2689C347.884 53.0336 347.466 55.0434 347.466 57.2984V78.5484H339.937Z" fill="#1F78D1"/>
</svg>
