<svg width="169" height="89" viewBox="0 0 169 89" fill="none" xmlns="http://www.w3.org/2000/svg">
<path d="M143.301 59.9267L139.377 54.9062H138.15V62.9846H139.662V57.5077L143.876 62.9846H144.813V54.9107H143.301V59.9267ZM128.63 56.1385C130.518 56.1385 131.274 57.6629 131.251 59.0275C131.228 60.3922 130.518 61.766 128.63 61.766C126.742 61.766 126.031 60.3466 126 59.0275C125.968 57.7085 126.751 56.1385 128.63 56.1385ZM128.63 54.7692C125.859 54.7692 124.51 56.9052 124.51 59.0275C124.51 61.1498 125.814 63.1946 128.63 63.1946C131.446 63.1946 132.704 61.1042 132.74 59.0138C132.776 56.9235 131.391 54.7692 128.63 54.7692ZM119.019 62.9846V54.9107H117.516V62.9846H119.019ZM108.354 62.9846H109.866V56.2936H112.406V54.9244H105.81V56.2936H108.354V62.9846ZM99.794 60.0453H96.8153L98.3046 56.5949L99.794 60.0453ZM101.075 62.9846H102.723L99.1376 54.9107H97.4898L93.8864 62.9846H95.5161L96.1996 61.4648H100.391L101.075 62.9846ZM83.8731 56.3393H85.5209C87.2637 56.3393 87.9925 57.599 88.0287 58.8587C88.0649 60.1184 87.3407 61.5195 85.5209 61.5195H83.8731V56.3393ZM85.5209 54.897H82.3883V62.9846H85.5345C88.3411 62.9846 89.5769 60.9216 89.5407 58.8769C89.5045 56.8322 88.2732 54.9107 85.5209 54.9107V54.897ZM75.3944 59.9175L71.4696 54.897H70.2428V62.9846H71.7548V57.5077L75.9647 62.9846H76.9063V54.9107H75.3944V59.9175ZM62.9637 54.9244V59.5615C62.9637 60.9308 62.2575 61.7888 61.0081 61.7888C59.7587 61.7888 58.9348 61.0175 58.9348 59.5615V54.9335H57.4364V59.5615C57.4364 61.9942 59.0752 63.1717 60.9945 63.1717C63.009 63.1717 64.4666 61.9486 64.4666 59.5615V54.9335L62.9637 54.9244ZM48.0252 56.1339C49.9129 56.1339 50.6688 57.6583 50.6462 59.023C50.6236 60.3876 49.9129 61.7614 48.0252 61.7614C46.1375 61.7614 45.4268 60.342 45.3906 59.023C45.3543 57.704 46.142 56.1385 48.0297 56.1385L48.0252 56.1339ZM48.0252 54.7647C45.2547 54.7647 43.9058 56.9007 43.9058 59.023C43.9058 61.1453 45.2095 63.19 48.0252 63.19C50.8409 63.19 52.0993 61.0996 52.1355 59.0093C52.1717 56.9189 50.7865 54.7692 48.0297 54.7692L48.0252 54.7647ZM34.5488 62.9846V59.9997H38.5641V58.6031H34.5488V56.3986H38.795V54.9335H33.0459V62.9846H34.5488Z" fill="#94A3B8"/>
<path d="M144.963 46.4397H134.927V42.3731H144.605V39.2056H134.927V35.034H144.963V31.7388H131.581V49.7852H144.963V46.4397ZM126.855 34.7282C125.497 31.9441 122.618 31.15 119.834 31.15C116.539 31.15 112.913 32.6927 112.913 36.3987C112.913 40.4425 116.285 41.4192 119.934 41.8756C122.31 42.1312 124.071 42.8295 124.071 44.5274C124.071 46.4854 122.08 47.2293 119.961 47.2293C117.842 47.2293 115.724 46.353 114.932 44.3722L112.12 45.8418C113.451 49.1371 116.258 50.269 119.911 50.269C123.895 50.269 127.417 48.5438 127.417 44.5274C127.417 40.228 123.945 39.2513 120.214 38.7857C118.073 38.5302 116.235 38.092 116.235 36.5037C116.235 35.1664 117.435 34.1075 119.934 34.1075C121.876 34.1075 123.555 35.0888 124.175 36.1157L126.855 34.7282ZM102.709 31.7388C99.8981 31.7159 97.0914 31.7388 94.2803 31.7388V49.7852H97.6528V44.4817H102.709C111.473 44.4817 111.451 31.7388 102.718 31.7388H102.709ZM97.6528 34.9838H102.709C106.996 34.9838 107.023 41.3736 102.709 41.3736H97.6618L97.6528 34.9838ZM89.5045 49.7852V31.7388H86.1591V49.7852H89.5045ZM69.5864 31.7388V49.7852H82.1484V46.6451H72.9816V31.7388H69.5864ZM64.0773 45.1846C62.8651 46.3467 61.2593 46.9995 59.5867 47.0103C55.1685 47.0103 53.4574 43.8975 53.4302 40.908C53.403 37.9186 55.2681 34.6552 59.5867 34.6552C61.1894 34.6316 62.7377 35.2409 63.9007 36.3531L66.1642 34.1669C65.3048 33.2957 64.2826 32.605 63.1566 32.135C62.0307 31.6649 60.8234 31.4247 59.6048 31.4284C53.145 31.4284 50.0985 36.2161 50.1301 40.9263C50.1618 45.6365 52.9639 50.2051 59.5867 50.2051C60.8382 50.2354 62.0832 50.0141 63.249 49.5541C64.4149 49.0941 65.4782 48.4047 66.3769 47.526L64.0773 45.1846ZM46.4227 46.4443H36.3822V42.3731H46.0605V39.2056H36.3822V35.034H46.4181V31.7388H33.0459V49.7852H46.4272L46.4227 46.4443Z" fill="#94A3B8"/>
<path d="M27.4599 29.904C31.5341 23.4686 39.7503 21.2322 46.5858 24.313L46.1331 23.9981C42.7816 21.8313 38.7137 21.0956 34.8243 21.9528C30.9349 22.8101 27.5425 25.19 25.3934 28.569C23.2444 31.948 22.5147 36.0494 23.3649 39.9709C24.2151 43.8924 26.5756 47.3127 29.927 49.4794L30.4024 49.767C24.7574 44.7921 23.3631 36.3439 27.4599 29.904Z" fill="#94A3B8"/>
<path d="M146.217 33.5051C146.217 32.9507 146.435 32.419 146.824 32.027C147.213 31.635 147.74 31.4147 148.29 31.4147C148.84 31.4147 149.367 31.635 149.756 32.027C150.145 32.419 150.363 32.9507 150.363 33.5051C150.363 34.0595 150.145 34.5912 149.756 34.9832C149.367 35.3752 148.84 35.5954 148.29 35.5954C147.74 35.5954 147.213 35.3752 146.824 34.9832C146.435 34.5912 146.217 34.0595 146.217 33.5051ZM150.123 33.5051C150.123 33.0148 149.93 32.5447 149.586 32.198C149.243 31.8514 148.776 31.6566 148.29 31.6566C147.804 31.6566 147.338 31.8514 146.994 32.198C146.65 32.5447 146.457 33.0148 146.457 33.5051C146.452 33.7498 146.496 33.993 146.586 34.2203C146.676 34.4475 146.811 34.6542 146.982 34.8279C147.153 35.0016 147.357 35.1389 147.582 35.2315C147.806 35.3242 148.047 35.3703 148.29 35.3672C148.534 35.3685 148.776 35.3207 149.002 35.2268C149.228 35.1328 149.433 34.9945 149.605 34.82C149.777 34.6454 149.914 34.4381 150.006 34.21C150.098 33.9819 150.144 33.7376 150.142 33.4914L150.123 33.5051ZM147.435 32.3777H148.48C148.983 32.3777 149.349 32.6059 149.349 33.0989C149.356 33.2514 149.311 33.4018 149.221 33.5247C149.131 33.6477 149.002 33.7358 148.856 33.7744L149.386 34.5366H148.756L148.304 33.8519H147.969V34.5366H147.448L147.435 32.3777ZM148.408 33.4321C148.648 33.4321 148.779 33.3134 148.779 33.1354C148.779 32.9574 148.634 32.8342 148.408 32.8342H147.955V33.4321H148.408Z" fill="#94A3B8"/>
</svg>
