<svg width="134" height="80" viewBox="0 0 134 80" fill="none" xmlns="http://www.w3.org/2000/svg">
<path d="M113.025 45.931C113.025 46.9455 113.517 47.7502 114.889 47.7502C116.506 47.7502 118.229 46.5957 118.334 43.9718C117.596 43.8668 116.787 43.7619 116.049 43.7619C114.432 43.7619 113.025 44.2167 113.025 45.931Z" fill="#94A3B8"/>
<path d="M47.1698 42.6773C47.1698 45.4062 48.4355 47.5053 50.8968 47.5053C53.2525 47.5053 54.7996 45.6511 54.7996 42.6073C54.7996 39.4237 53.0767 37.9892 50.9319 37.9892C48.6113 37.9892 47.1698 39.7035 47.1698 42.6773Z" fill="#94A3B8"/>
<path fill-rule="evenodd" clip-rule="evenodd" d="M3.71143 22H130.289V58H3.71143V22ZM123.925 47.9601C124.136 47.9601 124.347 47.9251 124.593 47.8552L124.698 50.2691C123.855 50.724 122.835 51.0038 121.85 51.0038C119.741 51.0038 118.581 49.7794 118.37 47.8552C117.455 49.4645 115.838 51.0038 113.271 51.0038C110.986 51.0038 108.384 49.7794 108.384 46.4907C108.384 42.6073 112.146 41.6977 115.768 41.6977C116.647 41.6977 117.561 41.7327 118.37 41.8377V41.3129C118.37 39.7035 118.334 37.7793 115.768 37.7793C114.818 37.7793 114.08 37.8493 113.342 38.2341L112.814 40.0184L109.193 39.6336L109.755 35.9951C112.533 34.8755 113.939 34.5607 116.541 34.5607C119.952 34.5607 122.835 36.3099 122.835 39.9135V46.7356C122.835 47.6452 123.187 47.9601 123.925 47.9601ZM101.95 50.619L108.806 26.584H104.341L97.4843 50.619H101.95ZM92.7376 50.619L99.5939 26.584H95.1286L88.2723 50.619H92.7376ZM85.354 34.8755H80.6073V40.5432H85.354V34.8755ZM85.354 44.9863H80.6073V50.654H85.354V44.9863ZM77.2671 45.1263L73.6807 44.7764L72.9423 47.2254H67.8089L76.599 37.2546L76.2474 34.8755H62.3591L61.7965 40.4032L65.0664 40.7531L65.7696 38.3041H70.7272L62.0075 48.275L62.4646 50.654H76.2826L77.2671 45.1263ZM42.4934 42.9922C42.4934 38.3741 45.3063 34.5607 51.0023 34.5607C56.6982 34.5607 59.4759 38.3741 59.4759 42.7823C59.4759 47.8202 55.8192 51.0038 50.7561 51.0038C45.8688 51.0038 42.4934 48.0301 42.4934 42.9922ZM40.5245 47.1904H38.4851V40.0184C38.4851 36.275 35.8833 34.5607 33.0353 34.5607C30.5389 34.5607 28.7457 35.8551 27.8667 37.9543C27.0932 35.6452 24.9836 34.5607 22.6981 34.5607C20.483 34.5607 18.8305 35.5753 17.8812 37.2546V34.8755H11.2358V38.3041H13.3455V47.2254H11.2358V50.654H20.8698V47.2254H17.846V41.7327C17.846 39.5286 18.725 37.9892 20.9049 37.9892C22.6981 37.9892 23.6123 39.0388 23.6123 41.7677V50.654H30.2576V47.2254H28.148V41.7327C28.148 39.5286 29.027 37.9892 31.2069 37.9892C33.0001 37.9892 33.9143 39.0388 33.9143 41.7677V50.619H40.5245V47.1904Z" fill="#94A3B8"/>
</svg>
