<svg width="163" height="81" viewBox="0 0 163 81" fill="none" xmlns="http://www.w3.org/2000/svg">
<g clip-path="url(#clip0_2536_374)">
<path d="M15.0189 24.209H10.7896V28.4234H15.0189V24.209Z" fill="#94A3B8"/>
<path d="M15.0189 53.709H10.7896V57.9234H15.0189V53.709Z" fill="#94A3B8"/>
<path d="M10.7899 28.4238H6.56055V32.6376H10.7899V28.4238Z" fill="#94A3B8"/>
<path d="M10.7899 49.4941H6.56055V53.7085H10.7899V49.4941Z" fill="#94A3B8"/>
<path d="M6.56039 32.6367H2.33105V49.4942H6.56039V32.6367Z" fill="#94A3B8"/>
<path d="M58.7712 27.996V27.9734C58.7712 26.6311 57.7832 25.5125 56.3902 25.5125C54.9978 25.5125 54.0319 26.6085 54.0319 27.9521V27.9734C54.0319 29.317 55.0199 30.4362 56.4128 30.4362C57.8058 30.4362 58.7712 29.3383 58.7712 27.996ZM52.2241 27.996V27.9734C52.2241 25.7466 53.9872 23.9238 56.4134 23.9238C58.8385 23.9238 60.5795 25.7258 60.5795 27.9521V27.9734C60.5795 30.2015 58.8164 32.0254 56.3908 32.0254C53.9646 32.0254 52.2241 30.2228 52.2241 27.996Z" fill="#94A3B8"/>
<path d="M67.1838 28.0322C68.0482 28.0322 68.5529 27.5177 68.5529 26.8459V26.8228C68.5529 26.0511 68.0145 25.6377 67.1495 25.6377H65.8128V28.0322H67.1838ZM64.084 24.082H67.2957C69.1708 24.082 70.3056 25.1897 70.3056 26.7904V26.8118C70.3056 28.6259 68.89 29.5659 67.1275 29.5659H65.8128V31.9153H64.084V24.082Z" fill="#94A3B8"/>
<path d="M73.542 24.082H79.4712V25.6157H75.2604V27.2044H78.9659V28.7375H75.2604V30.3816H79.5275V31.9148H73.542V24.082Z" fill="#94A3B8"/>
<path d="M83.1523 24.082H84.7472L88.4294 28.9051V24.082H90.1363V31.9148H88.6656L84.8586 26.9356V31.9148H83.1523V24.082Z" fill="#94A3B8"/>
<path d="M55.4799 38.6068H53.0879V37.0176H59.6013V38.6068H57.2087V44.8515H55.4799V38.6068Z" fill="#94A3B8"/>
<path d="M63.2861 37.0176H69.2159V38.5513H65.0046V40.1411H68.71V41.673H65.0046V43.3183H69.2716V44.8515H63.2861V37.0176Z" fill="#94A3B8"/>
<path d="M72.5723 40.9567V40.933C72.5723 38.7067 74.2565 36.8828 76.6711 36.8828C78.1534 36.8828 79.041 37.3759 79.7708 38.0922L78.6697 39.3565C78.064 38.8091 77.4456 38.4726 76.66 38.4726C75.335 38.4726 74.3806 39.5687 74.3806 40.9128V40.9336C74.3806 42.2771 75.3123 43.3963 76.66 43.3963C77.5587 43.3963 78.1087 43.0385 78.7266 42.4783L79.8265 43.5871C79.0184 44.4479 78.1197 44.9855 76.6038 44.9855C74.2907 44.9849 72.5723 43.205 72.5723 40.9567Z" fill="#94A3B8"/>
<path d="M83.2837 37.0176H85.0131V40.1185H88.2023V37.0176H89.9323V44.8515H88.2023V41.7066H85.0131V44.8515H83.2837V37.0176Z" fill="#94A3B8"/>
<path d="M94.0571 37.0176H95.652L99.3354 41.8407V37.0176H101.042V44.8515H99.5709L95.7645 39.8723V44.8515H94.0571V37.0176Z" fill="#94A3B8"/>
<path d="M110.845 40.9567V40.933C110.845 39.5912 109.856 38.472 108.464 38.472C107.072 38.472 106.105 39.5681 106.105 40.9122V40.933C106.105 42.2765 107.094 43.3957 108.487 43.3957C109.878 43.3957 110.845 42.2991 110.845 40.9567ZM104.298 40.9567V40.933C104.298 38.7067 106.061 36.8828 108.487 36.8828C110.912 36.8828 112.652 38.6853 112.652 40.9122V40.933C112.652 43.161 110.89 44.9849 108.464 44.9849C106.038 44.9849 104.298 43.183 104.298 40.9567Z" fill="#94A3B8"/>
<path d="M116.068 37.0176H117.798V43.2848H121.717V44.8515H116.068V37.0176Z" fill="#94A3B8"/>
<path d="M130.672 40.9567V40.933C130.672 39.5912 129.684 38.472 128.291 38.472C126.899 38.472 125.933 39.5681 125.933 40.9122V40.933C125.933 42.2765 126.921 43.3957 128.314 43.3957C129.707 43.3957 130.672 42.2991 130.672 40.9567ZM124.125 40.9567V40.933C124.125 38.7067 125.889 36.8828 128.314 36.8828C130.74 36.8828 132.481 38.6853 132.481 40.9122V40.933C132.481 43.161 130.717 44.9849 128.292 44.9849C125.865 44.9849 124.125 43.183 124.125 40.9567Z" fill="#94A3B8"/>
<path d="M135.316 40.9567V40.933C135.316 38.7067 137.057 36.8828 139.438 36.8828C140.853 36.8828 141.706 37.2638 142.526 37.9564L141.437 39.2663C140.83 38.7634 140.291 38.472 139.382 38.472C138.124 38.472 137.124 39.5797 137.124 40.9122V40.933C137.124 42.3661 138.113 43.4177 139.505 43.4177C140.134 43.4177 140.696 43.261 141.134 42.9483V41.8285H139.393V40.341H142.807V43.7426C141.998 44.4253 140.886 44.9849 139.449 44.9849C137.001 44.9849 135.316 43.2726 135.316 40.9567Z" fill="#94A3B8"/>
<path d="M148.581 41.7632L145.56 37.0176H147.582L149.457 40.163L151.366 37.0176H153.331L150.31 41.7303V44.8515H148.581V41.7632Z" fill="#94A3B8"/>
<path d="M53.0869 49.9668H59.0718V51.5335H54.8158V53.2013H58.5671V54.7679H54.8158V57.8007H53.0869V49.9668Z" fill="#94A3B8"/>
<path d="M62.5 54.4431V49.9668H64.2289V54.3991C64.2289 55.6733 64.8688 56.334 65.9247 56.334C66.9805 56.334 67.6205 55.697 67.6205 54.4552V49.9668H69.3493V54.387C69.3493 56.7595 68.0132 57.9232 65.902 57.9232C63.7914 57.9232 62.5 56.7485 62.5 54.4431Z" fill="#94A3B8"/>
<path d="M72.8418 49.9668H74.4361L78.12 54.7905V49.9668H79.8263V57.8007H78.3556L74.5486 52.8197V57.8007H72.8418V49.9668Z" fill="#94A3B8"/>
<path d="M86.2368 56.2444C87.6518 56.2444 88.6068 55.2929 88.6068 53.9072V53.8829C88.6068 52.4972 87.6518 51.5219 86.2368 51.5219H84.9007V56.2444H86.2368ZM83.1719 49.9668H86.2374C88.7083 49.9668 90.4151 51.6577 90.4151 53.8615V53.8829C90.4151 56.0878 88.7083 57.8001 86.2374 57.8001H83.1719V49.9668Z" fill="#94A3B8"/>
<path d="M31.9365 24.209H27.7065V28.4234H31.9365V24.209Z" fill="#94A3B8"/>
<path d="M36.1659 49.4961H31.9365V53.7105H36.1659V49.4961Z" fill="#94A3B8"/>
<path d="M31.9365 53.7109H27.7065V57.9247H31.9365V53.7109Z" fill="#94A3B8"/>
<path d="M36.1659 28.4238H31.9365V32.6382H36.1659V28.4238Z" fill="#94A3B8"/>
<path d="M40.3944 32.6387H36.165V49.4962H40.3944V32.6387Z" fill="#94A3B8"/>
</g>
<defs>
<clipPath id="clip0_2536_374">
<rect width="151" height="34" fill="white" transform="translate(2.33105 23.9238)"/>
</clipPath>
</defs>
</svg>
