<svg width="120" height="40" viewBox="0 0 120 40" fill="none" xmlns="http://www.w3.org/2000/svg">
<path d="M9.94712 39.9998L17.1664 19.6772C11.0701 20.4837 5.45514 23.0643 0.802734 26.9353C1.92573 32.2579 5.29471 36.9353 9.94712 39.9998Z" fill="black"/>
<path d="M33.2092 39.9998C37.8616 37.0966 41.2306 32.4192 42.514 26.9353C37.8616 22.9031 32.2466 20.3224 26.1504 19.6772L33.2092 39.9998Z" fill="black"/>
<path d="M43.1551 22.7419V21.7742C43.1551 9.67742 33.5294 0 21.6578 0C9.78609 0 0 9.67742 0 21.7742V22.7419C6.25668 18.0645 13.7968 15.4839 21.6578 15.4839C29.3583 15.4839 36.8984 18.0645 43.1551 22.7419Z" fill="black"/>
<path d="M70.1075 32.2578C68.5032 34.3546 65.9364 35.4837 63.2091 35.3224C58.2359 35.3224 53.9043 32.4191 53.9043 24.3546V8.22559H60.0006V23.3869C60.0006 27.7417 61.9257 29.5159 64.9738 29.5159C68.0219 29.5159 70.2679 27.903 70.2679 23.3869V8.54817H76.3642V34.9998H70.2679L70.1075 32.2578Z" fill="black"/>
<path d="M81.3359 8.5485H87.4322V11.2904C88.3948 9.19366 90.4803 7.74204 92.8867 7.90333C94.6515 7.90333 96.4162 8.54849 97.86 9.67753L97.0579 15.1614C95.7744 14.1937 94.1702 13.7098 92.5659 13.8711C90.3199 13.8711 87.5926 15.1614 87.5926 20.1614V35.0001H81.4964V8.5485H81.3359Z" fill="black"/>
<path d="M114.063 32.742C112.299 34.5162 109.732 35.6452 107.005 35.4839C101.55 35.4839 97.3789 32.4194 97.3789 26.6129C97.3789 20.4839 102.513 17.742 107.646 17.742C109.892 17.5807 111.978 18.0645 113.903 19.0323V17.742C113.903 14.3549 112.299 12.9033 108.769 12.9033C105.882 12.9033 103.154 13.7097 100.908 15.4839L98.9832 10.4839C102.031 8.54841 105.721 7.41938 109.251 7.58067C113.903 7.58067 119.678 8.7097 119.678 17.5807V34.6774H113.903L114.063 32.742ZM114.063 27.742V24.1936C112.459 23.5484 110.694 23.0645 108.93 23.2258C105.882 23.2258 103.475 24.1936 103.475 26.7742C103.475 28.871 105.079 30.1613 108.288 30.1613C110.374 30.1613 112.459 29.3549 114.063 27.742Z" fill="black"/>
</svg>
