<svg width="401" height="113" viewBox="0 0 401 113" fill="none" xmlns="http://www.w3.org/2000/svg">
<path d="M0 78.5487V24.9456H25.6125C29.2539 24.9456 32.2555 25.5338 34.6175 26.7103C37.0287 27.8377 38.8493 29.4309 40.0795 31.4897C41.3097 33.5485 41.9248 35.9505 41.9248 38.6956C41.9248 40.5583 41.605 42.2986 40.9653 43.9162C40.3256 45.5339 39.3906 46.9064 38.1604 48.0339C36.9302 49.1613 35.4048 49.9701 33.5841 50.4603V50.975C35.7493 51.3672 37.5453 52.176 38.9724 53.4015C40.3994 54.578 41.4819 56.0241 42.2201 57.7398C43.0074 59.4064 43.401 61.2692 43.401 63.328C43.401 66.6124 42.6383 69.4065 41.1129 71.7104C39.6367 73.9653 37.4961 75.681 34.6913 76.8575C31.8865 77.9849 28.4912 78.5487 24.5053 78.5487H0ZM9.44785 70.9751H23.472C26.9165 70.9751 29.4261 70.2153 31.0007 68.6957C32.6246 67.1761 33.4365 65.1908 33.4365 62.7398C33.4365 60.0927 32.6 58.1074 30.9269 56.7839C29.3031 55.4604 27.0395 54.7986 24.1363 54.7986H9.44785V70.9751ZM9.44785 47.5192H23.6934C25.6125 47.5192 27.1872 47.2005 28.4173 46.5633C29.6475 45.926 30.5579 45.0682 31.1484 43.9897C31.7881 42.8623 32.1079 41.5387 32.1079 40.0191C32.1079 37.5681 31.296 35.7054 29.6721 34.4309C28.0483 33.1073 25.8586 32.4456 23.1029 32.4456H9.44785V47.5192Z" fill="white"/>
<path d="M48.1238 78.5487V39.4309H56.4645L56.9073 45.975H57.2026C58.0883 43.475 59.5153 41.6858 61.4836 40.6074C63.5012 39.4799 65.7893 38.9162 68.3481 38.9162C68.791 38.9162 69.1846 38.9162 69.5291 38.9162C69.9227 38.9162 70.2918 38.9162 70.6363 38.9162V47.5927C70.341 47.5927 69.9719 47.5927 69.5291 47.5927C69.1354 47.5437 68.6926 47.5192 68.2005 47.5192C65.8385 47.5192 63.8702 47.9113 62.2956 48.6956C60.7209 49.4309 59.5153 50.5094 58.6788 51.9309C57.8915 53.3525 57.4486 55.0927 57.3502 57.1515V78.5487H48.1238Z" fill="white"/>
<path d="M73.7156 78.5487V39.4309H82.942V78.5487H73.7156Z" fill="white"/>
<path d="M103.297 79.2104C100.935 79.2104 98.7695 78.7938 96.8012 77.9604C94.8821 77.0781 93.2091 75.779 91.782 74.0634C90.4042 72.3477 89.3463 70.2398 88.6081 67.7398C87.87 65.1908 87.501 62.2741 87.501 58.9898C87.501 54.529 88.1407 50.8035 89.4201 47.8133C90.7487 44.774 92.594 42.4946 94.9559 40.975C97.3671 39.4554 100.147 38.6956 103.297 38.6956C105.462 38.6956 107.381 39.0387 109.054 39.725C110.776 40.3623 112.252 41.2691 113.483 42.4456C114.713 43.6221 115.648 45.0192 116.287 46.6368H116.804V24.9456H126.03L125.957 78.5487H117.099L116.804 71.2692H116.287C115.352 73.6712 113.753 75.6075 111.49 77.0781C109.226 78.4996 106.495 79.2104 103.297 79.2104ZM106.766 71.7104C108.98 71.7104 110.801 71.1957 112.228 70.1663C113.704 69.1369 114.811 67.8133 115.549 66.1957C116.287 64.529 116.656 62.7888 116.656 60.9751V56.931C116.656 55.5094 116.435 54.1613 115.992 52.8868C115.598 51.6123 114.983 50.4849 114.147 49.5045C113.36 48.475 112.326 47.6662 111.047 47.078C109.817 46.4897 108.39 46.1956 106.766 46.1956C104.797 46.1956 103.075 46.6613 101.599 47.5927C100.123 48.5241 98.9663 49.9456 98.1298 51.8574C97.2933 53.7202 96.875 56.0976 96.875 58.9898C96.875 61.7839 97.2933 64.1369 98.1298 66.0486C98.9663 67.9604 100.123 69.382 101.599 70.3133C103.075 71.2447 104.797 71.7104 106.766 71.7104Z" fill="white"/>
<path d="M148.989 91.5634C145.692 91.5634 142.838 91.0732 140.427 90.0928C138.016 89.1614 136.097 87.8134 134.67 86.0487C133.292 84.333 132.505 82.3232 132.308 80.0193H141.165C141.362 80.9997 141.805 81.8575 142.494 82.5928C143.232 83.3281 144.167 83.8918 145.299 84.284C146.43 84.7252 147.734 84.9457 149.211 84.9457C151.425 84.9457 153.246 84.6271 154.673 83.9899C156.149 83.3526 157.231 82.3722 157.92 81.0487C158.659 79.7251 159.028 78.0094 159.028 75.9016V68.6957H158.511C157.674 70.9506 156.149 72.7888 153.935 74.2104C151.72 75.583 149.112 76.2692 146.111 76.2692C143.749 76.2692 141.608 75.8526 139.689 75.0192C137.819 74.1859 136.195 72.9849 134.817 71.4163C133.44 69.7986 132.382 67.8378 131.644 65.5339C130.905 63.181 130.536 60.4849 130.536 57.4457C130.536 53.377 131.176 49.9701 132.456 47.225C133.784 44.4309 135.629 42.3231 137.991 40.9015C140.353 39.4309 143.109 38.6956 146.258 38.6956C149.211 38.6956 151.769 39.3819 153.935 40.7544C156.149 42.127 157.674 43.9162 158.511 46.1221H159.028L159.323 39.4309H168.254V74.431C168.254 77.5683 167.787 80.2153 166.852 82.3722C165.966 84.5781 164.662 86.3428 162.94 87.6663C161.217 89.0389 159.175 90.0193 156.813 90.6075C154.5 91.2448 151.892 91.5634 148.989 91.5634ZM149.432 69.1369C151.499 69.1369 153.221 68.6957 154.599 67.8133C156.026 66.882 157.108 65.7055 157.847 64.2839C158.585 62.8133 158.978 61.3182 159.028 59.7986V55.0927C158.978 53.5241 158.585 52.0535 157.847 50.6809C157.108 49.2594 156.051 48.1074 154.673 47.225C153.295 46.2937 151.573 45.828 149.506 45.828C147.587 45.828 145.889 46.2692 144.413 47.1515C142.986 48.0339 141.879 49.3329 141.091 51.0486C140.304 52.7643 139.91 54.8966 139.91 57.4457C139.91 60.0437 140.304 62.2251 141.091 63.9898C141.928 65.7055 143.06 67.0045 144.487 67.8869C145.914 68.7202 147.562 69.1369 149.432 69.1369Z" fill="white"/>
<path d="M191.251 79.2104C187.216 79.2104 183.771 78.3771 180.917 76.7104C178.063 75.0438 175.849 72.7153 174.274 69.7251C172.749 66.7349 171.986 63.23 171.986 59.2104C171.986 55.0437 172.749 51.4407 174.274 48.4015C175.8 45.3133 177.989 42.9358 180.843 41.2691C183.697 39.5534 187.044 38.6956 190.882 38.6956C195.36 38.6956 199.026 39.676 201.88 41.6368C204.734 43.5976 206.776 46.2446 208.006 49.578C209.285 52.9113 209.704 56.7104 209.261 60.9751H181.065C181.065 63.328 181.483 65.3378 182.32 67.0045C183.205 68.6712 184.411 69.9457 185.936 70.8281C187.462 71.7104 189.233 72.1516 191.251 72.1516C193.613 72.1516 195.606 71.6369 197.23 70.6075C198.853 69.529 199.887 68.1075 200.33 66.3427H209.113C208.769 68.8918 207.785 71.1467 206.161 73.1075C204.537 75.0192 202.446 76.5143 199.887 77.5928C197.328 78.6712 194.449 79.2104 191.251 79.2104ZM181.065 55.9751L180.253 54.7986H201.142L200.256 55.9751C200.354 53.6221 199.985 51.7103 199.149 50.2398C198.361 48.7201 197.23 47.5927 195.753 46.8574C194.326 46.1221 192.702 45.7544 190.882 45.7544C188.913 45.7544 187.191 46.1711 185.715 47.0044C184.288 47.8378 183.156 49.0143 182.32 50.5339C181.532 52.0535 181.114 53.8672 181.065 55.9751Z" fill="white"/>
<path d="M78.3383 1.5066C78.513 1.04051 79.2296 1.04051 79.4043 1.5066C80.2782 3.83862 82.1517 8.29279 84.4605 10.5928C86.7694 12.8928 91.2406 14.7592 93.5816 15.6298C94.0494 15.8038 94.0494 16.5177 93.5816 16.6917C91.2406 17.5623 86.7694 19.4287 84.4605 21.7287C82.1517 24.0287 80.2782 28.4829 79.4043 30.8149C79.2296 31.281 78.513 31.281 78.3383 30.8149C77.4644 28.4829 75.5908 24.0287 73.282 21.7287C70.9732 19.4287 66.5019 17.5623 64.161 16.6917C63.6931 16.5177 63.6931 15.8038 64.161 15.6298C66.5019 14.7592 70.9732 12.8928 73.282 10.5928C75.5908 8.29279 77.4644 3.83862 78.3383 1.5066Z" fill="#1F78D1"/>
<path d="M235.627 79.2102C233.462 79.2102 231.469 78.8671 229.648 78.1808C227.877 77.4945 226.376 76.5386 225.146 75.3131C223.916 74.0386 222.981 72.568 222.341 70.9013H221.898L221.603 78.5484H214.296V24.9453H221.898V47.2983H222.341C223.276 44.7983 224.9 42.7885 227.213 41.2689C229.525 39.7493 232.33 38.9895 235.627 38.9895C237.989 38.9895 240.13 39.4307 242.049 40.313C244.017 41.1954 245.715 42.4944 247.142 44.2101C248.569 45.9258 249.651 48.0336 250.389 50.5336C251.177 53.0336 251.57 55.9013 251.57 59.1366C251.57 63.4503 250.882 67.1023 249.504 70.0925C248.175 73.0827 246.305 75.3621 243.894 76.9308C241.532 78.4504 238.776 79.2102 235.627 79.2102ZM232.97 72.9602C235.135 72.9602 237.03 72.4455 238.653 71.416C240.277 70.3866 241.532 68.8425 242.418 66.7837C243.304 64.7249 243.746 62.1758 243.746 59.1366C243.746 56.8327 243.476 54.8229 242.935 53.1072C242.442 51.3425 241.729 49.8964 240.794 48.7689C239.859 47.5924 238.727 46.7101 237.399 46.1219C236.07 45.5336 234.594 45.2395 232.97 45.2395C230.559 45.2395 228.517 45.8032 226.844 46.9307C225.22 48.0091 223.99 49.4552 223.153 51.2689C222.366 53.0336 221.972 54.9209 221.972 56.9307V61.269C221.972 63.2788 222.366 65.1905 223.153 67.0043C223.99 68.769 225.22 70.2151 226.844 71.3425C228.517 72.421 230.559 72.9602 232.97 72.9602Z" fill="#1F78D1"/>
<path d="M273.57 79.2102C269.682 79.2102 266.312 78.4014 263.457 76.7837C260.653 75.117 258.488 72.7886 256.962 69.7984C255.437 66.7592 254.674 63.2543 254.674 59.2837C254.674 55.166 255.437 51.5876 256.962 48.5483C258.488 45.5091 260.628 43.1807 263.384 41.563C266.189 39.8963 269.485 39.063 273.274 39.063C277.555 39.063 281.074 40.0189 283.829 41.9307C286.634 43.7934 288.652 46.3669 289.882 49.6513C291.112 52.8866 291.53 56.5385 291.137 60.6072H262.203C262.252 63.2543 262.744 65.5337 263.679 67.4454C264.614 69.3082 265.918 70.7298 267.591 71.7102C269.313 72.6906 271.306 73.1808 273.57 73.1808C276.178 73.1808 278.392 72.5925 280.213 71.416C282.033 70.1906 283.19 68.5729 283.682 66.5631H290.915C290.571 69.1121 289.611 71.3425 288.037 73.2543C286.462 75.117 284.42 76.5876 281.91 77.6661C279.45 78.6955 276.67 79.2102 273.57 79.2102ZM262.277 56.3425L261.538 55.2395H284.42L283.682 56.4895C283.78 53.7934 283.362 51.6121 282.427 49.9454C281.541 48.2297 280.286 46.9797 278.663 46.1954C277.088 45.4111 275.267 45.0189 273.201 45.0189C271.035 45.0189 269.141 45.4846 267.517 46.416C265.893 47.2983 264.638 48.5973 263.753 50.313C262.867 52.0287 262.375 54.0385 262.277 56.3425Z" fill="#1F78D1"/>
<path d="M310.409 79.2102C308.047 79.2102 305.882 78.769 303.914 77.8867C301.994 77.0043 300.321 75.7298 298.894 74.0631C297.467 72.3474 296.36 70.2396 295.573 67.7396C294.835 65.2396 294.466 62.3474 294.466 59.0631C294.466 54.7493 295.13 51.0974 296.459 48.1071C297.836 45.1169 299.706 42.862 302.068 41.3424C304.479 39.7738 307.26 38.9895 310.409 38.9895C312.574 38.9895 314.542 39.3326 316.314 40.0189C318.135 40.7052 319.66 41.6856 320.89 42.9601C322.17 44.1856 323.105 45.6317 323.695 47.2983H324.138L324.433 39.6512H331.74V78.5484H324.138V70.8278H323.695C322.76 73.3278 321.136 75.3621 318.823 76.9308C316.511 78.4504 313.706 79.2102 310.409 79.2102ZM313.066 72.9602C315.477 72.9602 317.495 72.3964 319.119 71.269C320.743 70.1415 321.973 68.6955 322.809 66.9307C323.646 65.166 324.064 63.2788 324.064 61.269V56.8572C324.064 54.8474 323.646 52.9601 322.809 51.1954C321.973 49.4307 320.743 47.9846 319.119 46.8571C317.495 45.7297 315.477 45.166 313.066 45.166C310.901 45.166 309.007 45.7052 307.383 46.7836C305.759 47.813 304.504 49.3572 303.618 51.416C302.733 53.4258 302.29 55.9748 302.29 59.0631C302.29 62.1023 302.733 64.6513 303.618 66.7102C304.504 68.769 305.759 70.3376 307.383 71.416C309.007 72.4455 310.901 72.9602 313.066 72.9602Z" fill="#1F78D1"/>
<path d="M339.438 78.5484V39.6512H346.671L346.966 47.3719H347.409C348.492 44.6267 350.189 42.5679 352.502 41.1954C354.864 39.7738 357.472 39.063 360.326 39.063C363.18 39.063 365.739 39.7493 368.003 41.1218C370.315 42.4944 371.964 44.8473 372.948 48.1807H373.538C374.621 45.1415 376.392 42.862 378.853 41.3424C381.362 39.8228 384.167 39.063 387.267 39.063C389.826 39.063 392.114 39.6022 394.132 40.6807C396.198 41.7591 397.822 43.4993 399.003 45.9013C400.184 48.3032 400.775 51.4895 400.775 55.4601V78.5484H393.246V57.0042C393.246 54.3572 392.926 52.1758 392.286 50.4601C391.647 48.6954 390.687 47.3964 389.408 46.563C388.128 45.7297 386.455 45.313 384.389 45.313C382.273 45.313 380.427 45.8522 378.853 46.9307C377.278 48.0091 376.048 49.4552 375.162 51.2689C374.326 53.0336 373.907 55.0434 373.907 57.2984V78.5484H366.305V57.0042C366.305 54.3572 365.985 52.1758 365.345 50.4601C364.706 48.6954 363.746 47.3964 362.467 46.563C361.187 45.7297 359.539 45.313 357.521 45.313C355.356 45.313 353.486 45.8522 351.912 46.9307C350.337 48.0091 349.107 49.4552 348.221 51.2689C347.385 53.0336 346.966 55.0434 346.966 57.2984V78.5484H339.438Z" fill="#1F78D1"/>
</svg>
