<svg width="1200" height="302" viewBox="0 0 1200 302" fill="none" xmlns="http://www.w3.org/2000/svg">
<g clip-path="url(#clip0_1_14)">
<path d="M191.1 108.03C165.6 108.03 145 128.63 145 154.13C145 174.53 158.2 191.83 176.5 197.93C178.8 198.33 179.7 196.93 179.7 195.73C179.7 194.63 179.6 191.03 179.6 187.13C168 189.23 165 184.33 164.1 181.73C163.6 180.43 161.3 176.33 159.4 175.23C157.8 174.33 155.5 172.23 159.3 172.13C162.9 172.03 165.5 175.43 166.4 176.83C170.6 183.83 177.2 181.83 179.8 180.63C180.2 177.63 181.4 175.63 182.7 174.43C172.4 173.23 161.7 169.33 161.7 151.63C161.7 146.63 163.5 142.43 166.4 139.23C165.9 138.03 164.3 133.33 166.9 127.03C166.9 127.03 170.8 125.83 179.6 131.73C183.3 130.73 187.2 130.13 191.1 130.13C195 130.13 198.9 130.63 202.6 131.73C211.4 125.73 215.3 127.03 215.3 127.03C217.8 133.33 216.2 138.13 215.8 139.23C218.7 142.43 220.5 146.53 220.5 151.63C220.5 169.33 209.7 173.23 199.4 174.43C201.1 175.83 202.5 178.63 202.5 182.93C202.5 189.13 202.4 194.03 202.4 195.63C202.4 196.83 203.3 198.33 205.6 197.83C223.8 191.73 237 174.43 237 154.03C237.3 128.63 216.6 108.03 191.1 108.03Z" fill="#1B1F24"/>
<path d="M366.6 175.13H366.5C366.6 175.13 366.6 175.13 366.6 175.13ZM366.6 175.13C366.1 175.13 364.8 175.43 363.4 175.43C359 175.43 357.5 173.43 357.5 170.83V153.33H366.4C366.9 153.33 367.3 152.93 367.3 152.23V142.73C367.3 142.23 366.9 141.83 366.4 141.83H357.5V130.13C357.5 129.73 357.2 129.43 356.7 129.43H344.7C344.2 129.43 343.9 129.73 343.9 130.13V142.23C343.9 142.23 337.8 143.73 337.4 143.83C337 143.93 336.7 144.33 336.7 144.73V152.33C336.7 152.93 337.1 153.43 337.6 153.43H343.8V171.73C343.8 185.33 353.3 186.73 359.8 186.73C362.8 186.73 366.3 185.83 366.9 185.53C367.2 185.43 367.4 185.03 367.4 184.63V176.23C367.5 175.63 367.1 175.23 366.6 175.13ZM498.8 162.93C498.8 152.83 494.7 151.53 490.4 151.93C487.1 152.13 484.4 153.83 484.4 153.83V173.43C484.4 173.43 487.1 175.33 491.2 175.43C497 175.63 498.8 173.53 498.8 162.93ZM512.4 162.03C512.4 181.13 506.2 186.63 495.4 186.63C486.3 186.63 481.3 182.03 481.3 182.03C481.3 182.03 481.1 184.63 480.8 184.93C480.6 185.23 480.4 185.33 480 185.33H471.7C471.1 185.33 470.6 184.93 470.6 184.43L470.7 122.43C470.7 121.93 471.1 121.53 471.6 121.53H483.5C484 121.53 484.4 121.93 484.4 122.43L484.3 143.33C484.3 143.33 488.9 140.33 495.6 140.33H495.7C502.5 140.33 512.4 142.83 512.4 162.03ZM463.7 141.83H452C451.4 141.83 451.1 142.23 451.1 142.93V173.23C451.1 173.23 448 175.43 443.8 175.43C439.6 175.43 438.4 173.53 438.4 169.33V142.83C438.4 142.33 438 141.93 437.5 141.93H425.6C425.1 141.93 424.7 142.33 424.7 142.83V171.33C424.7 183.63 431.6 186.63 441 186.63C448.8 186.63 455.1 182.33 455.1 182.33C455.1 182.33 455.4 184.53 455.5 184.83C455.6 185.13 456 185.33 456.4 185.33H463.9C464.5 185.33 464.8 184.93 464.8 184.43L464.9 142.73C464.8 142.33 464.3 141.83 463.7 141.83ZM331.5 141.83H319.6C319.1 141.83 318.7 142.33 318.7 142.93V183.83C318.7 184.93 319.4 185.33 320.4 185.33H331.1C332.2 185.33 332.5 184.83 332.5 183.83V142.73C332.5 142.23 332 141.83 331.5 141.83ZM325.7 122.93C321.4 122.93 318 126.33 318 130.63C318 134.93 321.4 138.33 325.7 138.33C329.9 138.33 333.3 134.93 333.3 130.63C333.3 126.33 329.9 122.93 325.7 122.93ZM417.7 121.53H405.9C405.4 121.53 405 121.93 405 122.43V145.23H386.5V122.53C386.5 122.03 386.1 121.63 385.6 121.63H373.7C373.2 121.63 372.8 122.03 372.8 122.53V184.53C372.8 185.03 373.3 185.43 373.7 185.43H385.6C386.1 185.43 386.5 185.03 386.5 184.53V157.93H405L404.9 184.43C404.9 184.93 405.3 185.33 405.8 185.33H417.7C418.2 185.33 418.6 184.93 418.6 184.43V122.43C418.6 122.03 418.2 121.53 417.7 121.53ZM312.4 149.03V181.03C312.4 181.23 312.3 181.63 312.1 181.73C312.1 181.73 305.1 186.73 293.6 186.73C279.7 186.73 263.3 182.33 263.3 153.73C263.3 125.03 277.7 119.13 291.7 119.23C303.9 119.23 308.8 121.93 309.5 122.43C309.7 122.73 309.8 122.93 309.8 123.23L307.5 133.13C307.5 133.63 307 134.23 306.4 134.03C304.4 133.43 301.4 132.23 294.3 132.23C286.1 132.23 277.3 134.53 277.3 153.03C277.3 171.53 285.7 173.63 291.7 173.63C296.8 173.63 298.7 173.03 298.7 173.03V160.23H290.5C289.9 160.23 289.4 159.83 289.4 159.33V149.03C289.4 148.53 289.8 148.13 290.5 148.13H311.4C312 148.03 312.4 148.53 312.4 149.03Z" fill="#1B1F24"/>
</g>
<path d="M626.591 126.581V179.378" stroke="black" stroke-width="2"/>
<path d="M652.989 152.98L600.193 152.98" stroke="black" stroke-width="2"/>
<path d="M887.602 185.926C897.492 185.926 900.477 184.431 905.889 177.7C905.889 181.624 909.063 184.805 912.98 184.805H920.07V125.167H905.142V158.444C905.142 168.166 900.104 173.774 892.267 173.774C884.989 173.774 882.19 169.661 882.19 161.622V125.167H867.262V164.614C867.448 179.009 874.166 185.926 887.602 185.926Z" fill="#1F78D1"/>
<path d="M979.768 124.048L970.141 124.048L965.258 136.177C965.258 136.177 991.33 133.325 991.33 143.047V144.355C991.144 147.16 989.278 148.655 983.679 149.029L973.416 150.151C958.488 151.273 952.89 158.564 952.89 167.724C952.89 178.755 960.354 185.859 974.349 185.859C984.053 185.859 988.158 184.737 991.33 178.755C991.517 178.568 991.703 178.194 991.89 177.82C991.89 181.64 994.981 184.737 998.794 184.737H1006.07V145.664C1006.26 133.512 998.055 124.235 979.768 124.048ZM991.33 159.686C991.33 168.285 986.105 175.39 976.962 175.39C969.311 175.39 965.952 171.837 965.952 166.416C965.952 162.116 968.938 158.938 976.402 158.377L983.493 157.816C987.598 157.442 990.211 156.694 991.33 155.573V159.686Z" fill="#1F78D1"/>
<path d="M962.989 124.048H959.374C951.163 124.048 945.109 128.336 942.683 135.066V125.158H928.501V176.693C928.501 181.168 932.122 184.796 936.589 184.796H943.429V152.64C943.429 140.106 949.215 136.188 958.123 136.188L962.989 124.048Z" fill="#1F78D1"/>
<path d="M764.03 198L781.051 150.168C766.728 152.04 753.651 158.071 742.649 167.221C745.348 179.907 753.236 190.721 764.03 198Z" fill="#1F78D1"/>
<path d="M818.623 198C829.625 191.137 837.513 180.115 840.419 167.221C829.417 157.655 816.34 151.624 802.017 150.168L818.623 198Z" fill="#1F78D1"/>
<path d="M842.079 157.447V155.159C842.079 126.668 819.453 104 791.638 104C763.823 104 740.782 126.668 740.782 155.159V157.447C755.52 146.425 773.164 140.394 791.638 140.394C809.697 140.394 827.341 146.425 842.079 157.447Z" fill="#1F78D1"/>
<defs>
<clipPath id="clip0_1_14">
<rect width="367.4" height="90" fill="white" transform="translate(145 108.03)"/>
</clipPath>
</defs>
</svg>
