<?xml version="1.0" encoding="UTF-8" standalone="no"?>
<svg version="1.2" viewBox="0 0 200 100" width="200" height="100" id="svg2" sodipodi:docname="github.svg" inkscape:version="1.4 (e7c3feb1, 2024-10-09)" inkscape:export-filename="github.webp" inkscape:export-xdpi="96" inkscape:export-ydpi="96" xmlns:inkscape="http://www.inkscape.org/namespaces/inkscape" xmlns:sodipodi="http://sodipodi.sourceforge.net/DTD/sodipodi-0.dtd" xmlns="http://www.w3.org/2000/svg" xmlns:svg="http://www.w3.org/2000/svg" xmlns:rdf="http://www.w3.org/1999/02/22-rdf-syntax-ns#" xmlns:cc="http://creativecommons.org/ns#" xmlns:dc="http://purl.org/dc/elements/1.1/">
  <defs id="defs2"/>
  <sodipodi:namedview id="namedview2" pagecolor="#ffffff" bordercolor="#000000" borderopacity="0.25" inkscape:showpageshadow="2" inkscape:pageopacity="0.0" inkscape:pagecheckerboard="0" inkscape:deskcolor="#d1d1d1" showgrid="false" inkscape:zoom="1" inkscape:cx="171" inkscape:cy="24" inkscape:window-width="1800" inkscape:window-height="1035" inkscape:window-x="0" inkscape:window-y="44" inkscape:window-maximized="1" inkscape:current-layer="svg2"/>
  <title id="title1">github</title>
  <style id="style1">
		.s0 { fill: #94a3b8 } 
	</style>
  <g id="g2" transform="matrix(0.33084614,0,0,0.33084614,39.223564,35.116936)">
    <path class="s0" d="M 46.1,0 C 20.6,0 0,20.6 0,46.1 c 0,20.4 13.2,37.7 31.5,43.8 2.3,0.4 3.2,-1 3.2,-2.2 0,-1.1 -0.1,-4.7 -0.1,-8.6 C 23,81.2 20,76.3 19.1,73.7 c -0.5,-1.3 -2.8,-5.4 -4.7,-6.5 -1.6,-0.9 -3.9,-3 -0.1,-3.1 3.6,-0.1 6.2,3.3 7.1,4.7 4.2,7 10.8,5 13.4,3.8 0.4,-3 1.6,-5 2.9,-6.2 -10.3,-1.2 -21,-5.1 -21,-22.8 0,-5 1.8,-9.2 4.7,-12.4 -0.5,-1.2 -2.1,-5.9 0.5,-12.2 0,0 3.9,-1.2 12.7,4.7 3.7,-1 7.6,-1.6 11.5,-1.6 3.9,0 7.8,0.5 11.5,1.6 8.8,-6 12.7,-4.7 12.7,-4.7 2.5,6.3 0.9,11.1 0.5,12.2 2.9,3.2 4.7,7.3 4.7,12.4 0,17.7 -10.8,21.6 -21.1,22.8 1.7,1.4 3.1,4.2 3.1,8.5 0,6.2 -0.1,11.1 -0.1,12.7 0,1.2 0.9,2.7 3.2,2.2 C 78.8,83.7 92,66.4 92,46 92.3,20.6 71.6,0 46.1,0 Z" id="path1"/>
    <path class="s0" d="m 221.6,67.1 c -0.5,0 -1.8,0.3 -3.2,0.3 -4.4,0 -5.9,-2 -5.9,-4.6 V 45.3 h 8.9 c 0.5,0 0.9,-0.4 0.9,-1.1 v -9.5 c 0,-0.5 -0.4,-0.9 -0.9,-0.9 h -8.9 V 22.1 c 0,-0.4 -0.3,-0.7 -0.8,-0.7 h -12 c -0.5,0 -0.8,0.3 -0.8,0.7 v 12.1 c 0,0 -6.1,1.5 -6.5,1.6 -0.4,0.1 -0.7,0.5 -0.7,0.9 v 7.6 c 0,0.6 0.4,1.1 0.9,1.1 h 6.2 v 18.3 c 0,13.6 9.5,15 16,15 3,0 6.5,-0.9 7.1,-1.2 0.3,-0.1 0.5,-0.5 0.5,-0.9 v -8.4 c 0.1,-0.6 -0.3,-1 -0.8,-1.1 z m 0,0 h -0.1 z M 367.4,54 c 0,19.1 -6.2,24.6 -17,24.6 -9.1,0 -14.1,-4.6 -14.1,-4.6 0,0 -0.2,2.6 -0.5,2.9 -0.2,0.3 -0.4,0.4 -0.8,0.4 h -8.3 c -0.6,0 -1.1,-0.4 -1.1,-0.9 l 0.1,-62 c 0,-0.5 0.4,-0.9 0.9,-0.9 h 11.9 c 0.5,0 0.9,0.4 0.9,0.9 l -0.1,20.9 c 0,0 4.6,-3 11.3,-3 h 0.1 c 6.8,0 16.7,2.5 16.7,21.7 z m -13.6,0.9 c 0,-10.1 -4.1,-11.4 -8.4,-11 -3.3,0.2 -6,1.9 -6,1.9 v 19.6 c 0,0 2.7,1.9 6.8,2 5.8,0.2 7.6,-1.9 7.6,-12.5 z M 318.7,33.8 H 307 c -0.6,0 -0.9,0.4 -0.9,1.1 v 30.3 c 0,0 -3.1,2.2 -7.3,2.2 -4.2,0 -5.4,-1.9 -5.4,-6.1 V 34.8 c 0,-0.5 -0.4,-0.9 -0.9,-0.9 h -11.9 c -0.5,0 -0.9,0.4 -0.9,0.9 v 28.5 c 0,12.3 6.9,15.3 16.3,15.3 7.8,0 14.1,-4.3 14.1,-4.3 0,0 0.3,2.2 0.4,2.5 0.1,0.3 0.5,0.5 0.9,0.5 h 7.5 c 0.6,0 0.9,-0.4 0.9,-0.9 l 0.1,-41.7 c -0.1,-0.4 -0.6,-0.9 -1.2,-0.9 z m -132.2,0 h -11.9 c -0.5,0 -0.9,0.5 -0.9,1.1 v 40.9 c 0,1.1 0.7,1.5 1.7,1.5 h 10.7 c 1.1,0 1.4,-0.5 1.4,-1.5 V 34.7 c 0,-0.5 -0.5,-0.9 -1,-0.9 z m -5.8,-18.9 c -4.3,0 -7.7,3.4 -7.7,7.7 0,4.3 3.4,7.7 7.7,7.7 4.2,0 7.6,-3.4 7.6,-7.7 0,-4.3 -3.4,-7.7 -7.6,-7.7 z m 92,-1.4 h -11.8 c -0.5,0 -0.9,0.4 -0.9,0.9 V 37.2 H 241.5 V 14.5 c 0,-0.5 -0.4,-0.9 -0.9,-0.9 h -11.9 c -0.5,0 -0.9,0.4 -0.9,0.9 v 62 c 0,0.5 0.5,0.9 0.9,0.9 h 11.9 c 0.5,0 0.9,-0.4 0.9,-0.9 V 49.9 H 260 l -0.1,26.5 c 0,0.5 0.4,0.9 0.9,0.9 h 11.9 c 0.5,0 0.9,-0.4 0.9,-0.9 v -62 c 0,-0.4 -0.4,-0.9 -0.9,-0.9 z M 167.4,41 v 32 c 0,0.2 -0.1,0.6 -0.3,0.7 0,0 -7,5 -18.5,5 -13.9,0 -30.3,-4.4 -30.3,-33 0,-28.7 14.4,-34.6 28.4,-34.5 12.2,0 17.1,2.7 17.8,3.2 0.2,0.3 0.3,0.5 0.3,0.8 l -2.3,9.9 c 0,0.5 -0.5,1.1 -1.1,0.9 -2,-0.6 -5,-1.8 -12.1,-1.8 -8.2,0 -17,2.3 -17,20.8 0,18.5 8.4,20.6 14.4,20.6 5.1,0 7,-0.6 7,-0.6 V 52.2 h -8.2 c -0.6,0 -1.1,-0.4 -1.1,-0.9 V 41 c 0,-0.5 0.4,-0.9 1.1,-0.9 h 20.9 c 0.6,-0.1 1,0.4 1,0.9 z" id="path2"/>
  </g>
  <metadata id="metadata2">
    <rdf:RDF>
      <cc:Work rdf:about="">
        <dc:title>github</dc:title>
      </cc:Work>
    </rdf:RDF>
  </metadata>
</svg>