<?xml version="1.0" encoding="UTF-8" standalone="no"?>
<svg
   width="200"
   height="60"
   version="1.1"
   id="svg1"
   sodipodi:docname="mozilla.svg"
   inkscape:version="1.4 (e7c3feb1, 2024-10-09)"
   xmlns:inkscape="http://www.inkscape.org/namespaces/inkscape"
   xmlns:sodipodi="http://sodipodi.sourceforge.net/DTD/sodipodi-0.dtd"
   xmlns="http://www.w3.org/2000/svg"
   xmlns:svg="http://www.w3.org/2000/svg">
  <defs
     id="defs1" />
  <sodipodi:namedview
     id="namedview1"
     pagecolor="#ffffff"
     bordercolor="#000000"
     borderopacity="0.25"
     inkscape:showpageshadow="2"
     inkscape:pageopacity="0.0"
     inkscape:pagecheckerboard="0"
     inkscape:deskcolor="#d1d1d1"
     showgrid="false"
     inkscape:zoom="5.135"
     inkscape:cx="100"
     inkscape:cy="29.990263"
     inkscape:window-width="1800"
     inkscape:window-height="1035"
     inkscape:window-x="0"
     inkscape:window-y="44"
     inkscape:window-maximized="1"
     inkscape:current-layer="svg1" />
  <path
     d="m 42.160873,26.104249 2.473887,12.170685 h 0.886301 l 2.473887,-12.170685 h 7.222911 V 45.274047 H 51.275152 V 29.464437 H 50.38885 l -3.439365,15.808802 h -3.73103 L 39.77909,29.464437 h -0.886302 v 15.808802 h -3.955634 v -19.16899 z m 22.635826,4.061473 c 4.551079,0 7.197056,2.725154 7.197056,7.69959 0,4.974437 -2.63305,7.699591 -7.197056,7.699591 -4.564007,0 -7.197057,-2.725154 -7.197057,-7.699591 0.01293,-4.987363 2.645977,-7.69959 7.197057,-7.69959 z m 0,12.329848 c 2.05053,0 3.029744,-1.110907 3.029744,-3.55894 v -2.169297 c 0,-2.447226 -0.965479,-3.55894 -3.029744,-3.55894 -2.064266,0 -3.029745,1.110907 -3.029745,3.55894 v 2.169297 c 0.01293,2.447225 0.979214,3.55894 3.029745,3.55894 z m 8.810496,-0.07918 7.527501,-9.115087 h -7.421662 v -2.857654 h 12.11817 v 2.857654 l -7.527501,9.115087 h 7.63334 v 2.857655 H 73.607195 Z M 88.000501,30.443651 h 5.556147 V 45.274047 H 89.61394 V 33.300498 h -1.614247 z m 1.614247,-4.339402 h 3.942708 v 2.857655 h -3.942708 z m 6.548288,0 h 5.556144 V 45.274047 H 97.776476 V 28.961904 h -1.614248 z m 8.175464,0 h 5.55615 v 19.169798 h -3.94271 V 28.961904 h -1.61425 z m 14.02327,4.061473 c 2.19596,0 3.63812,1.085052 4.06147,2.976421 h 0.88631 v -2.698492 h 4.6965 v 2.857654 h -1.61425 v 9.115087 h 1.61425 v 2.857655 h -2.24928 c -1.58759,0 -2.44722,-0.859639 -2.44722,-2.447225 v -0.251267 h -0.88631 c -0.42335,1.892176 -1.86551,2.976421 -4.06147,2.976421 -3.46603,0 -5.91325,-2.949759 -5.91325,-7.699591 0,-4.749831 2.44722,-7.686663 5.91325,-7.686663 z M 119.526,42.49557 c 1.99802,0 2.91017,-1.110907 2.91017,-3.55894 v -2.169297 c 0,-2.447226 -0.91296,-3.55894 -2.91017,-3.55894 -1.99721,0 -2.91017,1.110907 -2.91017,3.55894 v 2.169297 c 0,2.447225 0.91296,3.55894 2.91017,3.55894 z m 23.15129,2.778477 h -3.94271 v -30.83795 h 3.94271 z m 3.21476,-15.108325 h 15.61086 V 29.279421 L 151.32943,25.588788 V 22.46694 l 10.17348,-3.690633 v -0.899228 h -12.05192 v -3.439366 h 15.61086 v 6.284094 l -8.28131,2.857655 v 0.886301 l 8.28131,2.857655 v 6.284094 h -19.1698 z m 0,-12.290259 h 3.55894 v 3.55894 h -3.55894 z"
     fill="#94a3b8"
     id="path1"
     style="stroke-width:0.807932" />
</svg>
