<svg xmlns="http://www.w3.org/2000/svg" width="200" height="60"><path d="M28.411 25.178l3.062 15.064h1.097l3.062-15.064h8.94v23.727h-4.88V29.337h-1.097l-4.257 19.567h-4.618l-4.257-19.567h-1.097v19.567h-4.896V25.178zm28.017 5.027c5.633 0 8.908 3.373 8.908 9.53s-3.259 9.53-8.908 9.53-8.908-3.373-8.908-9.53c.016-6.173 3.275-9.53 8.908-9.53zm0 15.261c2.538 0 3.75-1.375 3.75-4.405v-2.685c0-3.029-1.195-4.405-3.75-4.405s-3.75 1.375-3.75 4.405v2.685c.016 3.029 1.212 4.405 3.75 4.405zm10.905-.098l9.317-11.282h-9.186v-3.537h14.999v3.537l-9.317 11.282h9.448v3.537H67.333zm17.815-14.819h6.877v18.356h-4.88V34.085h-1.998zm1.998-5.371h4.88v3.537h-4.88zm8.105 0h6.877v23.727h-4.88v-20.19h-1.998zm10.119 0h6.877v23.727h-4.88v-20.19h-1.998zm17.357 5.027c2.718 0 4.503 1.343 5.027 3.684h1.097v-3.34h5.813v3.537h-1.998v11.282h1.998v3.537h-2.784c-1.965 0-3.029-1.064-3.029-3.029v-.311h-1.097c-.524 2.342-2.309 3.684-5.027 3.684-4.29 0-7.319-3.651-7.319-9.53s3.029-9.514 7.319-9.514zm1.441 15.261c2.473 0 3.602-1.375 3.602-4.405v-2.685c0-3.029-1.13-4.405-3.602-4.405s-3.602 1.375-3.602 4.405v2.685c0 3.029 1.13 4.405 3.602 4.405zm28.655 3.439h-4.88V10.736h4.88zm3.979-18.7h19.322v-1.097l-12.592-4.568v-3.864l12.592-4.568v-1.113h-14.917v-4.257h19.322v7.778l-10.25 3.537v1.097l10.25 3.537v7.778h-23.727zm0-15.212h4.405v4.405h-4.405z" fill="#94a3b8"/></svg>