<svg width="134" height="81" viewBox="0 0 134 81" fill="none" xmlns="http://www.w3.org/2000/svg">
<path d="M50.2724 40.5898L48.3439 39.3898C48.3439 39.1898 48.3439 39.0565 48.2774 38.8565L49.9399 37.3232C50.0729 37.1898 50.2059 36.9232 50.1394 36.7232C50.0729 36.5232 49.9399 36.3232 49.7404 36.2565L47.6124 35.4565C47.5459 35.3232 47.5459 35.1232 47.4794 34.9898L48.8094 33.1898C48.9424 32.9898 48.9424 32.7898 48.8759 32.5898C48.8094 32.3898 48.6099 32.2565 48.4104 32.1898L46.1494 31.7898C46.0829 31.6565 46.0164 31.4565 45.8834 31.3232L46.8144 29.2565C46.8809 29.0565 46.8809 28.7898 46.7479 28.6565C46.6149 28.4565 46.4154 28.3898 46.2159 28.3898L43.9549 28.4565C43.8219 28.3232 43.7554 28.1898 43.6224 28.0565L44.1544 25.8565C44.2209 25.6565 44.1544 25.3898 43.9549 25.2565C43.8219 25.1232 43.5559 25.0565 43.3564 25.0565L41.1619 25.5898C41.0289 25.4565 40.8959 25.3898 40.7629 25.2565L40.8294 22.9898C40.8294 22.7898 40.6964 22.5232 40.5634 22.4565C40.3639 22.3232 40.1644 22.3232 39.9649 22.3898L37.9034 23.3232C37.7704 23.2565 37.5709 23.1898 37.4379 23.0565L37.1054 20.7898C37.0389 20.5898 36.9059 20.3898 36.7064 20.3232C36.5069 20.2565 36.2409 20.2565 36.1079 20.3898L34.3124 21.7232C34.1794 21.6565 33.9799 21.6565 33.8469 21.5898L33.0489 19.4565C32.9824 19.2565 32.7829 19.1232 32.5834 19.0565C32.3839 18.9898 32.1179 19.0565 31.9849 19.2565L30.4554 20.9232C30.2559 20.9232 30.1229 20.8565 29.9234 20.8565L28.6599 18.9232C28.5269 18.7232 28.3274 18.5898 28.1279 18.5898C27.9284 18.5898 27.7289 18.7232 27.5959 18.9232L26.3989 20.8565C26.1994 20.8565 26.0664 20.8565 25.8669 20.9232L24.3374 19.2565C24.2044 19.1232 23.9384 18.9898 23.7389 19.0565C23.5394 19.1232 23.3399 19.2565 23.2734 19.4565L22.4754 21.5898C22.3424 21.6565 22.1429 21.6565 22.0099 21.7232L20.2144 20.3898C20.0149 20.2565 19.7489 20.2565 19.5494 20.3232C19.3499 20.3898 19.2169 20.5898 19.1504 20.7898L18.8179 23.0565C18.6849 23.1232 18.4854 23.1898 18.3524 23.3232L16.2909 22.3898C16.0914 22.3232 15.8254 22.3232 15.6924 22.4565C15.4929 22.5898 15.4264 22.7898 15.4264 22.9898L15.4929 25.2565C15.3599 25.3898 15.2269 25.4565 15.0939 25.5898L12.8994 25.0565C12.6999 24.9898 12.4339 25.0565 12.3009 25.2565C12.1679 25.3898 12.1014 25.6565 12.1014 25.8565L12.6334 28.0565C12.5004 28.1898 12.4339 28.3232 12.3009 28.4565L10.0399 28.3898C9.84038 28.3898 9.57438 28.5232 9.50788 28.6565C9.37488 28.8565 9.37488 29.0565 9.44138 29.2565L10.3724 31.3232C10.3059 31.4565 10.2394 31.6565 10.1064 31.7898L7.84538 32.1232C7.64588 32.1898 7.44638 32.3232 7.37988 32.5232C7.31338 32.7232 7.31338 32.9898 7.44638 33.1232L8.77638 34.9232C8.70988 35.0565 8.70988 35.2565 8.64338 35.3898L6.51538 36.2565C6.31588 36.3232 6.18288 36.5232 6.11638 36.7232C6.04988 36.9232 6.11638 37.1898 6.31588 37.3232L7.97838 38.8565C7.97838 39.0565 7.91188 39.1898 7.91188 39.3898L5.98338 40.5898C5.78388 40.7232 5.65088 40.9232 5.65088 41.1232C5.65088 41.3232 5.78388 41.5232 5.98338 41.6565L7.91188 42.8565C7.91188 43.0565 7.91188 43.1898 7.97838 43.3898L6.31588 44.9232C6.18288 45.0565 6.04988 45.3232 6.11638 45.5232C6.18288 45.7232 6.31588 45.9232 6.51538 45.9898L8.64338 46.7899C8.70988 46.9232 8.70988 47.1232 8.77638 47.2565L7.44638 49.0565C7.31338 49.2565 7.31338 49.4565 7.37988 49.6565C7.44638 49.8565 7.64588 49.9898 7.84538 50.0565L10.1064 50.3898C10.1729 50.5232 10.2394 50.7232 10.3724 50.8565L9.44138 52.9232C9.37488 53.1232 9.37488 53.3899 9.50788 53.5232C9.64088 53.7232 9.84038 53.7899 10.0399 53.7899L12.3009 53.7232C12.4339 53.8565 12.5004 53.9899 12.6334 54.1232L12.1014 56.3232C12.0349 56.5232 12.1014 56.7899 12.3009 56.9232C12.4339 57.0565 12.6999 57.1232 12.8994 57.1232L15.0939 56.5899C15.2269 56.7232 15.3599 56.7899 15.4929 56.9232L15.4264 59.1899C15.4264 59.3899 15.5594 59.6565 15.6924 59.7232C15.8919 59.8565 16.0914 59.8565 16.2909 59.7899L18.3524 58.8565C18.4854 58.9232 18.6849 58.9899 18.8179 59.1232L19.1504 61.3899C19.2169 61.5899 19.3499 61.7899 19.5494 61.8565C19.7489 61.9232 20.0149 61.9232 20.1479 61.7899L21.9434 60.4565C22.0764 60.5232 22.2759 60.5232 22.4089 60.5899L23.2069 62.7232C23.2734 62.9232 23.4729 63.0565 23.6724 63.1232C23.8719 63.1899 24.1379 63.1232 24.2709 62.9232L25.8004 61.2565C25.9999 61.2565 26.1329 61.3232 26.3324 61.3232L27.5294 63.2565C27.6624 63.4565 27.8619 63.5899 28.0614 63.5899C28.2609 63.5899 28.4604 63.4565 28.5934 63.2565L29.7904 61.3232C29.9899 61.3232 30.1229 61.3232 30.3224 61.2565L31.8519 62.9232C31.9849 63.0565 32.2509 63.1899 32.4504 63.1232C32.6499 63.0565 32.8494 62.9232 32.9159 62.7232L33.7139 60.5899C33.8469 60.5232 34.0464 60.5232 34.1794 60.4565L35.9749 61.7899C36.1744 61.9232 36.3739 61.9232 36.5734 61.8565C36.7729 61.7899 36.9059 61.5899 36.9724 61.3899L37.3049 59.1232C37.4379 59.0565 37.6374 58.9899 37.7704 58.8565L39.8319 59.7899C40.0314 59.8565 40.2974 59.8565 40.4304 59.7232C40.6299 59.5899 40.6964 59.3899 40.6964 59.1899L40.8294 56.9898C40.9624 56.8565 41.0954 56.7899 41.2284 56.6565L43.4229 57.1899C43.6224 57.2565 43.8884 57.1898 44.0214 56.9898C44.1544 56.8565 44.2209 56.5899 44.2209 56.3899L43.6889 54.2565C43.8219 54.1232 43.8884 53.9899 44.0214 53.8565L46.2824 53.9232C46.4819 53.9232 46.7479 53.7898 46.8144 53.6565C46.9474 53.4565 46.9474 53.2565 46.8809 53.0565L45.9499 50.9232C46.0164 50.7899 46.0829 50.5899 46.2159 50.4565L48.4769 50.1232C48.6764 50.0565 48.8759 49.9232 48.9424 49.7232C49.0089 49.5232 49.0089 49.2565 48.8759 49.1232L47.5459 47.3232C47.6124 47.1898 47.6124 46.9899 47.6789 46.8565L49.8069 46.0565C50.0064 45.9898 50.1394 45.7899 50.2059 45.5898C50.2724 45.3898 50.2059 45.1232 50.0064 44.9898L48.3439 43.4565C48.3439 43.2565 48.4104 43.1232 48.4104 42.9232L50.3389 41.7232C50.5384 41.5898 50.6714 41.3898 50.6714 41.1898C50.6049 40.9232 50.4719 40.7232 50.2724 40.5898ZM37.0389 51.9232C36.3739 51.7899 35.7089 52.1899 35.5759 52.8565L34.9109 55.9898C30.5219 57.9898 25.5344 57.9232 21.2119 55.9232L20.5469 52.7899C20.4139 52.1232 19.7489 51.7232 19.0839 51.8565L16.2909 52.4565C15.7589 51.9232 15.2934 51.3899 14.8944 50.7899H28.3274C28.4604 50.7899 28.5934 50.7899 28.5934 50.5899V45.7899C28.5934 45.6565 28.4604 45.5898 28.3274 45.5898H24.4039V42.5898H28.6599C29.0589 42.5898 30.7214 42.7232 31.2534 44.8565C31.4529 45.5232 31.7854 47.6565 32.0514 48.3898C32.3174 49.1898 33.3149 50.7232 34.4454 50.7232H41.3614C40.8959 51.3232 40.3639 51.9232 39.8319 52.5232L37.0389 51.9232ZM39.2999 54.9898C39.2999 55.7232 38.7014 56.3232 37.9699 56.3232C37.2384 56.3232 36.6399 55.7232 36.6399 54.9898C36.6399 54.2565 37.2384 53.6565 37.9699 53.6565C37.9699 53.6565 37.9699 53.6565 38.0364 53.6565C38.7014 53.6565 39.2999 54.2565 39.2999 54.9898ZM18.1529 56.2565C17.4214 56.2565 16.8229 55.6565 16.8229 54.9232C16.8229 54.1898 17.4214 53.5899 18.1529 53.5899C18.1529 53.5899 18.1529 53.5899 18.2194 53.5899C18.9509 53.5899 19.5494 54.1898 19.5494 54.9232C19.4829 55.6565 18.8844 56.2565 18.1529 56.2565ZM12.1014 34.7232C12.1679 34.7232 12.1679 34.7232 12.1014 34.7232C12.8329 34.7232 13.4314 35.3232 13.4314 36.0565C13.4314 36.7898 12.8329 37.3898 12.1014 37.3898C11.3699 37.3898 10.7714 36.7898 10.7714 36.0565C10.7714 35.3232 11.3699 34.7232 12.1014 34.7232ZM11.7689 39.1898L14.6284 37.9232C15.2269 37.6565 15.4929 36.9232 15.2269 36.3232L14.6284 34.9898H16.9559V45.5232H12.2344C11.7689 43.4565 11.5694 41.3232 11.7689 39.1898ZM24.4039 38.1898V35.0565H29.9234C30.1894 35.0565 31.9184 35.3898 31.9184 36.7232C31.9184 37.7898 30.5884 38.1898 29.4579 38.1898H24.4039ZM42.6249 42.4565V43.2565C42.6249 45.0565 41.6274 45.4565 40.6964 45.5898C39.8319 45.6565 38.9009 45.2565 38.7679 44.7232C38.2359 41.8565 37.4379 41.2565 36.1079 40.1898C37.7704 39.1232 39.4994 37.5898 39.4994 35.5232C39.4994 33.2565 37.9699 31.8565 36.9059 31.1898C35.4429 30.1898 33.7804 30.0565 33.3814 30.0565H15.8919C18.2859 27.3232 21.5444 25.5232 25.0689 24.8565L27.1304 26.9898C27.5959 27.4565 28.3939 27.5232 28.8594 27.0565L31.1869 24.8565C35.9084 25.7232 40.0314 28.6565 42.4254 32.9232L40.8294 36.3898C40.5634 36.9898 40.8294 37.7232 41.4279 37.9898L44.4869 39.3232C44.5534 40.2565 44.6199 41.2565 44.5534 42.1898H42.8244C42.6914 42.1898 42.6249 42.3232 42.6249 42.4565ZM26.7314 23.9232C26.7314 23.1898 27.3299 22.5898 28.0614 22.5898C28.0614 22.5898 28.0614 22.5898 28.1279 22.5898C28.8594 22.5898 29.4579 23.1898 29.4579 23.9232C29.4579 24.6565 28.8594 25.2565 28.1279 25.2565C27.3299 25.2565 26.7314 24.6565 26.7314 23.9232ZM44.0214 37.4565C43.2899 37.4565 42.6914 36.8565 42.6914 36.1232C42.6914 35.3898 43.2899 34.7898 44.0214 34.7898C44.0214 34.7898 44.0214 34.7898 44.0879 34.7898C44.8194 34.7898 45.4179 35.3898 45.4179 36.1232C45.3514 36.8565 44.7529 37.4565 44.0214 37.4565Z" fill="#94A3B8"/>
<path d="M57.7871 47.4563H59.2501V34.3896H57.7871V29.6562H71.0871C73.5476 29.6562 75.4761 30.1896 76.8061 31.1896C78.1361 32.1896 78.8011 33.8563 78.8011 36.1896C78.8011 37.4563 78.5351 38.5896 78.0031 39.5229C77.4711 40.4563 76.7396 41.1229 75.8086 41.5229V41.7896C77.6706 42.0563 78.6016 43.1896 78.6016 45.1896V47.4563H79.9316V52.1896H70.7546V45.3896C70.7546 44.6562 70.6216 44.0563 70.4221 43.6562C70.2226 43.2563 69.8236 42.9896 69.3581 42.8563C68.8926 42.7229 68.2276 42.6562 67.3631 42.6562V47.3896H69.2916V52.1229H57.7871V47.4563ZM68.8926 39.1896C69.4246 39.1896 69.8901 39.0563 70.1561 38.7229C70.4221 38.4563 70.5551 37.9229 70.5551 37.3229V36.2563C70.5551 35.5896 70.4221 35.1229 70.1561 34.8563C69.8901 34.5896 69.4246 34.3896 68.8926 34.3896H67.3631V39.1229H68.8926V39.1896Z" fill="#94A3B8"/>
<path d="M99.8815 47.4566V52.19H91.968V49.9233C90.5715 51.7233 88.8425 52.59 86.781 52.59C85.185 52.59 83.988 52.0566 83.19 51.0566C82.392 50.0566 81.993 48.6566 81.993 46.9233V40.79H80.7295V36.0566H88.643V45.59C88.643 46.2566 88.776 46.7233 89.042 46.99C89.308 47.2566 89.7735 47.4566 90.3055 47.4566C90.8375 47.4566 91.303 47.3233 91.569 46.99C91.835 46.7233 91.968 46.19 91.968 45.59V40.8566H90.4385V36.1233H98.6845V47.5233H99.8815V47.4566Z" fill="#94A3B8"/>
<path d="M100.68 51.456V47.1893H105.335V47.456C105.335 48.3893 105.933 48.856 107.13 48.856C108.194 48.856 108.66 48.5227 108.66 47.7893C108.66 47.3893 108.527 47.1227 108.194 46.9227C107.928 46.7227 107.396 46.5893 106.598 46.456L105.135 46.1893C102.076 45.656 100.613 43.9227 100.613 41.056C100.613 39.3893 101.278 38.056 102.542 37.1227C103.805 36.1893 105.534 35.7227 107.662 35.7227C110.056 35.7227 112.118 36.1227 113.78 36.9227V40.9227H109.391V40.656C109.391 40.256 109.258 39.9893 108.992 39.7893C108.726 39.5893 108.327 39.456 107.862 39.456C106.864 39.456 106.399 39.7893 106.399 40.3893C106.399 40.7227 106.532 40.9893 106.798 41.1227C107.064 41.3227 107.529 41.456 108.261 41.5893L109.923 41.9227C111.652 42.256 112.849 42.856 113.581 43.7227C114.312 44.5893 114.711 45.7227 114.711 47.1227C114.711 48.856 114.113 50.256 112.849 51.1227C111.652 52.056 109.857 52.5227 107.596 52.5227C105.335 52.5893 102.941 52.256 100.68 51.456Z" fill="#94A3B8"/>
<path d="M118.235 51.1227C117.171 50.1227 116.706 48.456 116.706 46.1227V40.856H115.442V36.1227C116.174 36.1227 116.706 35.9227 117.105 35.5893C117.504 35.1893 117.637 34.7227 117.637 34.056V32.7227H123.755V36.1227H127.678V40.856H123.755V45.5893C123.755 46.256 123.888 46.7227 124.154 46.9893C124.42 47.256 124.885 47.456 125.417 47.456C126.149 47.456 126.947 47.3893 127.811 47.1893V51.7226C127.279 51.9226 126.548 52.1226 125.617 52.3226C124.686 52.5226 123.755 52.5893 122.824 52.5893C120.829 52.5893 119.299 52.1227 118.235 51.1227Z" fill="#94A3B8"/>
</svg>
