<?xml version="1.0" encoding="UTF-8" standalone="no"?>
<svg
   width="83"
   height="81"
   viewBox="0 0 83 81"
   fill="none"
   version="1.1"
   id="svg10"
   sodipodi:docname="tor.svg"
   inkscape:version="1.4 (e7c3feb1, 2024-10-09)"
   xmlns:inkscape="http://www.inkscape.org/namespaces/inkscape"
   xmlns:sodipodi="http://sodipodi.sourceforge.net/DTD/sodipodi-0.dtd"
   xmlns="http://www.w3.org/2000/svg"
   xmlns:svg="http://www.w3.org/2000/svg">
  <sodipodi:namedview
     id="namedview10"
     pagecolor="#ffffff"
     bordercolor="#000000"
     borderopacity="0.25"
     inkscape:showpageshadow="2"
     inkscape:pageopacity="0.0"
     inkscape:pagecheckerboard="0"
     inkscape:deskcolor="#d1d1d1"
     inkscape:zoom="5.5520725"
     inkscape:cx="43.677383"
     inkscape:cy="53.853763"
     inkscape:window-width="1800"
     inkscape:window-height="1035"
     inkscape:window-x="0"
     inkscape:window-y="44"
     inkscape:window-maximized="1"
     inkscape:current-layer="svg10" />
  <g
     clip-path="url(#clip0_2536_345)"
     id="g10"
     transform="matrix(0.7916028,0,0,0.7916028,8.6760585,8.4336782)">
    <path
       d="m 46.031,22.8266 -1.0996,4.3765 c 1.5577,-3.1 4.0777,-5.425 6.9641,-7.4765 -2.1076,2.4162 -4.0319,4.8324 -5.1773,7.2942 1.9701,-2.7809 4.6275,-4.2854 7.6056,-5.3339 -3.9861,3.5103 -7.1474,7.3398 -9.5299,11.1236 l -1.9243,-0.8206 c 0.3207,-3.0544 1.4662,-6.1544 3.1614,-9.1633 z"
       fill="#94a3b8"
       id="path1" />
    <path
       d="m 44.5654,32.6289 1.3287,0.6838 c -0.1374,0.8662 0.0458,2.7809 0.9164,3.2368 3.8486,2.3706 7.4222,4.9236 8.8426,7.5222 5.0398,9.0721 -3.5279,17.506 -10.996,16.6854 4.0318,-2.9632 5.2231,-9.0721 3.7111,-15.7737 -0.5956,-2.5985 -1.5578,-4.9691 -3.253,-7.6589 -0.733,-1.2309 -0.4581,-2.872 -0.5498,-4.6956 z"
       fill="#94a3b8"
       id="path2" />
    <path
       d="m 43.0989,36.959 c -0.2749,1.4132 -0.5957,3.9662 -1.8327,4.9236 -0.504,0.3647 -1.0538,0.7294 -1.6036,1.0941 -2.245,1.5044 -4.4442,2.9177 -5.4522,6.5192 -0.2291,0.775 -0.0458,1.5956 0.1375,2.3706 0.5498,2.2338 2.1075,4.6044 3.3446,6.0177 0,0.0456 0.2291,0.2279 0.2291,0.2735 1.0079,1.1853 1.3287,1.5501 5.1773,2.4162 l -0.0917,0.4103 c -2.3366,-0.5926 -4.2151,-1.1853 -5.4522,-2.5529 0,-0.0456 -0.229,-0.228 -0.229,-0.228 -1.2829,-1.4588 -2.8865,-3.9206 -3.4363,-6.2456 -0.2291,-0.9118 -0.4123,-1.6412 -0.1374,-2.5986 1.0537,-3.7383 3.3446,-5.2427 5.6354,-6.7927 0.504,-0.3191 1.1454,-0.6382 1.6494,-1.0485 1.0538,-0.6839 1.5578,-2.8265 2.0618,-4.5589 z"
       fill="#94a3b8"
       id="path3" />
    <path
       d="m 44.1072,42.8848 c 0.0458,1.5956 -0.1374,2.4162 0.2749,3.5559 0.2291,0.6838 1.0996,1.5956 1.3287,2.5074 0.3207,1.1853 0.6872,2.5073 0.6872,3.3279 0,0.9118 -0.0458,2.6442 -0.4581,4.4677 -0.3208,1.5045 -1.008,2.8265 -2.1992,3.556 -1.2371,-0.228 -2.6574,-0.6839 -3.4821,-1.4133 -1.6494,-1.4133 -3.0697,-3.7839 -3.253,-5.8354 -0.1374,-1.6867 1.4203,-4.1941 3.6195,-5.425 1.8327,-1.0941 2.2909,-2.2794 2.7032,-4.2853 -0.5498,1.7323 -1.0996,3.1456 -2.8864,4.1029 -2.6116,1.3677 -3.9403,3.6015 -3.8028,5.7898 0.1832,2.7809 1.2828,4.65 3.482,6.1545 0.9164,0.6382 2.6574,1.322 3.757,1.5044 v -0.1368 c 0.8247,-0.1367 1.8785,-1.5044 2.4283,-3.2823 0.4582,-1.6412 0.6414,-3.6927 0.5956,-5.0148 -0.0458,-0.775 -0.3665,-2.4162 -1.0079,-3.9206 -0.3208,-0.8206 -0.8706,-1.6412 -1.1913,-2.2339 -0.4123,-0.6838 -0.4123,-1.9603 -0.5956,-3.4191 z"
       fill="#94a3b8"
       id="path4" />
    <path
       d="m 43.8318,49.1309 c 0.0458,1.0941 0.4581,2.4617 0.6414,3.875 0.1374,1.0485 0.0916,2.0971 0.0458,3.0089 -0.0458,1.0485 -0.3665,2.9632 -0.8705,3.9206 -0.4582,-0.228 -0.6414,-0.4559 -0.9622,-0.8206 -0.3665,-0.5015 -0.6414,-1.0486 -0.8705,-1.6412 -0.1832,-0.4559 -0.4123,-1.003 -0.504,-1.5956 -0.1374,-0.9118 -0.0916,-2.3706 0.9622,-3.8295 0.8247,-1.1853 1.008,-1.2764 1.2829,-2.5985 -0.3666,1.1853 -0.6415,1.3221 -1.512,2.325 -0.9621,1.0941 -1.0996,2.7353 -1.0996,4.0574 0,0.5471 0.2291,1.1853 0.4582,1.7324 0.2291,0.5926 0.4581,1.2309 0.7789,1.6868 0.5039,0.7294 1.1454,1.1853 1.4661,1.2308 v -0.0455 c 0.5956,-0.6839 0.9621,-1.3221 1.0996,-2.0059 0.1374,-0.8206 0.1833,-1.5956 0.2749,-2.553 0.0916,-0.8206 0.0458,-1.8691 -0.1833,-2.9633 -0.2749,-1.3676 -0.7789,-2.7809 -1.0079,-3.7838 z"
       fill="#94a3b8"
       id="path5" />
    <path
       d="m 44.0155,35.6816 c 0.0459,1.5956 0.1375,4.5589 0.5957,5.7442 0.1374,0.4103 1.2828,2.1427 2.0617,4.2854 0.5498,1.4588 0.6873,2.8265 0.7789,3.2368 0.3665,1.7323 -0.0916,4.6956 -0.6872,7.4765 -0.3208,1.5044 -1.3746,3.3736 -2.5658,4.103 l -0.2291,0.4103 c 0.6873,-0.0456 2.3367,-1.6412 2.9323,-3.6927 1.008,-3.4192 1.3745,-5.0148 0.9163,-8.8442 -0.0458,-0.3647 -0.229,-1.6412 -0.8247,-2.9633 -0.8705,-2.0515 -2.1075,-4.0118 -2.245,-4.4221 -0.3207,-0.6382 -0.6872,-3.4647 -0.7331,-5.3339 z"
       fill="#94a3b8"
       id="path6" />
    <path
       d="m 44.5648,32.7637 c -0.0916,1.6412 -0.0916,2.9176 0.1833,4.1485 0.3207,1.3221 2.0618,3.2368 2.7948,5.4251 1.3745,4.1942 1.008,9.6648 0.0459,13.9046 -0.3666,1.5044 -2.1076,3.6926 -3.8945,4.3765 l 1.2829,0.3191 c 0.6873,-0.0456 2.5199,-1.7324 3.253,-3.6471 1.1454,-3.0544 1.3745,-6.656 0.9163,-10.4854 -0.0458,-0.3647 -0.6414,-3.6471 -1.237,-5.0148 -0.8247,-2.0515 -2.1534,-3.5103 -2.6116,-4.7868 -0.3665,-0.9573 -0.504,-3.5103 -0.2749,-4.0118 z"
       fill="#94a3b8"
       id="path7" />
    <path
       d="M 8.87336,23.7383 H 33.6602 c 0.9163,0 1.741,0.775 1.741,1.7324 v 7.2942 c 0,0.9573 -0.8247,1.7323 -1.741,1.7323 h -5.0857 c -1.1454,0 -1.6494,0.6383 -1.6494,1.3677 v 23.8429 c 0,0.8206 -0.6414,1.4132 -1.4203,1.4132 H 17.0745 C 16.2957,61.121 15.7,60.5284 15.7,59.7078 V 35.6369 c 0,-0.7294 -0.6872,-1.1853 -1.1912,-1.1853 H 8.87336 c -0.96215,0 -1.74104,-0.775 -1.74104,-1.7323 v -7.2942 c 0,-0.9118 0.77889,-1.6868 1.74104,-1.6868 z"
       fill="#94a3b8"
       id="path8" />
    <path
       d="m 72.4668,33.4023 h 2.1992 c 0.8247,0 1.4661,0.6383 1.4661,1.4133 v 7.7957 c 0,1.0029 0.0458,1.4132 -1.1912,1.4132 -2.4283,0 -3.5279,1.2765 -3.5279,2.6897 v 13.1752 c 0,0.5926 -0.5956,1.1397 -1.2829,1.1397 h -7.8804 c -0.6873,0 -1.2829,-0.5015 -1.2829,-1.1397 V 44.8907 c 0,-0.2735 0,-0.6382 0.0458,-0.8662 0.4124,-5.5618 4.8108,-9.9839 10.3546,-10.5766 0.1374,0 0.7789,-0.0456 1.0996,-0.0456 z"
       fill="#94a3b8"
       id="path9" />
    <path
       d="m 53.7272,40.8337 c -1.3286,-1.1853 -2.978,-2.1882 -4.7191,-3.1456 -0.7789,-0.4103 -3.1613,-2.2794 -2.3366,-4.9236 l -6.002,-2.4618 -0.4124,0.3192 c 2.016,3.6015 0.9622,5.5162 -0.0458,6.1544 -2.0159,1.3677 -4.9482,3.1001 -6.3685,4.6045 -2.7948,2.8721 -3.6195,5.6074 -3.3446,9.1633 0.2749,4.6045 3.6195,8.4339 8.1554,9.9384 1.9701,0.6382 3.8027,0.7294 5.8187,0.7294 3.253,0 6.6434,-0.8662 9.0717,-2.8721 2.6115,-2.1427 4.1235,-5.3795 4.1235,-8.7074 0,-3.328 -1.4204,-6.5192 -3.9403,-8.7987 z M 52.8567,57.656 c -2.245,1.8235 -6.2769,3.1 -8.4302,3.0088 -2.3825,-0.1367 -4.7192,-0.5015 -6.7809,-1.5044 -3.6195,-1.7324 -6.002,-5.5162 -6.1853,-8.5707 -0.3207,-6.2456 2.7032,-8.0236 5.498,-10.303 1.5578,-1.2765 3.757,-1.9148 4.9941,-4.1942 0.229,-0.5015 0.3665,-1.5956 0.0916,-2.7353 -0.1375,-0.4103 -0.6873,-1.778 -0.9163,-2.0971 l 4.49,1.9603 c -0.5498,2.0515 1.1454,4.1942 2.5199,4.9692 1.3745,0.775 3.5279,2.2338 4.8566,3.4191 2.3366,2.0515 3.5279,4.9692 3.5279,8.0237 0,3.0544 -1.2829,6.0633 -3.6654,8.0236 z"
       fill="#94a3b8"
       id="path10" />
  </g>
  <defs
     id="defs10">
    <clipPath
       id="clip0_2536_345">
      <rect
         width="82"
         height="80"
         fill="white"
         transform="translate(0.132324 0.923828)"
         id="rect10" />
    </clipPath>
  </defs>
</svg>
