<svg width="170" height="107" viewBox="0 0 170 107" fill="none" xmlns="http://www.w3.org/2000/svg">
<path d="M50.6598 77.6261C50.0478 77.3535 49.0278 77.0809 47.9398 76.8083C48.0078 77.4216 48.0758 77.9669 48.1438 78.4439C49.0278 78.1713 49.8438 77.8987 50.6598 77.6261ZM47.9398 76.2631C49.2998 76.6038 50.7278 77.0127 51.2718 77.3535C51.7478 77.149 52.2238 76.9446 52.6998 76.7401C51.8838 76.2631 49.8438 75.6497 48.0078 75.1045C47.9398 75.5134 47.9398 75.9223 47.9398 76.2631ZM51.4078 77.8987C51.3398 77.8987 51.3398 77.8987 51.4078 77.8987C49.8438 78.5121 48.3478 78.921 46.8518 79.2618H46.7838C45.4238 79.5344 44.0638 79.7388 42.7038 79.807H42.6358C38.1478 80.0796 33.9318 79.1936 30.7358 77.7624L30.5998 77.6943C30.5998 77.6943 30.5318 77.6943 30.5318 77.6261C25.1598 75.1045 22.7118 70.6745 28.0158 67.1306C27.4718 66.2446 26.7918 65.3586 26.0438 64.4726C25.8398 64.2 25.5678 63.8592 25.3638 63.5866C24.9558 64.6771 24.8878 65.4268 25.5678 66.3809C25.6358 66.5172 25.6358 66.5854 25.5678 66.7217L21.8278 71.2197C21.7598 71.356 21.5558 71.356 21.4878 71.2197C2.71976 50.5694 24.1398 19.2873 49.9798 28.2834C50.1158 28.3516 50.1838 28.4879 50.1157 28.6242L46.0358 35.3713C45.9678 35.4395 45.8998 35.5076 45.7638 35.5076C44.4718 35.3032 43.7238 35.3713 43.1798 35.8484C44.3358 36.0529 45.5598 36.3255 46.7838 36.8025C47.8718 35.5758 49.0958 34.4172 50.3198 33.3949C50.3198 33.3949 50.3878 33.3949 50.3878 33.3267C50.4558 33.2586 50.5238 33.2586 50.5918 33.3267C50.6598 33.3267 50.7278 33.3949 50.7278 33.4631V33.5312L53.0398 40.4828C53.0398 40.551 53.0398 40.6191 53.0398 40.6873C53.0398 40.7554 52.9718 40.8236 52.9038 40.8236C52.8358 40.8917 52.7678 40.8917 52.6998 40.9599C53.1758 42.3911 56.5078 52.4777 57.5278 55.2038C57.8678 56.0217 58.5478 57.5892 58.5478 58.4752C58.5478 59.3611 57.9358 59.8382 56.6438 59.9064C55.9638 60.5197 55.8958 60.7924 56.2358 61.2013C56.9157 62.1554 56.5758 62.5643 55.7598 63.1777C56.5078 63.7911 56.3718 64.8815 55.9638 64.8815C55.4198 64.8815 55.2158 65.086 54.8758 65.4949C57.2557 67.8121 55.2838 69.8567 52.0878 70.5382C51.0678 70.7427 49.9118 70.879 48.6878 70.8108C48.6878 70.8108 48.6878 70.8108 48.6878 70.879C48.2798 72.242 48.0078 73.5369 47.9398 74.6955C50.0478 75.3089 52.5638 76.0586 53.2438 76.6038L53.3118 76.672C53.3798 76.7401 53.3798 76.8083 53.3798 76.8764C53.3798 76.9446 53.3118 77.0127 53.2438 77.0127C53.2438 77.0127 53.1758 77.0127 53.1758 77.0809C52.6318 77.3535 52.0198 77.6261 51.4078 77.8987ZM29.1718 68.6299V68.6981C29.3078 69.3115 29.3758 69.9248 29.3758 70.6064C30.8718 69.5841 30.4638 67.8803 30.0558 67.0624C29.6478 67.335 29.3078 67.5395 28.8998 67.8121C28.9678 68.0847 29.0358 68.3573 29.1718 68.6299ZM28.7638 69.107C27.6758 69.7885 27.1998 70.5382 27.1318 71.356C27.8118 71.2879 28.4238 71.0834 28.8318 70.879C28.8998 70.2656 28.8318 69.6522 28.7638 69.107ZM27.0638 71.8331C27.0638 72.1739 27.1998 72.4465 27.3358 72.7873C30.7358 72.7191 33.2518 69.3796 31.4158 66.0401C31.0758 66.3127 30.7358 66.5853 30.3958 66.7898C31.0758 68.0847 31.6878 71.356 27.0638 71.8331ZM27.6758 73.2643C27.9478 73.6732 28.2878 74.014 28.6958 74.3548C33.6598 72.9236 34.6798 68.7662 32.7078 65.0178C32.4358 65.2904 32.1638 65.4949 31.8238 65.7675C33.9318 69.3796 31.2118 72.9917 27.6758 73.2643ZM29.1718 74.6955C29.6478 74.9682 30.1918 75.2408 30.7358 75.4452C36.8558 72.3783 35.3598 66.0401 33.9998 63.8592C33.7278 64.1318 33.3878 64.4045 33.1158 64.6771C35.1558 68.6299 34.2038 73.0599 29.1718 74.6955ZM48.2118 49.8879C50.3198 49.0701 52.9718 48.6611 55.0118 49.2745C54.1278 46.5484 53.1758 43.7541 52.6318 42.1185C52.6318 44.8446 51.3398 47.4344 48.6878 48.5248C48.5518 49.0019 48.4158 49.479 48.2118 49.8879ZM47.4638 50.2968C47.4638 50.2968 47.4638 50.2287 47.5318 50.2287C47.8718 49.6834 48.1438 49.0701 48.2798 48.3885V48.3204C48.4158 47.7752 48.4158 47.1618 48.4158 46.5484V46.4802C48.4158 46.0713 48.3478 45.5943 48.2118 45.1172C47.8718 45.458 47.5998 45.7987 47.3278 46.2076C47.4638 47.7752 47.1238 49.479 45.4238 50.9783C45.4918 51.4554 45.4918 51.9325 45.4238 52.4096C46.3078 51.728 46.9878 51.0465 47.4638 50.2968ZM34.9518 64.7452C35.0878 64.2 35.3598 63.7911 35.7678 63.3822C35.5638 63.0414 35.4958 62.6325 35.4278 62.2917C35.0878 62.7006 34.7478 63.0414 34.3398 63.4503C34.5438 63.8592 34.7478 64.2682 34.9518 64.7452ZM36.1078 63.1096C36.3798 62.9051 36.7198 62.7688 37.0598 62.6325C36.8558 62.1554 36.7198 61.542 36.6518 60.8605C36.3798 61.2013 36.0398 61.542 35.7678 61.8828C35.8358 62.2917 35.9718 62.7006 36.1078 63.1096ZM24.5478 64.9497C24.5478 64.4045 24.7518 63.7911 25.0238 63.1096C23.7998 61.3376 22.7118 59.0204 22.3718 55.6127V55.5446C22.3718 55.2038 22.3038 54.8631 22.3038 54.5223V54.4541C22.3038 54.3178 22.3038 54.2497 22.3038 54.1134C22.2358 53.0229 22.3038 51.8643 22.5078 50.7739V50.7057C22.5758 50.365 22.6438 50.0242 22.7118 49.6834V49.6153C23.4598 46.4803 25.0238 43.4815 27.2678 41.028L27.3358 40.9599C28.0158 40.2783 28.7638 39.5968 29.5118 38.9834C30.7358 38.0293 32.0958 37.2796 33.5918 36.7344C33.5918 36.7344 33.5918 36.7344 33.6598 36.7344C35.4958 36.0529 37.5358 35.6439 39.7118 35.6439C39.8478 35.6439 39.9838 35.6439 40.1198 35.6439C40.9358 35.6439 41.7518 35.7121 42.6358 35.8484C43.0438 35.3713 43.4518 35.0987 44.0638 35.0306C43.9958 35.0306 43.9958 35.0306 43.9278 34.9624C42.8398 34.6898 41.8198 34.4853 40.7318 34.4172C35.1558 34.0764 29.7158 36.5299 26.0438 40.6191C25.2958 41.4369 24.6158 42.3229 24.0038 43.2771C24.0038 43.2771 24.0038 43.2771 24.0038 43.3452C23.4598 44.2312 22.9838 45.1853 22.5758 46.1395C22.1678 47.0936 21.8278 48.1159 21.6238 49.1382C20.6718 53.1592 21.0118 57.5892 23.1878 62.0873C23.3918 63.0414 23.9358 63.9955 24.5478 64.9497ZM25.4318 62.9051L25.4998 62.9732C25.7038 63.2459 25.8398 63.4503 26.0438 63.7229C26.9958 62.9732 27.8798 62.2236 28.7638 61.4057C28.3558 61.2013 27.9478 60.9968 27.6078 60.7924C26.9278 61.4739 26.5198 61.7465 25.3638 61.7465C25.1598 61.7465 25.0918 61.6102 25.1598 61.4057C25.3638 60.7924 25.1598 59.2248 25.1598 58.407C25.0918 58.2707 24.9558 58.0662 24.8878 57.9299C24.6158 57.9981 24.2078 57.9981 23.7318 57.9981C23.4598 57.9981 23.3918 57.7936 23.5958 57.5892C24.3438 56.9076 24.2078 55.9535 24.4118 54.6586C24.0038 54.8631 23.1878 55.4083 22.9158 55.6127C23.1878 58.9522 24.2758 61.2013 25.4318 62.9051ZM27.8118 66.0401C37.7398 59.3611 41.6838 47.2981 50.5918 39.665L49.2998 39.3924C49.0278 39.3242 49.0278 39.3242 49.0957 39.0516L49.2998 37.2115C41.0038 45.5943 36.4478 59.3611 27.1998 65.2223C27.4038 65.4949 27.6078 65.7675 27.8118 66.0401ZM50.8638 35.6439C50.4558 35.9847 50.1157 36.3255 49.7757 36.6662L49.5038 38.9834L50.9998 39.3242C51.2718 39.1197 51.5438 38.8471 51.8838 38.6427L51.6798 37.9611C51.2718 38.0974 50.7958 37.893 50.5918 37.4159C50.4558 37.007 50.6598 36.5299 51.1357 36.3255L50.8638 35.6439ZM29.3078 61.542C28.3558 62.428 27.4038 63.314 26.3158 64.1318L26.3838 64.2C26.5198 64.4045 26.7238 64.6089 26.8598 64.8134C31.7558 61.7465 35.2918 56.4306 38.8278 50.842C41.8878 45.935 45.1518 40.4828 49.2998 36.3936L49.3678 36.3255C49.7758 35.9166 50.2518 35.5076 50.6598 35.0987L50.3198 34.0764C48.6878 35.4395 47.2598 36.9388 45.8318 38.5745C45.8318 38.5745 45.8318 38.6427 45.7638 38.6427C43.1118 41.8459 40.8678 45.458 38.7598 48.7974C37.6038 50.5694 36.5158 52.3414 35.2918 54.1134C35.2918 54.1134 35.2918 54.1815 35.2238 54.1815C34.7478 54.8631 34.2038 55.5446 33.7278 56.2943C33.7278 56.2943 33.7278 56.3624 33.6598 56.3624C33.3198 56.8395 32.9118 57.3166 32.5038 57.7936C32.5038 57.7936 32.5038 57.8618 32.4358 57.8618C31.8918 58.5433 31.2798 59.2248 30.6678 59.9064C30.6678 59.9064 30.6678 59.9745 30.5998 59.9745C30.3278 60.4516 29.7838 60.9968 29.3078 61.542ZM29.1038 61.065C29.4438 60.7242 29.8518 60.3153 30.1918 59.9745C27.9478 59.6338 26.6558 58.5433 26.1798 57.1803C25.8398 57.4529 25.6358 57.6573 25.3638 57.7936C25.4318 57.9299 25.4998 58.0662 25.5678 58.2025C25.5678 58.2025 25.6358 58.2707 25.6358 58.3389C26.5198 59.7701 27.5398 60.2471 29.1038 61.065ZM30.5318 59.4975C30.8718 59.0885 31.2798 58.6796 31.6198 58.2707C27.4718 59.4293 24.8198 52.8866 31.9598 50.2287C31.4158 50.0242 30.9398 49.8879 30.4638 49.6153C25.8398 51.6599 24.2758 58.6796 30.5318 59.4975ZM32.2998 57.4529C32.6398 56.9758 33.0478 56.5669 33.3878 56.0898C33.5238 54.8631 33.2518 53.5 31.6878 52.8185C31.2798 53.0229 30.8718 53.2955 30.5318 53.6363C32.7758 53.9771 32.7078 56.8395 30.6678 56.8395C28.9678 56.8395 29.0358 54.7268 29.7838 53.7045C29.7838 53.7045 29.7838 53.6363 29.8518 53.6363C30.1918 53.1592 30.7358 52.7503 31.4838 52.3414C31.4838 52.3414 31.5518 52.3414 31.5518 52.2732C32.0958 52.0006 32.7758 51.7962 33.5238 51.5917H33.5918C34.0678 51.4554 34.5438 51.3873 35.1558 51.3191C34.7478 51.1146 34.2038 50.9783 33.7278 50.7739C33.3878 50.6376 33.0478 50.5694 32.6398 50.4331C25.0918 52.8866 28.1518 59.6338 32.2998 57.4529ZM33.8638 55.3401C34.2038 54.8631 34.5438 54.386 34.8838 53.9089C34.8158 53.4318 34.2718 52.5459 33.6598 52.0688C33.1838 52.2051 32.7078 52.3414 32.2318 52.5459C33.4558 53.2274 33.8638 54.3178 33.8638 55.3401ZM35.2238 53.4318C35.5638 52.8866 35.9038 52.4095 36.2438 51.8643C36.1758 51.7962 36.0398 51.728 35.9718 51.6599C35.4958 51.728 34.8838 51.7962 34.2038 51.9325C34.6798 52.4095 35.0198 52.9548 35.2238 53.4318ZM36.5158 51.5236C36.8558 50.9783 37.1958 50.4331 37.6038 49.8879C36.2438 49.5471 33.8638 49.7516 32.2998 49.7516C32.8438 49.956 33.3878 50.0924 33.9318 50.2968C34.7478 50.5694 35.4958 50.842 36.1758 51.2509C36.1758 51.2509 36.2438 51.251 36.2438 51.3191C36.3118 51.3873 36.4478 51.4554 36.5158 51.5236ZM37.8758 49.4108C38.1478 49.0019 38.3518 48.593 38.6238 48.2522C37.1278 47.7752 34.7478 47.9115 33.2518 47.9115C31.4838 47.9115 29.5798 47.9796 28.1518 47.5707C28.8998 48.2522 29.8518 48.7974 30.8718 49.2064C31.6198 49.3427 33.4558 49.2064 34.0678 49.2064C35.4278 49.2064 36.9238 49.2064 37.8758 49.4108ZM38.8958 47.8433C39.0998 47.5025 39.3038 47.1618 39.5078 46.821C37.6038 46.0713 34.5438 46.3439 32.5718 46.3439C30.3278 46.3439 28.0158 46.2076 26.5198 44.9809C26.7238 45.7306 27.0638 46.3439 27.4718 46.8892C29.6478 47.8433 33.8638 47.3662 36.3798 47.4344C37.3318 47.5025 38.2158 47.5707 38.8958 47.8433ZM39.7798 46.4121C39.9838 46.0713 40.1878 45.7306 40.4598 45.3898C39.7118 45.1172 38.9638 44.9809 38.2158 44.8446H38.1478C36.2438 44.572 34.3398 44.6401 32.2998 44.6401C31.0078 44.6401 29.8518 44.572 28.7638 44.2994H28.6958C27.8118 44.0267 27.0638 43.5497 26.4518 42.6637C26.3838 42.7318 26.3158 42.8 26.2478 42.9363C26.2478 43.3452 26.3158 43.686 26.3838 44.0949C27.6078 45.7306 29.9878 45.935 32.6398 45.935C34.6798 45.8669 37.8078 45.5943 39.7798 46.4121ZM45.6958 38.0974C45.8998 37.8248 46.1718 37.5522 46.3758 37.2796C45.0838 36.8707 43.8598 36.5299 42.6358 36.3936H42.5678C42.0238 36.3255 41.4798 36.2573 40.9358 36.1892C41.1398 36.4618 41.2758 36.9388 41.2758 37.4841C41.5478 37.7567 41.7518 38.0974 41.7518 38.4382C42.0918 38.2338 42.5678 38.1656 43.1118 38.3019C43.5198 37.3478 44.8798 37.1433 45.6958 38.0974ZM18.7678 67.0624L23.1878 63.7229C22.9838 63.314 22.7798 62.9732 22.5758 62.5643L18.8358 64.8134C18.5638 64.9497 18.2918 64.5408 18.5638 64.4045L22.3038 62.0873C22.1678 61.7465 22.0318 61.4739 21.8958 61.1331L16.7958 63.5185C17.4078 64.7452 18.0878 65.9038 18.7678 67.0624ZM23.4598 64.1318L19.0398 67.4713C19.7878 68.5618 20.6038 69.6522 21.5558 70.7427L25.0238 66.5853C24.8198 66.2446 24.5478 65.972 24.3438 65.6312L21.0118 68.9025C20.8078 69.107 20.4678 68.7662 20.6718 68.5618L24.0718 65.2223C23.8678 64.8815 23.6638 64.4726 23.4598 64.1318ZM16.7278 63.1096L21.8278 60.7242C21.6918 60.3834 21.5558 60.0427 21.4878 59.7019L17.3398 60.9287C16.9998 60.9968 16.8638 60.5197 17.2038 60.4516L21.3518 59.2248C21.2158 58.7478 21.0798 58.3389 21.0118 57.8618L15.5038 59.0204C15.7078 60.4516 16.1838 61.7465 16.7278 63.1096ZM15.2998 58.6115L20.8078 57.4529C20.7398 57.0439 20.6718 56.635 20.6038 56.2943L16.1838 56.7032C15.8438 56.7032 15.8438 56.2261 16.1158 56.2261L20.5358 55.8172C20.4678 55.4083 20.4678 54.9312 20.3998 54.5223L14.7558 54.386C14.8238 55.749 15.0278 57.1803 15.2998 58.6115ZM14.7558 53.8408L20.3998 53.9771C20.3998 53.5681 20.3998 53.2274 20.3998 52.8185L16.0478 52.3414C15.7078 52.2732 15.7758 51.7962 16.1158 51.8643L20.4678 52.3414C20.4678 51.8643 20.5358 51.3873 20.6038 50.9102L15.0958 49.7516C14.8918 51.1146 14.7558 52.4777 14.7558 53.8408ZM15.1638 49.2745L20.6718 50.4331C20.7398 50.0242 20.8078 49.6834 20.8758 49.3427L16.6598 47.9796C16.3198 47.9115 16.5238 47.4344 16.7958 47.5025L20.9438 48.7974C21.0118 48.4567 21.1478 48.0478 21.2158 47.707L16.1158 45.1853C15.7758 46.4803 15.3678 47.8433 15.1638 49.2745ZM16.3878 44.7083L21.4198 47.2299C21.5558 46.8892 21.6918 46.4802 21.8278 46.1395L17.9518 43.7541C17.6798 43.6178 17.9518 43.1408 18.2238 43.3452L22.0318 45.6624C22.1678 45.2535 22.3718 44.9127 22.5758 44.5038L18.0198 41.028C17.4078 42.2548 16.8638 43.4815 16.3878 44.7083ZM18.2238 40.6873L22.7798 44.1631C22.9158 43.8904 23.1198 43.5497 23.3238 43.2771L19.9918 40.0739C19.7878 39.8694 20.1278 39.5287 20.3318 39.7331L23.5958 42.8682C23.8678 42.4592 24.0718 42.1185 24.3438 41.7777L20.5358 37.3478C19.7198 38.3701 18.9038 39.4605 18.2238 40.6873ZM20.8078 36.9389L24.6158 41.3688C24.8878 41.0962 25.0918 40.7554 25.3638 40.4828L22.5078 36.5981C22.3038 36.3255 22.7118 36.0529 22.9158 36.3255L25.7038 40.142C25.9758 39.8694 26.2478 39.5287 26.5878 39.256L23.5958 34.0764C22.5758 34.8943 21.6918 35.8484 20.8078 36.9389ZM23.9358 33.6675L26.9278 38.8471C27.1998 38.6427 27.4718 38.3701 27.7438 38.1656L25.7718 33.5994C25.6358 33.3267 26.1118 33.1223 26.2478 33.3949L28.1518 37.8248C28.4918 37.5522 28.8318 37.2796 29.2398 37.0752L27.2678 31.1459C26.1118 31.9637 24.9558 32.7815 23.9358 33.6675ZM27.6758 30.9414L29.6478 36.8707C29.9878 36.6662 30.2598 36.4618 30.5998 36.3255L29.4438 31.3503C29.3758 31.0096 29.8518 30.9414 29.9198 31.214L31.0758 35.9847C31.4158 35.7803 31.7558 35.6439 32.0958 35.4395L31.2118 29.0331C29.9878 29.6465 28.8318 30.2599 27.6758 30.9414ZM31.6878 28.8968L32.5718 35.3032C32.9118 35.1669 33.3198 35.0306 33.7278 34.8943L33.5238 29.5783C33.5238 29.2376 33.9998 29.2376 33.9998 29.5783L34.1358 34.758C34.4758 34.6217 34.8838 34.5535 35.2918 34.4172L35.7678 27.7382C34.3398 28.0108 32.9798 28.4197 31.6878 28.8968ZM36.2438 27.6701L35.7678 34.349C36.1758 34.2809 36.6518 34.1446 37.0598 34.1446L37.8758 28.8968C37.9438 28.556 38.4198 28.6242 38.3518 28.965L37.6038 34.0764C37.9438 34.0083 38.2838 34.0083 38.6238 34.0083L40.3238 27.3293C38.9638 27.2611 37.6038 27.3974 36.2438 27.6701ZM40.8678 27.2611L39.1678 33.9401C39.5758 33.9401 40.0518 33.9401 40.4598 33.9401L42.0918 28.6924C42.1598 28.3516 42.6358 28.556 42.5678 28.8287L40.9358 33.9401C41.3438 34.0083 41.7518 34.0083 42.1598 34.0764L44.9478 27.5338C43.5878 27.3293 42.2278 27.2611 40.8678 27.2611ZM45.4238 27.6701L42.6358 34.2127C42.9758 34.2809 43.3838 34.349 43.7238 34.4853L46.4438 29.1694C46.5798 28.8968 47.0558 29.1013 46.8518 29.3739L44.1318 34.5535C44.6078 34.6898 45.0838 34.8261 45.5598 35.0306L49.3678 28.6924C48.0758 28.2153 46.7838 27.8745 45.4238 27.6701ZM36.6518 42.3229C36.6518 42.3911 36.6518 42.3911 36.5838 42.4592C36.5838 42.5274 36.5158 42.5274 36.4478 42.5274C36.4478 42.5274 36.4478 42.5274 36.3798 42.5274C35.9718 42.5955 35.5638 42.5955 35.1558 42.5274C35.0878 42.5955 35.0878 42.5955 35.0198 42.6637C35.0878 43.1408 35.2918 43.686 35.8358 44.2312C36.1758 44.2312 36.5838 44.2312 36.9238 44.2994L38.0118 39.8694C36.7878 39.5287 36.5158 37.4159 38.0798 37.1433C38.0798 36.8025 38.2158 36.4618 38.4198 36.2573C37.6038 36.3255 36.7878 36.3936 35.9718 36.5981L36.1758 39.1197V39.1879V39.4605C36.1758 39.8013 35.6998 39.8013 35.6998 39.5287V39.3242L34.6798 38.6427C34.4078 38.8471 34.2718 39.1879 34.2718 39.5287C34.2718 40.2102 34.8158 40.7554 35.4958 40.7554C35.6318 40.7554 35.6998 40.7554 35.8358 40.6873V40.6191C35.8358 40.2783 36.3118 40.2783 36.3118 40.551V40.8236V40.8917L36.6518 42.3229C36.6518 42.2548 36.6518 42.3229 36.6518 42.3229ZM34.8838 37.8248L35.0198 37.893C35.0198 37.893 35.0198 37.893 35.0878 37.893L35.9038 38.4382L35.6998 36.4618C35.0878 36.5981 34.4758 36.8025 33.8638 37.007C32.5718 38.3701 32.7758 39.8694 33.5238 40.8236L33.5918 40.8917C34.2038 41.6414 35.2238 42.0503 36.1758 41.914L36.0398 41.028C35.9038 41.028 35.7678 41.0962 35.6318 41.0962C34.6798 41.0962 33.9318 40.3465 33.9318 39.3924C33.9318 38.9153 34.1358 38.5064 34.4758 38.1656C34.4078 37.9611 34.6118 37.6885 34.8838 37.8248ZM34.6118 42.3229C34.0678 42.1185 33.5918 41.7777 33.2518 41.4369C31.5518 41.8459 30.0558 40.6191 29.5118 39.5287C28.8998 40.0057 28.3558 40.4828 27.8798 40.9599L28.8998 41.2325C28.8998 41.2325 28.8998 41.2325 28.9678 41.2325L29.2398 41.3006C29.3078 41.3006 29.3078 41.3006 29.3758 41.3688C29.4438 41.3688 29.4438 41.4369 29.4438 41.4369C30.5998 42.8681 33.5238 42.8681 34.6118 42.3229ZM32.9118 40.9599C32.2318 40.0057 32.0958 38.779 32.9118 37.4841C31.8238 37.9611 30.8038 38.5745 29.9198 39.256C30.3278 40.142 31.5518 41.1643 32.9118 40.9599ZM29.0358 41.7777C28.8318 42.2548 28.8318 43.2771 28.9678 43.8223C29.9198 44.0949 31.0078 44.1631 32.2318 44.1631C33.2518 44.1631 34.2718 44.1631 35.2238 44.1631C34.8838 43.7541 34.6798 43.2771 34.6118 42.8682C33.1838 43.4134 30.3278 43.2089 29.0358 41.7777ZM29.8518 49.3427C29.5118 49.2064 29.2398 49.0019 28.9678 48.7974C28.6278 49.0701 28.2878 49.3427 27.9478 49.5471C27.9478 49.5471 27.9478 49.5471 27.8798 49.5471C27.2678 50.0924 26.7238 50.5694 26.3158 51.0465C26.3158 51.0465 26.3158 51.0465 26.2478 51.1146C26.0438 51.3191 25.9078 51.5236 25.7718 51.7962C25.7718 51.7962 25.7718 51.8643 25.7038 51.8643C25.1598 52.7503 24.8878 53.5 24.7518 54.2497C24.5478 55.272 24.6838 56.635 24.0718 57.521C25.0238 57.4529 25.2958 57.1803 25.8398 56.635C25.4318 54.0452 27.2678 50.7057 29.8518 49.3427ZM30.1918 54.0452C30.1238 54.1134 30.0558 54.2497 29.9878 54.3178C29.4438 55.4083 30.0558 56.2943 30.6678 56.2943C32.2318 56.2943 32.0958 54.1815 30.1918 54.0452ZM27.4038 49.4108C26.5878 48.7293 25.6358 48.0478 25.1598 47.0255C25.0918 47.5707 25.0918 48.1159 25.2278 48.593C25.4318 49.4108 25.8398 50.0924 26.1798 50.5694C26.5198 50.2287 26.9278 49.8197 27.4038 49.4108ZM25.6358 59.2248C25.7038 59.9064 25.7718 60.5879 25.6358 61.2694C26.3838 61.2013 26.7238 60.9968 27.1318 60.5879C26.5878 60.179 26.1118 59.7701 25.6358 59.2248ZM25.3638 50.1605L24.4798 50.6376L24.9558 51.6599C25.1598 51.5917 25.2958 51.5236 25.4998 51.4554C25.6358 51.3191 25.7718 51.1146 25.9078 50.9102C25.7038 50.7057 25.5678 50.4331 25.3638 50.1605ZM22.7118 54.5223C22.7118 54.7267 22.7118 54.9312 22.7798 55.1357C23.2558 54.7949 24.0038 54.3178 24.4118 54.1815C24.5478 53.5681 24.7518 52.9548 25.0918 52.2732C25.0238 52.2732 25.0238 52.3414 24.9558 52.3414C23.8678 52.8866 22.9158 54.1134 22.7118 54.5223ZM22.7798 51.3873C22.7118 52.1369 22.6438 52.8866 22.6438 53.6363C22.8478 53.2955 23.1878 52.9548 23.5278 52.614L22.7798 51.3873ZM23.0518 49.8197C22.9838 50.0924 22.9158 50.4331 22.9158 50.7057L23.9358 52.4096C24.1398 52.2732 24.2758 52.1369 24.4798 52.0006C23.6638 50.2287 23.4598 50.6376 25.1598 49.8197C25.0238 49.5471 24.9558 49.2745 24.8198 49.0019C24.4118 49.0701 23.6638 49.3427 23.0518 49.8197ZM25.7718 43.5497C24.6158 45.2535 23.7318 47.1618 23.2558 49.1382C23.7998 48.7974 24.3438 48.593 24.7518 48.4567C24.6158 47.707 24.6158 46.9573 24.9558 46.0713C25.0918 45.7987 25.3638 45.7987 25.4318 46.1395C25.6358 47.3662 26.8598 48.3204 27.8118 49.0701C28.0158 48.8656 28.2878 48.6611 28.5598 48.5248C27.1318 47.5025 26.0438 46.0032 25.7718 43.5497ZM27.4718 41.3688C27.1998 41.6414 26.9278 41.914 26.7238 42.2548C27.1998 42.9363 27.8118 43.3452 28.4918 43.686C28.4238 43.0726 28.4238 42.2548 28.5598 41.7096L27.4718 41.3688ZM41.1398 39.8013C40.9358 39.9376 40.6638 40.0057 40.3238 40.0057C40.2558 40.6873 40.1198 41.4369 40.2558 42.1185L41.5478 40.7554C41.2758 40.4146 41.1398 40.0739 41.1398 39.8013ZM39.6438 41.2325C39.3038 41.1643 38.8958 41.028 38.7598 40.6191C38.6918 40.4828 39.2358 40.551 39.3038 40.551C39.4398 40.551 39.5758 40.551 39.7118 40.4828C39.7118 40.2102 39.7798 39.9376 39.8478 39.665C39.8478 39.5968 39.8478 39.4605 39.9158 39.3924C39.9838 39.0516 40.4598 39.1197 40.3918 39.4605C41.8198 39.3242 41.5478 37.2796 40.0518 37.6204C39.7118 37.6885 39.6438 37.2115 39.9838 37.1433C40.3238 37.0752 40.5958 37.0752 40.8678 37.1433C40.7318 35.0987 37.5358 36.3255 39.3718 37.893C39.6438 38.0974 39.3038 38.5064 39.0318 38.2338C38.6918 37.9611 38.4878 37.6885 38.4198 37.4159C37.3318 37.6204 37.6038 38.9834 38.3518 39.1879V39.1197C38.4198 38.779 38.8958 38.9153 38.8278 39.256L38.7598 39.5287L37.5358 44.2994C37.7398 44.2994 37.9438 44.3675 38.1478 44.3675L39.8478 42.5274C39.7118 42.1185 39.6438 41.7096 39.6438 41.2325ZM42.0918 42.9363C41.8198 42.5955 41.7518 42.0503 41.8198 41.5732C41.8878 41.3688 42.0918 41.7095 42.1598 41.7777C42.2958 41.914 42.4998 41.9822 42.7038 42.1185C43.1118 41.5051 43.5198 40.9599 43.9278 40.3465C44.4038 39.7331 44.8798 39.0516 45.4238 38.4382C44.6078 37.4159 43.1798 38.0293 43.5878 39.5968C43.6558 39.9376 43.1798 40.0057 43.1118 39.7331C43.0438 39.3924 42.9758 39.0516 43.0438 38.779C41.9558 38.4382 41.2078 39.3924 41.8878 40.3465C42.0918 40.142 42.4318 40.4828 42.2278 40.6873L40.3238 42.7318L40.2558 42.8L38.7598 44.4357C39.4398 44.572 40.1198 44.7083 40.7998 44.9809C41.1398 44.2994 41.6158 43.6178 42.0918 42.9363ZM39.9158 56.5669C42.6358 55.4764 43.4518 53.2955 43.3158 51.5917C42.7038 52.4777 42.0918 53.3637 41.5478 54.2497C41.0038 54.9994 40.4598 55.749 39.9158 56.5669ZM45.2878 50.365C46.4438 49.2064 46.7838 47.9115 46.7838 46.7529C46.1718 47.5707 45.5598 48.3885 44.9478 49.2064C45.0838 49.6153 45.2198 49.956 45.2878 50.365ZM48.8238 46.0032C50.0478 44.9809 50.5238 43.9586 50.5238 42.6637C49.8438 43.2771 49.2318 43.8904 48.6198 44.572C48.6878 45.1172 48.7558 45.5943 48.8238 46.0032ZM48.7558 47.9796C51.2718 46.821 52.2918 44.0949 52.0878 41.3006C51.6798 41.5732 51.2718 41.914 50.9318 42.2548C51.0678 43.9586 50.4558 45.3217 48.8238 46.5484C48.8238 47.0936 48.8237 47.5707 48.7558 47.9796ZM38.9638 58.4752C41.8198 58.2025 44.3358 55.9535 44.8798 52.8866V52.8185C44.9478 52.2051 45.0158 51.5917 44.9478 50.9102V50.842C44.8798 50.4331 44.8118 50.0924 44.6758 49.6834C44.4038 50.0924 44.0638 50.5013 43.7918 50.9783C44.1998 53.1592 43.2478 56.158 39.5078 57.2484C39.2358 57.6573 38.8958 58.0662 38.5558 58.4752C38.6918 58.4752 38.8278 58.4752 38.9638 58.4752ZM28.4918 67.1306C28.5598 67.2669 28.6278 67.335 28.6278 67.4032C29.5798 66.858 30.4638 66.2446 31.3478 65.4949C31.3478 65.4949 31.3478 65.4949 31.4158 65.4949C31.8238 65.1541 32.2318 64.8134 32.6398 64.4726L32.7078 64.4045C33.1158 64.0637 33.4558 63.6548 33.8638 63.314C33.8638 63.314 33.8638 63.2459 33.9318 63.2459C34.4078 62.7688 34.9518 62.2236 35.4278 61.6783L35.4958 61.6102C35.9038 61.1331 36.3798 60.5879 36.7878 60.1108C36.7878 60.0427 36.8558 60.0427 36.8558 60.0427C37.1958 59.5656 37.6038 59.0885 37.9438 58.6115C37.9438 58.5433 37.9438 58.6115 38.0118 58.5433C38.4198 57.9981 38.8278 57.4529 39.1678 56.9076C39.1678 56.9076 39.1678 56.8395 39.2358 56.8395C40.6638 54.8631 42.0238 52.8185 43.3838 50.7739C43.3838 50.7739 43.3838 50.7057 43.4518 50.7057C43.8598 50.1605 44.1998 49.5471 44.6078 49.0019C44.6078 49.0019 44.6078 48.9338 44.6758 48.9338C45.3558 47.9796 46.0358 47.0936 46.7158 46.2076C46.7838 46.1395 46.8518 46.0713 46.9198 45.935C46.9198 45.935 46.9198 45.8669 46.9878 45.8669C47.3958 45.3898 47.8038 44.8446 48.2118 44.3675C48.2118 44.3675 48.2118 44.2994 48.2798 44.2994C49.0278 43.4815 49.8438 42.6637 50.5918 41.914L50.6598 41.8459C51.2038 41.3688 51.6798 40.9599 52.2238 40.6191L52.2918 40.551L52.3598 40.4828C52.3598 40.4828 52.3598 40.4828 52.4278 40.4828C52.4958 40.4146 52.5638 40.3465 52.6318 40.3465L52.1558 38.9834C51.8838 39.1879 51.6118 39.3924 51.4078 39.5968C51.4078 39.5968 51.4078 39.5968 51.3398 39.665C42.0918 47.3662 38.2158 59.7019 28.0838 66.449C28.2198 66.6535 28.3558 66.858 28.4918 67.1306ZM37.1958 68.0166C37.1958 68.0166 37.2638 68.0166 37.1958 68.0166C37.4678 68.0847 37.6718 68.0847 37.8758 68.0847C38.4878 68.0847 39.0318 67.8803 39.5078 67.5395C40.0518 67.0624 40.3918 66.3809 40.3918 65.6312C40.3918 65.2223 40.3238 64.8815 40.1878 64.6089V64.5408C39.7798 63.7229 38.8958 63.1096 37.9438 63.1096C37.8078 63.1096 37.6718 63.1096 37.6038 63.1096H37.5358C37.0598 63.1777 36.6518 63.3822 36.3118 63.6548H36.2438C35.6998 64.1318 35.3598 64.8134 35.3598 65.5631C35.3598 66.7217 36.1078 67.7439 37.1958 68.0166ZM30.6678 77.2172C31.4158 76.9446 32.0958 76.6038 32.6398 76.2631L32.7078 76.1949C33.2518 75.8541 33.7278 75.4452 34.2038 75.0363C34.2038 75.0363 34.2038 74.9682 34.2718 74.9682C36.4478 72.7873 37.0598 69.993 36.9918 68.4255C36.5158 68.2892 36.0398 67.9484 35.6998 67.6076C35.9718 70.4019 35.0878 73.8096 30.9398 75.8541C30.8718 75.9223 30.8718 75.9223 30.8038 75.9223C30.8038 75.9223 30.7358 75.9223 30.6678 75.9223C29.9878 75.7178 29.2398 75.3089 28.6278 74.9C28.5598 74.8318 28.5598 74.8318 28.4918 74.7637C27.9478 74.3548 27.4718 73.8096 27.1318 73.2643C27.0638 73.1962 27.0638 73.1962 27.0638 73.128C26.2478 71.6968 26.3838 70.0611 28.6958 68.6981C28.5598 68.3573 28.4238 68.0166 28.2878 67.6758C23.5278 70.8108 25.3638 74.7637 30.6678 77.2172ZM32.8438 76.672C32.3678 76.9446 31.8238 77.2172 31.2798 77.4898C34.0678 78.6484 37.6718 79.3981 41.4798 79.3299C39.2358 78.4439 35.0198 77.149 32.8438 76.672ZM34.4758 75.4452C34.1358 75.7178 33.7958 76.0586 33.4558 76.2631C36.1758 76.8764 41.0038 78.4439 42.7038 79.1936C43.7238 79.1255 44.8118 78.9892 45.8318 78.8529C42.9078 77.9669 37.0598 76.1267 34.4758 75.4452ZM37.3998 68.5618C37.3998 70.1974 36.8558 72.9236 34.8158 75.1045C37.8078 75.8541 44.3358 77.8987 46.7158 78.7847C47.0558 78.7166 47.3958 78.6484 47.6678 78.5803C47.2598 76.672 47.2598 73.8777 48.2118 70.8108C45.4918 70.6064 42.4318 69.7885 39.5758 68.0166C39.0998 68.3573 38.4878 68.6299 37.8078 68.6299C37.7398 68.5618 37.5358 68.5618 37.3998 68.5618ZM37.3998 61.951C37.4678 62.1554 37.5358 62.3599 37.6038 62.5643C37.6718 62.5643 37.8078 62.5643 37.8758 62.5643C38.3518 62.5643 38.8278 62.7006 39.2358 62.9051C39.5078 61.542 38.2158 60.9968 37.3998 61.951ZM39.1678 59.4975C41.3438 60.0427 42.0918 62.7688 40.7318 64.4045C40.8678 64.7452 40.9358 65.1541 40.9358 65.5631C40.9358 66.3809 40.5958 67.1306 40.1198 67.6758C44.3358 70.2656 49.0958 70.7427 52.2238 70.0611C55.4878 69.3796 56.6438 67.6076 54.6038 65.6994C54.2638 65.3586 55.2158 64.4726 55.9638 64.4045C56.0318 63.9274 55.8278 63.5866 55.4878 63.3822C54.4678 63.314 52.8358 63.7911 51.7478 64.0637C51.6798 64.2682 51.3398 64.3363 51.2718 64.0637C51.1358 63.7229 51.4758 63.1777 51.5438 63.0414C51.6798 62.7006 52.0878 62.9051 51.9518 63.2459C51.8838 63.314 51.8158 63.4503 51.8158 63.5866C52.9038 63.314 54.3997 62.8369 55.4878 62.9051C55.7598 62.7006 56.4398 62.2236 56.3038 61.8146C56.2358 61.7465 56.1678 61.6102 56.0318 61.4057C55.4878 60.7242 55.7598 60.2471 56.2358 59.7019C55.4198 59.5656 54.3318 59.7019 53.7878 60.3153C53.4478 60.656 52.9038 59.7019 52.8358 59.5656C52.6318 59.0204 52.6318 58.3389 53.4478 57.5892C53.6518 57.3847 53.9918 57.7255 53.7878 57.9299C53.1758 58.5433 52.9718 59.1567 53.5838 59.7701C54.4678 59.0885 55.6918 58.9522 56.7118 59.2248C58.5478 59.0885 58.4118 58.3388 57.9357 57.0439C57.7318 56.4987 57.4598 55.8853 57.2557 55.2038C56.8478 54.1815 56.0998 52.0688 55.3518 49.7516C53.2438 48.9338 50.2518 49.4108 48.0078 50.4331C47.4638 51.3191 46.6478 52.1369 45.4918 52.9548C44.9478 56.0898 42.3638 58.4752 39.3718 58.8159L39.1678 59.4975ZM38.6238 59.4293L38.6918 58.9522C38.4878 58.9522 38.3518 58.9522 38.1478 58.9522C37.8078 59.4293 37.4678 59.8382 37.1278 60.2471C37.1278 60.656 37.1958 60.9968 37.2638 61.3376C38.2838 60.4516 40.2558 61.065 39.6438 63.1096C39.9838 63.314 40.2558 63.6548 40.4598 63.9274C41.5478 62.428 40.5958 59.9745 38.4878 59.9064C38.1478 59.9064 38.1478 59.4293 38.4878 59.4293C38.5558 59.4293 38.6238 59.4293 38.6238 59.4293ZM47.0558 41.9822C47.0558 42.2548 46.8518 42.4592 46.5798 42.4592C46.3078 42.4592 46.1038 42.2548 46.1038 41.9822C46.1038 41.7095 46.3078 41.5051 46.5798 41.5051C46.8518 41.5732 47.0558 41.7777 47.0558 41.9822ZM48.3478 40.4828C48.3478 40.7554 48.1438 40.9599 47.8718 40.9599C47.5998 40.9599 47.3958 40.7554 47.3958 40.4828C47.3958 40.2102 47.5998 40.0057 47.8718 40.0057C48.1438 40.0057 48.3478 40.2102 48.3478 40.4828ZM45.8318 43.6178C45.8318 43.8223 45.6278 44.0267 45.4238 44.0267C45.2198 44.0267 45.0158 43.8223 45.0158 43.6178C45.0158 43.4134 45.2198 43.2089 45.4238 43.2089C45.6278 43.2089 45.8318 43.4134 45.8318 43.6178ZM31.9598 39.256C31.9598 39.5287 31.7558 39.7331 31.4838 39.7331C31.2118 39.7331 31.0078 39.5287 31.0078 39.256C31.0078 38.9834 31.2118 38.779 31.4838 38.779C31.7558 38.779 31.9598 38.9834 31.9598 39.256ZM37.8758 66.449C38.3518 66.449 38.7598 66.0401 38.7598 65.5631C38.7598 65.086 38.3518 64.6771 37.8758 64.6771C37.3998 64.6771 36.9918 65.086 36.9918 65.5631C36.9918 66.0401 37.3998 66.449 37.8758 66.449ZM37.8758 66.9261C37.1278 66.9261 36.5158 66.3127 36.5158 65.5631C36.5158 64.8134 37.1278 64.2 37.8758 64.2C38.6238 64.2 39.2358 64.8134 39.2358 65.5631C39.2358 66.3127 38.6238 66.9261 37.8758 66.9261ZM49.4357 53.9089C49.2998 53.5 49.2318 53.0229 49.2998 52.4777C48.5518 52.6822 47.8718 53.0229 47.2598 53.5C47.4638 53.5681 47.8038 53.6363 48.2118 53.7726C48.5518 53.8408 48.9598 53.9089 49.4357 53.9089ZM49.7757 52.3414C49.7078 53.0229 49.7758 53.5 49.9118 53.9089C50.2518 53.9089 50.5238 53.9089 50.8638 53.8408C50.7278 53.6363 50.5918 53.2955 50.5918 53.0229C50.5918 52.6822 50.5918 52.4096 50.7278 52.1369C50.4558 52.2051 50.1157 52.2732 49.7757 52.3414ZM51.8158 51.5917C52.1558 51.5917 52.4958 51.5236 52.6998 51.5917C52.8358 51.5917 52.9038 51.728 52.9038 51.8643C52.9038 52.1369 52.4958 52.3414 52.2238 52.4096C52.2918 52.5459 52.2918 52.6822 52.2918 52.8866C52.3598 53.5681 52.0878 54.1815 51.6118 54.3178C51.6118 54.3178 51.6118 54.3178 51.5438 54.3178C50.9998 54.386 50.3878 54.4541 49.7078 54.4541C49.6398 54.4541 49.6398 54.4541 49.5718 54.4541C48.5518 54.4541 47.5317 54.2497 46.7158 53.9089C46.5117 54.1815 46.1038 53.8408 46.3758 53.5681C46.3758 53.5681 46.4438 53.5 46.5118 53.4318C46.5118 53.4318 46.5118 53.4318 46.5798 53.3637C47.1918 52.8866 48.8237 51.6599 51.8158 51.5917Z" fill="#94A3B8"/>
<path d="M69.1558 33.1904V34.0764H71.8758V42.5274H72.8958V34.0764H75.6158V33.1904H69.1558ZM77.7238 33.1904V42.5274H82.7558V41.6414H78.7438V38.1656H82.4158V37.2796H78.7438V34.0764H82.7558V33.1904H77.7238ZM89.6918 33.8038C90.5758 33.8038 91.3918 34.0083 92.0718 34.4853L92.4798 33.7357C91.5958 33.2586 90.7118 33.0541 89.6918 33.0541C86.9718 33.0541 84.7958 35.0306 84.7958 37.893C84.7958 40.9599 86.9718 42.7318 89.6918 42.7318C90.6438 42.7318 91.6638 42.3911 92.4798 41.914L92.1398 41.2325C91.3918 41.6414 90.5758 41.914 89.7598 41.914C87.5158 41.914 85.8838 40.142 85.8838 37.893C85.8158 35.5758 87.3798 33.8038 89.6918 33.8038ZM94.8598 33.1904V42.5274H95.8798V38.0293H100.98V42.5274H102V33.1904H100.98V37.2115H95.8798V33.1904H94.8598ZM106.42 32.986L105.332 33.2586V42.5274H106.352V34.4853L111.792 42.7318L112.88 42.4592V33.1904H111.928V41.1643L106.42 32.986ZM116.62 33.1904V42.5274H117.64V33.1904H116.62ZM123.012 41.9822C122.264 41.9822 121.516 41.6414 121.04 41.3006L120.632 41.9822C121.38 42.4592 122.128 42.6637 123.08 42.6637C125.12 42.6637 126.072 41.3688 126.072 40.0057C126.072 38.5745 125.052 37.9611 124.032 37.4841L123.216 37.0752C122.536 36.7344 121.788 36.2573 121.788 35.4395C121.788 34.2127 122.808 33.6675 123.624 33.6675C124.508 33.6675 125.052 33.9401 125.596 34.349L125.936 33.6675C125.188 33.2586 124.44 32.986 123.556 32.986C121.924 32.986 120.768 34.0083 120.768 35.3713C120.768 37.3478 122.196 37.6885 123.556 38.3701C124.304 38.7108 124.916 39.1879 124.916 40.142C124.984 41.2325 124.1 41.9822 123.012 41.9822ZM133.212 33.8038C134.096 33.8038 134.912 34.0083 135.592 34.4853L136 33.7357C135.116 33.2586 134.232 33.0541 133.212 33.0541C130.492 33.0541 128.316 35.0306 128.316 37.893C128.316 40.9599 130.492 42.7318 133.212 42.7318C134.164 42.7318 135.184 42.3911 136 41.914L135.66 41.2325C134.912 41.6414 134.096 41.914 133.28 41.914C131.036 41.914 129.404 40.142 129.404 37.893C129.336 35.5758 130.968 33.8038 133.212 33.8038ZM138.652 33.1904V42.5274H139.672V38.0293H144.772V42.5274H145.792V33.1904H144.772V37.2115H139.672V33.1904H138.652ZM149.124 33.1904V42.5274H154.224V41.6414H150.212V38.1656H153.884V37.2796H150.212V34.0764H154.224V33.1904H149.124ZM77.4518 54.7268V48.593H76.4318V54.5904C76.4318 56.7032 75.4118 57.3166 73.8478 57.3166C72.0798 57.3166 71.3318 56.3624 71.3318 54.5904V48.593H70.2438V54.7949C70.2438 56.9076 71.4678 58.0662 73.7798 58.0662C75.5478 58.1344 77.4518 57.5892 77.4518 54.7268ZM81.4638 48.4567L80.3758 48.7293V57.9981H81.3958V49.9561L86.8358 58.2025L87.9238 57.9299V48.6611H86.9718V56.635L81.4638 48.4567ZM91.2558 48.6611V57.9981H92.2758V48.6611H91.2558ZM95.2678 48.5248L94.2478 48.8656L97.7838 57.9981H98.8038L102.408 48.8656L101.388 48.5248L98.3278 56.9076L95.2678 48.5248ZM104.448 48.6611V57.9981H109.48V57.1121H105.468V53.5681H109.072V52.6822H105.468V49.479H109.48V48.593H104.448V48.6611ZM114.24 53.1592H113.016V49.4108H114.512C116.144 49.4108 116.62 50.2287 116.62 51.2509C116.62 52.8185 115.464 53.1592 114.24 53.1592ZM114.784 48.6611H111.996V57.9981H113.016V53.9771H113.9C114.58 53.9771 114.92 54.2497 115.328 54.7268L115.736 55.272L117.912 58.2707L118.796 57.7255L116.96 55.2038C116.62 54.7267 116.076 53.9089 115.532 53.7045V53.5C116.824 53.2955 117.572 52.614 117.572 51.0465C117.572 49.6153 116.552 48.6611 114.784 48.6611ZM122.536 57.4529C121.788 57.4529 121.04 57.1121 120.564 56.7713L120.156 57.4529C120.904 57.9299 121.652 58.1344 122.604 58.1344C124.644 58.1344 125.596 56.8395 125.596 55.4764C125.596 54.0452 124.576 53.4318 123.556 52.9548L122.74 52.5459C122.06 52.2051 121.312 51.728 121.312 50.9102C121.312 49.6834 122.332 49.1382 123.148 49.1382C124.032 49.1382 124.576 49.479 125.12 49.8197L125.46 49.1382C124.712 48.7293 123.964 48.4567 123.08 48.4567C121.448 48.4567 120.292 49.479 120.292 50.842C120.292 52.8185 121.72 53.1592 123.08 53.8408C123.828 54.1815 124.44 54.6586 124.44 55.6127C124.508 56.7713 123.692 57.4529 122.536 57.4529ZM128.384 48.6611V57.9981H129.404V48.6611H128.384ZM131.444 48.6611V49.5471H134.164V57.9981H135.184V49.479H137.904V48.593H131.444V48.6611ZM142.664 49.5471L144.364 54.1815H140.896L142.664 49.5471ZM146.88 57.8618L143.208 48.6611H142.12L138.312 57.8618L139.332 58.2025L140.556 54.9312H144.636L145.86 58.2025L146.88 57.8618ZM145.316 48.0478H144.364V49.2745H145.316V48.0478ZM140.964 49.2745V48.0478H140.012V49.2745H140.964ZM147.832 48.6611V49.5471H150.552V57.9981H151.572V49.5471H154.292V48.6611H147.832ZM72.6238 72.5828H71.2638V64.8815H72.8278C75.4118 64.8815 77.1118 66.1764 77.1118 68.6981C77.1798 71.1516 75.4118 72.5828 72.6238 72.5828ZM73.0998 64.0637H70.2438V73.4006H72.7598C75.9558 73.4006 78.1318 71.765 78.1318 68.6299C78.1318 66.3127 76.8398 64.0637 73.0998 64.0637ZM83.9118 65.0178L85.6118 69.6522H82.1438L83.9118 65.0178ZM88.1278 73.2643L84.4558 64.0637H83.3678L79.5598 73.2643L80.5798 73.6051L81.8038 70.3338H85.8838L87.1078 73.6051L88.1278 73.2643ZM92.8878 68.6299H91.6638V64.8815H93.1598C94.7918 64.8815 95.2678 65.6994 95.2678 66.7217C95.2678 68.221 94.1118 68.6299 92.8878 68.6299ZM93.4318 64.0637H90.6438V73.4006H91.6638V69.3796H92.5478C93.2278 69.3796 93.5678 69.6522 93.9758 70.1293L94.3838 70.6745L96.5598 73.6732L97.4438 73.128L95.6078 70.6745C95.2678 70.1974 94.7238 69.3796 94.1798 69.2433V69.0389C95.4718 68.8344 96.2198 68.1529 96.2198 66.5853C96.2198 65.086 95.1998 64.0637 93.4318 64.0637ZM103.224 64.0637H102.068L99.4838 73.2643L100.504 73.5369L102.68 65.4268L105.06 73.3325H106.216L108.596 65.3586L110.772 73.4688L111.792 73.1962L109.14 64.0637H107.984L105.604 72.1739L103.224 64.0637ZM116.212 72.8554C115.464 72.8554 114.716 72.5146 114.24 72.1739L113.832 72.8554C114.58 73.3325 115.328 73.5369 116.28 73.5369C118.32 73.5369 119.272 72.242 119.272 70.879C119.272 69.4478 118.252 68.8344 117.232 68.3573L116.416 67.9484C115.736 67.6076 114.988 67.1306 114.988 66.3127C114.988 65.086 116.008 64.5408 116.824 64.5408C117.708 64.5408 118.252 64.8134 118.796 65.2223L119.136 64.5408C118.388 64.1318 117.64 63.8592 116.756 63.8592C115.124 63.8592 113.968 64.8815 113.968 66.2446C113.968 68.221 115.396 68.5618 116.756 69.2433C117.504 69.5841 118.116 70.0611 118.116 71.0153C118.184 72.1739 117.368 72.8554 116.212 72.8554ZM120.972 64.0637V64.9497H123.692V73.4006H124.712V64.9497H127.432V64.0637H120.972ZM132.328 65.0178L134.028 69.6522H130.56L132.328 65.0178ZM136.544 73.3325L132.872 64.0637H131.784L127.976 73.2643L128.996 73.6051L130.22 70.3338H134.3L135.524 73.6051L136.544 73.3325ZM141.1 72.5828H139.74V64.8815H141.304C143.888 64.8815 145.588 66.1764 145.588 68.6981C145.588 71.1516 143.82 72.5828 141.1 72.5828ZM141.508 64.0637H138.652V73.4006H141.168C144.364 73.4006 146.54 71.765 146.54 68.6299C146.54 66.3127 145.248 64.0637 141.508 64.0637ZM147.832 64.0637V64.9497H150.552V73.4006H151.572V64.9497H154.292V64.0637H147.832Z" fill="#94A3B8"/>
</svg>
