<svg xmlns="http://www.w3.org/2000/svg" width="180" height="100"><path d="M96.167 22.408a6.198 6.198 0 0 1-12.395 0 6.198 6.198 0 0 1 12.395 0zm4.423 3.16c2.844 2.832 4.399 6.611 4.399 10.621s-1.568 7.79-4.399 10.621-6.611 4.399-10.621 4.399-7.79-1.568-10.621-4.399-4.399-6.611-4.399-10.621 1.568-7.79 4.399-10.621a20.66 20.66 0 0 1 .753-.705l-3.427-3.427c-.255.231-.498.462-.741.705-1.823 1.823-3.257 3.95-4.253 6.319-1.033 2.455-1.568 5.055-1.568 7.729a19.53 19.53 0 0 0 1.568 7.729c.996 2.37 2.43 4.496 4.253 6.319s3.95 3.257 6.319 4.253c2.455 1.033 5.055 1.568 7.729 1.568a19.53 19.53 0 0 0 7.729-1.568c2.37-.996 4.496-2.43 6.319-4.253s3.257-3.95 4.253-6.319c1.033-2.455 1.568-5.055 1.568-7.729a19.53 19.53 0 0 0-1.568-7.729c-.996-2.37-2.43-4.496-4.253-6.319a20.32 20.32 0 0 0-.741-.705l-3.427 3.427.729.705zM88.244 48.305V33.017l-6.161-6.161c-2.649 2.248-4.338 5.59-4.338 9.345 0 6.161 4.569 11.265 10.5 12.104zm3.451 0c5.93-.839 10.5-5.943 10.5-12.104 0-3.743-1.689-7.097-4.338-9.345l-6.161 6.161zm38.365 31.426c.45.401.668.96.668 1.677s-.219 1.288-.644 1.701c-.437.413-1.094.632-1.981.632h-1.531v-4.618h1.592c.814 0 1.458.207 1.896.608zm-.109 1.701c0-1.057-.608-1.592-1.823-1.592h-.778V83h.863c.559 0 .984-.134 1.288-.401.292-.255.45-.644.45-1.167zm-8.458-2.309h.778v4.618h-.851l-2.613-3.366v3.366h-.778v-4.618h.778l2.686 3.451zm-10.731 3.573l-.462 1.045h-.839l2.029-4.618h.839l2.029 4.618h-.839l-.462-1.045zm1.993-.717l-.839-1.908-.839 1.908zm-9.418 1.762v-4.618h.778V83h2.102v.741zm-8.154 0v-4.618h.778v2.005h2.297v-2.005h.778v4.618h-.778v-1.896h-2.297v1.896zm-5.772-.705c.267 0 .498-.049.693-.134s.401-.231.608-.437l.498.51c-.486.547-1.082.814-1.786.814-.693 0-1.276-.219-1.738-.668s-.693-1.021-.693-1.701.231-1.264.705-1.713 1.057-.693 1.774-.693 1.312.267 1.799.79l-.498.547c-.219-.207-.425-.365-.62-.437a1.96 1.96 0 0 0-.693-.122c-.462 0-.863.146-1.179.45s-.474.693-.474 1.154c0 .474.158.863.474 1.179.328.304.705.462 1.13.462zm-7.887-3.305c-.231 0-.413.049-.559.134a.47.47 0 0 0-.219.425c0 .182.073.328.219.425s.45.207.924.316.826.28 1.069.486.365.51.365.911a1.23 1.23 0 0 1-.462.984c-.304.255-.705.377-1.191.377-.717 0-1.361-.243-1.92-.741l.486-.583c.462.401.948.608 1.458.608.255 0 .45-.049.595-.158s.219-.255.219-.425a.48.48 0 0 0-.207-.413c-.134-.097-.377-.194-.717-.267-.34-.085-.595-.158-.778-.219-.182-.073-.328-.158-.474-.267-.267-.207-.413-.523-.413-.948s.158-.753.462-.984c.316-.231.693-.352 1.154-.352.292 0 .583.049.875.146s.547.231.753.413l-.413.583c-.134-.122-.316-.219-.559-.304a1.66 1.66 0 0 0-.668-.146zm-6.672.109v3.901h-.778V79.84h-1.398v-.717h3.585v.717zm-8.798 2.844c.207.243.498.365.863.365s.644-.122.863-.365.316-.583.316-1.009v-2.552h.778v2.588c0 .668-.182 1.179-.547 1.531-.365.365-.839.535-1.41.535s-1.045-.182-1.41-.535c-.365-.365-.547-.875-.547-1.531v-2.588h.778v2.552c0 .437.097.766.316 1.009zm-5.14-3.561v.729h-2.467v1.227h2.212v.693h-2.212v1.24h2.54v.729h-3.33v-4.618zm-7.936.608c.45.401.668.96.668 1.677s-.219 1.288-.644 1.701c-.437.413-1.094.632-1.981.632H49.49v-4.618h1.592c.814 0 1.458.207 1.896.608zm-.122 1.701c0-1.057-.608-1.592-1.823-1.592h-.766V83h.863c.559 0 .984-.134 1.288-.401.292-.255.437-.644.437-1.167zm80.838-8.264l-1.033-2.394h-4.642l-1.033 2.394h-2.637l4.788-11.083h2.394l4.788 11.083zm-3.354-7.778l-1.398 3.22h2.771zm-9.746-3.305h2.467v11.083h-2.479V62.086zm-3.731 1.458c1.057.972 1.592 2.309 1.592 4.035s-.51 3.087-1.543 4.095-2.601 1.507-4.715 1.507h-3.792V62.098h3.913c1.969-.012 3.488.474 4.545 1.446zm-1.823 6.587c.608-.571.911-1.398.911-2.491s-.304-1.932-.911-2.516-1.543-.875-2.795-.875h-1.385v6.745h1.568c1.142-.012 2.005-.292 2.613-.863zm-9.029-8.045v2.2h-5.517v2.285h4.958v2.115h-4.958v2.297h5.699v2.187h-8.166V62.086zm-13.198 4.108l-3.002 6.064h-1.47l-2.977-6.064v6.975h-2.479V62.086h3.354l2.856 6.088 2.868-6.088h3.33v11.083h-2.479zm-15.13-4.108h2.479v11.083h-2.479zm-11.253 0h2.479v4.557l4.193-4.557h3.05l-4.411 4.897 2.115 2.953 2.297 3.233H73.26l-3.257-4.375-1.106 1.24v3.135H66.43zm-5.201 0h2.479v11.083h-2.479zm-12.711 6.38l1.969-6.38h2.588l1.957 6.38 2.2-6.38h2.686l-3.864 11.083h-1.835l-2.43-7.705-2.406 7.705h-1.835l-3.864-11.083h2.686z" fill="#94a3b8"/></svg>