<svg width="43" height="40" viewBox="0 0 43 40" fill="none" xmlns="http://www.w3.org/2000/svg">
<g clip-path="url(#clip0_1628_443)">
<path d="M9.94663 40L17.1659 19.6774C11.0696 20.4839 5.45465 23.0645 0.802246 26.9355C1.92524 32.2581 5.29422 36.9355 9.94663 40Z" fill="white"/>
<path d="M33.2085 40C37.8609 37.0968 41.2299 32.4194 42.5133 26.9355C37.8609 22.9032 32.2459 20.3226 26.1497 19.6774L33.2085 40Z" fill="white"/>
<path d="M43.1551 22.7419V21.7742C43.1551 9.67742 33.5294 0 21.6578 0C9.78609 0 0 9.67742 0 21.7742V22.7419C6.25668 18.0645 13.7968 15.4839 21.6578 15.4839C29.3583 15.4839 36.8984 18.0645 43.1551 22.7419Z" fill="white"/>
</g>
<defs>
<clipPath id="clip0_1628_443">
<rect width="43" height="40" fill="white"/>
</clipPath>
</defs>
</svg>
