<svg width="63" height="29" viewBox="0 0 63 29" fill="none" xmlns="http://www.w3.org/2000/svg">
<path d="M9.55637 28.4955C14.0178 28.4955 15.3646 27.8221 17.8058 24.7917C17.8058 26.5583 19.2379 27.9904 21.0046 27.9904H24.2033V1.1377H17.4691V16.1214C17.4691 20.4986 15.1963 23.024 11.6608 23.024C8.37788 23.024 7.11521 21.172 7.11521 17.5524V1.1377H0.380981V18.8992C0.465159 25.3809 3.49556 28.4955 9.55637 28.4955Z" fill="white"/>
<path d="M51.1331 0.633925L46.7902 0.633789L44.5872 6.09502C44.5872 6.09502 56.3487 4.81101 56.3487 9.18831V9.77756C56.2645 11.0402 55.4227 11.7136 52.8974 11.882L48.2676 12.3871C41.5334 12.8921 39.0081 16.1751 39.0081 20.2998C39.0081 25.2663 42.3752 28.465 48.6885 28.465C53.0658 28.465 54.9177 27.96 56.3487 25.2663C56.4329 25.1821 56.517 25.0138 56.6012 24.8454C56.6012 26.5655 57.9957 27.96 59.7158 27.96H62.9988V10.3668C63.0829 4.89524 59.3825 0.718103 51.1331 0.633925ZM56.3487 16.6801C56.3487 20.5523 53.9917 23.7511 49.867 23.7511C46.4157 23.7511 44.9005 22.1517 44.9005 19.7106C44.9005 17.7745 46.2474 16.3434 49.6145 16.0909L52.8132 15.8384C54.6651 15.67 55.8436 15.3333 56.3487 14.8282V16.6801Z" fill="white"/>
<path d="M43.5637 0.634277H41.933C38.2292 0.634277 35.4981 2.56491 34.4037 5.59532V1.13388H28.0062V21.2524C28.0062 24.9716 31.0212 27.9866 34.7405 27.9866V13.508C34.7405 7.86448 37.3502 6.10037 41.3689 6.10037L43.5637 0.634277Z" fill="white"/>
</svg>
